<?xml version="1.0" encoding="utf-8" standalone="no"?>
<!DOCTYPE svg PUBLIC "-//W3C//DTD SVG 1.1//EN"
  "http://www.w3.org/Graphics/SVG/1.1/DTD/svg11.dtd">
<svg xmlns:xlink="http://www.w3.org/1999/xlink" width="936pt" height="648pt" viewBox="0 0 936 648" xmlns="http://www.w3.org/2000/svg" version="1.1">
 <metadata>
  <rdf:RDF xmlns:dc="http://purl.org/dc/elements/1.1/" xmlns:cc="http://creativecommons.org/ns#" xmlns:rdf="http://www.w3.org/1999/02/22-rdf-syntax-ns#">
   <cc:Work>
    <dc:type rdf:resource="http://purl.org/dc/dcmitype/StillImage"/>
    <dc:date>2026-02-23T14:10:31.744950</dc:date>
    <dc:format>image/svg+xml</dc:format>
    <dc:creator>
     <cc:Agent>
      <dc:title>Matplotlib v3.10.8, https://matplotlib.org/</dc:title>
     </cc:Agent>
    </dc:creator>
   </cc:Work>
  </rdf:RDF>
 </metadata>
 <defs>
  <style type="text/css">*{stroke-linejoin: round; stroke-linecap: butt}</style>
 </defs>
 <g id="figure_1">
  <g id="patch_1">
   <path d="M 0 648 
L 936 648 
L 936 0 
L 0 0 
z
" style="fill: #ffffff"/>
  </g>
  <g id="axes_1">
   <g id="patch_2">
    <path d="M 234 479.52 
L 702 479.52 
L 702 51.84 
L 234 51.84 
z
" style="fill: #ffffff"/>
   </g>
   <g id="matplotlib.axis_1">
    <g id="xtick_1">
     <g id="line2d_1">
      <path d="M 234 479.52 
L 234 51.84 
" clip-path="url(#p30b923bf95)" style="fill: none; stroke: #d0d0d0; stroke-opacity: 0.25; stroke-width: 0.8; stroke-linecap: square"/>
     </g>
     <g id="line2d_2">
      <defs>
       <path id="m3eea629c9e" d="M 0 0 
L 0 3.5 
" style="stroke: #000000; stroke-width: 0.8"/>
      </defs>
      <g>
       <use xlink:href="#m3eea629c9e" x="234" y="479.52" style="stroke: #000000; stroke-width: 0.8"/>
      </g>
     </g>
     <g id="text_1">
      <!-- 0% -->
      <g transform="translate(227.654375 492.59875) scale(0.08 -0.08)">
       <defs>
        <path id="DejaVuSans-30" d="M 2034 4250 
Q 1547 4250 1301 3770 
Q 1056 3291 1056 2328 
Q 1056 1369 1301 889 
Q 1547 409 2034 409 
Q 2525 409 2770 889 
Q 3016 1369 3016 2328 
Q 3016 3291 2770 3770 
Q 2525 4250 2034 4250 
z
M 2034 4750 
Q 2819 4750 3233 4129 
Q 3647 3509 3647 2328 
Q 3647 1150 3233 529 
Q 2819 -91 2034 -91 
Q 1250 -91 836 529 
Q 422 1150 422 2328 
Q 422 3509 836 4129 
Q 1250 4750 2034 4750 
z
" transform="scale(0.015625)"/>
        <path id="DejaVuSans-25" d="M 4653 2053 
Q 4381 2053 4226 1822 
Q 4072 1591 4072 1178 
Q 4072 772 4226 539 
Q 4381 306 4653 306 
Q 4919 306 5073 539 
Q 5228 772 5228 1178 
Q 5228 1588 5073 1820 
Q 4919 2053 4653 2053 
z
M 4653 2450 
Q 5147 2450 5437 2106 
Q 5728 1763 5728 1178 
Q 5728 594 5436 251 
Q 5144 -91 4653 -91 
Q 4153 -91 3862 251 
Q 3572 594 3572 1178 
Q 3572 1766 3864 2108 
Q 4156 2450 4653 2450 
z
M 1428 4353 
Q 1159 4353 1004 4120 
Q 850 3888 850 3481 
Q 850 3069 1003 2837 
Q 1156 2606 1428 2606 
Q 1700 2606 1854 2837 
Q 2009 3069 2009 3481 
Q 2009 3884 1853 4118 
Q 1697 4353 1428 4353 
z
M 4250 4750 
L 4750 4750 
L 1831 -91 
L 1331 -91 
L 4250 4750 
z
M 1428 4750 
Q 1922 4750 2215 4408 
Q 2509 4066 2509 3481 
Q 2509 2891 2217 2550 
Q 1925 2209 1428 2209 
Q 931 2209 642 2551 
Q 353 2894 353 3481 
Q 353 4063 643 4406 
Q 934 4750 1428 4750 
z
" transform="scale(0.015625)"/>
       </defs>
       <use xlink:href="#DejaVuSans-30"/>
       <use xlink:href="#DejaVuSans-25" transform="translate(63.623047 0)"/>
      </g>
     </g>
    </g>
    <g id="xtick_2">
     <g id="line2d_3">
      <path d="M 468 479.52 
L 468 51.84 
" clip-path="url(#p30b923bf95)" style="fill: none; stroke: #d0d0d0; stroke-opacity: 0.25; stroke-width: 0.8; stroke-linecap: square"/>
     </g>
     <g id="line2d_4">
      <g>
       <use xlink:href="#m3eea629c9e" x="468" y="479.52" style="stroke: #000000; stroke-width: 0.8"/>
      </g>
     </g>
     <g id="text_2">
      <!-- 50% -->
      <g transform="translate(459.109375 492.59875) scale(0.08 -0.08)">
       <defs>
        <path id="DejaVuSans-35" d="M 691 4666 
L 3169 4666 
L 3169 4134 
L 1269 4134 
L 1269 2991 
Q 1406 3038 1543 3061 
Q 1681 3084 1819 3084 
Q 2600 3084 3056 2656 
Q 3513 2228 3513 1497 
Q 3513 744 3044 326 
Q 2575 -91 1722 -91 
Q 1428 -91 1123 -41 
Q 819 9 494 109 
L 494 744 
Q 775 591 1075 516 
Q 1375 441 1709 441 
Q 2250 441 2565 725 
Q 2881 1009 2881 1497 
Q 2881 1984 2565 2268 
Q 2250 2553 1709 2553 
Q 1456 2553 1204 2497 
Q 953 2441 691 2322 
L 691 4666 
z
" transform="scale(0.015625)"/>
       </defs>
       <use xlink:href="#DejaVuSans-35"/>
       <use xlink:href="#DejaVuSans-30" transform="translate(63.623047 0)"/>
       <use xlink:href="#DejaVuSans-25" transform="translate(127.246094 0)"/>
      </g>
     </g>
    </g>
    <g id="xtick_3">
     <g id="line2d_5">
      <path d="M 702 479.52 
L 702 51.84 
" clip-path="url(#p30b923bf95)" style="fill: none; stroke: #d0d0d0; stroke-opacity: 0.25; stroke-width: 0.8; stroke-linecap: square"/>
     </g>
     <g id="line2d_6">
      <g>
       <use xlink:href="#m3eea629c9e" x="702" y="479.52" style="stroke: #000000; stroke-width: 0.8"/>
      </g>
     </g>
     <g id="text_3">
      <!-- 100% -->
      <g transform="translate(690.564375 492.59875) scale(0.08 -0.08)">
       <defs>
        <path id="DejaVuSans-31" d="M 794 531 
L 1825 531 
L 1825 4091 
L 703 3866 
L 703 4441 
L 1819 4666 
L 2450 4666 
L 2450 531 
L 3481 531 
L 3481 0 
L 794 0 
L 794 531 
z
" transform="scale(0.015625)"/>
       </defs>
       <use xlink:href="#DejaVuSans-31"/>
       <use xlink:href="#DejaVuSans-30" transform="translate(63.623047 0)"/>
       <use xlink:href="#DejaVuSans-30" transform="translate(127.246094 0)"/>
       <use xlink:href="#DejaVuSans-25" transform="translate(190.869141 0)"/>
      </g>
     </g>
    </g>
    <g id="text_4">
     <!-- Anteil der Teilnehmer in % -->
     <g transform="translate(402.15 505.860937) scale(0.1 -0.1)">
      <defs>
       <path id="DejaVuSans-41" d="M 2188 4044 
L 1331 1722 
L 3047 1722 
L 2188 4044 
z
M 1831 4666 
L 2547 4666 
L 4325 0 
L 3669 0 
L 3244 1197 
L 1141 1197 
L 716 0 
L 50 0 
L 1831 4666 
z
" transform="scale(0.015625)"/>
       <path id="DejaVuSans-6e" d="M 3513 2113 
L 3513 0 
L 2938 0 
L 2938 2094 
Q 2938 2591 2744 2837 
Q 2550 3084 2163 3084 
Q 1697 3084 1428 2787 
Q 1159 2491 1159 1978 
L 1159 0 
L 581 0 
L 581 3500 
L 1159 3500 
L 1159 2956 
Q 1366 3272 1645 3428 
Q 1925 3584 2291 3584 
Q 2894 3584 3203 3211 
Q 3513 2838 3513 2113 
z
" transform="scale(0.015625)"/>
       <path id="DejaVuSans-74" d="M 1172 4494 
L 1172 3500 
L 2356 3500 
L 2356 3053 
L 1172 3053 
L 1172 1153 
Q 1172 725 1289 603 
Q 1406 481 1766 481 
L 2356 481 
L 2356 0 
L 1766 0 
Q 1100 0 847 248 
Q 594 497 594 1153 
L 594 3053 
L 172 3053 
L 172 3500 
L 594 3500 
L 594 4494 
L 1172 4494 
z
" transform="scale(0.015625)"/>
       <path id="DejaVuSans-65" d="M 3597 1894 
L 3597 1613 
L 953 1613 
Q 991 1019 1311 708 
Q 1631 397 2203 397 
Q 2534 397 2845 478 
Q 3156 559 3463 722 
L 3463 178 
Q 3153 47 2828 -22 
Q 2503 -91 2169 -91 
Q 1331 -91 842 396 
Q 353 884 353 1716 
Q 353 2575 817 3079 
Q 1281 3584 2069 3584 
Q 2775 3584 3186 3129 
Q 3597 2675 3597 1894 
z
M 3022 2063 
Q 3016 2534 2758 2815 
Q 2500 3097 2075 3097 
Q 1594 3097 1305 2825 
Q 1016 2553 972 2059 
L 3022 2063 
z
" transform="scale(0.015625)"/>
       <path id="DejaVuSans-69" d="M 603 3500 
L 1178 3500 
L 1178 0 
L 603 0 
L 603 3500 
z
M 603 4863 
L 1178 4863 
L 1178 4134 
L 603 4134 
L 603 4863 
z
" transform="scale(0.015625)"/>
       <path id="DejaVuSans-6c" d="M 603 4863 
L 1178 4863 
L 1178 0 
L 603 0 
L 603 4863 
z
" transform="scale(0.015625)"/>
       <path id="DejaVuSans-20" transform="scale(0.015625)"/>
       <path id="DejaVuSans-64" d="M 2906 2969 
L 2906 4863 
L 3481 4863 
L 3481 0 
L 2906 0 
L 2906 525 
Q 2725 213 2448 61 
Q 2172 -91 1784 -91 
Q 1150 -91 751 415 
Q 353 922 353 1747 
Q 353 2572 751 3078 
Q 1150 3584 1784 3584 
Q 2172 3584 2448 3432 
Q 2725 3281 2906 2969 
z
M 947 1747 
Q 947 1113 1208 752 
Q 1469 391 1925 391 
Q 2381 391 2643 752 
Q 2906 1113 2906 1747 
Q 2906 2381 2643 2742 
Q 2381 3103 1925 3103 
Q 1469 3103 1208 2742 
Q 947 2381 947 1747 
z
" transform="scale(0.015625)"/>
       <path id="DejaVuSans-72" d="M 2631 2963 
Q 2534 3019 2420 3045 
Q 2306 3072 2169 3072 
Q 1681 3072 1420 2755 
Q 1159 2438 1159 1844 
L 1159 0 
L 581 0 
L 581 3500 
L 1159 3500 
L 1159 2956 
Q 1341 3275 1631 3429 
Q 1922 3584 2338 3584 
Q 2397 3584 2469 3576 
Q 2541 3569 2628 3553 
L 2631 2963 
z
" transform="scale(0.015625)"/>
       <path id="DejaVuSans-54" d="M -19 4666 
L 3928 4666 
L 3928 4134 
L 2272 4134 
L 2272 0 
L 1638 0 
L 1638 4134 
L -19 4134 
L -19 4666 
z
" transform="scale(0.015625)"/>
       <path id="DejaVuSans-68" d="M 3513 2113 
L 3513 0 
L 2938 0 
L 2938 2094 
Q 2938 2591 2744 2837 
Q 2550 3084 2163 3084 
Q 1697 3084 1428 2787 
Q 1159 2491 1159 1978 
L 1159 0 
L 581 0 
L 581 4863 
L 1159 4863 
L 1159 2956 
Q 1366 3272 1645 3428 
Q 1925 3584 2291 3584 
Q 2894 3584 3203 3211 
Q 3513 2838 3513 2113 
z
" transform="scale(0.015625)"/>
       <path id="DejaVuSans-6d" d="M 3328 2828 
Q 3544 3216 3844 3400 
Q 4144 3584 4550 3584 
Q 5097 3584 5394 3201 
Q 5691 2819 5691 2113 
L 5691 0 
L 5113 0 
L 5113 2094 
Q 5113 2597 4934 2840 
Q 4756 3084 4391 3084 
Q 3944 3084 3684 2787 
Q 3425 2491 3425 1978 
L 3425 0 
L 2847 0 
L 2847 2094 
Q 2847 2600 2669 2842 
Q 2491 3084 2119 3084 
Q 1678 3084 1418 2786 
Q 1159 2488 1159 1978 
L 1159 0 
L 581 0 
L 581 3500 
L 1159 3500 
L 1159 2956 
Q 1356 3278 1631 3431 
Q 1906 3584 2284 3584 
Q 2666 3584 2933 3390 
Q 3200 3197 3328 2828 
z
" transform="scale(0.015625)"/>
      </defs>
      <use xlink:href="#DejaVuSans-41"/>
      <use xlink:href="#DejaVuSans-6e" transform="translate(68.408203 0)"/>
      <use xlink:href="#DejaVuSans-74" transform="translate(131.787109 0)"/>
      <use xlink:href="#DejaVuSans-65" transform="translate(170.996094 0)"/>
      <use xlink:href="#DejaVuSans-69" transform="translate(232.519531 0)"/>
      <use xlink:href="#DejaVuSans-6c" transform="translate(260.302734 0)"/>
      <use xlink:href="#DejaVuSans-20" transform="translate(288.085938 0)"/>
      <use xlink:href="#DejaVuSans-64" transform="translate(319.873047 0)"/>
      <use xlink:href="#DejaVuSans-65" transform="translate(383.349609 0)"/>
      <use xlink:href="#DejaVuSans-72" transform="translate(444.873047 0)"/>
      <use xlink:href="#DejaVuSans-20" transform="translate(485.986328 0)"/>
      <use xlink:href="#DejaVuSans-54" transform="translate(517.773438 0)"/>
      <use xlink:href="#DejaVuSans-65" transform="translate(561.857422 0)"/>
      <use xlink:href="#DejaVuSans-69" transform="translate(623.380859 0)"/>
      <use xlink:href="#DejaVuSans-6c" transform="translate(651.164062 0)"/>
      <use xlink:href="#DejaVuSans-6e" transform="translate(678.947266 0)"/>
      <use xlink:href="#DejaVuSans-65" transform="translate(742.326172 0)"/>
      <use xlink:href="#DejaVuSans-68" transform="translate(803.849609 0)"/>
      <use xlink:href="#DejaVuSans-6d" transform="translate(867.228516 0)"/>
      <use xlink:href="#DejaVuSans-65" transform="translate(964.640625 0)"/>
      <use xlink:href="#DejaVuSans-72" transform="translate(1026.164062 0)"/>
      <use xlink:href="#DejaVuSans-20" transform="translate(1067.277344 0)"/>
      <use xlink:href="#DejaVuSans-69" transform="translate(1099.064453 0)"/>
      <use xlink:href="#DejaVuSans-6e" transform="translate(1126.847656 0)"/>
      <use xlink:href="#DejaVuSans-20" transform="translate(1190.226562 0)"/>
      <use xlink:href="#DejaVuSans-25" transform="translate(1222.013672 0)"/>
     </g>
    </g>
   </g>
   <g id="matplotlib.axis_2">
    <g id="ytick_1">
     <g id="line2d_7">
      <defs>
       <path id="md321702036" d="M 0 0 
L -3.5 0 
" style="stroke: #000000; stroke-width: 0.8"/>
      </defs>
      <g>
       <use xlink:href="#md321702036" x="234" y="121.68" style="stroke: #000000; stroke-width: 0.8"/>
      </g>
     </g>
     <g id="text_5">
      <!-- 20 - 1000 Stück/Monat -->
      <g transform="translate(136.02875 120.848125) scale(0.08 -0.08)">
       <defs>
        <path id="DejaVuSans-32" d="M 1228 531 
L 3431 531 
L 3431 0 
L 469 0 
L 469 531 
Q 828 903 1448 1529 
Q 2069 2156 2228 2338 
Q 2531 2678 2651 2914 
Q 2772 3150 2772 3378 
Q 2772 3750 2511 3984 
Q 2250 4219 1831 4219 
Q 1534 4219 1204 4116 
Q 875 4013 500 3803 
L 500 4441 
Q 881 4594 1212 4672 
Q 1544 4750 1819 4750 
Q 2544 4750 2975 4387 
Q 3406 4025 3406 3419 
Q 3406 3131 3298 2873 
Q 3191 2616 2906 2266 
Q 2828 2175 2409 1742 
Q 1991 1309 1228 531 
z
" transform="scale(0.015625)"/>
        <path id="DejaVuSans-2d" d="M 313 2009 
L 1997 2009 
L 1997 1497 
L 313 1497 
L 313 2009 
z
" transform="scale(0.015625)"/>
        <path id="DejaVuSans-53" d="M 3425 4513 
L 3425 3897 
Q 3066 4069 2747 4153 
Q 2428 4238 2131 4238 
Q 1616 4238 1336 4038 
Q 1056 3838 1056 3469 
Q 1056 3159 1242 3001 
Q 1428 2844 1947 2747 
L 2328 2669 
Q 3034 2534 3370 2195 
Q 3706 1856 3706 1288 
Q 3706 609 3251 259 
Q 2797 -91 1919 -91 
Q 1588 -91 1214 -16 
Q 841 59 441 206 
L 441 856 
Q 825 641 1194 531 
Q 1563 422 1919 422 
Q 2459 422 2753 634 
Q 3047 847 3047 1241 
Q 3047 1584 2836 1778 
Q 2625 1972 2144 2069 
L 1759 2144 
Q 1053 2284 737 2584 
Q 422 2884 422 3419 
Q 422 4038 858 4394 
Q 1294 4750 2059 4750 
Q 2388 4750 2728 4690 
Q 3069 4631 3425 4513 
z
" transform="scale(0.015625)"/>
        <path id="DejaVuSans-fc" d="M 544 1381 
L 544 3500 
L 1119 3500 
L 1119 1403 
Q 1119 906 1312 657 
Q 1506 409 1894 409 
Q 2359 409 2629 706 
Q 2900 1003 2900 1516 
L 2900 3500 
L 3475 3500 
L 3475 0 
L 2900 0 
L 2900 538 
Q 2691 219 2414 64 
Q 2138 -91 1772 -91 
Q 1169 -91 856 284 
Q 544 659 544 1381 
z
M 1991 3584 
L 1991 3584 
z
M 2278 4850 
L 2912 4850 
L 2912 4219 
L 2278 4219 
L 2278 4850 
z
M 1056 4850 
L 1690 4850 
L 1690 4219 
L 1056 4219 
L 1056 4850 
z
" transform="scale(0.015625)"/>
        <path id="DejaVuSans-63" d="M 3122 3366 
L 3122 2828 
Q 2878 2963 2633 3030 
Q 2388 3097 2138 3097 
Q 1578 3097 1268 2742 
Q 959 2388 959 1747 
Q 959 1106 1268 751 
Q 1578 397 2138 397 
Q 2388 397 2633 464 
Q 2878 531 3122 666 
L 3122 134 
Q 2881 22 2623 -34 
Q 2366 -91 2075 -91 
Q 1284 -91 818 406 
Q 353 903 353 1747 
Q 353 2603 823 3093 
Q 1294 3584 2113 3584 
Q 2378 3584 2631 3529 
Q 2884 3475 3122 3366 
z
" transform="scale(0.015625)"/>
        <path id="DejaVuSans-6b" d="M 581 4863 
L 1159 4863 
L 1159 1991 
L 2875 3500 
L 3609 3500 
L 1753 1863 
L 3688 0 
L 2938 0 
L 1159 1709 
L 1159 0 
L 581 0 
L 581 4863 
z
" transform="scale(0.015625)"/>
        <path id="DejaVuSans-2f" d="M 1625 4666 
L 2156 4666 
L 531 -594 
L 0 -594 
L 1625 4666 
z
" transform="scale(0.015625)"/>
        <path id="DejaVuSans-4d" d="M 628 4666 
L 1569 4666 
L 2759 1491 
L 3956 4666 
L 4897 4666 
L 4897 0 
L 4281 0 
L 4281 4097 
L 3078 897 
L 2444 897 
L 1241 4097 
L 1241 0 
L 628 0 
L 628 4666 
z
" transform="scale(0.015625)"/>
        <path id="DejaVuSans-6f" d="M 1959 3097 
Q 1497 3097 1228 2736 
Q 959 2375 959 1747 
Q 959 1119 1226 758 
Q 1494 397 1959 397 
Q 2419 397 2687 759 
Q 2956 1122 2956 1747 
Q 2956 2369 2687 2733 
Q 2419 3097 1959 3097 
z
M 1959 3584 
Q 2709 3584 3137 3096 
Q 3566 2609 3566 1747 
Q 3566 888 3137 398 
Q 2709 -91 1959 -91 
Q 1206 -91 779 398 
Q 353 888 353 1747 
Q 353 2609 779 3096 
Q 1206 3584 1959 3584 
z
" transform="scale(0.015625)"/>
        <path id="DejaVuSans-61" d="M 2194 1759 
Q 1497 1759 1228 1600 
Q 959 1441 959 1056 
Q 959 750 1161 570 
Q 1363 391 1709 391 
Q 2188 391 2477 730 
Q 2766 1069 2766 1631 
L 2766 1759 
L 2194 1759 
z
M 3341 1997 
L 3341 0 
L 2766 0 
L 2766 531 
Q 2569 213 2275 61 
Q 1981 -91 1556 -91 
Q 1019 -91 701 211 
Q 384 513 384 1019 
Q 384 1609 779 1909 
Q 1175 2209 1959 2209 
L 2766 2209 
L 2766 2266 
Q 2766 2663 2505 2880 
Q 2244 3097 1772 3097 
Q 1472 3097 1187 3025 
Q 903 2953 641 2809 
L 641 3341 
Q 956 3463 1253 3523 
Q 1550 3584 1831 3584 
Q 2591 3584 2966 3190 
Q 3341 2797 3341 1997 
z
" transform="scale(0.015625)"/>
       </defs>
       <use xlink:href="#DejaVuSans-32"/>
       <use xlink:href="#DejaVuSans-30" transform="translate(63.623047 0)"/>
       <use xlink:href="#DejaVuSans-20" transform="translate(127.246094 0)"/>
       <use xlink:href="#DejaVuSans-2d" transform="translate(159.033203 0)"/>
       <use xlink:href="#DejaVuSans-20" transform="translate(195.117188 0)"/>
       <use xlink:href="#DejaVuSans-31" transform="translate(226.904297 0)"/>
       <use xlink:href="#DejaVuSans-30" transform="translate(290.527344 0)"/>
       <use xlink:href="#DejaVuSans-30" transform="translate(354.150391 0)"/>
       <use xlink:href="#DejaVuSans-30" transform="translate(417.773438 0)"/>
       <use xlink:href="#DejaVuSans-20" transform="translate(481.396484 0)"/>
       <use xlink:href="#DejaVuSans-53" transform="translate(513.183594 0)"/>
       <use xlink:href="#DejaVuSans-74" transform="translate(576.660156 0)"/>
       <use xlink:href="#DejaVuSans-fc" transform="translate(615.869141 0)"/>
       <use xlink:href="#DejaVuSans-63" transform="translate(679.248047 0)"/>
       <use xlink:href="#DejaVuSans-6b" transform="translate(734.228516 0)"/>
       <use xlink:href="#DejaVuSans-2f" transform="translate(792.138672 0)"/>
       <use xlink:href="#DejaVuSans-4d" transform="translate(825.830078 0)"/>
       <use xlink:href="#DejaVuSans-6f" transform="translate(912.109375 0)"/>
       <use xlink:href="#DejaVuSans-6e" transform="translate(973.291016 0)"/>
       <use xlink:href="#DejaVuSans-61" transform="translate(1036.669922 0)"/>
       <use xlink:href="#DejaVuSans-74" transform="translate(1097.949219 0)"/>
      </g>
      <!-- (Mittelserienfertigung) -->
      <g transform="translate(136.9375 129.806375) scale(0.08 -0.08)">
       <defs>
        <path id="DejaVuSans-28" d="M 1984 4856 
Q 1566 4138 1362 3434 
Q 1159 2731 1159 2009 
Q 1159 1288 1364 580 
Q 1569 -128 1984 -844 
L 1484 -844 
Q 1016 -109 783 600 
Q 550 1309 550 2009 
Q 550 2706 781 3412 
Q 1013 4119 1484 4856 
L 1984 4856 
z
" transform="scale(0.015625)"/>
        <path id="DejaVuSans-73" d="M 2834 3397 
L 2834 2853 
Q 2591 2978 2328 3040 
Q 2066 3103 1784 3103 
Q 1356 3103 1142 2972 
Q 928 2841 928 2578 
Q 928 2378 1081 2264 
Q 1234 2150 1697 2047 
L 1894 2003 
Q 2506 1872 2764 1633 
Q 3022 1394 3022 966 
Q 3022 478 2636 193 
Q 2250 -91 1575 -91 
Q 1294 -91 989 -36 
Q 684 19 347 128 
L 347 722 
Q 666 556 975 473 
Q 1284 391 1588 391 
Q 1994 391 2212 530 
Q 2431 669 2431 922 
Q 2431 1156 2273 1281 
Q 2116 1406 1581 1522 
L 1381 1569 
Q 847 1681 609 1914 
Q 372 2147 372 2553 
Q 372 3047 722 3315 
Q 1072 3584 1716 3584 
Q 2034 3584 2315 3537 
Q 2597 3491 2834 3397 
z
" transform="scale(0.015625)"/>
        <path id="DejaVuSans-66" d="M 2375 4863 
L 2375 4384 
L 1825 4384 
Q 1516 4384 1395 4259 
Q 1275 4134 1275 3809 
L 1275 3500 
L 2222 3500 
L 2222 3053 
L 1275 3053 
L 1275 0 
L 697 0 
L 697 3053 
L 147 3053 
L 147 3500 
L 697 3500 
L 697 3744 
Q 697 4328 969 4595 
Q 1241 4863 1831 4863 
L 2375 4863 
z
" transform="scale(0.015625)"/>
        <path id="DejaVuSans-67" d="M 2906 1791 
Q 2906 2416 2648 2759 
Q 2391 3103 1925 3103 
Q 1463 3103 1205 2759 
Q 947 2416 947 1791 
Q 947 1169 1205 825 
Q 1463 481 1925 481 
Q 2391 481 2648 825 
Q 2906 1169 2906 1791 
z
M 3481 434 
Q 3481 -459 3084 -895 
Q 2688 -1331 1869 -1331 
Q 1566 -1331 1297 -1286 
Q 1028 -1241 775 -1147 
L 775 -588 
Q 1028 -725 1275 -790 
Q 1522 -856 1778 -856 
Q 2344 -856 2625 -561 
Q 2906 -266 2906 331 
L 2906 616 
Q 2728 306 2450 153 
Q 2172 0 1784 0 
Q 1141 0 747 490 
Q 353 981 353 1791 
Q 353 2603 747 3093 
Q 1141 3584 1784 3584 
Q 2172 3584 2450 3431 
Q 2728 3278 2906 2969 
L 2906 3500 
L 3481 3500 
L 3481 434 
z
" transform="scale(0.015625)"/>
        <path id="DejaVuSans-75" d="M 544 1381 
L 544 3500 
L 1119 3500 
L 1119 1403 
Q 1119 906 1312 657 
Q 1506 409 1894 409 
Q 2359 409 2629 706 
Q 2900 1003 2900 1516 
L 2900 3500 
L 3475 3500 
L 3475 0 
L 2900 0 
L 2900 538 
Q 2691 219 2414 64 
Q 2138 -91 1772 -91 
Q 1169 -91 856 284 
Q 544 659 544 1381 
z
M 1991 3584 
L 1991 3584 
z
" transform="scale(0.015625)"/>
        <path id="DejaVuSans-29" d="M 513 4856 
L 1013 4856 
Q 1481 4119 1714 3412 
Q 1947 2706 1947 2009 
Q 1947 1309 1714 600 
Q 1481 -109 1013 -844 
L 513 -844 
Q 928 -128 1133 580 
Q 1338 1288 1338 2009 
Q 1338 2731 1133 3434 
Q 928 4138 513 4856 
z
" transform="scale(0.015625)"/>
       </defs>
       <use xlink:href="#DejaVuSans-28"/>
       <use xlink:href="#DejaVuSans-4d" transform="translate(39.013672 0)"/>
       <use xlink:href="#DejaVuSans-69" transform="translate(125.292969 0)"/>
       <use xlink:href="#DejaVuSans-74" transform="translate(153.076172 0)"/>
       <use xlink:href="#DejaVuSans-74" transform="translate(192.285156 0)"/>
       <use xlink:href="#DejaVuSans-65" transform="translate(231.494141 0)"/>
       <use xlink:href="#DejaVuSans-6c" transform="translate(293.017578 0)"/>
       <use xlink:href="#DejaVuSans-73" transform="translate(320.800781 0)"/>
       <use xlink:href="#DejaVuSans-65" transform="translate(372.900391 0)"/>
       <use xlink:href="#DejaVuSans-72" transform="translate(434.423828 0)"/>
       <use xlink:href="#DejaVuSans-69" transform="translate(475.537109 0)"/>
       <use xlink:href="#DejaVuSans-65" transform="translate(503.320312 0)"/>
       <use xlink:href="#DejaVuSans-6e" transform="translate(564.84375 0)"/>
       <use xlink:href="#DejaVuSans-66" transform="translate(628.222656 0)"/>
       <use xlink:href="#DejaVuSans-65" transform="translate(663.427734 0)"/>
       <use xlink:href="#DejaVuSans-72" transform="translate(724.951172 0)"/>
       <use xlink:href="#DejaVuSans-74" transform="translate(766.064453 0)"/>
       <use xlink:href="#DejaVuSans-69" transform="translate(805.273438 0)"/>
       <use xlink:href="#DejaVuSans-67" transform="translate(833.056641 0)"/>
       <use xlink:href="#DejaVuSans-75" transform="translate(896.533203 0)"/>
       <use xlink:href="#DejaVuSans-6e" transform="translate(959.912109 0)"/>
       <use xlink:href="#DejaVuSans-67" transform="translate(1023.291016 0)"/>
       <use xlink:href="#DejaVuSans-29" transform="translate(1086.767578 0)"/>
      </g>
     </g>
    </g>
    <g id="ytick_2">
     <g id="line2d_8">
      <g>
       <use xlink:href="#md321702036" x="234" y="265.68" style="stroke: #000000; stroke-width: 0.8"/>
      </g>
     </g>
     <g id="text_6">
      <!-- &lt; 20 Stück/Monat (Einzel - oder -->
      <g transform="translate(99.6025 264.848125) scale(0.08 -0.08)">
       <defs>
        <path id="DejaVuSans-3c" d="M 4684 3150 
L 1459 2003 
L 4684 863 
L 4684 294 
L 678 1747 
L 678 2266 
L 4684 3719 
L 4684 3150 
z
" transform="scale(0.015625)"/>
        <path id="DejaVuSans-45" d="M 628 4666 
L 3578 4666 
L 3578 4134 
L 1259 4134 
L 1259 2753 
L 3481 2753 
L 3481 2222 
L 1259 2222 
L 1259 531 
L 3634 531 
L 3634 0 
L 628 0 
L 628 4666 
z
" transform="scale(0.015625)"/>
        <path id="DejaVuSans-7a" d="M 353 3500 
L 3084 3500 
L 3084 2975 
L 922 459 
L 3084 459 
L 3084 0 
L 275 0 
L 275 525 
L 2438 3041 
L 353 3041 
L 353 3500 
z
" transform="scale(0.015625)"/>
       </defs>
       <use xlink:href="#DejaVuSans-3c"/>
       <use xlink:href="#DejaVuSans-20" transform="translate(83.789062 0)"/>
       <use xlink:href="#DejaVuSans-32" transform="translate(115.576172 0)"/>
       <use xlink:href="#DejaVuSans-30" transform="translate(179.199219 0)"/>
       <use xlink:href="#DejaVuSans-20" transform="translate(242.822266 0)"/>
       <use xlink:href="#DejaVuSans-53" transform="translate(274.609375 0)"/>
       <use xlink:href="#DejaVuSans-74" transform="translate(338.085938 0)"/>
       <use xlink:href="#DejaVuSans-fc" transform="translate(377.294922 0)"/>
       <use xlink:href="#DejaVuSans-63" transform="translate(440.673828 0)"/>
       <use xlink:href="#DejaVuSans-6b" transform="translate(495.654297 0)"/>
       <use xlink:href="#DejaVuSans-2f" transform="translate(553.564453 0)"/>
       <use xlink:href="#DejaVuSans-4d" transform="translate(587.255859 0)"/>
       <use xlink:href="#DejaVuSans-6f" transform="translate(673.535156 0)"/>
       <use xlink:href="#DejaVuSans-6e" transform="translate(734.716797 0)"/>
       <use xlink:href="#DejaVuSans-61" transform="translate(798.095703 0)"/>
       <use xlink:href="#DejaVuSans-74" transform="translate(859.375 0)"/>
       <use xlink:href="#DejaVuSans-20" transform="translate(898.583984 0)"/>
       <use xlink:href="#DejaVuSans-28" transform="translate(930.371094 0)"/>
       <use xlink:href="#DejaVuSans-45" transform="translate(969.384766 0)"/>
       <use xlink:href="#DejaVuSans-69" transform="translate(1032.568359 0)"/>
       <use xlink:href="#DejaVuSans-6e" transform="translate(1060.351562 0)"/>
       <use xlink:href="#DejaVuSans-7a" transform="translate(1123.730469 0)"/>
       <use xlink:href="#DejaVuSans-65" transform="translate(1176.220703 0)"/>
       <use xlink:href="#DejaVuSans-6c" transform="translate(1237.744141 0)"/>
       <use xlink:href="#DejaVuSans-20" transform="translate(1265.527344 0)"/>
       <use xlink:href="#DejaVuSans-2d" transform="translate(1297.314453 0)"/>
       <use xlink:href="#DejaVuSans-20" transform="translate(1333.398438 0)"/>
       <use xlink:href="#DejaVuSans-6f" transform="translate(1365.185547 0)"/>
       <use xlink:href="#DejaVuSans-64" transform="translate(1426.367188 0)"/>
       <use xlink:href="#DejaVuSans-65" transform="translate(1489.84375 0)"/>
       <use xlink:href="#DejaVuSans-72" transform="translate(1551.367188 0)"/>
      </g>
      <!-- Kleinserienfertigung) -->
      <g transform="translate(142.9175 273.806375) scale(0.08 -0.08)">
       <defs>
        <path id="DejaVuSans-4b" d="M 628 4666 
L 1259 4666 
L 1259 2694 
L 3353 4666 
L 4166 4666 
L 1850 2491 
L 4331 0 
L 3500 0 
L 1259 2247 
L 1259 0 
L 628 0 
L 628 4666 
z
" transform="scale(0.015625)"/>
       </defs>
       <use xlink:href="#DejaVuSans-4b"/>
       <use xlink:href="#DejaVuSans-6c" transform="translate(65.576172 0)"/>
       <use xlink:href="#DejaVuSans-65" transform="translate(93.359375 0)"/>
       <use xlink:href="#DejaVuSans-69" transform="translate(154.882812 0)"/>
       <use xlink:href="#DejaVuSans-6e" transform="translate(182.666016 0)"/>
       <use xlink:href="#DejaVuSans-73" transform="translate(246.044922 0)"/>
       <use xlink:href="#DejaVuSans-65" transform="translate(298.144531 0)"/>
       <use xlink:href="#DejaVuSans-72" transform="translate(359.667969 0)"/>
       <use xlink:href="#DejaVuSans-69" transform="translate(400.78125 0)"/>
       <use xlink:href="#DejaVuSans-65" transform="translate(428.564453 0)"/>
       <use xlink:href="#DejaVuSans-6e" transform="translate(490.087891 0)"/>
       <use xlink:href="#DejaVuSans-66" transform="translate(553.466797 0)"/>
       <use xlink:href="#DejaVuSans-65" transform="translate(588.671875 0)"/>
       <use xlink:href="#DejaVuSans-72" transform="translate(650.195312 0)"/>
       <use xlink:href="#DejaVuSans-74" transform="translate(691.308594 0)"/>
       <use xlink:href="#DejaVuSans-69" transform="translate(730.517578 0)"/>
       <use xlink:href="#DejaVuSans-67" transform="translate(758.300781 0)"/>
       <use xlink:href="#DejaVuSans-75" transform="translate(821.777344 0)"/>
       <use xlink:href="#DejaVuSans-6e" transform="translate(885.15625 0)"/>
       <use xlink:href="#DejaVuSans-67" transform="translate(948.535156 0)"/>
       <use xlink:href="#DejaVuSans-29" transform="translate(1012.011719 0)"/>
      </g>
     </g>
    </g>
    <g id="ytick_3">
     <g id="line2d_9">
      <g>
       <use xlink:href="#md321702036" x="234" y="409.68" style="stroke: #000000; stroke-width: 0.8"/>
      </g>
     </g>
     <g id="text_7">
      <!-- &gt; 1000 Stück/Monat (Großserien - oder -->
      <g transform="translate(69.27875 408.848125) scale(0.08 -0.08)">
       <defs>
        <path id="DejaVuSans-3e" d="M 678 3150 
L 678 3719 
L 4684 2266 
L 4684 1747 
L 678 294 
L 678 863 
L 3897 2003 
L 678 3150 
z
" transform="scale(0.015625)"/>
        <path id="DejaVuSans-47" d="M 3809 666 
L 3809 1919 
L 2778 1919 
L 2778 2438 
L 4434 2438 
L 4434 434 
Q 4069 175 3628 42 
Q 3188 -91 2688 -91 
Q 1594 -91 976 548 
Q 359 1188 359 2328 
Q 359 3472 976 4111 
Q 1594 4750 2688 4750 
Q 3144 4750 3555 4637 
Q 3966 4525 4313 4306 
L 4313 3634 
Q 3963 3931 3569 4081 
Q 3175 4231 2741 4231 
Q 1884 4231 1454 3753 
Q 1025 3275 1025 2328 
Q 1025 1384 1454 906 
Q 1884 428 2741 428 
Q 3075 428 3337 486 
Q 3600 544 3809 666 
z
" transform="scale(0.015625)"/>
        <path id="DejaVuSans-df" d="M 581 3553 
Q 581 4178 954 4520 
Q 1328 4863 2009 4863 
Q 2659 4863 3001 4500 
Q 3344 4138 3353 3438 
Q 2881 3413 2618 3233 
Q 2356 3053 2356 2753 
Q 2356 2606 2447 2479 
Q 2538 2353 2741 2222 
L 2919 2106 
Q 3438 1775 3588 1553 
Q 3738 1331 3738 1019 
Q 3738 481 3386 195 
Q 3034 -91 2375 -91 
Q 2175 -91 1962 -52 
Q 1750 -13 1522 63 
L 1522 575 
Q 1772 481 1990 436 
Q 2209 391 2413 391 
Q 2775 391 2962 539 
Q 3150 688 3150 972 
Q 3150 1169 3058 1300 
Q 2966 1431 2650 1625 
L 2363 1797 
Q 2063 1981 1927 2192 
Q 1791 2403 1791 2688 
Q 1791 3084 2052 3353 
Q 2313 3622 2784 3713 
Q 2759 4034 2554 4209 
Q 2350 4384 1997 4384 
Q 1591 4384 1378 4167 
Q 1166 3950 1166 3541 
L 1166 0 
L 581 0 
L 581 3553 
z
" transform="scale(0.015625)"/>
       </defs>
       <use xlink:href="#DejaVuSans-3e"/>
       <use xlink:href="#DejaVuSans-20" transform="translate(83.789062 0)"/>
       <use xlink:href="#DejaVuSans-31" transform="translate(115.576172 0)"/>
       <use xlink:href="#DejaVuSans-30" transform="translate(179.199219 0)"/>
       <use xlink:href="#DejaVuSans-30" transform="translate(242.822266 0)"/>
       <use xlink:href="#DejaVuSans-30" transform="translate(306.445312 0)"/>
       <use xlink:href="#DejaVuSans-20" transform="translate(370.068359 0)"/>
       <use xlink:href="#DejaVuSans-53" transform="translate(401.855469 0)"/>
       <use xlink:href="#DejaVuSans-74" transform="translate(465.332031 0)"/>
       <use xlink:href="#DejaVuSans-fc" transform="translate(504.541016 0)"/>
       <use xlink:href="#DejaVuSans-63" transform="translate(567.919922 0)"/>
       <use xlink:href="#DejaVuSans-6b" transform="translate(622.900391 0)"/>
       <use xlink:href="#DejaVuSans-2f" transform="translate(680.810547 0)"/>
       <use xlink:href="#DejaVuSans-4d" transform="translate(714.501953 0)"/>
       <use xlink:href="#DejaVuSans-6f" transform="translate(800.78125 0)"/>
       <use xlink:href="#DejaVuSans-6e" transform="translate(861.962891 0)"/>
       <use xlink:href="#DejaVuSans-61" transform="translate(925.341797 0)"/>
       <use xlink:href="#DejaVuSans-74" transform="translate(986.621094 0)"/>
       <use xlink:href="#DejaVuSans-20" transform="translate(1025.830078 0)"/>
       <use xlink:href="#DejaVuSans-28" transform="translate(1057.617188 0)"/>
       <use xlink:href="#DejaVuSans-47" transform="translate(1096.630859 0)"/>
       <use xlink:href="#DejaVuSans-72" transform="translate(1174.121094 0)"/>
       <use xlink:href="#DejaVuSans-6f" transform="translate(1212.984375 0)"/>
       <use xlink:href="#DejaVuSans-df" transform="translate(1274.166016 0)"/>
       <use xlink:href="#DejaVuSans-73" transform="translate(1337.154297 0)"/>
       <use xlink:href="#DejaVuSans-65" transform="translate(1389.253906 0)"/>
       <use xlink:href="#DejaVuSans-72" transform="translate(1450.777344 0)"/>
       <use xlink:href="#DejaVuSans-69" transform="translate(1491.890625 0)"/>
       <use xlink:href="#DejaVuSans-65" transform="translate(1519.673828 0)"/>
       <use xlink:href="#DejaVuSans-6e" transform="translate(1581.197266 0)"/>
       <use xlink:href="#DejaVuSans-20" transform="translate(1644.576172 0)"/>
       <use xlink:href="#DejaVuSans-2d" transform="translate(1676.363281 0)"/>
       <use xlink:href="#DejaVuSans-20" transform="translate(1712.447266 0)"/>
       <use xlink:href="#DejaVuSans-6f" transform="translate(1744.234375 0)"/>
       <use xlink:href="#DejaVuSans-64" transform="translate(1805.416016 0)"/>
       <use xlink:href="#DejaVuSans-65" transform="translate(1868.892578 0)"/>
       <use xlink:href="#DejaVuSans-72" transform="translate(1930.416016 0)"/>
      </g>
      <!-- Massenfertigung) -->
      <g transform="translate(157.0625 417.806375) scale(0.08 -0.08)">
       <use xlink:href="#DejaVuSans-4d"/>
       <use xlink:href="#DejaVuSans-61" transform="translate(86.279297 0)"/>
       <use xlink:href="#DejaVuSans-73" transform="translate(147.558594 0)"/>
       <use xlink:href="#DejaVuSans-73" transform="translate(199.658203 0)"/>
       <use xlink:href="#DejaVuSans-65" transform="translate(251.757812 0)"/>
       <use xlink:href="#DejaVuSans-6e" transform="translate(313.28125 0)"/>
       <use xlink:href="#DejaVuSans-66" transform="translate(376.660156 0)"/>
       <use xlink:href="#DejaVuSans-65" transform="translate(411.865234 0)"/>
       <use xlink:href="#DejaVuSans-72" transform="translate(473.388672 0)"/>
       <use xlink:href="#DejaVuSans-74" transform="translate(514.501953 0)"/>
       <use xlink:href="#DejaVuSans-69" transform="translate(553.710938 0)"/>
       <use xlink:href="#DejaVuSans-67" transform="translate(581.494141 0)"/>
       <use xlink:href="#DejaVuSans-75" transform="translate(644.970703 0)"/>
       <use xlink:href="#DejaVuSans-6e" transform="translate(708.349609 0)"/>
       <use xlink:href="#DejaVuSans-67" transform="translate(771.728516 0)"/>
       <use xlink:href="#DejaVuSans-29" transform="translate(835.205078 0)"/>
      </g>
     </g>
    </g>
    <g id="text_8">
     <!-- Monatliche Fertigungsstückzahl -->
     <g transform="translate(63.199062 344.605) rotate(-90) scale(0.1 -0.1)">
      <defs>
       <path id="DejaVuSans-46" d="M 628 4666 
L 3309 4666 
L 3309 4134 
L 1259 4134 
L 1259 2759 
L 3109 2759 
L 3109 2228 
L 1259 2228 
L 1259 0 
L 628 0 
L 628 4666 
z
" transform="scale(0.015625)"/>
      </defs>
      <use xlink:href="#DejaVuSans-4d"/>
      <use xlink:href="#DejaVuSans-6f" transform="translate(86.279297 0)"/>
      <use xlink:href="#DejaVuSans-6e" transform="translate(147.460938 0)"/>
      <use xlink:href="#DejaVuSans-61" transform="translate(210.839844 0)"/>
      <use xlink:href="#DejaVuSans-74" transform="translate(272.119141 0)"/>
      <use xlink:href="#DejaVuSans-6c" transform="translate(311.328125 0)"/>
      <use xlink:href="#DejaVuSans-69" transform="translate(339.111328 0)"/>
      <use xlink:href="#DejaVuSans-63" transform="translate(366.894531 0)"/>
      <use xlink:href="#DejaVuSans-68" transform="translate(421.875 0)"/>
      <use xlink:href="#DejaVuSans-65" transform="translate(485.253906 0)"/>
      <use xlink:href="#DejaVuSans-20" transform="translate(546.777344 0)"/>
      <use xlink:href="#DejaVuSans-46" transform="translate(578.564453 0)"/>
      <use xlink:href="#DejaVuSans-65" transform="translate(630.583984 0)"/>
      <use xlink:href="#DejaVuSans-72" transform="translate(692.107422 0)"/>
      <use xlink:href="#DejaVuSans-74" transform="translate(733.220703 0)"/>
      <use xlink:href="#DejaVuSans-69" transform="translate(772.429688 0)"/>
      <use xlink:href="#DejaVuSans-67" transform="translate(800.212891 0)"/>
      <use xlink:href="#DejaVuSans-75" transform="translate(863.689453 0)"/>
      <use xlink:href="#DejaVuSans-6e" transform="translate(927.068359 0)"/>
      <use xlink:href="#DejaVuSans-67" transform="translate(990.447266 0)"/>
      <use xlink:href="#DejaVuSans-73" transform="translate(1053.923828 0)"/>
      <use xlink:href="#DejaVuSans-73" transform="translate(1106.023438 0)"/>
      <use xlink:href="#DejaVuSans-74" transform="translate(1158.123047 0)"/>
      <use xlink:href="#DejaVuSans-fc" transform="translate(1197.332031 0)"/>
      <use xlink:href="#DejaVuSans-63" transform="translate(1260.710938 0)"/>
      <use xlink:href="#DejaVuSans-6b" transform="translate(1315.691406 0)"/>
      <use xlink:href="#DejaVuSans-7a" transform="translate(1373.601562 0)"/>
      <use xlink:href="#DejaVuSans-61" transform="translate(1426.091797 0)"/>
      <use xlink:href="#DejaVuSans-68" transform="translate(1487.371094 0)"/>
      <use xlink:href="#DejaVuSans-6c" transform="translate(1550.75 0)"/>
     </g>
    </g>
   </g>
   <g id="patch_3">
    <path d="M 234 71.28 
L 490.645161 71.28 
L 490.645161 121.68 
L 234 121.68 
z
" clip-path="url(#p30b923bf95)" style="fill: #003b6a"/>
   </g>
   <g id="patch_4">
    <path d="M 234 215.28 
L 468 215.28 
L 468 265.68 
L 234 265.68 
z
" clip-path="url(#p30b923bf95)" style="fill: #003b6a"/>
   </g>
   <g id="patch_5">
    <path d="M 234 359.28 
L 564.352941 359.28 
L 564.352941 409.68 
L 234 409.68 
z
" clip-path="url(#p30b923bf95)" style="fill: #003b6a"/>
   </g>
   <g id="patch_6">
    <path d="M 234 121.68 
L 445.354839 121.68 
L 445.354839 172.08 
L 234 172.08 
z
" clip-path="url(#p30b923bf95)" style="fill: #dc912f"/>
   </g>
   <g id="patch_7">
    <path d="M 234 265.68 
L 468 265.68 
L 468 316.08 
L 234 316.08 
z
" clip-path="url(#p30b923bf95)" style="fill: #dc912f"/>
   </g>
   <g id="patch_8">
    <path d="M 234 409.68 
L 371.647059 409.68 
L 371.647059 460.08 
L 234 460.08 
z
" clip-path="url(#p30b923bf95)" style="fill: #dc912f"/>
   </g>
   <g id="patch_9">
    <path d="M 234 479.52 
L 234 51.84 
" style="fill: none; stroke: #333333; stroke-width: 0.9; stroke-linejoin: miter; stroke-linecap: square"/>
   </g>
   <g id="patch_10">
    <path d="M 702 479.52 
L 702 51.84 
" style="fill: none; stroke: #333333; stroke-width: 0.9; stroke-linejoin: miter; stroke-linecap: square"/>
   </g>
   <g id="patch_11">
    <path d="M 234 479.52 
L 702 479.52 
" style="fill: none; stroke: #333333; stroke-width: 0.9; stroke-linejoin: miter; stroke-linecap: square"/>
   </g>
   <g id="patch_12">
    <path d="M 234 51.84 
L 702 51.84 
" style="fill: none; stroke: #333333; stroke-width: 0.9; stroke-linejoin: miter; stroke-linecap: square"/>
   </g>
   <g id="text_9">
    <!-- 55% -->
    <g style="fill: #ffffff" transform="translate(353.431956 98.6875) scale(0.08 -0.08)">
     <use xlink:href="#DejaVuSans-35"/>
     <use xlink:href="#DejaVuSans-35" transform="translate(63.623047 0)"/>
     <use xlink:href="#DejaVuSans-25" transform="translate(127.246094 0)"/>
    </g>
   </g>
   <g id="text_10">
    <!-- 50% -->
    <g style="fill: #ffffff" transform="translate(342.109375 242.6875) scale(0.08 -0.08)">
     <use xlink:href="#DejaVuSans-35"/>
     <use xlink:href="#DejaVuSans-30" transform="translate(63.623047 0)"/>
     <use xlink:href="#DejaVuSans-25" transform="translate(127.246094 0)"/>
    </g>
   </g>
   <g id="text_11">
    <!-- 71% -->
    <g style="fill: #ffffff" transform="translate(390.285846 386.6875) scale(0.08 -0.08)">
     <defs>
      <path id="DejaVuSans-37" d="M 525 4666 
L 3525 4666 
L 3525 4397 
L 1831 0 
L 1172 0 
L 2766 4134 
L 525 4134 
L 525 4666 
z
" transform="scale(0.015625)"/>
     </defs>
     <use xlink:href="#DejaVuSans-37"/>
     <use xlink:href="#DejaVuSans-31" transform="translate(63.623047 0)"/>
     <use xlink:href="#DejaVuSans-25" transform="translate(127.246094 0)"/>
    </g>
   </g>
   <g id="text_12">
    <!-- 45% -->
    <g style="fill: #ffffff" transform="translate(330.786794 149.0875) scale(0.08 -0.08)">
     <defs>
      <path id="DejaVuSans-34" d="M 2419 4116 
L 825 1625 
L 2419 1625 
L 2419 4116 
z
M 2253 4666 
L 3047 4666 
L 3047 1625 
L 3713 1625 
L 3713 1100 
L 3047 1100 
L 3047 0 
L 2419 0 
L 2419 1100 
L 313 1100 
L 313 1709 
L 2253 4666 
z
" transform="scale(0.015625)"/>
     </defs>
     <use xlink:href="#DejaVuSans-34"/>
     <use xlink:href="#DejaVuSans-35" transform="translate(63.623047 0)"/>
     <use xlink:href="#DejaVuSans-25" transform="translate(127.246094 0)"/>
    </g>
   </g>
   <g id="text_13">
    <!-- 50% -->
    <g style="fill: #ffffff" transform="translate(342.109375 293.0875) scale(0.08 -0.08)">
     <use xlink:href="#DejaVuSans-35"/>
     <use xlink:href="#DejaVuSans-30" transform="translate(63.623047 0)"/>
     <use xlink:href="#DejaVuSans-25" transform="translate(127.246094 0)"/>
    </g>
   </g>
   <g id="text_14">
    <!-- 29% -->
    <g style="fill: #ffffff" transform="translate(293.932904 437.0875) scale(0.08 -0.08)">
     <defs>
      <path id="DejaVuSans-39" d="M 703 97 
L 703 672 
Q 941 559 1184 500 
Q 1428 441 1663 441 
Q 2288 441 2617 861 
Q 2947 1281 2994 2138 
Q 2813 1869 2534 1725 
Q 2256 1581 1919 1581 
Q 1219 1581 811 2004 
Q 403 2428 403 3163 
Q 403 3881 828 4315 
Q 1253 4750 1959 4750 
Q 2769 4750 3195 4129 
Q 3622 3509 3622 2328 
Q 3622 1225 3098 567 
Q 2575 -91 1691 -91 
Q 1453 -91 1209 -44 
Q 966 3 703 97 
z
M 1959 2075 
Q 2384 2075 2632 2365 
Q 2881 2656 2881 3163 
Q 2881 3666 2632 3958 
Q 2384 4250 1959 4250 
Q 1534 4250 1286 3958 
Q 1038 3666 1038 3163 
Q 1038 2656 1286 2365 
Q 1534 2075 1959 2075 
z
" transform="scale(0.015625)"/>
     </defs>
     <use xlink:href="#DejaVuSans-32"/>
     <use xlink:href="#DejaVuSans-39" transform="translate(63.623047 0)"/>
     <use xlink:href="#DejaVuSans-25" transform="translate(127.246094 0)"/>
    </g>
   </g>
   <g id="legend_1">
    <g id="patch_13">
     <path d="M 375.7175 547.63865 
L 391.7175 547.63865 
L 391.7175 542.03865 
L 375.7175 542.03865 
z
" style="fill: #003b6a"/>
    </g>
    <g id="text_15">
     <!-- Stimme zu -->
     <g transform="translate(398.1175 547.63865) scale(0.08 -0.08)">
      <use xlink:href="#DejaVuSans-53"/>
      <use xlink:href="#DejaVuSans-74" transform="translate(63.476562 0)"/>
      <use xlink:href="#DejaVuSans-69" transform="translate(102.685547 0)"/>
      <use xlink:href="#DejaVuSans-6d" transform="translate(130.46875 0)"/>
      <use xlink:href="#DejaVuSans-6d" transform="translate(227.880859 0)"/>
      <use xlink:href="#DejaVuSans-65" transform="translate(325.292969 0)"/>
      <use xlink:href="#DejaVuSans-20" transform="translate(386.816406 0)"/>
      <use xlink:href="#DejaVuSans-7a" transform="translate(418.603516 0)"/>
      <use xlink:href="#DejaVuSans-75" transform="translate(471.09375 0)"/>
     </g>
    </g>
    <g id="patch_14">
     <path d="M 456.87375 547.63865 
L 472.87375 547.63865 
L 472.87375 542.03865 
L 456.87375 542.03865 
z
" style="fill: #dc912f"/>
    </g>
    <g id="text_16">
     <!-- Stimme gar nicht zu -->
     <g transform="translate(479.27375 547.63865) scale(0.08 -0.08)">
      <use xlink:href="#DejaVuSans-53"/>
      <use xlink:href="#DejaVuSans-74" transform="translate(63.476562 0)"/>
      <use xlink:href="#DejaVuSans-69" transform="translate(102.685547 0)"/>
      <use xlink:href="#DejaVuSans-6d" transform="translate(130.46875 0)"/>
      <use xlink:href="#DejaVuSans-6d" transform="translate(227.880859 0)"/>
      <use xlink:href="#DejaVuSans-65" transform="translate(325.292969 0)"/>
      <use xlink:href="#DejaVuSans-20" transform="translate(386.816406 0)"/>
      <use xlink:href="#DejaVuSans-67" transform="translate(418.603516 0)"/>
      <use xlink:href="#DejaVuSans-61" transform="translate(482.080078 0)"/>
      <use xlink:href="#DejaVuSans-72" transform="translate(543.359375 0)"/>
      <use xlink:href="#DejaVuSans-20" transform="translate(584.472656 0)"/>
      <use xlink:href="#DejaVuSans-6e" transform="translate(616.259766 0)"/>
      <use xlink:href="#DejaVuSans-69" transform="translate(679.638672 0)"/>
      <use xlink:href="#DejaVuSans-63" transform="translate(707.421875 0)"/>
      <use xlink:href="#DejaVuSans-68" transform="translate(762.402344 0)"/>
      <use xlink:href="#DejaVuSans-74" transform="translate(825.78125 0)"/>
      <use xlink:href="#DejaVuSans-20" transform="translate(864.990234 0)"/>
      <use xlink:href="#DejaVuSans-7a" transform="translate(896.777344 0)"/>
      <use xlink:href="#DejaVuSans-75" transform="translate(949.267578 0)"/>
     </g>
    </g>
   </g>
  </g>
  <g id="text_17">
   <!-- Abbildung 7: Zustimmung zur KPI-Kaskade für lineare Produktionsprozesse nach -->
   <g transform="translate(247.152656 569.430578) scale(0.11 -0.11)">
    <defs>
     <path id="DejaVuSans-62" d="M 3116 1747 
Q 3116 2381 2855 2742 
Q 2594 3103 2138 3103 
Q 1681 3103 1420 2742 
Q 1159 2381 1159 1747 
Q 1159 1113 1420 752 
Q 1681 391 2138 391 
Q 2594 391 2855 752 
Q 3116 1113 3116 1747 
z
M 1159 2969 
Q 1341 3281 1617 3432 
Q 1894 3584 2278 3584 
Q 2916 3584 3314 3078 
Q 3713 2572 3713 1747 
Q 3713 922 3314 415 
Q 2916 -91 2278 -91 
Q 1894 -91 1617 61 
Q 1341 213 1159 525 
L 1159 0 
L 581 0 
L 581 4863 
L 1159 4863 
L 1159 2969 
z
" transform="scale(0.015625)"/>
     <path id="DejaVuSans-3a" d="M 750 794 
L 1409 794 
L 1409 0 
L 750 0 
L 750 794 
z
M 750 3309 
L 1409 3309 
L 1409 2516 
L 750 2516 
L 750 3309 
z
" transform="scale(0.015625)"/>
     <path id="DejaVuSans-5a" d="M 359 4666 
L 4025 4666 
L 4025 4184 
L 1075 531 
L 4097 531 
L 4097 0 
L 288 0 
L 288 481 
L 3238 4134 
L 359 4134 
L 359 4666 
z
" transform="scale(0.015625)"/>
     <path id="DejaVuSans-50" d="M 1259 4147 
L 1259 2394 
L 2053 2394 
Q 2494 2394 2734 2622 
Q 2975 2850 2975 3272 
Q 2975 3691 2734 3919 
Q 2494 4147 2053 4147 
L 1259 4147 
z
M 628 4666 
L 2053 4666 
Q 2838 4666 3239 4311 
Q 3641 3956 3641 3272 
Q 3641 2581 3239 2228 
Q 2838 1875 2053 1875 
L 1259 1875 
L 1259 0 
L 628 0 
L 628 4666 
z
" transform="scale(0.015625)"/>
     <path id="DejaVuSans-49" d="M 628 4666 
L 1259 4666 
L 1259 0 
L 628 0 
L 628 4666 
z
" transform="scale(0.015625)"/>
     <path id="DejaVuSans-70" d="M 1159 525 
L 1159 -1331 
L 581 -1331 
L 581 3500 
L 1159 3500 
L 1159 2969 
Q 1341 3281 1617 3432 
Q 1894 3584 2278 3584 
Q 2916 3584 3314 3078 
Q 3713 2572 3713 1747 
Q 3713 922 3314 415 
Q 2916 -91 2278 -91 
Q 1894 -91 1617 61 
Q 1341 213 1159 525 
z
M 3116 1747 
Q 3116 2381 2855 2742 
Q 2594 3103 2138 3103 
Q 1681 3103 1420 2742 
Q 1159 2381 1159 1747 
Q 1159 1113 1420 752 
Q 1681 391 2138 391 
Q 2594 391 2855 752 
Q 3116 1113 3116 1747 
z
" transform="scale(0.015625)"/>
    </defs>
    <use xlink:href="#DejaVuSans-41"/>
    <use xlink:href="#DejaVuSans-62" transform="translate(68.408203 0)"/>
    <use xlink:href="#DejaVuSans-62" transform="translate(131.884766 0)"/>
    <use xlink:href="#DejaVuSans-69" transform="translate(195.361328 0)"/>
    <use xlink:href="#DejaVuSans-6c" transform="translate(223.144531 0)"/>
    <use xlink:href="#DejaVuSans-64" transform="translate(250.927734 0)"/>
    <use xlink:href="#DejaVuSans-75" transform="translate(314.404297 0)"/>
    <use xlink:href="#DejaVuSans-6e" transform="translate(377.783203 0)"/>
    <use xlink:href="#DejaVuSans-67" transform="translate(441.162109 0)"/>
    <use xlink:href="#DejaVuSans-20" transform="translate(504.638672 0)"/>
    <use xlink:href="#DejaVuSans-37" transform="translate(536.425781 0)"/>
    <use xlink:href="#DejaVuSans-3a" transform="translate(600.048828 0)"/>
    <use xlink:href="#DejaVuSans-20" transform="translate(633.740234 0)"/>
    <use xlink:href="#DejaVuSans-5a" transform="translate(665.527344 0)"/>
    <use xlink:href="#DejaVuSans-75" transform="translate(734.033203 0)"/>
    <use xlink:href="#DejaVuSans-73" transform="translate(797.412109 0)"/>
    <use xlink:href="#DejaVuSans-74" transform="translate(849.511719 0)"/>
    <use xlink:href="#DejaVuSans-69" transform="translate(888.720703 0)"/>
    <use xlink:href="#DejaVuSans-6d" transform="translate(916.503906 0)"/>
    <use xlink:href="#DejaVuSans-6d" transform="translate(1013.916016 0)"/>
    <use xlink:href="#DejaVuSans-75" transform="translate(1111.328125 0)"/>
    <use xlink:href="#DejaVuSans-6e" transform="translate(1174.707031 0)"/>
    <use xlink:href="#DejaVuSans-67" transform="translate(1238.085938 0)"/>
    <use xlink:href="#DejaVuSans-20" transform="translate(1301.5625 0)"/>
    <use xlink:href="#DejaVuSans-7a" transform="translate(1333.349609 0)"/>
    <use xlink:href="#DejaVuSans-75" transform="translate(1385.839844 0)"/>
    <use xlink:href="#DejaVuSans-72" transform="translate(1449.21875 0)"/>
    <use xlink:href="#DejaVuSans-20" transform="translate(1490.332031 0)"/>
    <use xlink:href="#DejaVuSans-4b" transform="translate(1522.119141 0)"/>
    <use xlink:href="#DejaVuSans-50" transform="translate(1587.695312 0)"/>
    <use xlink:href="#DejaVuSans-49" transform="translate(1647.998047 0)"/>
    <use xlink:href="#DejaVuSans-2d" transform="translate(1677.490234 0)"/>
    <use xlink:href="#DejaVuSans-4b" transform="translate(1713.574219 0)"/>
    <use xlink:href="#DejaVuSans-61" transform="translate(1777.400391 0)"/>
    <use xlink:href="#DejaVuSans-73" transform="translate(1838.679688 0)"/>
    <use xlink:href="#DejaVuSans-6b" transform="translate(1890.779297 0)"/>
    <use xlink:href="#DejaVuSans-61" transform="translate(1946.939453 0)"/>
    <use xlink:href="#DejaVuSans-64" transform="translate(2008.21875 0)"/>
    <use xlink:href="#DejaVuSans-65" transform="translate(2071.695312 0)"/>
    <use xlink:href="#DejaVuSans-20" transform="translate(2133.21875 0)"/>
    <use xlink:href="#DejaVuSans-66" transform="translate(2165.005859 0)"/>
    <use xlink:href="#DejaVuSans-fc" transform="translate(2200.210938 0)"/>
    <use xlink:href="#DejaVuSans-72" transform="translate(2263.589844 0)"/>
    <use xlink:href="#DejaVuSans-20" transform="translate(2304.703125 0)"/>
    <use xlink:href="#DejaVuSans-6c" transform="translate(2336.490234 0)"/>
    <use xlink:href="#DejaVuSans-69" transform="translate(2364.273438 0)"/>
    <use xlink:href="#DejaVuSans-6e" transform="translate(2392.056641 0)"/>
    <use xlink:href="#DejaVuSans-65" transform="translate(2455.435547 0)"/>
    <use xlink:href="#DejaVuSans-61" transform="translate(2516.958984 0)"/>
    <use xlink:href="#DejaVuSans-72" transform="translate(2578.238281 0)"/>
    <use xlink:href="#DejaVuSans-65" transform="translate(2617.101562 0)"/>
    <use xlink:href="#DejaVuSans-20" transform="translate(2678.625 0)"/>
    <use xlink:href="#DejaVuSans-50" transform="translate(2710.412109 0)"/>
    <use xlink:href="#DejaVuSans-72" transform="translate(2768.964844 0)"/>
    <use xlink:href="#DejaVuSans-6f" transform="translate(2807.828125 0)"/>
    <use xlink:href="#DejaVuSans-64" transform="translate(2869.009766 0)"/>
    <use xlink:href="#DejaVuSans-75" transform="translate(2932.486328 0)"/>
    <use xlink:href="#DejaVuSans-6b" transform="translate(2995.865234 0)"/>
    <use xlink:href="#DejaVuSans-74" transform="translate(3053.775391 0)"/>
    <use xlink:href="#DejaVuSans-69" transform="translate(3092.984375 0)"/>
    <use xlink:href="#DejaVuSans-6f" transform="translate(3120.767578 0)"/>
    <use xlink:href="#DejaVuSans-6e" transform="translate(3181.949219 0)"/>
    <use xlink:href="#DejaVuSans-73" transform="translate(3245.328125 0)"/>
    <use xlink:href="#DejaVuSans-70" transform="translate(3297.427734 0)"/>
    <use xlink:href="#DejaVuSans-72" transform="translate(3360.904297 0)"/>
    <use xlink:href="#DejaVuSans-6f" transform="translate(3399.767578 0)"/>
    <use xlink:href="#DejaVuSans-7a" transform="translate(3460.949219 0)"/>
    <use xlink:href="#DejaVuSans-65" transform="translate(3513.439453 0)"/>
    <use xlink:href="#DejaVuSans-73" transform="translate(3574.962891 0)"/>
    <use xlink:href="#DejaVuSans-73" transform="translate(3627.0625 0)"/>
    <use xlink:href="#DejaVuSans-65" transform="translate(3679.162109 0)"/>
    <use xlink:href="#DejaVuSans-20" transform="translate(3740.685547 0)"/>
    <use xlink:href="#DejaVuSans-6e" transform="translate(3772.472656 0)"/>
    <use xlink:href="#DejaVuSans-61" transform="translate(3835.851562 0)"/>
    <use xlink:href="#DejaVuSans-63" transform="translate(3897.130859 0)"/>
    <use xlink:href="#DejaVuSans-68" transform="translate(3952.111328 0)"/>
   </g>
   <!-- monatlicher Fertigungsstückzahl -->
   <g transform="translate(378.309609 580.912344) scale(0.11 -0.11)">
    <use xlink:href="#DejaVuSans-6d"/>
    <use xlink:href="#DejaVuSans-6f" transform="translate(97.412109 0)"/>
    <use xlink:href="#DejaVuSans-6e" transform="translate(158.59375 0)"/>
    <use xlink:href="#DejaVuSans-61" transform="translate(221.972656 0)"/>
    <use xlink:href="#DejaVuSans-74" transform="translate(283.251953 0)"/>
    <use xlink:href="#DejaVuSans-6c" transform="translate(322.460938 0)"/>
    <use xlink:href="#DejaVuSans-69" transform="translate(350.244141 0)"/>
    <use xlink:href="#DejaVuSans-63" transform="translate(378.027344 0)"/>
    <use xlink:href="#DejaVuSans-68" transform="translate(433.007812 0)"/>
    <use xlink:href="#DejaVuSans-65" transform="translate(496.386719 0)"/>
    <use xlink:href="#DejaVuSans-72" transform="translate(557.910156 0)"/>
    <use xlink:href="#DejaVuSans-20" transform="translate(599.023438 0)"/>
    <use xlink:href="#DejaVuSans-46" transform="translate(630.810547 0)"/>
    <use xlink:href="#DejaVuSans-65" transform="translate(682.830078 0)"/>
    <use xlink:href="#DejaVuSans-72" transform="translate(744.353516 0)"/>
    <use xlink:href="#DejaVuSans-74" transform="translate(785.466797 0)"/>
    <use xlink:href="#DejaVuSans-69" transform="translate(824.675781 0)"/>
    <use xlink:href="#DejaVuSans-67" transform="translate(852.458984 0)"/>
    <use xlink:href="#DejaVuSans-75" transform="translate(915.935547 0)"/>
    <use xlink:href="#DejaVuSans-6e" transform="translate(979.314453 0)"/>
    <use xlink:href="#DejaVuSans-67" transform="translate(1042.693359 0)"/>
    <use xlink:href="#DejaVuSans-73" transform="translate(1106.169922 0)"/>
    <use xlink:href="#DejaVuSans-73" transform="translate(1158.269531 0)"/>
    <use xlink:href="#DejaVuSans-74" transform="translate(1210.369141 0)"/>
    <use xlink:href="#DejaVuSans-fc" transform="translate(1249.578125 0)"/>
    <use xlink:href="#DejaVuSans-63" transform="translate(1312.957031 0)"/>
    <use xlink:href="#DejaVuSans-6b" transform="translate(1367.9375 0)"/>
    <use xlink:href="#DejaVuSans-7a" transform="translate(1425.847656 0)"/>
    <use xlink:href="#DejaVuSans-61" transform="translate(1478.337891 0)"/>
    <use xlink:href="#DejaVuSans-68" transform="translate(1539.617188 0)"/>
    <use xlink:href="#DejaVuSans-6c" transform="translate(1602.996094 0)"/>
   </g>
  </g>
 </g>
 <defs>
  <clipPath id="p30b923bf95">
   <rect x="234" y="51.84" width="468" height="427.68"/>
  </clipPath>
 </defs>
</svg>
