<?xml version="1.0" encoding="utf-8" standalone="no"?>
<!DOCTYPE svg PUBLIC "-//W3C//DTD SVG 1.1//EN"
  "http://www.w3.org/Graphics/SVG/1.1/DTD/svg11.dtd">
<svg xmlns:xlink="http://www.w3.org/1999/xlink" width="936pt" height="648pt" viewBox="0 0 936 648" xmlns="http://www.w3.org/2000/svg" version="1.1">
 <metadata>
  <rdf:RDF xmlns:dc="http://purl.org/dc/elements/1.1/" xmlns:cc="http://creativecommons.org/ns#" xmlns:rdf="http://www.w3.org/1999/02/22-rdf-syntax-ns#">
   <cc:Work>
    <dc:type rdf:resource="http://purl.org/dc/dcmitype/StillImage"/>
    <dc:date>2026-02-23T18:46:22.180930</dc:date>
    <dc:format>image/svg+xml</dc:format>
    <dc:creator>
     <cc:Agent>
      <dc:title>Matplotlib v3.10.8, https://matplotlib.org/</dc:title>
     </cc:Agent>
    </dc:creator>
   </cc:Work>
  </rdf:RDF>
 </metadata>
 <defs>
  <style type="text/css">*{stroke-linejoin: round; stroke-linecap: butt}</style>
 </defs>
 <g id="figure_1">
  <g id="patch_1">
   <path d="M 0 648 
L 936 648 
L 936 0 
L 0 0 
z
" style="fill: #ffffff"/>
  </g>
  <g id="axes_1">
   <g id="patch_2">
    <path d="M 234 479.52 
L 702 479.52 
L 702 51.84 
L 234 51.84 
z
" style="fill: #ffffff"/>
   </g>
   <g id="matplotlib.axis_1">
    <g id="xtick_1">
     <g id="line2d_1">
      <path d="M 234 479.52 
L 234 51.84 
" clip-path="url(#p3a8d6ee07d)" style="fill: none; stroke: #d0d0d0; stroke-opacity: 0.25; stroke-width: 0.8; stroke-linecap: square"/>
     </g>
     <g id="line2d_2">
      <defs>
       <path id="mdd09897c94" d="M 0 0 
L 0 3.5 
" style="stroke: #000000; stroke-width: 0.8"/>
      </defs>
      <g>
       <use xlink:href="#mdd09897c94" x="234" y="479.52" style="stroke: #000000; stroke-width: 0.8"/>
      </g>
     </g>
     <g id="text_1">
      <!-- 0% -->
      <g transform="translate(224.481562 495.638125) scale(0.12 -0.12)">
       <defs>
        <path id="DejaVuSans-30" d="M 2034 4250 
Q 1547 4250 1301 3770 
Q 1056 3291 1056 2328 
Q 1056 1369 1301 889 
Q 1547 409 2034 409 
Q 2525 409 2770 889 
Q 3016 1369 3016 2328 
Q 3016 3291 2770 3770 
Q 2525 4250 2034 4250 
z
M 2034 4750 
Q 2819 4750 3233 4129 
Q 3647 3509 3647 2328 
Q 3647 1150 3233 529 
Q 2819 -91 2034 -91 
Q 1250 -91 836 529 
Q 422 1150 422 2328 
Q 422 3509 836 4129 
Q 1250 4750 2034 4750 
z
" transform="scale(0.015625)"/>
        <path id="DejaVuSans-25" d="M 4653 2053 
Q 4381 2053 4226 1822 
Q 4072 1591 4072 1178 
Q 4072 772 4226 539 
Q 4381 306 4653 306 
Q 4919 306 5073 539 
Q 5228 772 5228 1178 
Q 5228 1588 5073 1820 
Q 4919 2053 4653 2053 
z
M 4653 2450 
Q 5147 2450 5437 2106 
Q 5728 1763 5728 1178 
Q 5728 594 5436 251 
Q 5144 -91 4653 -91 
Q 4153 -91 3862 251 
Q 3572 594 3572 1178 
Q 3572 1766 3864 2108 
Q 4156 2450 4653 2450 
z
M 1428 4353 
Q 1159 4353 1004 4120 
Q 850 3888 850 3481 
Q 850 3069 1003 2837 
Q 1156 2606 1428 2606 
Q 1700 2606 1854 2837 
Q 2009 3069 2009 3481 
Q 2009 3884 1853 4118 
Q 1697 4353 1428 4353 
z
M 4250 4750 
L 4750 4750 
L 1831 -91 
L 1331 -91 
L 4250 4750 
z
M 1428 4750 
Q 1922 4750 2215 4408 
Q 2509 4066 2509 3481 
Q 2509 2891 2217 2550 
Q 1925 2209 1428 2209 
Q 931 2209 642 2551 
Q 353 2894 353 3481 
Q 353 4063 643 4406 
Q 934 4750 1428 4750 
z
" transform="scale(0.015625)"/>
       </defs>
       <use xlink:href="#DejaVuSans-30"/>
       <use xlink:href="#DejaVuSans-25" transform="translate(63.623047 0)"/>
      </g>
     </g>
    </g>
    <g id="xtick_2">
     <g id="line2d_3">
      <path d="M 327.6 479.52 
L 327.6 51.84 
" clip-path="url(#p3a8d6ee07d)" style="fill: none; stroke: #d0d0d0; stroke-opacity: 0.25; stroke-width: 0.8; stroke-linecap: square"/>
     </g>
     <g id="line2d_4">
      <g>
       <use xlink:href="#mdd09897c94" x="327.6" y="479.52" style="stroke: #000000; stroke-width: 0.8"/>
      </g>
     </g>
     <g id="text_2">
      <!-- 20% -->
      <g transform="translate(314.264063 495.638125) scale(0.12 -0.12)">
       <defs>
        <path id="DejaVuSans-32" d="M 1228 531 
L 3431 531 
L 3431 0 
L 469 0 
L 469 531 
Q 828 903 1448 1529 
Q 2069 2156 2228 2338 
Q 2531 2678 2651 2914 
Q 2772 3150 2772 3378 
Q 2772 3750 2511 3984 
Q 2250 4219 1831 4219 
Q 1534 4219 1204 4116 
Q 875 4013 500 3803 
L 500 4441 
Q 881 4594 1212 4672 
Q 1544 4750 1819 4750 
Q 2544 4750 2975 4387 
Q 3406 4025 3406 3419 
Q 3406 3131 3298 2873 
Q 3191 2616 2906 2266 
Q 2828 2175 2409 1742 
Q 1991 1309 1228 531 
z
" transform="scale(0.015625)"/>
       </defs>
       <use xlink:href="#DejaVuSans-32"/>
       <use xlink:href="#DejaVuSans-30" transform="translate(63.623047 0)"/>
       <use xlink:href="#DejaVuSans-25" transform="translate(127.246094 0)"/>
      </g>
     </g>
    </g>
    <g id="xtick_3">
     <g id="line2d_5">
      <path d="M 421.2 479.52 
L 421.2 51.84 
" clip-path="url(#p3a8d6ee07d)" style="fill: none; stroke: #d0d0d0; stroke-opacity: 0.25; stroke-width: 0.8; stroke-linecap: square"/>
     </g>
     <g id="line2d_6">
      <g>
       <use xlink:href="#mdd09897c94" x="421.2" y="479.52" style="stroke: #000000; stroke-width: 0.8"/>
      </g>
     </g>
     <g id="text_3">
      <!-- 40% -->
      <g transform="translate(407.864062 495.638125) scale(0.12 -0.12)">
       <defs>
        <path id="DejaVuSans-34" d="M 2419 4116 
L 825 1625 
L 2419 1625 
L 2419 4116 
z
M 2253 4666 
L 3047 4666 
L 3047 1625 
L 3713 1625 
L 3713 1100 
L 3047 1100 
L 3047 0 
L 2419 0 
L 2419 1100 
L 313 1100 
L 313 1709 
L 2253 4666 
z
" transform="scale(0.015625)"/>
       </defs>
       <use xlink:href="#DejaVuSans-34"/>
       <use xlink:href="#DejaVuSans-30" transform="translate(63.623047 0)"/>
       <use xlink:href="#DejaVuSans-25" transform="translate(127.246094 0)"/>
      </g>
     </g>
    </g>
    <g id="xtick_4">
     <g id="line2d_7">
      <path d="M 514.8 479.52 
L 514.8 51.84 
" clip-path="url(#p3a8d6ee07d)" style="fill: none; stroke: #d0d0d0; stroke-opacity: 0.25; stroke-width: 0.8; stroke-linecap: square"/>
     </g>
     <g id="line2d_8">
      <g>
       <use xlink:href="#mdd09897c94" x="514.8" y="479.52" style="stroke: #000000; stroke-width: 0.8"/>
      </g>
     </g>
     <g id="text_4">
      <!-- 60% -->
      <g transform="translate(501.464062 495.638125) scale(0.12 -0.12)">
       <defs>
        <path id="DejaVuSans-36" d="M 2113 2584 
Q 1688 2584 1439 2293 
Q 1191 2003 1191 1497 
Q 1191 994 1439 701 
Q 1688 409 2113 409 
Q 2538 409 2786 701 
Q 3034 994 3034 1497 
Q 3034 2003 2786 2293 
Q 2538 2584 2113 2584 
z
M 3366 4563 
L 3366 3988 
Q 3128 4100 2886 4159 
Q 2644 4219 2406 4219 
Q 1781 4219 1451 3797 
Q 1122 3375 1075 2522 
Q 1259 2794 1537 2939 
Q 1816 3084 2150 3084 
Q 2853 3084 3261 2657 
Q 3669 2231 3669 1497 
Q 3669 778 3244 343 
Q 2819 -91 2113 -91 
Q 1303 -91 875 529 
Q 447 1150 447 2328 
Q 447 3434 972 4092 
Q 1497 4750 2381 4750 
Q 2619 4750 2861 4703 
Q 3103 4656 3366 4563 
z
" transform="scale(0.015625)"/>
       </defs>
       <use xlink:href="#DejaVuSans-36"/>
       <use xlink:href="#DejaVuSans-30" transform="translate(63.623047 0)"/>
       <use xlink:href="#DejaVuSans-25" transform="translate(127.246094 0)"/>
      </g>
     </g>
    </g>
    <g id="xtick_5">
     <g id="line2d_9">
      <path d="M 608.4 479.52 
L 608.4 51.84 
" clip-path="url(#p3a8d6ee07d)" style="fill: none; stroke: #d0d0d0; stroke-opacity: 0.25; stroke-width: 0.8; stroke-linecap: square"/>
     </g>
     <g id="line2d_10">
      <g>
       <use xlink:href="#mdd09897c94" x="608.4" y="479.52" style="stroke: #000000; stroke-width: 0.8"/>
      </g>
     </g>
     <g id="text_5">
      <!-- 80% -->
      <g transform="translate(595.064062 495.638125) scale(0.12 -0.12)">
       <defs>
        <path id="DejaVuSans-38" d="M 2034 2216 
Q 1584 2216 1326 1975 
Q 1069 1734 1069 1313 
Q 1069 891 1326 650 
Q 1584 409 2034 409 
Q 2484 409 2743 651 
Q 3003 894 3003 1313 
Q 3003 1734 2745 1975 
Q 2488 2216 2034 2216 
z
M 1403 2484 
Q 997 2584 770 2862 
Q 544 3141 544 3541 
Q 544 4100 942 4425 
Q 1341 4750 2034 4750 
Q 2731 4750 3128 4425 
Q 3525 4100 3525 3541 
Q 3525 3141 3298 2862 
Q 3072 2584 2669 2484 
Q 3125 2378 3379 2068 
Q 3634 1759 3634 1313 
Q 3634 634 3220 271 
Q 2806 -91 2034 -91 
Q 1263 -91 848 271 
Q 434 634 434 1313 
Q 434 1759 690 2068 
Q 947 2378 1403 2484 
z
M 1172 3481 
Q 1172 3119 1398 2916 
Q 1625 2713 2034 2713 
Q 2441 2713 2670 2916 
Q 2900 3119 2900 3481 
Q 2900 3844 2670 4047 
Q 2441 4250 2034 4250 
Q 1625 4250 1398 4047 
Q 1172 3844 1172 3481 
z
" transform="scale(0.015625)"/>
       </defs>
       <use xlink:href="#DejaVuSans-38"/>
       <use xlink:href="#DejaVuSans-30" transform="translate(63.623047 0)"/>
       <use xlink:href="#DejaVuSans-25" transform="translate(127.246094 0)"/>
      </g>
     </g>
    </g>
    <g id="xtick_6">
     <g id="line2d_11">
      <path d="M 702 479.52 
L 702 51.84 
" clip-path="url(#p3a8d6ee07d)" style="fill: none; stroke: #d0d0d0; stroke-opacity: 0.25; stroke-width: 0.8; stroke-linecap: square"/>
     </g>
     <g id="line2d_12">
      <g>
       <use xlink:href="#mdd09897c94" x="702" y="479.52" style="stroke: #000000; stroke-width: 0.8"/>
      </g>
     </g>
     <g id="text_6">
      <!-- 100% -->
      <g transform="translate(684.846563 495.638125) scale(0.12 -0.12)">
       <defs>
        <path id="DejaVuSans-31" d="M 794 531 
L 1825 531 
L 1825 4091 
L 703 3866 
L 703 4441 
L 1819 4666 
L 2450 4666 
L 2450 531 
L 3481 531 
L 3481 0 
L 794 0 
L 794 531 
z
" transform="scale(0.015625)"/>
       </defs>
       <use xlink:href="#DejaVuSans-31"/>
       <use xlink:href="#DejaVuSans-30" transform="translate(63.623047 0)"/>
       <use xlink:href="#DejaVuSans-30" transform="translate(127.246094 0)"/>
       <use xlink:href="#DejaVuSans-25" transform="translate(190.869141 0)"/>
      </g>
     </g>
    </g>
    <g id="text_7">
     <!-- Anteil der Teilnehmer in % -->
     <g transform="translate(388.98 511.251875) scale(0.12 -0.12)">
      <defs>
       <path id="DejaVuSans-41" d="M 2188 4044 
L 1331 1722 
L 3047 1722 
L 2188 4044 
z
M 1831 4666 
L 2547 4666 
L 4325 0 
L 3669 0 
L 3244 1197 
L 1141 1197 
L 716 0 
L 50 0 
L 1831 4666 
z
" transform="scale(0.015625)"/>
       <path id="DejaVuSans-6e" d="M 3513 2113 
L 3513 0 
L 2938 0 
L 2938 2094 
Q 2938 2591 2744 2837 
Q 2550 3084 2163 3084 
Q 1697 3084 1428 2787 
Q 1159 2491 1159 1978 
L 1159 0 
L 581 0 
L 581 3500 
L 1159 3500 
L 1159 2956 
Q 1366 3272 1645 3428 
Q 1925 3584 2291 3584 
Q 2894 3584 3203 3211 
Q 3513 2838 3513 2113 
z
" transform="scale(0.015625)"/>
       <path id="DejaVuSans-74" d="M 1172 4494 
L 1172 3500 
L 2356 3500 
L 2356 3053 
L 1172 3053 
L 1172 1153 
Q 1172 725 1289 603 
Q 1406 481 1766 481 
L 2356 481 
L 2356 0 
L 1766 0 
Q 1100 0 847 248 
Q 594 497 594 1153 
L 594 3053 
L 172 3053 
L 172 3500 
L 594 3500 
L 594 4494 
L 1172 4494 
z
" transform="scale(0.015625)"/>
       <path id="DejaVuSans-65" d="M 3597 1894 
L 3597 1613 
L 953 1613 
Q 991 1019 1311 708 
Q 1631 397 2203 397 
Q 2534 397 2845 478 
Q 3156 559 3463 722 
L 3463 178 
Q 3153 47 2828 -22 
Q 2503 -91 2169 -91 
Q 1331 -91 842 396 
Q 353 884 353 1716 
Q 353 2575 817 3079 
Q 1281 3584 2069 3584 
Q 2775 3584 3186 3129 
Q 3597 2675 3597 1894 
z
M 3022 2063 
Q 3016 2534 2758 2815 
Q 2500 3097 2075 3097 
Q 1594 3097 1305 2825 
Q 1016 2553 972 2059 
L 3022 2063 
z
" transform="scale(0.015625)"/>
       <path id="DejaVuSans-69" d="M 603 3500 
L 1178 3500 
L 1178 0 
L 603 0 
L 603 3500 
z
M 603 4863 
L 1178 4863 
L 1178 4134 
L 603 4134 
L 603 4863 
z
" transform="scale(0.015625)"/>
       <path id="DejaVuSans-6c" d="M 603 4863 
L 1178 4863 
L 1178 0 
L 603 0 
L 603 4863 
z
" transform="scale(0.015625)"/>
       <path id="DejaVuSans-20" transform="scale(0.015625)"/>
       <path id="DejaVuSans-64" d="M 2906 2969 
L 2906 4863 
L 3481 4863 
L 3481 0 
L 2906 0 
L 2906 525 
Q 2725 213 2448 61 
Q 2172 -91 1784 -91 
Q 1150 -91 751 415 
Q 353 922 353 1747 
Q 353 2572 751 3078 
Q 1150 3584 1784 3584 
Q 2172 3584 2448 3432 
Q 2725 3281 2906 2969 
z
M 947 1747 
Q 947 1113 1208 752 
Q 1469 391 1925 391 
Q 2381 391 2643 752 
Q 2906 1113 2906 1747 
Q 2906 2381 2643 2742 
Q 2381 3103 1925 3103 
Q 1469 3103 1208 2742 
Q 947 2381 947 1747 
z
" transform="scale(0.015625)"/>
       <path id="DejaVuSans-72" d="M 2631 2963 
Q 2534 3019 2420 3045 
Q 2306 3072 2169 3072 
Q 1681 3072 1420 2755 
Q 1159 2438 1159 1844 
L 1159 0 
L 581 0 
L 581 3500 
L 1159 3500 
L 1159 2956 
Q 1341 3275 1631 3429 
Q 1922 3584 2338 3584 
Q 2397 3584 2469 3576 
Q 2541 3569 2628 3553 
L 2631 2963 
z
" transform="scale(0.015625)"/>
       <path id="DejaVuSans-54" d="M -19 4666 
L 3928 4666 
L 3928 4134 
L 2272 4134 
L 2272 0 
L 1638 0 
L 1638 4134 
L -19 4134 
L -19 4666 
z
" transform="scale(0.015625)"/>
       <path id="DejaVuSans-68" d="M 3513 2113 
L 3513 0 
L 2938 0 
L 2938 2094 
Q 2938 2591 2744 2837 
Q 2550 3084 2163 3084 
Q 1697 3084 1428 2787 
Q 1159 2491 1159 1978 
L 1159 0 
L 581 0 
L 581 4863 
L 1159 4863 
L 1159 2956 
Q 1366 3272 1645 3428 
Q 1925 3584 2291 3584 
Q 2894 3584 3203 3211 
Q 3513 2838 3513 2113 
z
" transform="scale(0.015625)"/>
       <path id="DejaVuSans-6d" d="M 3328 2828 
Q 3544 3216 3844 3400 
Q 4144 3584 4550 3584 
Q 5097 3584 5394 3201 
Q 5691 2819 5691 2113 
L 5691 0 
L 5113 0 
L 5113 2094 
Q 5113 2597 4934 2840 
Q 4756 3084 4391 3084 
Q 3944 3084 3684 2787 
Q 3425 2491 3425 1978 
L 3425 0 
L 2847 0 
L 2847 2094 
Q 2847 2600 2669 2842 
Q 2491 3084 2119 3084 
Q 1678 3084 1418 2786 
Q 1159 2488 1159 1978 
L 1159 0 
L 581 0 
L 581 3500 
L 1159 3500 
L 1159 2956 
Q 1356 3278 1631 3431 
Q 1906 3584 2284 3584 
Q 2666 3584 2933 3390 
Q 3200 3197 3328 2828 
z
" transform="scale(0.015625)"/>
      </defs>
      <use xlink:href="#DejaVuSans-41"/>
      <use xlink:href="#DejaVuSans-6e" transform="translate(68.408203 0)"/>
      <use xlink:href="#DejaVuSans-74" transform="translate(131.787109 0)"/>
      <use xlink:href="#DejaVuSans-65" transform="translate(170.996094 0)"/>
      <use xlink:href="#DejaVuSans-69" transform="translate(232.519531 0)"/>
      <use xlink:href="#DejaVuSans-6c" transform="translate(260.302734 0)"/>
      <use xlink:href="#DejaVuSans-20" transform="translate(288.085938 0)"/>
      <use xlink:href="#DejaVuSans-64" transform="translate(319.873047 0)"/>
      <use xlink:href="#DejaVuSans-65" transform="translate(383.349609 0)"/>
      <use xlink:href="#DejaVuSans-72" transform="translate(444.873047 0)"/>
      <use xlink:href="#DejaVuSans-20" transform="translate(485.986328 0)"/>
      <use xlink:href="#DejaVuSans-54" transform="translate(517.773438 0)"/>
      <use xlink:href="#DejaVuSans-65" transform="translate(561.857422 0)"/>
      <use xlink:href="#DejaVuSans-69" transform="translate(623.380859 0)"/>
      <use xlink:href="#DejaVuSans-6c" transform="translate(651.164062 0)"/>
      <use xlink:href="#DejaVuSans-6e" transform="translate(678.947266 0)"/>
      <use xlink:href="#DejaVuSans-65" transform="translate(742.326172 0)"/>
      <use xlink:href="#DejaVuSans-68" transform="translate(803.849609 0)"/>
      <use xlink:href="#DejaVuSans-6d" transform="translate(867.228516 0)"/>
      <use xlink:href="#DejaVuSans-65" transform="translate(964.640625 0)"/>
      <use xlink:href="#DejaVuSans-72" transform="translate(1026.164062 0)"/>
      <use xlink:href="#DejaVuSans-20" transform="translate(1067.277344 0)"/>
      <use xlink:href="#DejaVuSans-69" transform="translate(1099.064453 0)"/>
      <use xlink:href="#DejaVuSans-6e" transform="translate(1126.847656 0)"/>
      <use xlink:href="#DejaVuSans-20" transform="translate(1190.226562 0)"/>
      <use xlink:href="#DejaVuSans-25" transform="translate(1222.013672 0)"/>
     </g>
    </g>
   </g>
   <g id="matplotlib.axis_2">
    <g id="ytick_1">
     <g id="line2d_13">
      <defs>
       <path id="mda9072c7ad" d="M 0 0 
L -3.5 0 
" style="stroke: #000000; stroke-width: 0.8"/>
      </defs>
      <g>
       <use xlink:href="#mda9072c7ad" x="234" y="419.153684" style="stroke: #000000; stroke-width: 0.8"/>
      </g>
     </g>
     <g id="text_8">
      <!-- Der -->
      <g transform="translate(205.443125 397.749809) scale(0.12 -0.12)">
       <defs>
        <path id="DejaVuSans-44" d="M 1259 4147 
L 1259 519 
L 2022 519 
Q 2988 519 3436 956 
Q 3884 1394 3884 2338 
Q 3884 3275 3436 3711 
Q 2988 4147 2022 4147 
L 1259 4147 
z
M 628 4666 
L 1925 4666 
Q 3281 4666 3915 4102 
Q 4550 3538 4550 2338 
Q 4550 1131 3912 565 
Q 3275 0 1925 0 
L 628 0 
L 628 4666 
z
" transform="scale(0.015625)"/>
       </defs>
       <use xlink:href="#DejaVuSans-44"/>
       <use xlink:href="#DejaVuSans-65" transform="translate(77.001953 0)"/>
       <use xlink:href="#DejaVuSans-72" transform="translate(138.525391 0)"/>
      </g>
      <!-- Kompetenzaufbau -->
      <g transform="translate(117.94625 411.187184) scale(0.12 -0.12)">
       <defs>
        <path id="DejaVuSans-4b" d="M 628 4666 
L 1259 4666 
L 1259 2694 
L 3353 4666 
L 4166 4666 
L 1850 2491 
L 4331 0 
L 3500 0 
L 1259 2247 
L 1259 0 
L 628 0 
L 628 4666 
z
" transform="scale(0.015625)"/>
        <path id="DejaVuSans-6f" d="M 1959 3097 
Q 1497 3097 1228 2736 
Q 959 2375 959 1747 
Q 959 1119 1226 758 
Q 1494 397 1959 397 
Q 2419 397 2687 759 
Q 2956 1122 2956 1747 
Q 2956 2369 2687 2733 
Q 2419 3097 1959 3097 
z
M 1959 3584 
Q 2709 3584 3137 3096 
Q 3566 2609 3566 1747 
Q 3566 888 3137 398 
Q 2709 -91 1959 -91 
Q 1206 -91 779 398 
Q 353 888 353 1747 
Q 353 2609 779 3096 
Q 1206 3584 1959 3584 
z
" transform="scale(0.015625)"/>
        <path id="DejaVuSans-70" d="M 1159 525 
L 1159 -1331 
L 581 -1331 
L 581 3500 
L 1159 3500 
L 1159 2969 
Q 1341 3281 1617 3432 
Q 1894 3584 2278 3584 
Q 2916 3584 3314 3078 
Q 3713 2572 3713 1747 
Q 3713 922 3314 415 
Q 2916 -91 2278 -91 
Q 1894 -91 1617 61 
Q 1341 213 1159 525 
z
M 3116 1747 
Q 3116 2381 2855 2742 
Q 2594 3103 2138 3103 
Q 1681 3103 1420 2742 
Q 1159 2381 1159 1747 
Q 1159 1113 1420 752 
Q 1681 391 2138 391 
Q 2594 391 2855 752 
Q 3116 1113 3116 1747 
z
" transform="scale(0.015625)"/>
        <path id="DejaVuSans-7a" d="M 353 3500 
L 3084 3500 
L 3084 2975 
L 922 459 
L 3084 459 
L 3084 0 
L 275 0 
L 275 525 
L 2438 3041 
L 353 3041 
L 353 3500 
z
" transform="scale(0.015625)"/>
        <path id="DejaVuSans-61" d="M 2194 1759 
Q 1497 1759 1228 1600 
Q 959 1441 959 1056 
Q 959 750 1161 570 
Q 1363 391 1709 391 
Q 2188 391 2477 730 
Q 2766 1069 2766 1631 
L 2766 1759 
L 2194 1759 
z
M 3341 1997 
L 3341 0 
L 2766 0 
L 2766 531 
Q 2569 213 2275 61 
Q 1981 -91 1556 -91 
Q 1019 -91 701 211 
Q 384 513 384 1019 
Q 384 1609 779 1909 
Q 1175 2209 1959 2209 
L 2766 2209 
L 2766 2266 
Q 2766 2663 2505 2880 
Q 2244 3097 1772 3097 
Q 1472 3097 1187 3025 
Q 903 2953 641 2809 
L 641 3341 
Q 956 3463 1253 3523 
Q 1550 3584 1831 3584 
Q 2591 3584 2966 3190 
Q 3341 2797 3341 1997 
z
" transform="scale(0.015625)"/>
        <path id="DejaVuSans-75" d="M 544 1381 
L 544 3500 
L 1119 3500 
L 1119 1403 
Q 1119 906 1312 657 
Q 1506 409 1894 409 
Q 2359 409 2629 706 
Q 2900 1003 2900 1516 
L 2900 3500 
L 3475 3500 
L 3475 0 
L 2900 0 
L 2900 538 
Q 2691 219 2414 64 
Q 2138 -91 1772 -91 
Q 1169 -91 856 284 
Q 544 659 544 1381 
z
M 1991 3584 
L 1991 3584 
z
" transform="scale(0.015625)"/>
        <path id="DejaVuSans-66" d="M 2375 4863 
L 2375 4384 
L 1825 4384 
Q 1516 4384 1395 4259 
Q 1275 4134 1275 3809 
L 1275 3500 
L 2222 3500 
L 2222 3053 
L 1275 3053 
L 1275 0 
L 697 0 
L 697 3053 
L 147 3053 
L 147 3500 
L 697 3500 
L 697 3744 
Q 697 4328 969 4595 
Q 1241 4863 1831 4863 
L 2375 4863 
z
" transform="scale(0.015625)"/>
        <path id="DejaVuSans-62" d="M 3116 1747 
Q 3116 2381 2855 2742 
Q 2594 3103 2138 3103 
Q 1681 3103 1420 2742 
Q 1159 2381 1159 1747 
Q 1159 1113 1420 752 
Q 1681 391 2138 391 
Q 2594 391 2855 752 
Q 3116 1113 3116 1747 
z
M 1159 2969 
Q 1341 3281 1617 3432 
Q 1894 3584 2278 3584 
Q 2916 3584 3314 3078 
Q 3713 2572 3713 1747 
Q 3713 922 3314 415 
Q 2916 -91 2278 -91 
Q 1894 -91 1617 61 
Q 1341 213 1159 525 
L 1159 0 
L 581 0 
L 581 4863 
L 1159 4863 
L 1159 2969 
z
" transform="scale(0.015625)"/>
       </defs>
       <use xlink:href="#DejaVuSans-4b"/>
       <use xlink:href="#DejaVuSans-6f" transform="translate(60.576172 0)"/>
       <use xlink:href="#DejaVuSans-6d" transform="translate(121.757812 0)"/>
       <use xlink:href="#DejaVuSans-70" transform="translate(219.169922 0)"/>
       <use xlink:href="#DejaVuSans-65" transform="translate(282.646484 0)"/>
       <use xlink:href="#DejaVuSans-74" transform="translate(344.169922 0)"/>
       <use xlink:href="#DejaVuSans-65" transform="translate(383.378906 0)"/>
       <use xlink:href="#DejaVuSans-6e" transform="translate(444.902344 0)"/>
       <use xlink:href="#DejaVuSans-7a" transform="translate(508.28125 0)"/>
       <use xlink:href="#DejaVuSans-61" transform="translate(560.771484 0)"/>
       <use xlink:href="#DejaVuSans-75" transform="translate(622.050781 0)"/>
       <use xlink:href="#DejaVuSans-66" transform="translate(685.429688 0)"/>
       <use xlink:href="#DejaVuSans-62" transform="translate(720.634766 0)"/>
       <use xlink:href="#DejaVuSans-61" transform="translate(784.111328 0)"/>
       <use xlink:href="#DejaVuSans-75" transform="translate(845.390625 0)"/>
      </g>
      <!-- für die Umsetzung -->
      <g transform="translate(116.3375 424.624559) scale(0.12 -0.12)">
       <defs>
        <path id="DejaVuSans-fc" d="M 544 1381 
L 544 3500 
L 1119 3500 
L 1119 1403 
Q 1119 906 1312 657 
Q 1506 409 1894 409 
Q 2359 409 2629 706 
Q 2900 1003 2900 1516 
L 2900 3500 
L 3475 3500 
L 3475 0 
L 2900 0 
L 2900 538 
Q 2691 219 2414 64 
Q 2138 -91 1772 -91 
Q 1169 -91 856 284 
Q 544 659 544 1381 
z
M 1991 3584 
L 1991 3584 
z
M 2278 4850 
L 2912 4850 
L 2912 4219 
L 2278 4219 
L 2278 4850 
z
M 1056 4850 
L 1690 4850 
L 1690 4219 
L 1056 4219 
L 1056 4850 
z
" transform="scale(0.015625)"/>
        <path id="DejaVuSans-55" d="M 556 4666 
L 1191 4666 
L 1191 1831 
Q 1191 1081 1462 751 
Q 1734 422 2344 422 
Q 2950 422 3222 751 
Q 3494 1081 3494 1831 
L 3494 4666 
L 4128 4666 
L 4128 1753 
Q 4128 841 3676 375 
Q 3225 -91 2344 -91 
Q 1459 -91 1007 375 
Q 556 841 556 1753 
L 556 4666 
z
" transform="scale(0.015625)"/>
        <path id="DejaVuSans-73" d="M 2834 3397 
L 2834 2853 
Q 2591 2978 2328 3040 
Q 2066 3103 1784 3103 
Q 1356 3103 1142 2972 
Q 928 2841 928 2578 
Q 928 2378 1081 2264 
Q 1234 2150 1697 2047 
L 1894 2003 
Q 2506 1872 2764 1633 
Q 3022 1394 3022 966 
Q 3022 478 2636 193 
Q 2250 -91 1575 -91 
Q 1294 -91 989 -36 
Q 684 19 347 128 
L 347 722 
Q 666 556 975 473 
Q 1284 391 1588 391 
Q 1994 391 2212 530 
Q 2431 669 2431 922 
Q 2431 1156 2273 1281 
Q 2116 1406 1581 1522 
L 1381 1569 
Q 847 1681 609 1914 
Q 372 2147 372 2553 
Q 372 3047 722 3315 
Q 1072 3584 1716 3584 
Q 2034 3584 2315 3537 
Q 2597 3491 2834 3397 
z
" transform="scale(0.015625)"/>
        <path id="DejaVuSans-67" d="M 2906 1791 
Q 2906 2416 2648 2759 
Q 2391 3103 1925 3103 
Q 1463 3103 1205 2759 
Q 947 2416 947 1791 
Q 947 1169 1205 825 
Q 1463 481 1925 481 
Q 2391 481 2648 825 
Q 2906 1169 2906 1791 
z
M 3481 434 
Q 3481 -459 3084 -895 
Q 2688 -1331 1869 -1331 
Q 1566 -1331 1297 -1286 
Q 1028 -1241 775 -1147 
L 775 -588 
Q 1028 -725 1275 -790 
Q 1522 -856 1778 -856 
Q 2344 -856 2625 -561 
Q 2906 -266 2906 331 
L 2906 616 
Q 2728 306 2450 153 
Q 2172 0 1784 0 
Q 1141 0 747 490 
Q 353 981 353 1791 
Q 353 2603 747 3093 
Q 1141 3584 1784 3584 
Q 2172 3584 2450 3431 
Q 2728 3278 2906 2969 
L 2906 3500 
L 3481 3500 
L 3481 434 
z
" transform="scale(0.015625)"/>
       </defs>
       <use xlink:href="#DejaVuSans-66"/>
       <use xlink:href="#DejaVuSans-fc" transform="translate(35.205078 0)"/>
       <use xlink:href="#DejaVuSans-72" transform="translate(98.583984 0)"/>
       <use xlink:href="#DejaVuSans-20" transform="translate(139.697266 0)"/>
       <use xlink:href="#DejaVuSans-64" transform="translate(171.484375 0)"/>
       <use xlink:href="#DejaVuSans-69" transform="translate(234.960938 0)"/>
       <use xlink:href="#DejaVuSans-65" transform="translate(262.744141 0)"/>
       <use xlink:href="#DejaVuSans-20" transform="translate(324.267578 0)"/>
       <use xlink:href="#DejaVuSans-55" transform="translate(356.054688 0)"/>
       <use xlink:href="#DejaVuSans-6d" transform="translate(429.248047 0)"/>
       <use xlink:href="#DejaVuSans-73" transform="translate(526.660156 0)"/>
       <use xlink:href="#DejaVuSans-65" transform="translate(578.759766 0)"/>
       <use xlink:href="#DejaVuSans-74" transform="translate(640.283203 0)"/>
       <use xlink:href="#DejaVuSans-7a" transform="translate(679.492188 0)"/>
       <use xlink:href="#DejaVuSans-75" transform="translate(731.982422 0)"/>
       <use xlink:href="#DejaVuSans-6e" transform="translate(795.361328 0)"/>
       <use xlink:href="#DejaVuSans-67" transform="translate(858.740234 0)"/>
      </g>
      <!-- von Kreislaufwirts -->
      <g transform="translate(120.291875 438.061934) scale(0.12 -0.12)">
       <defs>
        <path id="DejaVuSans-76" d="M 191 3500 
L 800 3500 
L 1894 563 
L 2988 3500 
L 3597 3500 
L 2284 0 
L 1503 0 
L 191 3500 
z
" transform="scale(0.015625)"/>
        <path id="DejaVuSans-77" d="M 269 3500 
L 844 3500 
L 1563 769 
L 2278 3500 
L 2956 3500 
L 3675 769 
L 4391 3500 
L 4966 3500 
L 4050 0 
L 3372 0 
L 2619 2869 
L 1863 0 
L 1184 0 
L 269 3500 
z
" transform="scale(0.015625)"/>
       </defs>
       <use xlink:href="#DejaVuSans-76"/>
       <use xlink:href="#DejaVuSans-6f" transform="translate(59.179688 0)"/>
       <use xlink:href="#DejaVuSans-6e" transform="translate(120.361328 0)"/>
       <use xlink:href="#DejaVuSans-20" transform="translate(183.740234 0)"/>
       <use xlink:href="#DejaVuSans-4b" transform="translate(215.527344 0)"/>
       <use xlink:href="#DejaVuSans-72" transform="translate(281.103516 0)"/>
       <use xlink:href="#DejaVuSans-65" transform="translate(319.966797 0)"/>
       <use xlink:href="#DejaVuSans-69" transform="translate(381.490234 0)"/>
       <use xlink:href="#DejaVuSans-73" transform="translate(409.273438 0)"/>
       <use xlink:href="#DejaVuSans-6c" transform="translate(461.373047 0)"/>
       <use xlink:href="#DejaVuSans-61" transform="translate(489.15625 0)"/>
       <use xlink:href="#DejaVuSans-75" transform="translate(550.435547 0)"/>
       <use xlink:href="#DejaVuSans-66" transform="translate(613.814453 0)"/>
       <use xlink:href="#DejaVuSans-77" transform="translate(647.269531 0)"/>
       <use xlink:href="#DejaVuSans-69" transform="translate(729.056641 0)"/>
       <use xlink:href="#DejaVuSans-72" transform="translate(756.839844 0)"/>
       <use xlink:href="#DejaVuSans-74" transform="translate(797.953125 0)"/>
       <use xlink:href="#DejaVuSans-73" transform="translate(837.162109 0)"/>
      </g>
      <!-- chaft wird… -->
      <g transform="translate(155.421875 451.499309) scale(0.12 -0.12)">
       <defs>
        <path id="DejaVuSans-63" d="M 3122 3366 
L 3122 2828 
Q 2878 2963 2633 3030 
Q 2388 3097 2138 3097 
Q 1578 3097 1268 2742 
Q 959 2388 959 1747 
Q 959 1106 1268 751 
Q 1578 397 2138 397 
Q 2388 397 2633 464 
Q 2878 531 3122 666 
L 3122 134 
Q 2881 22 2623 -34 
Q 2366 -91 2075 -91 
Q 1284 -91 818 406 
Q 353 903 353 1747 
Q 353 2603 823 3093 
Q 1294 3584 2113 3584 
Q 2378 3584 2631 3529 
Q 2884 3475 3122 3366 
z
" transform="scale(0.015625)"/>
        <path id="DejaVuSans-2026" d="M 2869 794 
L 3531 794 
L 3531 0 
L 2869 0 
L 2869 794 
z
M 4997 794 
L 5663 794 
L 5663 0 
L 4997 0 
L 4997 794 
z
M 738 794 
L 1403 794 
L 1403 0 
L 738 0 
L 738 794 
z
" transform="scale(0.015625)"/>
       </defs>
       <use xlink:href="#DejaVuSans-63"/>
       <use xlink:href="#DejaVuSans-68" transform="translate(54.980469 0)"/>
       <use xlink:href="#DejaVuSans-61" transform="translate(118.359375 0)"/>
       <use xlink:href="#DejaVuSans-66" transform="translate(179.638672 0)"/>
       <use xlink:href="#DejaVuSans-74" transform="translate(213.09375 0)"/>
       <use xlink:href="#DejaVuSans-20" transform="translate(252.302734 0)"/>
       <use xlink:href="#DejaVuSans-77" transform="translate(284.089844 0)"/>
       <use xlink:href="#DejaVuSans-69" transform="translate(365.876953 0)"/>
       <use xlink:href="#DejaVuSans-72" transform="translate(393.660156 0)"/>
       <use xlink:href="#DejaVuSans-64" transform="translate(433.023438 0)"/>
       <use xlink:href="#DejaVuSans-2026" transform="translate(496.5 0)"/>
      </g>
     </g>
    </g>
    <g id="ytick_2">
     <g id="line2d_14">
      <g>
       <use xlink:href="#mda9072c7ad" x="234" y="316.837895" style="stroke: #000000; stroke-width: 0.8"/>
      </g>
     </g>
     <g id="text_9">
      <!-- Die -->
      <g transform="translate(207.0425 295.43402) scale(0.12 -0.12)">
       <use xlink:href="#DejaVuSans-44"/>
       <use xlink:href="#DejaVuSans-69" transform="translate(77.001953 0)"/>
       <use xlink:href="#DejaVuSans-65" transform="translate(104.785156 0)"/>
      </g>
      <!-- Geschäftsführung -->
      <g transform="translate(120.344375 308.871395) scale(0.12 -0.12)">
       <defs>
        <path id="DejaVuSans-47" d="M 3809 666 
L 3809 1919 
L 2778 1919 
L 2778 2438 
L 4434 2438 
L 4434 434 
Q 4069 175 3628 42 
Q 3188 -91 2688 -91 
Q 1594 -91 976 548 
Q 359 1188 359 2328 
Q 359 3472 976 4111 
Q 1594 4750 2688 4750 
Q 3144 4750 3555 4637 
Q 3966 4525 4313 4306 
L 4313 3634 
Q 3963 3931 3569 4081 
Q 3175 4231 2741 4231 
Q 1884 4231 1454 3753 
Q 1025 3275 1025 2328 
Q 1025 1384 1454 906 
Q 1884 428 2741 428 
Q 3075 428 3337 486 
Q 3600 544 3809 666 
z
" transform="scale(0.015625)"/>
        <path id="DejaVuSans-e4" d="M 2194 1759 
Q 1497 1759 1228 1600 
Q 959 1441 959 1056 
Q 959 750 1161 570 
Q 1363 391 1709 391 
Q 2188 391 2477 730 
Q 2766 1069 2766 1631 
L 2766 1759 
L 2194 1759 
z
M 3341 1997 
L 3341 0 
L 2766 0 
L 2766 531 
Q 2569 213 2275 61 
Q 1981 -91 1556 -91 
Q 1019 -91 701 211 
Q 384 513 384 1019 
Q 384 1609 779 1909 
Q 1175 2209 1959 2209 
L 2766 2209 
L 2766 2266 
Q 2766 2663 2505 2880 
Q 2244 3097 1772 3097 
Q 1472 3097 1187 3025 
Q 903 2953 641 2809 
L 641 3341 
Q 956 3463 1253 3523 
Q 1550 3584 1831 3584 
Q 2591 3584 2966 3190 
Q 3341 2797 3341 1997 
z
M 2150 4850 
L 2784 4850 
L 2784 4219 
L 2150 4219 
L 2150 4850 
z
M 928 4850 
L 1562 4850 
L 1562 4219 
L 928 4219 
L 928 4850 
z
" transform="scale(0.015625)"/>
       </defs>
       <use xlink:href="#DejaVuSans-47"/>
       <use xlink:href="#DejaVuSans-65" transform="translate(77.490234 0)"/>
       <use xlink:href="#DejaVuSans-73" transform="translate(139.013672 0)"/>
       <use xlink:href="#DejaVuSans-63" transform="translate(191.113281 0)"/>
       <use xlink:href="#DejaVuSans-68" transform="translate(246.09375 0)"/>
       <use xlink:href="#DejaVuSans-e4" transform="translate(309.472656 0)"/>
       <use xlink:href="#DejaVuSans-66" transform="translate(370.751953 0)"/>
       <use xlink:href="#DejaVuSans-74" transform="translate(404.207031 0)"/>
       <use xlink:href="#DejaVuSans-73" transform="translate(443.416016 0)"/>
       <use xlink:href="#DejaVuSans-66" transform="translate(495.515625 0)"/>
       <use xlink:href="#DejaVuSans-fc" transform="translate(530.720703 0)"/>
       <use xlink:href="#DejaVuSans-68" transform="translate(594.099609 0)"/>
       <use xlink:href="#DejaVuSans-72" transform="translate(657.478516 0)"/>
       <use xlink:href="#DejaVuSans-75" transform="translate(698.591797 0)"/>
       <use xlink:href="#DejaVuSans-6e" transform="translate(761.970703 0)"/>
       <use xlink:href="#DejaVuSans-67" transform="translate(825.349609 0)"/>
      </g>
      <!-- unterstützt die -->
      <g transform="translate(138.351875 322.30877) scale(0.12 -0.12)">
       <use xlink:href="#DejaVuSans-75"/>
       <use xlink:href="#DejaVuSans-6e" transform="translate(63.378906 0)"/>
       <use xlink:href="#DejaVuSans-74" transform="translate(126.757812 0)"/>
       <use xlink:href="#DejaVuSans-65" transform="translate(165.966797 0)"/>
       <use xlink:href="#DejaVuSans-72" transform="translate(227.490234 0)"/>
       <use xlink:href="#DejaVuSans-73" transform="translate(268.603516 0)"/>
       <use xlink:href="#DejaVuSans-74" transform="translate(320.703125 0)"/>
       <use xlink:href="#DejaVuSans-fc" transform="translate(359.912109 0)"/>
       <use xlink:href="#DejaVuSans-74" transform="translate(423.291016 0)"/>
       <use xlink:href="#DejaVuSans-7a" transform="translate(462.5 0)"/>
       <use xlink:href="#DejaVuSans-74" transform="translate(514.990234 0)"/>
       <use xlink:href="#DejaVuSans-20" transform="translate(554.199219 0)"/>
       <use xlink:href="#DejaVuSans-64" transform="translate(585.986328 0)"/>
       <use xlink:href="#DejaVuSans-69" transform="translate(649.462891 0)"/>
       <use xlink:href="#DejaVuSans-65" transform="translate(677.246094 0)"/>
      </g>
      <!-- Umsetzung von Krei -->
      <g transform="translate(106.135625 335.746145) scale(0.12 -0.12)">
       <use xlink:href="#DejaVuSans-55"/>
       <use xlink:href="#DejaVuSans-6d" transform="translate(73.193359 0)"/>
       <use xlink:href="#DejaVuSans-73" transform="translate(170.605469 0)"/>
       <use xlink:href="#DejaVuSans-65" transform="translate(222.705078 0)"/>
       <use xlink:href="#DejaVuSans-74" transform="translate(284.228516 0)"/>
       <use xlink:href="#DejaVuSans-7a" transform="translate(323.4375 0)"/>
       <use xlink:href="#DejaVuSans-75" transform="translate(375.927734 0)"/>
       <use xlink:href="#DejaVuSans-6e" transform="translate(439.306641 0)"/>
       <use xlink:href="#DejaVuSans-67" transform="translate(502.685547 0)"/>
       <use xlink:href="#DejaVuSans-20" transform="translate(566.162109 0)"/>
       <use xlink:href="#DejaVuSans-76" transform="translate(597.949219 0)"/>
       <use xlink:href="#DejaVuSans-6f" transform="translate(657.128906 0)"/>
       <use xlink:href="#DejaVuSans-6e" transform="translate(718.310547 0)"/>
       <use xlink:href="#DejaVuSans-20" transform="translate(781.689453 0)"/>
       <use xlink:href="#DejaVuSans-4b" transform="translate(813.476562 0)"/>
       <use xlink:href="#DejaVuSans-72" transform="translate(879.052734 0)"/>
       <use xlink:href="#DejaVuSans-65" transform="translate(917.916016 0)"/>
       <use xlink:href="#DejaVuSans-69" transform="translate(979.439453 0)"/>
      </g>
      <!-- slaufwirtschaft… -->
      <g transform="translate(127.13 349.18352) scale(0.12 -0.12)">
       <use xlink:href="#DejaVuSans-73"/>
       <use xlink:href="#DejaVuSans-6c" transform="translate(52.099609 0)"/>
       <use xlink:href="#DejaVuSans-61" transform="translate(79.882812 0)"/>
       <use xlink:href="#DejaVuSans-75" transform="translate(141.162109 0)"/>
       <use xlink:href="#DejaVuSans-66" transform="translate(204.541016 0)"/>
       <use xlink:href="#DejaVuSans-77" transform="translate(237.996094 0)"/>
       <use xlink:href="#DejaVuSans-69" transform="translate(319.783203 0)"/>
       <use xlink:href="#DejaVuSans-72" transform="translate(347.566406 0)"/>
       <use xlink:href="#DejaVuSans-74" transform="translate(388.679688 0)"/>
       <use xlink:href="#DejaVuSans-73" transform="translate(427.888672 0)"/>
       <use xlink:href="#DejaVuSans-63" transform="translate(479.988281 0)"/>
       <use xlink:href="#DejaVuSans-68" transform="translate(534.96875 0)"/>
       <use xlink:href="#DejaVuSans-61" transform="translate(598.347656 0)"/>
       <use xlink:href="#DejaVuSans-66" transform="translate(659.626953 0)"/>
       <use xlink:href="#DejaVuSans-74" transform="translate(693.082031 0)"/>
       <use xlink:href="#DejaVuSans-2026" transform="translate(732.291016 0)"/>
      </g>
     </g>
    </g>
    <g id="ytick_3">
     <g id="line2d_15">
      <g>
       <use xlink:href="#mda9072c7ad" x="234" y="214.522105" style="stroke: #000000; stroke-width: 0.8"/>
      </g>
     </g>
     <g id="text_10">
      <!-- Es existiert ein -->
      <g transform="translate(138.295625 193.11823) scale(0.12 -0.12)">
       <defs>
        <path id="DejaVuSans-45" d="M 628 4666 
L 3578 4666 
L 3578 4134 
L 1259 4134 
L 1259 2753 
L 3481 2753 
L 3481 2222 
L 1259 2222 
L 1259 531 
L 3634 531 
L 3634 0 
L 628 0 
L 628 4666 
z
" transform="scale(0.015625)"/>
        <path id="DejaVuSans-78" d="M 3513 3500 
L 2247 1797 
L 3578 0 
L 2900 0 
L 1881 1375 
L 863 0 
L 184 0 
L 1544 1831 
L 300 3500 
L 978 3500 
L 1906 2253 
L 2834 3500 
L 3513 3500 
z
" transform="scale(0.015625)"/>
       </defs>
       <use xlink:href="#DejaVuSans-45"/>
       <use xlink:href="#DejaVuSans-73" transform="translate(63.183594 0)"/>
       <use xlink:href="#DejaVuSans-20" transform="translate(115.283203 0)"/>
       <use xlink:href="#DejaVuSans-65" transform="translate(147.070312 0)"/>
       <use xlink:href="#DejaVuSans-78" transform="translate(206.84375 0)"/>
       <use xlink:href="#DejaVuSans-69" transform="translate(266.023438 0)"/>
       <use xlink:href="#DejaVuSans-73" transform="translate(293.806641 0)"/>
       <use xlink:href="#DejaVuSans-74" transform="translate(345.90625 0)"/>
       <use xlink:href="#DejaVuSans-69" transform="translate(385.115234 0)"/>
       <use xlink:href="#DejaVuSans-65" transform="translate(412.898438 0)"/>
       <use xlink:href="#DejaVuSans-72" transform="translate(474.421875 0)"/>
       <use xlink:href="#DejaVuSans-74" transform="translate(515.535156 0)"/>
       <use xlink:href="#DejaVuSans-20" transform="translate(554.744141 0)"/>
       <use xlink:href="#DejaVuSans-65" transform="translate(586.53125 0)"/>
       <use xlink:href="#DejaVuSans-69" transform="translate(648.054688 0)"/>
       <use xlink:href="#DejaVuSans-6e" transform="translate(675.837891 0)"/>
      </g>
      <!-- Team / eine -->
      <g transform="translate(157.908125 206.555605) scale(0.12 -0.12)">
       <defs>
        <path id="DejaVuSans-2f" d="M 1625 4666 
L 2156 4666 
L 531 -594 
L 0 -594 
L 1625 4666 
z
" transform="scale(0.015625)"/>
       </defs>
       <use xlink:href="#DejaVuSans-54"/>
       <use xlink:href="#DejaVuSans-65" transform="translate(44.083984 0)"/>
       <use xlink:href="#DejaVuSans-61" transform="translate(105.607422 0)"/>
       <use xlink:href="#DejaVuSans-6d" transform="translate(166.886719 0)"/>
       <use xlink:href="#DejaVuSans-20" transform="translate(264.298828 0)"/>
       <use xlink:href="#DejaVuSans-2f" transform="translate(296.085938 0)"/>
       <use xlink:href="#DejaVuSans-20" transform="translate(329.777344 0)"/>
       <use xlink:href="#DejaVuSans-65" transform="translate(361.564453 0)"/>
       <use xlink:href="#DejaVuSans-69" transform="translate(423.087891 0)"/>
       <use xlink:href="#DejaVuSans-6e" transform="translate(450.871094 0)"/>
       <use xlink:href="#DejaVuSans-65" transform="translate(514.25 0)"/>
      </g>
      <!-- Abteilung für die -->
      <g transform="translate(126.86375 219.99298) scale(0.12 -0.12)">
       <use xlink:href="#DejaVuSans-41"/>
       <use xlink:href="#DejaVuSans-62" transform="translate(68.408203 0)"/>
       <use xlink:href="#DejaVuSans-74" transform="translate(131.884766 0)"/>
       <use xlink:href="#DejaVuSans-65" transform="translate(171.09375 0)"/>
       <use xlink:href="#DejaVuSans-69" transform="translate(232.617188 0)"/>
       <use xlink:href="#DejaVuSans-6c" transform="translate(260.400391 0)"/>
       <use xlink:href="#DejaVuSans-75" transform="translate(288.183594 0)"/>
       <use xlink:href="#DejaVuSans-6e" transform="translate(351.5625 0)"/>
       <use xlink:href="#DejaVuSans-67" transform="translate(414.941406 0)"/>
       <use xlink:href="#DejaVuSans-20" transform="translate(478.417969 0)"/>
       <use xlink:href="#DejaVuSans-66" transform="translate(510.205078 0)"/>
       <use xlink:href="#DejaVuSans-fc" transform="translate(545.410156 0)"/>
       <use xlink:href="#DejaVuSans-72" transform="translate(608.789062 0)"/>
       <use xlink:href="#DejaVuSans-20" transform="translate(649.902344 0)"/>
       <use xlink:href="#DejaVuSans-64" transform="translate(681.689453 0)"/>
       <use xlink:href="#DejaVuSans-69" transform="translate(745.166016 0)"/>
       <use xlink:href="#DejaVuSans-65" transform="translate(772.949219 0)"/>
      </g>
      <!-- Umsetzung von Krei -->
      <g transform="translate(106.135625 233.430355) scale(0.12 -0.12)">
       <use xlink:href="#DejaVuSans-55"/>
       <use xlink:href="#DejaVuSans-6d" transform="translate(73.193359 0)"/>
       <use xlink:href="#DejaVuSans-73" transform="translate(170.605469 0)"/>
       <use xlink:href="#DejaVuSans-65" transform="translate(222.705078 0)"/>
       <use xlink:href="#DejaVuSans-74" transform="translate(284.228516 0)"/>
       <use xlink:href="#DejaVuSans-7a" transform="translate(323.4375 0)"/>
       <use xlink:href="#DejaVuSans-75" transform="translate(375.927734 0)"/>
       <use xlink:href="#DejaVuSans-6e" transform="translate(439.306641 0)"/>
       <use xlink:href="#DejaVuSans-67" transform="translate(502.685547 0)"/>
       <use xlink:href="#DejaVuSans-20" transform="translate(566.162109 0)"/>
       <use xlink:href="#DejaVuSans-76" transform="translate(597.949219 0)"/>
       <use xlink:href="#DejaVuSans-6f" transform="translate(657.128906 0)"/>
       <use xlink:href="#DejaVuSans-6e" transform="translate(718.310547 0)"/>
       <use xlink:href="#DejaVuSans-20" transform="translate(781.689453 0)"/>
       <use xlink:href="#DejaVuSans-4b" transform="translate(813.476562 0)"/>
       <use xlink:href="#DejaVuSans-72" transform="translate(879.052734 0)"/>
       <use xlink:href="#DejaVuSans-65" transform="translate(917.916016 0)"/>
       <use xlink:href="#DejaVuSans-69" transform="translate(979.439453 0)"/>
      </g>
      <!-- slaufwirtschaft. -->
      <g transform="translate(135.31625 246.86773) scale(0.12 -0.12)">
       <defs>
        <path id="DejaVuSans-2e" d="M 684 794 
L 1344 794 
L 1344 0 
L 684 0 
L 684 794 
z
" transform="scale(0.015625)"/>
       </defs>
       <use xlink:href="#DejaVuSans-73"/>
       <use xlink:href="#DejaVuSans-6c" transform="translate(52.099609 0)"/>
       <use xlink:href="#DejaVuSans-61" transform="translate(79.882812 0)"/>
       <use xlink:href="#DejaVuSans-75" transform="translate(141.162109 0)"/>
       <use xlink:href="#DejaVuSans-66" transform="translate(204.541016 0)"/>
       <use xlink:href="#DejaVuSans-77" transform="translate(237.996094 0)"/>
       <use xlink:href="#DejaVuSans-69" transform="translate(319.783203 0)"/>
       <use xlink:href="#DejaVuSans-72" transform="translate(347.566406 0)"/>
       <use xlink:href="#DejaVuSans-74" transform="translate(388.679688 0)"/>
       <use xlink:href="#DejaVuSans-73" transform="translate(427.888672 0)"/>
       <use xlink:href="#DejaVuSans-63" transform="translate(479.988281 0)"/>
       <use xlink:href="#DejaVuSans-68" transform="translate(534.96875 0)"/>
       <use xlink:href="#DejaVuSans-61" transform="translate(598.347656 0)"/>
       <use xlink:href="#DejaVuSans-66" transform="translate(659.626953 0)"/>
       <use xlink:href="#DejaVuSans-74" transform="translate(693.082031 0)"/>
       <use xlink:href="#DejaVuSans-2e" transform="translate(732.291016 0)"/>
      </g>
     </g>
    </g>
    <g id="ytick_4">
     <g id="line2d_16">
      <g>
       <use xlink:href="#mda9072c7ad" x="234" y="112.206316" style="stroke: #000000; stroke-width: 0.8"/>
      </g>
     </g>
     <g id="text_11">
      <!-- Kreislaufwirtschaf -->
      <g transform="translate(120.374375 97.521128) scale(0.12 -0.12)">
       <use xlink:href="#DejaVuSans-4b"/>
       <use xlink:href="#DejaVuSans-72" transform="translate(65.576172 0)"/>
       <use xlink:href="#DejaVuSans-65" transform="translate(104.439453 0)"/>
       <use xlink:href="#DejaVuSans-69" transform="translate(165.962891 0)"/>
       <use xlink:href="#DejaVuSans-73" transform="translate(193.746094 0)"/>
       <use xlink:href="#DejaVuSans-6c" transform="translate(245.845703 0)"/>
       <use xlink:href="#DejaVuSans-61" transform="translate(273.628906 0)"/>
       <use xlink:href="#DejaVuSans-75" transform="translate(334.908203 0)"/>
       <use xlink:href="#DejaVuSans-66" transform="translate(398.287109 0)"/>
       <use xlink:href="#DejaVuSans-77" transform="translate(431.742188 0)"/>
       <use xlink:href="#DejaVuSans-69" transform="translate(513.529297 0)"/>
       <use xlink:href="#DejaVuSans-72" transform="translate(541.3125 0)"/>
       <use xlink:href="#DejaVuSans-74" transform="translate(582.425781 0)"/>
       <use xlink:href="#DejaVuSans-73" transform="translate(621.634766 0)"/>
       <use xlink:href="#DejaVuSans-63" transform="translate(673.734375 0)"/>
       <use xlink:href="#DejaVuSans-68" transform="translate(728.714844 0)"/>
       <use xlink:href="#DejaVuSans-61" transform="translate(792.09375 0)"/>
       <use xlink:href="#DejaVuSans-66" transform="translate(853.373047 0)"/>
      </g>
      <!-- t ist Teil der Unt -->
      <g transform="translate(132.38375 110.958503) scale(0.12 -0.12)">
       <use xlink:href="#DejaVuSans-74"/>
       <use xlink:href="#DejaVuSans-20" transform="translate(39.208984 0)"/>
       <use xlink:href="#DejaVuSans-69" transform="translate(70.996094 0)"/>
       <use xlink:href="#DejaVuSans-73" transform="translate(98.779297 0)"/>
       <use xlink:href="#DejaVuSans-74" transform="translate(150.878906 0)"/>
       <use xlink:href="#DejaVuSans-20" transform="translate(190.087891 0)"/>
       <use xlink:href="#DejaVuSans-54" transform="translate(221.875 0)"/>
       <use xlink:href="#DejaVuSans-65" transform="translate(265.958984 0)"/>
       <use xlink:href="#DejaVuSans-69" transform="translate(327.482422 0)"/>
       <use xlink:href="#DejaVuSans-6c" transform="translate(355.265625 0)"/>
       <use xlink:href="#DejaVuSans-20" transform="translate(383.048828 0)"/>
       <use xlink:href="#DejaVuSans-64" transform="translate(414.835938 0)"/>
       <use xlink:href="#DejaVuSans-65" transform="translate(478.3125 0)"/>
       <use xlink:href="#DejaVuSans-72" transform="translate(539.835938 0)"/>
       <use xlink:href="#DejaVuSans-20" transform="translate(580.949219 0)"/>
       <use xlink:href="#DejaVuSans-55" transform="translate(612.736328 0)"/>
       <use xlink:href="#DejaVuSans-6e" transform="translate(685.929688 0)"/>
       <use xlink:href="#DejaVuSans-74" transform="translate(749.308594 0)"/>
      </g>
      <!-- ernehmensstrategie -->
      <g transform="translate(105.704375 124.395878) scale(0.12 -0.12)">
       <use xlink:href="#DejaVuSans-65"/>
       <use xlink:href="#DejaVuSans-72" transform="translate(61.523438 0)"/>
       <use xlink:href="#DejaVuSans-6e" transform="translate(100.886719 0)"/>
       <use xlink:href="#DejaVuSans-65" transform="translate(164.265625 0)"/>
       <use xlink:href="#DejaVuSans-68" transform="translate(225.789062 0)"/>
       <use xlink:href="#DejaVuSans-6d" transform="translate(289.167969 0)"/>
       <use xlink:href="#DejaVuSans-65" transform="translate(386.580078 0)"/>
       <use xlink:href="#DejaVuSans-6e" transform="translate(448.103516 0)"/>
       <use xlink:href="#DejaVuSans-73" transform="translate(511.482422 0)"/>
       <use xlink:href="#DejaVuSans-73" transform="translate(563.582031 0)"/>
       <use xlink:href="#DejaVuSans-74" transform="translate(615.681641 0)"/>
       <use xlink:href="#DejaVuSans-72" transform="translate(654.890625 0)"/>
       <use xlink:href="#DejaVuSans-61" transform="translate(696.003906 0)"/>
       <use xlink:href="#DejaVuSans-74" transform="translate(757.283203 0)"/>
       <use xlink:href="#DejaVuSans-65" transform="translate(796.492188 0)"/>
       <use xlink:href="#DejaVuSans-67" transform="translate(858.015625 0)"/>
       <use xlink:href="#DejaVuSans-69" transform="translate(921.492188 0)"/>
       <use xlink:href="#DejaVuSans-65" transform="translate(949.275391 0)"/>
      </g>
      <!-- . -->
      <g transform="translate(223.18625 137.833253) scale(0.12 -0.12)">
       <use xlink:href="#DejaVuSans-2e"/>
      </g>
     </g>
    </g>
   </g>
   <g id="patch_3">
    <path d="M 234 460.08 
L 447.553398 460.08 
L 447.553398 378.227368 
L 234 378.227368 
z
" clip-path="url(#p3a8d6ee07d)" style="fill: #003b6a"/>
   </g>
   <g id="patch_4">
    <path d="M 234 357.764211 
L 492.990291 357.764211 
L 492.990291 275.911579 
L 234 275.911579 
z
" clip-path="url(#p3a8d6ee07d)" style="fill: #003b6a"/>
   </g>
   <g id="patch_5">
    <path d="M 234 255.448421 
L 415.747573 255.448421 
L 415.747573 173.595789 
L 234 173.595789 
z
" clip-path="url(#p3a8d6ee07d)" style="fill: #003b6a"/>
   </g>
   <g id="patch_6">
    <path d="M 234 153.132632 
L 502.07767 153.132632 
L 502.07767 71.28 
L 234 71.28 
z
" clip-path="url(#p3a8d6ee07d)" style="fill: #003b6a"/>
   </g>
   <g id="patch_7">
    <path d="M 447.553398 460.08 
L 597.495146 460.08 
L 597.495146 378.227368 
L 447.553398 378.227368 
z
" clip-path="url(#p3a8d6ee07d)" style="fill: #8fc73e"/>
   </g>
   <g id="patch_8">
    <path d="M 492.990291 357.764211 
L 611.126214 357.764211 
L 611.126214 275.911579 
L 492.990291 275.911579 
z
" clip-path="url(#p3a8d6ee07d)" style="fill: #8fc73e"/>
   </g>
   <g id="patch_9">
    <path d="M 415.747573 255.448421 
L 615.669903 255.448421 
L 615.669903 173.595789 
L 415.747573 173.595789 
z
" clip-path="url(#p3a8d6ee07d)" style="fill: #8fc73e"/>
   </g>
   <g id="patch_10">
    <path d="M 502.07767 153.132632 
L 638.38835 153.132632 
L 638.38835 71.28 
L 502.07767 71.28 
z
" clip-path="url(#p3a8d6ee07d)" style="fill: #8fc73e"/>
   </g>
   <g id="patch_11">
    <path d="M 597.495146 460.08 
L 702 460.08 
L 702 378.227368 
L 597.495146 378.227368 
z
" clip-path="url(#p3a8d6ee07d)" style="fill: #dc912f"/>
   </g>
   <g id="patch_12">
    <path d="M 611.126214 357.764211 
L 702 357.764211 
L 702 275.911579 
L 611.126214 275.911579 
z
" clip-path="url(#p3a8d6ee07d)" style="fill: #dc912f"/>
   </g>
   <g id="patch_13">
    <path d="M 615.669903 255.448421 
L 702 255.448421 
L 702 173.595789 
L 615.669903 173.595789 
z
" clip-path="url(#p3a8d6ee07d)" style="fill: #dc912f"/>
   </g>
   <g id="patch_14">
    <path d="M 638.38835 153.132632 
L 702 153.132632 
L 702 71.28 
L 638.38835 71.28 
z
" clip-path="url(#p3a8d6ee07d)" style="fill: #dc912f"/>
   </g>
   <g id="patch_15">
    <path d="M 234 479.52 
L 234 51.84 
" style="fill: none; stroke: #333333; stroke-width: 0.9; stroke-linejoin: miter; stroke-linecap: square"/>
   </g>
   <g id="patch_16">
    <path d="M 702 479.52 
L 702 51.84 
" style="fill: none; stroke: #333333; stroke-width: 0.9; stroke-linejoin: miter; stroke-linecap: square"/>
   </g>
   <g id="patch_17">
    <path d="M 234 479.52 
L 702 479.52 
" style="fill: none; stroke: #333333; stroke-width: 0.9; stroke-linejoin: miter; stroke-linecap: square"/>
   </g>
   <g id="patch_18">
    <path d="M 234 51.84 
L 702 51.84 
" style="fill: none; stroke: #333333; stroke-width: 0.9; stroke-linejoin: miter; stroke-linecap: square"/>
   </g>
   <g id="text_12">
    <!-- 46% -->
    <g style="fill: #ffffff" transform="translate(327.440762 422.464934) scale(0.12 -0.12)">
     <use xlink:href="#DejaVuSans-34"/>
     <use xlink:href="#DejaVuSans-36" transform="translate(63.623047 0)"/>
     <use xlink:href="#DejaVuSans-25" transform="translate(127.246094 0)"/>
    </g>
   </g>
   <g id="text_13">
    <!-- 55% -->
    <g style="fill: #ffffff" transform="translate(350.159208 320.149145) scale(0.12 -0.12)">
     <defs>
      <path id="DejaVuSans-35" d="M 691 4666 
L 3169 4666 
L 3169 4134 
L 1269 4134 
L 1269 2991 
Q 1406 3038 1543 3061 
Q 1681 3084 1819 3084 
Q 2600 3084 3056 2656 
Q 3513 2228 3513 1497 
Q 3513 744 3044 326 
Q 2575 -91 1722 -91 
Q 1428 -91 1123 -41 
Q 819 9 494 109 
L 494 744 
Q 775 591 1075 516 
Q 1375 441 1709 441 
Q 2250 441 2565 725 
Q 2881 1009 2881 1497 
Q 2881 1984 2565 2268 
Q 2250 2553 1709 2553 
Q 1456 2553 1204 2497 
Q 953 2441 691 2322 
L 691 4666 
z
" transform="scale(0.015625)"/>
     </defs>
     <use xlink:href="#DejaVuSans-35"/>
     <use xlink:href="#DejaVuSans-35" transform="translate(63.623047 0)"/>
     <use xlink:href="#DejaVuSans-25" transform="translate(127.246094 0)"/>
    </g>
   </g>
   <g id="text_14">
    <!-- 39% -->
    <g style="fill: #ffffff" transform="translate(311.537849 217.833355) scale(0.12 -0.12)">
     <defs>
      <path id="DejaVuSans-33" d="M 2597 2516 
Q 3050 2419 3304 2112 
Q 3559 1806 3559 1356 
Q 3559 666 3084 287 
Q 2609 -91 1734 -91 
Q 1441 -91 1130 -33 
Q 819 25 488 141 
L 488 750 
Q 750 597 1062 519 
Q 1375 441 1716 441 
Q 2309 441 2620 675 
Q 2931 909 2931 1356 
Q 2931 1769 2642 2001 
Q 2353 2234 1838 2234 
L 1294 2234 
L 1294 2753 
L 1863 2753 
Q 2328 2753 2575 2939 
Q 2822 3125 2822 3475 
Q 2822 3834 2567 4026 
Q 2313 4219 1838 4219 
Q 1578 4219 1281 4162 
Q 984 4106 628 3988 
L 628 4550 
Q 988 4650 1302 4700 
Q 1616 4750 1894 4750 
Q 2613 4750 3031 4423 
Q 3450 4097 3450 3541 
Q 3450 3153 3228 2886 
Q 3006 2619 2597 2516 
z
" transform="scale(0.015625)"/>
      <path id="DejaVuSans-39" d="M 703 97 
L 703 672 
Q 941 559 1184 500 
Q 1428 441 1663 441 
Q 2288 441 2617 861 
Q 2947 1281 2994 2138 
Q 2813 1869 2534 1725 
Q 2256 1581 1919 1581 
Q 1219 1581 811 2004 
Q 403 2428 403 3163 
Q 403 3881 828 4315 
Q 1253 4750 1959 4750 
Q 2769 4750 3195 4129 
Q 3622 3509 3622 2328 
Q 3622 1225 3098 567 
Q 2575 -91 1691 -91 
Q 1453 -91 1209 -44 
Q 966 3 703 97 
z
M 1959 2075 
Q 2384 2075 2632 2365 
Q 2881 2656 2881 3163 
Q 2881 3666 2632 3958 
Q 2384 4250 1959 4250 
Q 1534 4250 1286 3958 
Q 1038 3666 1038 3163 
Q 1038 2656 1286 2365 
Q 1534 2075 1959 2075 
z
" transform="scale(0.015625)"/>
     </defs>
     <use xlink:href="#DejaVuSans-33"/>
     <use xlink:href="#DejaVuSans-39" transform="translate(63.623047 0)"/>
     <use xlink:href="#DejaVuSans-25" transform="translate(127.246094 0)"/>
    </g>
   </g>
   <g id="text_15">
    <!-- 57% -->
    <g style="fill: #ffffff" transform="translate(354.702897 115.517566) scale(0.12 -0.12)">
     <defs>
      <path id="DejaVuSans-37" d="M 525 4666 
L 3525 4666 
L 3525 4397 
L 1831 0 
L 1172 0 
L 2766 4134 
L 525 4134 
L 525 4666 
z
" transform="scale(0.015625)"/>
     </defs>
     <use xlink:href="#DejaVuSans-35"/>
     <use xlink:href="#DejaVuSans-37" transform="translate(63.623047 0)"/>
     <use xlink:href="#DejaVuSans-25" transform="translate(127.246094 0)"/>
    </g>
   </g>
   <g id="text_16">
    <!-- 32% -->
    <g style="fill: #ffffff" transform="translate(509.188334 422.464934) scale(0.12 -0.12)">
     <use xlink:href="#DejaVuSans-33"/>
     <use xlink:href="#DejaVuSans-32" transform="translate(63.623047 0)"/>
     <use xlink:href="#DejaVuSans-25" transform="translate(127.246094 0)"/>
    </g>
   </g>
   <g id="text_17">
    <!-- 25% -->
    <g style="fill: #ffffff" transform="translate(538.722315 320.149145) scale(0.12 -0.12)">
     <use xlink:href="#DejaVuSans-32"/>
     <use xlink:href="#DejaVuSans-35" transform="translate(63.623047 0)"/>
     <use xlink:href="#DejaVuSans-25" transform="translate(127.246094 0)"/>
    </g>
   </g>
   <g id="text_18">
    <!-- 43% -->
    <g style="fill: #ffffff" transform="translate(502.3728 217.833355) scale(0.12 -0.12)">
     <use xlink:href="#DejaVuSans-34"/>
     <use xlink:href="#DejaVuSans-33" transform="translate(63.623047 0)"/>
     <use xlink:href="#DejaVuSans-25" transform="translate(127.246094 0)"/>
    </g>
   </g>
   <g id="text_19">
    <!-- 29% -->
    <g style="fill: #ffffff" transform="translate(556.897072 115.517566) scale(0.12 -0.12)">
     <use xlink:href="#DejaVuSans-32"/>
     <use xlink:href="#DejaVuSans-39" transform="translate(63.623047 0)"/>
     <use xlink:href="#DejaVuSans-25" transform="translate(127.246094 0)"/>
    </g>
   </g>
   <g id="text_20">
    <!-- 22% -->
    <g style="fill: #ffffff" transform="translate(636.411635 422.464934) scale(0.12 -0.12)">
     <use xlink:href="#DejaVuSans-32"/>
     <use xlink:href="#DejaVuSans-32" transform="translate(63.623047 0)"/>
     <use xlink:href="#DejaVuSans-25" transform="translate(127.246094 0)"/>
    </g>
   </g>
   <g id="text_21">
    <!-- 19% -->
    <g style="fill: #ffffff" transform="translate(643.227169 320.149145) scale(0.12 -0.12)">
     <use xlink:href="#DejaVuSans-31"/>
     <use xlink:href="#DejaVuSans-39" transform="translate(63.623047 0)"/>
     <use xlink:href="#DejaVuSans-25" transform="translate(127.246094 0)"/>
    </g>
   </g>
   <g id="text_22">
    <!-- 18% -->
    <g style="fill: #ffffff" transform="translate(645.499014 217.833355) scale(0.12 -0.12)">
     <use xlink:href="#DejaVuSans-31"/>
     <use xlink:href="#DejaVuSans-38" transform="translate(63.623047 0)"/>
     <use xlink:href="#DejaVuSans-25" transform="translate(127.246094 0)"/>
    </g>
   </g>
   <g id="text_23">
    <!-- 14% -->
    <g style="fill: #ffffff" transform="translate(656.858237 115.517566) scale(0.12 -0.12)">
     <use xlink:href="#DejaVuSans-31"/>
     <use xlink:href="#DejaVuSans-34" transform="translate(63.623047 0)"/>
     <use xlink:href="#DejaVuSans-25" transform="translate(127.246094 0)"/>
    </g>
   </g>
  </g>
  <g id="text_24">
   <!-- ■ -->
   <g style="fill: #003b6a" transform="translate(776.88 81.07125) scale(0.12 -0.12)">
    <defs>
     <path id="DejaVuSans-25a0" d="M 581 -788 
L 581 4113 
L 5466 4113 
L 5466 -788 
L 581 -788 
z
" transform="scale(0.015625)"/>
    </defs>
    <use xlink:href="#DejaVuSans-25a0"/>
   </g>
  </g>
  <g id="text_25">
   <!-- Ja -->
   <g transform="translate(795.6 80.519375) scale(0.1 -0.1)">
    <defs>
     <path id="DejaVuSans-4a" d="M 628 4666 
L 1259 4666 
L 1259 325 
Q 1259 -519 939 -900 
Q 619 -1281 -91 -1281 
L -331 -1281 
L -331 -750 
L -134 -750 
Q 284 -750 456 -515 
Q 628 -281 628 325 
L 628 4666 
z
" transform="scale(0.015625)"/>
    </defs>
    <use xlink:href="#DejaVuSans-4a"/>
    <use xlink:href="#DejaVuSans-61" transform="translate(29.492188 0)"/>
   </g>
  </g>
  <g id="text_26">
   <!-- ■ -->
   <g style="fill: #8fc73e" transform="translate(776.88 106.99125) scale(0.12 -0.12)">
    <use xlink:href="#DejaVuSans-25a0"/>
   </g>
  </g>
  <g id="text_27">
   <!-- Nein -->
   <g transform="translate(795.6 106.439375) scale(0.1 -0.1)">
    <defs>
     <path id="DejaVuSans-4e" d="M 628 4666 
L 1478 4666 
L 3547 763 
L 3547 4666 
L 4159 4666 
L 4159 0 
L 3309 0 
L 1241 3903 
L 1241 0 
L 628 0 
L 628 4666 
z
" transform="scale(0.015625)"/>
    </defs>
    <use xlink:href="#DejaVuSans-4e"/>
    <use xlink:href="#DejaVuSans-65" transform="translate(74.804688 0)"/>
    <use xlink:href="#DejaVuSans-69" transform="translate(136.328125 0)"/>
    <use xlink:href="#DejaVuSans-6e" transform="translate(164.111328 0)"/>
   </g>
  </g>
  <g id="text_28">
   <!-- ■ -->
   <g style="fill: #dc912f" transform="translate(776.88 132.91125) scale(0.12 -0.12)">
    <use xlink:href="#DejaVuSans-25a0"/>
   </g>
  </g>
  <g id="text_29">
   <!-- Keine Antwort -->
   <g transform="translate(795.6 132.359375) scale(0.1 -0.1)">
    <use xlink:href="#DejaVuSans-4b"/>
    <use xlink:href="#DejaVuSans-65" transform="translate(60.576172 0)"/>
    <use xlink:href="#DejaVuSans-69" transform="translate(122.099609 0)"/>
    <use xlink:href="#DejaVuSans-6e" transform="translate(149.882812 0)"/>
    <use xlink:href="#DejaVuSans-65" transform="translate(213.261719 0)"/>
    <use xlink:href="#DejaVuSans-20" transform="translate(274.785156 0)"/>
    <use xlink:href="#DejaVuSans-41" transform="translate(306.572266 0)"/>
    <use xlink:href="#DejaVuSans-6e" transform="translate(374.980469 0)"/>
    <use xlink:href="#DejaVuSans-74" transform="translate(438.359375 0)"/>
    <use xlink:href="#DejaVuSans-77" transform="translate(477.568359 0)"/>
    <use xlink:href="#DejaVuSans-6f" transform="translate(559.355469 0)"/>
    <use xlink:href="#DejaVuSans-72" transform="translate(620.537109 0)"/>
    <use xlink:href="#DejaVuSans-74" transform="translate(661.650391 0)"/>
   </g>
  </g>
  <g id="text_30">
   <!-- Abbildung 13: Welche der nachfolgend aufgeführten Punkte sind für -->
   <g transform="translate(263.421563 607.058813) scale(0.12 -0.12)">
    <defs>
     <path id="DejaVuSans-3a" d="M 750 794 
L 1409 794 
L 1409 0 
L 750 0 
L 750 794 
z
M 750 3309 
L 1409 3309 
L 1409 2516 
L 750 2516 
L 750 3309 
z
" transform="scale(0.015625)"/>
     <path id="DejaVuSans-57" d="M 213 4666 
L 850 4666 
L 1831 722 
L 2809 4666 
L 3519 4666 
L 4500 722 
L 5478 4666 
L 6119 4666 
L 4947 0 
L 4153 0 
L 3169 4050 
L 2175 0 
L 1381 0 
L 213 4666 
z
" transform="scale(0.015625)"/>
     <path id="DejaVuSans-50" d="M 1259 4147 
L 1259 2394 
L 2053 2394 
Q 2494 2394 2734 2622 
Q 2975 2850 2975 3272 
Q 2975 3691 2734 3919 
Q 2494 4147 2053 4147 
L 1259 4147 
z
M 628 4666 
L 2053 4666 
Q 2838 4666 3239 4311 
Q 3641 3956 3641 3272 
Q 3641 2581 3239 2228 
Q 2838 1875 2053 1875 
L 1259 1875 
L 1259 0 
L 628 0 
L 628 4666 
z
" transform="scale(0.015625)"/>
     <path id="DejaVuSans-6b" d="M 581 4863 
L 1159 4863 
L 1159 1991 
L 2875 3500 
L 3609 3500 
L 1753 1863 
L 3688 0 
L 2938 0 
L 1159 1709 
L 1159 0 
L 581 0 
L 581 4863 
z
" transform="scale(0.015625)"/>
    </defs>
    <use xlink:href="#DejaVuSans-41"/>
    <use xlink:href="#DejaVuSans-62" transform="translate(68.408203 0)"/>
    <use xlink:href="#DejaVuSans-62" transform="translate(131.884766 0)"/>
    <use xlink:href="#DejaVuSans-69" transform="translate(195.361328 0)"/>
    <use xlink:href="#DejaVuSans-6c" transform="translate(223.144531 0)"/>
    <use xlink:href="#DejaVuSans-64" transform="translate(250.927734 0)"/>
    <use xlink:href="#DejaVuSans-75" transform="translate(314.404297 0)"/>
    <use xlink:href="#DejaVuSans-6e" transform="translate(377.783203 0)"/>
    <use xlink:href="#DejaVuSans-67" transform="translate(441.162109 0)"/>
    <use xlink:href="#DejaVuSans-20" transform="translate(504.638672 0)"/>
    <use xlink:href="#DejaVuSans-31" transform="translate(536.425781 0)"/>
    <use xlink:href="#DejaVuSans-33" transform="translate(600.048828 0)"/>
    <use xlink:href="#DejaVuSans-3a" transform="translate(663.671875 0)"/>
    <use xlink:href="#DejaVuSans-20" transform="translate(697.363281 0)"/>
    <use xlink:href="#DejaVuSans-57" transform="translate(729.150391 0)"/>
    <use xlink:href="#DejaVuSans-65" transform="translate(822.152344 0)"/>
    <use xlink:href="#DejaVuSans-6c" transform="translate(883.675781 0)"/>
    <use xlink:href="#DejaVuSans-63" transform="translate(911.458984 0)"/>
    <use xlink:href="#DejaVuSans-68" transform="translate(966.439453 0)"/>
    <use xlink:href="#DejaVuSans-65" transform="translate(1029.818359 0)"/>
    <use xlink:href="#DejaVuSans-20" transform="translate(1091.341797 0)"/>
    <use xlink:href="#DejaVuSans-64" transform="translate(1123.128906 0)"/>
    <use xlink:href="#DejaVuSans-65" transform="translate(1186.605469 0)"/>
    <use xlink:href="#DejaVuSans-72" transform="translate(1248.128906 0)"/>
    <use xlink:href="#DejaVuSans-20" transform="translate(1289.242188 0)"/>
    <use xlink:href="#DejaVuSans-6e" transform="translate(1321.029297 0)"/>
    <use xlink:href="#DejaVuSans-61" transform="translate(1384.408203 0)"/>
    <use xlink:href="#DejaVuSans-63" transform="translate(1445.6875 0)"/>
    <use xlink:href="#DejaVuSans-68" transform="translate(1500.667969 0)"/>
    <use xlink:href="#DejaVuSans-66" transform="translate(1564.046875 0)"/>
    <use xlink:href="#DejaVuSans-6f" transform="translate(1599.251953 0)"/>
    <use xlink:href="#DejaVuSans-6c" transform="translate(1660.433594 0)"/>
    <use xlink:href="#DejaVuSans-67" transform="translate(1688.216797 0)"/>
    <use xlink:href="#DejaVuSans-65" transform="translate(1751.693359 0)"/>
    <use xlink:href="#DejaVuSans-6e" transform="translate(1813.216797 0)"/>
    <use xlink:href="#DejaVuSans-64" transform="translate(1876.595703 0)"/>
    <use xlink:href="#DejaVuSans-20" transform="translate(1940.072266 0)"/>
    <use xlink:href="#DejaVuSans-61" transform="translate(1971.859375 0)"/>
    <use xlink:href="#DejaVuSans-75" transform="translate(2033.138672 0)"/>
    <use xlink:href="#DejaVuSans-66" transform="translate(2096.517578 0)"/>
    <use xlink:href="#DejaVuSans-67" transform="translate(2131.722656 0)"/>
    <use xlink:href="#DejaVuSans-65" transform="translate(2195.199219 0)"/>
    <use xlink:href="#DejaVuSans-66" transform="translate(2256.722656 0)"/>
    <use xlink:href="#DejaVuSans-fc" transform="translate(2291.927734 0)"/>
    <use xlink:href="#DejaVuSans-68" transform="translate(2355.306641 0)"/>
    <use xlink:href="#DejaVuSans-72" transform="translate(2418.685547 0)"/>
    <use xlink:href="#DejaVuSans-74" transform="translate(2459.798828 0)"/>
    <use xlink:href="#DejaVuSans-65" transform="translate(2499.007812 0)"/>
    <use xlink:href="#DejaVuSans-6e" transform="translate(2560.53125 0)"/>
    <use xlink:href="#DejaVuSans-20" transform="translate(2623.910156 0)"/>
    <use xlink:href="#DejaVuSans-50" transform="translate(2655.697266 0)"/>
    <use xlink:href="#DejaVuSans-75" transform="translate(2714.25 0)"/>
    <use xlink:href="#DejaVuSans-6e" transform="translate(2777.628906 0)"/>
    <use xlink:href="#DejaVuSans-6b" transform="translate(2841.007812 0)"/>
    <use xlink:href="#DejaVuSans-74" transform="translate(2898.917969 0)"/>
    <use xlink:href="#DejaVuSans-65" transform="translate(2938.126953 0)"/>
    <use xlink:href="#DejaVuSans-20" transform="translate(2999.650391 0)"/>
    <use xlink:href="#DejaVuSans-73" transform="translate(3031.4375 0)"/>
    <use xlink:href="#DejaVuSans-69" transform="translate(3083.537109 0)"/>
    <use xlink:href="#DejaVuSans-6e" transform="translate(3111.320312 0)"/>
    <use xlink:href="#DejaVuSans-64" transform="translate(3174.699219 0)"/>
    <use xlink:href="#DejaVuSans-20" transform="translate(3238.175781 0)"/>
    <use xlink:href="#DejaVuSans-66" transform="translate(3269.962891 0)"/>
    <use xlink:href="#DejaVuSans-fc" transform="translate(3305.167969 0)"/>
    <use xlink:href="#DejaVuSans-72" transform="translate(3368.546875 0)"/>
   </g>
   <!-- Ihr Unternehmen zutreffend? -->
   <g transform="translate(380.8725 619.584375) scale(0.12 -0.12)">
    <defs>
     <path id="DejaVuSans-49" d="M 628 4666 
L 1259 4666 
L 1259 0 
L 628 0 
L 628 4666 
z
" transform="scale(0.015625)"/>
     <path id="DejaVuSans-3f" d="M 1222 794 
L 1856 794 
L 1856 0 
L 1222 0 
L 1222 794 
z
M 1838 1253 
L 1241 1253 
L 1241 1734 
Q 1241 2050 1328 2253 
Q 1416 2456 1697 2725 
L 1978 3003 
Q 2156 3169 2236 3316 
Q 2316 3463 2316 3616 
Q 2316 3894 2111 4066 
Q 1906 4238 1569 4238 
Q 1322 4238 1042 4128 
Q 763 4019 459 3809 
L 459 4397 
Q 753 4575 1054 4662 
Q 1356 4750 1678 4750 
Q 2253 4750 2601 4447 
Q 2950 4144 2950 3647 
Q 2950 3409 2837 3195 
Q 2725 2981 2444 2713 
L 2169 2444 
Q 2022 2297 1961 2214 
Q 1900 2131 1875 2053 
Q 1856 1988 1847 1894 
Q 1838 1800 1838 1638 
L 1838 1253 
z
" transform="scale(0.015625)"/>
    </defs>
    <use xlink:href="#DejaVuSans-49"/>
    <use xlink:href="#DejaVuSans-68" transform="translate(29.492188 0)"/>
    <use xlink:href="#DejaVuSans-72" transform="translate(92.871094 0)"/>
    <use xlink:href="#DejaVuSans-20" transform="translate(133.984375 0)"/>
    <use xlink:href="#DejaVuSans-55" transform="translate(165.771484 0)"/>
    <use xlink:href="#DejaVuSans-6e" transform="translate(238.964844 0)"/>
    <use xlink:href="#DejaVuSans-74" transform="translate(302.34375 0)"/>
    <use xlink:href="#DejaVuSans-65" transform="translate(341.552734 0)"/>
    <use xlink:href="#DejaVuSans-72" transform="translate(403.076172 0)"/>
    <use xlink:href="#DejaVuSans-6e" transform="translate(442.439453 0)"/>
    <use xlink:href="#DejaVuSans-65" transform="translate(505.818359 0)"/>
    <use xlink:href="#DejaVuSans-68" transform="translate(567.341797 0)"/>
    <use xlink:href="#DejaVuSans-6d" transform="translate(630.720703 0)"/>
    <use xlink:href="#DejaVuSans-65" transform="translate(728.132812 0)"/>
    <use xlink:href="#DejaVuSans-6e" transform="translate(789.65625 0)"/>
    <use xlink:href="#DejaVuSans-20" transform="translate(853.035156 0)"/>
    <use xlink:href="#DejaVuSans-7a" transform="translate(884.822266 0)"/>
    <use xlink:href="#DejaVuSans-75" transform="translate(937.3125 0)"/>
    <use xlink:href="#DejaVuSans-74" transform="translate(1000.691406 0)"/>
    <use xlink:href="#DejaVuSans-72" transform="translate(1039.900391 0)"/>
    <use xlink:href="#DejaVuSans-65" transform="translate(1078.763672 0)"/>
    <use xlink:href="#DejaVuSans-66" transform="translate(1140.287109 0)"/>
    <use xlink:href="#DejaVuSans-66" transform="translate(1175.492188 0)"/>
    <use xlink:href="#DejaVuSans-65" transform="translate(1210.697266 0)"/>
    <use xlink:href="#DejaVuSans-6e" transform="translate(1272.220703 0)"/>
    <use xlink:href="#DejaVuSans-64" transform="translate(1335.599609 0)"/>
    <use xlink:href="#DejaVuSans-3f" transform="translate(1399.076172 0)"/>
   </g>
  </g>
 </g>
 <defs>
  <clipPath id="p3a8d6ee07d">
   <rect x="234" y="51.84" width="468" height="427.68"/>
  </clipPath>
 </defs>
</svg>
