<?xml version="1.0" encoding="utf-8" standalone="no"?>
<!DOCTYPE svg PUBLIC "-//W3C//DTD SVG 1.1//EN"
  "http://www.w3.org/Graphics/SVG/1.1/DTD/svg11.dtd">
<svg xmlns:xlink="http://www.w3.org/1999/xlink" width="936pt" height="648pt" viewBox="0 0 936 648" xmlns="http://www.w3.org/2000/svg" version="1.1">
 <metadata>
  <rdf:RDF xmlns:dc="http://purl.org/dc/elements/1.1/" xmlns:cc="http://creativecommons.org/ns#" xmlns:rdf="http://www.w3.org/1999/02/22-rdf-syntax-ns#">
   <cc:Work>
    <dc:type rdf:resource="http://purl.org/dc/dcmitype/StillImage"/>
    <dc:date>2026-02-23T14:10:26.300703</dc:date>
    <dc:format>image/svg+xml</dc:format>
    <dc:creator>
     <cc:Agent>
      <dc:title>Matplotlib v3.10.8, https://matplotlib.org/</dc:title>
     </cc:Agent>
    </dc:creator>
   </cc:Work>
  </rdf:RDF>
 </metadata>
 <defs>
  <style type="text/css">*{stroke-linejoin: round; stroke-linecap: butt}</style>
 </defs>
 <g id="figure_1">
  <g id="patch_1">
   <path d="M 0 648 
L 936 648 
L 936 0 
L 0 0 
z
" style="fill: #ffffff"/>
  </g>
  <g id="axes_1">
   <g id="patch_2">
    <path d="M 596.976461 153.293598 
C 580.919139 134.865953 561.097414 120.091822 538.85006 109.969052 
C 516.602702 99.846282 492.442078 94.608 467.999993 94.608 
L 467.999995 154.4832 
C 483.887351 154.4832 499.591756 157.888083 514.052539 164.467884 
C 528.513319 171.047684 541.39744 180.65087 551.8347 192.628838 
z
" style="fill: #003b6a; stroke: #ffffff; stroke-linejoin: miter"/>
   </g>
   <g id="patch_3">
    <path d="M 628.655718 206.89761 
C 625.067382 197.090489 620.58858 187.632502 615.275413 178.642171 
C 609.962246 169.651845 603.837016 161.166877 596.976461 153.293598 
L 551.8347 192.628838 
C 556.29406 197.74647 560.27546 203.261699 563.729019 209.105411 
C 567.182577 214.949126 570.093798 221.096818 572.426217 227.471447 
z
" style="fill: #8fc73e; stroke: #ffffff; stroke-linejoin: miter"/>
   </g>
   <g id="patch_4">
    <path d="M 543.565727 419.157853 
C 581.428259 400.516007 611.085004 368.50704 626.788359 329.334417 
C 642.491724 290.161796 643.157159 246.530902 628.655718 206.89761 
L 572.426217 227.471447 
C 581.852154 253.233086 581.41962 281.593168 571.212433 307.055371 
C 561.005252 332.517576 541.728368 353.323405 517.117722 365.440605 
z
" style="fill: #dc912f; stroke: #ffffff; stroke-linejoin: miter"/>
   </g>
   <g id="patch_5">
    <path d="M 313.387633 338.896436 
C 323.096275 359.398341 336.786529 377.765855 353.659811 392.927593 
C 370.533092 408.08933 390.254808 419.744591 411.674461 427.213469 
C 433.094116 434.682348 455.786969 437.816738 478.429258 436.433802 
C 501.071548 435.050867 523.214263 429.178014 543.565727 419.157853 
L 517.117722 365.440605 
C 503.889271 371.953709 489.496506 375.771063 474.779018 376.669971 
C 460.06153 377.56888 445.311176 375.531526 431.3884 370.676755 
C 417.465625 365.821984 404.64651 358.246065 393.678877 348.390935 
C 382.711244 338.535806 373.812579 326.596921 367.501961 313.270683 
z
" style="fill: #93bbdc; stroke: #ffffff; stroke-linejoin: miter"/>
   </g>
   <g id="patch_6">
    <path d="M 361.629968 131.698496 
C 331.383692 155.711487 310.142171 189.273215 301.384574 226.886581 
C 292.626977 264.49995 296.85905 303.992754 313.387633 338.896436 
L 367.501961 313.270683 
C 356.758383 290.58329 354.007535 264.912968 359.699973 240.464278 
C 365.392411 216.01559 379.1994 194.200466 398.859479 178.592022 
z
" style="fill: #f9c803; stroke: #ffffff; stroke-linejoin: miter"/>
   </g>
   <g id="patch_7">
    <path d="M 468.000002 94.608 
C 448.823125 94.608 429.781991 97.832559 411.674369 104.146561 
C 393.566748 110.460563 376.649065 119.774593 361.629968 131.698496 
L 398.859479 178.592022 
C 408.621892 170.841486 419.618386 164.787366 431.38834 160.683265 
C 443.158294 156.579163 455.535031 154.4832 468.000001 154.4832 
z
" style="fill: #6283aa; stroke: #ffffff; stroke-linejoin: miter"/>
   </g>
   <g id="matplotlib.axis_1"/>
   <g id="matplotlib.axis_2"/>
   <g id="line2d_1">
    <path d="M 530.348064 128.654377 
L 545.935085 94.397969 
" clip-path="url(#pb666be3ae3)" style="fill: none; stroke: #000000; stroke-opacity: 0.35; stroke-linecap: square"/>
   </g>
   <g id="line2d_2">
    <path d="M 597.602364 189.086713 
L 630.002955 169.938382 
" clip-path="url(#pb666be3ae3)" style="fill: none; stroke: #000000; stroke-opacity: 0.35; stroke-linecap: square"/>
   </g>
   <g id="line2d_3">
    <path d="M 607.733761 321.695881 
L 642.667209 335.699856 
" clip-path="url(#pb666be3ae3)" style="fill: none; stroke: #000000; stroke-opacity: 0.35; stroke-linecap: square"/>
   </g>
   <g id="line2d_4">
    <path d="M 418.433508 407.829447 
L 406.041883 443.366814 
" clip-path="url(#pb666be3ae3)" style="fill: none; stroke: #000000; stroke-opacity: 0.35; stroke-linecap: square"/>
   </g>
   <g id="line2d_5">
    <path d="M 321.378429 231.541792 
L 284.723036 223.00724 
" clip-path="url(#pb666be3ae3)" style="fill: none; stroke: #000000; stroke-opacity: 0.35; stroke-linecap: square"/>
   </g>
   <g id="line2d_6">
    <path d="M 418.433513 123.530553 
L 406.041888 87.993186 
" clip-path="url(#pb666be3ae3)" style="fill: none; stroke: #000000; stroke-opacity: 0.35; stroke-linecap: square"/>
   </g>
   <g id="text_1">
    <!-- 14% -->
    <g transform="translate(556.56259 68.769713) scale(0.08 -0.08)">
     <defs>
      <path id="DejaVuSans-31" d="M 794 531 
L 1825 531 
L 1825 4091 
L 703 3866 
L 703 4441 
L 1819 4666 
L 2450 4666 
L 2450 531 
L 3481 531 
L 3481 0 
L 794 0 
L 794 531 
z
" transform="scale(0.015625)"/>
      <path id="DejaVuSans-34" d="M 2419 4116 
L 825 1625 
L 2419 1625 
L 2419 4116 
z
M 2253 4666 
L 3047 4666 
L 3047 1625 
L 3713 1625 
L 3713 1100 
L 3047 1100 
L 3047 0 
L 2419 0 
L 2419 1100 
L 313 1100 
L 313 1709 
L 2253 4666 
z
" transform="scale(0.015625)"/>
      <path id="DejaVuSans-25" d="M 4653 2053 
Q 4381 2053 4226 1822 
Q 4072 1591 4072 1178 
Q 4072 772 4226 539 
Q 4381 306 4653 306 
Q 4919 306 5073 539 
Q 5228 772 5228 1178 
Q 5228 1588 5073 1820 
Q 4919 2053 4653 2053 
z
M 4653 2450 
Q 5147 2450 5437 2106 
Q 5728 1763 5728 1178 
Q 5728 594 5436 251 
Q 5144 -91 4653 -91 
Q 4153 -91 3862 251 
Q 3572 594 3572 1178 
Q 3572 1766 3864 2108 
Q 4156 2450 4653 2450 
z
M 1428 4353 
Q 1159 4353 1004 4120 
Q 850 3888 850 3481 
Q 850 3069 1003 2837 
Q 1156 2606 1428 2606 
Q 1700 2606 1854 2837 
Q 2009 3069 2009 3481 
Q 2009 3884 1853 4118 
Q 1697 4353 1428 4353 
z
M 4250 4750 
L 4750 4750 
L 1831 -91 
L 1331 -91 
L 4250 4750 
z
M 1428 4750 
Q 1922 4750 2215 4408 
Q 2509 4066 2509 3481 
Q 2509 2891 2217 2550 
Q 1925 2209 1428 2209 
Q 931 2209 642 2551 
Q 353 2894 353 3481 
Q 353 4063 643 4406 
Q 934 4750 1428 4750 
z
" transform="scale(0.015625)"/>
     </defs>
     <use xlink:href="#DejaVuSans-31"/>
     <use xlink:href="#DejaVuSans-34" transform="translate(63.623047 0)"/>
     <use xlink:href="#DejaVuSans-25" transform="translate(127.246094 0)"/>
    </g>
    <!-- Keine Erfassung -->
    <g transform="translate(556.56259 77.727963) scale(0.08 -0.08)">
     <defs>
      <path id="DejaVuSans-4b" d="M 628 4666 
L 1259 4666 
L 1259 2694 
L 3353 4666 
L 4166 4666 
L 1850 2491 
L 4331 0 
L 3500 0 
L 1259 2247 
L 1259 0 
L 628 0 
L 628 4666 
z
" transform="scale(0.015625)"/>
      <path id="DejaVuSans-65" d="M 3597 1894 
L 3597 1613 
L 953 1613 
Q 991 1019 1311 708 
Q 1631 397 2203 397 
Q 2534 397 2845 478 
Q 3156 559 3463 722 
L 3463 178 
Q 3153 47 2828 -22 
Q 2503 -91 2169 -91 
Q 1331 -91 842 396 
Q 353 884 353 1716 
Q 353 2575 817 3079 
Q 1281 3584 2069 3584 
Q 2775 3584 3186 3129 
Q 3597 2675 3597 1894 
z
M 3022 2063 
Q 3016 2534 2758 2815 
Q 2500 3097 2075 3097 
Q 1594 3097 1305 2825 
Q 1016 2553 972 2059 
L 3022 2063 
z
" transform="scale(0.015625)"/>
      <path id="DejaVuSans-69" d="M 603 3500 
L 1178 3500 
L 1178 0 
L 603 0 
L 603 3500 
z
M 603 4863 
L 1178 4863 
L 1178 4134 
L 603 4134 
L 603 4863 
z
" transform="scale(0.015625)"/>
      <path id="DejaVuSans-6e" d="M 3513 2113 
L 3513 0 
L 2938 0 
L 2938 2094 
Q 2938 2591 2744 2837 
Q 2550 3084 2163 3084 
Q 1697 3084 1428 2787 
Q 1159 2491 1159 1978 
L 1159 0 
L 581 0 
L 581 3500 
L 1159 3500 
L 1159 2956 
Q 1366 3272 1645 3428 
Q 1925 3584 2291 3584 
Q 2894 3584 3203 3211 
Q 3513 2838 3513 2113 
z
" transform="scale(0.015625)"/>
      <path id="DejaVuSans-20" transform="scale(0.015625)"/>
      <path id="DejaVuSans-45" d="M 628 4666 
L 3578 4666 
L 3578 4134 
L 1259 4134 
L 1259 2753 
L 3481 2753 
L 3481 2222 
L 1259 2222 
L 1259 531 
L 3634 531 
L 3634 0 
L 628 0 
L 628 4666 
z
" transform="scale(0.015625)"/>
      <path id="DejaVuSans-72" d="M 2631 2963 
Q 2534 3019 2420 3045 
Q 2306 3072 2169 3072 
Q 1681 3072 1420 2755 
Q 1159 2438 1159 1844 
L 1159 0 
L 581 0 
L 581 3500 
L 1159 3500 
L 1159 2956 
Q 1341 3275 1631 3429 
Q 1922 3584 2338 3584 
Q 2397 3584 2469 3576 
Q 2541 3569 2628 3553 
L 2631 2963 
z
" transform="scale(0.015625)"/>
      <path id="DejaVuSans-66" d="M 2375 4863 
L 2375 4384 
L 1825 4384 
Q 1516 4384 1395 4259 
Q 1275 4134 1275 3809 
L 1275 3500 
L 2222 3500 
L 2222 3053 
L 1275 3053 
L 1275 0 
L 697 0 
L 697 3053 
L 147 3053 
L 147 3500 
L 697 3500 
L 697 3744 
Q 697 4328 969 4595 
Q 1241 4863 1831 4863 
L 2375 4863 
z
" transform="scale(0.015625)"/>
      <path id="DejaVuSans-61" d="M 2194 1759 
Q 1497 1759 1228 1600 
Q 959 1441 959 1056 
Q 959 750 1161 570 
Q 1363 391 1709 391 
Q 2188 391 2477 730 
Q 2766 1069 2766 1631 
L 2766 1759 
L 2194 1759 
z
M 3341 1997 
L 3341 0 
L 2766 0 
L 2766 531 
Q 2569 213 2275 61 
Q 1981 -91 1556 -91 
Q 1019 -91 701 211 
Q 384 513 384 1019 
Q 384 1609 779 1909 
Q 1175 2209 1959 2209 
L 2766 2209 
L 2766 2266 
Q 2766 2663 2505 2880 
Q 2244 3097 1772 3097 
Q 1472 3097 1187 3025 
Q 903 2953 641 2809 
L 641 3341 
Q 956 3463 1253 3523 
Q 1550 3584 1831 3584 
Q 2591 3584 2966 3190 
Q 3341 2797 3341 1997 
z
" transform="scale(0.015625)"/>
      <path id="DejaVuSans-73" d="M 2834 3397 
L 2834 2853 
Q 2591 2978 2328 3040 
Q 2066 3103 1784 3103 
Q 1356 3103 1142 2972 
Q 928 2841 928 2578 
Q 928 2378 1081 2264 
Q 1234 2150 1697 2047 
L 1894 2003 
Q 2506 1872 2764 1633 
Q 3022 1394 3022 966 
Q 3022 478 2636 193 
Q 2250 -91 1575 -91 
Q 1294 -91 989 -36 
Q 684 19 347 128 
L 347 722 
Q 666 556 975 473 
Q 1284 391 1588 391 
Q 1994 391 2212 530 
Q 2431 669 2431 922 
Q 2431 1156 2273 1281 
Q 2116 1406 1581 1522 
L 1381 1569 
Q 847 1681 609 1914 
Q 372 2147 372 2553 
Q 372 3047 722 3315 
Q 1072 3584 1716 3584 
Q 2034 3584 2315 3537 
Q 2597 3491 2834 3397 
z
" transform="scale(0.015625)"/>
      <path id="DejaVuSans-75" d="M 544 1381 
L 544 3500 
L 1119 3500 
L 1119 1403 
Q 1119 906 1312 657 
Q 1506 409 1894 409 
Q 2359 409 2629 706 
Q 2900 1003 2900 1516 
L 2900 3500 
L 3475 3500 
L 3475 0 
L 2900 0 
L 2900 538 
Q 2691 219 2414 64 
Q 2138 -91 1772 -91 
Q 1169 -91 856 284 
Q 544 659 544 1381 
z
M 1991 3584 
L 1991 3584 
z
" transform="scale(0.015625)"/>
      <path id="DejaVuSans-67" d="M 2906 1791 
Q 2906 2416 2648 2759 
Q 2391 3103 1925 3103 
Q 1463 3103 1205 2759 
Q 947 2416 947 1791 
Q 947 1169 1205 825 
Q 1463 481 1925 481 
Q 2391 481 2648 825 
Q 2906 1169 2906 1791 
z
M 3481 434 
Q 3481 -459 3084 -895 
Q 2688 -1331 1869 -1331 
Q 1566 -1331 1297 -1286 
Q 1028 -1241 775 -1147 
L 775 -588 
Q 1028 -725 1275 -790 
Q 1522 -856 1778 -856 
Q 2344 -856 2625 -561 
Q 2906 -266 2906 331 
L 2906 616 
Q 2728 306 2450 153 
Q 2172 0 1784 0 
Q 1141 0 747 490 
Q 353 981 353 1791 
Q 353 2603 747 3093 
Q 1141 3584 1784 3584 
Q 2172 3584 2450 3431 
Q 2728 3278 2906 2969 
L 2906 3500 
L 3481 3500 
L 3481 434 
z
" transform="scale(0.015625)"/>
     </defs>
     <use xlink:href="#DejaVuSans-4b"/>
     <use xlink:href="#DejaVuSans-65" transform="translate(60.576172 0)"/>
     <use xlink:href="#DejaVuSans-69" transform="translate(122.099609 0)"/>
     <use xlink:href="#DejaVuSans-6e" transform="translate(149.882812 0)"/>
     <use xlink:href="#DejaVuSans-65" transform="translate(213.261719 0)"/>
     <use xlink:href="#DejaVuSans-20" transform="translate(274.785156 0)"/>
     <use xlink:href="#DejaVuSans-45" transform="translate(306.572266 0)"/>
     <use xlink:href="#DejaVuSans-72" transform="translate(369.755859 0)"/>
     <use xlink:href="#DejaVuSans-66" transform="translate(410.869141 0)"/>
     <use xlink:href="#DejaVuSans-61" transform="translate(446.074219 0)"/>
     <use xlink:href="#DejaVuSans-73" transform="translate(507.353516 0)"/>
     <use xlink:href="#DejaVuSans-73" transform="translate(559.453125 0)"/>
     <use xlink:href="#DejaVuSans-75" transform="translate(611.552734 0)"/>
     <use xlink:href="#DejaVuSans-6e" transform="translate(674.931641 0)"/>
     <use xlink:href="#DejaVuSans-67" transform="translate(738.310547 0)"/>
    </g>
   </g>
   <g id="text_2">
    <!-- 6% -->
    <g transform="translate(652.094269 150.131959) scale(0.08 -0.08)">
     <defs>
      <path id="DejaVuSans-36" d="M 2113 2584 
Q 1688 2584 1439 2293 
Q 1191 2003 1191 1497 
Q 1191 994 1439 701 
Q 1688 409 2113 409 
Q 2538 409 2786 701 
Q 3034 994 3034 1497 
Q 3034 2003 2786 2293 
Q 2538 2584 2113 2584 
z
M 3366 4563 
L 3366 3988 
Q 3128 4100 2886 4159 
Q 2644 4219 2406 4219 
Q 1781 4219 1451 3797 
Q 1122 3375 1075 2522 
Q 1259 2794 1537 2939 
Q 1816 3084 2150 3084 
Q 2853 3084 3261 2657 
Q 3669 2231 3669 1497 
Q 3669 778 3244 343 
Q 2819 -91 2113 -91 
Q 1303 -91 875 529 
Q 447 1150 447 2328 
Q 447 3434 972 4092 
Q 1497 4750 2381 4750 
Q 2619 4750 2861 4703 
Q 3103 4656 3366 4563 
z
" transform="scale(0.015625)"/>
     </defs>
     <use xlink:href="#DejaVuSans-36"/>
     <use xlink:href="#DejaVuSans-25" transform="translate(63.623047 0)"/>
    </g>
    <!-- Manuelle Erfassung, keine -->
    <g transform="translate(652.094269 159.090209) scale(0.08 -0.08)">
     <defs>
      <path id="DejaVuSans-4d" d="M 628 4666 
L 1569 4666 
L 2759 1491 
L 3956 4666 
L 4897 4666 
L 4897 0 
L 4281 0 
L 4281 4097 
L 3078 897 
L 2444 897 
L 1241 4097 
L 1241 0 
L 628 0 
L 628 4666 
z
" transform="scale(0.015625)"/>
      <path id="DejaVuSans-6c" d="M 603 4863 
L 1178 4863 
L 1178 0 
L 603 0 
L 603 4863 
z
" transform="scale(0.015625)"/>
      <path id="DejaVuSans-2c" d="M 750 794 
L 1409 794 
L 1409 256 
L 897 -744 
L 494 -744 
L 750 256 
L 750 794 
z
" transform="scale(0.015625)"/>
      <path id="DejaVuSans-6b" d="M 581 4863 
L 1159 4863 
L 1159 1991 
L 2875 3500 
L 3609 3500 
L 1753 1863 
L 3688 0 
L 2938 0 
L 1159 1709 
L 1159 0 
L 581 0 
L 581 4863 
z
" transform="scale(0.015625)"/>
     </defs>
     <use xlink:href="#DejaVuSans-4d"/>
     <use xlink:href="#DejaVuSans-61" transform="translate(86.279297 0)"/>
     <use xlink:href="#DejaVuSans-6e" transform="translate(147.558594 0)"/>
     <use xlink:href="#DejaVuSans-75" transform="translate(210.9375 0)"/>
     <use xlink:href="#DejaVuSans-65" transform="translate(274.316406 0)"/>
     <use xlink:href="#DejaVuSans-6c" transform="translate(335.839844 0)"/>
     <use xlink:href="#DejaVuSans-6c" transform="translate(363.623047 0)"/>
     <use xlink:href="#DejaVuSans-65" transform="translate(391.40625 0)"/>
     <use xlink:href="#DejaVuSans-20" transform="translate(452.929688 0)"/>
     <use xlink:href="#DejaVuSans-45" transform="translate(484.716797 0)"/>
     <use xlink:href="#DejaVuSans-72" transform="translate(547.900391 0)"/>
     <use xlink:href="#DejaVuSans-66" transform="translate(589.013672 0)"/>
     <use xlink:href="#DejaVuSans-61" transform="translate(624.21875 0)"/>
     <use xlink:href="#DejaVuSans-73" transform="translate(685.498047 0)"/>
     <use xlink:href="#DejaVuSans-73" transform="translate(737.597656 0)"/>
     <use xlink:href="#DejaVuSans-75" transform="translate(789.697266 0)"/>
     <use xlink:href="#DejaVuSans-6e" transform="translate(853.076172 0)"/>
     <use xlink:href="#DejaVuSans-67" transform="translate(916.455078 0)"/>
     <use xlink:href="#DejaVuSans-2c" transform="translate(979.931641 0)"/>
     <use xlink:href="#DejaVuSans-20" transform="translate(1011.71875 0)"/>
     <use xlink:href="#DejaVuSans-6b" transform="translate(1043.505859 0)"/>
     <use xlink:href="#DejaVuSans-65" transform="translate(1097.791016 0)"/>
     <use xlink:href="#DejaVuSans-69" transform="translate(1159.314453 0)"/>
     <use xlink:href="#DejaVuSans-6e" transform="translate(1187.097656 0)"/>
     <use xlink:href="#DejaVuSans-65" transform="translate(1250.476562 0)"/>
    </g>
    <!-- Nutzung -->
    <g transform="translate(652.094269 168.048459) scale(0.08 -0.08)">
     <defs>
      <path id="DejaVuSans-4e" d="M 628 4666 
L 1478 4666 
L 3547 763 
L 3547 4666 
L 4159 4666 
L 4159 0 
L 3309 0 
L 1241 3903 
L 1241 0 
L 628 0 
L 628 4666 
z
" transform="scale(0.015625)"/>
      <path id="DejaVuSans-74" d="M 1172 4494 
L 1172 3500 
L 2356 3500 
L 2356 3053 
L 1172 3053 
L 1172 1153 
Q 1172 725 1289 603 
Q 1406 481 1766 481 
L 2356 481 
L 2356 0 
L 1766 0 
Q 1100 0 847 248 
Q 594 497 594 1153 
L 594 3053 
L 172 3053 
L 172 3500 
L 594 3500 
L 594 4494 
L 1172 4494 
z
" transform="scale(0.015625)"/>
      <path id="DejaVuSans-7a" d="M 353 3500 
L 3084 3500 
L 3084 2975 
L 922 459 
L 3084 459 
L 3084 0 
L 275 0 
L 275 525 
L 2438 3041 
L 353 3041 
L 353 3500 
z
" transform="scale(0.015625)"/>
     </defs>
     <use xlink:href="#DejaVuSans-4e"/>
     <use xlink:href="#DejaVuSans-75" transform="translate(74.804688 0)"/>
     <use xlink:href="#DejaVuSans-74" transform="translate(138.183594 0)"/>
     <use xlink:href="#DejaVuSans-7a" transform="translate(177.392578 0)"/>
     <use xlink:href="#DejaVuSans-75" transform="translate(229.882812 0)"/>
     <use xlink:href="#DejaVuSans-6e" transform="translate(293.261719 0)"/>
     <use xlink:href="#DejaVuSans-67" transform="translate(356.640625 0)"/>
    </g>
   </g>
   <g id="text_3">
    <!-- 23% -->
    <g transform="translate(666.485463 338.497262) scale(0.08 -0.08)">
     <defs>
      <path id="DejaVuSans-32" d="M 1228 531 
L 3431 531 
L 3431 0 
L 469 0 
L 469 531 
Q 828 903 1448 1529 
Q 2069 2156 2228 2338 
Q 2531 2678 2651 2914 
Q 2772 3150 2772 3378 
Q 2772 3750 2511 3984 
Q 2250 4219 1831 4219 
Q 1534 4219 1204 4116 
Q 875 4013 500 3803 
L 500 4441 
Q 881 4594 1212 4672 
Q 1544 4750 1819 4750 
Q 2544 4750 2975 4387 
Q 3406 4025 3406 3419 
Q 3406 3131 3298 2873 
Q 3191 2616 2906 2266 
Q 2828 2175 2409 1742 
Q 1991 1309 1228 531 
z
" transform="scale(0.015625)"/>
      <path id="DejaVuSans-33" d="M 2597 2516 
Q 3050 2419 3304 2112 
Q 3559 1806 3559 1356 
Q 3559 666 3084 287 
Q 2609 -91 1734 -91 
Q 1441 -91 1130 -33 
Q 819 25 488 141 
L 488 750 
Q 750 597 1062 519 
Q 1375 441 1716 441 
Q 2309 441 2620 675 
Q 2931 909 2931 1356 
Q 2931 1769 2642 2001 
Q 2353 2234 1838 2234 
L 1294 2234 
L 1294 2753 
L 1863 2753 
Q 2328 2753 2575 2939 
Q 2822 3125 2822 3475 
Q 2822 3834 2567 4026 
Q 2313 4219 1838 4219 
Q 1578 4219 1281 4162 
Q 984 4106 628 3988 
L 628 4550 
Q 988 4650 1302 4700 
Q 1616 4750 1894 4750 
Q 2613 4750 3031 4423 
Q 3450 4097 3450 3541 
Q 3450 3153 3228 2886 
Q 3006 2619 2597 2516 
z
" transform="scale(0.015625)"/>
     </defs>
     <use xlink:href="#DejaVuSans-32"/>
     <use xlink:href="#DejaVuSans-33" transform="translate(63.623047 0)"/>
     <use xlink:href="#DejaVuSans-25" transform="translate(127.246094 0)"/>
    </g>
    <!-- Manuelle Erfassung, manuelle -->
    <g transform="translate(666.485463 347.455512) scale(0.08 -0.08)">
     <defs>
      <path id="DejaVuSans-6d" d="M 3328 2828 
Q 3544 3216 3844 3400 
Q 4144 3584 4550 3584 
Q 5097 3584 5394 3201 
Q 5691 2819 5691 2113 
L 5691 0 
L 5113 0 
L 5113 2094 
Q 5113 2597 4934 2840 
Q 4756 3084 4391 3084 
Q 3944 3084 3684 2787 
Q 3425 2491 3425 1978 
L 3425 0 
L 2847 0 
L 2847 2094 
Q 2847 2600 2669 2842 
Q 2491 3084 2119 3084 
Q 1678 3084 1418 2786 
Q 1159 2488 1159 1978 
L 1159 0 
L 581 0 
L 581 3500 
L 1159 3500 
L 1159 2956 
Q 1356 3278 1631 3431 
Q 1906 3584 2284 3584 
Q 2666 3584 2933 3390 
Q 3200 3197 3328 2828 
z
" transform="scale(0.015625)"/>
     </defs>
     <use xlink:href="#DejaVuSans-4d"/>
     <use xlink:href="#DejaVuSans-61" transform="translate(86.279297 0)"/>
     <use xlink:href="#DejaVuSans-6e" transform="translate(147.558594 0)"/>
     <use xlink:href="#DejaVuSans-75" transform="translate(210.9375 0)"/>
     <use xlink:href="#DejaVuSans-65" transform="translate(274.316406 0)"/>
     <use xlink:href="#DejaVuSans-6c" transform="translate(335.839844 0)"/>
     <use xlink:href="#DejaVuSans-6c" transform="translate(363.623047 0)"/>
     <use xlink:href="#DejaVuSans-65" transform="translate(391.40625 0)"/>
     <use xlink:href="#DejaVuSans-20" transform="translate(452.929688 0)"/>
     <use xlink:href="#DejaVuSans-45" transform="translate(484.716797 0)"/>
     <use xlink:href="#DejaVuSans-72" transform="translate(547.900391 0)"/>
     <use xlink:href="#DejaVuSans-66" transform="translate(589.013672 0)"/>
     <use xlink:href="#DejaVuSans-61" transform="translate(624.21875 0)"/>
     <use xlink:href="#DejaVuSans-73" transform="translate(685.498047 0)"/>
     <use xlink:href="#DejaVuSans-73" transform="translate(737.597656 0)"/>
     <use xlink:href="#DejaVuSans-75" transform="translate(789.697266 0)"/>
     <use xlink:href="#DejaVuSans-6e" transform="translate(853.076172 0)"/>
     <use xlink:href="#DejaVuSans-67" transform="translate(916.455078 0)"/>
     <use xlink:href="#DejaVuSans-2c" transform="translate(979.931641 0)"/>
     <use xlink:href="#DejaVuSans-20" transform="translate(1011.71875 0)"/>
     <use xlink:href="#DejaVuSans-6d" transform="translate(1043.505859 0)"/>
     <use xlink:href="#DejaVuSans-61" transform="translate(1140.917969 0)"/>
     <use xlink:href="#DejaVuSans-6e" transform="translate(1202.197266 0)"/>
     <use xlink:href="#DejaVuSans-75" transform="translate(1265.576172 0)"/>
     <use xlink:href="#DejaVuSans-65" transform="translate(1328.955078 0)"/>
     <use xlink:href="#DejaVuSans-6c" transform="translate(1390.478516 0)"/>
     <use xlink:href="#DejaVuSans-6c" transform="translate(1418.261719 0)"/>
     <use xlink:href="#DejaVuSans-65" transform="translate(1446.044922 0)"/>
    </g>
    <!-- Auswertung -->
    <g transform="translate(666.485463 356.413762) scale(0.08 -0.08)">
     <defs>
      <path id="DejaVuSans-41" d="M 2188 4044 
L 1331 1722 
L 3047 1722 
L 2188 4044 
z
M 1831 4666 
L 2547 4666 
L 4325 0 
L 3669 0 
L 3244 1197 
L 1141 1197 
L 716 0 
L 50 0 
L 1831 4666 
z
" transform="scale(0.015625)"/>
      <path id="DejaVuSans-77" d="M 269 3500 
L 844 3500 
L 1563 769 
L 2278 3500 
L 2956 3500 
L 3675 769 
L 4391 3500 
L 4966 3500 
L 4050 0 
L 3372 0 
L 2619 2869 
L 1863 0 
L 1184 0 
L 269 3500 
z
" transform="scale(0.015625)"/>
     </defs>
     <use xlink:href="#DejaVuSans-41"/>
     <use xlink:href="#DejaVuSans-75" transform="translate(68.408203 0)"/>
     <use xlink:href="#DejaVuSans-73" transform="translate(131.787109 0)"/>
     <use xlink:href="#DejaVuSans-77" transform="translate(183.886719 0)"/>
     <use xlink:href="#DejaVuSans-65" transform="translate(265.673828 0)"/>
     <use xlink:href="#DejaVuSans-72" transform="translate(327.197266 0)"/>
     <use xlink:href="#DejaVuSans-74" transform="translate(368.310547 0)"/>
     <use xlink:href="#DejaVuSans-75" transform="translate(407.519531 0)"/>
     <use xlink:href="#DejaVuSans-6e" transform="translate(470.898438 0)"/>
     <use xlink:href="#DejaVuSans-67" transform="translate(534.277344 0)"/>
    </g>
   </g>
   <g id="text_4">
    <!-- 25% -->
    <g transform="translate(379.811802 460.846082) scale(0.08 -0.08)">
     <defs>
      <path id="DejaVuSans-35" d="M 691 4666 
L 3169 4666 
L 3169 4134 
L 1269 4134 
L 1269 2991 
Q 1406 3038 1543 3061 
Q 1681 3084 1819 3084 
Q 2600 3084 3056 2656 
Q 3513 2228 3513 1497 
Q 3513 744 3044 326 
Q 2575 -91 1722 -91 
Q 1428 -91 1123 -41 
Q 819 9 494 109 
L 494 744 
Q 775 591 1075 516 
Q 1375 441 1709 441 
Q 2250 441 2565 725 
Q 2881 1009 2881 1497 
Q 2881 1984 2565 2268 
Q 2250 2553 1709 2553 
Q 1456 2553 1204 2497 
Q 953 2441 691 2322 
L 691 4666 
z
" transform="scale(0.015625)"/>
     </defs>
     <use xlink:href="#DejaVuSans-32"/>
     <use xlink:href="#DejaVuSans-35" transform="translate(63.623047 0)"/>
     <use xlink:href="#DejaVuSans-25" transform="translate(127.246094 0)"/>
    </g>
    <!-- Automatisierte Erfassung, -->
    <g transform="translate(293.604302 469.804332) scale(0.08 -0.08)">
     <defs>
      <path id="DejaVuSans-6f" d="M 1959 3097 
Q 1497 3097 1228 2736 
Q 959 2375 959 1747 
Q 959 1119 1226 758 
Q 1494 397 1959 397 
Q 2419 397 2687 759 
Q 2956 1122 2956 1747 
Q 2956 2369 2687 2733 
Q 2419 3097 1959 3097 
z
M 1959 3584 
Q 2709 3584 3137 3096 
Q 3566 2609 3566 1747 
Q 3566 888 3137 398 
Q 2709 -91 1959 -91 
Q 1206 -91 779 398 
Q 353 888 353 1747 
Q 353 2609 779 3096 
Q 1206 3584 1959 3584 
z
" transform="scale(0.015625)"/>
     </defs>
     <use xlink:href="#DejaVuSans-41"/>
     <use xlink:href="#DejaVuSans-75" transform="translate(68.408203 0)"/>
     <use xlink:href="#DejaVuSans-74" transform="translate(131.787109 0)"/>
     <use xlink:href="#DejaVuSans-6f" transform="translate(170.996094 0)"/>
     <use xlink:href="#DejaVuSans-6d" transform="translate(232.177734 0)"/>
     <use xlink:href="#DejaVuSans-61" transform="translate(329.589844 0)"/>
     <use xlink:href="#DejaVuSans-74" transform="translate(390.869141 0)"/>
     <use xlink:href="#DejaVuSans-69" transform="translate(430.078125 0)"/>
     <use xlink:href="#DejaVuSans-73" transform="translate(457.861328 0)"/>
     <use xlink:href="#DejaVuSans-69" transform="translate(509.960938 0)"/>
     <use xlink:href="#DejaVuSans-65" transform="translate(537.744141 0)"/>
     <use xlink:href="#DejaVuSans-72" transform="translate(599.267578 0)"/>
     <use xlink:href="#DejaVuSans-74" transform="translate(640.380859 0)"/>
     <use xlink:href="#DejaVuSans-65" transform="translate(679.589844 0)"/>
     <use xlink:href="#DejaVuSans-20" transform="translate(741.113281 0)"/>
     <use xlink:href="#DejaVuSans-45" transform="translate(772.900391 0)"/>
     <use xlink:href="#DejaVuSans-72" transform="translate(836.083984 0)"/>
     <use xlink:href="#DejaVuSans-66" transform="translate(877.197266 0)"/>
     <use xlink:href="#DejaVuSans-61" transform="translate(912.402344 0)"/>
     <use xlink:href="#DejaVuSans-73" transform="translate(973.681641 0)"/>
     <use xlink:href="#DejaVuSans-73" transform="translate(1025.78125 0)"/>
     <use xlink:href="#DejaVuSans-75" transform="translate(1077.880859 0)"/>
     <use xlink:href="#DejaVuSans-6e" transform="translate(1141.259766 0)"/>
     <use xlink:href="#DejaVuSans-67" transform="translate(1204.638672 0)"/>
     <use xlink:href="#DejaVuSans-2c" transform="translate(1268.115234 0)"/>
    </g>
    <!-- manuelle Auswertung -->
    <g transform="translate(310.106802 478.762582) scale(0.08 -0.08)">
     <use xlink:href="#DejaVuSans-6d"/>
     <use xlink:href="#DejaVuSans-61" transform="translate(97.412109 0)"/>
     <use xlink:href="#DejaVuSans-6e" transform="translate(158.691406 0)"/>
     <use xlink:href="#DejaVuSans-75" transform="translate(222.070312 0)"/>
     <use xlink:href="#DejaVuSans-65" transform="translate(285.449219 0)"/>
     <use xlink:href="#DejaVuSans-6c" transform="translate(346.972656 0)"/>
     <use xlink:href="#DejaVuSans-6c" transform="translate(374.755859 0)"/>
     <use xlink:href="#DejaVuSans-65" transform="translate(402.539062 0)"/>
     <use xlink:href="#DejaVuSans-20" transform="translate(464.0625 0)"/>
     <use xlink:href="#DejaVuSans-41" transform="translate(495.849609 0)"/>
     <use xlink:href="#DejaVuSans-75" transform="translate(564.257812 0)"/>
     <use xlink:href="#DejaVuSans-73" transform="translate(627.636719 0)"/>
     <use xlink:href="#DejaVuSans-77" transform="translate(679.736328 0)"/>
     <use xlink:href="#DejaVuSans-65" transform="translate(761.523438 0)"/>
     <use xlink:href="#DejaVuSans-72" transform="translate(823.046875 0)"/>
     <use xlink:href="#DejaVuSans-74" transform="translate(864.160156 0)"/>
     <use xlink:href="#DejaVuSans-75" transform="translate(903.369141 0)"/>
     <use xlink:href="#DejaVuSans-6e" transform="translate(966.748047 0)"/>
     <use xlink:href="#DejaVuSans-67" transform="translate(1030.126953 0)"/>
    </g>
   </g>
   <g id="text_5">
    <!-- 21% -->
    <g transform="translate(241.949465 210.437478) scale(0.08 -0.08)">
     <use xlink:href="#DejaVuSans-32"/>
     <use xlink:href="#DejaVuSans-31" transform="translate(63.623047 0)"/>
     <use xlink:href="#DejaVuSans-25" transform="translate(127.246094 0)"/>
    </g>
    <!-- Automatisierte Erfassung, -->
    <g transform="translate(155.741965 219.395728) scale(0.08 -0.08)">
     <use xlink:href="#DejaVuSans-41"/>
     <use xlink:href="#DejaVuSans-75" transform="translate(68.408203 0)"/>
     <use xlink:href="#DejaVuSans-74" transform="translate(131.787109 0)"/>
     <use xlink:href="#DejaVuSans-6f" transform="translate(170.996094 0)"/>
     <use xlink:href="#DejaVuSans-6d" transform="translate(232.177734 0)"/>
     <use xlink:href="#DejaVuSans-61" transform="translate(329.589844 0)"/>
     <use xlink:href="#DejaVuSans-74" transform="translate(390.869141 0)"/>
     <use xlink:href="#DejaVuSans-69" transform="translate(430.078125 0)"/>
     <use xlink:href="#DejaVuSans-73" transform="translate(457.861328 0)"/>
     <use xlink:href="#DejaVuSans-69" transform="translate(509.960938 0)"/>
     <use xlink:href="#DejaVuSans-65" transform="translate(537.744141 0)"/>
     <use xlink:href="#DejaVuSans-72" transform="translate(599.267578 0)"/>
     <use xlink:href="#DejaVuSans-74" transform="translate(640.380859 0)"/>
     <use xlink:href="#DejaVuSans-65" transform="translate(679.589844 0)"/>
     <use xlink:href="#DejaVuSans-20" transform="translate(741.113281 0)"/>
     <use xlink:href="#DejaVuSans-45" transform="translate(772.900391 0)"/>
     <use xlink:href="#DejaVuSans-72" transform="translate(836.083984 0)"/>
     <use xlink:href="#DejaVuSans-66" transform="translate(877.197266 0)"/>
     <use xlink:href="#DejaVuSans-61" transform="translate(912.402344 0)"/>
     <use xlink:href="#DejaVuSans-73" transform="translate(973.681641 0)"/>
     <use xlink:href="#DejaVuSans-73" transform="translate(1025.78125 0)"/>
     <use xlink:href="#DejaVuSans-75" transform="translate(1077.880859 0)"/>
     <use xlink:href="#DejaVuSans-6e" transform="translate(1141.259766 0)"/>
     <use xlink:href="#DejaVuSans-67" transform="translate(1204.638672 0)"/>
     <use xlink:href="#DejaVuSans-2c" transform="translate(1268.115234 0)"/>
    </g>
    <!-- automatisierte Auswertung -->
    <g transform="translate(150.651965 228.353978) scale(0.08 -0.08)">
     <use xlink:href="#DejaVuSans-61"/>
     <use xlink:href="#DejaVuSans-75" transform="translate(61.279297 0)"/>
     <use xlink:href="#DejaVuSans-74" transform="translate(124.658203 0)"/>
     <use xlink:href="#DejaVuSans-6f" transform="translate(163.867188 0)"/>
     <use xlink:href="#DejaVuSans-6d" transform="translate(225.048828 0)"/>
     <use xlink:href="#DejaVuSans-61" transform="translate(322.460938 0)"/>
     <use xlink:href="#DejaVuSans-74" transform="translate(383.740234 0)"/>
     <use xlink:href="#DejaVuSans-69" transform="translate(422.949219 0)"/>
     <use xlink:href="#DejaVuSans-73" transform="translate(450.732422 0)"/>
     <use xlink:href="#DejaVuSans-69" transform="translate(502.832031 0)"/>
     <use xlink:href="#DejaVuSans-65" transform="translate(530.615234 0)"/>
     <use xlink:href="#DejaVuSans-72" transform="translate(592.138672 0)"/>
     <use xlink:href="#DejaVuSans-74" transform="translate(633.251953 0)"/>
     <use xlink:href="#DejaVuSans-65" transform="translate(672.460938 0)"/>
     <use xlink:href="#DejaVuSans-20" transform="translate(733.984375 0)"/>
     <use xlink:href="#DejaVuSans-41" transform="translate(765.771484 0)"/>
     <use xlink:href="#DejaVuSans-75" transform="translate(834.179688 0)"/>
     <use xlink:href="#DejaVuSans-73" transform="translate(897.558594 0)"/>
     <use xlink:href="#DejaVuSans-77" transform="translate(949.658203 0)"/>
     <use xlink:href="#DejaVuSans-65" transform="translate(1031.445312 0)"/>
     <use xlink:href="#DejaVuSans-72" transform="translate(1092.96875 0)"/>
     <use xlink:href="#DejaVuSans-74" transform="translate(1134.082031 0)"/>
     <use xlink:href="#DejaVuSans-75" transform="translate(1173.291016 0)"/>
     <use xlink:href="#DejaVuSans-6e" transform="translate(1236.669922 0)"/>
     <use xlink:href="#DejaVuSans-67" transform="translate(1300.048828 0)"/>
    </g>
   </g>
   <g id="text_6">
    <!-- 11% -->
    <g transform="translate(379.811807 61.491543) scale(0.08 -0.08)">
     <use xlink:href="#DejaVuSans-31"/>
     <use xlink:href="#DejaVuSans-31" transform="translate(63.623047 0)"/>
     <use xlink:href="#DejaVuSans-25" transform="translate(127.246094 0)"/>
    </g>
    <!-- Keine Antwort -->
    <g transform="translate(341.525557 70.449793) scale(0.08 -0.08)">
     <use xlink:href="#DejaVuSans-4b"/>
     <use xlink:href="#DejaVuSans-65" transform="translate(60.576172 0)"/>
     <use xlink:href="#DejaVuSans-69" transform="translate(122.099609 0)"/>
     <use xlink:href="#DejaVuSans-6e" transform="translate(149.882812 0)"/>
     <use xlink:href="#DejaVuSans-65" transform="translate(213.261719 0)"/>
     <use xlink:href="#DejaVuSans-20" transform="translate(274.785156 0)"/>
     <use xlink:href="#DejaVuSans-41" transform="translate(306.572266 0)"/>
     <use xlink:href="#DejaVuSans-6e" transform="translate(374.980469 0)"/>
     <use xlink:href="#DejaVuSans-74" transform="translate(438.359375 0)"/>
     <use xlink:href="#DejaVuSans-77" transform="translate(477.568359 0)"/>
     <use xlink:href="#DejaVuSans-6f" transform="translate(559.355469 0)"/>
     <use xlink:href="#DejaVuSans-72" transform="translate(620.537109 0)"/>
     <use xlink:href="#DejaVuSans-74" transform="translate(661.650391 0)"/>
    </g>
   </g>
  </g>
  <g id="text_7">
   <!-- Instandhaltung(z.B. Ausfallzeiten von Maschinen, ...) -->
   <g transform="translate(310.153125 22.078125) scale(0.12 -0.12)">
    <defs>
     <path id="DejaVuSans-49" d="M 628 4666 
L 1259 4666 
L 1259 0 
L 628 0 
L 628 4666 
z
" transform="scale(0.015625)"/>
     <path id="DejaVuSans-64" d="M 2906 2969 
L 2906 4863 
L 3481 4863 
L 3481 0 
L 2906 0 
L 2906 525 
Q 2725 213 2448 61 
Q 2172 -91 1784 -91 
Q 1150 -91 751 415 
Q 353 922 353 1747 
Q 353 2572 751 3078 
Q 1150 3584 1784 3584 
Q 2172 3584 2448 3432 
Q 2725 3281 2906 2969 
z
M 947 1747 
Q 947 1113 1208 752 
Q 1469 391 1925 391 
Q 2381 391 2643 752 
Q 2906 1113 2906 1747 
Q 2906 2381 2643 2742 
Q 2381 3103 1925 3103 
Q 1469 3103 1208 2742 
Q 947 2381 947 1747 
z
" transform="scale(0.015625)"/>
     <path id="DejaVuSans-68" d="M 3513 2113 
L 3513 0 
L 2938 0 
L 2938 2094 
Q 2938 2591 2744 2837 
Q 2550 3084 2163 3084 
Q 1697 3084 1428 2787 
Q 1159 2491 1159 1978 
L 1159 0 
L 581 0 
L 581 4863 
L 1159 4863 
L 1159 2956 
Q 1366 3272 1645 3428 
Q 1925 3584 2291 3584 
Q 2894 3584 3203 3211 
Q 3513 2838 3513 2113 
z
" transform="scale(0.015625)"/>
     <path id="DejaVuSans-28" d="M 1984 4856 
Q 1566 4138 1362 3434 
Q 1159 2731 1159 2009 
Q 1159 1288 1364 580 
Q 1569 -128 1984 -844 
L 1484 -844 
Q 1016 -109 783 600 
Q 550 1309 550 2009 
Q 550 2706 781 3412 
Q 1013 4119 1484 4856 
L 1984 4856 
z
" transform="scale(0.015625)"/>
     <path id="DejaVuSans-2e" d="M 684 794 
L 1344 794 
L 1344 0 
L 684 0 
L 684 794 
z
" transform="scale(0.015625)"/>
     <path id="DejaVuSans-42" d="M 1259 2228 
L 1259 519 
L 2272 519 
Q 2781 519 3026 730 
Q 3272 941 3272 1375 
Q 3272 1813 3026 2020 
Q 2781 2228 2272 2228 
L 1259 2228 
z
M 1259 4147 
L 1259 2741 
L 2194 2741 
Q 2656 2741 2882 2914 
Q 3109 3088 3109 3444 
Q 3109 3797 2882 3972 
Q 2656 4147 2194 4147 
L 1259 4147 
z
M 628 4666 
L 2241 4666 
Q 2963 4666 3353 4366 
Q 3744 4066 3744 3513 
Q 3744 3084 3544 2831 
Q 3344 2578 2956 2516 
Q 3422 2416 3680 2098 
Q 3938 1781 3938 1306 
Q 3938 681 3513 340 
Q 3088 0 2303 0 
L 628 0 
L 628 4666 
z
" transform="scale(0.015625)"/>
     <path id="DejaVuSans-76" d="M 191 3500 
L 800 3500 
L 1894 563 
L 2988 3500 
L 3597 3500 
L 2284 0 
L 1503 0 
L 191 3500 
z
" transform="scale(0.015625)"/>
     <path id="DejaVuSans-63" d="M 3122 3366 
L 3122 2828 
Q 2878 2963 2633 3030 
Q 2388 3097 2138 3097 
Q 1578 3097 1268 2742 
Q 959 2388 959 1747 
Q 959 1106 1268 751 
Q 1578 397 2138 397 
Q 2388 397 2633 464 
Q 2878 531 3122 666 
L 3122 134 
Q 2881 22 2623 -34 
Q 2366 -91 2075 -91 
Q 1284 -91 818 406 
Q 353 903 353 1747 
Q 353 2603 823 3093 
Q 1294 3584 2113 3584 
Q 2378 3584 2631 3529 
Q 2884 3475 3122 3366 
z
" transform="scale(0.015625)"/>
     <path id="DejaVuSans-29" d="M 513 4856 
L 1013 4856 
Q 1481 4119 1714 3412 
Q 1947 2706 1947 2009 
Q 1947 1309 1714 600 
Q 1481 -109 1013 -844 
L 513 -844 
Q 928 -128 1133 580 
Q 1338 1288 1338 2009 
Q 1338 2731 1133 3434 
Q 928 4138 513 4856 
z
" transform="scale(0.015625)"/>
    </defs>
    <use xlink:href="#DejaVuSans-49"/>
    <use xlink:href="#DejaVuSans-6e" transform="translate(29.492188 0)"/>
    <use xlink:href="#DejaVuSans-73" transform="translate(92.871094 0)"/>
    <use xlink:href="#DejaVuSans-74" transform="translate(144.970703 0)"/>
    <use xlink:href="#DejaVuSans-61" transform="translate(184.179688 0)"/>
    <use xlink:href="#DejaVuSans-6e" transform="translate(245.458984 0)"/>
    <use xlink:href="#DejaVuSans-64" transform="translate(308.837891 0)"/>
    <use xlink:href="#DejaVuSans-68" transform="translate(372.314453 0)"/>
    <use xlink:href="#DejaVuSans-61" transform="translate(435.693359 0)"/>
    <use xlink:href="#DejaVuSans-6c" transform="translate(496.972656 0)"/>
    <use xlink:href="#DejaVuSans-74" transform="translate(524.755859 0)"/>
    <use xlink:href="#DejaVuSans-75" transform="translate(563.964844 0)"/>
    <use xlink:href="#DejaVuSans-6e" transform="translate(627.34375 0)"/>
    <use xlink:href="#DejaVuSans-67" transform="translate(690.722656 0)"/>
    <use xlink:href="#DejaVuSans-28" transform="translate(754.199219 0)"/>
    <use xlink:href="#DejaVuSans-7a" transform="translate(793.212891 0)"/>
    <use xlink:href="#DejaVuSans-2e" transform="translate(845.703125 0)"/>
    <use xlink:href="#DejaVuSans-42" transform="translate(877.490234 0)"/>
    <use xlink:href="#DejaVuSans-2e" transform="translate(946.09375 0)"/>
    <use xlink:href="#DejaVuSans-20" transform="translate(977.880859 0)"/>
    <use xlink:href="#DejaVuSans-41" transform="translate(1009.667969 0)"/>
    <use xlink:href="#DejaVuSans-75" transform="translate(1078.076172 0)"/>
    <use xlink:href="#DejaVuSans-73" transform="translate(1141.455078 0)"/>
    <use xlink:href="#DejaVuSans-66" transform="translate(1193.554688 0)"/>
    <use xlink:href="#DejaVuSans-61" transform="translate(1228.759766 0)"/>
    <use xlink:href="#DejaVuSans-6c" transform="translate(1290.039062 0)"/>
    <use xlink:href="#DejaVuSans-6c" transform="translate(1317.822266 0)"/>
    <use xlink:href="#DejaVuSans-7a" transform="translate(1345.605469 0)"/>
    <use xlink:href="#DejaVuSans-65" transform="translate(1398.095703 0)"/>
    <use xlink:href="#DejaVuSans-69" transform="translate(1459.619141 0)"/>
    <use xlink:href="#DejaVuSans-74" transform="translate(1487.402344 0)"/>
    <use xlink:href="#DejaVuSans-65" transform="translate(1526.611328 0)"/>
    <use xlink:href="#DejaVuSans-6e" transform="translate(1588.134766 0)"/>
    <use xlink:href="#DejaVuSans-20" transform="translate(1651.513672 0)"/>
    <use xlink:href="#DejaVuSans-76" transform="translate(1683.300781 0)"/>
    <use xlink:href="#DejaVuSans-6f" transform="translate(1742.480469 0)"/>
    <use xlink:href="#DejaVuSans-6e" transform="translate(1803.662109 0)"/>
    <use xlink:href="#DejaVuSans-20" transform="translate(1867.041016 0)"/>
    <use xlink:href="#DejaVuSans-4d" transform="translate(1898.828125 0)"/>
    <use xlink:href="#DejaVuSans-61" transform="translate(1985.107422 0)"/>
    <use xlink:href="#DejaVuSans-73" transform="translate(2046.386719 0)"/>
    <use xlink:href="#DejaVuSans-63" transform="translate(2098.486328 0)"/>
    <use xlink:href="#DejaVuSans-68" transform="translate(2153.466797 0)"/>
    <use xlink:href="#DejaVuSans-69" transform="translate(2216.845703 0)"/>
    <use xlink:href="#DejaVuSans-6e" transform="translate(2244.628906 0)"/>
    <use xlink:href="#DejaVuSans-65" transform="translate(2308.007812 0)"/>
    <use xlink:href="#DejaVuSans-6e" transform="translate(2369.53125 0)"/>
    <use xlink:href="#DejaVuSans-2c" transform="translate(2432.910156 0)"/>
    <use xlink:href="#DejaVuSans-20" transform="translate(2464.697266 0)"/>
    <use xlink:href="#DejaVuSans-2e" transform="translate(2496.484375 0)"/>
    <use xlink:href="#DejaVuSans-2e" transform="translate(2528.271484 0)"/>
    <use xlink:href="#DejaVuSans-2e" transform="translate(2560.058594 0)"/>
    <use xlink:href="#DejaVuSans-29" transform="translate(2591.845703 0)"/>
   </g>
  </g>
  <g id="text_8">
   <!-- Abbildung 18c: Bitte bewerten Sie, inwieweit Daten in Ihrem Unernehmen erfasst -->
   <g transform="translate(243.590547 569.430578) scale(0.11 -0.11)">
    <defs>
     <path id="DejaVuSans-62" d="M 3116 1747 
Q 3116 2381 2855 2742 
Q 2594 3103 2138 3103 
Q 1681 3103 1420 2742 
Q 1159 2381 1159 1747 
Q 1159 1113 1420 752 
Q 1681 391 2138 391 
Q 2594 391 2855 752 
Q 3116 1113 3116 1747 
z
M 1159 2969 
Q 1341 3281 1617 3432 
Q 1894 3584 2278 3584 
Q 2916 3584 3314 3078 
Q 3713 2572 3713 1747 
Q 3713 922 3314 415 
Q 2916 -91 2278 -91 
Q 1894 -91 1617 61 
Q 1341 213 1159 525 
L 1159 0 
L 581 0 
L 581 4863 
L 1159 4863 
L 1159 2969 
z
" transform="scale(0.015625)"/>
     <path id="DejaVuSans-38" d="M 2034 2216 
Q 1584 2216 1326 1975 
Q 1069 1734 1069 1313 
Q 1069 891 1326 650 
Q 1584 409 2034 409 
Q 2484 409 2743 651 
Q 3003 894 3003 1313 
Q 3003 1734 2745 1975 
Q 2488 2216 2034 2216 
z
M 1403 2484 
Q 997 2584 770 2862 
Q 544 3141 544 3541 
Q 544 4100 942 4425 
Q 1341 4750 2034 4750 
Q 2731 4750 3128 4425 
Q 3525 4100 3525 3541 
Q 3525 3141 3298 2862 
Q 3072 2584 2669 2484 
Q 3125 2378 3379 2068 
Q 3634 1759 3634 1313 
Q 3634 634 3220 271 
Q 2806 -91 2034 -91 
Q 1263 -91 848 271 
Q 434 634 434 1313 
Q 434 1759 690 2068 
Q 947 2378 1403 2484 
z
M 1172 3481 
Q 1172 3119 1398 2916 
Q 1625 2713 2034 2713 
Q 2441 2713 2670 2916 
Q 2900 3119 2900 3481 
Q 2900 3844 2670 4047 
Q 2441 4250 2034 4250 
Q 1625 4250 1398 4047 
Q 1172 3844 1172 3481 
z
" transform="scale(0.015625)"/>
     <path id="DejaVuSans-3a" d="M 750 794 
L 1409 794 
L 1409 0 
L 750 0 
L 750 794 
z
M 750 3309 
L 1409 3309 
L 1409 2516 
L 750 2516 
L 750 3309 
z
" transform="scale(0.015625)"/>
     <path id="DejaVuSans-53" d="M 3425 4513 
L 3425 3897 
Q 3066 4069 2747 4153 
Q 2428 4238 2131 4238 
Q 1616 4238 1336 4038 
Q 1056 3838 1056 3469 
Q 1056 3159 1242 3001 
Q 1428 2844 1947 2747 
L 2328 2669 
Q 3034 2534 3370 2195 
Q 3706 1856 3706 1288 
Q 3706 609 3251 259 
Q 2797 -91 1919 -91 
Q 1588 -91 1214 -16 
Q 841 59 441 206 
L 441 856 
Q 825 641 1194 531 
Q 1563 422 1919 422 
Q 2459 422 2753 634 
Q 3047 847 3047 1241 
Q 3047 1584 2836 1778 
Q 2625 1972 2144 2069 
L 1759 2144 
Q 1053 2284 737 2584 
Q 422 2884 422 3419 
Q 422 4038 858 4394 
Q 1294 4750 2059 4750 
Q 2388 4750 2728 4690 
Q 3069 4631 3425 4513 
z
" transform="scale(0.015625)"/>
     <path id="DejaVuSans-44" d="M 1259 4147 
L 1259 519 
L 2022 519 
Q 2988 519 3436 956 
Q 3884 1394 3884 2338 
Q 3884 3275 3436 3711 
Q 2988 4147 2022 4147 
L 1259 4147 
z
M 628 4666 
L 1925 4666 
Q 3281 4666 3915 4102 
Q 4550 3538 4550 2338 
Q 4550 1131 3912 565 
Q 3275 0 1925 0 
L 628 0 
L 628 4666 
z
" transform="scale(0.015625)"/>
     <path id="DejaVuSans-55" d="M 556 4666 
L 1191 4666 
L 1191 1831 
Q 1191 1081 1462 751 
Q 1734 422 2344 422 
Q 2950 422 3222 751 
Q 3494 1081 3494 1831 
L 3494 4666 
L 4128 4666 
L 4128 1753 
Q 4128 841 3676 375 
Q 3225 -91 2344 -91 
Q 1459 -91 1007 375 
Q 556 841 556 1753 
L 556 4666 
z
" transform="scale(0.015625)"/>
    </defs>
    <use xlink:href="#DejaVuSans-41"/>
    <use xlink:href="#DejaVuSans-62" transform="translate(68.408203 0)"/>
    <use xlink:href="#DejaVuSans-62" transform="translate(131.884766 0)"/>
    <use xlink:href="#DejaVuSans-69" transform="translate(195.361328 0)"/>
    <use xlink:href="#DejaVuSans-6c" transform="translate(223.144531 0)"/>
    <use xlink:href="#DejaVuSans-64" transform="translate(250.927734 0)"/>
    <use xlink:href="#DejaVuSans-75" transform="translate(314.404297 0)"/>
    <use xlink:href="#DejaVuSans-6e" transform="translate(377.783203 0)"/>
    <use xlink:href="#DejaVuSans-67" transform="translate(441.162109 0)"/>
    <use xlink:href="#DejaVuSans-20" transform="translate(504.638672 0)"/>
    <use xlink:href="#DejaVuSans-31" transform="translate(536.425781 0)"/>
    <use xlink:href="#DejaVuSans-38" transform="translate(600.048828 0)"/>
    <use xlink:href="#DejaVuSans-63" transform="translate(663.671875 0)"/>
    <use xlink:href="#DejaVuSans-3a" transform="translate(718.652344 0)"/>
    <use xlink:href="#DejaVuSans-20" transform="translate(752.34375 0)"/>
    <use xlink:href="#DejaVuSans-42" transform="translate(784.130859 0)"/>
    <use xlink:href="#DejaVuSans-69" transform="translate(852.734375 0)"/>
    <use xlink:href="#DejaVuSans-74" transform="translate(880.517578 0)"/>
    <use xlink:href="#DejaVuSans-74" transform="translate(919.726562 0)"/>
    <use xlink:href="#DejaVuSans-65" transform="translate(958.935547 0)"/>
    <use xlink:href="#DejaVuSans-20" transform="translate(1020.458984 0)"/>
    <use xlink:href="#DejaVuSans-62" transform="translate(1052.246094 0)"/>
    <use xlink:href="#DejaVuSans-65" transform="translate(1115.722656 0)"/>
    <use xlink:href="#DejaVuSans-77" transform="translate(1177.246094 0)"/>
    <use xlink:href="#DejaVuSans-65" transform="translate(1259.033203 0)"/>
    <use xlink:href="#DejaVuSans-72" transform="translate(1320.556641 0)"/>
    <use xlink:href="#DejaVuSans-74" transform="translate(1361.669922 0)"/>
    <use xlink:href="#DejaVuSans-65" transform="translate(1400.878906 0)"/>
    <use xlink:href="#DejaVuSans-6e" transform="translate(1462.402344 0)"/>
    <use xlink:href="#DejaVuSans-20" transform="translate(1525.78125 0)"/>
    <use xlink:href="#DejaVuSans-53" transform="translate(1557.568359 0)"/>
    <use xlink:href="#DejaVuSans-69" transform="translate(1621.044922 0)"/>
    <use xlink:href="#DejaVuSans-65" transform="translate(1648.828125 0)"/>
    <use xlink:href="#DejaVuSans-2c" transform="translate(1710.351562 0)"/>
    <use xlink:href="#DejaVuSans-20" transform="translate(1742.138672 0)"/>
    <use xlink:href="#DejaVuSans-69" transform="translate(1773.925781 0)"/>
    <use xlink:href="#DejaVuSans-6e" transform="translate(1801.708984 0)"/>
    <use xlink:href="#DejaVuSans-77" transform="translate(1865.087891 0)"/>
    <use xlink:href="#DejaVuSans-69" transform="translate(1946.875 0)"/>
    <use xlink:href="#DejaVuSans-65" transform="translate(1974.658203 0)"/>
    <use xlink:href="#DejaVuSans-77" transform="translate(2036.181641 0)"/>
    <use xlink:href="#DejaVuSans-65" transform="translate(2117.96875 0)"/>
    <use xlink:href="#DejaVuSans-69" transform="translate(2179.492188 0)"/>
    <use xlink:href="#DejaVuSans-74" transform="translate(2207.275391 0)"/>
    <use xlink:href="#DejaVuSans-20" transform="translate(2246.484375 0)"/>
    <use xlink:href="#DejaVuSans-44" transform="translate(2278.271484 0)"/>
    <use xlink:href="#DejaVuSans-61" transform="translate(2355.273438 0)"/>
    <use xlink:href="#DejaVuSans-74" transform="translate(2416.552734 0)"/>
    <use xlink:href="#DejaVuSans-65" transform="translate(2455.761719 0)"/>
    <use xlink:href="#DejaVuSans-6e" transform="translate(2517.285156 0)"/>
    <use xlink:href="#DejaVuSans-20" transform="translate(2580.664062 0)"/>
    <use xlink:href="#DejaVuSans-69" transform="translate(2612.451172 0)"/>
    <use xlink:href="#DejaVuSans-6e" transform="translate(2640.234375 0)"/>
    <use xlink:href="#DejaVuSans-20" transform="translate(2703.613281 0)"/>
    <use xlink:href="#DejaVuSans-49" transform="translate(2735.400391 0)"/>
    <use xlink:href="#DejaVuSans-68" transform="translate(2764.892578 0)"/>
    <use xlink:href="#DejaVuSans-72" transform="translate(2828.271484 0)"/>
    <use xlink:href="#DejaVuSans-65" transform="translate(2867.134766 0)"/>
    <use xlink:href="#DejaVuSans-6d" transform="translate(2928.658203 0)"/>
    <use xlink:href="#DejaVuSans-20" transform="translate(3026.070312 0)"/>
    <use xlink:href="#DejaVuSans-55" transform="translate(3057.857422 0)"/>
    <use xlink:href="#DejaVuSans-6e" transform="translate(3131.050781 0)"/>
    <use xlink:href="#DejaVuSans-65" transform="translate(3194.429688 0)"/>
    <use xlink:href="#DejaVuSans-72" transform="translate(3255.953125 0)"/>
    <use xlink:href="#DejaVuSans-6e" transform="translate(3295.316406 0)"/>
    <use xlink:href="#DejaVuSans-65" transform="translate(3358.695312 0)"/>
    <use xlink:href="#DejaVuSans-68" transform="translate(3420.21875 0)"/>
    <use xlink:href="#DejaVuSans-6d" transform="translate(3483.597656 0)"/>
    <use xlink:href="#DejaVuSans-65" transform="translate(3581.009766 0)"/>
    <use xlink:href="#DejaVuSans-6e" transform="translate(3642.533203 0)"/>
    <use xlink:href="#DejaVuSans-20" transform="translate(3705.912109 0)"/>
    <use xlink:href="#DejaVuSans-65" transform="translate(3737.699219 0)"/>
    <use xlink:href="#DejaVuSans-72" transform="translate(3799.222656 0)"/>
    <use xlink:href="#DejaVuSans-66" transform="translate(3840.335938 0)"/>
    <use xlink:href="#DejaVuSans-61" transform="translate(3875.541016 0)"/>
    <use xlink:href="#DejaVuSans-73" transform="translate(3936.820312 0)"/>
    <use xlink:href="#DejaVuSans-73" transform="translate(3988.919922 0)"/>
    <use xlink:href="#DejaVuSans-74" transform="translate(4041.019531 0)"/>
   </g>
   <!-- und genutzt werden. – Instandhaltung(z.B. Ausfallzeiten von Maschinen, ...) -->
   <g transform="translate(259.899766 580.912344) scale(0.11 -0.11)">
    <defs>
     <path id="DejaVuSans-2013" d="M 313 1978 
L 2888 1978 
L 2888 1528 
L 313 1528 
L 313 1978 
z
" transform="scale(0.015625)"/>
    </defs>
    <use xlink:href="#DejaVuSans-75"/>
    <use xlink:href="#DejaVuSans-6e" transform="translate(63.378906 0)"/>
    <use xlink:href="#DejaVuSans-64" transform="translate(126.757812 0)"/>
    <use xlink:href="#DejaVuSans-20" transform="translate(190.234375 0)"/>
    <use xlink:href="#DejaVuSans-67" transform="translate(222.021484 0)"/>
    <use xlink:href="#DejaVuSans-65" transform="translate(285.498047 0)"/>
    <use xlink:href="#DejaVuSans-6e" transform="translate(347.021484 0)"/>
    <use xlink:href="#DejaVuSans-75" transform="translate(410.400391 0)"/>
    <use xlink:href="#DejaVuSans-74" transform="translate(473.779297 0)"/>
    <use xlink:href="#DejaVuSans-7a" transform="translate(512.988281 0)"/>
    <use xlink:href="#DejaVuSans-74" transform="translate(565.478516 0)"/>
    <use xlink:href="#DejaVuSans-20" transform="translate(604.6875 0)"/>
    <use xlink:href="#DejaVuSans-77" transform="translate(636.474609 0)"/>
    <use xlink:href="#DejaVuSans-65" transform="translate(718.261719 0)"/>
    <use xlink:href="#DejaVuSans-72" transform="translate(779.785156 0)"/>
    <use xlink:href="#DejaVuSans-64" transform="translate(819.148438 0)"/>
    <use xlink:href="#DejaVuSans-65" transform="translate(882.625 0)"/>
    <use xlink:href="#DejaVuSans-6e" transform="translate(944.148438 0)"/>
    <use xlink:href="#DejaVuSans-2e" transform="translate(1007.527344 0)"/>
    <use xlink:href="#DejaVuSans-20" transform="translate(1039.314453 0)"/>
    <use xlink:href="#DejaVuSans-2013" transform="translate(1071.101562 0)"/>
    <use xlink:href="#DejaVuSans-20" transform="translate(1121.101562 0)"/>
    <use xlink:href="#DejaVuSans-49" transform="translate(1152.888672 0)"/>
    <use xlink:href="#DejaVuSans-6e" transform="translate(1182.380859 0)"/>
    <use xlink:href="#DejaVuSans-73" transform="translate(1245.759766 0)"/>
    <use xlink:href="#DejaVuSans-74" transform="translate(1297.859375 0)"/>
    <use xlink:href="#DejaVuSans-61" transform="translate(1337.068359 0)"/>
    <use xlink:href="#DejaVuSans-6e" transform="translate(1398.347656 0)"/>
    <use xlink:href="#DejaVuSans-64" transform="translate(1461.726562 0)"/>
    <use xlink:href="#DejaVuSans-68" transform="translate(1525.203125 0)"/>
    <use xlink:href="#DejaVuSans-61" transform="translate(1588.582031 0)"/>
    <use xlink:href="#DejaVuSans-6c" transform="translate(1649.861328 0)"/>
    <use xlink:href="#DejaVuSans-74" transform="translate(1677.644531 0)"/>
    <use xlink:href="#DejaVuSans-75" transform="translate(1716.853516 0)"/>
    <use xlink:href="#DejaVuSans-6e" transform="translate(1780.232422 0)"/>
    <use xlink:href="#DejaVuSans-67" transform="translate(1843.611328 0)"/>
    <use xlink:href="#DejaVuSans-28" transform="translate(1907.087891 0)"/>
    <use xlink:href="#DejaVuSans-7a" transform="translate(1946.101562 0)"/>
    <use xlink:href="#DejaVuSans-2e" transform="translate(1998.591797 0)"/>
    <use xlink:href="#DejaVuSans-42" transform="translate(2030.378906 0)"/>
    <use xlink:href="#DejaVuSans-2e" transform="translate(2098.982422 0)"/>
    <use xlink:href="#DejaVuSans-20" transform="translate(2130.769531 0)"/>
    <use xlink:href="#DejaVuSans-41" transform="translate(2162.556641 0)"/>
    <use xlink:href="#DejaVuSans-75" transform="translate(2230.964844 0)"/>
    <use xlink:href="#DejaVuSans-73" transform="translate(2294.34375 0)"/>
    <use xlink:href="#DejaVuSans-66" transform="translate(2346.443359 0)"/>
    <use xlink:href="#DejaVuSans-61" transform="translate(2381.648438 0)"/>
    <use xlink:href="#DejaVuSans-6c" transform="translate(2442.927734 0)"/>
    <use xlink:href="#DejaVuSans-6c" transform="translate(2470.710938 0)"/>
    <use xlink:href="#DejaVuSans-7a" transform="translate(2498.494141 0)"/>
    <use xlink:href="#DejaVuSans-65" transform="translate(2550.984375 0)"/>
    <use xlink:href="#DejaVuSans-69" transform="translate(2612.507812 0)"/>
    <use xlink:href="#DejaVuSans-74" transform="translate(2640.291016 0)"/>
    <use xlink:href="#DejaVuSans-65" transform="translate(2679.5 0)"/>
    <use xlink:href="#DejaVuSans-6e" transform="translate(2741.023438 0)"/>
    <use xlink:href="#DejaVuSans-20" transform="translate(2804.402344 0)"/>
    <use xlink:href="#DejaVuSans-76" transform="translate(2836.189453 0)"/>
    <use xlink:href="#DejaVuSans-6f" transform="translate(2895.369141 0)"/>
    <use xlink:href="#DejaVuSans-6e" transform="translate(2956.550781 0)"/>
    <use xlink:href="#DejaVuSans-20" transform="translate(3019.929688 0)"/>
    <use xlink:href="#DejaVuSans-4d" transform="translate(3051.716797 0)"/>
    <use xlink:href="#DejaVuSans-61" transform="translate(3137.996094 0)"/>
    <use xlink:href="#DejaVuSans-73" transform="translate(3199.275391 0)"/>
    <use xlink:href="#DejaVuSans-63" transform="translate(3251.375 0)"/>
    <use xlink:href="#DejaVuSans-68" transform="translate(3306.355469 0)"/>
    <use xlink:href="#DejaVuSans-69" transform="translate(3369.734375 0)"/>
    <use xlink:href="#DejaVuSans-6e" transform="translate(3397.517578 0)"/>
    <use xlink:href="#DejaVuSans-65" transform="translate(3460.896484 0)"/>
    <use xlink:href="#DejaVuSans-6e" transform="translate(3522.419922 0)"/>
    <use xlink:href="#DejaVuSans-2c" transform="translate(3585.798828 0)"/>
    <use xlink:href="#DejaVuSans-20" transform="translate(3617.585938 0)"/>
    <use xlink:href="#DejaVuSans-2e" transform="translate(3649.373047 0)"/>
    <use xlink:href="#DejaVuSans-2e" transform="translate(3681.160156 0)"/>
    <use xlink:href="#DejaVuSans-2e" transform="translate(3712.947266 0)"/>
    <use xlink:href="#DejaVuSans-29" transform="translate(3744.734375 0)"/>
   </g>
  </g>
 </g>
 <defs>
  <clipPath id="pb666be3ae3">
   <rect x="254.16" y="51.84" width="427.68" height="427.68"/>
  </clipPath>
 </defs>
</svg>
