<?xml version="1.0" encoding="utf-8" standalone="no"?>
<!DOCTYPE svg PUBLIC "-//W3C//DTD SVG 1.1//EN"
  "http://www.w3.org/Graphics/SVG/1.1/DTD/svg11.dtd">
<svg xmlns:xlink="http://www.w3.org/1999/xlink" width="936pt" height="648pt" viewBox="0 0 936 648" xmlns="http://www.w3.org/2000/svg" version="1.1">
 <metadata>
  <rdf:RDF xmlns:dc="http://purl.org/dc/elements/1.1/" xmlns:cc="http://creativecommons.org/ns#" xmlns:rdf="http://www.w3.org/1999/02/22-rdf-syntax-ns#">
   <cc:Work>
    <dc:type rdf:resource="http://purl.org/dc/dcmitype/StillImage"/>
    <dc:date>2026-02-23T18:46:22.513756</dc:date>
    <dc:format>image/svg+xml</dc:format>
    <dc:creator>
     <cc:Agent>
      <dc:title>Matplotlib v3.10.8, https://matplotlib.org/</dc:title>
     </cc:Agent>
    </dc:creator>
   </cc:Work>
  </rdf:RDF>
 </metadata>
 <defs>
  <style type="text/css">*{stroke-linejoin: round; stroke-linecap: butt}</style>
 </defs>
 <g id="figure_1">
  <g id="patch_1">
   <path d="M 0 648 
L 936 648 
L 936 0 
L 0 0 
z
" style="fill: #ffffff"/>
  </g>
  <g id="axes_1">
   <g id="patch_2">
    <path d="M 636.670507 237.116248 
C 629.923452 197.274534 609.273307 161.083804 578.406451 135.004659 
C 547.539589 108.925513 508.408961 94.608 467.999993 94.608 
L 467.999995 154.4832 
C 494.265825 154.4832 519.700733 163.789584 539.764193 180.741028 
C 559.82765 197.692473 573.250244 221.216447 577.63583 247.113561 
z
" style="fill: #003b6a; stroke: #ffffff; stroke-linejoin: miter"/>
   </g>
   <g id="patch_3">
    <path d="M 630.373636 319.535672 
C 634.759454 306.312534 637.51362 292.603018 638.574901 278.711998 
C 639.636183 264.820976 638.996636 250.852183 636.670507 237.116248 
L 577.63583 247.113561 
C 579.147814 256.041919 579.563519 265.121635 578.873686 274.150799 
C 578.183853 283.179962 576.393645 292.091147 573.542863 300.686187 
z
" style="fill: #8fc73e; stroke: #ffffff; stroke-linejoin: miter"/>
   </g>
   <g id="patch_4">
    <path d="M 493.988242 434.766491 
C 525.124959 429.98084 554.343007 416.68633 578.406441 396.355351 
C 602.469875 376.024373 620.456288 349.43624 630.373636 319.535672 
L 573.542863 300.686187 
C 567.096587 320.121556 555.405419 337.403843 539.764186 350.618978 
C 524.122954 363.834114 505.131223 372.475546 484.892357 375.586219 
z
" style="fill: #dc912f; stroke: #ffffff; stroke-linejoin: miter"/>
   </g>
   <g id="patch_5">
    <path d="M 329.29379 365.810996 
C 347.732579 391.353286 372.873273 411.31288 401.931472 423.479178 
C 430.989673 435.645476 462.85152 439.552132 493.988242 434.766491 
L 484.892357 375.586219 
C 464.653488 378.696886 443.943288 376.157559 425.055457 368.249466 
C 406.167627 360.341372 389.826176 347.367636 377.840963 330.765147 
z
" style="fill: #93bbdc; stroke: #ffffff; stroke-linejoin: miter"/>
   </g>
   <g id="patch_6">
    <path d="M 332.411896 161.36559 
C 309.951554 190.559593 297.509609 226.241266 296.947894 263.071162 
C 296.386169 299.901059 307.734193 335.945622 329.29379 365.810996 
L 377.840963 330.765147 
C 363.827225 311.352654 356.45101 287.923688 356.816131 263.984255 
C 357.181246 240.044823 365.26851 216.851736 379.867732 197.875633 
z
" style="fill: #f9c803; stroke: #ffffff; stroke-linejoin: miter"/>
   </g>
   <g id="patch_7">
    <path d="M 468.000002 94.608 
C 441.797513 94.608 415.941907 100.628032 392.434253 112.202167 
C 368.926594 123.776303 348.389368 140.598041 332.411896 161.36559 
L 379.867732 197.875633 
C 390.253089 184.376726 403.602286 173.442597 418.882265 165.919409 
C 434.162239 158.39622 450.968383 154.4832 468.000001 154.4832 
z
" style="fill: #6283aa; stroke: #ffffff; stroke-linejoin: miter"/>
   </g>
   <g id="matplotlib.axis_1"/>
   <g id="matplotlib.axis_2"/>
   <g id="line2d_1">
    <path d="M 565.157673 150.685703 
L 589.447096 121.937116 
" clip-path="url(#pbfafd88459)" style="fill: none; stroke: #000000; stroke-opacity: 0.35; stroke-linecap: square"/>
   </g>
   <g id="line2d_2">
    <path d="M 618.105911 277.148156 
L 655.632397 280.015197 
" clip-path="url(#pbfafd88459)" style="fill: none; stroke: #000000; stroke-opacity: 0.35; stroke-linecap: square"/>
   </g>
   <g id="line2d_3">
    <path d="M 565.157662 380.674307 
L 589.447086 409.422894 
" clip-path="url(#pbfafd88459)" style="fill: none; stroke: #000000; stroke-opacity: 0.35; stroke-linecap: square"/>
   </g>
   <g id="line2d_4">
    <path d="M 409.859711 404.54328 
L 395.324641 439.2591 
" clip-path="url(#pbfafd88459)" style="fill: none; stroke: #000000; stroke-opacity: 0.35; stroke-linecap: square"/>
   </g>
   <g id="line2d_5">
    <path d="M 317.474149 263.384259 
L 279.842678 262.810323 
" clip-path="url(#pbfafd88459)" style="fill: none; stroke: #000000; stroke-opacity: 0.35; stroke-linecap: square"/>
   </g>
   <g id="line2d_6">
    <path d="M 401.502207 130.619472 
L 384.877754 96.85434 
" clip-path="url(#pbfafd88459)" style="fill: none; stroke: #000000; stroke-opacity: 0.35; stroke-linecap: square"/>
   </g>
   <g id="text_1">
    <!-- 22% -->
    <g transform="translate(606.008064 98.928386) scale(0.12 -0.12)">
     <defs>
      <path id="DejaVuSans-32" d="M 1228 531 
L 3431 531 
L 3431 0 
L 469 0 
L 469 531 
Q 828 903 1448 1529 
Q 2069 2156 2228 2338 
Q 2531 2678 2651 2914 
Q 2772 3150 2772 3378 
Q 2772 3750 2511 3984 
Q 2250 4219 1831 4219 
Q 1534 4219 1204 4116 
Q 875 4013 500 3803 
L 500 4441 
Q 881 4594 1212 4672 
Q 1544 4750 1819 4750 
Q 2544 4750 2975 4387 
Q 3406 4025 3406 3419 
Q 3406 3131 3298 2873 
Q 3191 2616 2906 2266 
Q 2828 2175 2409 1742 
Q 1991 1309 1228 531 
z
" transform="scale(0.015625)"/>
      <path id="DejaVuSans-25" d="M 4653 2053 
Q 4381 2053 4226 1822 
Q 4072 1591 4072 1178 
Q 4072 772 4226 539 
Q 4381 306 4653 306 
Q 4919 306 5073 539 
Q 5228 772 5228 1178 
Q 5228 1588 5073 1820 
Q 4919 2053 4653 2053 
z
M 4653 2450 
Q 5147 2450 5437 2106 
Q 5728 1763 5728 1178 
Q 5728 594 5436 251 
Q 5144 -91 4653 -91 
Q 4153 -91 3862 251 
Q 3572 594 3572 1178 
Q 3572 1766 3864 2108 
Q 4156 2450 4653 2450 
z
M 1428 4353 
Q 1159 4353 1004 4120 
Q 850 3888 850 3481 
Q 850 3069 1003 2837 
Q 1156 2606 1428 2606 
Q 1700 2606 1854 2837 
Q 2009 3069 2009 3481 
Q 2009 3884 1853 4118 
Q 1697 4353 1428 4353 
z
M 4250 4750 
L 4750 4750 
L 1831 -91 
L 1331 -91 
L 4250 4750 
z
M 1428 4750 
Q 1922 4750 2215 4408 
Q 2509 4066 2509 3481 
Q 2509 2891 2217 2550 
Q 1925 2209 1428 2209 
Q 931 2209 642 2551 
Q 353 2894 353 3481 
Q 353 4063 643 4406 
Q 934 4750 1428 4750 
z
" transform="scale(0.015625)"/>
     </defs>
     <use xlink:href="#DejaVuSans-32"/>
     <use xlink:href="#DejaVuSans-32" transform="translate(63.623047 0)"/>
     <use xlink:href="#DejaVuSans-25" transform="translate(127.246094 0)"/>
    </g>
    <!-- Keine Erfassung -->
    <g transform="translate(606.008064 112.365761) scale(0.12 -0.12)">
     <defs>
      <path id="DejaVuSans-4b" d="M 628 4666 
L 1259 4666 
L 1259 2694 
L 3353 4666 
L 4166 4666 
L 1850 2491 
L 4331 0 
L 3500 0 
L 1259 2247 
L 1259 0 
L 628 0 
L 628 4666 
z
" transform="scale(0.015625)"/>
      <path id="DejaVuSans-65" d="M 3597 1894 
L 3597 1613 
L 953 1613 
Q 991 1019 1311 708 
Q 1631 397 2203 397 
Q 2534 397 2845 478 
Q 3156 559 3463 722 
L 3463 178 
Q 3153 47 2828 -22 
Q 2503 -91 2169 -91 
Q 1331 -91 842 396 
Q 353 884 353 1716 
Q 353 2575 817 3079 
Q 1281 3584 2069 3584 
Q 2775 3584 3186 3129 
Q 3597 2675 3597 1894 
z
M 3022 2063 
Q 3016 2534 2758 2815 
Q 2500 3097 2075 3097 
Q 1594 3097 1305 2825 
Q 1016 2553 972 2059 
L 3022 2063 
z
" transform="scale(0.015625)"/>
      <path id="DejaVuSans-69" d="M 603 3500 
L 1178 3500 
L 1178 0 
L 603 0 
L 603 3500 
z
M 603 4863 
L 1178 4863 
L 1178 4134 
L 603 4134 
L 603 4863 
z
" transform="scale(0.015625)"/>
      <path id="DejaVuSans-6e" d="M 3513 2113 
L 3513 0 
L 2938 0 
L 2938 2094 
Q 2938 2591 2744 2837 
Q 2550 3084 2163 3084 
Q 1697 3084 1428 2787 
Q 1159 2491 1159 1978 
L 1159 0 
L 581 0 
L 581 3500 
L 1159 3500 
L 1159 2956 
Q 1366 3272 1645 3428 
Q 1925 3584 2291 3584 
Q 2894 3584 3203 3211 
Q 3513 2838 3513 2113 
z
" transform="scale(0.015625)"/>
      <path id="DejaVuSans-20" transform="scale(0.015625)"/>
      <path id="DejaVuSans-45" d="M 628 4666 
L 3578 4666 
L 3578 4134 
L 1259 4134 
L 1259 2753 
L 3481 2753 
L 3481 2222 
L 1259 2222 
L 1259 531 
L 3634 531 
L 3634 0 
L 628 0 
L 628 4666 
z
" transform="scale(0.015625)"/>
      <path id="DejaVuSans-72" d="M 2631 2963 
Q 2534 3019 2420 3045 
Q 2306 3072 2169 3072 
Q 1681 3072 1420 2755 
Q 1159 2438 1159 1844 
L 1159 0 
L 581 0 
L 581 3500 
L 1159 3500 
L 1159 2956 
Q 1341 3275 1631 3429 
Q 1922 3584 2338 3584 
Q 2397 3584 2469 3576 
Q 2541 3569 2628 3553 
L 2631 2963 
z
" transform="scale(0.015625)"/>
      <path id="DejaVuSans-66" d="M 2375 4863 
L 2375 4384 
L 1825 4384 
Q 1516 4384 1395 4259 
Q 1275 4134 1275 3809 
L 1275 3500 
L 2222 3500 
L 2222 3053 
L 1275 3053 
L 1275 0 
L 697 0 
L 697 3053 
L 147 3053 
L 147 3500 
L 697 3500 
L 697 3744 
Q 697 4328 969 4595 
Q 1241 4863 1831 4863 
L 2375 4863 
z
" transform="scale(0.015625)"/>
      <path id="DejaVuSans-61" d="M 2194 1759 
Q 1497 1759 1228 1600 
Q 959 1441 959 1056 
Q 959 750 1161 570 
Q 1363 391 1709 391 
Q 2188 391 2477 730 
Q 2766 1069 2766 1631 
L 2766 1759 
L 2194 1759 
z
M 3341 1997 
L 3341 0 
L 2766 0 
L 2766 531 
Q 2569 213 2275 61 
Q 1981 -91 1556 -91 
Q 1019 -91 701 211 
Q 384 513 384 1019 
Q 384 1609 779 1909 
Q 1175 2209 1959 2209 
L 2766 2209 
L 2766 2266 
Q 2766 2663 2505 2880 
Q 2244 3097 1772 3097 
Q 1472 3097 1187 3025 
Q 903 2953 641 2809 
L 641 3341 
Q 956 3463 1253 3523 
Q 1550 3584 1831 3584 
Q 2591 3584 2966 3190 
Q 3341 2797 3341 1997 
z
" transform="scale(0.015625)"/>
      <path id="DejaVuSans-73" d="M 2834 3397 
L 2834 2853 
Q 2591 2978 2328 3040 
Q 2066 3103 1784 3103 
Q 1356 3103 1142 2972 
Q 928 2841 928 2578 
Q 928 2378 1081 2264 
Q 1234 2150 1697 2047 
L 1894 2003 
Q 2506 1872 2764 1633 
Q 3022 1394 3022 966 
Q 3022 478 2636 193 
Q 2250 -91 1575 -91 
Q 1294 -91 989 -36 
Q 684 19 347 128 
L 347 722 
Q 666 556 975 473 
Q 1284 391 1588 391 
Q 1994 391 2212 530 
Q 2431 669 2431 922 
Q 2431 1156 2273 1281 
Q 2116 1406 1581 1522 
L 1381 1569 
Q 847 1681 609 1914 
Q 372 2147 372 2553 
Q 372 3047 722 3315 
Q 1072 3584 1716 3584 
Q 2034 3584 2315 3537 
Q 2597 3491 2834 3397 
z
" transform="scale(0.015625)"/>
      <path id="DejaVuSans-75" d="M 544 1381 
L 544 3500 
L 1119 3500 
L 1119 1403 
Q 1119 906 1312 657 
Q 1506 409 1894 409 
Q 2359 409 2629 706 
Q 2900 1003 2900 1516 
L 2900 3500 
L 3475 3500 
L 3475 0 
L 2900 0 
L 2900 538 
Q 2691 219 2414 64 
Q 2138 -91 1772 -91 
Q 1169 -91 856 284 
Q 544 659 544 1381 
z
M 1991 3584 
L 1991 3584 
z
" transform="scale(0.015625)"/>
      <path id="DejaVuSans-67" d="M 2906 1791 
Q 2906 2416 2648 2759 
Q 2391 3103 1925 3103 
Q 1463 3103 1205 2759 
Q 947 2416 947 1791 
Q 947 1169 1205 825 
Q 1463 481 1925 481 
Q 2391 481 2648 825 
Q 2906 1169 2906 1791 
z
M 3481 434 
Q 3481 -459 3084 -895 
Q 2688 -1331 1869 -1331 
Q 1566 -1331 1297 -1286 
Q 1028 -1241 775 -1147 
L 775 -588 
Q 1028 -725 1275 -790 
Q 1522 -856 1778 -856 
Q 2344 -856 2625 -561 
Q 2906 -266 2906 331 
L 2906 616 
Q 2728 306 2450 153 
Q 2172 0 1784 0 
Q 1141 0 747 490 
Q 353 981 353 1791 
Q 353 2603 747 3093 
Q 1141 3584 1784 3584 
Q 2172 3584 2450 3431 
Q 2728 3278 2906 2969 
L 2906 3500 
L 3481 3500 
L 3481 434 
z
" transform="scale(0.015625)"/>
     </defs>
     <use xlink:href="#DejaVuSans-4b"/>
     <use xlink:href="#DejaVuSans-65" transform="translate(60.576172 0)"/>
     <use xlink:href="#DejaVuSans-69" transform="translate(122.099609 0)"/>
     <use xlink:href="#DejaVuSans-6e" transform="translate(149.882812 0)"/>
     <use xlink:href="#DejaVuSans-65" transform="translate(213.261719 0)"/>
     <use xlink:href="#DejaVuSans-20" transform="translate(274.785156 0)"/>
     <use xlink:href="#DejaVuSans-45" transform="translate(306.572266 0)"/>
     <use xlink:href="#DejaVuSans-72" transform="translate(369.755859 0)"/>
     <use xlink:href="#DejaVuSans-66" transform="translate(410.869141 0)"/>
     <use xlink:href="#DejaVuSans-61" transform="translate(446.074219 0)"/>
     <use xlink:href="#DejaVuSans-73" transform="translate(507.353516 0)"/>
     <use xlink:href="#DejaVuSans-73" transform="translate(559.453125 0)"/>
     <use xlink:href="#DejaVuSans-75" transform="translate(611.552734 0)"/>
     <use xlink:href="#DejaVuSans-6e" transform="translate(674.931641 0)"/>
     <use xlink:href="#DejaVuSans-67" transform="translate(738.310547 0)"/>
    </g>
   </g>
   <g id="text_2">
    <!-- 8% -->
    <g transform="translate(681.218634 271.843871) scale(0.12 -0.12)">
     <defs>
      <path id="DejaVuSans-38" d="M 2034 2216 
Q 1584 2216 1326 1975 
Q 1069 1734 1069 1313 
Q 1069 891 1326 650 
Q 1584 409 2034 409 
Q 2484 409 2743 651 
Q 3003 894 3003 1313 
Q 3003 1734 2745 1975 
Q 2488 2216 2034 2216 
z
M 1403 2484 
Q 997 2584 770 2862 
Q 544 3141 544 3541 
Q 544 4100 942 4425 
Q 1341 4750 2034 4750 
Q 2731 4750 3128 4425 
Q 3525 4100 3525 3541 
Q 3525 3141 3298 2862 
Q 3072 2584 2669 2484 
Q 3125 2378 3379 2068 
Q 3634 1759 3634 1313 
Q 3634 634 3220 271 
Q 2806 -91 2034 -91 
Q 1263 -91 848 271 
Q 434 634 434 1313 
Q 434 1759 690 2068 
Q 947 2378 1403 2484 
z
M 1172 3481 
Q 1172 3119 1398 2916 
Q 1625 2713 2034 2713 
Q 2441 2713 2670 2916 
Q 2900 3119 2900 3481 
Q 2900 3844 2670 4047 
Q 2441 4250 2034 4250 
Q 1625 4250 1398 4047 
Q 1172 3844 1172 3481 
z
" transform="scale(0.015625)"/>
     </defs>
     <use xlink:href="#DejaVuSans-38"/>
     <use xlink:href="#DejaVuSans-25" transform="translate(63.623047 0)"/>
    </g>
    <!-- Manuelle Erfassung, keine -->
    <g transform="translate(681.218634 285.281246) scale(0.12 -0.12)">
     <defs>
      <path id="DejaVuSans-4d" d="M 628 4666 
L 1569 4666 
L 2759 1491 
L 3956 4666 
L 4897 4666 
L 4897 0 
L 4281 0 
L 4281 4097 
L 3078 897 
L 2444 897 
L 1241 4097 
L 1241 0 
L 628 0 
L 628 4666 
z
" transform="scale(0.015625)"/>
      <path id="DejaVuSans-6c" d="M 603 4863 
L 1178 4863 
L 1178 0 
L 603 0 
L 603 4863 
z
" transform="scale(0.015625)"/>
      <path id="DejaVuSans-2c" d="M 750 794 
L 1409 794 
L 1409 256 
L 897 -744 
L 494 -744 
L 750 256 
L 750 794 
z
" transform="scale(0.015625)"/>
      <path id="DejaVuSans-6b" d="M 581 4863 
L 1159 4863 
L 1159 1991 
L 2875 3500 
L 3609 3500 
L 1753 1863 
L 3688 0 
L 2938 0 
L 1159 1709 
L 1159 0 
L 581 0 
L 581 4863 
z
" transform="scale(0.015625)"/>
     </defs>
     <use xlink:href="#DejaVuSans-4d"/>
     <use xlink:href="#DejaVuSans-61" transform="translate(86.279297 0)"/>
     <use xlink:href="#DejaVuSans-6e" transform="translate(147.558594 0)"/>
     <use xlink:href="#DejaVuSans-75" transform="translate(210.9375 0)"/>
     <use xlink:href="#DejaVuSans-65" transform="translate(274.316406 0)"/>
     <use xlink:href="#DejaVuSans-6c" transform="translate(335.839844 0)"/>
     <use xlink:href="#DejaVuSans-6c" transform="translate(363.623047 0)"/>
     <use xlink:href="#DejaVuSans-65" transform="translate(391.40625 0)"/>
     <use xlink:href="#DejaVuSans-20" transform="translate(452.929688 0)"/>
     <use xlink:href="#DejaVuSans-45" transform="translate(484.716797 0)"/>
     <use xlink:href="#DejaVuSans-72" transform="translate(547.900391 0)"/>
     <use xlink:href="#DejaVuSans-66" transform="translate(589.013672 0)"/>
     <use xlink:href="#DejaVuSans-61" transform="translate(624.21875 0)"/>
     <use xlink:href="#DejaVuSans-73" transform="translate(685.498047 0)"/>
     <use xlink:href="#DejaVuSans-73" transform="translate(737.597656 0)"/>
     <use xlink:href="#DejaVuSans-75" transform="translate(789.697266 0)"/>
     <use xlink:href="#DejaVuSans-6e" transform="translate(853.076172 0)"/>
     <use xlink:href="#DejaVuSans-67" transform="translate(916.455078 0)"/>
     <use xlink:href="#DejaVuSans-2c" transform="translate(979.931641 0)"/>
     <use xlink:href="#DejaVuSans-20" transform="translate(1011.71875 0)"/>
     <use xlink:href="#DejaVuSans-6b" transform="translate(1043.505859 0)"/>
     <use xlink:href="#DejaVuSans-65" transform="translate(1097.791016 0)"/>
     <use xlink:href="#DejaVuSans-69" transform="translate(1159.314453 0)"/>
     <use xlink:href="#DejaVuSans-6e" transform="translate(1187.097656 0)"/>
     <use xlink:href="#DejaVuSans-65" transform="translate(1250.476562 0)"/>
    </g>
    <!-- Nutzung -->
    <g transform="translate(681.218634 298.718621) scale(0.12 -0.12)">
     <defs>
      <path id="DejaVuSans-4e" d="M 628 4666 
L 1478 4666 
L 3547 763 
L 3547 4666 
L 4159 4666 
L 4159 0 
L 3309 0 
L 1241 3903 
L 1241 0 
L 628 0 
L 628 4666 
z
" transform="scale(0.015625)"/>
      <path id="DejaVuSans-74" d="M 1172 4494 
L 1172 3500 
L 2356 3500 
L 2356 3053 
L 1172 3053 
L 1172 1153 
Q 1172 725 1289 603 
Q 1406 481 1766 481 
L 2356 481 
L 2356 0 
L 1766 0 
Q 1100 0 847 248 
Q 594 497 594 1153 
L 594 3053 
L 172 3053 
L 172 3500 
L 594 3500 
L 594 4494 
L 1172 4494 
z
" transform="scale(0.015625)"/>
      <path id="DejaVuSans-7a" d="M 353 3500 
L 3084 3500 
L 3084 2975 
L 922 459 
L 3084 459 
L 3084 0 
L 275 0 
L 275 525 
L 2438 3041 
L 353 3041 
L 353 3500 
z
" transform="scale(0.015625)"/>
     </defs>
     <use xlink:href="#DejaVuSans-4e"/>
     <use xlink:href="#DejaVuSans-75" transform="translate(74.804688 0)"/>
     <use xlink:href="#DejaVuSans-74" transform="translate(138.183594 0)"/>
     <use xlink:href="#DejaVuSans-7a" transform="translate(177.392578 0)"/>
     <use xlink:href="#DejaVuSans-75" transform="translate(229.882812 0)"/>
     <use xlink:href="#DejaVuSans-6e" transform="translate(293.261719 0)"/>
     <use xlink:href="#DejaVuSans-67" transform="translate(356.640625 0)"/>
    </g>
   </g>
   <g id="text_3">
    <!-- 17% -->
    <g transform="translate(606.008053 418.898062) scale(0.12 -0.12)">
     <defs>
      <path id="DejaVuSans-31" d="M 794 531 
L 1825 531 
L 1825 4091 
L 703 3866 
L 703 4441 
L 1819 4666 
L 2450 4666 
L 2450 531 
L 3481 531 
L 3481 0 
L 794 0 
L 794 531 
z
" transform="scale(0.015625)"/>
      <path id="DejaVuSans-37" d="M 525 4666 
L 3525 4666 
L 3525 4397 
L 1831 0 
L 1172 0 
L 2766 4134 
L 525 4134 
L 525 4666 
z
" transform="scale(0.015625)"/>
     </defs>
     <use xlink:href="#DejaVuSans-31"/>
     <use xlink:href="#DejaVuSans-37" transform="translate(63.623047 0)"/>
     <use xlink:href="#DejaVuSans-25" transform="translate(127.246094 0)"/>
    </g>
    <!-- Manuelle Erfassung, manuelle -->
    <g transform="translate(606.008053 432.335437) scale(0.12 -0.12)">
     <defs>
      <path id="DejaVuSans-6d" d="M 3328 2828 
Q 3544 3216 3844 3400 
Q 4144 3584 4550 3584 
Q 5097 3584 5394 3201 
Q 5691 2819 5691 2113 
L 5691 0 
L 5113 0 
L 5113 2094 
Q 5113 2597 4934 2840 
Q 4756 3084 4391 3084 
Q 3944 3084 3684 2787 
Q 3425 2491 3425 1978 
L 3425 0 
L 2847 0 
L 2847 2094 
Q 2847 2600 2669 2842 
Q 2491 3084 2119 3084 
Q 1678 3084 1418 2786 
Q 1159 2488 1159 1978 
L 1159 0 
L 581 0 
L 581 3500 
L 1159 3500 
L 1159 2956 
Q 1356 3278 1631 3431 
Q 1906 3584 2284 3584 
Q 2666 3584 2933 3390 
Q 3200 3197 3328 2828 
z
" transform="scale(0.015625)"/>
     </defs>
     <use xlink:href="#DejaVuSans-4d"/>
     <use xlink:href="#DejaVuSans-61" transform="translate(86.279297 0)"/>
     <use xlink:href="#DejaVuSans-6e" transform="translate(147.558594 0)"/>
     <use xlink:href="#DejaVuSans-75" transform="translate(210.9375 0)"/>
     <use xlink:href="#DejaVuSans-65" transform="translate(274.316406 0)"/>
     <use xlink:href="#DejaVuSans-6c" transform="translate(335.839844 0)"/>
     <use xlink:href="#DejaVuSans-6c" transform="translate(363.623047 0)"/>
     <use xlink:href="#DejaVuSans-65" transform="translate(391.40625 0)"/>
     <use xlink:href="#DejaVuSans-20" transform="translate(452.929688 0)"/>
     <use xlink:href="#DejaVuSans-45" transform="translate(484.716797 0)"/>
     <use xlink:href="#DejaVuSans-72" transform="translate(547.900391 0)"/>
     <use xlink:href="#DejaVuSans-66" transform="translate(589.013672 0)"/>
     <use xlink:href="#DejaVuSans-61" transform="translate(624.21875 0)"/>
     <use xlink:href="#DejaVuSans-73" transform="translate(685.498047 0)"/>
     <use xlink:href="#DejaVuSans-73" transform="translate(737.597656 0)"/>
     <use xlink:href="#DejaVuSans-75" transform="translate(789.697266 0)"/>
     <use xlink:href="#DejaVuSans-6e" transform="translate(853.076172 0)"/>
     <use xlink:href="#DejaVuSans-67" transform="translate(916.455078 0)"/>
     <use xlink:href="#DejaVuSans-2c" transform="translate(979.931641 0)"/>
     <use xlink:href="#DejaVuSans-20" transform="translate(1011.71875 0)"/>
     <use xlink:href="#DejaVuSans-6d" transform="translate(1043.505859 0)"/>
     <use xlink:href="#DejaVuSans-61" transform="translate(1140.917969 0)"/>
     <use xlink:href="#DejaVuSans-6e" transform="translate(1202.197266 0)"/>
     <use xlink:href="#DejaVuSans-75" transform="translate(1265.576172 0)"/>
     <use xlink:href="#DejaVuSans-65" transform="translate(1328.955078 0)"/>
     <use xlink:href="#DejaVuSans-6c" transform="translate(1390.478516 0)"/>
     <use xlink:href="#DejaVuSans-6c" transform="translate(1418.261719 0)"/>
     <use xlink:href="#DejaVuSans-65" transform="translate(1446.044922 0)"/>
    </g>
    <!-- Auswertung -->
    <g transform="translate(606.008053 445.772812) scale(0.12 -0.12)">
     <defs>
      <path id="DejaVuSans-41" d="M 2188 4044 
L 1331 1722 
L 3047 1722 
L 2188 4044 
z
M 1831 4666 
L 2547 4666 
L 4325 0 
L 3669 0 
L 3244 1197 
L 1141 1197 
L 716 0 
L 50 0 
L 1831 4666 
z
" transform="scale(0.015625)"/>
      <path id="DejaVuSans-77" d="M 269 3500 
L 844 3500 
L 1563 769 
L 2278 3500 
L 2956 3500 
L 3675 769 
L 4391 3500 
L 4966 3500 
L 4050 0 
L 3372 0 
L 2619 2869 
L 1863 0 
L 1184 0 
L 269 3500 
z
" transform="scale(0.015625)"/>
     </defs>
     <use xlink:href="#DejaVuSans-41"/>
     <use xlink:href="#DejaVuSans-75" transform="translate(68.408203 0)"/>
     <use xlink:href="#DejaVuSans-73" transform="translate(131.787109 0)"/>
     <use xlink:href="#DejaVuSans-77" transform="translate(183.886719 0)"/>
     <use xlink:href="#DejaVuSans-65" transform="translate(265.673828 0)"/>
     <use xlink:href="#DejaVuSans-72" transform="translate(327.197266 0)"/>
     <use xlink:href="#DejaVuSans-74" transform="translate(368.310547 0)"/>
     <use xlink:href="#DejaVuSans-75" transform="translate(407.519531 0)"/>
     <use xlink:href="#DejaVuSans-6e" transform="translate(470.898438 0)"/>
     <use xlink:href="#DejaVuSans-67" transform="translate(534.277344 0)"/>
    </g>
   </g>
   <g id="text_4">
    <!-- 17% -->
    <g transform="translate(358.74249 452.802848) scale(0.12 -0.12)">
     <use xlink:href="#DejaVuSans-31"/>
     <use xlink:href="#DejaVuSans-37" transform="translate(63.623047 0)"/>
     <use xlink:href="#DejaVuSans-25" transform="translate(127.246094 0)"/>
    </g>
    <!-- Automatisierte Erfassung, -->
    <g transform="translate(229.43124 466.240223) scale(0.12 -0.12)">
     <defs>
      <path id="DejaVuSans-6f" d="M 1959 3097 
Q 1497 3097 1228 2736 
Q 959 2375 959 1747 
Q 959 1119 1226 758 
Q 1494 397 1959 397 
Q 2419 397 2687 759 
Q 2956 1122 2956 1747 
Q 2956 2369 2687 2733 
Q 2419 3097 1959 3097 
z
M 1959 3584 
Q 2709 3584 3137 3096 
Q 3566 2609 3566 1747 
Q 3566 888 3137 398 
Q 2709 -91 1959 -91 
Q 1206 -91 779 398 
Q 353 888 353 1747 
Q 353 2609 779 3096 
Q 1206 3584 1959 3584 
z
" transform="scale(0.015625)"/>
     </defs>
     <use xlink:href="#DejaVuSans-41"/>
     <use xlink:href="#DejaVuSans-75" transform="translate(68.408203 0)"/>
     <use xlink:href="#DejaVuSans-74" transform="translate(131.787109 0)"/>
     <use xlink:href="#DejaVuSans-6f" transform="translate(170.996094 0)"/>
     <use xlink:href="#DejaVuSans-6d" transform="translate(232.177734 0)"/>
     <use xlink:href="#DejaVuSans-61" transform="translate(329.589844 0)"/>
     <use xlink:href="#DejaVuSans-74" transform="translate(390.869141 0)"/>
     <use xlink:href="#DejaVuSans-69" transform="translate(430.078125 0)"/>
     <use xlink:href="#DejaVuSans-73" transform="translate(457.861328 0)"/>
     <use xlink:href="#DejaVuSans-69" transform="translate(509.960938 0)"/>
     <use xlink:href="#DejaVuSans-65" transform="translate(537.744141 0)"/>
     <use xlink:href="#DejaVuSans-72" transform="translate(599.267578 0)"/>
     <use xlink:href="#DejaVuSans-74" transform="translate(640.380859 0)"/>
     <use xlink:href="#DejaVuSans-65" transform="translate(679.589844 0)"/>
     <use xlink:href="#DejaVuSans-20" transform="translate(741.113281 0)"/>
     <use xlink:href="#DejaVuSans-45" transform="translate(772.900391 0)"/>
     <use xlink:href="#DejaVuSans-72" transform="translate(836.083984 0)"/>
     <use xlink:href="#DejaVuSans-66" transform="translate(877.197266 0)"/>
     <use xlink:href="#DejaVuSans-61" transform="translate(912.402344 0)"/>
     <use xlink:href="#DejaVuSans-73" transform="translate(973.681641 0)"/>
     <use xlink:href="#DejaVuSans-73" transform="translate(1025.78125 0)"/>
     <use xlink:href="#DejaVuSans-75" transform="translate(1077.880859 0)"/>
     <use xlink:href="#DejaVuSans-6e" transform="translate(1141.259766 0)"/>
     <use xlink:href="#DejaVuSans-67" transform="translate(1204.638672 0)"/>
     <use xlink:href="#DejaVuSans-2c" transform="translate(1268.115234 0)"/>
    </g>
    <!-- manuelle Auswertung -->
    <g transform="translate(254.18499 479.677598) scale(0.12 -0.12)">
     <use xlink:href="#DejaVuSans-6d"/>
     <use xlink:href="#DejaVuSans-61" transform="translate(97.412109 0)"/>
     <use xlink:href="#DejaVuSans-6e" transform="translate(158.691406 0)"/>
     <use xlink:href="#DejaVuSans-75" transform="translate(222.070312 0)"/>
     <use xlink:href="#DejaVuSans-65" transform="translate(285.449219 0)"/>
     <use xlink:href="#DejaVuSans-6c" transform="translate(346.972656 0)"/>
     <use xlink:href="#DejaVuSans-6c" transform="translate(374.755859 0)"/>
     <use xlink:href="#DejaVuSans-65" transform="translate(402.539062 0)"/>
     <use xlink:href="#DejaVuSans-20" transform="translate(464.0625 0)"/>
     <use xlink:href="#DejaVuSans-41" transform="translate(495.849609 0)"/>
     <use xlink:href="#DejaVuSans-75" transform="translate(564.257812 0)"/>
     <use xlink:href="#DejaVuSans-73" transform="translate(627.636719 0)"/>
     <use xlink:href="#DejaVuSans-77" transform="translate(679.736328 0)"/>
     <use xlink:href="#DejaVuSans-65" transform="translate(761.523438 0)"/>
     <use xlink:href="#DejaVuSans-72" transform="translate(823.046875 0)"/>
     <use xlink:href="#DejaVuSans-74" transform="translate(864.160156 0)"/>
     <use xlink:href="#DejaVuSans-75" transform="translate(903.369141 0)"/>
     <use xlink:href="#DejaVuSans-6e" transform="translate(966.748047 0)"/>
     <use xlink:href="#DejaVuSans-67" transform="translate(1030.126953 0)"/>
    </g>
   </g>
   <g id="text_5">
    <!-- 20% -->
    <g transform="translate(227.512985 252.292879) scale(0.12 -0.12)">
     <defs>
      <path id="DejaVuSans-30" d="M 2034 4250 
Q 1547 4250 1301 3770 
Q 1056 3291 1056 2328 
Q 1056 1369 1301 889 
Q 1547 409 2034 409 
Q 2525 409 2770 889 
Q 3016 1369 3016 2328 
Q 3016 3291 2770 3770 
Q 2525 4250 2034 4250 
z
M 2034 4750 
Q 2819 4750 3233 4129 
Q 3647 3509 3647 2328 
Q 3647 1150 3233 529 
Q 2819 -91 2034 -91 
Q 1250 -91 836 529 
Q 422 1150 422 2328 
Q 422 3509 836 4129 
Q 1250 4750 2034 4750 
z
" transform="scale(0.015625)"/>
     </defs>
     <use xlink:href="#DejaVuSans-32"/>
     <use xlink:href="#DejaVuSans-30" transform="translate(63.623047 0)"/>
     <use xlink:href="#DejaVuSans-25" transform="translate(127.246094 0)"/>
    </g>
    <!-- Automatisierte Erfassung, -->
    <g transform="translate(98.201735 265.730254) scale(0.12 -0.12)">
     <use xlink:href="#DejaVuSans-41"/>
     <use xlink:href="#DejaVuSans-75" transform="translate(68.408203 0)"/>
     <use xlink:href="#DejaVuSans-74" transform="translate(131.787109 0)"/>
     <use xlink:href="#DejaVuSans-6f" transform="translate(170.996094 0)"/>
     <use xlink:href="#DejaVuSans-6d" transform="translate(232.177734 0)"/>
     <use xlink:href="#DejaVuSans-61" transform="translate(329.589844 0)"/>
     <use xlink:href="#DejaVuSans-74" transform="translate(390.869141 0)"/>
     <use xlink:href="#DejaVuSans-69" transform="translate(430.078125 0)"/>
     <use xlink:href="#DejaVuSans-73" transform="translate(457.861328 0)"/>
     <use xlink:href="#DejaVuSans-69" transform="translate(509.960938 0)"/>
     <use xlink:href="#DejaVuSans-65" transform="translate(537.744141 0)"/>
     <use xlink:href="#DejaVuSans-72" transform="translate(599.267578 0)"/>
     <use xlink:href="#DejaVuSans-74" transform="translate(640.380859 0)"/>
     <use xlink:href="#DejaVuSans-65" transform="translate(679.589844 0)"/>
     <use xlink:href="#DejaVuSans-20" transform="translate(741.113281 0)"/>
     <use xlink:href="#DejaVuSans-45" transform="translate(772.900391 0)"/>
     <use xlink:href="#DejaVuSans-72" transform="translate(836.083984 0)"/>
     <use xlink:href="#DejaVuSans-66" transform="translate(877.197266 0)"/>
     <use xlink:href="#DejaVuSans-61" transform="translate(912.402344 0)"/>
     <use xlink:href="#DejaVuSans-73" transform="translate(973.681641 0)"/>
     <use xlink:href="#DejaVuSans-73" transform="translate(1025.78125 0)"/>
     <use xlink:href="#DejaVuSans-75" transform="translate(1077.880859 0)"/>
     <use xlink:href="#DejaVuSans-6e" transform="translate(1141.259766 0)"/>
     <use xlink:href="#DejaVuSans-67" transform="translate(1204.638672 0)"/>
     <use xlink:href="#DejaVuSans-2c" transform="translate(1268.115234 0)"/>
    </g>
    <!-- automatisierte Auswertung -->
    <g transform="translate(90.566735 279.167629) scale(0.12 -0.12)">
     <use xlink:href="#DejaVuSans-61"/>
     <use xlink:href="#DejaVuSans-75" transform="translate(61.279297 0)"/>
     <use xlink:href="#DejaVuSans-74" transform="translate(124.658203 0)"/>
     <use xlink:href="#DejaVuSans-6f" transform="translate(163.867188 0)"/>
     <use xlink:href="#DejaVuSans-6d" transform="translate(225.048828 0)"/>
     <use xlink:href="#DejaVuSans-61" transform="translate(322.460938 0)"/>
     <use xlink:href="#DejaVuSans-74" transform="translate(383.740234 0)"/>
     <use xlink:href="#DejaVuSans-69" transform="translate(422.949219 0)"/>
     <use xlink:href="#DejaVuSans-73" transform="translate(450.732422 0)"/>
     <use xlink:href="#DejaVuSans-69" transform="translate(502.832031 0)"/>
     <use xlink:href="#DejaVuSans-65" transform="translate(530.615234 0)"/>
     <use xlink:href="#DejaVuSans-72" transform="translate(592.138672 0)"/>
     <use xlink:href="#DejaVuSans-74" transform="translate(633.251953 0)"/>
     <use xlink:href="#DejaVuSans-65" transform="translate(672.460938 0)"/>
     <use xlink:href="#DejaVuSans-20" transform="translate(733.984375 0)"/>
     <use xlink:href="#DejaVuSans-41" transform="translate(765.771484 0)"/>
     <use xlink:href="#DejaVuSans-75" transform="translate(834.179688 0)"/>
     <use xlink:href="#DejaVuSans-73" transform="translate(897.558594 0)"/>
     <use xlink:href="#DejaVuSans-77" transform="translate(949.658203 0)"/>
     <use xlink:href="#DejaVuSans-65" transform="translate(1031.445312 0)"/>
     <use xlink:href="#DejaVuSans-72" transform="translate(1092.96875 0)"/>
     <use xlink:href="#DejaVuSans-74" transform="translate(1134.082031 0)"/>
     <use xlink:href="#DejaVuSans-75" transform="translate(1173.291016 0)"/>
     <use xlink:href="#DejaVuSans-6e" transform="translate(1236.669922 0)"/>
     <use xlink:href="#DejaVuSans-67" transform="translate(1300.048828 0)"/>
    </g>
   </g>
   <g id="text_6">
    <!-- 15% -->
    <g transform="translate(346.871034 70.425223) scale(0.12 -0.12)">
     <defs>
      <path id="DejaVuSans-35" d="M 691 4666 
L 3169 4666 
L 3169 4134 
L 1269 4134 
L 1269 2991 
Q 1406 3038 1543 3061 
Q 1681 3084 1819 3084 
Q 2600 3084 3056 2656 
Q 3513 2228 3513 1497 
Q 3513 744 3044 326 
Q 2575 -91 1722 -91 
Q 1428 -91 1123 -41 
Q 819 9 494 109 
L 494 744 
Q 775 591 1075 516 
Q 1375 441 1709 441 
Q 2250 441 2565 725 
Q 2881 1009 2881 1497 
Q 2881 1984 2565 2268 
Q 2250 2553 1709 2553 
Q 1456 2553 1204 2497 
Q 953 2441 691 2322 
L 691 4666 
z
" transform="scale(0.015625)"/>
     </defs>
     <use xlink:href="#DejaVuSans-31"/>
     <use xlink:href="#DejaVuSans-35" transform="translate(63.623047 0)"/>
     <use xlink:href="#DejaVuSans-25" transform="translate(127.246094 0)"/>
    </g>
    <!-- Keine Antwort -->
    <g transform="translate(289.441659 83.862598) scale(0.12 -0.12)">
     <use xlink:href="#DejaVuSans-4b"/>
     <use xlink:href="#DejaVuSans-65" transform="translate(60.576172 0)"/>
     <use xlink:href="#DejaVuSans-69" transform="translate(122.099609 0)"/>
     <use xlink:href="#DejaVuSans-6e" transform="translate(149.882812 0)"/>
     <use xlink:href="#DejaVuSans-65" transform="translate(213.261719 0)"/>
     <use xlink:href="#DejaVuSans-20" transform="translate(274.785156 0)"/>
     <use xlink:href="#DejaVuSans-41" transform="translate(306.572266 0)"/>
     <use xlink:href="#DejaVuSans-6e" transform="translate(374.980469 0)"/>
     <use xlink:href="#DejaVuSans-74" transform="translate(438.359375 0)"/>
     <use xlink:href="#DejaVuSans-77" transform="translate(477.568359 0)"/>
     <use xlink:href="#DejaVuSans-6f" transform="translate(559.355469 0)"/>
     <use xlink:href="#DejaVuSans-72" transform="translate(620.537109 0)"/>
     <use xlink:href="#DejaVuSans-74" transform="translate(661.650391 0)"/>
    </g>
   </g>
  </g>
  <g id="text_7">
   <!-- Intralogistik(z.B. Ort und Status von Ladungsträgern, Transportmitteln, ...) -->
   <g transform="translate(245.699062 22.078125) scale(0.12 -0.12)">
    <defs>
     <path id="DejaVuSans-49" d="M 628 4666 
L 1259 4666 
L 1259 0 
L 628 0 
L 628 4666 
z
" transform="scale(0.015625)"/>
     <path id="DejaVuSans-28" d="M 1984 4856 
Q 1566 4138 1362 3434 
Q 1159 2731 1159 2009 
Q 1159 1288 1364 580 
Q 1569 -128 1984 -844 
L 1484 -844 
Q 1016 -109 783 600 
Q 550 1309 550 2009 
Q 550 2706 781 3412 
Q 1013 4119 1484 4856 
L 1984 4856 
z
" transform="scale(0.015625)"/>
     <path id="DejaVuSans-2e" d="M 684 794 
L 1344 794 
L 1344 0 
L 684 0 
L 684 794 
z
" transform="scale(0.015625)"/>
     <path id="DejaVuSans-42" d="M 1259 2228 
L 1259 519 
L 2272 519 
Q 2781 519 3026 730 
Q 3272 941 3272 1375 
Q 3272 1813 3026 2020 
Q 2781 2228 2272 2228 
L 1259 2228 
z
M 1259 4147 
L 1259 2741 
L 2194 2741 
Q 2656 2741 2882 2914 
Q 3109 3088 3109 3444 
Q 3109 3797 2882 3972 
Q 2656 4147 2194 4147 
L 1259 4147 
z
M 628 4666 
L 2241 4666 
Q 2963 4666 3353 4366 
Q 3744 4066 3744 3513 
Q 3744 3084 3544 2831 
Q 3344 2578 2956 2516 
Q 3422 2416 3680 2098 
Q 3938 1781 3938 1306 
Q 3938 681 3513 340 
Q 3088 0 2303 0 
L 628 0 
L 628 4666 
z
" transform="scale(0.015625)"/>
     <path id="DejaVuSans-4f" d="M 2522 4238 
Q 1834 4238 1429 3725 
Q 1025 3213 1025 2328 
Q 1025 1447 1429 934 
Q 1834 422 2522 422 
Q 3209 422 3611 934 
Q 4013 1447 4013 2328 
Q 4013 3213 3611 3725 
Q 3209 4238 2522 4238 
z
M 2522 4750 
Q 3503 4750 4090 4092 
Q 4678 3434 4678 2328 
Q 4678 1225 4090 567 
Q 3503 -91 2522 -91 
Q 1538 -91 948 565 
Q 359 1222 359 2328 
Q 359 3434 948 4092 
Q 1538 4750 2522 4750 
z
" transform="scale(0.015625)"/>
     <path id="DejaVuSans-64" d="M 2906 2969 
L 2906 4863 
L 3481 4863 
L 3481 0 
L 2906 0 
L 2906 525 
Q 2725 213 2448 61 
Q 2172 -91 1784 -91 
Q 1150 -91 751 415 
Q 353 922 353 1747 
Q 353 2572 751 3078 
Q 1150 3584 1784 3584 
Q 2172 3584 2448 3432 
Q 2725 3281 2906 2969 
z
M 947 1747 
Q 947 1113 1208 752 
Q 1469 391 1925 391 
Q 2381 391 2643 752 
Q 2906 1113 2906 1747 
Q 2906 2381 2643 2742 
Q 2381 3103 1925 3103 
Q 1469 3103 1208 2742 
Q 947 2381 947 1747 
z
" transform="scale(0.015625)"/>
     <path id="DejaVuSans-53" d="M 3425 4513 
L 3425 3897 
Q 3066 4069 2747 4153 
Q 2428 4238 2131 4238 
Q 1616 4238 1336 4038 
Q 1056 3838 1056 3469 
Q 1056 3159 1242 3001 
Q 1428 2844 1947 2747 
L 2328 2669 
Q 3034 2534 3370 2195 
Q 3706 1856 3706 1288 
Q 3706 609 3251 259 
Q 2797 -91 1919 -91 
Q 1588 -91 1214 -16 
Q 841 59 441 206 
L 441 856 
Q 825 641 1194 531 
Q 1563 422 1919 422 
Q 2459 422 2753 634 
Q 3047 847 3047 1241 
Q 3047 1584 2836 1778 
Q 2625 1972 2144 2069 
L 1759 2144 
Q 1053 2284 737 2584 
Q 422 2884 422 3419 
Q 422 4038 858 4394 
Q 1294 4750 2059 4750 
Q 2388 4750 2728 4690 
Q 3069 4631 3425 4513 
z
" transform="scale(0.015625)"/>
     <path id="DejaVuSans-76" d="M 191 3500 
L 800 3500 
L 1894 563 
L 2988 3500 
L 3597 3500 
L 2284 0 
L 1503 0 
L 191 3500 
z
" transform="scale(0.015625)"/>
     <path id="DejaVuSans-4c" d="M 628 4666 
L 1259 4666 
L 1259 531 
L 3531 531 
L 3531 0 
L 628 0 
L 628 4666 
z
" transform="scale(0.015625)"/>
     <path id="DejaVuSans-e4" d="M 2194 1759 
Q 1497 1759 1228 1600 
Q 959 1441 959 1056 
Q 959 750 1161 570 
Q 1363 391 1709 391 
Q 2188 391 2477 730 
Q 2766 1069 2766 1631 
L 2766 1759 
L 2194 1759 
z
M 3341 1997 
L 3341 0 
L 2766 0 
L 2766 531 
Q 2569 213 2275 61 
Q 1981 -91 1556 -91 
Q 1019 -91 701 211 
Q 384 513 384 1019 
Q 384 1609 779 1909 
Q 1175 2209 1959 2209 
L 2766 2209 
L 2766 2266 
Q 2766 2663 2505 2880 
Q 2244 3097 1772 3097 
Q 1472 3097 1187 3025 
Q 903 2953 641 2809 
L 641 3341 
Q 956 3463 1253 3523 
Q 1550 3584 1831 3584 
Q 2591 3584 2966 3190 
Q 3341 2797 3341 1997 
z
M 2150 4850 
L 2784 4850 
L 2784 4219 
L 2150 4219 
L 2150 4850 
z
M 928 4850 
L 1562 4850 
L 1562 4219 
L 928 4219 
L 928 4850 
z
" transform="scale(0.015625)"/>
     <path id="DejaVuSans-54" d="M -19 4666 
L 3928 4666 
L 3928 4134 
L 2272 4134 
L 2272 0 
L 1638 0 
L 1638 4134 
L -19 4134 
L -19 4666 
z
" transform="scale(0.015625)"/>
     <path id="DejaVuSans-70" d="M 1159 525 
L 1159 -1331 
L 581 -1331 
L 581 3500 
L 1159 3500 
L 1159 2969 
Q 1341 3281 1617 3432 
Q 1894 3584 2278 3584 
Q 2916 3584 3314 3078 
Q 3713 2572 3713 1747 
Q 3713 922 3314 415 
Q 2916 -91 2278 -91 
Q 1894 -91 1617 61 
Q 1341 213 1159 525 
z
M 3116 1747 
Q 3116 2381 2855 2742 
Q 2594 3103 2138 3103 
Q 1681 3103 1420 2742 
Q 1159 2381 1159 1747 
Q 1159 1113 1420 752 
Q 1681 391 2138 391 
Q 2594 391 2855 752 
Q 3116 1113 3116 1747 
z
" transform="scale(0.015625)"/>
     <path id="DejaVuSans-29" d="M 513 4856 
L 1013 4856 
Q 1481 4119 1714 3412 
Q 1947 2706 1947 2009 
Q 1947 1309 1714 600 
Q 1481 -109 1013 -844 
L 513 -844 
Q 928 -128 1133 580 
Q 1338 1288 1338 2009 
Q 1338 2731 1133 3434 
Q 928 4138 513 4856 
z
" transform="scale(0.015625)"/>
    </defs>
    <use xlink:href="#DejaVuSans-49"/>
    <use xlink:href="#DejaVuSans-6e" transform="translate(29.492188 0)"/>
    <use xlink:href="#DejaVuSans-74" transform="translate(92.871094 0)"/>
    <use xlink:href="#DejaVuSans-72" transform="translate(132.080078 0)"/>
    <use xlink:href="#DejaVuSans-61" transform="translate(173.193359 0)"/>
    <use xlink:href="#DejaVuSans-6c" transform="translate(234.472656 0)"/>
    <use xlink:href="#DejaVuSans-6f" transform="translate(262.255859 0)"/>
    <use xlink:href="#DejaVuSans-67" transform="translate(323.4375 0)"/>
    <use xlink:href="#DejaVuSans-69" transform="translate(386.914062 0)"/>
    <use xlink:href="#DejaVuSans-73" transform="translate(414.697266 0)"/>
    <use xlink:href="#DejaVuSans-74" transform="translate(466.796875 0)"/>
    <use xlink:href="#DejaVuSans-69" transform="translate(506.005859 0)"/>
    <use xlink:href="#DejaVuSans-6b" transform="translate(533.789062 0)"/>
    <use xlink:href="#DejaVuSans-28" transform="translate(591.699219 0)"/>
    <use xlink:href="#DejaVuSans-7a" transform="translate(630.712891 0)"/>
    <use xlink:href="#DejaVuSans-2e" transform="translate(683.203125 0)"/>
    <use xlink:href="#DejaVuSans-42" transform="translate(714.990234 0)"/>
    <use xlink:href="#DejaVuSans-2e" transform="translate(783.59375 0)"/>
    <use xlink:href="#DejaVuSans-20" transform="translate(815.380859 0)"/>
    <use xlink:href="#DejaVuSans-4f" transform="translate(847.167969 0)"/>
    <use xlink:href="#DejaVuSans-72" transform="translate(925.878906 0)"/>
    <use xlink:href="#DejaVuSans-74" transform="translate(966.992188 0)"/>
    <use xlink:href="#DejaVuSans-20" transform="translate(1006.201172 0)"/>
    <use xlink:href="#DejaVuSans-75" transform="translate(1037.988281 0)"/>
    <use xlink:href="#DejaVuSans-6e" transform="translate(1101.367188 0)"/>
    <use xlink:href="#DejaVuSans-64" transform="translate(1164.746094 0)"/>
    <use xlink:href="#DejaVuSans-20" transform="translate(1228.222656 0)"/>
    <use xlink:href="#DejaVuSans-53" transform="translate(1260.009766 0)"/>
    <use xlink:href="#DejaVuSans-74" transform="translate(1323.486328 0)"/>
    <use xlink:href="#DejaVuSans-61" transform="translate(1362.695312 0)"/>
    <use xlink:href="#DejaVuSans-74" transform="translate(1423.974609 0)"/>
    <use xlink:href="#DejaVuSans-75" transform="translate(1463.183594 0)"/>
    <use xlink:href="#DejaVuSans-73" transform="translate(1526.5625 0)"/>
    <use xlink:href="#DejaVuSans-20" transform="translate(1578.662109 0)"/>
    <use xlink:href="#DejaVuSans-76" transform="translate(1610.449219 0)"/>
    <use xlink:href="#DejaVuSans-6f" transform="translate(1669.628906 0)"/>
    <use xlink:href="#DejaVuSans-6e" transform="translate(1730.810547 0)"/>
    <use xlink:href="#DejaVuSans-20" transform="translate(1794.189453 0)"/>
    <use xlink:href="#DejaVuSans-4c" transform="translate(1825.976562 0)"/>
    <use xlink:href="#DejaVuSans-61" transform="translate(1881.689453 0)"/>
    <use xlink:href="#DejaVuSans-64" transform="translate(1942.96875 0)"/>
    <use xlink:href="#DejaVuSans-75" transform="translate(2006.445312 0)"/>
    <use xlink:href="#DejaVuSans-6e" transform="translate(2069.824219 0)"/>
    <use xlink:href="#DejaVuSans-67" transform="translate(2133.203125 0)"/>
    <use xlink:href="#DejaVuSans-73" transform="translate(2196.679688 0)"/>
    <use xlink:href="#DejaVuSans-74" transform="translate(2248.779297 0)"/>
    <use xlink:href="#DejaVuSans-72" transform="translate(2287.988281 0)"/>
    <use xlink:href="#DejaVuSans-e4" transform="translate(2329.101562 0)"/>
    <use xlink:href="#DejaVuSans-67" transform="translate(2390.380859 0)"/>
    <use xlink:href="#DejaVuSans-65" transform="translate(2453.857422 0)"/>
    <use xlink:href="#DejaVuSans-72" transform="translate(2515.380859 0)"/>
    <use xlink:href="#DejaVuSans-6e" transform="translate(2554.744141 0)"/>
    <use xlink:href="#DejaVuSans-2c" transform="translate(2618.123047 0)"/>
    <use xlink:href="#DejaVuSans-20" transform="translate(2649.910156 0)"/>
    <use xlink:href="#DejaVuSans-54" transform="translate(2681.697266 0)"/>
    <use xlink:href="#DejaVuSans-72" transform="translate(2728.03125 0)"/>
    <use xlink:href="#DejaVuSans-61" transform="translate(2769.144531 0)"/>
    <use xlink:href="#DejaVuSans-6e" transform="translate(2830.423828 0)"/>
    <use xlink:href="#DejaVuSans-73" transform="translate(2893.802734 0)"/>
    <use xlink:href="#DejaVuSans-70" transform="translate(2945.902344 0)"/>
    <use xlink:href="#DejaVuSans-6f" transform="translate(3009.378906 0)"/>
    <use xlink:href="#DejaVuSans-72" transform="translate(3070.560547 0)"/>
    <use xlink:href="#DejaVuSans-74" transform="translate(3111.673828 0)"/>
    <use xlink:href="#DejaVuSans-6d" transform="translate(3150.882812 0)"/>
    <use xlink:href="#DejaVuSans-69" transform="translate(3248.294922 0)"/>
    <use xlink:href="#DejaVuSans-74" transform="translate(3276.078125 0)"/>
    <use xlink:href="#DejaVuSans-74" transform="translate(3315.287109 0)"/>
    <use xlink:href="#DejaVuSans-65" transform="translate(3354.496094 0)"/>
    <use xlink:href="#DejaVuSans-6c" transform="translate(3416.019531 0)"/>
    <use xlink:href="#DejaVuSans-6e" transform="translate(3443.802734 0)"/>
    <use xlink:href="#DejaVuSans-2c" transform="translate(3507.181641 0)"/>
    <use xlink:href="#DejaVuSans-20" transform="translate(3538.96875 0)"/>
    <use xlink:href="#DejaVuSans-2e" transform="translate(3570.755859 0)"/>
    <use xlink:href="#DejaVuSans-2e" transform="translate(3602.542969 0)"/>
    <use xlink:href="#DejaVuSans-2e" transform="translate(3634.330078 0)"/>
    <use xlink:href="#DejaVuSans-29" transform="translate(3666.117188 0)"/>
   </g>
  </g>
  <g id="text_8">
   <!-- Abbildung 18d: Bitte bewerten Sie, inwieweit Daten in Ihrem -->
   <g transform="translate(285.927188 594.53325) scale(0.12 -0.12)">
    <defs>
     <path id="DejaVuSans-62" d="M 3116 1747 
Q 3116 2381 2855 2742 
Q 2594 3103 2138 3103 
Q 1681 3103 1420 2742 
Q 1159 2381 1159 1747 
Q 1159 1113 1420 752 
Q 1681 391 2138 391 
Q 2594 391 2855 752 
Q 3116 1113 3116 1747 
z
M 1159 2969 
Q 1341 3281 1617 3432 
Q 1894 3584 2278 3584 
Q 2916 3584 3314 3078 
Q 3713 2572 3713 1747 
Q 3713 922 3314 415 
Q 2916 -91 2278 -91 
Q 1894 -91 1617 61 
Q 1341 213 1159 525 
L 1159 0 
L 581 0 
L 581 4863 
L 1159 4863 
L 1159 2969 
z
" transform="scale(0.015625)"/>
     <path id="DejaVuSans-3a" d="M 750 794 
L 1409 794 
L 1409 0 
L 750 0 
L 750 794 
z
M 750 3309 
L 1409 3309 
L 1409 2516 
L 750 2516 
L 750 3309 
z
" transform="scale(0.015625)"/>
     <path id="DejaVuSans-44" d="M 1259 4147 
L 1259 519 
L 2022 519 
Q 2988 519 3436 956 
Q 3884 1394 3884 2338 
Q 3884 3275 3436 3711 
Q 2988 4147 2022 4147 
L 1259 4147 
z
M 628 4666 
L 1925 4666 
Q 3281 4666 3915 4102 
Q 4550 3538 4550 2338 
Q 4550 1131 3912 565 
Q 3275 0 1925 0 
L 628 0 
L 628 4666 
z
" transform="scale(0.015625)"/>
     <path id="DejaVuSans-68" d="M 3513 2113 
L 3513 0 
L 2938 0 
L 2938 2094 
Q 2938 2591 2744 2837 
Q 2550 3084 2163 3084 
Q 1697 3084 1428 2787 
Q 1159 2491 1159 1978 
L 1159 0 
L 581 0 
L 581 4863 
L 1159 4863 
L 1159 2956 
Q 1366 3272 1645 3428 
Q 1925 3584 2291 3584 
Q 2894 3584 3203 3211 
Q 3513 2838 3513 2113 
z
" transform="scale(0.015625)"/>
    </defs>
    <use xlink:href="#DejaVuSans-41"/>
    <use xlink:href="#DejaVuSans-62" transform="translate(68.408203 0)"/>
    <use xlink:href="#DejaVuSans-62" transform="translate(131.884766 0)"/>
    <use xlink:href="#DejaVuSans-69" transform="translate(195.361328 0)"/>
    <use xlink:href="#DejaVuSans-6c" transform="translate(223.144531 0)"/>
    <use xlink:href="#DejaVuSans-64" transform="translate(250.927734 0)"/>
    <use xlink:href="#DejaVuSans-75" transform="translate(314.404297 0)"/>
    <use xlink:href="#DejaVuSans-6e" transform="translate(377.783203 0)"/>
    <use xlink:href="#DejaVuSans-67" transform="translate(441.162109 0)"/>
    <use xlink:href="#DejaVuSans-20" transform="translate(504.638672 0)"/>
    <use xlink:href="#DejaVuSans-31" transform="translate(536.425781 0)"/>
    <use xlink:href="#DejaVuSans-38" transform="translate(600.048828 0)"/>
    <use xlink:href="#DejaVuSans-64" transform="translate(663.671875 0)"/>
    <use xlink:href="#DejaVuSans-3a" transform="translate(727.148438 0)"/>
    <use xlink:href="#DejaVuSans-20" transform="translate(760.839844 0)"/>
    <use xlink:href="#DejaVuSans-42" transform="translate(792.626953 0)"/>
    <use xlink:href="#DejaVuSans-69" transform="translate(861.230469 0)"/>
    <use xlink:href="#DejaVuSans-74" transform="translate(889.013672 0)"/>
    <use xlink:href="#DejaVuSans-74" transform="translate(928.222656 0)"/>
    <use xlink:href="#DejaVuSans-65" transform="translate(967.431641 0)"/>
    <use xlink:href="#DejaVuSans-20" transform="translate(1028.955078 0)"/>
    <use xlink:href="#DejaVuSans-62" transform="translate(1060.742188 0)"/>
    <use xlink:href="#DejaVuSans-65" transform="translate(1124.21875 0)"/>
    <use xlink:href="#DejaVuSans-77" transform="translate(1185.742188 0)"/>
    <use xlink:href="#DejaVuSans-65" transform="translate(1267.529297 0)"/>
    <use xlink:href="#DejaVuSans-72" transform="translate(1329.052734 0)"/>
    <use xlink:href="#DejaVuSans-74" transform="translate(1370.166016 0)"/>
    <use xlink:href="#DejaVuSans-65" transform="translate(1409.375 0)"/>
    <use xlink:href="#DejaVuSans-6e" transform="translate(1470.898438 0)"/>
    <use xlink:href="#DejaVuSans-20" transform="translate(1534.277344 0)"/>
    <use xlink:href="#DejaVuSans-53" transform="translate(1566.064453 0)"/>
    <use xlink:href="#DejaVuSans-69" transform="translate(1629.541016 0)"/>
    <use xlink:href="#DejaVuSans-65" transform="translate(1657.324219 0)"/>
    <use xlink:href="#DejaVuSans-2c" transform="translate(1718.847656 0)"/>
    <use xlink:href="#DejaVuSans-20" transform="translate(1750.634766 0)"/>
    <use xlink:href="#DejaVuSans-69" transform="translate(1782.421875 0)"/>
    <use xlink:href="#DejaVuSans-6e" transform="translate(1810.205078 0)"/>
    <use xlink:href="#DejaVuSans-77" transform="translate(1873.583984 0)"/>
    <use xlink:href="#DejaVuSans-69" transform="translate(1955.371094 0)"/>
    <use xlink:href="#DejaVuSans-65" transform="translate(1983.154297 0)"/>
    <use xlink:href="#DejaVuSans-77" transform="translate(2044.677734 0)"/>
    <use xlink:href="#DejaVuSans-65" transform="translate(2126.464844 0)"/>
    <use xlink:href="#DejaVuSans-69" transform="translate(2187.988281 0)"/>
    <use xlink:href="#DejaVuSans-74" transform="translate(2215.771484 0)"/>
    <use xlink:href="#DejaVuSans-20" transform="translate(2254.980469 0)"/>
    <use xlink:href="#DejaVuSans-44" transform="translate(2286.767578 0)"/>
    <use xlink:href="#DejaVuSans-61" transform="translate(2363.769531 0)"/>
    <use xlink:href="#DejaVuSans-74" transform="translate(2425.048828 0)"/>
    <use xlink:href="#DejaVuSans-65" transform="translate(2464.257812 0)"/>
    <use xlink:href="#DejaVuSans-6e" transform="translate(2525.78125 0)"/>
    <use xlink:href="#DejaVuSans-20" transform="translate(2589.160156 0)"/>
    <use xlink:href="#DejaVuSans-69" transform="translate(2620.947266 0)"/>
    <use xlink:href="#DejaVuSans-6e" transform="translate(2648.730469 0)"/>
    <use xlink:href="#DejaVuSans-20" transform="translate(2712.109375 0)"/>
    <use xlink:href="#DejaVuSans-49" transform="translate(2743.896484 0)"/>
    <use xlink:href="#DejaVuSans-68" transform="translate(2773.388672 0)"/>
    <use xlink:href="#DejaVuSans-72" transform="translate(2836.767578 0)"/>
    <use xlink:href="#DejaVuSans-65" transform="translate(2875.630859 0)"/>
    <use xlink:href="#DejaVuSans-6d" transform="translate(2937.154297 0)"/>
   </g>
   <!-- Unernehmen erfasst und genutzt werden. – Intralogistik(z.B. Ort -->
   <g transform="translate(275.210625 607.058813) scale(0.12 -0.12)">
    <defs>
     <path id="DejaVuSans-55" d="M 556 4666 
L 1191 4666 
L 1191 1831 
Q 1191 1081 1462 751 
Q 1734 422 2344 422 
Q 2950 422 3222 751 
Q 3494 1081 3494 1831 
L 3494 4666 
L 4128 4666 
L 4128 1753 
Q 4128 841 3676 375 
Q 3225 -91 2344 -91 
Q 1459 -91 1007 375 
Q 556 841 556 1753 
L 556 4666 
z
" transform="scale(0.015625)"/>
     <path id="DejaVuSans-2013" d="M 313 1978 
L 2888 1978 
L 2888 1528 
L 313 1528 
L 313 1978 
z
" transform="scale(0.015625)"/>
    </defs>
    <use xlink:href="#DejaVuSans-55"/>
    <use xlink:href="#DejaVuSans-6e" transform="translate(73.193359 0)"/>
    <use xlink:href="#DejaVuSans-65" transform="translate(136.572266 0)"/>
    <use xlink:href="#DejaVuSans-72" transform="translate(198.095703 0)"/>
    <use xlink:href="#DejaVuSans-6e" transform="translate(237.458984 0)"/>
    <use xlink:href="#DejaVuSans-65" transform="translate(300.837891 0)"/>
    <use xlink:href="#DejaVuSans-68" transform="translate(362.361328 0)"/>
    <use xlink:href="#DejaVuSans-6d" transform="translate(425.740234 0)"/>
    <use xlink:href="#DejaVuSans-65" transform="translate(523.152344 0)"/>
    <use xlink:href="#DejaVuSans-6e" transform="translate(584.675781 0)"/>
    <use xlink:href="#DejaVuSans-20" transform="translate(648.054688 0)"/>
    <use xlink:href="#DejaVuSans-65" transform="translate(679.841797 0)"/>
    <use xlink:href="#DejaVuSans-72" transform="translate(741.365234 0)"/>
    <use xlink:href="#DejaVuSans-66" transform="translate(782.478516 0)"/>
    <use xlink:href="#DejaVuSans-61" transform="translate(817.683594 0)"/>
    <use xlink:href="#DejaVuSans-73" transform="translate(878.962891 0)"/>
    <use xlink:href="#DejaVuSans-73" transform="translate(931.0625 0)"/>
    <use xlink:href="#DejaVuSans-74" transform="translate(983.162109 0)"/>
    <use xlink:href="#DejaVuSans-20" transform="translate(1022.371094 0)"/>
    <use xlink:href="#DejaVuSans-75" transform="translate(1054.158203 0)"/>
    <use xlink:href="#DejaVuSans-6e" transform="translate(1117.537109 0)"/>
    <use xlink:href="#DejaVuSans-64" transform="translate(1180.916016 0)"/>
    <use xlink:href="#DejaVuSans-20" transform="translate(1244.392578 0)"/>
    <use xlink:href="#DejaVuSans-67" transform="translate(1276.179688 0)"/>
    <use xlink:href="#DejaVuSans-65" transform="translate(1339.65625 0)"/>
    <use xlink:href="#DejaVuSans-6e" transform="translate(1401.179688 0)"/>
    <use xlink:href="#DejaVuSans-75" transform="translate(1464.558594 0)"/>
    <use xlink:href="#DejaVuSans-74" transform="translate(1527.9375 0)"/>
    <use xlink:href="#DejaVuSans-7a" transform="translate(1567.146484 0)"/>
    <use xlink:href="#DejaVuSans-74" transform="translate(1619.636719 0)"/>
    <use xlink:href="#DejaVuSans-20" transform="translate(1658.845703 0)"/>
    <use xlink:href="#DejaVuSans-77" transform="translate(1690.632812 0)"/>
    <use xlink:href="#DejaVuSans-65" transform="translate(1772.419922 0)"/>
    <use xlink:href="#DejaVuSans-72" transform="translate(1833.943359 0)"/>
    <use xlink:href="#DejaVuSans-64" transform="translate(1873.306641 0)"/>
    <use xlink:href="#DejaVuSans-65" transform="translate(1936.783203 0)"/>
    <use xlink:href="#DejaVuSans-6e" transform="translate(1998.306641 0)"/>
    <use xlink:href="#DejaVuSans-2e" transform="translate(2061.685547 0)"/>
    <use xlink:href="#DejaVuSans-20" transform="translate(2093.472656 0)"/>
    <use xlink:href="#DejaVuSans-2013" transform="translate(2125.259766 0)"/>
    <use xlink:href="#DejaVuSans-20" transform="translate(2175.259766 0)"/>
    <use xlink:href="#DejaVuSans-49" transform="translate(2207.046875 0)"/>
    <use xlink:href="#DejaVuSans-6e" transform="translate(2236.539062 0)"/>
    <use xlink:href="#DejaVuSans-74" transform="translate(2299.917969 0)"/>
    <use xlink:href="#DejaVuSans-72" transform="translate(2339.126953 0)"/>
    <use xlink:href="#DejaVuSans-61" transform="translate(2380.240234 0)"/>
    <use xlink:href="#DejaVuSans-6c" transform="translate(2441.519531 0)"/>
    <use xlink:href="#DejaVuSans-6f" transform="translate(2469.302734 0)"/>
    <use xlink:href="#DejaVuSans-67" transform="translate(2530.484375 0)"/>
    <use xlink:href="#DejaVuSans-69" transform="translate(2593.960938 0)"/>
    <use xlink:href="#DejaVuSans-73" transform="translate(2621.744141 0)"/>
    <use xlink:href="#DejaVuSans-74" transform="translate(2673.84375 0)"/>
    <use xlink:href="#DejaVuSans-69" transform="translate(2713.052734 0)"/>
    <use xlink:href="#DejaVuSans-6b" transform="translate(2740.835938 0)"/>
    <use xlink:href="#DejaVuSans-28" transform="translate(2798.746094 0)"/>
    <use xlink:href="#DejaVuSans-7a" transform="translate(2837.759766 0)"/>
    <use xlink:href="#DejaVuSans-2e" transform="translate(2890.25 0)"/>
    <use xlink:href="#DejaVuSans-42" transform="translate(2922.037109 0)"/>
    <use xlink:href="#DejaVuSans-2e" transform="translate(2990.640625 0)"/>
    <use xlink:href="#DejaVuSans-20" transform="translate(3022.427734 0)"/>
    <use xlink:href="#DejaVuSans-4f" transform="translate(3054.214844 0)"/>
    <use xlink:href="#DejaVuSans-72" transform="translate(3132.925781 0)"/>
    <use xlink:href="#DejaVuSans-74" transform="translate(3174.039062 0)"/>
   </g>
   <!-- und Status von Ladungsträgern, Transportmitteln, ...) -->
   <g transform="translate(307.97625 619.584375) scale(0.12 -0.12)">
    <use xlink:href="#DejaVuSans-75"/>
    <use xlink:href="#DejaVuSans-6e" transform="translate(63.378906 0)"/>
    <use xlink:href="#DejaVuSans-64" transform="translate(126.757812 0)"/>
    <use xlink:href="#DejaVuSans-20" transform="translate(190.234375 0)"/>
    <use xlink:href="#DejaVuSans-53" transform="translate(222.021484 0)"/>
    <use xlink:href="#DejaVuSans-74" transform="translate(285.498047 0)"/>
    <use xlink:href="#DejaVuSans-61" transform="translate(324.707031 0)"/>
    <use xlink:href="#DejaVuSans-74" transform="translate(385.986328 0)"/>
    <use xlink:href="#DejaVuSans-75" transform="translate(425.195312 0)"/>
    <use xlink:href="#DejaVuSans-73" transform="translate(488.574219 0)"/>
    <use xlink:href="#DejaVuSans-20" transform="translate(540.673828 0)"/>
    <use xlink:href="#DejaVuSans-76" transform="translate(572.460938 0)"/>
    <use xlink:href="#DejaVuSans-6f" transform="translate(631.640625 0)"/>
    <use xlink:href="#DejaVuSans-6e" transform="translate(692.822266 0)"/>
    <use xlink:href="#DejaVuSans-20" transform="translate(756.201172 0)"/>
    <use xlink:href="#DejaVuSans-4c" transform="translate(787.988281 0)"/>
    <use xlink:href="#DejaVuSans-61" transform="translate(843.701172 0)"/>
    <use xlink:href="#DejaVuSans-64" transform="translate(904.980469 0)"/>
    <use xlink:href="#DejaVuSans-75" transform="translate(968.457031 0)"/>
    <use xlink:href="#DejaVuSans-6e" transform="translate(1031.835938 0)"/>
    <use xlink:href="#DejaVuSans-67" transform="translate(1095.214844 0)"/>
    <use xlink:href="#DejaVuSans-73" transform="translate(1158.691406 0)"/>
    <use xlink:href="#DejaVuSans-74" transform="translate(1210.791016 0)"/>
    <use xlink:href="#DejaVuSans-72" transform="translate(1250 0)"/>
    <use xlink:href="#DejaVuSans-e4" transform="translate(1291.113281 0)"/>
    <use xlink:href="#DejaVuSans-67" transform="translate(1352.392578 0)"/>
    <use xlink:href="#DejaVuSans-65" transform="translate(1415.869141 0)"/>
    <use xlink:href="#DejaVuSans-72" transform="translate(1477.392578 0)"/>
    <use xlink:href="#DejaVuSans-6e" transform="translate(1516.755859 0)"/>
    <use xlink:href="#DejaVuSans-2c" transform="translate(1580.134766 0)"/>
    <use xlink:href="#DejaVuSans-20" transform="translate(1611.921875 0)"/>
    <use xlink:href="#DejaVuSans-54" transform="translate(1643.708984 0)"/>
    <use xlink:href="#DejaVuSans-72" transform="translate(1690.042969 0)"/>
    <use xlink:href="#DejaVuSans-61" transform="translate(1731.15625 0)"/>
    <use xlink:href="#DejaVuSans-6e" transform="translate(1792.435547 0)"/>
    <use xlink:href="#DejaVuSans-73" transform="translate(1855.814453 0)"/>
    <use xlink:href="#DejaVuSans-70" transform="translate(1907.914062 0)"/>
    <use xlink:href="#DejaVuSans-6f" transform="translate(1971.390625 0)"/>
    <use xlink:href="#DejaVuSans-72" transform="translate(2032.572266 0)"/>
    <use xlink:href="#DejaVuSans-74" transform="translate(2073.685547 0)"/>
    <use xlink:href="#DejaVuSans-6d" transform="translate(2112.894531 0)"/>
    <use xlink:href="#DejaVuSans-69" transform="translate(2210.306641 0)"/>
    <use xlink:href="#DejaVuSans-74" transform="translate(2238.089844 0)"/>
    <use xlink:href="#DejaVuSans-74" transform="translate(2277.298828 0)"/>
    <use xlink:href="#DejaVuSans-65" transform="translate(2316.507812 0)"/>
    <use xlink:href="#DejaVuSans-6c" transform="translate(2378.03125 0)"/>
    <use xlink:href="#DejaVuSans-6e" transform="translate(2405.814453 0)"/>
    <use xlink:href="#DejaVuSans-2c" transform="translate(2469.193359 0)"/>
    <use xlink:href="#DejaVuSans-20" transform="translate(2500.980469 0)"/>
    <use xlink:href="#DejaVuSans-2e" transform="translate(2532.767578 0)"/>
    <use xlink:href="#DejaVuSans-2e" transform="translate(2564.554688 0)"/>
    <use xlink:href="#DejaVuSans-2e" transform="translate(2596.341797 0)"/>
    <use xlink:href="#DejaVuSans-29" transform="translate(2628.128906 0)"/>
   </g>
  </g>
 </g>
 <defs>
  <clipPath id="pbfafd88459">
   <rect x="254.16" y="51.84" width="427.68" height="427.68"/>
  </clipPath>
 </defs>
</svg>
