<?xml version="1.0" encoding="utf-8" standalone="no"?>
<!DOCTYPE svg PUBLIC "-//W3C//DTD SVG 1.1//EN"
  "http://www.w3.org/Graphics/SVG/1.1/DTD/svg11.dtd">
<svg xmlns:xlink="http://www.w3.org/1999/xlink" width="936pt" height="648pt" viewBox="0 0 936 648" xmlns="http://www.w3.org/2000/svg" version="1.1">
 <metadata>
  <rdf:RDF xmlns:dc="http://purl.org/dc/elements/1.1/" xmlns:cc="http://creativecommons.org/ns#" xmlns:rdf="http://www.w3.org/1999/02/22-rdf-syntax-ns#">
   <cc:Work>
    <dc:type rdf:resource="http://purl.org/dc/dcmitype/StillImage"/>
    <dc:date>2026-02-23T01:10:17.728489</dc:date>
    <dc:format>image/svg+xml</dc:format>
    <dc:creator>
     <cc:Agent>
      <dc:title>Matplotlib v3.10.8, https://matplotlib.org/</dc:title>
     </cc:Agent>
    </dc:creator>
   </cc:Work>
  </rdf:RDF>
 </metadata>
 <defs>
  <style type="text/css">*{stroke-linejoin: round; stroke-linecap: butt}</style>
 </defs>
 <g id="figure_1">
  <g id="patch_1">
   <path d="M 0 648 
L 936 648 
L 936 0 
L 0 0 
z
" style="fill: #ffffff"/>
  </g>
  <g id="axes_1">
   <g id="patch_2">
    <path d="M 582.3402 138.432407 
C 566.772338 124.443676 548.768682 113.429899 529.225521 105.939383 
C 509.682359 98.448867 488.92947 94.608 467.999993 94.608 
L 467.999995 154.4832 
C 481.604155 154.4832 495.093533 156.979764 507.796588 161.848599 
C 520.499644 166.717434 532.20202 173.876389 542.32113 182.969065 
z
" style="fill: #003b6a; stroke: #ffffff; stroke-linejoin: miter"/>
   </g>
   <g id="patch_3">
    <path d="M 617.861242 348.185989 
C 636.486936 314.354869 643.118759 275.193531 636.670507 237.116228 
C 630.222245 199.038928 611.066293 164.244665 582.3402 138.432407 
L 542.32113 182.969065 
C 560.99309 199.747032 573.44446 222.363303 577.63583 247.113548 
C 581.827193 271.863795 577.516509 297.318665 565.409807 319.308893 
z
" style="fill: #8fc73e; stroke: #ffffff; stroke-linejoin: miter"/>
   </g>
   <g id="patch_4">
    <path d="M 365.765398 402.843095 
C 385.362714 417.44997 407.864821 427.688655 431.751921 432.867634 
C 455.639024 438.046612 480.360981 438.046612 504.248084 432.867634 
C 528.135189 427.688655 550.637296 417.449959 570.234613 402.843085 
C 589.831929 388.23621 606.073118 369.597565 617.861242 348.185989 
L 565.409807 319.308893 
C 557.747527 333.226418 547.190754 345.341536 534.452498 354.836005 
C 521.714243 364.330474 507.087873 370.985626 491.561254 374.351962 
C 476.034638 377.718298 459.965366 377.718298 444.438749 374.351962 
C 428.912134 370.985626 414.285764 364.33048 401.547508 354.836012 
z
" style="fill: #dc912f; stroke: #ffffff; stroke-linejoin: miter"/>
   </g>
   <g id="patch_5">
    <path d="M 468.000002 94.608 
C 432.056889 94.608 397.011887 105.935743 367.868994 126.97379 
C 338.726101 148.011837 316.941718 177.708807 305.626364 211.824343 
C 294.311021 245.939884 294.030183 282.769095 304.823957 317.053228 
C 315.61774 351.337361 336.946719 381.363073 365.765398 402.843095 
L 401.547508 354.836012 
C 382.815367 340.873997 368.951531 321.357285 361.935572 299.072598 
C 354.919619 276.787912 355.102163 252.848925 362.457137 230.673823 
C 369.812117 208.498725 383.971966 189.195694 402.914846 175.520963 
C 421.857727 161.846233 444.636978 154.4832 468.000001 154.4832 
z
" style="fill: #93bbdc; stroke: #ffffff; stroke-linejoin: miter"/>
   </g>
   <g id="matplotlib.axis_1"/>
   <g id="matplotlib.axis_2"/>
   <g id="line2d_1">
    <path d="M 521.878457 125.108255 
L 535.348075 89.965327 
" clip-path="url(#p46a3311089)" style="fill: none; stroke: #000000; stroke-opacity: 0.35; stroke-linecap: square"/>
   </g>
   <g id="line2d_2">
    <path d="M 616.430045 240.543885 
L 653.537569 234.259856 
" clip-path="url(#p46a3311089)" style="fill: none; stroke: #000000; stroke-opacity: 0.35; stroke-linecap: square"/>
   </g>
   <g id="line2d_3">
    <path d="M 499.898313 412.805114 
L 507.872893 449.586405 
" clip-path="url(#p46a3311089)" style="fill: none; stroke: #000000; stroke-opacity: 0.35; stroke-linecap: square"/>
   </g>
   <g id="line2d_4">
    <path d="M 325.111201 218.287023 
L 289.388999 206.438775 
" clip-path="url(#p46a3311089)" style="fill: none; stroke: #000000; stroke-opacity: 0.35; stroke-linecap: square"/>
   </g>
   <g id="text_1">
    <!-- 12% -->
    <g transform="translate(544.531898 63.732612) scale(0.08 -0.08)">
     <defs>
      <path id="DejaVuSans-31" d="M 794 531 
L 1825 531 
L 1825 4091 
L 703 3866 
L 703 4441 
L 1819 4666 
L 2450 4666 
L 2450 531 
L 3481 531 
L 3481 0 
L 794 0 
L 794 531 
z
" transform="scale(0.015625)"/>
      <path id="DejaVuSans-32" d="M 1228 531 
L 3431 531 
L 3431 0 
L 469 0 
L 469 531 
Q 828 903 1448 1529 
Q 2069 2156 2228 2338 
Q 2531 2678 2651 2914 
Q 2772 3150 2772 3378 
Q 2772 3750 2511 3984 
Q 2250 4219 1831 4219 
Q 1534 4219 1204 4116 
Q 875 4013 500 3803 
L 500 4441 
Q 881 4594 1212 4672 
Q 1544 4750 1819 4750 
Q 2544 4750 2975 4387 
Q 3406 4025 3406 3419 
Q 3406 3131 3298 2873 
Q 3191 2616 2906 2266 
Q 2828 2175 2409 1742 
Q 1991 1309 1228 531 
z
" transform="scale(0.015625)"/>
      <path id="DejaVuSans-25" d="M 4653 2053 
Q 4381 2053 4226 1822 
Q 4072 1591 4072 1178 
Q 4072 772 4226 539 
Q 4381 306 4653 306 
Q 4919 306 5073 539 
Q 5228 772 5228 1178 
Q 5228 1588 5073 1820 
Q 4919 2053 4653 2053 
z
M 4653 2450 
Q 5147 2450 5437 2106 
Q 5728 1763 5728 1178 
Q 5728 594 5436 251 
Q 5144 -91 4653 -91 
Q 4153 -91 3862 251 
Q 3572 594 3572 1178 
Q 3572 1766 3864 2108 
Q 4156 2450 4653 2450 
z
M 1428 4353 
Q 1159 4353 1004 4120 
Q 850 3888 850 3481 
Q 850 3069 1003 2837 
Q 1156 2606 1428 2606 
Q 1700 2606 1854 2837 
Q 2009 3069 2009 3481 
Q 2009 3884 1853 4118 
Q 1697 4353 1428 4353 
z
M 4250 4750 
L 4750 4750 
L 1831 -91 
L 1331 -91 
L 4250 4750 
z
M 1428 4750 
Q 1922 4750 2215 4408 
Q 2509 4066 2509 3481 
Q 2509 2891 2217 2550 
Q 1925 2209 1428 2209 
Q 931 2209 642 2551 
Q 353 2894 353 3481 
Q 353 4063 643 4406 
Q 934 4750 1428 4750 
z
" transform="scale(0.015625)"/>
     </defs>
     <use xlink:href="#DejaVuSans-31"/>
     <use xlink:href="#DejaVuSans-32" transform="translate(63.623047 0)"/>
     <use xlink:href="#DejaVuSans-25" transform="translate(127.246094 0)"/>
    </g>
    <!-- Im Einsatz -->
    <g transform="translate(544.531898 72.690862) scale(0.08 -0.08)">
     <defs>
      <path id="DejaVuSans-49" d="M 628 4666 
L 1259 4666 
L 1259 0 
L 628 0 
L 628 4666 
z
" transform="scale(0.015625)"/>
      <path id="DejaVuSans-6d" d="M 3328 2828 
Q 3544 3216 3844 3400 
Q 4144 3584 4550 3584 
Q 5097 3584 5394 3201 
Q 5691 2819 5691 2113 
L 5691 0 
L 5113 0 
L 5113 2094 
Q 5113 2597 4934 2840 
Q 4756 3084 4391 3084 
Q 3944 3084 3684 2787 
Q 3425 2491 3425 1978 
L 3425 0 
L 2847 0 
L 2847 2094 
Q 2847 2600 2669 2842 
Q 2491 3084 2119 3084 
Q 1678 3084 1418 2786 
Q 1159 2488 1159 1978 
L 1159 0 
L 581 0 
L 581 3500 
L 1159 3500 
L 1159 2956 
Q 1356 3278 1631 3431 
Q 1906 3584 2284 3584 
Q 2666 3584 2933 3390 
Q 3200 3197 3328 2828 
z
" transform="scale(0.015625)"/>
      <path id="DejaVuSans-20" transform="scale(0.015625)"/>
      <path id="DejaVuSans-45" d="M 628 4666 
L 3578 4666 
L 3578 4134 
L 1259 4134 
L 1259 2753 
L 3481 2753 
L 3481 2222 
L 1259 2222 
L 1259 531 
L 3634 531 
L 3634 0 
L 628 0 
L 628 4666 
z
" transform="scale(0.015625)"/>
      <path id="DejaVuSans-69" d="M 603 3500 
L 1178 3500 
L 1178 0 
L 603 0 
L 603 3500 
z
M 603 4863 
L 1178 4863 
L 1178 4134 
L 603 4134 
L 603 4863 
z
" transform="scale(0.015625)"/>
      <path id="DejaVuSans-6e" d="M 3513 2113 
L 3513 0 
L 2938 0 
L 2938 2094 
Q 2938 2591 2744 2837 
Q 2550 3084 2163 3084 
Q 1697 3084 1428 2787 
Q 1159 2491 1159 1978 
L 1159 0 
L 581 0 
L 581 3500 
L 1159 3500 
L 1159 2956 
Q 1366 3272 1645 3428 
Q 1925 3584 2291 3584 
Q 2894 3584 3203 3211 
Q 3513 2838 3513 2113 
z
" transform="scale(0.015625)"/>
      <path id="DejaVuSans-73" d="M 2834 3397 
L 2834 2853 
Q 2591 2978 2328 3040 
Q 2066 3103 1784 3103 
Q 1356 3103 1142 2972 
Q 928 2841 928 2578 
Q 928 2378 1081 2264 
Q 1234 2150 1697 2047 
L 1894 2003 
Q 2506 1872 2764 1633 
Q 3022 1394 3022 966 
Q 3022 478 2636 193 
Q 2250 -91 1575 -91 
Q 1294 -91 989 -36 
Q 684 19 347 128 
L 347 722 
Q 666 556 975 473 
Q 1284 391 1588 391 
Q 1994 391 2212 530 
Q 2431 669 2431 922 
Q 2431 1156 2273 1281 
Q 2116 1406 1581 1522 
L 1381 1569 
Q 847 1681 609 1914 
Q 372 2147 372 2553 
Q 372 3047 722 3315 
Q 1072 3584 1716 3584 
Q 2034 3584 2315 3537 
Q 2597 3491 2834 3397 
z
" transform="scale(0.015625)"/>
      <path id="DejaVuSans-61" d="M 2194 1759 
Q 1497 1759 1228 1600 
Q 959 1441 959 1056 
Q 959 750 1161 570 
Q 1363 391 1709 391 
Q 2188 391 2477 730 
Q 2766 1069 2766 1631 
L 2766 1759 
L 2194 1759 
z
M 3341 1997 
L 3341 0 
L 2766 0 
L 2766 531 
Q 2569 213 2275 61 
Q 1981 -91 1556 -91 
Q 1019 -91 701 211 
Q 384 513 384 1019 
Q 384 1609 779 1909 
Q 1175 2209 1959 2209 
L 2766 2209 
L 2766 2266 
Q 2766 2663 2505 2880 
Q 2244 3097 1772 3097 
Q 1472 3097 1187 3025 
Q 903 2953 641 2809 
L 641 3341 
Q 956 3463 1253 3523 
Q 1550 3584 1831 3584 
Q 2591 3584 2966 3190 
Q 3341 2797 3341 1997 
z
" transform="scale(0.015625)"/>
      <path id="DejaVuSans-74" d="M 1172 4494 
L 1172 3500 
L 2356 3500 
L 2356 3053 
L 1172 3053 
L 1172 1153 
Q 1172 725 1289 603 
Q 1406 481 1766 481 
L 2356 481 
L 2356 0 
L 1766 0 
Q 1100 0 847 248 
Q 594 497 594 1153 
L 594 3053 
L 172 3053 
L 172 3500 
L 594 3500 
L 594 4494 
L 1172 4494 
z
" transform="scale(0.015625)"/>
      <path id="DejaVuSans-7a" d="M 353 3500 
L 3084 3500 
L 3084 2975 
L 922 459 
L 3084 459 
L 3084 0 
L 275 0 
L 275 525 
L 2438 3041 
L 353 3041 
L 353 3500 
z
" transform="scale(0.015625)"/>
     </defs>
     <use xlink:href="#DejaVuSans-49"/>
     <use xlink:href="#DejaVuSans-6d" transform="translate(29.492188 0)"/>
     <use xlink:href="#DejaVuSans-20" transform="translate(126.904297 0)"/>
     <use xlink:href="#DejaVuSans-45" transform="translate(158.691406 0)"/>
     <use xlink:href="#DejaVuSans-69" transform="translate(221.875 0)"/>
     <use xlink:href="#DejaVuSans-6e" transform="translate(249.658203 0)"/>
     <use xlink:href="#DejaVuSans-73" transform="translate(313.037109 0)"/>
     <use xlink:href="#DejaVuSans-61" transform="translate(365.136719 0)"/>
     <use xlink:href="#DejaVuSans-74" transform="translate(426.416016 0)"/>
     <use xlink:href="#DejaVuSans-7a" transform="translate(465.625 0)"/>
    </g>
   </g>
   <g id="text_2">
    <!-- 21% -->
    <g transform="translate(678.838136 227.703665) scale(0.08 -0.08)">
     <use xlink:href="#DejaVuSans-32"/>
     <use xlink:href="#DejaVuSans-31" transform="translate(63.623047 0)"/>
     <use xlink:href="#DejaVuSans-25" transform="translate(127.246094 0)"/>
    </g>
    <!-- In Planung -->
    <g transform="translate(678.838136 236.661915) scale(0.08 -0.08)">
     <defs>
      <path id="DejaVuSans-50" d="M 1259 4147 
L 1259 2394 
L 2053 2394 
Q 2494 2394 2734 2622 
Q 2975 2850 2975 3272 
Q 2975 3691 2734 3919 
Q 2494 4147 2053 4147 
L 1259 4147 
z
M 628 4666 
L 2053 4666 
Q 2838 4666 3239 4311 
Q 3641 3956 3641 3272 
Q 3641 2581 3239 2228 
Q 2838 1875 2053 1875 
L 1259 1875 
L 1259 0 
L 628 0 
L 628 4666 
z
" transform="scale(0.015625)"/>
      <path id="DejaVuSans-6c" d="M 603 4863 
L 1178 4863 
L 1178 0 
L 603 0 
L 603 4863 
z
" transform="scale(0.015625)"/>
      <path id="DejaVuSans-75" d="M 544 1381 
L 544 3500 
L 1119 3500 
L 1119 1403 
Q 1119 906 1312 657 
Q 1506 409 1894 409 
Q 2359 409 2629 706 
Q 2900 1003 2900 1516 
L 2900 3500 
L 3475 3500 
L 3475 0 
L 2900 0 
L 2900 538 
Q 2691 219 2414 64 
Q 2138 -91 1772 -91 
Q 1169 -91 856 284 
Q 544 659 544 1381 
z
M 1991 3584 
L 1991 3584 
z
" transform="scale(0.015625)"/>
      <path id="DejaVuSans-67" d="M 2906 1791 
Q 2906 2416 2648 2759 
Q 2391 3103 1925 3103 
Q 1463 3103 1205 2759 
Q 947 2416 947 1791 
Q 947 1169 1205 825 
Q 1463 481 1925 481 
Q 2391 481 2648 825 
Q 2906 1169 2906 1791 
z
M 3481 434 
Q 3481 -459 3084 -895 
Q 2688 -1331 1869 -1331 
Q 1566 -1331 1297 -1286 
Q 1028 -1241 775 -1147 
L 775 -588 
Q 1028 -725 1275 -790 
Q 1522 -856 1778 -856 
Q 2344 -856 2625 -561 
Q 2906 -266 2906 331 
L 2906 616 
Q 2728 306 2450 153 
Q 2172 0 1784 0 
Q 1141 0 747 490 
Q 353 981 353 1791 
Q 353 2603 747 3093 
Q 1141 3584 1784 3584 
Q 2172 3584 2450 3431 
Q 2728 3278 2906 2969 
L 2906 3500 
L 3481 3500 
L 3481 434 
z
" transform="scale(0.015625)"/>
     </defs>
     <use xlink:href="#DejaVuSans-49"/>
     <use xlink:href="#DejaVuSans-6e" transform="translate(29.492188 0)"/>
     <use xlink:href="#DejaVuSans-20" transform="translate(92.871094 0)"/>
     <use xlink:href="#DejaVuSans-50" transform="translate(124.658203 0)"/>
     <use xlink:href="#DejaVuSans-6c" transform="translate(184.960938 0)"/>
     <use xlink:href="#DejaVuSans-61" transform="translate(212.744141 0)"/>
     <use xlink:href="#DejaVuSans-6e" transform="translate(274.023438 0)"/>
     <use xlink:href="#DejaVuSans-75" transform="translate(337.402344 0)"/>
     <use xlink:href="#DejaVuSans-6e" transform="translate(400.78125 0)"/>
     <use xlink:href="#DejaVuSans-67" transform="translate(464.160156 0)"/>
    </g>
   </g>
   <g id="text_3">
    <!-- 27% -->
    <g transform="translate(513.310105 467.913792) scale(0.08 -0.08)">
     <defs>
      <path id="DejaVuSans-37" d="M 525 4666 
L 3525 4666 
L 3525 4397 
L 1831 0 
L 1172 0 
L 2766 4134 
L 525 4134 
L 525 4666 
z
" transform="scale(0.015625)"/>
     </defs>
     <use xlink:href="#DejaVuSans-32"/>
     <use xlink:href="#DejaVuSans-37" transform="translate(63.623047 0)"/>
     <use xlink:href="#DejaVuSans-25" transform="translate(127.246094 0)"/>
    </g>
    <!-- Nicht im Einsatz /Nicht in -->
    <g transform="translate(513.310105 476.872042) scale(0.08 -0.08)">
     <defs>
      <path id="DejaVuSans-4e" d="M 628 4666 
L 1478 4666 
L 3547 763 
L 3547 4666 
L 4159 4666 
L 4159 0 
L 3309 0 
L 1241 3903 
L 1241 0 
L 628 0 
L 628 4666 
z
" transform="scale(0.015625)"/>
      <path id="DejaVuSans-63" d="M 3122 3366 
L 3122 2828 
Q 2878 2963 2633 3030 
Q 2388 3097 2138 3097 
Q 1578 3097 1268 2742 
Q 959 2388 959 1747 
Q 959 1106 1268 751 
Q 1578 397 2138 397 
Q 2388 397 2633 464 
Q 2878 531 3122 666 
L 3122 134 
Q 2881 22 2623 -34 
Q 2366 -91 2075 -91 
Q 1284 -91 818 406 
Q 353 903 353 1747 
Q 353 2603 823 3093 
Q 1294 3584 2113 3584 
Q 2378 3584 2631 3529 
Q 2884 3475 3122 3366 
z
" transform="scale(0.015625)"/>
      <path id="DejaVuSans-68" d="M 3513 2113 
L 3513 0 
L 2938 0 
L 2938 2094 
Q 2938 2591 2744 2837 
Q 2550 3084 2163 3084 
Q 1697 3084 1428 2787 
Q 1159 2491 1159 1978 
L 1159 0 
L 581 0 
L 581 4863 
L 1159 4863 
L 1159 2956 
Q 1366 3272 1645 3428 
Q 1925 3584 2291 3584 
Q 2894 3584 3203 3211 
Q 3513 2838 3513 2113 
z
" transform="scale(0.015625)"/>
      <path id="DejaVuSans-2f" d="M 1625 4666 
L 2156 4666 
L 531 -594 
L 0 -594 
L 1625 4666 
z
" transform="scale(0.015625)"/>
     </defs>
     <use xlink:href="#DejaVuSans-4e"/>
     <use xlink:href="#DejaVuSans-69" transform="translate(74.804688 0)"/>
     <use xlink:href="#DejaVuSans-63" transform="translate(102.587891 0)"/>
     <use xlink:href="#DejaVuSans-68" transform="translate(157.568359 0)"/>
     <use xlink:href="#DejaVuSans-74" transform="translate(220.947266 0)"/>
     <use xlink:href="#DejaVuSans-20" transform="translate(260.15625 0)"/>
     <use xlink:href="#DejaVuSans-69" transform="translate(291.943359 0)"/>
     <use xlink:href="#DejaVuSans-6d" transform="translate(319.726562 0)"/>
     <use xlink:href="#DejaVuSans-20" transform="translate(417.138672 0)"/>
     <use xlink:href="#DejaVuSans-45" transform="translate(448.925781 0)"/>
     <use xlink:href="#DejaVuSans-69" transform="translate(512.109375 0)"/>
     <use xlink:href="#DejaVuSans-6e" transform="translate(539.892578 0)"/>
     <use xlink:href="#DejaVuSans-73" transform="translate(603.271484 0)"/>
     <use xlink:href="#DejaVuSans-61" transform="translate(655.371094 0)"/>
     <use xlink:href="#DejaVuSans-74" transform="translate(716.650391 0)"/>
     <use xlink:href="#DejaVuSans-7a" transform="translate(755.859375 0)"/>
     <use xlink:href="#DejaVuSans-20" transform="translate(808.349609 0)"/>
     <use xlink:href="#DejaVuSans-2f" transform="translate(840.136719 0)"/>
     <use xlink:href="#DejaVuSans-4e" transform="translate(873.828125 0)"/>
     <use xlink:href="#DejaVuSans-69" transform="translate(948.632812 0)"/>
     <use xlink:href="#DejaVuSans-63" transform="translate(976.416016 0)"/>
     <use xlink:href="#DejaVuSans-68" transform="translate(1031.396484 0)"/>
     <use xlink:href="#DejaVuSans-74" transform="translate(1094.775391 0)"/>
     <use xlink:href="#DejaVuSans-20" transform="translate(1133.984375 0)"/>
     <use xlink:href="#DejaVuSans-69" transform="translate(1165.771484 0)"/>
     <use xlink:href="#DejaVuSans-6e" transform="translate(1193.554688 0)"/>
    </g>
    <!-- Planung -->
    <g transform="translate(513.310105 485.830292) scale(0.08 -0.08)">
     <use xlink:href="#DejaVuSans-50"/>
     <use xlink:href="#DejaVuSans-6c" transform="translate(60.302734 0)"/>
     <use xlink:href="#DejaVuSans-61" transform="translate(88.085938 0)"/>
     <use xlink:href="#DejaVuSans-6e" transform="translate(149.365234 0)"/>
     <use xlink:href="#DejaVuSans-75" transform="translate(212.744141 0)"/>
     <use xlink:href="#DejaVuSans-6e" transform="translate(276.123047 0)"/>
     <use xlink:href="#DejaVuSans-67" transform="translate(339.501953 0)"/>
    </g>
   </g>
   <g id="text_4">
    <!-- 40% -->
    <g transform="translate(247.2517 196.088805) scale(0.08 -0.08)">
     <defs>
      <path id="DejaVuSans-34" d="M 2419 4116 
L 825 1625 
L 2419 1625 
L 2419 4116 
z
M 2253 4666 
L 3047 4666 
L 3047 1625 
L 3713 1625 
L 3713 1100 
L 3047 1100 
L 3047 0 
L 2419 0 
L 2419 1100 
L 313 1100 
L 313 1709 
L 2253 4666 
z
" transform="scale(0.015625)"/>
      <path id="DejaVuSans-30" d="M 2034 4250 
Q 1547 4250 1301 3770 
Q 1056 3291 1056 2328 
Q 1056 1369 1301 889 
Q 1547 409 2034 409 
Q 2525 409 2770 889 
Q 3016 1369 3016 2328 
Q 3016 3291 2770 3770 
Q 2525 4250 2034 4250 
z
M 2034 4750 
Q 2819 4750 3233 4129 
Q 3647 3509 3647 2328 
Q 3647 1150 3233 529 
Q 2819 -91 2034 -91 
Q 1250 -91 836 529 
Q 422 1150 422 2328 
Q 422 3509 836 4129 
Q 1250 4750 2034 4750 
z
" transform="scale(0.015625)"/>
     </defs>
     <use xlink:href="#DejaVuSans-34"/>
     <use xlink:href="#DejaVuSans-30" transform="translate(63.623047 0)"/>
     <use xlink:href="#DejaVuSans-25" transform="translate(127.246094 0)"/>
    </g>
    <!-- Keine Antwort -->
    <g transform="translate(208.96545 205.047055) scale(0.08 -0.08)">
     <defs>
      <path id="DejaVuSans-4b" d="M 628 4666 
L 1259 4666 
L 1259 2694 
L 3353 4666 
L 4166 4666 
L 1850 2491 
L 4331 0 
L 3500 0 
L 1259 2247 
L 1259 0 
L 628 0 
L 628 4666 
z
" transform="scale(0.015625)"/>
      <path id="DejaVuSans-65" d="M 3597 1894 
L 3597 1613 
L 953 1613 
Q 991 1019 1311 708 
Q 1631 397 2203 397 
Q 2534 397 2845 478 
Q 3156 559 3463 722 
L 3463 178 
Q 3153 47 2828 -22 
Q 2503 -91 2169 -91 
Q 1331 -91 842 396 
Q 353 884 353 1716 
Q 353 2575 817 3079 
Q 1281 3584 2069 3584 
Q 2775 3584 3186 3129 
Q 3597 2675 3597 1894 
z
M 3022 2063 
Q 3016 2534 2758 2815 
Q 2500 3097 2075 3097 
Q 1594 3097 1305 2825 
Q 1016 2553 972 2059 
L 3022 2063 
z
" transform="scale(0.015625)"/>
      <path id="DejaVuSans-41" d="M 2188 4044 
L 1331 1722 
L 3047 1722 
L 2188 4044 
z
M 1831 4666 
L 2547 4666 
L 4325 0 
L 3669 0 
L 3244 1197 
L 1141 1197 
L 716 0 
L 50 0 
L 1831 4666 
z
" transform="scale(0.015625)"/>
      <path id="DejaVuSans-77" d="M 269 3500 
L 844 3500 
L 1563 769 
L 2278 3500 
L 2956 3500 
L 3675 769 
L 4391 3500 
L 4966 3500 
L 4050 0 
L 3372 0 
L 2619 2869 
L 1863 0 
L 1184 0 
L 269 3500 
z
" transform="scale(0.015625)"/>
      <path id="DejaVuSans-6f" d="M 1959 3097 
Q 1497 3097 1228 2736 
Q 959 2375 959 1747 
Q 959 1119 1226 758 
Q 1494 397 1959 397 
Q 2419 397 2687 759 
Q 2956 1122 2956 1747 
Q 2956 2369 2687 2733 
Q 2419 3097 1959 3097 
z
M 1959 3584 
Q 2709 3584 3137 3096 
Q 3566 2609 3566 1747 
Q 3566 888 3137 398 
Q 2709 -91 1959 -91 
Q 1206 -91 779 398 
Q 353 888 353 1747 
Q 353 2609 779 3096 
Q 1206 3584 1959 3584 
z
" transform="scale(0.015625)"/>
      <path id="DejaVuSans-72" d="M 2631 2963 
Q 2534 3019 2420 3045 
Q 2306 3072 2169 3072 
Q 1681 3072 1420 2755 
Q 1159 2438 1159 1844 
L 1159 0 
L 581 0 
L 581 3500 
L 1159 3500 
L 1159 2956 
Q 1341 3275 1631 3429 
Q 1922 3584 2338 3584 
Q 2397 3584 2469 3576 
Q 2541 3569 2628 3553 
L 2631 2963 
z
" transform="scale(0.015625)"/>
     </defs>
     <use xlink:href="#DejaVuSans-4b"/>
     <use xlink:href="#DejaVuSans-65" transform="translate(60.576172 0)"/>
     <use xlink:href="#DejaVuSans-69" transform="translate(122.099609 0)"/>
     <use xlink:href="#DejaVuSans-6e" transform="translate(149.882812 0)"/>
     <use xlink:href="#DejaVuSans-65" transform="translate(213.261719 0)"/>
     <use xlink:href="#DejaVuSans-20" transform="translate(274.785156 0)"/>
     <use xlink:href="#DejaVuSans-41" transform="translate(306.572266 0)"/>
     <use xlink:href="#DejaVuSans-6e" transform="translate(374.980469 0)"/>
     <use xlink:href="#DejaVuSans-74" transform="translate(438.359375 0)"/>
     <use xlink:href="#DejaVuSans-77" transform="translate(477.568359 0)"/>
     <use xlink:href="#DejaVuSans-6f" transform="translate(559.355469 0)"/>
     <use xlink:href="#DejaVuSans-72" transform="translate(620.537109 0)"/>
     <use xlink:href="#DejaVuSans-74" transform="translate(661.650391 0)"/>
    </g>
   </g>
  </g>
  <g id="text_5">
   <!-- Verwaltungsschale (Asset Administration Shell, AAS) -->
   <g transform="translate(310.457813 22.078125) scale(0.12 -0.12)">
    <defs>
     <path id="DejaVuSans-56" d="M 1831 0 
L 50 4666 
L 709 4666 
L 2188 738 
L 3669 4666 
L 4325 4666 
L 2547 0 
L 1831 0 
z
" transform="scale(0.015625)"/>
     <path id="DejaVuSans-28" d="M 1984 4856 
Q 1566 4138 1362 3434 
Q 1159 2731 1159 2009 
Q 1159 1288 1364 580 
Q 1569 -128 1984 -844 
L 1484 -844 
Q 1016 -109 783 600 
Q 550 1309 550 2009 
Q 550 2706 781 3412 
Q 1013 4119 1484 4856 
L 1984 4856 
z
" transform="scale(0.015625)"/>
     <path id="DejaVuSans-64" d="M 2906 2969 
L 2906 4863 
L 3481 4863 
L 3481 0 
L 2906 0 
L 2906 525 
Q 2725 213 2448 61 
Q 2172 -91 1784 -91 
Q 1150 -91 751 415 
Q 353 922 353 1747 
Q 353 2572 751 3078 
Q 1150 3584 1784 3584 
Q 2172 3584 2448 3432 
Q 2725 3281 2906 2969 
z
M 947 1747 
Q 947 1113 1208 752 
Q 1469 391 1925 391 
Q 2381 391 2643 752 
Q 2906 1113 2906 1747 
Q 2906 2381 2643 2742 
Q 2381 3103 1925 3103 
Q 1469 3103 1208 2742 
Q 947 2381 947 1747 
z
" transform="scale(0.015625)"/>
     <path id="DejaVuSans-53" d="M 3425 4513 
L 3425 3897 
Q 3066 4069 2747 4153 
Q 2428 4238 2131 4238 
Q 1616 4238 1336 4038 
Q 1056 3838 1056 3469 
Q 1056 3159 1242 3001 
Q 1428 2844 1947 2747 
L 2328 2669 
Q 3034 2534 3370 2195 
Q 3706 1856 3706 1288 
Q 3706 609 3251 259 
Q 2797 -91 1919 -91 
Q 1588 -91 1214 -16 
Q 841 59 441 206 
L 441 856 
Q 825 641 1194 531 
Q 1563 422 1919 422 
Q 2459 422 2753 634 
Q 3047 847 3047 1241 
Q 3047 1584 2836 1778 
Q 2625 1972 2144 2069 
L 1759 2144 
Q 1053 2284 737 2584 
Q 422 2884 422 3419 
Q 422 4038 858 4394 
Q 1294 4750 2059 4750 
Q 2388 4750 2728 4690 
Q 3069 4631 3425 4513 
z
" transform="scale(0.015625)"/>
     <path id="DejaVuSans-2c" d="M 750 794 
L 1409 794 
L 1409 256 
L 897 -744 
L 494 -744 
L 750 256 
L 750 794 
z
" transform="scale(0.015625)"/>
     <path id="DejaVuSans-29" d="M 513 4856 
L 1013 4856 
Q 1481 4119 1714 3412 
Q 1947 2706 1947 2009 
Q 1947 1309 1714 600 
Q 1481 -109 1013 -844 
L 513 -844 
Q 928 -128 1133 580 
Q 1338 1288 1338 2009 
Q 1338 2731 1133 3434 
Q 928 4138 513 4856 
z
" transform="scale(0.015625)"/>
    </defs>
    <use xlink:href="#DejaVuSans-56"/>
    <use xlink:href="#DejaVuSans-65" transform="translate(60.658203 0)"/>
    <use xlink:href="#DejaVuSans-72" transform="translate(122.181641 0)"/>
    <use xlink:href="#DejaVuSans-77" transform="translate(163.294922 0)"/>
    <use xlink:href="#DejaVuSans-61" transform="translate(245.082031 0)"/>
    <use xlink:href="#DejaVuSans-6c" transform="translate(306.361328 0)"/>
    <use xlink:href="#DejaVuSans-74" transform="translate(334.144531 0)"/>
    <use xlink:href="#DejaVuSans-75" transform="translate(373.353516 0)"/>
    <use xlink:href="#DejaVuSans-6e" transform="translate(436.732422 0)"/>
    <use xlink:href="#DejaVuSans-67" transform="translate(500.111328 0)"/>
    <use xlink:href="#DejaVuSans-73" transform="translate(563.587891 0)"/>
    <use xlink:href="#DejaVuSans-73" transform="translate(615.6875 0)"/>
    <use xlink:href="#DejaVuSans-63" transform="translate(667.787109 0)"/>
    <use xlink:href="#DejaVuSans-68" transform="translate(722.767578 0)"/>
    <use xlink:href="#DejaVuSans-61" transform="translate(786.146484 0)"/>
    <use xlink:href="#DejaVuSans-6c" transform="translate(847.425781 0)"/>
    <use xlink:href="#DejaVuSans-65" transform="translate(875.208984 0)"/>
    <use xlink:href="#DejaVuSans-20" transform="translate(936.732422 0)"/>
    <use xlink:href="#DejaVuSans-28" transform="translate(968.519531 0)"/>
    <use xlink:href="#DejaVuSans-41" transform="translate(1007.533203 0)"/>
    <use xlink:href="#DejaVuSans-73" transform="translate(1075.941406 0)"/>
    <use xlink:href="#DejaVuSans-73" transform="translate(1128.041016 0)"/>
    <use xlink:href="#DejaVuSans-65" transform="translate(1180.140625 0)"/>
    <use xlink:href="#DejaVuSans-74" transform="translate(1241.664062 0)"/>
    <use xlink:href="#DejaVuSans-20" transform="translate(1280.873047 0)"/>
    <use xlink:href="#DejaVuSans-41" transform="translate(1312.660156 0)"/>
    <use xlink:href="#DejaVuSans-64" transform="translate(1379.318359 0)"/>
    <use xlink:href="#DejaVuSans-6d" transform="translate(1442.794922 0)"/>
    <use xlink:href="#DejaVuSans-69" transform="translate(1540.207031 0)"/>
    <use xlink:href="#DejaVuSans-6e" transform="translate(1567.990234 0)"/>
    <use xlink:href="#DejaVuSans-69" transform="translate(1631.369141 0)"/>
    <use xlink:href="#DejaVuSans-73" transform="translate(1659.152344 0)"/>
    <use xlink:href="#DejaVuSans-74" transform="translate(1711.251953 0)"/>
    <use xlink:href="#DejaVuSans-72" transform="translate(1750.460938 0)"/>
    <use xlink:href="#DejaVuSans-61" transform="translate(1791.574219 0)"/>
    <use xlink:href="#DejaVuSans-74" transform="translate(1852.853516 0)"/>
    <use xlink:href="#DejaVuSans-69" transform="translate(1892.0625 0)"/>
    <use xlink:href="#DejaVuSans-6f" transform="translate(1919.845703 0)"/>
    <use xlink:href="#DejaVuSans-6e" transform="translate(1981.027344 0)"/>
    <use xlink:href="#DejaVuSans-20" transform="translate(2044.40625 0)"/>
    <use xlink:href="#DejaVuSans-53" transform="translate(2076.193359 0)"/>
    <use xlink:href="#DejaVuSans-68" transform="translate(2139.669922 0)"/>
    <use xlink:href="#DejaVuSans-65" transform="translate(2203.048828 0)"/>
    <use xlink:href="#DejaVuSans-6c" transform="translate(2264.572266 0)"/>
    <use xlink:href="#DejaVuSans-6c" transform="translate(2292.355469 0)"/>
    <use xlink:href="#DejaVuSans-2c" transform="translate(2320.138672 0)"/>
    <use xlink:href="#DejaVuSans-20" transform="translate(2351.925781 0)"/>
    <use xlink:href="#DejaVuSans-41" transform="translate(2383.712891 0)"/>
    <use xlink:href="#DejaVuSans-41" transform="translate(2454.871094 0)"/>
    <use xlink:href="#DejaVuSans-53" transform="translate(2523.279297 0)"/>
    <use xlink:href="#DejaVuSans-29" transform="translate(2586.755859 0)"/>
   </g>
  </g>
  <g id="text_6">
   <!-- Abbildung 19i: Welche der nachfolgenden Industrie 4.0 - Technologien werden -->
   <g transform="translate(252.785 557.948813) scale(0.11 -0.11)">
    <defs>
     <path id="DejaVuSans-62" d="M 3116 1747 
Q 3116 2381 2855 2742 
Q 2594 3103 2138 3103 
Q 1681 3103 1420 2742 
Q 1159 2381 1159 1747 
Q 1159 1113 1420 752 
Q 1681 391 2138 391 
Q 2594 391 2855 752 
Q 3116 1113 3116 1747 
z
M 1159 2969 
Q 1341 3281 1617 3432 
Q 1894 3584 2278 3584 
Q 2916 3584 3314 3078 
Q 3713 2572 3713 1747 
Q 3713 922 3314 415 
Q 2916 -91 2278 -91 
Q 1894 -91 1617 61 
Q 1341 213 1159 525 
L 1159 0 
L 581 0 
L 581 4863 
L 1159 4863 
L 1159 2969 
z
" transform="scale(0.015625)"/>
     <path id="DejaVuSans-39" d="M 703 97 
L 703 672 
Q 941 559 1184 500 
Q 1428 441 1663 441 
Q 2288 441 2617 861 
Q 2947 1281 2994 2138 
Q 2813 1869 2534 1725 
Q 2256 1581 1919 1581 
Q 1219 1581 811 2004 
Q 403 2428 403 3163 
Q 403 3881 828 4315 
Q 1253 4750 1959 4750 
Q 2769 4750 3195 4129 
Q 3622 3509 3622 2328 
Q 3622 1225 3098 567 
Q 2575 -91 1691 -91 
Q 1453 -91 1209 -44 
Q 966 3 703 97 
z
M 1959 2075 
Q 2384 2075 2632 2365 
Q 2881 2656 2881 3163 
Q 2881 3666 2632 3958 
Q 2384 4250 1959 4250 
Q 1534 4250 1286 3958 
Q 1038 3666 1038 3163 
Q 1038 2656 1286 2365 
Q 1534 2075 1959 2075 
z
" transform="scale(0.015625)"/>
     <path id="DejaVuSans-3a" d="M 750 794 
L 1409 794 
L 1409 0 
L 750 0 
L 750 794 
z
M 750 3309 
L 1409 3309 
L 1409 2516 
L 750 2516 
L 750 3309 
z
" transform="scale(0.015625)"/>
     <path id="DejaVuSans-57" d="M 213 4666 
L 850 4666 
L 1831 722 
L 2809 4666 
L 3519 4666 
L 4500 722 
L 5478 4666 
L 6119 4666 
L 4947 0 
L 4153 0 
L 3169 4050 
L 2175 0 
L 1381 0 
L 213 4666 
z
" transform="scale(0.015625)"/>
     <path id="DejaVuSans-66" d="M 2375 4863 
L 2375 4384 
L 1825 4384 
Q 1516 4384 1395 4259 
Q 1275 4134 1275 3809 
L 1275 3500 
L 2222 3500 
L 2222 3053 
L 1275 3053 
L 1275 0 
L 697 0 
L 697 3053 
L 147 3053 
L 147 3500 
L 697 3500 
L 697 3744 
Q 697 4328 969 4595 
Q 1241 4863 1831 4863 
L 2375 4863 
z
" transform="scale(0.015625)"/>
     <path id="DejaVuSans-2e" d="M 684 794 
L 1344 794 
L 1344 0 
L 684 0 
L 684 794 
z
" transform="scale(0.015625)"/>
     <path id="DejaVuSans-2d" d="M 313 2009 
L 1997 2009 
L 1997 1497 
L 313 1497 
L 313 2009 
z
" transform="scale(0.015625)"/>
     <path id="DejaVuSans-54" d="M -19 4666 
L 3928 4666 
L 3928 4134 
L 2272 4134 
L 2272 0 
L 1638 0 
L 1638 4134 
L -19 4134 
L -19 4666 
z
" transform="scale(0.015625)"/>
    </defs>
    <use xlink:href="#DejaVuSans-41"/>
    <use xlink:href="#DejaVuSans-62" transform="translate(68.408203 0)"/>
    <use xlink:href="#DejaVuSans-62" transform="translate(131.884766 0)"/>
    <use xlink:href="#DejaVuSans-69" transform="translate(195.361328 0)"/>
    <use xlink:href="#DejaVuSans-6c" transform="translate(223.144531 0)"/>
    <use xlink:href="#DejaVuSans-64" transform="translate(250.927734 0)"/>
    <use xlink:href="#DejaVuSans-75" transform="translate(314.404297 0)"/>
    <use xlink:href="#DejaVuSans-6e" transform="translate(377.783203 0)"/>
    <use xlink:href="#DejaVuSans-67" transform="translate(441.162109 0)"/>
    <use xlink:href="#DejaVuSans-20" transform="translate(504.638672 0)"/>
    <use xlink:href="#DejaVuSans-31" transform="translate(536.425781 0)"/>
    <use xlink:href="#DejaVuSans-39" transform="translate(600.048828 0)"/>
    <use xlink:href="#DejaVuSans-69" transform="translate(663.671875 0)"/>
    <use xlink:href="#DejaVuSans-3a" transform="translate(691.455078 0)"/>
    <use xlink:href="#DejaVuSans-20" transform="translate(725.146484 0)"/>
    <use xlink:href="#DejaVuSans-57" transform="translate(756.933594 0)"/>
    <use xlink:href="#DejaVuSans-65" transform="translate(849.935547 0)"/>
    <use xlink:href="#DejaVuSans-6c" transform="translate(911.458984 0)"/>
    <use xlink:href="#DejaVuSans-63" transform="translate(939.242188 0)"/>
    <use xlink:href="#DejaVuSans-68" transform="translate(994.222656 0)"/>
    <use xlink:href="#DejaVuSans-65" transform="translate(1057.601562 0)"/>
    <use xlink:href="#DejaVuSans-20" transform="translate(1119.125 0)"/>
    <use xlink:href="#DejaVuSans-64" transform="translate(1150.912109 0)"/>
    <use xlink:href="#DejaVuSans-65" transform="translate(1214.388672 0)"/>
    <use xlink:href="#DejaVuSans-72" transform="translate(1275.912109 0)"/>
    <use xlink:href="#DejaVuSans-20" transform="translate(1317.025391 0)"/>
    <use xlink:href="#DejaVuSans-6e" transform="translate(1348.8125 0)"/>
    <use xlink:href="#DejaVuSans-61" transform="translate(1412.191406 0)"/>
    <use xlink:href="#DejaVuSans-63" transform="translate(1473.470703 0)"/>
    <use xlink:href="#DejaVuSans-68" transform="translate(1528.451172 0)"/>
    <use xlink:href="#DejaVuSans-66" transform="translate(1591.830078 0)"/>
    <use xlink:href="#DejaVuSans-6f" transform="translate(1627.035156 0)"/>
    <use xlink:href="#DejaVuSans-6c" transform="translate(1688.216797 0)"/>
    <use xlink:href="#DejaVuSans-67" transform="translate(1716 0)"/>
    <use xlink:href="#DejaVuSans-65" transform="translate(1779.476562 0)"/>
    <use xlink:href="#DejaVuSans-6e" transform="translate(1841 0)"/>
    <use xlink:href="#DejaVuSans-64" transform="translate(1904.378906 0)"/>
    <use xlink:href="#DejaVuSans-65" transform="translate(1967.855469 0)"/>
    <use xlink:href="#DejaVuSans-6e" transform="translate(2029.378906 0)"/>
    <use xlink:href="#DejaVuSans-20" transform="translate(2092.757812 0)"/>
    <use xlink:href="#DejaVuSans-49" transform="translate(2124.544922 0)"/>
    <use xlink:href="#DejaVuSans-6e" transform="translate(2154.037109 0)"/>
    <use xlink:href="#DejaVuSans-64" transform="translate(2217.416016 0)"/>
    <use xlink:href="#DejaVuSans-75" transform="translate(2280.892578 0)"/>
    <use xlink:href="#DejaVuSans-73" transform="translate(2344.271484 0)"/>
    <use xlink:href="#DejaVuSans-74" transform="translate(2396.371094 0)"/>
    <use xlink:href="#DejaVuSans-72" transform="translate(2435.580078 0)"/>
    <use xlink:href="#DejaVuSans-69" transform="translate(2476.693359 0)"/>
    <use xlink:href="#DejaVuSans-65" transform="translate(2504.476562 0)"/>
    <use xlink:href="#DejaVuSans-20" transform="translate(2566 0)"/>
    <use xlink:href="#DejaVuSans-34" transform="translate(2597.787109 0)"/>
    <use xlink:href="#DejaVuSans-2e" transform="translate(2661.410156 0)"/>
    <use xlink:href="#DejaVuSans-30" transform="translate(2693.197266 0)"/>
    <use xlink:href="#DejaVuSans-20" transform="translate(2756.820312 0)"/>
    <use xlink:href="#DejaVuSans-2d" transform="translate(2788.607422 0)"/>
    <use xlink:href="#DejaVuSans-20" transform="translate(2824.691406 0)"/>
    <use xlink:href="#DejaVuSans-54" transform="translate(2856.478516 0)"/>
    <use xlink:href="#DejaVuSans-65" transform="translate(2900.5625 0)"/>
    <use xlink:href="#DejaVuSans-63" transform="translate(2962.085938 0)"/>
    <use xlink:href="#DejaVuSans-68" transform="translate(3017.066406 0)"/>
    <use xlink:href="#DejaVuSans-6e" transform="translate(3080.445312 0)"/>
    <use xlink:href="#DejaVuSans-6f" transform="translate(3143.824219 0)"/>
    <use xlink:href="#DejaVuSans-6c" transform="translate(3205.005859 0)"/>
    <use xlink:href="#DejaVuSans-6f" transform="translate(3232.789062 0)"/>
    <use xlink:href="#DejaVuSans-67" transform="translate(3293.970703 0)"/>
    <use xlink:href="#DejaVuSans-69" transform="translate(3357.447266 0)"/>
    <use xlink:href="#DejaVuSans-65" transform="translate(3385.230469 0)"/>
    <use xlink:href="#DejaVuSans-6e" transform="translate(3446.753906 0)"/>
    <use xlink:href="#DejaVuSans-20" transform="translate(3510.132812 0)"/>
    <use xlink:href="#DejaVuSans-77" transform="translate(3541.919922 0)"/>
    <use xlink:href="#DejaVuSans-65" transform="translate(3623.707031 0)"/>
    <use xlink:href="#DejaVuSans-72" transform="translate(3685.230469 0)"/>
    <use xlink:href="#DejaVuSans-64" transform="translate(3724.59375 0)"/>
    <use xlink:href="#DejaVuSans-65" transform="translate(3788.070312 0)"/>
    <use xlink:href="#DejaVuSans-6e" transform="translate(3849.59375 0)"/>
   </g>
   <!-- derzeit in Ihrem Unternehmen eingesetzt und welche sind zukünftig in Planung? – -->
   <g transform="translate(242.803359 569.430578) scale(0.11 -0.11)">
    <defs>
     <path id="DejaVuSans-55" d="M 556 4666 
L 1191 4666 
L 1191 1831 
Q 1191 1081 1462 751 
Q 1734 422 2344 422 
Q 2950 422 3222 751 
Q 3494 1081 3494 1831 
L 3494 4666 
L 4128 4666 
L 4128 1753 
Q 4128 841 3676 375 
Q 3225 -91 2344 -91 
Q 1459 -91 1007 375 
Q 556 841 556 1753 
L 556 4666 
z
" transform="scale(0.015625)"/>
     <path id="DejaVuSans-6b" d="M 581 4863 
L 1159 4863 
L 1159 1991 
L 2875 3500 
L 3609 3500 
L 1753 1863 
L 3688 0 
L 2938 0 
L 1159 1709 
L 1159 0 
L 581 0 
L 581 4863 
z
" transform="scale(0.015625)"/>
     <path id="DejaVuSans-fc" d="M 544 1381 
L 544 3500 
L 1119 3500 
L 1119 1403 
Q 1119 906 1312 657 
Q 1506 409 1894 409 
Q 2359 409 2629 706 
Q 2900 1003 2900 1516 
L 2900 3500 
L 3475 3500 
L 3475 0 
L 2900 0 
L 2900 538 
Q 2691 219 2414 64 
Q 2138 -91 1772 -91 
Q 1169 -91 856 284 
Q 544 659 544 1381 
z
M 1991 3584 
L 1991 3584 
z
M 2278 4850 
L 2912 4850 
L 2912 4219 
L 2278 4219 
L 2278 4850 
z
M 1056 4850 
L 1690 4850 
L 1690 4219 
L 1056 4219 
L 1056 4850 
z
" transform="scale(0.015625)"/>
     <path id="DejaVuSans-3f" d="M 1222 794 
L 1856 794 
L 1856 0 
L 1222 0 
L 1222 794 
z
M 1838 1253 
L 1241 1253 
L 1241 1734 
Q 1241 2050 1328 2253 
Q 1416 2456 1697 2725 
L 1978 3003 
Q 2156 3169 2236 3316 
Q 2316 3463 2316 3616 
Q 2316 3894 2111 4066 
Q 1906 4238 1569 4238 
Q 1322 4238 1042 4128 
Q 763 4019 459 3809 
L 459 4397 
Q 753 4575 1054 4662 
Q 1356 4750 1678 4750 
Q 2253 4750 2601 4447 
Q 2950 4144 2950 3647 
Q 2950 3409 2837 3195 
Q 2725 2981 2444 2713 
L 2169 2444 
Q 2022 2297 1961 2214 
Q 1900 2131 1875 2053 
Q 1856 1988 1847 1894 
Q 1838 1800 1838 1638 
L 1838 1253 
z
" transform="scale(0.015625)"/>
     <path id="DejaVuSans-2013" d="M 313 1978 
L 2888 1978 
L 2888 1528 
L 313 1528 
L 313 1978 
z
" transform="scale(0.015625)"/>
    </defs>
    <use xlink:href="#DejaVuSans-64"/>
    <use xlink:href="#DejaVuSans-65" transform="translate(63.476562 0)"/>
    <use xlink:href="#DejaVuSans-72" transform="translate(125 0)"/>
    <use xlink:href="#DejaVuSans-7a" transform="translate(166.113281 0)"/>
    <use xlink:href="#DejaVuSans-65" transform="translate(218.603516 0)"/>
    <use xlink:href="#DejaVuSans-69" transform="translate(280.126953 0)"/>
    <use xlink:href="#DejaVuSans-74" transform="translate(307.910156 0)"/>
    <use xlink:href="#DejaVuSans-20" transform="translate(347.119141 0)"/>
    <use xlink:href="#DejaVuSans-69" transform="translate(378.90625 0)"/>
    <use xlink:href="#DejaVuSans-6e" transform="translate(406.689453 0)"/>
    <use xlink:href="#DejaVuSans-20" transform="translate(470.068359 0)"/>
    <use xlink:href="#DejaVuSans-49" transform="translate(501.855469 0)"/>
    <use xlink:href="#DejaVuSans-68" transform="translate(531.347656 0)"/>
    <use xlink:href="#DejaVuSans-72" transform="translate(594.726562 0)"/>
    <use xlink:href="#DejaVuSans-65" transform="translate(633.589844 0)"/>
    <use xlink:href="#DejaVuSans-6d" transform="translate(695.113281 0)"/>
    <use xlink:href="#DejaVuSans-20" transform="translate(792.525391 0)"/>
    <use xlink:href="#DejaVuSans-55" transform="translate(824.3125 0)"/>
    <use xlink:href="#DejaVuSans-6e" transform="translate(897.505859 0)"/>
    <use xlink:href="#DejaVuSans-74" transform="translate(960.884766 0)"/>
    <use xlink:href="#DejaVuSans-65" transform="translate(1000.09375 0)"/>
    <use xlink:href="#DejaVuSans-72" transform="translate(1061.617188 0)"/>
    <use xlink:href="#DejaVuSans-6e" transform="translate(1100.980469 0)"/>
    <use xlink:href="#DejaVuSans-65" transform="translate(1164.359375 0)"/>
    <use xlink:href="#DejaVuSans-68" transform="translate(1225.882812 0)"/>
    <use xlink:href="#DejaVuSans-6d" transform="translate(1289.261719 0)"/>
    <use xlink:href="#DejaVuSans-65" transform="translate(1386.673828 0)"/>
    <use xlink:href="#DejaVuSans-6e" transform="translate(1448.197266 0)"/>
    <use xlink:href="#DejaVuSans-20" transform="translate(1511.576172 0)"/>
    <use xlink:href="#DejaVuSans-65" transform="translate(1543.363281 0)"/>
    <use xlink:href="#DejaVuSans-69" transform="translate(1604.886719 0)"/>
    <use xlink:href="#DejaVuSans-6e" transform="translate(1632.669922 0)"/>
    <use xlink:href="#DejaVuSans-67" transform="translate(1696.048828 0)"/>
    <use xlink:href="#DejaVuSans-65" transform="translate(1759.525391 0)"/>
    <use xlink:href="#DejaVuSans-73" transform="translate(1821.048828 0)"/>
    <use xlink:href="#DejaVuSans-65" transform="translate(1873.148438 0)"/>
    <use xlink:href="#DejaVuSans-74" transform="translate(1934.671875 0)"/>
    <use xlink:href="#DejaVuSans-7a" transform="translate(1973.880859 0)"/>
    <use xlink:href="#DejaVuSans-74" transform="translate(2026.371094 0)"/>
    <use xlink:href="#DejaVuSans-20" transform="translate(2065.580078 0)"/>
    <use xlink:href="#DejaVuSans-75" transform="translate(2097.367188 0)"/>
    <use xlink:href="#DejaVuSans-6e" transform="translate(2160.746094 0)"/>
    <use xlink:href="#DejaVuSans-64" transform="translate(2224.125 0)"/>
    <use xlink:href="#DejaVuSans-20" transform="translate(2287.601562 0)"/>
    <use xlink:href="#DejaVuSans-77" transform="translate(2319.388672 0)"/>
    <use xlink:href="#DejaVuSans-65" transform="translate(2401.175781 0)"/>
    <use xlink:href="#DejaVuSans-6c" transform="translate(2462.699219 0)"/>
    <use xlink:href="#DejaVuSans-63" transform="translate(2490.482422 0)"/>
    <use xlink:href="#DejaVuSans-68" transform="translate(2545.462891 0)"/>
    <use xlink:href="#DejaVuSans-65" transform="translate(2608.841797 0)"/>
    <use xlink:href="#DejaVuSans-20" transform="translate(2670.365234 0)"/>
    <use xlink:href="#DejaVuSans-73" transform="translate(2702.152344 0)"/>
    <use xlink:href="#DejaVuSans-69" transform="translate(2754.251953 0)"/>
    <use xlink:href="#DejaVuSans-6e" transform="translate(2782.035156 0)"/>
    <use xlink:href="#DejaVuSans-64" transform="translate(2845.414062 0)"/>
    <use xlink:href="#DejaVuSans-20" transform="translate(2908.890625 0)"/>
    <use xlink:href="#DejaVuSans-7a" transform="translate(2940.677734 0)"/>
    <use xlink:href="#DejaVuSans-75" transform="translate(2993.167969 0)"/>
    <use xlink:href="#DejaVuSans-6b" transform="translate(3056.546875 0)"/>
    <use xlink:href="#DejaVuSans-fc" transform="translate(3111.332031 0)"/>
    <use xlink:href="#DejaVuSans-6e" transform="translate(3174.710938 0)"/>
    <use xlink:href="#DejaVuSans-66" transform="translate(3238.089844 0)"/>
    <use xlink:href="#DejaVuSans-74" transform="translate(3271.544922 0)"/>
    <use xlink:href="#DejaVuSans-69" transform="translate(3310.753906 0)"/>
    <use xlink:href="#DejaVuSans-67" transform="translate(3338.537109 0)"/>
    <use xlink:href="#DejaVuSans-20" transform="translate(3402.013672 0)"/>
    <use xlink:href="#DejaVuSans-69" transform="translate(3433.800781 0)"/>
    <use xlink:href="#DejaVuSans-6e" transform="translate(3461.583984 0)"/>
    <use xlink:href="#DejaVuSans-20" transform="translate(3524.962891 0)"/>
    <use xlink:href="#DejaVuSans-50" transform="translate(3556.75 0)"/>
    <use xlink:href="#DejaVuSans-6c" transform="translate(3617.052734 0)"/>
    <use xlink:href="#DejaVuSans-61" transform="translate(3644.835938 0)"/>
    <use xlink:href="#DejaVuSans-6e" transform="translate(3706.115234 0)"/>
    <use xlink:href="#DejaVuSans-75" transform="translate(3769.494141 0)"/>
    <use xlink:href="#DejaVuSans-6e" transform="translate(3832.873047 0)"/>
    <use xlink:href="#DejaVuSans-67" transform="translate(3896.251953 0)"/>
    <use xlink:href="#DejaVuSans-3f" transform="translate(3959.728516 0)"/>
    <use xlink:href="#DejaVuSans-20" transform="translate(4012.804688 0)"/>
    <use xlink:href="#DejaVuSans-2013" transform="translate(4044.591797 0)"/>
   </g>
   <!-- Verwaltungsschale (Asset Administration Shell, AAS) -->
   <g transform="translate(323.586328 580.912344) scale(0.11 -0.11)">
    <use xlink:href="#DejaVuSans-56"/>
    <use xlink:href="#DejaVuSans-65" transform="translate(60.658203 0)"/>
    <use xlink:href="#DejaVuSans-72" transform="translate(122.181641 0)"/>
    <use xlink:href="#DejaVuSans-77" transform="translate(163.294922 0)"/>
    <use xlink:href="#DejaVuSans-61" transform="translate(245.082031 0)"/>
    <use xlink:href="#DejaVuSans-6c" transform="translate(306.361328 0)"/>
    <use xlink:href="#DejaVuSans-74" transform="translate(334.144531 0)"/>
    <use xlink:href="#DejaVuSans-75" transform="translate(373.353516 0)"/>
    <use xlink:href="#DejaVuSans-6e" transform="translate(436.732422 0)"/>
    <use xlink:href="#DejaVuSans-67" transform="translate(500.111328 0)"/>
    <use xlink:href="#DejaVuSans-73" transform="translate(563.587891 0)"/>
    <use xlink:href="#DejaVuSans-73" transform="translate(615.6875 0)"/>
    <use xlink:href="#DejaVuSans-63" transform="translate(667.787109 0)"/>
    <use xlink:href="#DejaVuSans-68" transform="translate(722.767578 0)"/>
    <use xlink:href="#DejaVuSans-61" transform="translate(786.146484 0)"/>
    <use xlink:href="#DejaVuSans-6c" transform="translate(847.425781 0)"/>
    <use xlink:href="#DejaVuSans-65" transform="translate(875.208984 0)"/>
    <use xlink:href="#DejaVuSans-20" transform="translate(936.732422 0)"/>
    <use xlink:href="#DejaVuSans-28" transform="translate(968.519531 0)"/>
    <use xlink:href="#DejaVuSans-41" transform="translate(1007.533203 0)"/>
    <use xlink:href="#DejaVuSans-73" transform="translate(1075.941406 0)"/>
    <use xlink:href="#DejaVuSans-73" transform="translate(1128.041016 0)"/>
    <use xlink:href="#DejaVuSans-65" transform="translate(1180.140625 0)"/>
    <use xlink:href="#DejaVuSans-74" transform="translate(1241.664062 0)"/>
    <use xlink:href="#DejaVuSans-20" transform="translate(1280.873047 0)"/>
    <use xlink:href="#DejaVuSans-41" transform="translate(1312.660156 0)"/>
    <use xlink:href="#DejaVuSans-64" transform="translate(1379.318359 0)"/>
    <use xlink:href="#DejaVuSans-6d" transform="translate(1442.794922 0)"/>
    <use xlink:href="#DejaVuSans-69" transform="translate(1540.207031 0)"/>
    <use xlink:href="#DejaVuSans-6e" transform="translate(1567.990234 0)"/>
    <use xlink:href="#DejaVuSans-69" transform="translate(1631.369141 0)"/>
    <use xlink:href="#DejaVuSans-73" transform="translate(1659.152344 0)"/>
    <use xlink:href="#DejaVuSans-74" transform="translate(1711.251953 0)"/>
    <use xlink:href="#DejaVuSans-72" transform="translate(1750.460938 0)"/>
    <use xlink:href="#DejaVuSans-61" transform="translate(1791.574219 0)"/>
    <use xlink:href="#DejaVuSans-74" transform="translate(1852.853516 0)"/>
    <use xlink:href="#DejaVuSans-69" transform="translate(1892.0625 0)"/>
    <use xlink:href="#DejaVuSans-6f" transform="translate(1919.845703 0)"/>
    <use xlink:href="#DejaVuSans-6e" transform="translate(1981.027344 0)"/>
    <use xlink:href="#DejaVuSans-20" transform="translate(2044.40625 0)"/>
    <use xlink:href="#DejaVuSans-53" transform="translate(2076.193359 0)"/>
    <use xlink:href="#DejaVuSans-68" transform="translate(2139.669922 0)"/>
    <use xlink:href="#DejaVuSans-65" transform="translate(2203.048828 0)"/>
    <use xlink:href="#DejaVuSans-6c" transform="translate(2264.572266 0)"/>
    <use xlink:href="#DejaVuSans-6c" transform="translate(2292.355469 0)"/>
    <use xlink:href="#DejaVuSans-2c" transform="translate(2320.138672 0)"/>
    <use xlink:href="#DejaVuSans-20" transform="translate(2351.925781 0)"/>
    <use xlink:href="#DejaVuSans-41" transform="translate(2383.712891 0)"/>
    <use xlink:href="#DejaVuSans-41" transform="translate(2454.871094 0)"/>
    <use xlink:href="#DejaVuSans-53" transform="translate(2523.279297 0)"/>
    <use xlink:href="#DejaVuSans-29" transform="translate(2586.755859 0)"/>
   </g>
  </g>
 </g>
 <defs>
  <clipPath id="p46a3311089">
   <rect x="254.16" y="51.84" width="427.68" height="427.68"/>
  </clipPath>
 </defs>
</svg>
