<?xml version="1.0" encoding="utf-8" standalone="no"?>
<!DOCTYPE svg PUBLIC "-//W3C//DTD SVG 1.1//EN"
  "http://www.w3.org/Graphics/SVG/1.1/DTD/svg11.dtd">
<svg xmlns:xlink="http://www.w3.org/1999/xlink" width="936pt" height="648pt" viewBox="0 0 936 648" xmlns="http://www.w3.org/2000/svg" version="1.1">
 <metadata>
  <rdf:RDF xmlns:dc="http://purl.org/dc/elements/1.1/" xmlns:cc="http://creativecommons.org/ns#" xmlns:rdf="http://www.w3.org/1999/02/22-rdf-syntax-ns#">
   <cc:Work>
    <dc:type rdf:resource="http://purl.org/dc/dcmitype/StillImage"/>
    <dc:date>2026-02-23T18:46:22.879942</dc:date>
    <dc:format>image/svg+xml</dc:format>
    <dc:creator>
     <cc:Agent>
      <dc:title>Matplotlib v3.10.8, https://matplotlib.org/</dc:title>
     </cc:Agent>
    </dc:creator>
   </cc:Work>
  </rdf:RDF>
 </metadata>
 <defs>
  <style type="text/css">*{stroke-linejoin: round; stroke-linecap: butt}</style>
 </defs>
 <g id="figure_1">
  <g id="patch_1">
   <path d="M 0 648 
L 936 648 
L 936 0 
L 0 0 
z
" style="fill: #ffffff"/>
  </g>
  <g id="axes_1">
   <g id="patch_2">
    <path d="M 639.072 265.68 
C 639.072 220.326289 621.036082 176.783743 588.966169 144.713831 
C 556.896257 112.643918 513.353706 94.608 467.999993 94.608 
L 467.999995 154.4832 
C 497.479909 154.4832 525.782567 166.206547 546.62801 187.05199 
C 567.473453 207.897433 579.1968 236.200088 579.1968 265.68 
z
" style="fill: #003b6a; stroke: #ffffff; stroke-linejoin: miter"/>
   </g>
   <g id="patch_3">
    <path d="M 504.363969 432.842468 
C 542.517732 424.542621 576.703553 403.425285 601.203762 373.022377 
C 625.703972 342.61947 639.072 304.726087 639.072 265.68 
L 579.1968 265.68 
C 579.1968 291.059957 570.507582 315.690655 554.582446 335.452545 
C 538.65731 355.214435 516.436526 368.940704 491.63658 374.335604 
z
" style="fill: #8fc73e; stroke: #ffffff; stroke-linejoin: miter"/>
   </g>
   <g id="patch_4">
    <path d="M 298.669268 290.026061 
C 302.012669 313.279985 310.110663 335.597869 322.457177 355.585035 
C 334.803691 375.572201 351.13607 392.803458 370.433746 406.202077 
C 389.731423 419.600695 411.583874 428.881627 434.625508 433.464894 
C 457.667143 438.048162 481.407811 437.836275 504.363969 432.842468 
L 491.63658 374.335604 
C 476.715077 377.581579 461.283643 377.719305 446.30658 374.740181 
C 431.329518 371.761057 417.125425 365.728452 404.581935 357.01935 
C 392.038445 348.310248 381.422399 337.109931 373.397165 324.118273 
C 365.371931 311.126615 360.108235 296.61999 357.935024 281.504939 
z
" style="fill: #dc912f; stroke: #ffffff; stroke-linejoin: miter"/>
   </g>
   <g id="patch_5">
    <path d="M 298.669268 290.026061 
C 298.669268 290.026061 298.669268 290.026061 298.669268 290.026061 
L 357.935024 281.504939 
C 357.935024 281.504939 357.935024 281.504939 357.935024 281.504939 
z
" style="fill: #93bbdc; stroke: #ffffff; stroke-linejoin: miter"/>
   </g>
   <g id="patch_6">
    <path d="M 324.085088 173.191482 
C 313.049837 190.36266 305.176293 209.371056 300.837532 229.316008 
C 296.49876 249.260963 295.764415 269.8224 298.669268 290.026061 
L 357.935024 281.504939 
C 356.04687 268.37256 356.524194 255.007626 359.344396 242.043405 
C 362.16459 229.079187 367.282394 216.723729 374.455307 205.562463 
z
" style="fill: #f9c803; stroke: #ffffff; stroke-linejoin: miter"/>
   </g>
   <g id="patch_7">
    <path d="M 338.712387 153.651695 
C 336.045841 156.729055 333.490022 159.900632 331.049802 163.16038 
C 328.609582 166.420128 326.286542 169.765956 324.085088 173.191482 
L 374.455307 205.562463 
C 375.886253 203.335871 377.396228 201.161083 378.982371 199.042247 
C 380.568514 196.923411 382.229797 194.861886 383.963051 192.861602 
z
" style="fill: #6283aa; stroke: #ffffff; stroke-linejoin: miter"/>
   </g>
   <g id="patch_8">
    <path d="M 468.000002 94.608 
C 443.477952 94.608 419.240147 99.880614 396.934107 110.06744 
C 374.628071 120.254266 354.770913 135.119168 338.712387 153.651695 
L 383.963051 192.861602 
C 394.401093 180.815459 407.308246 171.153273 421.807169 164.531836 
C 436.306096 157.910399 452.060669 154.4832 468.000001 154.4832 
z
" style="fill: #b0d577; stroke: #ffffff; stroke-linejoin: miter"/>
   </g>
   <g id="matplotlib.axis_1"/>
   <g id="matplotlib.axis_2"/>
   <g id="line2d_1">
    <path d="M 574.450228 159.229772 
L 601.062793 132.617207 
" clip-path="url(#p783ea579d5)" style="fill: none; stroke: #000000; stroke-opacity: 0.35; stroke-linecap: square"/>
   </g>
   <g id="line2d_2">
    <path d="M 585.219305 360.141292 
L 614.524142 383.756622 
" clip-path="url(#p783ea579d5)" style="fill: none; stroke: #000000; stroke-opacity: 0.35; stroke-linecap: square"/>
   </g>
   <g id="line2d_3">
    <path d="M 382.141693 389.33943 
L 360.677119 420.254293 
" clip-path="url(#p783ea579d5)" style="fill: none; stroke: #000000; stroke-opacity: 0.35; stroke-linecap: square"/>
   </g>
   <g id="line2d_4">
    <path d="M 320.897033 233.679687 
L 284.121289 225.679607 
" clip-path="url(#p783ea579d5)" style="fill: none; stroke: #000000; stroke-opacity: 0.35; stroke-linecap: square"/>
   </g>
   <g id="line2d_5">
    <path d="M 347.483831 175.462732 
L 317.354776 152.908418 
" clip-path="url(#p783ea579d5)" style="fill: none; stroke: #000000; stroke-opacity: 0.35; stroke-linecap: square"/>
   </g>
   <g id="line2d_6">
    <path d="M 405.462013 128.740947 
L 389.827516 94.506176 
" clip-path="url(#p783ea579d5)" style="fill: none; stroke: #000000; stroke-opacity: 0.35; stroke-linecap: square"/>
   </g>
   <g id="text_1">
    <!-- 21% -->
    <g transform="translate(619.207714 111.064848) scale(0.12 -0.12)">
     <defs>
      <path id="DejaVuSans-32" d="M 1228 531 
L 3431 531 
L 3431 0 
L 469 0 
L 469 531 
Q 828 903 1448 1529 
Q 2069 2156 2228 2338 
Q 2531 2678 2651 2914 
Q 2772 3150 2772 3378 
Q 2772 3750 2511 3984 
Q 2250 4219 1831 4219 
Q 1534 4219 1204 4116 
Q 875 4013 500 3803 
L 500 4441 
Q 881 4594 1212 4672 
Q 1544 4750 1819 4750 
Q 2544 4750 2975 4387 
Q 3406 4025 3406 3419 
Q 3406 3131 3298 2873 
Q 3191 2616 2906 2266 
Q 2828 2175 2409 1742 
Q 1991 1309 1228 531 
z
" transform="scale(0.015625)"/>
      <path id="DejaVuSans-31" d="M 794 531 
L 1825 531 
L 1825 4091 
L 703 3866 
L 703 4441 
L 1819 4666 
L 2450 4666 
L 2450 531 
L 3481 531 
L 3481 0 
L 794 0 
L 794 531 
z
" transform="scale(0.015625)"/>
      <path id="DejaVuSans-25" d="M 4653 2053 
Q 4381 2053 4226 1822 
Q 4072 1591 4072 1178 
Q 4072 772 4226 539 
Q 4381 306 4653 306 
Q 4919 306 5073 539 
Q 5228 772 5228 1178 
Q 5228 1588 5073 1820 
Q 4919 2053 4653 2053 
z
M 4653 2450 
Q 5147 2450 5437 2106 
Q 5728 1763 5728 1178 
Q 5728 594 5436 251 
Q 5144 -91 4653 -91 
Q 4153 -91 3862 251 
Q 3572 594 3572 1178 
Q 3572 1766 3864 2108 
Q 4156 2450 4653 2450 
z
M 1428 4353 
Q 1159 4353 1004 4120 
Q 850 3888 850 3481 
Q 850 3069 1003 2837 
Q 1156 2606 1428 2606 
Q 1700 2606 1854 2837 
Q 2009 3069 2009 3481 
Q 2009 3884 1853 4118 
Q 1697 4353 1428 4353 
z
M 4250 4750 
L 4750 4750 
L 1831 -91 
L 1331 -91 
L 4250 4750 
z
M 1428 4750 
Q 1922 4750 2215 4408 
Q 2509 4066 2509 3481 
Q 2509 2891 2217 2550 
Q 1925 2209 1428 2209 
Q 931 2209 642 2551 
Q 353 2894 353 3481 
Q 353 4063 643 4406 
Q 934 4750 1428 4750 
z
" transform="scale(0.015625)"/>
     </defs>
     <use xlink:href="#DejaVuSans-32"/>
     <use xlink:href="#DejaVuSans-31" transform="translate(63.623047 0)"/>
     <use xlink:href="#DejaVuSans-25" transform="translate(127.246094 0)"/>
    </g>
    <!-- Keine Erfassung -->
    <g transform="translate(619.207714 124.502223) scale(0.12 -0.12)">
     <defs>
      <path id="DejaVuSans-4b" d="M 628 4666 
L 1259 4666 
L 1259 2694 
L 3353 4666 
L 4166 4666 
L 1850 2491 
L 4331 0 
L 3500 0 
L 1259 2247 
L 1259 0 
L 628 0 
L 628 4666 
z
" transform="scale(0.015625)"/>
      <path id="DejaVuSans-65" d="M 3597 1894 
L 3597 1613 
L 953 1613 
Q 991 1019 1311 708 
Q 1631 397 2203 397 
Q 2534 397 2845 478 
Q 3156 559 3463 722 
L 3463 178 
Q 3153 47 2828 -22 
Q 2503 -91 2169 -91 
Q 1331 -91 842 396 
Q 353 884 353 1716 
Q 353 2575 817 3079 
Q 1281 3584 2069 3584 
Q 2775 3584 3186 3129 
Q 3597 2675 3597 1894 
z
M 3022 2063 
Q 3016 2534 2758 2815 
Q 2500 3097 2075 3097 
Q 1594 3097 1305 2825 
Q 1016 2553 972 2059 
L 3022 2063 
z
" transform="scale(0.015625)"/>
      <path id="DejaVuSans-69" d="M 603 3500 
L 1178 3500 
L 1178 0 
L 603 0 
L 603 3500 
z
M 603 4863 
L 1178 4863 
L 1178 4134 
L 603 4134 
L 603 4863 
z
" transform="scale(0.015625)"/>
      <path id="DejaVuSans-6e" d="M 3513 2113 
L 3513 0 
L 2938 0 
L 2938 2094 
Q 2938 2591 2744 2837 
Q 2550 3084 2163 3084 
Q 1697 3084 1428 2787 
Q 1159 2491 1159 1978 
L 1159 0 
L 581 0 
L 581 3500 
L 1159 3500 
L 1159 2956 
Q 1366 3272 1645 3428 
Q 1925 3584 2291 3584 
Q 2894 3584 3203 3211 
Q 3513 2838 3513 2113 
z
" transform="scale(0.015625)"/>
      <path id="DejaVuSans-20" transform="scale(0.015625)"/>
      <path id="DejaVuSans-45" d="M 628 4666 
L 3578 4666 
L 3578 4134 
L 1259 4134 
L 1259 2753 
L 3481 2753 
L 3481 2222 
L 1259 2222 
L 1259 531 
L 3634 531 
L 3634 0 
L 628 0 
L 628 4666 
z
" transform="scale(0.015625)"/>
      <path id="DejaVuSans-72" d="M 2631 2963 
Q 2534 3019 2420 3045 
Q 2306 3072 2169 3072 
Q 1681 3072 1420 2755 
Q 1159 2438 1159 1844 
L 1159 0 
L 581 0 
L 581 3500 
L 1159 3500 
L 1159 2956 
Q 1341 3275 1631 3429 
Q 1922 3584 2338 3584 
Q 2397 3584 2469 3576 
Q 2541 3569 2628 3553 
L 2631 2963 
z
" transform="scale(0.015625)"/>
      <path id="DejaVuSans-66" d="M 2375 4863 
L 2375 4384 
L 1825 4384 
Q 1516 4384 1395 4259 
Q 1275 4134 1275 3809 
L 1275 3500 
L 2222 3500 
L 2222 3053 
L 1275 3053 
L 1275 0 
L 697 0 
L 697 3053 
L 147 3053 
L 147 3500 
L 697 3500 
L 697 3744 
Q 697 4328 969 4595 
Q 1241 4863 1831 4863 
L 2375 4863 
z
" transform="scale(0.015625)"/>
      <path id="DejaVuSans-61" d="M 2194 1759 
Q 1497 1759 1228 1600 
Q 959 1441 959 1056 
Q 959 750 1161 570 
Q 1363 391 1709 391 
Q 2188 391 2477 730 
Q 2766 1069 2766 1631 
L 2766 1759 
L 2194 1759 
z
M 3341 1997 
L 3341 0 
L 2766 0 
L 2766 531 
Q 2569 213 2275 61 
Q 1981 -91 1556 -91 
Q 1019 -91 701 211 
Q 384 513 384 1019 
Q 384 1609 779 1909 
Q 1175 2209 1959 2209 
L 2766 2209 
L 2766 2266 
Q 2766 2663 2505 2880 
Q 2244 3097 1772 3097 
Q 1472 3097 1187 3025 
Q 903 2953 641 2809 
L 641 3341 
Q 956 3463 1253 3523 
Q 1550 3584 1831 3584 
Q 2591 3584 2966 3190 
Q 3341 2797 3341 1997 
z
" transform="scale(0.015625)"/>
      <path id="DejaVuSans-73" d="M 2834 3397 
L 2834 2853 
Q 2591 2978 2328 3040 
Q 2066 3103 1784 3103 
Q 1356 3103 1142 2972 
Q 928 2841 928 2578 
Q 928 2378 1081 2264 
Q 1234 2150 1697 2047 
L 1894 2003 
Q 2506 1872 2764 1633 
Q 3022 1394 3022 966 
Q 3022 478 2636 193 
Q 2250 -91 1575 -91 
Q 1294 -91 989 -36 
Q 684 19 347 128 
L 347 722 
Q 666 556 975 473 
Q 1284 391 1588 391 
Q 1994 391 2212 530 
Q 2431 669 2431 922 
Q 2431 1156 2273 1281 
Q 2116 1406 1581 1522 
L 1381 1569 
Q 847 1681 609 1914 
Q 372 2147 372 2553 
Q 372 3047 722 3315 
Q 1072 3584 1716 3584 
Q 2034 3584 2315 3537 
Q 2597 3491 2834 3397 
z
" transform="scale(0.015625)"/>
      <path id="DejaVuSans-75" d="M 544 1381 
L 544 3500 
L 1119 3500 
L 1119 1403 
Q 1119 906 1312 657 
Q 1506 409 1894 409 
Q 2359 409 2629 706 
Q 2900 1003 2900 1516 
L 2900 3500 
L 3475 3500 
L 3475 0 
L 2900 0 
L 2900 538 
Q 2691 219 2414 64 
Q 2138 -91 1772 -91 
Q 1169 -91 856 284 
Q 544 659 544 1381 
z
M 1991 3584 
L 1991 3584 
z
" transform="scale(0.015625)"/>
      <path id="DejaVuSans-67" d="M 2906 1791 
Q 2906 2416 2648 2759 
Q 2391 3103 1925 3103 
Q 1463 3103 1205 2759 
Q 947 2416 947 1791 
Q 947 1169 1205 825 
Q 1463 481 1925 481 
Q 2391 481 2648 825 
Q 2906 1169 2906 1791 
z
M 3481 434 
Q 3481 -459 3084 -895 
Q 2688 -1331 1869 -1331 
Q 1566 -1331 1297 -1286 
Q 1028 -1241 775 -1147 
L 775 -588 
Q 1028 -725 1275 -790 
Q 1522 -856 1778 -856 
Q 2344 -856 2625 -561 
Q 2906 -266 2906 331 
L 2906 616 
Q 2728 306 2450 153 
Q 2172 0 1784 0 
Q 1141 0 747 490 
Q 353 981 353 1791 
Q 353 2603 747 3093 
Q 1141 3584 1784 3584 
Q 2172 3584 2450 3431 
Q 2728 3278 2906 2969 
L 2906 3500 
L 3481 3500 
L 3481 434 
z
" transform="scale(0.015625)"/>
     </defs>
     <use xlink:href="#DejaVuSans-4b"/>
     <use xlink:href="#DejaVuSans-65" transform="translate(60.576172 0)"/>
     <use xlink:href="#DejaVuSans-69" transform="translate(122.099609 0)"/>
     <use xlink:href="#DejaVuSans-6e" transform="translate(149.882812 0)"/>
     <use xlink:href="#DejaVuSans-65" transform="translate(213.261719 0)"/>
     <use xlink:href="#DejaVuSans-20" transform="translate(274.785156 0)"/>
     <use xlink:href="#DejaVuSans-45" transform="translate(306.572266 0)"/>
     <use xlink:href="#DejaVuSans-72" transform="translate(369.755859 0)"/>
     <use xlink:href="#DejaVuSans-66" transform="translate(410.869141 0)"/>
     <use xlink:href="#DejaVuSans-61" transform="translate(446.074219 0)"/>
     <use xlink:href="#DejaVuSans-73" transform="translate(507.353516 0)"/>
     <use xlink:href="#DejaVuSans-73" transform="translate(559.453125 0)"/>
     <use xlink:href="#DejaVuSans-75" transform="translate(611.552734 0)"/>
     <use xlink:href="#DejaVuSans-6e" transform="translate(674.931641 0)"/>
     <use xlink:href="#DejaVuSans-67" transform="translate(738.310547 0)"/>
    </g>
   </g>
   <g id="text_2">
    <!-- 18% -->
    <g transform="translate(634.504701 396.450537) scale(0.12 -0.12)">
     <defs>
      <path id="DejaVuSans-38" d="M 2034 2216 
Q 1584 2216 1326 1975 
Q 1069 1734 1069 1313 
Q 1069 891 1326 650 
Q 1584 409 2034 409 
Q 2484 409 2743 651 
Q 3003 894 3003 1313 
Q 3003 1734 2745 1975 
Q 2488 2216 2034 2216 
z
M 1403 2484 
Q 997 2584 770 2862 
Q 544 3141 544 3541 
Q 544 4100 942 4425 
Q 1341 4750 2034 4750 
Q 2731 4750 3128 4425 
Q 3525 4100 3525 3541 
Q 3525 3141 3298 2862 
Q 3072 2584 2669 2484 
Q 3125 2378 3379 2068 
Q 3634 1759 3634 1313 
Q 3634 634 3220 271 
Q 2806 -91 2034 -91 
Q 1263 -91 848 271 
Q 434 634 434 1313 
Q 434 1759 690 2068 
Q 947 2378 1403 2484 
z
M 1172 3481 
Q 1172 3119 1398 2916 
Q 1625 2713 2034 2713 
Q 2441 2713 2670 2916 
Q 2900 3119 2900 3481 
Q 2900 3844 2670 4047 
Q 2441 4250 2034 4250 
Q 1625 4250 1398 4047 
Q 1172 3844 1172 3481 
z
" transform="scale(0.015625)"/>
     </defs>
     <use xlink:href="#DejaVuSans-31"/>
     <use xlink:href="#DejaVuSans-38" transform="translate(63.623047 0)"/>
     <use xlink:href="#DejaVuSans-25" transform="translate(127.246094 0)"/>
    </g>
    <!-- Gesamter Standort -->
    <g transform="translate(634.504701 409.887912) scale(0.12 -0.12)">
     <defs>
      <path id="DejaVuSans-47" d="M 3809 666 
L 3809 1919 
L 2778 1919 
L 2778 2438 
L 4434 2438 
L 4434 434 
Q 4069 175 3628 42 
Q 3188 -91 2688 -91 
Q 1594 -91 976 548 
Q 359 1188 359 2328 
Q 359 3472 976 4111 
Q 1594 4750 2688 4750 
Q 3144 4750 3555 4637 
Q 3966 4525 4313 4306 
L 4313 3634 
Q 3963 3931 3569 4081 
Q 3175 4231 2741 4231 
Q 1884 4231 1454 3753 
Q 1025 3275 1025 2328 
Q 1025 1384 1454 906 
Q 1884 428 2741 428 
Q 3075 428 3337 486 
Q 3600 544 3809 666 
z
" transform="scale(0.015625)"/>
      <path id="DejaVuSans-6d" d="M 3328 2828 
Q 3544 3216 3844 3400 
Q 4144 3584 4550 3584 
Q 5097 3584 5394 3201 
Q 5691 2819 5691 2113 
L 5691 0 
L 5113 0 
L 5113 2094 
Q 5113 2597 4934 2840 
Q 4756 3084 4391 3084 
Q 3944 3084 3684 2787 
Q 3425 2491 3425 1978 
L 3425 0 
L 2847 0 
L 2847 2094 
Q 2847 2600 2669 2842 
Q 2491 3084 2119 3084 
Q 1678 3084 1418 2786 
Q 1159 2488 1159 1978 
L 1159 0 
L 581 0 
L 581 3500 
L 1159 3500 
L 1159 2956 
Q 1356 3278 1631 3431 
Q 1906 3584 2284 3584 
Q 2666 3584 2933 3390 
Q 3200 3197 3328 2828 
z
" transform="scale(0.015625)"/>
      <path id="DejaVuSans-74" d="M 1172 4494 
L 1172 3500 
L 2356 3500 
L 2356 3053 
L 1172 3053 
L 1172 1153 
Q 1172 725 1289 603 
Q 1406 481 1766 481 
L 2356 481 
L 2356 0 
L 1766 0 
Q 1100 0 847 248 
Q 594 497 594 1153 
L 594 3053 
L 172 3053 
L 172 3500 
L 594 3500 
L 594 4494 
L 1172 4494 
z
" transform="scale(0.015625)"/>
      <path id="DejaVuSans-53" d="M 3425 4513 
L 3425 3897 
Q 3066 4069 2747 4153 
Q 2428 4238 2131 4238 
Q 1616 4238 1336 4038 
Q 1056 3838 1056 3469 
Q 1056 3159 1242 3001 
Q 1428 2844 1947 2747 
L 2328 2669 
Q 3034 2534 3370 2195 
Q 3706 1856 3706 1288 
Q 3706 609 3251 259 
Q 2797 -91 1919 -91 
Q 1588 -91 1214 -16 
Q 841 59 441 206 
L 441 856 
Q 825 641 1194 531 
Q 1563 422 1919 422 
Q 2459 422 2753 634 
Q 3047 847 3047 1241 
Q 3047 1584 2836 1778 
Q 2625 1972 2144 2069 
L 1759 2144 
Q 1053 2284 737 2584 
Q 422 2884 422 3419 
Q 422 4038 858 4394 
Q 1294 4750 2059 4750 
Q 2388 4750 2728 4690 
Q 3069 4631 3425 4513 
z
" transform="scale(0.015625)"/>
      <path id="DejaVuSans-64" d="M 2906 2969 
L 2906 4863 
L 3481 4863 
L 3481 0 
L 2906 0 
L 2906 525 
Q 2725 213 2448 61 
Q 2172 -91 1784 -91 
Q 1150 -91 751 415 
Q 353 922 353 1747 
Q 353 2572 751 3078 
Q 1150 3584 1784 3584 
Q 2172 3584 2448 3432 
Q 2725 3281 2906 2969 
z
M 947 1747 
Q 947 1113 1208 752 
Q 1469 391 1925 391 
Q 2381 391 2643 752 
Q 2906 1113 2906 1747 
Q 2906 2381 2643 2742 
Q 2381 3103 1925 3103 
Q 1469 3103 1208 2742 
Q 947 2381 947 1747 
z
" transform="scale(0.015625)"/>
      <path id="DejaVuSans-6f" d="M 1959 3097 
Q 1497 3097 1228 2736 
Q 959 2375 959 1747 
Q 959 1119 1226 758 
Q 1494 397 1959 397 
Q 2419 397 2687 759 
Q 2956 1122 2956 1747 
Q 2956 2369 2687 2733 
Q 2419 3097 1959 3097 
z
M 1959 3584 
Q 2709 3584 3137 3096 
Q 3566 2609 3566 1747 
Q 3566 888 3137 398 
Q 2709 -91 1959 -91 
Q 1206 -91 779 398 
Q 353 888 353 1747 
Q 353 2609 779 3096 
Q 1206 3584 1959 3584 
z
" transform="scale(0.015625)"/>
     </defs>
     <use xlink:href="#DejaVuSans-47"/>
     <use xlink:href="#DejaVuSans-65" transform="translate(77.490234 0)"/>
     <use xlink:href="#DejaVuSans-73" transform="translate(139.013672 0)"/>
     <use xlink:href="#DejaVuSans-61" transform="translate(191.113281 0)"/>
     <use xlink:href="#DejaVuSans-6d" transform="translate(252.392578 0)"/>
     <use xlink:href="#DejaVuSans-74" transform="translate(349.804688 0)"/>
     <use xlink:href="#DejaVuSans-65" transform="translate(389.013672 0)"/>
     <use xlink:href="#DejaVuSans-72" transform="translate(450.537109 0)"/>
     <use xlink:href="#DejaVuSans-20" transform="translate(491.650391 0)"/>
     <use xlink:href="#DejaVuSans-53" transform="translate(523.4375 0)"/>
     <use xlink:href="#DejaVuSans-74" transform="translate(586.914062 0)"/>
     <use xlink:href="#DejaVuSans-61" transform="translate(626.123047 0)"/>
     <use xlink:href="#DejaVuSans-6e" transform="translate(687.402344 0)"/>
     <use xlink:href="#DejaVuSans-64" transform="translate(750.78125 0)"/>
     <use xlink:href="#DejaVuSans-6f" transform="translate(814.257812 0)"/>
     <use xlink:href="#DejaVuSans-72" transform="translate(875.439453 0)"/>
     <use xlink:href="#DejaVuSans-74" transform="translate(916.552734 0)"/>
    </g>
   </g>
   <g id="text_3">
    <!-- 22% -->
    <g transform="translate(319.370308 437.925158) scale(0.12 -0.12)">
     <use xlink:href="#DejaVuSans-32"/>
     <use xlink:href="#DejaVuSans-32" transform="translate(63.623047 0)"/>
     <use xlink:href="#DejaVuSans-25" transform="translate(127.246094 0)"/>
    </g>
    <!-- Gesamtes Gebäude -->
    <g transform="translate(227.652808 451.362533) scale(0.12 -0.12)">
     <defs>
      <path id="DejaVuSans-62" d="M 3116 1747 
Q 3116 2381 2855 2742 
Q 2594 3103 2138 3103 
Q 1681 3103 1420 2742 
Q 1159 2381 1159 1747 
Q 1159 1113 1420 752 
Q 1681 391 2138 391 
Q 2594 391 2855 752 
Q 3116 1113 3116 1747 
z
M 1159 2969 
Q 1341 3281 1617 3432 
Q 1894 3584 2278 3584 
Q 2916 3584 3314 3078 
Q 3713 2572 3713 1747 
Q 3713 922 3314 415 
Q 2916 -91 2278 -91 
Q 1894 -91 1617 61 
Q 1341 213 1159 525 
L 1159 0 
L 581 0 
L 581 4863 
L 1159 4863 
L 1159 2969 
z
" transform="scale(0.015625)"/>
      <path id="DejaVuSans-e4" d="M 2194 1759 
Q 1497 1759 1228 1600 
Q 959 1441 959 1056 
Q 959 750 1161 570 
Q 1363 391 1709 391 
Q 2188 391 2477 730 
Q 2766 1069 2766 1631 
L 2766 1759 
L 2194 1759 
z
M 3341 1997 
L 3341 0 
L 2766 0 
L 2766 531 
Q 2569 213 2275 61 
Q 1981 -91 1556 -91 
Q 1019 -91 701 211 
Q 384 513 384 1019 
Q 384 1609 779 1909 
Q 1175 2209 1959 2209 
L 2766 2209 
L 2766 2266 
Q 2766 2663 2505 2880 
Q 2244 3097 1772 3097 
Q 1472 3097 1187 3025 
Q 903 2953 641 2809 
L 641 3341 
Q 956 3463 1253 3523 
Q 1550 3584 1831 3584 
Q 2591 3584 2966 3190 
Q 3341 2797 3341 1997 
z
M 2150 4850 
L 2784 4850 
L 2784 4219 
L 2150 4219 
L 2150 4850 
z
M 928 4850 
L 1562 4850 
L 1562 4219 
L 928 4219 
L 928 4850 
z
" transform="scale(0.015625)"/>
     </defs>
     <use xlink:href="#DejaVuSans-47"/>
     <use xlink:href="#DejaVuSans-65" transform="translate(77.490234 0)"/>
     <use xlink:href="#DejaVuSans-73" transform="translate(139.013672 0)"/>
     <use xlink:href="#DejaVuSans-61" transform="translate(191.113281 0)"/>
     <use xlink:href="#DejaVuSans-6d" transform="translate(252.392578 0)"/>
     <use xlink:href="#DejaVuSans-74" transform="translate(349.804688 0)"/>
     <use xlink:href="#DejaVuSans-65" transform="translate(389.013672 0)"/>
     <use xlink:href="#DejaVuSans-73" transform="translate(450.537109 0)"/>
     <use xlink:href="#DejaVuSans-20" transform="translate(502.636719 0)"/>
     <use xlink:href="#DejaVuSans-47" transform="translate(534.423828 0)"/>
     <use xlink:href="#DejaVuSans-65" transform="translate(611.914062 0)"/>
     <use xlink:href="#DejaVuSans-62" transform="translate(673.4375 0)"/>
     <use xlink:href="#DejaVuSans-e4" transform="translate(736.914062 0)"/>
     <use xlink:href="#DejaVuSans-75" transform="translate(798.193359 0)"/>
     <use xlink:href="#DejaVuSans-64" transform="translate(861.572266 0)"/>
     <use xlink:href="#DejaVuSans-65" transform="translate(925.048828 0)"/>
    </g>
   </g>
   <g id="text_4">
    <!-- 10% -->
    <g transform="translate(232.375029 210.098885) scale(0.12 -0.12)">
     <defs>
      <path id="DejaVuSans-30" d="M 2034 4250 
Q 1547 4250 1301 3770 
Q 1056 3291 1056 2328 
Q 1056 1369 1301 889 
Q 1547 409 2034 409 
Q 2525 409 2770 889 
Q 3016 1369 3016 2328 
Q 3016 3291 2770 3770 
Q 2525 4250 2034 4250 
z
M 2034 4750 
Q 2819 4750 3233 4129 
Q 3647 3509 3647 2328 
Q 3647 1150 3233 529 
Q 2819 -91 2034 -91 
Q 1250 -91 836 529 
Q 422 1150 422 2328 
Q 422 3509 836 4129 
Q 1250 4750 2034 4750 
z
" transform="scale(0.015625)"/>
     </defs>
     <use xlink:href="#DejaVuSans-31"/>
     <use xlink:href="#DejaVuSans-30" transform="translate(63.623047 0)"/>
     <use xlink:href="#DejaVuSans-25" transform="translate(127.246094 0)"/>
    </g>
    <!-- Separat für einzelne -->
    <g transform="translate(137.365029 223.53626) scale(0.12 -0.12)">
     <defs>
      <path id="DejaVuSans-70" d="M 1159 525 
L 1159 -1331 
L 581 -1331 
L 581 3500 
L 1159 3500 
L 1159 2969 
Q 1341 3281 1617 3432 
Q 1894 3584 2278 3584 
Q 2916 3584 3314 3078 
Q 3713 2572 3713 1747 
Q 3713 922 3314 415 
Q 2916 -91 2278 -91 
Q 1894 -91 1617 61 
Q 1341 213 1159 525 
z
M 3116 1747 
Q 3116 2381 2855 2742 
Q 2594 3103 2138 3103 
Q 1681 3103 1420 2742 
Q 1159 2381 1159 1747 
Q 1159 1113 1420 752 
Q 1681 391 2138 391 
Q 2594 391 2855 752 
Q 3116 1113 3116 1747 
z
" transform="scale(0.015625)"/>
      <path id="DejaVuSans-fc" d="M 544 1381 
L 544 3500 
L 1119 3500 
L 1119 1403 
Q 1119 906 1312 657 
Q 1506 409 1894 409 
Q 2359 409 2629 706 
Q 2900 1003 2900 1516 
L 2900 3500 
L 3475 3500 
L 3475 0 
L 2900 0 
L 2900 538 
Q 2691 219 2414 64 
Q 2138 -91 1772 -91 
Q 1169 -91 856 284 
Q 544 659 544 1381 
z
M 1991 3584 
L 1991 3584 
z
M 2278 4850 
L 2912 4850 
L 2912 4219 
L 2278 4219 
L 2278 4850 
z
M 1056 4850 
L 1690 4850 
L 1690 4219 
L 1056 4219 
L 1056 4850 
z
" transform="scale(0.015625)"/>
      <path id="DejaVuSans-7a" d="M 353 3500 
L 3084 3500 
L 3084 2975 
L 922 459 
L 3084 459 
L 3084 0 
L 275 0 
L 275 525 
L 2438 3041 
L 353 3041 
L 353 3500 
z
" transform="scale(0.015625)"/>
      <path id="DejaVuSans-6c" d="M 603 4863 
L 1178 4863 
L 1178 0 
L 603 0 
L 603 4863 
z
" transform="scale(0.015625)"/>
     </defs>
     <use xlink:href="#DejaVuSans-53"/>
     <use xlink:href="#DejaVuSans-65" transform="translate(63.476562 0)"/>
     <use xlink:href="#DejaVuSans-70" transform="translate(125 0)"/>
     <use xlink:href="#DejaVuSans-61" transform="translate(188.476562 0)"/>
     <use xlink:href="#DejaVuSans-72" transform="translate(249.755859 0)"/>
     <use xlink:href="#DejaVuSans-61" transform="translate(290.869141 0)"/>
     <use xlink:href="#DejaVuSans-74" transform="translate(352.148438 0)"/>
     <use xlink:href="#DejaVuSans-20" transform="translate(391.357422 0)"/>
     <use xlink:href="#DejaVuSans-66" transform="translate(423.144531 0)"/>
     <use xlink:href="#DejaVuSans-fc" transform="translate(458.349609 0)"/>
     <use xlink:href="#DejaVuSans-72" transform="translate(521.728516 0)"/>
     <use xlink:href="#DejaVuSans-20" transform="translate(562.841797 0)"/>
     <use xlink:href="#DejaVuSans-65" transform="translate(594.628906 0)"/>
     <use xlink:href="#DejaVuSans-69" transform="translate(656.152344 0)"/>
     <use xlink:href="#DejaVuSans-6e" transform="translate(683.935547 0)"/>
     <use xlink:href="#DejaVuSans-7a" transform="translate(747.314453 0)"/>
     <use xlink:href="#DejaVuSans-65" transform="translate(799.804688 0)"/>
     <use xlink:href="#DejaVuSans-6c" transform="translate(861.328125 0)"/>
     <use xlink:href="#DejaVuSans-6e" transform="translate(889.111328 0)"/>
     <use xlink:href="#DejaVuSans-65" transform="translate(952.490234 0)"/>
    </g>
    <!-- Maschine oder Arbeitsplatz -->
    <g transform="translate(95.916279 236.973635) scale(0.12 -0.12)">
     <defs>
      <path id="DejaVuSans-4d" d="M 628 4666 
L 1569 4666 
L 2759 1491 
L 3956 4666 
L 4897 4666 
L 4897 0 
L 4281 0 
L 4281 4097 
L 3078 897 
L 2444 897 
L 1241 4097 
L 1241 0 
L 628 0 
L 628 4666 
z
" transform="scale(0.015625)"/>
      <path id="DejaVuSans-63" d="M 3122 3366 
L 3122 2828 
Q 2878 2963 2633 3030 
Q 2388 3097 2138 3097 
Q 1578 3097 1268 2742 
Q 959 2388 959 1747 
Q 959 1106 1268 751 
Q 1578 397 2138 397 
Q 2388 397 2633 464 
Q 2878 531 3122 666 
L 3122 134 
Q 2881 22 2623 -34 
Q 2366 -91 2075 -91 
Q 1284 -91 818 406 
Q 353 903 353 1747 
Q 353 2603 823 3093 
Q 1294 3584 2113 3584 
Q 2378 3584 2631 3529 
Q 2884 3475 3122 3366 
z
" transform="scale(0.015625)"/>
      <path id="DejaVuSans-68" d="M 3513 2113 
L 3513 0 
L 2938 0 
L 2938 2094 
Q 2938 2591 2744 2837 
Q 2550 3084 2163 3084 
Q 1697 3084 1428 2787 
Q 1159 2491 1159 1978 
L 1159 0 
L 581 0 
L 581 4863 
L 1159 4863 
L 1159 2956 
Q 1366 3272 1645 3428 
Q 1925 3584 2291 3584 
Q 2894 3584 3203 3211 
Q 3513 2838 3513 2113 
z
" transform="scale(0.015625)"/>
      <path id="DejaVuSans-41" d="M 2188 4044 
L 1331 1722 
L 3047 1722 
L 2188 4044 
z
M 1831 4666 
L 2547 4666 
L 4325 0 
L 3669 0 
L 3244 1197 
L 1141 1197 
L 716 0 
L 50 0 
L 1831 4666 
z
" transform="scale(0.015625)"/>
     </defs>
     <use xlink:href="#DejaVuSans-4d"/>
     <use xlink:href="#DejaVuSans-61" transform="translate(86.279297 0)"/>
     <use xlink:href="#DejaVuSans-73" transform="translate(147.558594 0)"/>
     <use xlink:href="#DejaVuSans-63" transform="translate(199.658203 0)"/>
     <use xlink:href="#DejaVuSans-68" transform="translate(254.638672 0)"/>
     <use xlink:href="#DejaVuSans-69" transform="translate(318.017578 0)"/>
     <use xlink:href="#DejaVuSans-6e" transform="translate(345.800781 0)"/>
     <use xlink:href="#DejaVuSans-65" transform="translate(409.179688 0)"/>
     <use xlink:href="#DejaVuSans-20" transform="translate(470.703125 0)"/>
     <use xlink:href="#DejaVuSans-6f" transform="translate(502.490234 0)"/>
     <use xlink:href="#DejaVuSans-64" transform="translate(563.671875 0)"/>
     <use xlink:href="#DejaVuSans-65" transform="translate(627.148438 0)"/>
     <use xlink:href="#DejaVuSans-72" transform="translate(688.671875 0)"/>
     <use xlink:href="#DejaVuSans-20" transform="translate(729.785156 0)"/>
     <use xlink:href="#DejaVuSans-41" transform="translate(761.572266 0)"/>
     <use xlink:href="#DejaVuSans-72" transform="translate(829.980469 0)"/>
     <use xlink:href="#DejaVuSans-62" transform="translate(871.09375 0)"/>
     <use xlink:href="#DejaVuSans-65" transform="translate(934.570312 0)"/>
     <use xlink:href="#DejaVuSans-69" transform="translate(996.09375 0)"/>
     <use xlink:href="#DejaVuSans-74" transform="translate(1023.876953 0)"/>
     <use xlink:href="#DejaVuSans-73" transform="translate(1063.085938 0)"/>
     <use xlink:href="#DejaVuSans-70" transform="translate(1115.185547 0)"/>
     <use xlink:href="#DejaVuSans-6c" transform="translate(1178.662109 0)"/>
     <use xlink:href="#DejaVuSans-61" transform="translate(1206.445312 0)"/>
     <use xlink:href="#DejaVuSans-74" transform="translate(1267.724609 0)"/>
     <use xlink:href="#DejaVuSans-7a" transform="translate(1306.933594 0)"/>
    </g>
   </g>
   <g id="text_5">
    <!-- 2% -->
    <g transform="translate(277.775372 127.404355) scale(0.12 -0.12)">
     <use xlink:href="#DejaVuSans-32"/>
     <use xlink:href="#DejaVuSans-25" transform="translate(63.623047 0)"/>
    </g>
    <!-- Spezifisch für jedes -->
    <g transform="translate(180.187247 140.84173) scale(0.12 -0.12)">
     <defs>
      <path id="DejaVuSans-6a" d="M 603 3500 
L 1178 3500 
L 1178 -63 
Q 1178 -731 923 -1031 
Q 669 -1331 103 -1331 
L -116 -1331 
L -116 -844 
L 38 -844 
Q 366 -844 484 -692 
Q 603 -541 603 -63 
L 603 3500 
z
M 603 4863 
L 1178 4863 
L 1178 4134 
L 603 4134 
L 603 4863 
z
" transform="scale(0.015625)"/>
     </defs>
     <use xlink:href="#DejaVuSans-53"/>
     <use xlink:href="#DejaVuSans-70" transform="translate(63.476562 0)"/>
     <use xlink:href="#DejaVuSans-65" transform="translate(126.953125 0)"/>
     <use xlink:href="#DejaVuSans-7a" transform="translate(188.476562 0)"/>
     <use xlink:href="#DejaVuSans-69" transform="translate(240.966797 0)"/>
     <use xlink:href="#DejaVuSans-66" transform="translate(268.75 0)"/>
     <use xlink:href="#DejaVuSans-69" transform="translate(303.955078 0)"/>
     <use xlink:href="#DejaVuSans-73" transform="translate(331.738281 0)"/>
     <use xlink:href="#DejaVuSans-63" transform="translate(383.837891 0)"/>
     <use xlink:href="#DejaVuSans-68" transform="translate(438.818359 0)"/>
     <use xlink:href="#DejaVuSans-20" transform="translate(502.197266 0)"/>
     <use xlink:href="#DejaVuSans-66" transform="translate(533.984375 0)"/>
     <use xlink:href="#DejaVuSans-fc" transform="translate(569.189453 0)"/>
     <use xlink:href="#DejaVuSans-72" transform="translate(632.568359 0)"/>
     <use xlink:href="#DejaVuSans-20" transform="translate(673.681641 0)"/>
     <use xlink:href="#DejaVuSans-6a" transform="translate(705.46875 0)"/>
     <use xlink:href="#DejaVuSans-65" transform="translate(733.251953 0)"/>
     <use xlink:href="#DejaVuSans-64" transform="translate(794.775391 0)"/>
     <use xlink:href="#DejaVuSans-65" transform="translate(858.251953 0)"/>
     <use xlink:href="#DejaVuSans-73" transform="translate(919.775391 0)"/>
    </g>
    <!-- Los/Werkstück -->
    <g transform="translate(210.166622 154.279105) scale(0.12 -0.12)">
     <defs>
      <path id="DejaVuSans-4c" d="M 628 4666 
L 1259 4666 
L 1259 531 
L 3531 531 
L 3531 0 
L 628 0 
L 628 4666 
z
" transform="scale(0.015625)"/>
      <path id="DejaVuSans-2f" d="M 1625 4666 
L 2156 4666 
L 531 -594 
L 0 -594 
L 1625 4666 
z
" transform="scale(0.015625)"/>
      <path id="DejaVuSans-57" d="M 213 4666 
L 850 4666 
L 1831 722 
L 2809 4666 
L 3519 4666 
L 4500 722 
L 5478 4666 
L 6119 4666 
L 4947 0 
L 4153 0 
L 3169 4050 
L 2175 0 
L 1381 0 
L 213 4666 
z
" transform="scale(0.015625)"/>
      <path id="DejaVuSans-6b" d="M 581 4863 
L 1159 4863 
L 1159 1991 
L 2875 3500 
L 3609 3500 
L 1753 1863 
L 3688 0 
L 2938 0 
L 1159 1709 
L 1159 0 
L 581 0 
L 581 4863 
z
" transform="scale(0.015625)"/>
     </defs>
     <use xlink:href="#DejaVuSans-4c"/>
     <use xlink:href="#DejaVuSans-6f" transform="translate(53.962891 0)"/>
     <use xlink:href="#DejaVuSans-73" transform="translate(115.144531 0)"/>
     <use xlink:href="#DejaVuSans-2f" transform="translate(167.244141 0)"/>
     <use xlink:href="#DejaVuSans-57" transform="translate(200.935547 0)"/>
     <use xlink:href="#DejaVuSans-65" transform="translate(293.9375 0)"/>
     <use xlink:href="#DejaVuSans-72" transform="translate(355.460938 0)"/>
     <use xlink:href="#DejaVuSans-6b" transform="translate(396.574219 0)"/>
     <use xlink:href="#DejaVuSans-73" transform="translate(454.484375 0)"/>
     <use xlink:href="#DejaVuSans-74" transform="translate(506.583984 0)"/>
     <use xlink:href="#DejaVuSans-fc" transform="translate(545.792969 0)"/>
     <use xlink:href="#DejaVuSans-63" transform="translate(609.171875 0)"/>
     <use xlink:href="#DejaVuSans-6b" transform="translate(664.152344 0)"/>
    </g>
   </g>
   <g id="text_6">
    <!-- 12% -->
    <g transform="translate(352.495761 67.756873) scale(0.12 -0.12)">
     <use xlink:href="#DejaVuSans-31"/>
     <use xlink:href="#DejaVuSans-32" transform="translate(63.623047 0)"/>
     <use xlink:href="#DejaVuSans-25" transform="translate(127.246094 0)"/>
    </g>
    <!-- Keine Antwort -->
    <g transform="translate(295.066386 81.194248) scale(0.12 -0.12)">
     <defs>
      <path id="DejaVuSans-77" d="M 269 3500 
L 844 3500 
L 1563 769 
L 2278 3500 
L 2956 3500 
L 3675 769 
L 4391 3500 
L 4966 3500 
L 4050 0 
L 3372 0 
L 2619 2869 
L 1863 0 
L 1184 0 
L 269 3500 
z
" transform="scale(0.015625)"/>
     </defs>
     <use xlink:href="#DejaVuSans-4b"/>
     <use xlink:href="#DejaVuSans-65" transform="translate(60.576172 0)"/>
     <use xlink:href="#DejaVuSans-69" transform="translate(122.099609 0)"/>
     <use xlink:href="#DejaVuSans-6e" transform="translate(149.882812 0)"/>
     <use xlink:href="#DejaVuSans-65" transform="translate(213.261719 0)"/>
     <use xlink:href="#DejaVuSans-20" transform="translate(274.785156 0)"/>
     <use xlink:href="#DejaVuSans-41" transform="translate(306.572266 0)"/>
     <use xlink:href="#DejaVuSans-6e" transform="translate(374.980469 0)"/>
     <use xlink:href="#DejaVuSans-74" transform="translate(438.359375 0)"/>
     <use xlink:href="#DejaVuSans-77" transform="translate(477.568359 0)"/>
     <use xlink:href="#DejaVuSans-6f" transform="translate(559.355469 0)"/>
     <use xlink:href="#DejaVuSans-72" transform="translate(620.537109 0)"/>
     <use xlink:href="#DejaVuSans-74" transform="translate(661.650391 0)"/>
    </g>
   </g>
  </g>
  <g id="text_7">
   <!-- Druckluft -->
   <g transform="translate(440.50875 22.078125) scale(0.12 -0.12)">
    <defs>
     <path id="DejaVuSans-44" d="M 1259 4147 
L 1259 519 
L 2022 519 
Q 2988 519 3436 956 
Q 3884 1394 3884 2338 
Q 3884 3275 3436 3711 
Q 2988 4147 2022 4147 
L 1259 4147 
z
M 628 4666 
L 1925 4666 
Q 3281 4666 3915 4102 
Q 4550 3538 4550 2338 
Q 4550 1131 3912 565 
Q 3275 0 1925 0 
L 628 0 
L 628 4666 
z
" transform="scale(0.015625)"/>
    </defs>
    <use xlink:href="#DejaVuSans-44"/>
    <use xlink:href="#DejaVuSans-72" transform="translate(77.001953 0)"/>
    <use xlink:href="#DejaVuSans-75" transform="translate(118.115234 0)"/>
    <use xlink:href="#DejaVuSans-63" transform="translate(181.494141 0)"/>
    <use xlink:href="#DejaVuSans-6b" transform="translate(236.474609 0)"/>
    <use xlink:href="#DejaVuSans-6c" transform="translate(294.384766 0)"/>
    <use xlink:href="#DejaVuSans-75" transform="translate(322.167969 0)"/>
    <use xlink:href="#DejaVuSans-66" transform="translate(385.546875 0)"/>
    <use xlink:href="#DejaVuSans-74" transform="translate(419.001953 0)"/>
   </g>
  </g>
  <g id="text_8">
   <!-- Abbildung 22a: Auf welcher kleinsten Ebene wird der Einsatz der -->
   <g transform="translate(273.375938 594.53325) scale(0.12 -0.12)">
    <defs>
     <path id="DejaVuSans-3a" d="M 750 794 
L 1409 794 
L 1409 0 
L 750 0 
L 750 794 
z
M 750 3309 
L 1409 3309 
L 1409 2516 
L 750 2516 
L 750 3309 
z
" transform="scale(0.015625)"/>
    </defs>
    <use xlink:href="#DejaVuSans-41"/>
    <use xlink:href="#DejaVuSans-62" transform="translate(68.408203 0)"/>
    <use xlink:href="#DejaVuSans-62" transform="translate(131.884766 0)"/>
    <use xlink:href="#DejaVuSans-69" transform="translate(195.361328 0)"/>
    <use xlink:href="#DejaVuSans-6c" transform="translate(223.144531 0)"/>
    <use xlink:href="#DejaVuSans-64" transform="translate(250.927734 0)"/>
    <use xlink:href="#DejaVuSans-75" transform="translate(314.404297 0)"/>
    <use xlink:href="#DejaVuSans-6e" transform="translate(377.783203 0)"/>
    <use xlink:href="#DejaVuSans-67" transform="translate(441.162109 0)"/>
    <use xlink:href="#DejaVuSans-20" transform="translate(504.638672 0)"/>
    <use xlink:href="#DejaVuSans-32" transform="translate(536.425781 0)"/>
    <use xlink:href="#DejaVuSans-32" transform="translate(600.048828 0)"/>
    <use xlink:href="#DejaVuSans-61" transform="translate(663.671875 0)"/>
    <use xlink:href="#DejaVuSans-3a" transform="translate(724.951172 0)"/>
    <use xlink:href="#DejaVuSans-20" transform="translate(758.642578 0)"/>
    <use xlink:href="#DejaVuSans-41" transform="translate(790.429688 0)"/>
    <use xlink:href="#DejaVuSans-75" transform="translate(858.837891 0)"/>
    <use xlink:href="#DejaVuSans-66" transform="translate(922.216797 0)"/>
    <use xlink:href="#DejaVuSans-20" transform="translate(957.421875 0)"/>
    <use xlink:href="#DejaVuSans-77" transform="translate(989.208984 0)"/>
    <use xlink:href="#DejaVuSans-65" transform="translate(1070.996094 0)"/>
    <use xlink:href="#DejaVuSans-6c" transform="translate(1132.519531 0)"/>
    <use xlink:href="#DejaVuSans-63" transform="translate(1160.302734 0)"/>
    <use xlink:href="#DejaVuSans-68" transform="translate(1215.283203 0)"/>
    <use xlink:href="#DejaVuSans-65" transform="translate(1278.662109 0)"/>
    <use xlink:href="#DejaVuSans-72" transform="translate(1340.185547 0)"/>
    <use xlink:href="#DejaVuSans-20" transform="translate(1381.298828 0)"/>
    <use xlink:href="#DejaVuSans-6b" transform="translate(1413.085938 0)"/>
    <use xlink:href="#DejaVuSans-6c" transform="translate(1470.996094 0)"/>
    <use xlink:href="#DejaVuSans-65" transform="translate(1498.779297 0)"/>
    <use xlink:href="#DejaVuSans-69" transform="translate(1560.302734 0)"/>
    <use xlink:href="#DejaVuSans-6e" transform="translate(1588.085938 0)"/>
    <use xlink:href="#DejaVuSans-73" transform="translate(1651.464844 0)"/>
    <use xlink:href="#DejaVuSans-74" transform="translate(1703.564453 0)"/>
    <use xlink:href="#DejaVuSans-65" transform="translate(1742.773438 0)"/>
    <use xlink:href="#DejaVuSans-6e" transform="translate(1804.296875 0)"/>
    <use xlink:href="#DejaVuSans-20" transform="translate(1867.675781 0)"/>
    <use xlink:href="#DejaVuSans-45" transform="translate(1899.462891 0)"/>
    <use xlink:href="#DejaVuSans-62" transform="translate(1962.646484 0)"/>
    <use xlink:href="#DejaVuSans-65" transform="translate(2026.123047 0)"/>
    <use xlink:href="#DejaVuSans-6e" transform="translate(2087.646484 0)"/>
    <use xlink:href="#DejaVuSans-65" transform="translate(2151.025391 0)"/>
    <use xlink:href="#DejaVuSans-20" transform="translate(2212.548828 0)"/>
    <use xlink:href="#DejaVuSans-77" transform="translate(2244.335938 0)"/>
    <use xlink:href="#DejaVuSans-69" transform="translate(2326.123047 0)"/>
    <use xlink:href="#DejaVuSans-72" transform="translate(2353.90625 0)"/>
    <use xlink:href="#DejaVuSans-64" transform="translate(2393.269531 0)"/>
    <use xlink:href="#DejaVuSans-20" transform="translate(2456.746094 0)"/>
    <use xlink:href="#DejaVuSans-64" transform="translate(2488.533203 0)"/>
    <use xlink:href="#DejaVuSans-65" transform="translate(2552.009766 0)"/>
    <use xlink:href="#DejaVuSans-72" transform="translate(2613.533203 0)"/>
    <use xlink:href="#DejaVuSans-20" transform="translate(2654.646484 0)"/>
    <use xlink:href="#DejaVuSans-45" transform="translate(2686.433594 0)"/>
    <use xlink:href="#DejaVuSans-69" transform="translate(2749.617188 0)"/>
    <use xlink:href="#DejaVuSans-6e" transform="translate(2777.400391 0)"/>
    <use xlink:href="#DejaVuSans-73" transform="translate(2840.779297 0)"/>
    <use xlink:href="#DejaVuSans-61" transform="translate(2892.878906 0)"/>
    <use xlink:href="#DejaVuSans-74" transform="translate(2954.158203 0)"/>
    <use xlink:href="#DejaVuSans-7a" transform="translate(2993.367188 0)"/>
    <use xlink:href="#DejaVuSans-20" transform="translate(3045.857422 0)"/>
    <use xlink:href="#DejaVuSans-64" transform="translate(3077.644531 0)"/>
    <use xlink:href="#DejaVuSans-65" transform="translate(3141.121094 0)"/>
    <use xlink:href="#DejaVuSans-72" transform="translate(3202.644531 0)"/>
   </g>
   <!-- folgenden Energieträger kontinuierlich in Ihrem Unternehmen -->
   <g transform="translate(282.370313 607.058813) scale(0.12 -0.12)">
    <defs>
     <path id="DejaVuSans-49" d="M 628 4666 
L 1259 4666 
L 1259 0 
L 628 0 
L 628 4666 
z
" transform="scale(0.015625)"/>
     <path id="DejaVuSans-55" d="M 556 4666 
L 1191 4666 
L 1191 1831 
Q 1191 1081 1462 751 
Q 1734 422 2344 422 
Q 2950 422 3222 751 
Q 3494 1081 3494 1831 
L 3494 4666 
L 4128 4666 
L 4128 1753 
Q 4128 841 3676 375 
Q 3225 -91 2344 -91 
Q 1459 -91 1007 375 
Q 556 841 556 1753 
L 556 4666 
z
" transform="scale(0.015625)"/>
    </defs>
    <use xlink:href="#DejaVuSans-66"/>
    <use xlink:href="#DejaVuSans-6f" transform="translate(35.205078 0)"/>
    <use xlink:href="#DejaVuSans-6c" transform="translate(96.386719 0)"/>
    <use xlink:href="#DejaVuSans-67" transform="translate(124.169922 0)"/>
    <use xlink:href="#DejaVuSans-65" transform="translate(187.646484 0)"/>
    <use xlink:href="#DejaVuSans-6e" transform="translate(249.169922 0)"/>
    <use xlink:href="#DejaVuSans-64" transform="translate(312.548828 0)"/>
    <use xlink:href="#DejaVuSans-65" transform="translate(376.025391 0)"/>
    <use xlink:href="#DejaVuSans-6e" transform="translate(437.548828 0)"/>
    <use xlink:href="#DejaVuSans-20" transform="translate(500.927734 0)"/>
    <use xlink:href="#DejaVuSans-45" transform="translate(532.714844 0)"/>
    <use xlink:href="#DejaVuSans-6e" transform="translate(595.898438 0)"/>
    <use xlink:href="#DejaVuSans-65" transform="translate(659.277344 0)"/>
    <use xlink:href="#DejaVuSans-72" transform="translate(720.800781 0)"/>
    <use xlink:href="#DejaVuSans-67" transform="translate(760.164062 0)"/>
    <use xlink:href="#DejaVuSans-69" transform="translate(823.640625 0)"/>
    <use xlink:href="#DejaVuSans-65" transform="translate(851.423828 0)"/>
    <use xlink:href="#DejaVuSans-74" transform="translate(912.947266 0)"/>
    <use xlink:href="#DejaVuSans-72" transform="translate(952.15625 0)"/>
    <use xlink:href="#DejaVuSans-e4" transform="translate(993.269531 0)"/>
    <use xlink:href="#DejaVuSans-67" transform="translate(1054.548828 0)"/>
    <use xlink:href="#DejaVuSans-65" transform="translate(1118.025391 0)"/>
    <use xlink:href="#DejaVuSans-72" transform="translate(1179.548828 0)"/>
    <use xlink:href="#DejaVuSans-20" transform="translate(1220.662109 0)"/>
    <use xlink:href="#DejaVuSans-6b" transform="translate(1252.449219 0)"/>
    <use xlink:href="#DejaVuSans-6f" transform="translate(1306.734375 0)"/>
    <use xlink:href="#DejaVuSans-6e" transform="translate(1367.916016 0)"/>
    <use xlink:href="#DejaVuSans-74" transform="translate(1431.294922 0)"/>
    <use xlink:href="#DejaVuSans-69" transform="translate(1470.503906 0)"/>
    <use xlink:href="#DejaVuSans-6e" transform="translate(1498.287109 0)"/>
    <use xlink:href="#DejaVuSans-75" transform="translate(1561.666016 0)"/>
    <use xlink:href="#DejaVuSans-69" transform="translate(1625.044922 0)"/>
    <use xlink:href="#DejaVuSans-65" transform="translate(1652.828125 0)"/>
    <use xlink:href="#DejaVuSans-72" transform="translate(1714.351562 0)"/>
    <use xlink:href="#DejaVuSans-6c" transform="translate(1755.464844 0)"/>
    <use xlink:href="#DejaVuSans-69" transform="translate(1783.248047 0)"/>
    <use xlink:href="#DejaVuSans-63" transform="translate(1811.03125 0)"/>
    <use xlink:href="#DejaVuSans-68" transform="translate(1866.011719 0)"/>
    <use xlink:href="#DejaVuSans-20" transform="translate(1929.390625 0)"/>
    <use xlink:href="#DejaVuSans-69" transform="translate(1961.177734 0)"/>
    <use xlink:href="#DejaVuSans-6e" transform="translate(1988.960938 0)"/>
    <use xlink:href="#DejaVuSans-20" transform="translate(2052.339844 0)"/>
    <use xlink:href="#DejaVuSans-49" transform="translate(2084.126953 0)"/>
    <use xlink:href="#DejaVuSans-68" transform="translate(2113.619141 0)"/>
    <use xlink:href="#DejaVuSans-72" transform="translate(2176.998047 0)"/>
    <use xlink:href="#DejaVuSans-65" transform="translate(2215.861328 0)"/>
    <use xlink:href="#DejaVuSans-6d" transform="translate(2277.384766 0)"/>
    <use xlink:href="#DejaVuSans-20" transform="translate(2374.796875 0)"/>
    <use xlink:href="#DejaVuSans-55" transform="translate(2406.583984 0)"/>
    <use xlink:href="#DejaVuSans-6e" transform="translate(2479.777344 0)"/>
    <use xlink:href="#DejaVuSans-74" transform="translate(2543.15625 0)"/>
    <use xlink:href="#DejaVuSans-65" transform="translate(2582.365234 0)"/>
    <use xlink:href="#DejaVuSans-72" transform="translate(2643.888672 0)"/>
    <use xlink:href="#DejaVuSans-6e" transform="translate(2683.251953 0)"/>
    <use xlink:href="#DejaVuSans-65" transform="translate(2746.630859 0)"/>
    <use xlink:href="#DejaVuSans-68" transform="translate(2808.154297 0)"/>
    <use xlink:href="#DejaVuSans-6d" transform="translate(2871.533203 0)"/>
    <use xlink:href="#DejaVuSans-65" transform="translate(2968.945312 0)"/>
    <use xlink:href="#DejaVuSans-6e" transform="translate(3030.46875 0)"/>
   </g>
   <!-- erfasst? – Druckluft -->
   <g transform="translate(409.959375 619.584375) scale(0.12 -0.12)">
    <defs>
     <path id="DejaVuSans-3f" d="M 1222 794 
L 1856 794 
L 1856 0 
L 1222 0 
L 1222 794 
z
M 1838 1253 
L 1241 1253 
L 1241 1734 
Q 1241 2050 1328 2253 
Q 1416 2456 1697 2725 
L 1978 3003 
Q 2156 3169 2236 3316 
Q 2316 3463 2316 3616 
Q 2316 3894 2111 4066 
Q 1906 4238 1569 4238 
Q 1322 4238 1042 4128 
Q 763 4019 459 3809 
L 459 4397 
Q 753 4575 1054 4662 
Q 1356 4750 1678 4750 
Q 2253 4750 2601 4447 
Q 2950 4144 2950 3647 
Q 2950 3409 2837 3195 
Q 2725 2981 2444 2713 
L 2169 2444 
Q 2022 2297 1961 2214 
Q 1900 2131 1875 2053 
Q 1856 1988 1847 1894 
Q 1838 1800 1838 1638 
L 1838 1253 
z
" transform="scale(0.015625)"/>
     <path id="DejaVuSans-2013" d="M 313 1978 
L 2888 1978 
L 2888 1528 
L 313 1528 
L 313 1978 
z
" transform="scale(0.015625)"/>
    </defs>
    <use xlink:href="#DejaVuSans-65"/>
    <use xlink:href="#DejaVuSans-72" transform="translate(61.523438 0)"/>
    <use xlink:href="#DejaVuSans-66" transform="translate(102.636719 0)"/>
    <use xlink:href="#DejaVuSans-61" transform="translate(137.841797 0)"/>
    <use xlink:href="#DejaVuSans-73" transform="translate(199.121094 0)"/>
    <use xlink:href="#DejaVuSans-73" transform="translate(251.220703 0)"/>
    <use xlink:href="#DejaVuSans-74" transform="translate(303.320312 0)"/>
    <use xlink:href="#DejaVuSans-3f" transform="translate(342.529297 0)"/>
    <use xlink:href="#DejaVuSans-20" transform="translate(395.605469 0)"/>
    <use xlink:href="#DejaVuSans-2013" transform="translate(427.392578 0)"/>
    <use xlink:href="#DejaVuSans-20" transform="translate(477.392578 0)"/>
    <use xlink:href="#DejaVuSans-44" transform="translate(509.179688 0)"/>
    <use xlink:href="#DejaVuSans-72" transform="translate(586.181641 0)"/>
    <use xlink:href="#DejaVuSans-75" transform="translate(627.294922 0)"/>
    <use xlink:href="#DejaVuSans-63" transform="translate(690.673828 0)"/>
    <use xlink:href="#DejaVuSans-6b" transform="translate(745.654297 0)"/>
    <use xlink:href="#DejaVuSans-6c" transform="translate(803.564453 0)"/>
    <use xlink:href="#DejaVuSans-75" transform="translate(831.347656 0)"/>
    <use xlink:href="#DejaVuSans-66" transform="translate(894.726562 0)"/>
    <use xlink:href="#DejaVuSans-74" transform="translate(928.181641 0)"/>
   </g>
  </g>
 </g>
 <defs>
  <clipPath id="p783ea579d5">
   <rect x="254.16" y="51.84" width="427.68" height="427.68"/>
  </clipPath>
 </defs>
</svg>
