<?xml version="1.0" encoding="utf-8" standalone="no"?>
<!DOCTYPE svg PUBLIC "-//W3C//DTD SVG 1.1//EN"
  "http://www.w3.org/Graphics/SVG/1.1/DTD/svg11.dtd">
<svg xmlns:xlink="http://www.w3.org/1999/xlink" width="936pt" height="648pt" viewBox="0 0 936 648" xmlns="http://www.w3.org/2000/svg" version="1.1">
 <metadata>
  <rdf:RDF xmlns:dc="http://purl.org/dc/elements/1.1/" xmlns:cc="http://creativecommons.org/ns#" xmlns:rdf="http://www.w3.org/1999/02/22-rdf-syntax-ns#">
   <cc:Work>
    <dc:type rdf:resource="http://purl.org/dc/dcmitype/StillImage"/>
    <dc:date>2026-02-23T14:10:27.719832</dc:date>
    <dc:format>image/svg+xml</dc:format>
    <dc:creator>
     <cc:Agent>
      <dc:title>Matplotlib v3.10.8, https://matplotlib.org/</dc:title>
     </cc:Agent>
    </dc:creator>
   </cc:Work>
  </rdf:RDF>
 </metadata>
 <defs>
  <style type="text/css">*{stroke-linejoin: round; stroke-linecap: butt}</style>
 </defs>
 <g id="figure_1">
  <g id="patch_1">
   <path d="M 0 648 
L 936 648 
L 936 0 
L 0 0 
z
" style="fill: #ffffff"/>
  </g>
  <g id="axes_1">
   <g id="patch_2">
    <path d="M 634.615416 226.886559 
C 625.857809 189.27319 604.616277 155.711456 574.370001 131.698465 
C 544.12372 107.685474 506.619433 94.608 467.999993 94.608 
L 467.999995 154.4832 
C 493.102631 154.4832 517.480418 162.983558 537.140501 178.592002 
C 556.80058 194.200446 570.607576 216.015573 576.30002 240.464263 
z
" style="fill: #003b6a; stroke: #ffffff; stroke-linejoin: miter"/>
   </g>
   <g id="patch_3">
    <path d="M 561.682397 408.820616 
C 591.012236 389.624876 613.7454 361.870558 626.788348 329.334453 
C 639.831286 296.798353 642.564283 261.026442 634.615416 226.886559 
L 576.30002 240.464263 
C 581.466784 262.655187 579.690336 285.906929 571.212426 307.055394 
C 562.73451 328.203863 547.957954 346.244169 528.893558 358.721401 
z
" style="fill: #8fc73e; stroke: #ffffff; stroke-linejoin: miter"/>
   </g>
   <g id="patch_4">
    <path d="M 383.218198 414.265585 
C 410.57974 429.877874 441.72932 437.633136 473.217011 436.672435 
C 504.704704 435.711744 535.323526 426.07192 561.682397 408.820616 
L 528.893558 358.721401 
C 511.760292 369.934748 491.858058 376.200634 471.391057 376.825083 
C 450.924058 377.449539 430.676831 372.408618 412.891829 362.26063 
z
" style="fill: #dc912f; stroke: #ffffff; stroke-linejoin: miter"/>
   </g>
   <g id="patch_5">
    <path d="M 296.947894 268.288726 
C 297.401289 298.017703 305.597345 327.121201 320.724566 352.717778 
C 335.851788 378.314355 357.393918 399.530446 383.218198 414.265585 
L 412.891829 362.26063 
C 396.106047 352.68279 382.103662 338.892331 372.270968 322.254556 
C 362.438274 305.616781 357.110838 286.699507 356.816131 267.375672 
z
" style="fill: #93bbdc; stroke: #ffffff; stroke-linejoin: miter"/>
   </g>
   <g id="patch_6">
    <path d="M 353.659831 138.432387 
C 335.479201 154.768854 321.009074 174.81354 311.226741 197.212676 
C 301.444408 219.611812 296.575174 243.849487 296.947894 268.288726 
L 356.816131 267.375672 
C 356.573863 251.490167 359.738865 235.735678 366.097382 221.176239 
C 372.455898 206.616801 381.861481 193.587755 393.67889 182.969051 
z
" style="fill: #f9c803; stroke: #ffffff; stroke-linejoin: miter"/>
   </g>
   <g id="patch_7">
    <path d="M 468.000084 94.608 
C 447.070603 94.60798 426.317662 98.448857 406.774495 105.939373 
C 387.231328 113.429889 369.227703 124.443656 353.659831 138.432387 
L 393.67889 182.969051 
C 403.798007 173.876376 415.500363 166.717428 428.203422 161.848592 
C 440.90648 156.979757 454.395892 154.483187 468.000054 154.4832 
z
" style="fill: #6283aa; stroke: #ffffff; stroke-linejoin: miter"/>
   </g>
   <g id="matplotlib.axis_1"/>
   <g id="matplotlib.axis_2"/>
   <g id="line2d_1">
    <path d="M 561.605606 147.776263 
L 585.00701 118.300316 
" clip-path="url(#p94eae8396f)" style="fill: none; stroke: #000000; stroke-opacity: 0.35; stroke-linecap: square"/>
   </g>
   <g id="line2d_2">
    <path d="M 607.733751 321.695917 
L 642.667188 335.699897 
" clip-path="url(#p94eae8396f)" style="fill: none; stroke: #000000; stroke-opacity: 0.35; stroke-linecap: square"/>
   </g>
   <g id="line2d_3">
    <path d="M 472.590952 416.153339 
L 473.73869 453.771676 
" clip-path="url(#p94eae8396f)" style="fill: none; stroke: #000000; stroke-opacity: 0.35; stroke-linecap: square"/>
   </g>
   <g id="line2d_4">
    <path d="M 338.397605 342.273216 
L 305.996994 361.421526 
" clip-path="url(#p94eae8396f)" style="fill: none; stroke: #000000; stroke-opacity: 0.35; stroke-linecap: square"/>
   </g>
   <g id="line2d_5">
    <path d="M 330.039535 205.428757 
L 295.549408 190.365943 
" clip-path="url(#p94eae8396f)" style="fill: none; stroke: #000000; stroke-opacity: 0.35; stroke-linecap: square"/>
   </g>
   <g id="line2d_6">
    <path d="M 414.121554 125.108245 
L 400.651941 89.965306 
" clip-path="url(#p94eae8396f)" style="fill: none; stroke: #000000; stroke-opacity: 0.35; stroke-linecap: square"/>
   </g>
   <g id="text_1">
    <!-- 21% -->
    <g transform="translate(600.962519 95.931471) scale(0.08 -0.08)">
     <defs>
      <path id="DejaVuSans-32" d="M 1228 531 
L 3431 531 
L 3431 0 
L 469 0 
L 469 531 
Q 828 903 1448 1529 
Q 2069 2156 2228 2338 
Q 2531 2678 2651 2914 
Q 2772 3150 2772 3378 
Q 2772 3750 2511 3984 
Q 2250 4219 1831 4219 
Q 1534 4219 1204 4116 
Q 875 4013 500 3803 
L 500 4441 
Q 881 4594 1212 4672 
Q 1544 4750 1819 4750 
Q 2544 4750 2975 4387 
Q 3406 4025 3406 3419 
Q 3406 3131 3298 2873 
Q 3191 2616 2906 2266 
Q 2828 2175 2409 1742 
Q 1991 1309 1228 531 
z
" transform="scale(0.015625)"/>
      <path id="DejaVuSans-31" d="M 794 531 
L 1825 531 
L 1825 4091 
L 703 3866 
L 703 4441 
L 1819 4666 
L 2450 4666 
L 2450 531 
L 3481 531 
L 3481 0 
L 794 0 
L 794 531 
z
" transform="scale(0.015625)"/>
      <path id="DejaVuSans-25" d="M 4653 2053 
Q 4381 2053 4226 1822 
Q 4072 1591 4072 1178 
Q 4072 772 4226 539 
Q 4381 306 4653 306 
Q 4919 306 5073 539 
Q 5228 772 5228 1178 
Q 5228 1588 5073 1820 
Q 4919 2053 4653 2053 
z
M 4653 2450 
Q 5147 2450 5437 2106 
Q 5728 1763 5728 1178 
Q 5728 594 5436 251 
Q 5144 -91 4653 -91 
Q 4153 -91 3862 251 
Q 3572 594 3572 1178 
Q 3572 1766 3864 2108 
Q 4156 2450 4653 2450 
z
M 1428 4353 
Q 1159 4353 1004 4120 
Q 850 3888 850 3481 
Q 850 3069 1003 2837 
Q 1156 2606 1428 2606 
Q 1700 2606 1854 2837 
Q 2009 3069 2009 3481 
Q 2009 3884 1853 4118 
Q 1697 4353 1428 4353 
z
M 4250 4750 
L 4750 4750 
L 1831 -91 
L 1331 -91 
L 4250 4750 
z
M 1428 4750 
Q 1922 4750 2215 4408 
Q 2509 4066 2509 3481 
Q 2509 2891 2217 2550 
Q 1925 2209 1428 2209 
Q 931 2209 642 2551 
Q 353 2894 353 3481 
Q 353 4063 643 4406 
Q 934 4750 1428 4750 
z
" transform="scale(0.015625)"/>
     </defs>
     <use xlink:href="#DejaVuSans-32"/>
     <use xlink:href="#DejaVuSans-31" transform="translate(63.623047 0)"/>
     <use xlink:href="#DejaVuSans-25" transform="translate(127.246094 0)"/>
    </g>
    <!-- Gering entscheidend -->
    <g transform="translate(600.962519 104.889721) scale(0.08 -0.08)">
     <defs>
      <path id="DejaVuSans-47" d="M 3809 666 
L 3809 1919 
L 2778 1919 
L 2778 2438 
L 4434 2438 
L 4434 434 
Q 4069 175 3628 42 
Q 3188 -91 2688 -91 
Q 1594 -91 976 548 
Q 359 1188 359 2328 
Q 359 3472 976 4111 
Q 1594 4750 2688 4750 
Q 3144 4750 3555 4637 
Q 3966 4525 4313 4306 
L 4313 3634 
Q 3963 3931 3569 4081 
Q 3175 4231 2741 4231 
Q 1884 4231 1454 3753 
Q 1025 3275 1025 2328 
Q 1025 1384 1454 906 
Q 1884 428 2741 428 
Q 3075 428 3337 486 
Q 3600 544 3809 666 
z
" transform="scale(0.015625)"/>
      <path id="DejaVuSans-65" d="M 3597 1894 
L 3597 1613 
L 953 1613 
Q 991 1019 1311 708 
Q 1631 397 2203 397 
Q 2534 397 2845 478 
Q 3156 559 3463 722 
L 3463 178 
Q 3153 47 2828 -22 
Q 2503 -91 2169 -91 
Q 1331 -91 842 396 
Q 353 884 353 1716 
Q 353 2575 817 3079 
Q 1281 3584 2069 3584 
Q 2775 3584 3186 3129 
Q 3597 2675 3597 1894 
z
M 3022 2063 
Q 3016 2534 2758 2815 
Q 2500 3097 2075 3097 
Q 1594 3097 1305 2825 
Q 1016 2553 972 2059 
L 3022 2063 
z
" transform="scale(0.015625)"/>
      <path id="DejaVuSans-72" d="M 2631 2963 
Q 2534 3019 2420 3045 
Q 2306 3072 2169 3072 
Q 1681 3072 1420 2755 
Q 1159 2438 1159 1844 
L 1159 0 
L 581 0 
L 581 3500 
L 1159 3500 
L 1159 2956 
Q 1341 3275 1631 3429 
Q 1922 3584 2338 3584 
Q 2397 3584 2469 3576 
Q 2541 3569 2628 3553 
L 2631 2963 
z
" transform="scale(0.015625)"/>
      <path id="DejaVuSans-69" d="M 603 3500 
L 1178 3500 
L 1178 0 
L 603 0 
L 603 3500 
z
M 603 4863 
L 1178 4863 
L 1178 4134 
L 603 4134 
L 603 4863 
z
" transform="scale(0.015625)"/>
      <path id="DejaVuSans-6e" d="M 3513 2113 
L 3513 0 
L 2938 0 
L 2938 2094 
Q 2938 2591 2744 2837 
Q 2550 3084 2163 3084 
Q 1697 3084 1428 2787 
Q 1159 2491 1159 1978 
L 1159 0 
L 581 0 
L 581 3500 
L 1159 3500 
L 1159 2956 
Q 1366 3272 1645 3428 
Q 1925 3584 2291 3584 
Q 2894 3584 3203 3211 
Q 3513 2838 3513 2113 
z
" transform="scale(0.015625)"/>
      <path id="DejaVuSans-67" d="M 2906 1791 
Q 2906 2416 2648 2759 
Q 2391 3103 1925 3103 
Q 1463 3103 1205 2759 
Q 947 2416 947 1791 
Q 947 1169 1205 825 
Q 1463 481 1925 481 
Q 2391 481 2648 825 
Q 2906 1169 2906 1791 
z
M 3481 434 
Q 3481 -459 3084 -895 
Q 2688 -1331 1869 -1331 
Q 1566 -1331 1297 -1286 
Q 1028 -1241 775 -1147 
L 775 -588 
Q 1028 -725 1275 -790 
Q 1522 -856 1778 -856 
Q 2344 -856 2625 -561 
Q 2906 -266 2906 331 
L 2906 616 
Q 2728 306 2450 153 
Q 2172 0 1784 0 
Q 1141 0 747 490 
Q 353 981 353 1791 
Q 353 2603 747 3093 
Q 1141 3584 1784 3584 
Q 2172 3584 2450 3431 
Q 2728 3278 2906 2969 
L 2906 3500 
L 3481 3500 
L 3481 434 
z
" transform="scale(0.015625)"/>
      <path id="DejaVuSans-20" transform="scale(0.015625)"/>
      <path id="DejaVuSans-74" d="M 1172 4494 
L 1172 3500 
L 2356 3500 
L 2356 3053 
L 1172 3053 
L 1172 1153 
Q 1172 725 1289 603 
Q 1406 481 1766 481 
L 2356 481 
L 2356 0 
L 1766 0 
Q 1100 0 847 248 
Q 594 497 594 1153 
L 594 3053 
L 172 3053 
L 172 3500 
L 594 3500 
L 594 4494 
L 1172 4494 
z
" transform="scale(0.015625)"/>
      <path id="DejaVuSans-73" d="M 2834 3397 
L 2834 2853 
Q 2591 2978 2328 3040 
Q 2066 3103 1784 3103 
Q 1356 3103 1142 2972 
Q 928 2841 928 2578 
Q 928 2378 1081 2264 
Q 1234 2150 1697 2047 
L 1894 2003 
Q 2506 1872 2764 1633 
Q 3022 1394 3022 966 
Q 3022 478 2636 193 
Q 2250 -91 1575 -91 
Q 1294 -91 989 -36 
Q 684 19 347 128 
L 347 722 
Q 666 556 975 473 
Q 1284 391 1588 391 
Q 1994 391 2212 530 
Q 2431 669 2431 922 
Q 2431 1156 2273 1281 
Q 2116 1406 1581 1522 
L 1381 1569 
Q 847 1681 609 1914 
Q 372 2147 372 2553 
Q 372 3047 722 3315 
Q 1072 3584 1716 3584 
Q 2034 3584 2315 3537 
Q 2597 3491 2834 3397 
z
" transform="scale(0.015625)"/>
      <path id="DejaVuSans-63" d="M 3122 3366 
L 3122 2828 
Q 2878 2963 2633 3030 
Q 2388 3097 2138 3097 
Q 1578 3097 1268 2742 
Q 959 2388 959 1747 
Q 959 1106 1268 751 
Q 1578 397 2138 397 
Q 2388 397 2633 464 
Q 2878 531 3122 666 
L 3122 134 
Q 2881 22 2623 -34 
Q 2366 -91 2075 -91 
Q 1284 -91 818 406 
Q 353 903 353 1747 
Q 353 2603 823 3093 
Q 1294 3584 2113 3584 
Q 2378 3584 2631 3529 
Q 2884 3475 3122 3366 
z
" transform="scale(0.015625)"/>
      <path id="DejaVuSans-68" d="M 3513 2113 
L 3513 0 
L 2938 0 
L 2938 2094 
Q 2938 2591 2744 2837 
Q 2550 3084 2163 3084 
Q 1697 3084 1428 2787 
Q 1159 2491 1159 1978 
L 1159 0 
L 581 0 
L 581 4863 
L 1159 4863 
L 1159 2956 
Q 1366 3272 1645 3428 
Q 1925 3584 2291 3584 
Q 2894 3584 3203 3211 
Q 3513 2838 3513 2113 
z
" transform="scale(0.015625)"/>
      <path id="DejaVuSans-64" d="M 2906 2969 
L 2906 4863 
L 3481 4863 
L 3481 0 
L 2906 0 
L 2906 525 
Q 2725 213 2448 61 
Q 2172 -91 1784 -91 
Q 1150 -91 751 415 
Q 353 922 353 1747 
Q 353 2572 751 3078 
Q 1150 3584 1784 3584 
Q 2172 3584 2448 3432 
Q 2725 3281 2906 2969 
z
M 947 1747 
Q 947 1113 1208 752 
Q 1469 391 1925 391 
Q 2381 391 2643 752 
Q 2906 1113 2906 1747 
Q 2906 2381 2643 2742 
Q 2381 3103 1925 3103 
Q 1469 3103 1208 2742 
Q 947 2381 947 1747 
z
" transform="scale(0.015625)"/>
     </defs>
     <use xlink:href="#DejaVuSans-47"/>
     <use xlink:href="#DejaVuSans-65" transform="translate(77.490234 0)"/>
     <use xlink:href="#DejaVuSans-72" transform="translate(139.013672 0)"/>
     <use xlink:href="#DejaVuSans-69" transform="translate(180.126953 0)"/>
     <use xlink:href="#DejaVuSans-6e" transform="translate(207.910156 0)"/>
     <use xlink:href="#DejaVuSans-67" transform="translate(271.289062 0)"/>
     <use xlink:href="#DejaVuSans-20" transform="translate(334.765625 0)"/>
     <use xlink:href="#DejaVuSans-65" transform="translate(366.552734 0)"/>
     <use xlink:href="#DejaVuSans-6e" transform="translate(428.076172 0)"/>
     <use xlink:href="#DejaVuSans-74" transform="translate(491.455078 0)"/>
     <use xlink:href="#DejaVuSans-73" transform="translate(530.664062 0)"/>
     <use xlink:href="#DejaVuSans-63" transform="translate(582.763672 0)"/>
     <use xlink:href="#DejaVuSans-68" transform="translate(637.744141 0)"/>
     <use xlink:href="#DejaVuSans-65" transform="translate(701.123047 0)"/>
     <use xlink:href="#DejaVuSans-69" transform="translate(762.646484 0)"/>
     <use xlink:href="#DejaVuSans-64" transform="translate(790.429688 0)"/>
     <use xlink:href="#DejaVuSans-65" transform="translate(853.90625 0)"/>
     <use xlink:href="#DejaVuSans-6e" transform="translate(915.429688 0)"/>
     <use xlink:href="#DejaVuSans-64" transform="translate(978.808594 0)"/>
    </g>
   </g>
   <g id="text_2">
    <!-- 19% -->
    <g transform="translate(666.485443 342.976438) scale(0.08 -0.08)">
     <defs>
      <path id="DejaVuSans-39" d="M 703 97 
L 703 672 
Q 941 559 1184 500 
Q 1428 441 1663 441 
Q 2288 441 2617 861 
Q 2947 1281 2994 2138 
Q 2813 1869 2534 1725 
Q 2256 1581 1919 1581 
Q 1219 1581 811 2004 
Q 403 2428 403 3163 
Q 403 3881 828 4315 
Q 1253 4750 1959 4750 
Q 2769 4750 3195 4129 
Q 3622 3509 3622 2328 
Q 3622 1225 3098 567 
Q 2575 -91 1691 -91 
Q 1453 -91 1209 -44 
Q 966 3 703 97 
z
M 1959 2075 
Q 2384 2075 2632 2365 
Q 2881 2656 2881 3163 
Q 2881 3666 2632 3958 
Q 2384 4250 1959 4250 
Q 1534 4250 1286 3958 
Q 1038 3666 1038 3163 
Q 1038 2656 1286 2365 
Q 1534 2075 1959 2075 
z
" transform="scale(0.015625)"/>
     </defs>
     <use xlink:href="#DejaVuSans-31"/>
     <use xlink:href="#DejaVuSans-39" transform="translate(63.623047 0)"/>
     <use xlink:href="#DejaVuSans-25" transform="translate(127.246094 0)"/>
    </g>
    <!-- Teils entscheidend -->
    <g transform="translate(666.485443 351.934688) scale(0.08 -0.08)">
     <defs>
      <path id="DejaVuSans-54" d="M -19 4666 
L 3928 4666 
L 3928 4134 
L 2272 4134 
L 2272 0 
L 1638 0 
L 1638 4134 
L -19 4134 
L -19 4666 
z
" transform="scale(0.015625)"/>
      <path id="DejaVuSans-6c" d="M 603 4863 
L 1178 4863 
L 1178 0 
L 603 0 
L 603 4863 
z
" transform="scale(0.015625)"/>
     </defs>
     <use xlink:href="#DejaVuSans-54"/>
     <use xlink:href="#DejaVuSans-65" transform="translate(44.083984 0)"/>
     <use xlink:href="#DejaVuSans-69" transform="translate(105.607422 0)"/>
     <use xlink:href="#DejaVuSans-6c" transform="translate(133.390625 0)"/>
     <use xlink:href="#DejaVuSans-73" transform="translate(161.173828 0)"/>
     <use xlink:href="#DejaVuSans-20" transform="translate(213.273438 0)"/>
     <use xlink:href="#DejaVuSans-65" transform="translate(245.060547 0)"/>
     <use xlink:href="#DejaVuSans-6e" transform="translate(306.583984 0)"/>
     <use xlink:href="#DejaVuSans-74" transform="translate(369.962891 0)"/>
     <use xlink:href="#DejaVuSans-73" transform="translate(409.171875 0)"/>
     <use xlink:href="#DejaVuSans-63" transform="translate(461.271484 0)"/>
     <use xlink:href="#DejaVuSans-68" transform="translate(516.251953 0)"/>
     <use xlink:href="#DejaVuSans-65" transform="translate(579.630859 0)"/>
     <use xlink:href="#DejaVuSans-69" transform="translate(641.154297 0)"/>
     <use xlink:href="#DejaVuSans-64" transform="translate(668.9375 0)"/>
     <use xlink:href="#DejaVuSans-65" transform="translate(732.414062 0)"/>
     <use xlink:href="#DejaVuSans-6e" transform="translate(793.9375 0)"/>
     <use xlink:href="#DejaVuSans-64" transform="translate(857.316406 0)"/>
    </g>
   </g>
   <g id="text_3">
    <!-- 17% -->
    <g transform="translate(474.521239 477.148917) scale(0.08 -0.08)">
     <defs>
      <path id="DejaVuSans-37" d="M 525 4666 
L 3525 4666 
L 3525 4397 
L 1831 0 
L 1172 0 
L 2766 4134 
L 525 4134 
L 525 4666 
z
" transform="scale(0.015625)"/>
     </defs>
     <use xlink:href="#DejaVuSans-31"/>
     <use xlink:href="#DejaVuSans-37" transform="translate(63.623047 0)"/>
     <use xlink:href="#DejaVuSans-25" transform="translate(127.246094 0)"/>
    </g>
    <!-- Eher entscheidend -->
    <g transform="translate(474.521239 486.107167) scale(0.08 -0.08)">
     <defs>
      <path id="DejaVuSans-45" d="M 628 4666 
L 3578 4666 
L 3578 4134 
L 1259 4134 
L 1259 2753 
L 3481 2753 
L 3481 2222 
L 1259 2222 
L 1259 531 
L 3634 531 
L 3634 0 
L 628 0 
L 628 4666 
z
" transform="scale(0.015625)"/>
     </defs>
     <use xlink:href="#DejaVuSans-45"/>
     <use xlink:href="#DejaVuSans-68" transform="translate(63.183594 0)"/>
     <use xlink:href="#DejaVuSans-65" transform="translate(126.5625 0)"/>
     <use xlink:href="#DejaVuSans-72" transform="translate(188.085938 0)"/>
     <use xlink:href="#DejaVuSans-20" transform="translate(229.199219 0)"/>
     <use xlink:href="#DejaVuSans-65" transform="translate(260.986328 0)"/>
     <use xlink:href="#DejaVuSans-6e" transform="translate(322.509766 0)"/>
     <use xlink:href="#DejaVuSans-74" transform="translate(385.888672 0)"/>
     <use xlink:href="#DejaVuSans-73" transform="translate(425.097656 0)"/>
     <use xlink:href="#DejaVuSans-63" transform="translate(477.197266 0)"/>
     <use xlink:href="#DejaVuSans-68" transform="translate(532.177734 0)"/>
     <use xlink:href="#DejaVuSans-65" transform="translate(595.556641 0)"/>
     <use xlink:href="#DejaVuSans-69" transform="translate(657.080078 0)"/>
     <use xlink:href="#DejaVuSans-64" transform="translate(684.863281 0)"/>
     <use xlink:href="#DejaVuSans-65" transform="translate(748.339844 0)"/>
     <use xlink:href="#DejaVuSans-6e" transform="translate(809.863281 0)"/>
     <use xlink:href="#DejaVuSans-64" transform="translate(873.242188 0)"/>
    </g>
   </g>
   <g id="text_4">
    <!-- 17% -->
    <g transform="translate(266.12444 372.205564) scale(0.08 -0.08)">
     <use xlink:href="#DejaVuSans-31"/>
     <use xlink:href="#DejaVuSans-37" transform="translate(63.623047 0)"/>
     <use xlink:href="#DejaVuSans-25" transform="translate(127.246094 0)"/>
    </g>
    <!-- Nicht entscheidend -->
    <g transform="translate(206.49069 381.163814) scale(0.08 -0.08)">
     <defs>
      <path id="DejaVuSans-4e" d="M 628 4666 
L 1478 4666 
L 3547 763 
L 3547 4666 
L 4159 4666 
L 4159 0 
L 3309 0 
L 1241 3903 
L 1241 0 
L 628 0 
L 628 4666 
z
" transform="scale(0.015625)"/>
     </defs>
     <use xlink:href="#DejaVuSans-4e"/>
     <use xlink:href="#DejaVuSans-69" transform="translate(74.804688 0)"/>
     <use xlink:href="#DejaVuSans-63" transform="translate(102.587891 0)"/>
     <use xlink:href="#DejaVuSans-68" transform="translate(157.568359 0)"/>
     <use xlink:href="#DejaVuSans-74" transform="translate(220.947266 0)"/>
     <use xlink:href="#DejaVuSans-20" transform="translate(260.15625 0)"/>
     <use xlink:href="#DejaVuSans-65" transform="translate(291.943359 0)"/>
     <use xlink:href="#DejaVuSans-6e" transform="translate(353.466797 0)"/>
     <use xlink:href="#DejaVuSans-74" transform="translate(416.845703 0)"/>
     <use xlink:href="#DejaVuSans-73" transform="translate(456.054688 0)"/>
     <use xlink:href="#DejaVuSans-63" transform="translate(508.154297 0)"/>
     <use xlink:href="#DejaVuSans-68" transform="translate(563.134766 0)"/>
     <use xlink:href="#DejaVuSans-65" transform="translate(626.513672 0)"/>
     <use xlink:href="#DejaVuSans-69" transform="translate(688.037109 0)"/>
     <use xlink:href="#DejaVuSans-64" transform="translate(715.820312 0)"/>
     <use xlink:href="#DejaVuSans-65" transform="translate(779.296875 0)"/>
     <use xlink:href="#DejaVuSans-6e" transform="translate(840.820312 0)"/>
     <use xlink:href="#DejaVuSans-64" transform="translate(904.199219 0)"/>
    </g>
   </g>
   <g id="text_5">
    <!-- 14% -->
    <g transform="translate(254.252174 177.824216) scale(0.08 -0.08)">
     <defs>
      <path id="DejaVuSans-34" d="M 2419 4116 
L 825 1625 
L 2419 1625 
L 2419 4116 
z
M 2253 4666 
L 3047 4666 
L 3047 1625 
L 3713 1625 
L 3713 1100 
L 3047 1100 
L 3047 0 
L 2419 0 
L 2419 1100 
L 313 1100 
L 313 1709 
L 2253 4666 
z
" transform="scale(0.015625)"/>
     </defs>
     <use xlink:href="#DejaVuSans-31"/>
     <use xlink:href="#DejaVuSans-34" transform="translate(63.623047 0)"/>
     <use xlink:href="#DejaVuSans-25" transform="translate(127.246094 0)"/>
    </g>
    <!-- Sehr entscheidend -->
    <g transform="translate(197.070924 186.782466) scale(0.08 -0.08)">
     <defs>
      <path id="DejaVuSans-53" d="M 3425 4513 
L 3425 3897 
Q 3066 4069 2747 4153 
Q 2428 4238 2131 4238 
Q 1616 4238 1336 4038 
Q 1056 3838 1056 3469 
Q 1056 3159 1242 3001 
Q 1428 2844 1947 2747 
L 2328 2669 
Q 3034 2534 3370 2195 
Q 3706 1856 3706 1288 
Q 3706 609 3251 259 
Q 2797 -91 1919 -91 
Q 1588 -91 1214 -16 
Q 841 59 441 206 
L 441 856 
Q 825 641 1194 531 
Q 1563 422 1919 422 
Q 2459 422 2753 634 
Q 3047 847 3047 1241 
Q 3047 1584 2836 1778 
Q 2625 1972 2144 2069 
L 1759 2144 
Q 1053 2284 737 2584 
Q 422 2884 422 3419 
Q 422 4038 858 4394 
Q 1294 4750 2059 4750 
Q 2388 4750 2728 4690 
Q 3069 4631 3425 4513 
z
" transform="scale(0.015625)"/>
     </defs>
     <use xlink:href="#DejaVuSans-53"/>
     <use xlink:href="#DejaVuSans-65" transform="translate(63.476562 0)"/>
     <use xlink:href="#DejaVuSans-68" transform="translate(125 0)"/>
     <use xlink:href="#DejaVuSans-72" transform="translate(188.378906 0)"/>
     <use xlink:href="#DejaVuSans-20" transform="translate(229.492188 0)"/>
     <use xlink:href="#DejaVuSans-65" transform="translate(261.279297 0)"/>
     <use xlink:href="#DejaVuSans-6e" transform="translate(322.802734 0)"/>
     <use xlink:href="#DejaVuSans-74" transform="translate(386.181641 0)"/>
     <use xlink:href="#DejaVuSans-73" transform="translate(425.390625 0)"/>
     <use xlink:href="#DejaVuSans-63" transform="translate(477.490234 0)"/>
     <use xlink:href="#DejaVuSans-68" transform="translate(532.470703 0)"/>
     <use xlink:href="#DejaVuSans-65" transform="translate(595.849609 0)"/>
     <use xlink:href="#DejaVuSans-69" transform="translate(657.373047 0)"/>
     <use xlink:href="#DejaVuSans-64" transform="translate(685.15625 0)"/>
     <use xlink:href="#DejaVuSans-65" transform="translate(748.632812 0)"/>
     <use xlink:href="#DejaVuSans-6e" transform="translate(810.15625 0)"/>
     <use xlink:href="#DejaVuSans-64" transform="translate(873.535156 0)"/>
    </g>
   </g>
   <g id="text_6">
    <!-- 12% -->
    <g transform="translate(373.686867 63.732591) scale(0.08 -0.08)">
     <use xlink:href="#DejaVuSans-31"/>
     <use xlink:href="#DejaVuSans-32" transform="translate(63.623047 0)"/>
     <use xlink:href="#DejaVuSans-25" transform="translate(127.246094 0)"/>
    </g>
    <!-- Keine Antwort -->
    <g transform="translate(335.400617 72.690841) scale(0.08 -0.08)">
     <defs>
      <path id="DejaVuSans-4b" d="M 628 4666 
L 1259 4666 
L 1259 2694 
L 3353 4666 
L 4166 4666 
L 1850 2491 
L 4331 0 
L 3500 0 
L 1259 2247 
L 1259 0 
L 628 0 
L 628 4666 
z
" transform="scale(0.015625)"/>
      <path id="DejaVuSans-41" d="M 2188 4044 
L 1331 1722 
L 3047 1722 
L 2188 4044 
z
M 1831 4666 
L 2547 4666 
L 4325 0 
L 3669 0 
L 3244 1197 
L 1141 1197 
L 716 0 
L 50 0 
L 1831 4666 
z
" transform="scale(0.015625)"/>
      <path id="DejaVuSans-77" d="M 269 3500 
L 844 3500 
L 1563 769 
L 2278 3500 
L 2956 3500 
L 3675 769 
L 4391 3500 
L 4966 3500 
L 4050 0 
L 3372 0 
L 2619 2869 
L 1863 0 
L 1184 0 
L 269 3500 
z
" transform="scale(0.015625)"/>
      <path id="DejaVuSans-6f" d="M 1959 3097 
Q 1497 3097 1228 2736 
Q 959 2375 959 1747 
Q 959 1119 1226 758 
Q 1494 397 1959 397 
Q 2419 397 2687 759 
Q 2956 1122 2956 1747 
Q 2956 2369 2687 2733 
Q 2419 3097 1959 3097 
z
M 1959 3584 
Q 2709 3584 3137 3096 
Q 3566 2609 3566 1747 
Q 3566 888 3137 398 
Q 2709 -91 1959 -91 
Q 1206 -91 779 398 
Q 353 888 353 1747 
Q 353 2609 779 3096 
Q 1206 3584 1959 3584 
z
" transform="scale(0.015625)"/>
     </defs>
     <use xlink:href="#DejaVuSans-4b"/>
     <use xlink:href="#DejaVuSans-65" transform="translate(60.576172 0)"/>
     <use xlink:href="#DejaVuSans-69" transform="translate(122.099609 0)"/>
     <use xlink:href="#DejaVuSans-6e" transform="translate(149.882812 0)"/>
     <use xlink:href="#DejaVuSans-65" transform="translate(213.261719 0)"/>
     <use xlink:href="#DejaVuSans-20" transform="translate(274.785156 0)"/>
     <use xlink:href="#DejaVuSans-41" transform="translate(306.572266 0)"/>
     <use xlink:href="#DejaVuSans-6e" transform="translate(374.980469 0)"/>
     <use xlink:href="#DejaVuSans-74" transform="translate(438.359375 0)"/>
     <use xlink:href="#DejaVuSans-77" transform="translate(477.568359 0)"/>
     <use xlink:href="#DejaVuSans-6f" transform="translate(559.355469 0)"/>
     <use xlink:href="#DejaVuSans-72" transform="translate(620.537109 0)"/>
     <use xlink:href="#DejaVuSans-74" transform="translate(661.650391 0)"/>
    </g>
   </g>
  </g>
  <g id="text_7">
   <!-- Verbesserte Attraktivität des Unternehmens auf dem Arbeitsmarkt -->
   <g transform="translate(267.91125 22.078125) scale(0.12 -0.12)">
    <defs>
     <path id="DejaVuSans-56" d="M 1831 0 
L 50 4666 
L 709 4666 
L 2188 738 
L 3669 4666 
L 4325 4666 
L 2547 0 
L 1831 0 
z
" transform="scale(0.015625)"/>
     <path id="DejaVuSans-62" d="M 3116 1747 
Q 3116 2381 2855 2742 
Q 2594 3103 2138 3103 
Q 1681 3103 1420 2742 
Q 1159 2381 1159 1747 
Q 1159 1113 1420 752 
Q 1681 391 2138 391 
Q 2594 391 2855 752 
Q 3116 1113 3116 1747 
z
M 1159 2969 
Q 1341 3281 1617 3432 
Q 1894 3584 2278 3584 
Q 2916 3584 3314 3078 
Q 3713 2572 3713 1747 
Q 3713 922 3314 415 
Q 2916 -91 2278 -91 
Q 1894 -91 1617 61 
Q 1341 213 1159 525 
L 1159 0 
L 581 0 
L 581 4863 
L 1159 4863 
L 1159 2969 
z
" transform="scale(0.015625)"/>
     <path id="DejaVuSans-61" d="M 2194 1759 
Q 1497 1759 1228 1600 
Q 959 1441 959 1056 
Q 959 750 1161 570 
Q 1363 391 1709 391 
Q 2188 391 2477 730 
Q 2766 1069 2766 1631 
L 2766 1759 
L 2194 1759 
z
M 3341 1997 
L 3341 0 
L 2766 0 
L 2766 531 
Q 2569 213 2275 61 
Q 1981 -91 1556 -91 
Q 1019 -91 701 211 
Q 384 513 384 1019 
Q 384 1609 779 1909 
Q 1175 2209 1959 2209 
L 2766 2209 
L 2766 2266 
Q 2766 2663 2505 2880 
Q 2244 3097 1772 3097 
Q 1472 3097 1187 3025 
Q 903 2953 641 2809 
L 641 3341 
Q 956 3463 1253 3523 
Q 1550 3584 1831 3584 
Q 2591 3584 2966 3190 
Q 3341 2797 3341 1997 
z
" transform="scale(0.015625)"/>
     <path id="DejaVuSans-6b" d="M 581 4863 
L 1159 4863 
L 1159 1991 
L 2875 3500 
L 3609 3500 
L 1753 1863 
L 3688 0 
L 2938 0 
L 1159 1709 
L 1159 0 
L 581 0 
L 581 4863 
z
" transform="scale(0.015625)"/>
     <path id="DejaVuSans-76" d="M 191 3500 
L 800 3500 
L 1894 563 
L 2988 3500 
L 3597 3500 
L 2284 0 
L 1503 0 
L 191 3500 
z
" transform="scale(0.015625)"/>
     <path id="DejaVuSans-e4" d="M 2194 1759 
Q 1497 1759 1228 1600 
Q 959 1441 959 1056 
Q 959 750 1161 570 
Q 1363 391 1709 391 
Q 2188 391 2477 730 
Q 2766 1069 2766 1631 
L 2766 1759 
L 2194 1759 
z
M 3341 1997 
L 3341 0 
L 2766 0 
L 2766 531 
Q 2569 213 2275 61 
Q 1981 -91 1556 -91 
Q 1019 -91 701 211 
Q 384 513 384 1019 
Q 384 1609 779 1909 
Q 1175 2209 1959 2209 
L 2766 2209 
L 2766 2266 
Q 2766 2663 2505 2880 
Q 2244 3097 1772 3097 
Q 1472 3097 1187 3025 
Q 903 2953 641 2809 
L 641 3341 
Q 956 3463 1253 3523 
Q 1550 3584 1831 3584 
Q 2591 3584 2966 3190 
Q 3341 2797 3341 1997 
z
M 2150 4850 
L 2784 4850 
L 2784 4219 
L 2150 4219 
L 2150 4850 
z
M 928 4850 
L 1562 4850 
L 1562 4219 
L 928 4219 
L 928 4850 
z
" transform="scale(0.015625)"/>
     <path id="DejaVuSans-55" d="M 556 4666 
L 1191 4666 
L 1191 1831 
Q 1191 1081 1462 751 
Q 1734 422 2344 422 
Q 2950 422 3222 751 
Q 3494 1081 3494 1831 
L 3494 4666 
L 4128 4666 
L 4128 1753 
Q 4128 841 3676 375 
Q 3225 -91 2344 -91 
Q 1459 -91 1007 375 
Q 556 841 556 1753 
L 556 4666 
z
" transform="scale(0.015625)"/>
     <path id="DejaVuSans-6d" d="M 3328 2828 
Q 3544 3216 3844 3400 
Q 4144 3584 4550 3584 
Q 5097 3584 5394 3201 
Q 5691 2819 5691 2113 
L 5691 0 
L 5113 0 
L 5113 2094 
Q 5113 2597 4934 2840 
Q 4756 3084 4391 3084 
Q 3944 3084 3684 2787 
Q 3425 2491 3425 1978 
L 3425 0 
L 2847 0 
L 2847 2094 
Q 2847 2600 2669 2842 
Q 2491 3084 2119 3084 
Q 1678 3084 1418 2786 
Q 1159 2488 1159 1978 
L 1159 0 
L 581 0 
L 581 3500 
L 1159 3500 
L 1159 2956 
Q 1356 3278 1631 3431 
Q 1906 3584 2284 3584 
Q 2666 3584 2933 3390 
Q 3200 3197 3328 2828 
z
" transform="scale(0.015625)"/>
     <path id="DejaVuSans-75" d="M 544 1381 
L 544 3500 
L 1119 3500 
L 1119 1403 
Q 1119 906 1312 657 
Q 1506 409 1894 409 
Q 2359 409 2629 706 
Q 2900 1003 2900 1516 
L 2900 3500 
L 3475 3500 
L 3475 0 
L 2900 0 
L 2900 538 
Q 2691 219 2414 64 
Q 2138 -91 1772 -91 
Q 1169 -91 856 284 
Q 544 659 544 1381 
z
M 1991 3584 
L 1991 3584 
z
" transform="scale(0.015625)"/>
     <path id="DejaVuSans-66" d="M 2375 4863 
L 2375 4384 
L 1825 4384 
Q 1516 4384 1395 4259 
Q 1275 4134 1275 3809 
L 1275 3500 
L 2222 3500 
L 2222 3053 
L 1275 3053 
L 1275 0 
L 697 0 
L 697 3053 
L 147 3053 
L 147 3500 
L 697 3500 
L 697 3744 
Q 697 4328 969 4595 
Q 1241 4863 1831 4863 
L 2375 4863 
z
" transform="scale(0.015625)"/>
    </defs>
    <use xlink:href="#DejaVuSans-56"/>
    <use xlink:href="#DejaVuSans-65" transform="translate(60.658203 0)"/>
    <use xlink:href="#DejaVuSans-72" transform="translate(122.181641 0)"/>
    <use xlink:href="#DejaVuSans-62" transform="translate(163.294922 0)"/>
    <use xlink:href="#DejaVuSans-65" transform="translate(226.771484 0)"/>
    <use xlink:href="#DejaVuSans-73" transform="translate(288.294922 0)"/>
    <use xlink:href="#DejaVuSans-73" transform="translate(340.394531 0)"/>
    <use xlink:href="#DejaVuSans-65" transform="translate(392.494141 0)"/>
    <use xlink:href="#DejaVuSans-72" transform="translate(454.017578 0)"/>
    <use xlink:href="#DejaVuSans-74" transform="translate(495.130859 0)"/>
    <use xlink:href="#DejaVuSans-65" transform="translate(534.339844 0)"/>
    <use xlink:href="#DejaVuSans-20" transform="translate(595.863281 0)"/>
    <use xlink:href="#DejaVuSans-41" transform="translate(627.650391 0)"/>
    <use xlink:href="#DejaVuSans-74" transform="translate(694.308594 0)"/>
    <use xlink:href="#DejaVuSans-74" transform="translate(733.517578 0)"/>
    <use xlink:href="#DejaVuSans-72" transform="translate(772.726562 0)"/>
    <use xlink:href="#DejaVuSans-61" transform="translate(813.839844 0)"/>
    <use xlink:href="#DejaVuSans-6b" transform="translate(875.119141 0)"/>
    <use xlink:href="#DejaVuSans-74" transform="translate(933.029297 0)"/>
    <use xlink:href="#DejaVuSans-69" transform="translate(972.238281 0)"/>
    <use xlink:href="#DejaVuSans-76" transform="translate(1000.021484 0)"/>
    <use xlink:href="#DejaVuSans-69" transform="translate(1059.201172 0)"/>
    <use xlink:href="#DejaVuSans-74" transform="translate(1086.984375 0)"/>
    <use xlink:href="#DejaVuSans-e4" transform="translate(1126.193359 0)"/>
    <use xlink:href="#DejaVuSans-74" transform="translate(1187.472656 0)"/>
    <use xlink:href="#DejaVuSans-20" transform="translate(1226.681641 0)"/>
    <use xlink:href="#DejaVuSans-64" transform="translate(1258.46875 0)"/>
    <use xlink:href="#DejaVuSans-65" transform="translate(1321.945312 0)"/>
    <use xlink:href="#DejaVuSans-73" transform="translate(1383.46875 0)"/>
    <use xlink:href="#DejaVuSans-20" transform="translate(1435.568359 0)"/>
    <use xlink:href="#DejaVuSans-55" transform="translate(1467.355469 0)"/>
    <use xlink:href="#DejaVuSans-6e" transform="translate(1540.548828 0)"/>
    <use xlink:href="#DejaVuSans-74" transform="translate(1603.927734 0)"/>
    <use xlink:href="#DejaVuSans-65" transform="translate(1643.136719 0)"/>
    <use xlink:href="#DejaVuSans-72" transform="translate(1704.660156 0)"/>
    <use xlink:href="#DejaVuSans-6e" transform="translate(1744.023438 0)"/>
    <use xlink:href="#DejaVuSans-65" transform="translate(1807.402344 0)"/>
    <use xlink:href="#DejaVuSans-68" transform="translate(1868.925781 0)"/>
    <use xlink:href="#DejaVuSans-6d" transform="translate(1932.304688 0)"/>
    <use xlink:href="#DejaVuSans-65" transform="translate(2029.716797 0)"/>
    <use xlink:href="#DejaVuSans-6e" transform="translate(2091.240234 0)"/>
    <use xlink:href="#DejaVuSans-73" transform="translate(2154.619141 0)"/>
    <use xlink:href="#DejaVuSans-20" transform="translate(2206.71875 0)"/>
    <use xlink:href="#DejaVuSans-61" transform="translate(2238.505859 0)"/>
    <use xlink:href="#DejaVuSans-75" transform="translate(2299.785156 0)"/>
    <use xlink:href="#DejaVuSans-66" transform="translate(2363.164062 0)"/>
    <use xlink:href="#DejaVuSans-20" transform="translate(2398.369141 0)"/>
    <use xlink:href="#DejaVuSans-64" transform="translate(2430.15625 0)"/>
    <use xlink:href="#DejaVuSans-65" transform="translate(2493.632812 0)"/>
    <use xlink:href="#DejaVuSans-6d" transform="translate(2555.15625 0)"/>
    <use xlink:href="#DejaVuSans-20" transform="translate(2652.568359 0)"/>
    <use xlink:href="#DejaVuSans-41" transform="translate(2684.355469 0)"/>
    <use xlink:href="#DejaVuSans-72" transform="translate(2752.763672 0)"/>
    <use xlink:href="#DejaVuSans-62" transform="translate(2793.876953 0)"/>
    <use xlink:href="#DejaVuSans-65" transform="translate(2857.353516 0)"/>
    <use xlink:href="#DejaVuSans-69" transform="translate(2918.876953 0)"/>
    <use xlink:href="#DejaVuSans-74" transform="translate(2946.660156 0)"/>
    <use xlink:href="#DejaVuSans-73" transform="translate(2985.869141 0)"/>
    <use xlink:href="#DejaVuSans-6d" transform="translate(3037.96875 0)"/>
    <use xlink:href="#DejaVuSans-61" transform="translate(3135.380859 0)"/>
    <use xlink:href="#DejaVuSans-72" transform="translate(3196.660156 0)"/>
    <use xlink:href="#DejaVuSans-6b" transform="translate(3237.773438 0)"/>
    <use xlink:href="#DejaVuSans-74" transform="translate(3295.683594 0)"/>
   </g>
  </g>
  <g id="text_8">
   <!-- Abbildung 28e: Welche der nachfolgenden Nutzenpotenziale erachten Sie als -->
   <g transform="translate(255.235938 557.948813) scale(0.11 -0.11)">
    <defs>
     <path id="DejaVuSans-38" d="M 2034 2216 
Q 1584 2216 1326 1975 
Q 1069 1734 1069 1313 
Q 1069 891 1326 650 
Q 1584 409 2034 409 
Q 2484 409 2743 651 
Q 3003 894 3003 1313 
Q 3003 1734 2745 1975 
Q 2488 2216 2034 2216 
z
M 1403 2484 
Q 997 2584 770 2862 
Q 544 3141 544 3541 
Q 544 4100 942 4425 
Q 1341 4750 2034 4750 
Q 2731 4750 3128 4425 
Q 3525 4100 3525 3541 
Q 3525 3141 3298 2862 
Q 3072 2584 2669 2484 
Q 3125 2378 3379 2068 
Q 3634 1759 3634 1313 
Q 3634 634 3220 271 
Q 2806 -91 2034 -91 
Q 1263 -91 848 271 
Q 434 634 434 1313 
Q 434 1759 690 2068 
Q 947 2378 1403 2484 
z
M 1172 3481 
Q 1172 3119 1398 2916 
Q 1625 2713 2034 2713 
Q 2441 2713 2670 2916 
Q 2900 3119 2900 3481 
Q 2900 3844 2670 4047 
Q 2441 4250 2034 4250 
Q 1625 4250 1398 4047 
Q 1172 3844 1172 3481 
z
" transform="scale(0.015625)"/>
     <path id="DejaVuSans-3a" d="M 750 794 
L 1409 794 
L 1409 0 
L 750 0 
L 750 794 
z
M 750 3309 
L 1409 3309 
L 1409 2516 
L 750 2516 
L 750 3309 
z
" transform="scale(0.015625)"/>
     <path id="DejaVuSans-57" d="M 213 4666 
L 850 4666 
L 1831 722 
L 2809 4666 
L 3519 4666 
L 4500 722 
L 5478 4666 
L 6119 4666 
L 4947 0 
L 4153 0 
L 3169 4050 
L 2175 0 
L 1381 0 
L 213 4666 
z
" transform="scale(0.015625)"/>
     <path id="DejaVuSans-7a" d="M 353 3500 
L 3084 3500 
L 3084 2975 
L 922 459 
L 3084 459 
L 3084 0 
L 275 0 
L 275 525 
L 2438 3041 
L 353 3041 
L 353 3500 
z
" transform="scale(0.015625)"/>
     <path id="DejaVuSans-70" d="M 1159 525 
L 1159 -1331 
L 581 -1331 
L 581 3500 
L 1159 3500 
L 1159 2969 
Q 1341 3281 1617 3432 
Q 1894 3584 2278 3584 
Q 2916 3584 3314 3078 
Q 3713 2572 3713 1747 
Q 3713 922 3314 415 
Q 2916 -91 2278 -91 
Q 1894 -91 1617 61 
Q 1341 213 1159 525 
z
M 3116 1747 
Q 3116 2381 2855 2742 
Q 2594 3103 2138 3103 
Q 1681 3103 1420 2742 
Q 1159 2381 1159 1747 
Q 1159 1113 1420 752 
Q 1681 391 2138 391 
Q 2594 391 2855 752 
Q 3116 1113 3116 1747 
z
" transform="scale(0.015625)"/>
    </defs>
    <use xlink:href="#DejaVuSans-41"/>
    <use xlink:href="#DejaVuSans-62" transform="translate(68.408203 0)"/>
    <use xlink:href="#DejaVuSans-62" transform="translate(131.884766 0)"/>
    <use xlink:href="#DejaVuSans-69" transform="translate(195.361328 0)"/>
    <use xlink:href="#DejaVuSans-6c" transform="translate(223.144531 0)"/>
    <use xlink:href="#DejaVuSans-64" transform="translate(250.927734 0)"/>
    <use xlink:href="#DejaVuSans-75" transform="translate(314.404297 0)"/>
    <use xlink:href="#DejaVuSans-6e" transform="translate(377.783203 0)"/>
    <use xlink:href="#DejaVuSans-67" transform="translate(441.162109 0)"/>
    <use xlink:href="#DejaVuSans-20" transform="translate(504.638672 0)"/>
    <use xlink:href="#DejaVuSans-32" transform="translate(536.425781 0)"/>
    <use xlink:href="#DejaVuSans-38" transform="translate(600.048828 0)"/>
    <use xlink:href="#DejaVuSans-65" transform="translate(663.671875 0)"/>
    <use xlink:href="#DejaVuSans-3a" transform="translate(725.195312 0)"/>
    <use xlink:href="#DejaVuSans-20" transform="translate(758.886719 0)"/>
    <use xlink:href="#DejaVuSans-57" transform="translate(790.673828 0)"/>
    <use xlink:href="#DejaVuSans-65" transform="translate(883.675781 0)"/>
    <use xlink:href="#DejaVuSans-6c" transform="translate(945.199219 0)"/>
    <use xlink:href="#DejaVuSans-63" transform="translate(972.982422 0)"/>
    <use xlink:href="#DejaVuSans-68" transform="translate(1027.962891 0)"/>
    <use xlink:href="#DejaVuSans-65" transform="translate(1091.341797 0)"/>
    <use xlink:href="#DejaVuSans-20" transform="translate(1152.865234 0)"/>
    <use xlink:href="#DejaVuSans-64" transform="translate(1184.652344 0)"/>
    <use xlink:href="#DejaVuSans-65" transform="translate(1248.128906 0)"/>
    <use xlink:href="#DejaVuSans-72" transform="translate(1309.652344 0)"/>
    <use xlink:href="#DejaVuSans-20" transform="translate(1350.765625 0)"/>
    <use xlink:href="#DejaVuSans-6e" transform="translate(1382.552734 0)"/>
    <use xlink:href="#DejaVuSans-61" transform="translate(1445.931641 0)"/>
    <use xlink:href="#DejaVuSans-63" transform="translate(1507.210938 0)"/>
    <use xlink:href="#DejaVuSans-68" transform="translate(1562.191406 0)"/>
    <use xlink:href="#DejaVuSans-66" transform="translate(1625.570312 0)"/>
    <use xlink:href="#DejaVuSans-6f" transform="translate(1660.775391 0)"/>
    <use xlink:href="#DejaVuSans-6c" transform="translate(1721.957031 0)"/>
    <use xlink:href="#DejaVuSans-67" transform="translate(1749.740234 0)"/>
    <use xlink:href="#DejaVuSans-65" transform="translate(1813.216797 0)"/>
    <use xlink:href="#DejaVuSans-6e" transform="translate(1874.740234 0)"/>
    <use xlink:href="#DejaVuSans-64" transform="translate(1938.119141 0)"/>
    <use xlink:href="#DejaVuSans-65" transform="translate(2001.595703 0)"/>
    <use xlink:href="#DejaVuSans-6e" transform="translate(2063.119141 0)"/>
    <use xlink:href="#DejaVuSans-20" transform="translate(2126.498047 0)"/>
    <use xlink:href="#DejaVuSans-4e" transform="translate(2158.285156 0)"/>
    <use xlink:href="#DejaVuSans-75" transform="translate(2233.089844 0)"/>
    <use xlink:href="#DejaVuSans-74" transform="translate(2296.46875 0)"/>
    <use xlink:href="#DejaVuSans-7a" transform="translate(2335.677734 0)"/>
    <use xlink:href="#DejaVuSans-65" transform="translate(2388.167969 0)"/>
    <use xlink:href="#DejaVuSans-6e" transform="translate(2449.691406 0)"/>
    <use xlink:href="#DejaVuSans-70" transform="translate(2513.070312 0)"/>
    <use xlink:href="#DejaVuSans-6f" transform="translate(2576.546875 0)"/>
    <use xlink:href="#DejaVuSans-74" transform="translate(2637.728516 0)"/>
    <use xlink:href="#DejaVuSans-65" transform="translate(2676.9375 0)"/>
    <use xlink:href="#DejaVuSans-6e" transform="translate(2738.460938 0)"/>
    <use xlink:href="#DejaVuSans-7a" transform="translate(2801.839844 0)"/>
    <use xlink:href="#DejaVuSans-69" transform="translate(2854.330078 0)"/>
    <use xlink:href="#DejaVuSans-61" transform="translate(2882.113281 0)"/>
    <use xlink:href="#DejaVuSans-6c" transform="translate(2943.392578 0)"/>
    <use xlink:href="#DejaVuSans-65" transform="translate(2971.175781 0)"/>
    <use xlink:href="#DejaVuSans-20" transform="translate(3032.699219 0)"/>
    <use xlink:href="#DejaVuSans-65" transform="translate(3064.486328 0)"/>
    <use xlink:href="#DejaVuSans-72" transform="translate(3126.009766 0)"/>
    <use xlink:href="#DejaVuSans-61" transform="translate(3167.123047 0)"/>
    <use xlink:href="#DejaVuSans-63" transform="translate(3228.402344 0)"/>
    <use xlink:href="#DejaVuSans-68" transform="translate(3283.382812 0)"/>
    <use xlink:href="#DejaVuSans-74" transform="translate(3346.761719 0)"/>
    <use xlink:href="#DejaVuSans-65" transform="translate(3385.970703 0)"/>
    <use xlink:href="#DejaVuSans-6e" transform="translate(3447.494141 0)"/>
    <use xlink:href="#DejaVuSans-20" transform="translate(3510.873047 0)"/>
    <use xlink:href="#DejaVuSans-53" transform="translate(3542.660156 0)"/>
    <use xlink:href="#DejaVuSans-69" transform="translate(3606.136719 0)"/>
    <use xlink:href="#DejaVuSans-65" transform="translate(3633.919922 0)"/>
    <use xlink:href="#DejaVuSans-20" transform="translate(3695.443359 0)"/>
    <use xlink:href="#DejaVuSans-61" transform="translate(3727.230469 0)"/>
    <use xlink:href="#DejaVuSans-6c" transform="translate(3788.509766 0)"/>
    <use xlink:href="#DejaVuSans-73" transform="translate(3816.292969 0)"/>
   </g>
   <!-- entscheidenden Motivator zur Umsetzung zirkulärer Wertschöpfungsprozesse? – -->
   <g transform="translate(247.185313 569.430578) scale(0.11 -0.11)">
    <defs>
     <path id="DejaVuSans-4d" d="M 628 4666 
L 1569 4666 
L 2759 1491 
L 3956 4666 
L 4897 4666 
L 4897 0 
L 4281 0 
L 4281 4097 
L 3078 897 
L 2444 897 
L 1241 4097 
L 1241 0 
L 628 0 
L 628 4666 
z
" transform="scale(0.015625)"/>
     <path id="DejaVuSans-f6" d="M 1959 3097 
Q 1497 3097 1228 2736 
Q 959 2375 959 1747 
Q 959 1119 1226 758 
Q 1494 397 1959 397 
Q 2419 397 2687 759 
Q 2956 1122 2956 1747 
Q 2956 2369 2687 2733 
Q 2419 3097 1959 3097 
z
M 1959 3584 
Q 2709 3584 3137 3096 
Q 3566 2609 3566 1747 
Q 3566 888 3137 398 
Q 2709 -91 1959 -91 
Q 1206 -91 779 398 
Q 353 888 353 1747 
Q 353 2609 779 3096 
Q 1206 3584 1959 3584 
z
M 2254 4850 
L 2888 4850 
L 2888 4219 
L 2254 4219 
L 2254 4850 
z
M 1032 4850 
L 1666 4850 
L 1666 4219 
L 1032 4219 
L 1032 4850 
z
" transform="scale(0.015625)"/>
     <path id="DejaVuSans-3f" d="M 1222 794 
L 1856 794 
L 1856 0 
L 1222 0 
L 1222 794 
z
M 1838 1253 
L 1241 1253 
L 1241 1734 
Q 1241 2050 1328 2253 
Q 1416 2456 1697 2725 
L 1978 3003 
Q 2156 3169 2236 3316 
Q 2316 3463 2316 3616 
Q 2316 3894 2111 4066 
Q 1906 4238 1569 4238 
Q 1322 4238 1042 4128 
Q 763 4019 459 3809 
L 459 4397 
Q 753 4575 1054 4662 
Q 1356 4750 1678 4750 
Q 2253 4750 2601 4447 
Q 2950 4144 2950 3647 
Q 2950 3409 2837 3195 
Q 2725 2981 2444 2713 
L 2169 2444 
Q 2022 2297 1961 2214 
Q 1900 2131 1875 2053 
Q 1856 1988 1847 1894 
Q 1838 1800 1838 1638 
L 1838 1253 
z
" transform="scale(0.015625)"/>
     <path id="DejaVuSans-2013" d="M 313 1978 
L 2888 1978 
L 2888 1528 
L 313 1528 
L 313 1978 
z
" transform="scale(0.015625)"/>
    </defs>
    <use xlink:href="#DejaVuSans-65"/>
    <use xlink:href="#DejaVuSans-6e" transform="translate(61.523438 0)"/>
    <use xlink:href="#DejaVuSans-74" transform="translate(124.902344 0)"/>
    <use xlink:href="#DejaVuSans-73" transform="translate(164.111328 0)"/>
    <use xlink:href="#DejaVuSans-63" transform="translate(216.210938 0)"/>
    <use xlink:href="#DejaVuSans-68" transform="translate(271.191406 0)"/>
    <use xlink:href="#DejaVuSans-65" transform="translate(334.570312 0)"/>
    <use xlink:href="#DejaVuSans-69" transform="translate(396.09375 0)"/>
    <use xlink:href="#DejaVuSans-64" transform="translate(423.876953 0)"/>
    <use xlink:href="#DejaVuSans-65" transform="translate(487.353516 0)"/>
    <use xlink:href="#DejaVuSans-6e" transform="translate(548.876953 0)"/>
    <use xlink:href="#DejaVuSans-64" transform="translate(612.255859 0)"/>
    <use xlink:href="#DejaVuSans-65" transform="translate(675.732422 0)"/>
    <use xlink:href="#DejaVuSans-6e" transform="translate(737.255859 0)"/>
    <use xlink:href="#DejaVuSans-20" transform="translate(800.634766 0)"/>
    <use xlink:href="#DejaVuSans-4d" transform="translate(832.421875 0)"/>
    <use xlink:href="#DejaVuSans-6f" transform="translate(918.701172 0)"/>
    <use xlink:href="#DejaVuSans-74" transform="translate(979.882812 0)"/>
    <use xlink:href="#DejaVuSans-69" transform="translate(1019.091797 0)"/>
    <use xlink:href="#DejaVuSans-76" transform="translate(1046.875 0)"/>
    <use xlink:href="#DejaVuSans-61" transform="translate(1106.054688 0)"/>
    <use xlink:href="#DejaVuSans-74" transform="translate(1167.333984 0)"/>
    <use xlink:href="#DejaVuSans-6f" transform="translate(1206.542969 0)"/>
    <use xlink:href="#DejaVuSans-72" transform="translate(1267.724609 0)"/>
    <use xlink:href="#DejaVuSans-20" transform="translate(1308.837891 0)"/>
    <use xlink:href="#DejaVuSans-7a" transform="translate(1340.625 0)"/>
    <use xlink:href="#DejaVuSans-75" transform="translate(1393.115234 0)"/>
    <use xlink:href="#DejaVuSans-72" transform="translate(1456.494141 0)"/>
    <use xlink:href="#DejaVuSans-20" transform="translate(1497.607422 0)"/>
    <use xlink:href="#DejaVuSans-55" transform="translate(1529.394531 0)"/>
    <use xlink:href="#DejaVuSans-6d" transform="translate(1602.587891 0)"/>
    <use xlink:href="#DejaVuSans-73" transform="translate(1700 0)"/>
    <use xlink:href="#DejaVuSans-65" transform="translate(1752.099609 0)"/>
    <use xlink:href="#DejaVuSans-74" transform="translate(1813.623047 0)"/>
    <use xlink:href="#DejaVuSans-7a" transform="translate(1852.832031 0)"/>
    <use xlink:href="#DejaVuSans-75" transform="translate(1905.322266 0)"/>
    <use xlink:href="#DejaVuSans-6e" transform="translate(1968.701172 0)"/>
    <use xlink:href="#DejaVuSans-67" transform="translate(2032.080078 0)"/>
    <use xlink:href="#DejaVuSans-20" transform="translate(2095.556641 0)"/>
    <use xlink:href="#DejaVuSans-7a" transform="translate(2127.34375 0)"/>
    <use xlink:href="#DejaVuSans-69" transform="translate(2179.833984 0)"/>
    <use xlink:href="#DejaVuSans-72" transform="translate(2207.617188 0)"/>
    <use xlink:href="#DejaVuSans-6b" transform="translate(2248.730469 0)"/>
    <use xlink:href="#DejaVuSans-75" transform="translate(2303.515625 0)"/>
    <use xlink:href="#DejaVuSans-6c" transform="translate(2366.894531 0)"/>
    <use xlink:href="#DejaVuSans-e4" transform="translate(2394.677734 0)"/>
    <use xlink:href="#DejaVuSans-72" transform="translate(2455.957031 0)"/>
    <use xlink:href="#DejaVuSans-65" transform="translate(2494.820312 0)"/>
    <use xlink:href="#DejaVuSans-72" transform="translate(2556.34375 0)"/>
    <use xlink:href="#DejaVuSans-20" transform="translate(2597.457031 0)"/>
    <use xlink:href="#DejaVuSans-57" transform="translate(2629.244141 0)"/>
    <use xlink:href="#DejaVuSans-65" transform="translate(2722.246094 0)"/>
    <use xlink:href="#DejaVuSans-72" transform="translate(2783.769531 0)"/>
    <use xlink:href="#DejaVuSans-74" transform="translate(2824.882812 0)"/>
    <use xlink:href="#DejaVuSans-73" transform="translate(2864.091797 0)"/>
    <use xlink:href="#DejaVuSans-63" transform="translate(2916.191406 0)"/>
    <use xlink:href="#DejaVuSans-68" transform="translate(2971.171875 0)"/>
    <use xlink:href="#DejaVuSans-f6" transform="translate(3034.550781 0)"/>
    <use xlink:href="#DejaVuSans-70" transform="translate(3095.732422 0)"/>
    <use xlink:href="#DejaVuSans-66" transform="translate(3159.208984 0)"/>
    <use xlink:href="#DejaVuSans-75" transform="translate(3194.414062 0)"/>
    <use xlink:href="#DejaVuSans-6e" transform="translate(3257.792969 0)"/>
    <use xlink:href="#DejaVuSans-67" transform="translate(3321.171875 0)"/>
    <use xlink:href="#DejaVuSans-73" transform="translate(3384.648438 0)"/>
    <use xlink:href="#DejaVuSans-70" transform="translate(3436.748047 0)"/>
    <use xlink:href="#DejaVuSans-72" transform="translate(3500.224609 0)"/>
    <use xlink:href="#DejaVuSans-6f" transform="translate(3539.087891 0)"/>
    <use xlink:href="#DejaVuSans-7a" transform="translate(3600.269531 0)"/>
    <use xlink:href="#DejaVuSans-65" transform="translate(3652.759766 0)"/>
    <use xlink:href="#DejaVuSans-73" transform="translate(3714.283203 0)"/>
    <use xlink:href="#DejaVuSans-73" transform="translate(3766.382812 0)"/>
    <use xlink:href="#DejaVuSans-65" transform="translate(3818.482422 0)"/>
    <use xlink:href="#DejaVuSans-3f" transform="translate(3880.005859 0)"/>
    <use xlink:href="#DejaVuSans-20" transform="translate(3933.082031 0)"/>
    <use xlink:href="#DejaVuSans-2013" transform="translate(3964.869141 0)"/>
   </g>
   <!-- Verbesserte Attraktivität des Unternehmens auf dem Arbeitsmarkt -->
   <g transform="translate(284.585312 580.912344) scale(0.11 -0.11)">
    <use xlink:href="#DejaVuSans-56"/>
    <use xlink:href="#DejaVuSans-65" transform="translate(60.658203 0)"/>
    <use xlink:href="#DejaVuSans-72" transform="translate(122.181641 0)"/>
    <use xlink:href="#DejaVuSans-62" transform="translate(163.294922 0)"/>
    <use xlink:href="#DejaVuSans-65" transform="translate(226.771484 0)"/>
    <use xlink:href="#DejaVuSans-73" transform="translate(288.294922 0)"/>
    <use xlink:href="#DejaVuSans-73" transform="translate(340.394531 0)"/>
    <use xlink:href="#DejaVuSans-65" transform="translate(392.494141 0)"/>
    <use xlink:href="#DejaVuSans-72" transform="translate(454.017578 0)"/>
    <use xlink:href="#DejaVuSans-74" transform="translate(495.130859 0)"/>
    <use xlink:href="#DejaVuSans-65" transform="translate(534.339844 0)"/>
    <use xlink:href="#DejaVuSans-20" transform="translate(595.863281 0)"/>
    <use xlink:href="#DejaVuSans-41" transform="translate(627.650391 0)"/>
    <use xlink:href="#DejaVuSans-74" transform="translate(694.308594 0)"/>
    <use xlink:href="#DejaVuSans-74" transform="translate(733.517578 0)"/>
    <use xlink:href="#DejaVuSans-72" transform="translate(772.726562 0)"/>
    <use xlink:href="#DejaVuSans-61" transform="translate(813.839844 0)"/>
    <use xlink:href="#DejaVuSans-6b" transform="translate(875.119141 0)"/>
    <use xlink:href="#DejaVuSans-74" transform="translate(933.029297 0)"/>
    <use xlink:href="#DejaVuSans-69" transform="translate(972.238281 0)"/>
    <use xlink:href="#DejaVuSans-76" transform="translate(1000.021484 0)"/>
    <use xlink:href="#DejaVuSans-69" transform="translate(1059.201172 0)"/>
    <use xlink:href="#DejaVuSans-74" transform="translate(1086.984375 0)"/>
    <use xlink:href="#DejaVuSans-e4" transform="translate(1126.193359 0)"/>
    <use xlink:href="#DejaVuSans-74" transform="translate(1187.472656 0)"/>
    <use xlink:href="#DejaVuSans-20" transform="translate(1226.681641 0)"/>
    <use xlink:href="#DejaVuSans-64" transform="translate(1258.46875 0)"/>
    <use xlink:href="#DejaVuSans-65" transform="translate(1321.945312 0)"/>
    <use xlink:href="#DejaVuSans-73" transform="translate(1383.46875 0)"/>
    <use xlink:href="#DejaVuSans-20" transform="translate(1435.568359 0)"/>
    <use xlink:href="#DejaVuSans-55" transform="translate(1467.355469 0)"/>
    <use xlink:href="#DejaVuSans-6e" transform="translate(1540.548828 0)"/>
    <use xlink:href="#DejaVuSans-74" transform="translate(1603.927734 0)"/>
    <use xlink:href="#DejaVuSans-65" transform="translate(1643.136719 0)"/>
    <use xlink:href="#DejaVuSans-72" transform="translate(1704.660156 0)"/>
    <use xlink:href="#DejaVuSans-6e" transform="translate(1744.023438 0)"/>
    <use xlink:href="#DejaVuSans-65" transform="translate(1807.402344 0)"/>
    <use xlink:href="#DejaVuSans-68" transform="translate(1868.925781 0)"/>
    <use xlink:href="#DejaVuSans-6d" transform="translate(1932.304688 0)"/>
    <use xlink:href="#DejaVuSans-65" transform="translate(2029.716797 0)"/>
    <use xlink:href="#DejaVuSans-6e" transform="translate(2091.240234 0)"/>
    <use xlink:href="#DejaVuSans-73" transform="translate(2154.619141 0)"/>
    <use xlink:href="#DejaVuSans-20" transform="translate(2206.71875 0)"/>
    <use xlink:href="#DejaVuSans-61" transform="translate(2238.505859 0)"/>
    <use xlink:href="#DejaVuSans-75" transform="translate(2299.785156 0)"/>
    <use xlink:href="#DejaVuSans-66" transform="translate(2363.164062 0)"/>
    <use xlink:href="#DejaVuSans-20" transform="translate(2398.369141 0)"/>
    <use xlink:href="#DejaVuSans-64" transform="translate(2430.15625 0)"/>
    <use xlink:href="#DejaVuSans-65" transform="translate(2493.632812 0)"/>
    <use xlink:href="#DejaVuSans-6d" transform="translate(2555.15625 0)"/>
    <use xlink:href="#DejaVuSans-20" transform="translate(2652.568359 0)"/>
    <use xlink:href="#DejaVuSans-41" transform="translate(2684.355469 0)"/>
    <use xlink:href="#DejaVuSans-72" transform="translate(2752.763672 0)"/>
    <use xlink:href="#DejaVuSans-62" transform="translate(2793.876953 0)"/>
    <use xlink:href="#DejaVuSans-65" transform="translate(2857.353516 0)"/>
    <use xlink:href="#DejaVuSans-69" transform="translate(2918.876953 0)"/>
    <use xlink:href="#DejaVuSans-74" transform="translate(2946.660156 0)"/>
    <use xlink:href="#DejaVuSans-73" transform="translate(2985.869141 0)"/>
    <use xlink:href="#DejaVuSans-6d" transform="translate(3037.96875 0)"/>
    <use xlink:href="#DejaVuSans-61" transform="translate(3135.380859 0)"/>
    <use xlink:href="#DejaVuSans-72" transform="translate(3196.660156 0)"/>
    <use xlink:href="#DejaVuSans-6b" transform="translate(3237.773438 0)"/>
    <use xlink:href="#DejaVuSans-74" transform="translate(3295.683594 0)"/>
   </g>
  </g>
 </g>
 <defs>
  <clipPath id="p94eae8396f">
   <rect x="254.16" y="51.84" width="427.68" height="427.68"/>
  </clipPath>
 </defs>
</svg>
