<?xml version="1.0" encoding="utf-8" standalone="no"?>
<!DOCTYPE svg PUBLIC "-//W3C//DTD SVG 1.1//EN"
  "http://www.w3.org/Graphics/SVG/1.1/DTD/svg11.dtd">
<svg xmlns:xlink="http://www.w3.org/1999/xlink" width="936pt" height="648pt" viewBox="0 0 936 648" xmlns="http://www.w3.org/2000/svg" version="1.1">
 <metadata>
  <rdf:RDF xmlns:dc="http://purl.org/dc/elements/1.1/" xmlns:cc="http://creativecommons.org/ns#" xmlns:rdf="http://www.w3.org/1999/02/22-rdf-syntax-ns#">
   <cc:Work>
    <dc:type rdf:resource="http://purl.org/dc/dcmitype/StillImage"/>
    <dc:date>2026-02-23T14:10:28.180639</dc:date>
    <dc:format>image/svg+xml</dc:format>
    <dc:creator>
     <cc:Agent>
      <dc:title>Matplotlib v3.10.8, https://matplotlib.org/</dc:title>
     </cc:Agent>
    </dc:creator>
   </cc:Work>
  </rdf:RDF>
 </metadata>
 <defs>
  <style type="text/css">*{stroke-linejoin: round; stroke-linecap: butt}</style>
 </defs>
 <g id="figure_1">
  <g id="patch_1">
   <path d="M 0 648 
L 936 648 
L 936 0 
L 0 0 
z
" style="fill: #ffffff"/>
  </g>
  <g id="axes_1">
   <g id="patch_2">
    <path d="M 538.850075 109.969062 
C 527.757805 104.921968 516.157912 101.074544 504.248084 98.492366 
C 492.338255 95.910188 480.186528 94.608 467.999993 94.608 
L 467.999995 154.4832 
C 475.921243 154.4832 483.819866 155.329622 491.561254 157.008038 
C 499.302643 158.686454 506.842573 161.187279 514.052549 164.467891 
z
" style="fill: #003b6a; stroke: #ffffff; stroke-linejoin: miter"/>
   </g>
   <g id="patch_3">
    <path d="M 615.275413 178.642181 
C 606.409191 163.639777 595.302441 150.079826 582.3402 138.432417 
C 569.377959 126.785008 554.71177 117.186297 538.850075 109.969062 
L 514.052549 164.467891 
C 524.36265 169.159093 533.895673 175.398255 542.32113 182.969071 
C 550.746586 190.539887 557.965974 199.353855 563.729019 209.105418 
z
" style="fill: #8fc73e; stroke: #ffffff; stroke-linejoin: miter"/>
   </g>
   <g id="patch_4">
    <path d="M 630.373636 319.535652 
C 638.06832 296.336354 640.70245 271.755133 638.098135 247.452189 
C 635.49382 223.149246 627.711026 199.684307 615.275413 178.642181 
L 563.729019 209.105418 
C 571.812167 222.782799 576.870983 238.03501 578.563788 253.831923 
C 580.256593 269.628837 578.544408 285.60663 573.542863 300.686174 
z
" style="fill: #dc912f; stroke: #ffffff; stroke-linejoin: miter"/>
   </g>
   <g id="patch_5">
    <path d="M 421.626946 430.34684 
C 463.981058 442.274505 509.34598 437.413153 548.211066 416.781995 
C 587.076152 396.150837 616.521377 361.299931 630.373636 319.535652 
L 573.542863 300.686174 
C 564.538895 327.832955 545.399499 350.486044 520.137193 363.896297 
C 494.874887 377.30655 465.387688 380.466428 437.857515 372.713446 
z
" style="fill: #93bbdc; stroke: #ffffff; stroke-linejoin: miter"/>
   </g>
   <g id="patch_6">
    <path d="M 304.05948 216.801203 
C 297.578059 238.540037 295.484822 261.35252 297.901865 283.907867 
C 300.318918 306.463215 307.198326 328.314142 318.138789 348.186034 
C 329.079252 368.057927 343.863793 385.556674 361.630009 399.661545 
C 379.396225 413.766417 399.791799 424.197677 421.626946 430.34684 
L 437.857515 372.713446 
C 423.664669 368.71649 410.407546 361.936171 398.859506 352.768004 
C 387.311466 343.599838 377.701514 332.225653 370.590213 319.308922 
C 363.478912 306.392192 359.007297 292.18909 357.436212 277.528114 
C 355.865134 262.867138 357.225738 248.039024 361.438662 233.908782 
z
" style="fill: #f9c803; stroke: #ffffff; stroke-linejoin: miter"/>
   </g>
   <g id="patch_7">
    <path d="M 468.000002 94.608 
C 431.165811 94.608 395.298482 106.504382 365.765357 128.516926 
C 336.232227 150.52947 314.583765 181.502515 304.05948 216.801203 
L 361.438662 233.908782 
C 368.279447 210.964635 382.350947 190.832155 401.547482 176.524002 
C 420.744013 162.215848 444.057777 154.4832 468.000001 154.4832 
z
" style="fill: #6283aa; stroke: #ffffff; stroke-linejoin: miter"/>
   </g>
   <g id="matplotlib.axis_1"/>
   <g id="matplotlib.axis_2"/>
   <g id="line2d_1">
    <path d="M 499.898313 118.554886 
L 507.872893 81.773595 
" clip-path="url(#p841d13adb9)" style="fill: none; stroke: #000000; stroke-opacity: 0.35; stroke-linecap: square"/>
   </g>
   <g id="line2d_2">
    <path d="M 568.619376 153.702118 
L 593.774223 125.707647 
" clip-path="url(#p841d13adb9)" style="fill: none; stroke: #000000; stroke-opacity: 0.35; stroke-linecap: square"/>
   </g>
   <g id="line2d_3">
    <path d="M 617.686358 249.639525 
L 655.107961 245.629407 
" clip-path="url(#p841d13adb9)" style="fill: none; stroke: #000000; stroke-opacity: 0.35; stroke-linecap: square"/>
   </g>
   <g id="line2d_4">
    <path d="M 538.585737 398.649759 
L 556.232177 431.892198 
" clip-path="url(#p841d13adb9)" style="fill: none; stroke: #000000; stroke-opacity: 0.35; stroke-linecap: square"/>
   </g>
   <g id="line2d_5">
    <path d="M 336.122133 338.285307 
L 303.152669 356.436642 
" clip-path="url(#p841d13adb9)" style="fill: none; stroke: #000000; stroke-opacity: 0.35; stroke-linecap: square"/>
   </g>
   <g id="line2d_6">
    <path d="M 378.033509 144.976497 
L 355.541894 114.800619 
" clip-path="url(#p841d13adb9)" style="fill: none; stroke: #000000; stroke-opacity: 0.35; stroke-linecap: square"/>
   </g>
   <g id="text_1">
    <!-- 7% -->
    <g transform="translate(513.310105 54.423833) scale(0.08 -0.08)">
     <defs>
      <path id="DejaVuSans-37" d="M 525 4666 
L 3525 4666 
L 3525 4397 
L 1831 0 
L 1172 0 
L 2766 4134 
L 525 4134 
L 525 4666 
z
" transform="scale(0.015625)"/>
      <path id="DejaVuSans-25" d="M 4653 2053 
Q 4381 2053 4226 1822 
Q 4072 1591 4072 1178 
Q 4072 772 4226 539 
Q 4381 306 4653 306 
Q 4919 306 5073 539 
Q 5228 772 5228 1178 
Q 5228 1588 5073 1820 
Q 4919 2053 4653 2053 
z
M 4653 2450 
Q 5147 2450 5437 2106 
Q 5728 1763 5728 1178 
Q 5728 594 5436 251 
Q 5144 -91 4653 -91 
Q 4153 -91 3862 251 
Q 3572 594 3572 1178 
Q 3572 1766 3864 2108 
Q 4156 2450 4653 2450 
z
M 1428 4353 
Q 1159 4353 1004 4120 
Q 850 3888 850 3481 
Q 850 3069 1003 2837 
Q 1156 2606 1428 2606 
Q 1700 2606 1854 2837 
Q 2009 3069 2009 3481 
Q 2009 3884 1853 4118 
Q 1697 4353 1428 4353 
z
M 4250 4750 
L 4750 4750 
L 1831 -91 
L 1331 -91 
L 4250 4750 
z
M 1428 4750 
Q 1922 4750 2215 4408 
Q 2509 4066 2509 3481 
Q 2509 2891 2217 2550 
Q 1925 2209 1428 2209 
Q 931 2209 642 2551 
Q 353 2894 353 3481 
Q 353 4063 643 4406 
Q 934 4750 1428 4750 
z
" transform="scale(0.015625)"/>
     </defs>
     <use xlink:href="#DejaVuSans-37"/>
     <use xlink:href="#DejaVuSans-25" transform="translate(63.623047 0)"/>
    </g>
    <!-- Nicht entscheidend -->
    <g transform="translate(513.310105 63.382083) scale(0.08 -0.08)">
     <defs>
      <path id="DejaVuSans-4e" d="M 628 4666 
L 1478 4666 
L 3547 763 
L 3547 4666 
L 4159 4666 
L 4159 0 
L 3309 0 
L 1241 3903 
L 1241 0 
L 628 0 
L 628 4666 
z
" transform="scale(0.015625)"/>
      <path id="DejaVuSans-69" d="M 603 3500 
L 1178 3500 
L 1178 0 
L 603 0 
L 603 3500 
z
M 603 4863 
L 1178 4863 
L 1178 4134 
L 603 4134 
L 603 4863 
z
" transform="scale(0.015625)"/>
      <path id="DejaVuSans-63" d="M 3122 3366 
L 3122 2828 
Q 2878 2963 2633 3030 
Q 2388 3097 2138 3097 
Q 1578 3097 1268 2742 
Q 959 2388 959 1747 
Q 959 1106 1268 751 
Q 1578 397 2138 397 
Q 2388 397 2633 464 
Q 2878 531 3122 666 
L 3122 134 
Q 2881 22 2623 -34 
Q 2366 -91 2075 -91 
Q 1284 -91 818 406 
Q 353 903 353 1747 
Q 353 2603 823 3093 
Q 1294 3584 2113 3584 
Q 2378 3584 2631 3529 
Q 2884 3475 3122 3366 
z
" transform="scale(0.015625)"/>
      <path id="DejaVuSans-68" d="M 3513 2113 
L 3513 0 
L 2938 0 
L 2938 2094 
Q 2938 2591 2744 2837 
Q 2550 3084 2163 3084 
Q 1697 3084 1428 2787 
Q 1159 2491 1159 1978 
L 1159 0 
L 581 0 
L 581 4863 
L 1159 4863 
L 1159 2956 
Q 1366 3272 1645 3428 
Q 1925 3584 2291 3584 
Q 2894 3584 3203 3211 
Q 3513 2838 3513 2113 
z
" transform="scale(0.015625)"/>
      <path id="DejaVuSans-74" d="M 1172 4494 
L 1172 3500 
L 2356 3500 
L 2356 3053 
L 1172 3053 
L 1172 1153 
Q 1172 725 1289 603 
Q 1406 481 1766 481 
L 2356 481 
L 2356 0 
L 1766 0 
Q 1100 0 847 248 
Q 594 497 594 1153 
L 594 3053 
L 172 3053 
L 172 3500 
L 594 3500 
L 594 4494 
L 1172 4494 
z
" transform="scale(0.015625)"/>
      <path id="DejaVuSans-20" transform="scale(0.015625)"/>
      <path id="DejaVuSans-65" d="M 3597 1894 
L 3597 1613 
L 953 1613 
Q 991 1019 1311 708 
Q 1631 397 2203 397 
Q 2534 397 2845 478 
Q 3156 559 3463 722 
L 3463 178 
Q 3153 47 2828 -22 
Q 2503 -91 2169 -91 
Q 1331 -91 842 396 
Q 353 884 353 1716 
Q 353 2575 817 3079 
Q 1281 3584 2069 3584 
Q 2775 3584 3186 3129 
Q 3597 2675 3597 1894 
z
M 3022 2063 
Q 3016 2534 2758 2815 
Q 2500 3097 2075 3097 
Q 1594 3097 1305 2825 
Q 1016 2553 972 2059 
L 3022 2063 
z
" transform="scale(0.015625)"/>
      <path id="DejaVuSans-6e" d="M 3513 2113 
L 3513 0 
L 2938 0 
L 2938 2094 
Q 2938 2591 2744 2837 
Q 2550 3084 2163 3084 
Q 1697 3084 1428 2787 
Q 1159 2491 1159 1978 
L 1159 0 
L 581 0 
L 581 3500 
L 1159 3500 
L 1159 2956 
Q 1366 3272 1645 3428 
Q 1925 3584 2291 3584 
Q 2894 3584 3203 3211 
Q 3513 2838 3513 2113 
z
" transform="scale(0.015625)"/>
      <path id="DejaVuSans-73" d="M 2834 3397 
L 2834 2853 
Q 2591 2978 2328 3040 
Q 2066 3103 1784 3103 
Q 1356 3103 1142 2972 
Q 928 2841 928 2578 
Q 928 2378 1081 2264 
Q 1234 2150 1697 2047 
L 1894 2003 
Q 2506 1872 2764 1633 
Q 3022 1394 3022 966 
Q 3022 478 2636 193 
Q 2250 -91 1575 -91 
Q 1294 -91 989 -36 
Q 684 19 347 128 
L 347 722 
Q 666 556 975 473 
Q 1284 391 1588 391 
Q 1994 391 2212 530 
Q 2431 669 2431 922 
Q 2431 1156 2273 1281 
Q 2116 1406 1581 1522 
L 1381 1569 
Q 847 1681 609 1914 
Q 372 2147 372 2553 
Q 372 3047 722 3315 
Q 1072 3584 1716 3584 
Q 2034 3584 2315 3537 
Q 2597 3491 2834 3397 
z
" transform="scale(0.015625)"/>
      <path id="DejaVuSans-64" d="M 2906 2969 
L 2906 4863 
L 3481 4863 
L 3481 0 
L 2906 0 
L 2906 525 
Q 2725 213 2448 61 
Q 2172 -91 1784 -91 
Q 1150 -91 751 415 
Q 353 922 353 1747 
Q 353 2572 751 3078 
Q 1150 3584 1784 3584 
Q 2172 3584 2448 3432 
Q 2725 3281 2906 2969 
z
M 947 1747 
Q 947 1113 1208 752 
Q 1469 391 1925 391 
Q 2381 391 2643 752 
Q 2906 1113 2906 1747 
Q 2906 2381 2643 2742 
Q 2381 3103 1925 3103 
Q 1469 3103 1208 2742 
Q 947 2381 947 1747 
z
" transform="scale(0.015625)"/>
     </defs>
     <use xlink:href="#DejaVuSans-4e"/>
     <use xlink:href="#DejaVuSans-69" transform="translate(74.804688 0)"/>
     <use xlink:href="#DejaVuSans-63" transform="translate(102.587891 0)"/>
     <use xlink:href="#DejaVuSans-68" transform="translate(157.568359 0)"/>
     <use xlink:href="#DejaVuSans-74" transform="translate(220.947266 0)"/>
     <use xlink:href="#DejaVuSans-20" transform="translate(260.15625 0)"/>
     <use xlink:href="#DejaVuSans-65" transform="translate(291.943359 0)"/>
     <use xlink:href="#DejaVuSans-6e" transform="translate(353.466797 0)"/>
     <use xlink:href="#DejaVuSans-74" transform="translate(416.845703 0)"/>
     <use xlink:href="#DejaVuSans-73" transform="translate(456.054688 0)"/>
     <use xlink:href="#DejaVuSans-63" transform="translate(508.154297 0)"/>
     <use xlink:href="#DejaVuSans-68" transform="translate(563.134766 0)"/>
     <use xlink:href="#DejaVuSans-65" transform="translate(626.513672 0)"/>
     <use xlink:href="#DejaVuSans-69" transform="translate(688.037109 0)"/>
     <use xlink:href="#DejaVuSans-64" transform="translate(715.820312 0)"/>
     <use xlink:href="#DejaVuSans-65" transform="translate(779.296875 0)"/>
     <use xlink:href="#DejaVuSans-6e" transform="translate(840.820312 0)"/>
     <use xlink:href="#DejaVuSans-64" transform="translate(904.199219 0)"/>
    </g>
   </g>
   <g id="text_2">
    <!-- 10% -->
    <g transform="translate(610.925252 104.348887) scale(0.08 -0.08)">
     <defs>
      <path id="DejaVuSans-31" d="M 794 531 
L 1825 531 
L 1825 4091 
L 703 3866 
L 703 4441 
L 1819 4666 
L 2450 4666 
L 2450 531 
L 3481 531 
L 3481 0 
L 794 0 
L 794 531 
z
" transform="scale(0.015625)"/>
      <path id="DejaVuSans-30" d="M 2034 4250 
Q 1547 4250 1301 3770 
Q 1056 3291 1056 2328 
Q 1056 1369 1301 889 
Q 1547 409 2034 409 
Q 2525 409 2770 889 
Q 3016 1369 3016 2328 
Q 3016 3291 2770 3770 
Q 2525 4250 2034 4250 
z
M 2034 4750 
Q 2819 4750 3233 4129 
Q 3647 3509 3647 2328 
Q 3647 1150 3233 529 
Q 2819 -91 2034 -91 
Q 1250 -91 836 529 
Q 422 1150 422 2328 
Q 422 3509 836 4129 
Q 1250 4750 2034 4750 
z
" transform="scale(0.015625)"/>
     </defs>
     <use xlink:href="#DejaVuSans-31"/>
     <use xlink:href="#DejaVuSans-30" transform="translate(63.623047 0)"/>
     <use xlink:href="#DejaVuSans-25" transform="translate(127.246094 0)"/>
    </g>
    <!-- Geringer Mehrwert -->
    <g transform="translate(610.925252 113.307137) scale(0.08 -0.08)">
     <defs>
      <path id="DejaVuSans-47" d="M 3809 666 
L 3809 1919 
L 2778 1919 
L 2778 2438 
L 4434 2438 
L 4434 434 
Q 4069 175 3628 42 
Q 3188 -91 2688 -91 
Q 1594 -91 976 548 
Q 359 1188 359 2328 
Q 359 3472 976 4111 
Q 1594 4750 2688 4750 
Q 3144 4750 3555 4637 
Q 3966 4525 4313 4306 
L 4313 3634 
Q 3963 3931 3569 4081 
Q 3175 4231 2741 4231 
Q 1884 4231 1454 3753 
Q 1025 3275 1025 2328 
Q 1025 1384 1454 906 
Q 1884 428 2741 428 
Q 3075 428 3337 486 
Q 3600 544 3809 666 
z
" transform="scale(0.015625)"/>
      <path id="DejaVuSans-72" d="M 2631 2963 
Q 2534 3019 2420 3045 
Q 2306 3072 2169 3072 
Q 1681 3072 1420 2755 
Q 1159 2438 1159 1844 
L 1159 0 
L 581 0 
L 581 3500 
L 1159 3500 
L 1159 2956 
Q 1341 3275 1631 3429 
Q 1922 3584 2338 3584 
Q 2397 3584 2469 3576 
Q 2541 3569 2628 3553 
L 2631 2963 
z
" transform="scale(0.015625)"/>
      <path id="DejaVuSans-67" d="M 2906 1791 
Q 2906 2416 2648 2759 
Q 2391 3103 1925 3103 
Q 1463 3103 1205 2759 
Q 947 2416 947 1791 
Q 947 1169 1205 825 
Q 1463 481 1925 481 
Q 2391 481 2648 825 
Q 2906 1169 2906 1791 
z
M 3481 434 
Q 3481 -459 3084 -895 
Q 2688 -1331 1869 -1331 
Q 1566 -1331 1297 -1286 
Q 1028 -1241 775 -1147 
L 775 -588 
Q 1028 -725 1275 -790 
Q 1522 -856 1778 -856 
Q 2344 -856 2625 -561 
Q 2906 -266 2906 331 
L 2906 616 
Q 2728 306 2450 153 
Q 2172 0 1784 0 
Q 1141 0 747 490 
Q 353 981 353 1791 
Q 353 2603 747 3093 
Q 1141 3584 1784 3584 
Q 2172 3584 2450 3431 
Q 2728 3278 2906 2969 
L 2906 3500 
L 3481 3500 
L 3481 434 
z
" transform="scale(0.015625)"/>
      <path id="DejaVuSans-4d" d="M 628 4666 
L 1569 4666 
L 2759 1491 
L 3956 4666 
L 4897 4666 
L 4897 0 
L 4281 0 
L 4281 4097 
L 3078 897 
L 2444 897 
L 1241 4097 
L 1241 0 
L 628 0 
L 628 4666 
z
" transform="scale(0.015625)"/>
      <path id="DejaVuSans-77" d="M 269 3500 
L 844 3500 
L 1563 769 
L 2278 3500 
L 2956 3500 
L 3675 769 
L 4391 3500 
L 4966 3500 
L 4050 0 
L 3372 0 
L 2619 2869 
L 1863 0 
L 1184 0 
L 269 3500 
z
" transform="scale(0.015625)"/>
     </defs>
     <use xlink:href="#DejaVuSans-47"/>
     <use xlink:href="#DejaVuSans-65" transform="translate(77.490234 0)"/>
     <use xlink:href="#DejaVuSans-72" transform="translate(139.013672 0)"/>
     <use xlink:href="#DejaVuSans-69" transform="translate(180.126953 0)"/>
     <use xlink:href="#DejaVuSans-6e" transform="translate(207.910156 0)"/>
     <use xlink:href="#DejaVuSans-67" transform="translate(271.289062 0)"/>
     <use xlink:href="#DejaVuSans-65" transform="translate(334.765625 0)"/>
     <use xlink:href="#DejaVuSans-72" transform="translate(396.289062 0)"/>
     <use xlink:href="#DejaVuSans-20" transform="translate(437.402344 0)"/>
     <use xlink:href="#DejaVuSans-4d" transform="translate(469.189453 0)"/>
     <use xlink:href="#DejaVuSans-65" transform="translate(555.46875 0)"/>
     <use xlink:href="#DejaVuSans-68" transform="translate(616.992188 0)"/>
     <use xlink:href="#DejaVuSans-72" transform="translate(680.371094 0)"/>
     <use xlink:href="#DejaVuSans-77" transform="translate(721.484375 0)"/>
     <use xlink:href="#DejaVuSans-65" transform="translate(803.271484 0)"/>
     <use xlink:href="#DejaVuSans-72" transform="translate(864.794922 0)"/>
     <use xlink:href="#DejaVuSans-74" transform="translate(905.908203 0)"/>
    </g>
   </g>
   <g id="text_3">
    <!-- 14% -->
    <g transform="translate(680.622679 240.62361) scale(0.08 -0.08)">
     <defs>
      <path id="DejaVuSans-34" d="M 2419 4116 
L 825 1625 
L 2419 1625 
L 2419 4116 
z
M 2253 4666 
L 3047 4666 
L 3047 1625 
L 3713 1625 
L 3713 1100 
L 3047 1100 
L 3047 0 
L 2419 0 
L 2419 1100 
L 313 1100 
L 313 1709 
L 2253 4666 
z
" transform="scale(0.015625)"/>
     </defs>
     <use xlink:href="#DejaVuSans-31"/>
     <use xlink:href="#DejaVuSans-34" transform="translate(63.623047 0)"/>
     <use xlink:href="#DejaVuSans-25" transform="translate(127.246094 0)"/>
    </g>
    <!-- Mittlerer Mehrwert -->
    <g transform="translate(680.622679 249.58186) scale(0.08 -0.08)">
     <defs>
      <path id="DejaVuSans-6c" d="M 603 4863 
L 1178 4863 
L 1178 0 
L 603 0 
L 603 4863 
z
" transform="scale(0.015625)"/>
     </defs>
     <use xlink:href="#DejaVuSans-4d"/>
     <use xlink:href="#DejaVuSans-69" transform="translate(86.279297 0)"/>
     <use xlink:href="#DejaVuSans-74" transform="translate(114.0625 0)"/>
     <use xlink:href="#DejaVuSans-74" transform="translate(153.271484 0)"/>
     <use xlink:href="#DejaVuSans-6c" transform="translate(192.480469 0)"/>
     <use xlink:href="#DejaVuSans-65" transform="translate(220.263672 0)"/>
     <use xlink:href="#DejaVuSans-72" transform="translate(281.787109 0)"/>
     <use xlink:href="#DejaVuSans-65" transform="translate(320.650391 0)"/>
     <use xlink:href="#DejaVuSans-72" transform="translate(382.173828 0)"/>
     <use xlink:href="#DejaVuSans-20" transform="translate(423.287109 0)"/>
     <use xlink:href="#DejaVuSans-4d" transform="translate(455.074219 0)"/>
     <use xlink:href="#DejaVuSans-65" transform="translate(541.353516 0)"/>
     <use xlink:href="#DejaVuSans-68" transform="translate(602.876953 0)"/>
     <use xlink:href="#DejaVuSans-72" transform="translate(666.255859 0)"/>
     <use xlink:href="#DejaVuSans-77" transform="translate(707.369141 0)"/>
     <use xlink:href="#DejaVuSans-65" transform="translate(789.15625 0)"/>
     <use xlink:href="#DejaVuSans-72" transform="translate(850.679688 0)"/>
     <use xlink:href="#DejaVuSans-74" transform="translate(891.792969 0)"/>
    </g>
   </g>
   <g id="text_4">
    <!-- 24% -->
    <g transform="translate(568.263828 452.285869) scale(0.08 -0.08)">
     <defs>
      <path id="DejaVuSans-32" d="M 1228 531 
L 3431 531 
L 3431 0 
L 469 0 
L 469 531 
Q 828 903 1448 1529 
Q 2069 2156 2228 2338 
Q 2531 2678 2651 2914 
Q 2772 3150 2772 3378 
Q 2772 3750 2511 3984 
Q 2250 4219 1831 4219 
Q 1534 4219 1204 4116 
Q 875 4013 500 3803 
L 500 4441 
Q 881 4594 1212 4672 
Q 1544 4750 1819 4750 
Q 2544 4750 2975 4387 
Q 3406 4025 3406 3419 
Q 3406 3131 3298 2873 
Q 3191 2616 2906 2266 
Q 2828 2175 2409 1742 
Q 1991 1309 1228 531 
z
" transform="scale(0.015625)"/>
     </defs>
     <use xlink:href="#DejaVuSans-32"/>
     <use xlink:href="#DejaVuSans-34" transform="translate(63.623047 0)"/>
     <use xlink:href="#DejaVuSans-25" transform="translate(127.246094 0)"/>
    </g>
    <!-- Hoher Mehrwert -->
    <g transform="translate(568.263828 461.244119) scale(0.08 -0.08)">
     <defs>
      <path id="DejaVuSans-48" d="M 628 4666 
L 1259 4666 
L 1259 2753 
L 3553 2753 
L 3553 4666 
L 4184 4666 
L 4184 0 
L 3553 0 
L 3553 2222 
L 1259 2222 
L 1259 0 
L 628 0 
L 628 4666 
z
" transform="scale(0.015625)"/>
      <path id="DejaVuSans-6f" d="M 1959 3097 
Q 1497 3097 1228 2736 
Q 959 2375 959 1747 
Q 959 1119 1226 758 
Q 1494 397 1959 397 
Q 2419 397 2687 759 
Q 2956 1122 2956 1747 
Q 2956 2369 2687 2733 
Q 2419 3097 1959 3097 
z
M 1959 3584 
Q 2709 3584 3137 3096 
Q 3566 2609 3566 1747 
Q 3566 888 3137 398 
Q 2709 -91 1959 -91 
Q 1206 -91 779 398 
Q 353 888 353 1747 
Q 353 2609 779 3096 
Q 1206 3584 1959 3584 
z
" transform="scale(0.015625)"/>
     </defs>
     <use xlink:href="#DejaVuSans-48"/>
     <use xlink:href="#DejaVuSans-6f" transform="translate(75.195312 0)"/>
     <use xlink:href="#DejaVuSans-68" transform="translate(136.376953 0)"/>
     <use xlink:href="#DejaVuSans-65" transform="translate(199.755859 0)"/>
     <use xlink:href="#DejaVuSans-72" transform="translate(261.279297 0)"/>
     <use xlink:href="#DejaVuSans-20" transform="translate(302.392578 0)"/>
     <use xlink:href="#DejaVuSans-4d" transform="translate(334.179688 0)"/>
     <use xlink:href="#DejaVuSans-65" transform="translate(420.458984 0)"/>
     <use xlink:href="#DejaVuSans-68" transform="translate(481.982422 0)"/>
     <use xlink:href="#DejaVuSans-72" transform="translate(545.361328 0)"/>
     <use xlink:href="#DejaVuSans-77" transform="translate(586.474609 0)"/>
     <use xlink:href="#DejaVuSans-65" transform="translate(668.261719 0)"/>
     <use xlink:href="#DejaVuSans-72" transform="translate(729.785156 0)"/>
     <use xlink:href="#DejaVuSans-74" transform="translate(770.898438 0)"/>
    </g>
   </g>
   <g id="text_5">
    <!-- 25% -->
    <g transform="translate(262.892234 366.540918) scale(0.08 -0.08)">
     <defs>
      <path id="DejaVuSans-35" d="M 691 4666 
L 3169 4666 
L 3169 4134 
L 1269 4134 
L 1269 2991 
Q 1406 3038 1543 3061 
Q 1681 3084 1819 3084 
Q 2600 3084 3056 2656 
Q 3513 2228 3513 1497 
Q 3513 744 3044 326 
Q 2575 -91 1722 -91 
Q 1428 -91 1123 -41 
Q 819 9 494 109 
L 494 744 
Q 775 591 1075 516 
Q 1375 441 1709 441 
Q 2250 441 2565 725 
Q 2881 1009 2881 1497 
Q 2881 1984 2565 2268 
Q 2250 2553 1709 2553 
Q 1456 2553 1204 2497 
Q 953 2441 691 2322 
L 691 4666 
z
" transform="scale(0.015625)"/>
     </defs>
     <use xlink:href="#DejaVuSans-32"/>
     <use xlink:href="#DejaVuSans-35" transform="translate(63.623047 0)"/>
     <use xlink:href="#DejaVuSans-25" transform="translate(127.246094 0)"/>
    </g>
    <!-- Sehr hoher Mehrwert -->
    <g transform="translate(195.908484 375.499168) scale(0.08 -0.08)">
     <defs>
      <path id="DejaVuSans-53" d="M 3425 4513 
L 3425 3897 
Q 3066 4069 2747 4153 
Q 2428 4238 2131 4238 
Q 1616 4238 1336 4038 
Q 1056 3838 1056 3469 
Q 1056 3159 1242 3001 
Q 1428 2844 1947 2747 
L 2328 2669 
Q 3034 2534 3370 2195 
Q 3706 1856 3706 1288 
Q 3706 609 3251 259 
Q 2797 -91 1919 -91 
Q 1588 -91 1214 -16 
Q 841 59 441 206 
L 441 856 
Q 825 641 1194 531 
Q 1563 422 1919 422 
Q 2459 422 2753 634 
Q 3047 847 3047 1241 
Q 3047 1584 2836 1778 
Q 2625 1972 2144 2069 
L 1759 2144 
Q 1053 2284 737 2584 
Q 422 2884 422 3419 
Q 422 4038 858 4394 
Q 1294 4750 2059 4750 
Q 2388 4750 2728 4690 
Q 3069 4631 3425 4513 
z
" transform="scale(0.015625)"/>
     </defs>
     <use xlink:href="#DejaVuSans-53"/>
     <use xlink:href="#DejaVuSans-65" transform="translate(63.476562 0)"/>
     <use xlink:href="#DejaVuSans-68" transform="translate(125 0)"/>
     <use xlink:href="#DejaVuSans-72" transform="translate(188.378906 0)"/>
     <use xlink:href="#DejaVuSans-20" transform="translate(229.492188 0)"/>
     <use xlink:href="#DejaVuSans-68" transform="translate(261.279297 0)"/>
     <use xlink:href="#DejaVuSans-6f" transform="translate(324.658203 0)"/>
     <use xlink:href="#DejaVuSans-68" transform="translate(385.839844 0)"/>
     <use xlink:href="#DejaVuSans-65" transform="translate(449.21875 0)"/>
     <use xlink:href="#DejaVuSans-72" transform="translate(510.742188 0)"/>
     <use xlink:href="#DejaVuSans-20" transform="translate(551.855469 0)"/>
     <use xlink:href="#DejaVuSans-4d" transform="translate(583.642578 0)"/>
     <use xlink:href="#DejaVuSans-65" transform="translate(669.921875 0)"/>
     <use xlink:href="#DejaVuSans-68" transform="translate(731.445312 0)"/>
     <use xlink:href="#DejaVuSans-72" transform="translate(794.824219 0)"/>
     <use xlink:href="#DejaVuSans-77" transform="translate(835.9375 0)"/>
     <use xlink:href="#DejaVuSans-65" transform="translate(917.724609 0)"/>
     <use xlink:href="#DejaVuSans-72" transform="translate(979.248047 0)"/>
     <use xlink:href="#DejaVuSans-74" transform="translate(1020.361328 0)"/>
    </g>
   </g>
   <g id="text_6">
    <!-- 20% -->
    <g transform="translate(322.425441 91.95453) scale(0.08 -0.08)">
     <use xlink:href="#DejaVuSans-32"/>
     <use xlink:href="#DejaVuSans-30" transform="translate(63.623047 0)"/>
     <use xlink:href="#DejaVuSans-25" transform="translate(127.246094 0)"/>
    </g>
    <!-- Keine Antwort -->
    <g transform="translate(284.139191 100.91278) scale(0.08 -0.08)">
     <defs>
      <path id="DejaVuSans-4b" d="M 628 4666 
L 1259 4666 
L 1259 2694 
L 3353 4666 
L 4166 4666 
L 1850 2491 
L 4331 0 
L 3500 0 
L 1259 2247 
L 1259 0 
L 628 0 
L 628 4666 
z
" transform="scale(0.015625)"/>
      <path id="DejaVuSans-41" d="M 2188 4044 
L 1331 1722 
L 3047 1722 
L 2188 4044 
z
M 1831 4666 
L 2547 4666 
L 4325 0 
L 3669 0 
L 3244 1197 
L 1141 1197 
L 716 0 
L 50 0 
L 1831 4666 
z
" transform="scale(0.015625)"/>
     </defs>
     <use xlink:href="#DejaVuSans-4b"/>
     <use xlink:href="#DejaVuSans-65" transform="translate(60.576172 0)"/>
     <use xlink:href="#DejaVuSans-69" transform="translate(122.099609 0)"/>
     <use xlink:href="#DejaVuSans-6e" transform="translate(149.882812 0)"/>
     <use xlink:href="#DejaVuSans-65" transform="translate(213.261719 0)"/>
     <use xlink:href="#DejaVuSans-20" transform="translate(274.785156 0)"/>
     <use xlink:href="#DejaVuSans-41" transform="translate(306.572266 0)"/>
     <use xlink:href="#DejaVuSans-6e" transform="translate(374.980469 0)"/>
     <use xlink:href="#DejaVuSans-74" transform="translate(438.359375 0)"/>
     <use xlink:href="#DejaVuSans-77" transform="translate(477.568359 0)"/>
     <use xlink:href="#DejaVuSans-6f" transform="translate(559.355469 0)"/>
     <use xlink:href="#DejaVuSans-72" transform="translate(620.537109 0)"/>
     <use xlink:href="#DejaVuSans-74" transform="translate(661.650391 0)"/>
    </g>
   </g>
  </g>
  <g id="text_7">
   <!-- Künstliche Intelligenz und Datenanalyse (z.B. Zustandsüberwachung, datengetriebene Entscheidungsfindung, ...) -->
   <g transform="translate(127.420313 22.078125) scale(0.12 -0.12)">
    <defs>
     <path id="DejaVuSans-fc" d="M 544 1381 
L 544 3500 
L 1119 3500 
L 1119 1403 
Q 1119 906 1312 657 
Q 1506 409 1894 409 
Q 2359 409 2629 706 
Q 2900 1003 2900 1516 
L 2900 3500 
L 3475 3500 
L 3475 0 
L 2900 0 
L 2900 538 
Q 2691 219 2414 64 
Q 2138 -91 1772 -91 
Q 1169 -91 856 284 
Q 544 659 544 1381 
z
M 1991 3584 
L 1991 3584 
z
M 2278 4850 
L 2912 4850 
L 2912 4219 
L 2278 4219 
L 2278 4850 
z
M 1056 4850 
L 1690 4850 
L 1690 4219 
L 1056 4219 
L 1056 4850 
z
" transform="scale(0.015625)"/>
     <path id="DejaVuSans-49" d="M 628 4666 
L 1259 4666 
L 1259 0 
L 628 0 
L 628 4666 
z
" transform="scale(0.015625)"/>
     <path id="DejaVuSans-7a" d="M 353 3500 
L 3084 3500 
L 3084 2975 
L 922 459 
L 3084 459 
L 3084 0 
L 275 0 
L 275 525 
L 2438 3041 
L 353 3041 
L 353 3500 
z
" transform="scale(0.015625)"/>
     <path id="DejaVuSans-75" d="M 544 1381 
L 544 3500 
L 1119 3500 
L 1119 1403 
Q 1119 906 1312 657 
Q 1506 409 1894 409 
Q 2359 409 2629 706 
Q 2900 1003 2900 1516 
L 2900 3500 
L 3475 3500 
L 3475 0 
L 2900 0 
L 2900 538 
Q 2691 219 2414 64 
Q 2138 -91 1772 -91 
Q 1169 -91 856 284 
Q 544 659 544 1381 
z
M 1991 3584 
L 1991 3584 
z
" transform="scale(0.015625)"/>
     <path id="DejaVuSans-44" d="M 1259 4147 
L 1259 519 
L 2022 519 
Q 2988 519 3436 956 
Q 3884 1394 3884 2338 
Q 3884 3275 3436 3711 
Q 2988 4147 2022 4147 
L 1259 4147 
z
M 628 4666 
L 1925 4666 
Q 3281 4666 3915 4102 
Q 4550 3538 4550 2338 
Q 4550 1131 3912 565 
Q 3275 0 1925 0 
L 628 0 
L 628 4666 
z
" transform="scale(0.015625)"/>
     <path id="DejaVuSans-61" d="M 2194 1759 
Q 1497 1759 1228 1600 
Q 959 1441 959 1056 
Q 959 750 1161 570 
Q 1363 391 1709 391 
Q 2188 391 2477 730 
Q 2766 1069 2766 1631 
L 2766 1759 
L 2194 1759 
z
M 3341 1997 
L 3341 0 
L 2766 0 
L 2766 531 
Q 2569 213 2275 61 
Q 1981 -91 1556 -91 
Q 1019 -91 701 211 
Q 384 513 384 1019 
Q 384 1609 779 1909 
Q 1175 2209 1959 2209 
L 2766 2209 
L 2766 2266 
Q 2766 2663 2505 2880 
Q 2244 3097 1772 3097 
Q 1472 3097 1187 3025 
Q 903 2953 641 2809 
L 641 3341 
Q 956 3463 1253 3523 
Q 1550 3584 1831 3584 
Q 2591 3584 2966 3190 
Q 3341 2797 3341 1997 
z
" transform="scale(0.015625)"/>
     <path id="DejaVuSans-79" d="M 2059 -325 
Q 1816 -950 1584 -1140 
Q 1353 -1331 966 -1331 
L 506 -1331 
L 506 -850 
L 844 -850 
Q 1081 -850 1212 -737 
Q 1344 -625 1503 -206 
L 1606 56 
L 191 3500 
L 800 3500 
L 1894 763 
L 2988 3500 
L 3597 3500 
L 2059 -325 
z
" transform="scale(0.015625)"/>
     <path id="DejaVuSans-28" d="M 1984 4856 
Q 1566 4138 1362 3434 
Q 1159 2731 1159 2009 
Q 1159 1288 1364 580 
Q 1569 -128 1984 -844 
L 1484 -844 
Q 1016 -109 783 600 
Q 550 1309 550 2009 
Q 550 2706 781 3412 
Q 1013 4119 1484 4856 
L 1984 4856 
z
" transform="scale(0.015625)"/>
     <path id="DejaVuSans-2e" d="M 684 794 
L 1344 794 
L 1344 0 
L 684 0 
L 684 794 
z
" transform="scale(0.015625)"/>
     <path id="DejaVuSans-42" d="M 1259 2228 
L 1259 519 
L 2272 519 
Q 2781 519 3026 730 
Q 3272 941 3272 1375 
Q 3272 1813 3026 2020 
Q 2781 2228 2272 2228 
L 1259 2228 
z
M 1259 4147 
L 1259 2741 
L 2194 2741 
Q 2656 2741 2882 2914 
Q 3109 3088 3109 3444 
Q 3109 3797 2882 3972 
Q 2656 4147 2194 4147 
L 1259 4147 
z
M 628 4666 
L 2241 4666 
Q 2963 4666 3353 4366 
Q 3744 4066 3744 3513 
Q 3744 3084 3544 2831 
Q 3344 2578 2956 2516 
Q 3422 2416 3680 2098 
Q 3938 1781 3938 1306 
Q 3938 681 3513 340 
Q 3088 0 2303 0 
L 628 0 
L 628 4666 
z
" transform="scale(0.015625)"/>
     <path id="DejaVuSans-5a" d="M 359 4666 
L 4025 4666 
L 4025 4184 
L 1075 531 
L 4097 531 
L 4097 0 
L 288 0 
L 288 481 
L 3238 4134 
L 359 4134 
L 359 4666 
z
" transform="scale(0.015625)"/>
     <path id="DejaVuSans-62" d="M 3116 1747 
Q 3116 2381 2855 2742 
Q 2594 3103 2138 3103 
Q 1681 3103 1420 2742 
Q 1159 2381 1159 1747 
Q 1159 1113 1420 752 
Q 1681 391 2138 391 
Q 2594 391 2855 752 
Q 3116 1113 3116 1747 
z
M 1159 2969 
Q 1341 3281 1617 3432 
Q 1894 3584 2278 3584 
Q 2916 3584 3314 3078 
Q 3713 2572 3713 1747 
Q 3713 922 3314 415 
Q 2916 -91 2278 -91 
Q 1894 -91 1617 61 
Q 1341 213 1159 525 
L 1159 0 
L 581 0 
L 581 4863 
L 1159 4863 
L 1159 2969 
z
" transform="scale(0.015625)"/>
     <path id="DejaVuSans-2c" d="M 750 794 
L 1409 794 
L 1409 256 
L 897 -744 
L 494 -744 
L 750 256 
L 750 794 
z
" transform="scale(0.015625)"/>
     <path id="DejaVuSans-45" d="M 628 4666 
L 3578 4666 
L 3578 4134 
L 1259 4134 
L 1259 2753 
L 3481 2753 
L 3481 2222 
L 1259 2222 
L 1259 531 
L 3634 531 
L 3634 0 
L 628 0 
L 628 4666 
z
" transform="scale(0.015625)"/>
     <path id="DejaVuSans-66" d="M 2375 4863 
L 2375 4384 
L 1825 4384 
Q 1516 4384 1395 4259 
Q 1275 4134 1275 3809 
L 1275 3500 
L 2222 3500 
L 2222 3053 
L 1275 3053 
L 1275 0 
L 697 0 
L 697 3053 
L 147 3053 
L 147 3500 
L 697 3500 
L 697 3744 
Q 697 4328 969 4595 
Q 1241 4863 1831 4863 
L 2375 4863 
z
" transform="scale(0.015625)"/>
     <path id="DejaVuSans-29" d="M 513 4856 
L 1013 4856 
Q 1481 4119 1714 3412 
Q 1947 2706 1947 2009 
Q 1947 1309 1714 600 
Q 1481 -109 1013 -844 
L 513 -844 
Q 928 -128 1133 580 
Q 1338 1288 1338 2009 
Q 1338 2731 1133 3434 
Q 928 4138 513 4856 
z
" transform="scale(0.015625)"/>
    </defs>
    <use xlink:href="#DejaVuSans-4b"/>
    <use xlink:href="#DejaVuSans-fc" transform="translate(60.576172 0)"/>
    <use xlink:href="#DejaVuSans-6e" transform="translate(123.955078 0)"/>
    <use xlink:href="#DejaVuSans-73" transform="translate(187.333984 0)"/>
    <use xlink:href="#DejaVuSans-74" transform="translate(239.433594 0)"/>
    <use xlink:href="#DejaVuSans-6c" transform="translate(278.642578 0)"/>
    <use xlink:href="#DejaVuSans-69" transform="translate(306.425781 0)"/>
    <use xlink:href="#DejaVuSans-63" transform="translate(334.208984 0)"/>
    <use xlink:href="#DejaVuSans-68" transform="translate(389.189453 0)"/>
    <use xlink:href="#DejaVuSans-65" transform="translate(452.568359 0)"/>
    <use xlink:href="#DejaVuSans-20" transform="translate(514.091797 0)"/>
    <use xlink:href="#DejaVuSans-49" transform="translate(545.878906 0)"/>
    <use xlink:href="#DejaVuSans-6e" transform="translate(575.371094 0)"/>
    <use xlink:href="#DejaVuSans-74" transform="translate(638.75 0)"/>
    <use xlink:href="#DejaVuSans-65" transform="translate(677.958984 0)"/>
    <use xlink:href="#DejaVuSans-6c" transform="translate(739.482422 0)"/>
    <use xlink:href="#DejaVuSans-6c" transform="translate(767.265625 0)"/>
    <use xlink:href="#DejaVuSans-69" transform="translate(795.048828 0)"/>
    <use xlink:href="#DejaVuSans-67" transform="translate(822.832031 0)"/>
    <use xlink:href="#DejaVuSans-65" transform="translate(886.308594 0)"/>
    <use xlink:href="#DejaVuSans-6e" transform="translate(947.832031 0)"/>
    <use xlink:href="#DejaVuSans-7a" transform="translate(1011.210938 0)"/>
    <use xlink:href="#DejaVuSans-20" transform="translate(1063.701172 0)"/>
    <use xlink:href="#DejaVuSans-75" transform="translate(1095.488281 0)"/>
    <use xlink:href="#DejaVuSans-6e" transform="translate(1158.867188 0)"/>
    <use xlink:href="#DejaVuSans-64" transform="translate(1222.246094 0)"/>
    <use xlink:href="#DejaVuSans-20" transform="translate(1285.722656 0)"/>
    <use xlink:href="#DejaVuSans-44" transform="translate(1317.509766 0)"/>
    <use xlink:href="#DejaVuSans-61" transform="translate(1394.511719 0)"/>
    <use xlink:href="#DejaVuSans-74" transform="translate(1455.791016 0)"/>
    <use xlink:href="#DejaVuSans-65" transform="translate(1495 0)"/>
    <use xlink:href="#DejaVuSans-6e" transform="translate(1556.523438 0)"/>
    <use xlink:href="#DejaVuSans-61" transform="translate(1619.902344 0)"/>
    <use xlink:href="#DejaVuSans-6e" transform="translate(1681.181641 0)"/>
    <use xlink:href="#DejaVuSans-61" transform="translate(1744.560547 0)"/>
    <use xlink:href="#DejaVuSans-6c" transform="translate(1805.839844 0)"/>
    <use xlink:href="#DejaVuSans-79" transform="translate(1833.623047 0)"/>
    <use xlink:href="#DejaVuSans-73" transform="translate(1892.802734 0)"/>
    <use xlink:href="#DejaVuSans-65" transform="translate(1944.902344 0)"/>
    <use xlink:href="#DejaVuSans-20" transform="translate(2006.425781 0)"/>
    <use xlink:href="#DejaVuSans-28" transform="translate(2038.212891 0)"/>
    <use xlink:href="#DejaVuSans-7a" transform="translate(2077.226562 0)"/>
    <use xlink:href="#DejaVuSans-2e" transform="translate(2129.716797 0)"/>
    <use xlink:href="#DejaVuSans-42" transform="translate(2161.503906 0)"/>
    <use xlink:href="#DejaVuSans-2e" transform="translate(2230.107422 0)"/>
    <use xlink:href="#DejaVuSans-20" transform="translate(2261.894531 0)"/>
    <use xlink:href="#DejaVuSans-5a" transform="translate(2293.681641 0)"/>
    <use xlink:href="#DejaVuSans-75" transform="translate(2362.1875 0)"/>
    <use xlink:href="#DejaVuSans-73" transform="translate(2425.566406 0)"/>
    <use xlink:href="#DejaVuSans-74" transform="translate(2477.666016 0)"/>
    <use xlink:href="#DejaVuSans-61" transform="translate(2516.875 0)"/>
    <use xlink:href="#DejaVuSans-6e" transform="translate(2578.154297 0)"/>
    <use xlink:href="#DejaVuSans-64" transform="translate(2641.533203 0)"/>
    <use xlink:href="#DejaVuSans-73" transform="translate(2705.009766 0)"/>
    <use xlink:href="#DejaVuSans-fc" transform="translate(2757.109375 0)"/>
    <use xlink:href="#DejaVuSans-62" transform="translate(2820.488281 0)"/>
    <use xlink:href="#DejaVuSans-65" transform="translate(2883.964844 0)"/>
    <use xlink:href="#DejaVuSans-72" transform="translate(2945.488281 0)"/>
    <use xlink:href="#DejaVuSans-77" transform="translate(2986.601562 0)"/>
    <use xlink:href="#DejaVuSans-61" transform="translate(3068.388672 0)"/>
    <use xlink:href="#DejaVuSans-63" transform="translate(3129.667969 0)"/>
    <use xlink:href="#DejaVuSans-68" transform="translate(3184.648438 0)"/>
    <use xlink:href="#DejaVuSans-75" transform="translate(3248.027344 0)"/>
    <use xlink:href="#DejaVuSans-6e" transform="translate(3311.40625 0)"/>
    <use xlink:href="#DejaVuSans-67" transform="translate(3374.785156 0)"/>
    <use xlink:href="#DejaVuSans-2c" transform="translate(3438.261719 0)"/>
    <use xlink:href="#DejaVuSans-20" transform="translate(3470.048828 0)"/>
    <use xlink:href="#DejaVuSans-64" transform="translate(3501.835938 0)"/>
    <use xlink:href="#DejaVuSans-61" transform="translate(3565.3125 0)"/>
    <use xlink:href="#DejaVuSans-74" transform="translate(3626.591797 0)"/>
    <use xlink:href="#DejaVuSans-65" transform="translate(3665.800781 0)"/>
    <use xlink:href="#DejaVuSans-6e" transform="translate(3727.324219 0)"/>
    <use xlink:href="#DejaVuSans-67" transform="translate(3790.703125 0)"/>
    <use xlink:href="#DejaVuSans-65" transform="translate(3854.179688 0)"/>
    <use xlink:href="#DejaVuSans-74" transform="translate(3915.703125 0)"/>
    <use xlink:href="#DejaVuSans-72" transform="translate(3954.912109 0)"/>
    <use xlink:href="#DejaVuSans-69" transform="translate(3996.025391 0)"/>
    <use xlink:href="#DejaVuSans-65" transform="translate(4023.808594 0)"/>
    <use xlink:href="#DejaVuSans-62" transform="translate(4085.332031 0)"/>
    <use xlink:href="#DejaVuSans-65" transform="translate(4148.808594 0)"/>
    <use xlink:href="#DejaVuSans-6e" transform="translate(4210.332031 0)"/>
    <use xlink:href="#DejaVuSans-65" transform="translate(4273.710938 0)"/>
    <use xlink:href="#DejaVuSans-20" transform="translate(4335.234375 0)"/>
    <use xlink:href="#DejaVuSans-45" transform="translate(4367.021484 0)"/>
    <use xlink:href="#DejaVuSans-6e" transform="translate(4430.205078 0)"/>
    <use xlink:href="#DejaVuSans-74" transform="translate(4493.583984 0)"/>
    <use xlink:href="#DejaVuSans-73" transform="translate(4532.792969 0)"/>
    <use xlink:href="#DejaVuSans-63" transform="translate(4584.892578 0)"/>
    <use xlink:href="#DejaVuSans-68" transform="translate(4639.873047 0)"/>
    <use xlink:href="#DejaVuSans-65" transform="translate(4703.251953 0)"/>
    <use xlink:href="#DejaVuSans-69" transform="translate(4764.775391 0)"/>
    <use xlink:href="#DejaVuSans-64" transform="translate(4792.558594 0)"/>
    <use xlink:href="#DejaVuSans-75" transform="translate(4856.035156 0)"/>
    <use xlink:href="#DejaVuSans-6e" transform="translate(4919.414062 0)"/>
    <use xlink:href="#DejaVuSans-67" transform="translate(4982.792969 0)"/>
    <use xlink:href="#DejaVuSans-73" transform="translate(5046.269531 0)"/>
    <use xlink:href="#DejaVuSans-66" transform="translate(5098.369141 0)"/>
    <use xlink:href="#DejaVuSans-69" transform="translate(5133.574219 0)"/>
    <use xlink:href="#DejaVuSans-6e" transform="translate(5161.357422 0)"/>
    <use xlink:href="#DejaVuSans-64" transform="translate(5224.736328 0)"/>
    <use xlink:href="#DejaVuSans-75" transform="translate(5288.212891 0)"/>
    <use xlink:href="#DejaVuSans-6e" transform="translate(5351.591797 0)"/>
    <use xlink:href="#DejaVuSans-67" transform="translate(5414.970703 0)"/>
    <use xlink:href="#DejaVuSans-2c" transform="translate(5478.447266 0)"/>
    <use xlink:href="#DejaVuSans-20" transform="translate(5510.234375 0)"/>
    <use xlink:href="#DejaVuSans-2e" transform="translate(5542.021484 0)"/>
    <use xlink:href="#DejaVuSans-2e" transform="translate(5573.808594 0)"/>
    <use xlink:href="#DejaVuSans-2e" transform="translate(5605.595703 0)"/>
    <use xlink:href="#DejaVuSans-29" transform="translate(5637.382812 0)"/>
   </g>
  </g>
  <g id="text_8">
   <!-- Abbildung 31f: Welche der nachfolgenden Industrie 4.0 - Technologien generieren -->
   <g transform="translate(243.058594 546.467047) scale(0.11 -0.11)">
    <defs>
     <path id="DejaVuSans-33" d="M 2597 2516 
Q 3050 2419 3304 2112 
Q 3559 1806 3559 1356 
Q 3559 666 3084 287 
Q 2609 -91 1734 -91 
Q 1441 -91 1130 -33 
Q 819 25 488 141 
L 488 750 
Q 750 597 1062 519 
Q 1375 441 1716 441 
Q 2309 441 2620 675 
Q 2931 909 2931 1356 
Q 2931 1769 2642 2001 
Q 2353 2234 1838 2234 
L 1294 2234 
L 1294 2753 
L 1863 2753 
Q 2328 2753 2575 2939 
Q 2822 3125 2822 3475 
Q 2822 3834 2567 4026 
Q 2313 4219 1838 4219 
Q 1578 4219 1281 4162 
Q 984 4106 628 3988 
L 628 4550 
Q 988 4650 1302 4700 
Q 1616 4750 1894 4750 
Q 2613 4750 3031 4423 
Q 3450 4097 3450 3541 
Q 3450 3153 3228 2886 
Q 3006 2619 2597 2516 
z
" transform="scale(0.015625)"/>
     <path id="DejaVuSans-3a" d="M 750 794 
L 1409 794 
L 1409 0 
L 750 0 
L 750 794 
z
M 750 3309 
L 1409 3309 
L 1409 2516 
L 750 2516 
L 750 3309 
z
" transform="scale(0.015625)"/>
     <path id="DejaVuSans-57" d="M 213 4666 
L 850 4666 
L 1831 722 
L 2809 4666 
L 3519 4666 
L 4500 722 
L 5478 4666 
L 6119 4666 
L 4947 0 
L 4153 0 
L 3169 4050 
L 2175 0 
L 1381 0 
L 213 4666 
z
" transform="scale(0.015625)"/>
     <path id="DejaVuSans-2d" d="M 313 2009 
L 1997 2009 
L 1997 1497 
L 313 1497 
L 313 2009 
z
" transform="scale(0.015625)"/>
     <path id="DejaVuSans-54" d="M -19 4666 
L 3928 4666 
L 3928 4134 
L 2272 4134 
L 2272 0 
L 1638 0 
L 1638 4134 
L -19 4134 
L -19 4666 
z
" transform="scale(0.015625)"/>
    </defs>
    <use xlink:href="#DejaVuSans-41"/>
    <use xlink:href="#DejaVuSans-62" transform="translate(68.408203 0)"/>
    <use xlink:href="#DejaVuSans-62" transform="translate(131.884766 0)"/>
    <use xlink:href="#DejaVuSans-69" transform="translate(195.361328 0)"/>
    <use xlink:href="#DejaVuSans-6c" transform="translate(223.144531 0)"/>
    <use xlink:href="#DejaVuSans-64" transform="translate(250.927734 0)"/>
    <use xlink:href="#DejaVuSans-75" transform="translate(314.404297 0)"/>
    <use xlink:href="#DejaVuSans-6e" transform="translate(377.783203 0)"/>
    <use xlink:href="#DejaVuSans-67" transform="translate(441.162109 0)"/>
    <use xlink:href="#DejaVuSans-20" transform="translate(504.638672 0)"/>
    <use xlink:href="#DejaVuSans-33" transform="translate(536.425781 0)"/>
    <use xlink:href="#DejaVuSans-31" transform="translate(600.048828 0)"/>
    <use xlink:href="#DejaVuSans-66" transform="translate(663.671875 0)"/>
    <use xlink:href="#DejaVuSans-3a" transform="translate(695.251953 0)"/>
    <use xlink:href="#DejaVuSans-20" transform="translate(728.943359 0)"/>
    <use xlink:href="#DejaVuSans-57" transform="translate(760.730469 0)"/>
    <use xlink:href="#DejaVuSans-65" transform="translate(853.732422 0)"/>
    <use xlink:href="#DejaVuSans-6c" transform="translate(915.255859 0)"/>
    <use xlink:href="#DejaVuSans-63" transform="translate(943.039062 0)"/>
    <use xlink:href="#DejaVuSans-68" transform="translate(998.019531 0)"/>
    <use xlink:href="#DejaVuSans-65" transform="translate(1061.398438 0)"/>
    <use xlink:href="#DejaVuSans-20" transform="translate(1122.921875 0)"/>
    <use xlink:href="#DejaVuSans-64" transform="translate(1154.708984 0)"/>
    <use xlink:href="#DejaVuSans-65" transform="translate(1218.185547 0)"/>
    <use xlink:href="#DejaVuSans-72" transform="translate(1279.708984 0)"/>
    <use xlink:href="#DejaVuSans-20" transform="translate(1320.822266 0)"/>
    <use xlink:href="#DejaVuSans-6e" transform="translate(1352.609375 0)"/>
    <use xlink:href="#DejaVuSans-61" transform="translate(1415.988281 0)"/>
    <use xlink:href="#DejaVuSans-63" transform="translate(1477.267578 0)"/>
    <use xlink:href="#DejaVuSans-68" transform="translate(1532.248047 0)"/>
    <use xlink:href="#DejaVuSans-66" transform="translate(1595.626953 0)"/>
    <use xlink:href="#DejaVuSans-6f" transform="translate(1630.832031 0)"/>
    <use xlink:href="#DejaVuSans-6c" transform="translate(1692.013672 0)"/>
    <use xlink:href="#DejaVuSans-67" transform="translate(1719.796875 0)"/>
    <use xlink:href="#DejaVuSans-65" transform="translate(1783.273438 0)"/>
    <use xlink:href="#DejaVuSans-6e" transform="translate(1844.796875 0)"/>
    <use xlink:href="#DejaVuSans-64" transform="translate(1908.175781 0)"/>
    <use xlink:href="#DejaVuSans-65" transform="translate(1971.652344 0)"/>
    <use xlink:href="#DejaVuSans-6e" transform="translate(2033.175781 0)"/>
    <use xlink:href="#DejaVuSans-20" transform="translate(2096.554688 0)"/>
    <use xlink:href="#DejaVuSans-49" transform="translate(2128.341797 0)"/>
    <use xlink:href="#DejaVuSans-6e" transform="translate(2157.833984 0)"/>
    <use xlink:href="#DejaVuSans-64" transform="translate(2221.212891 0)"/>
    <use xlink:href="#DejaVuSans-75" transform="translate(2284.689453 0)"/>
    <use xlink:href="#DejaVuSans-73" transform="translate(2348.068359 0)"/>
    <use xlink:href="#DejaVuSans-74" transform="translate(2400.167969 0)"/>
    <use xlink:href="#DejaVuSans-72" transform="translate(2439.376953 0)"/>
    <use xlink:href="#DejaVuSans-69" transform="translate(2480.490234 0)"/>
    <use xlink:href="#DejaVuSans-65" transform="translate(2508.273438 0)"/>
    <use xlink:href="#DejaVuSans-20" transform="translate(2569.796875 0)"/>
    <use xlink:href="#DejaVuSans-34" transform="translate(2601.583984 0)"/>
    <use xlink:href="#DejaVuSans-2e" transform="translate(2665.207031 0)"/>
    <use xlink:href="#DejaVuSans-30" transform="translate(2696.994141 0)"/>
    <use xlink:href="#DejaVuSans-20" transform="translate(2760.617188 0)"/>
    <use xlink:href="#DejaVuSans-2d" transform="translate(2792.404297 0)"/>
    <use xlink:href="#DejaVuSans-20" transform="translate(2828.488281 0)"/>
    <use xlink:href="#DejaVuSans-54" transform="translate(2860.275391 0)"/>
    <use xlink:href="#DejaVuSans-65" transform="translate(2904.359375 0)"/>
    <use xlink:href="#DejaVuSans-63" transform="translate(2965.882812 0)"/>
    <use xlink:href="#DejaVuSans-68" transform="translate(3020.863281 0)"/>
    <use xlink:href="#DejaVuSans-6e" transform="translate(3084.242188 0)"/>
    <use xlink:href="#DejaVuSans-6f" transform="translate(3147.621094 0)"/>
    <use xlink:href="#DejaVuSans-6c" transform="translate(3208.802734 0)"/>
    <use xlink:href="#DejaVuSans-6f" transform="translate(3236.585938 0)"/>
    <use xlink:href="#DejaVuSans-67" transform="translate(3297.767578 0)"/>
    <use xlink:href="#DejaVuSans-69" transform="translate(3361.244141 0)"/>
    <use xlink:href="#DejaVuSans-65" transform="translate(3389.027344 0)"/>
    <use xlink:href="#DejaVuSans-6e" transform="translate(3450.550781 0)"/>
    <use xlink:href="#DejaVuSans-20" transform="translate(3513.929688 0)"/>
    <use xlink:href="#DejaVuSans-67" transform="translate(3545.716797 0)"/>
    <use xlink:href="#DejaVuSans-65" transform="translate(3609.193359 0)"/>
    <use xlink:href="#DejaVuSans-6e" transform="translate(3670.716797 0)"/>
    <use xlink:href="#DejaVuSans-65" transform="translate(3734.095703 0)"/>
    <use xlink:href="#DejaVuSans-72" transform="translate(3795.619141 0)"/>
    <use xlink:href="#DejaVuSans-69" transform="translate(3836.732422 0)"/>
    <use xlink:href="#DejaVuSans-65" transform="translate(3864.515625 0)"/>
    <use xlink:href="#DejaVuSans-72" transform="translate(3926.039062 0)"/>
    <use xlink:href="#DejaVuSans-65" transform="translate(3964.902344 0)"/>
    <use xlink:href="#DejaVuSans-6e" transform="translate(4026.425781 0)"/>
   </g>
   <!-- für Sie einen Mehrwert bei der Umsetzung zirkulärer Wertschöpfungsprozesse? – -->
   <g transform="translate(245.743281 557.948813) scale(0.11 -0.11)">
    <defs>
     <path id="DejaVuSans-55" d="M 556 4666 
L 1191 4666 
L 1191 1831 
Q 1191 1081 1462 751 
Q 1734 422 2344 422 
Q 2950 422 3222 751 
Q 3494 1081 3494 1831 
L 3494 4666 
L 4128 4666 
L 4128 1753 
Q 4128 841 3676 375 
Q 3225 -91 2344 -91 
Q 1459 -91 1007 375 
Q 556 841 556 1753 
L 556 4666 
z
" transform="scale(0.015625)"/>
     <path id="DejaVuSans-6d" d="M 3328 2828 
Q 3544 3216 3844 3400 
Q 4144 3584 4550 3584 
Q 5097 3584 5394 3201 
Q 5691 2819 5691 2113 
L 5691 0 
L 5113 0 
L 5113 2094 
Q 5113 2597 4934 2840 
Q 4756 3084 4391 3084 
Q 3944 3084 3684 2787 
Q 3425 2491 3425 1978 
L 3425 0 
L 2847 0 
L 2847 2094 
Q 2847 2600 2669 2842 
Q 2491 3084 2119 3084 
Q 1678 3084 1418 2786 
Q 1159 2488 1159 1978 
L 1159 0 
L 581 0 
L 581 3500 
L 1159 3500 
L 1159 2956 
Q 1356 3278 1631 3431 
Q 1906 3584 2284 3584 
Q 2666 3584 2933 3390 
Q 3200 3197 3328 2828 
z
" transform="scale(0.015625)"/>
     <path id="DejaVuSans-6b" d="M 581 4863 
L 1159 4863 
L 1159 1991 
L 2875 3500 
L 3609 3500 
L 1753 1863 
L 3688 0 
L 2938 0 
L 1159 1709 
L 1159 0 
L 581 0 
L 581 4863 
z
" transform="scale(0.015625)"/>
     <path id="DejaVuSans-e4" d="M 2194 1759 
Q 1497 1759 1228 1600 
Q 959 1441 959 1056 
Q 959 750 1161 570 
Q 1363 391 1709 391 
Q 2188 391 2477 730 
Q 2766 1069 2766 1631 
L 2766 1759 
L 2194 1759 
z
M 3341 1997 
L 3341 0 
L 2766 0 
L 2766 531 
Q 2569 213 2275 61 
Q 1981 -91 1556 -91 
Q 1019 -91 701 211 
Q 384 513 384 1019 
Q 384 1609 779 1909 
Q 1175 2209 1959 2209 
L 2766 2209 
L 2766 2266 
Q 2766 2663 2505 2880 
Q 2244 3097 1772 3097 
Q 1472 3097 1187 3025 
Q 903 2953 641 2809 
L 641 3341 
Q 956 3463 1253 3523 
Q 1550 3584 1831 3584 
Q 2591 3584 2966 3190 
Q 3341 2797 3341 1997 
z
M 2150 4850 
L 2784 4850 
L 2784 4219 
L 2150 4219 
L 2150 4850 
z
M 928 4850 
L 1562 4850 
L 1562 4219 
L 928 4219 
L 928 4850 
z
" transform="scale(0.015625)"/>
     <path id="DejaVuSans-f6" d="M 1959 3097 
Q 1497 3097 1228 2736 
Q 959 2375 959 1747 
Q 959 1119 1226 758 
Q 1494 397 1959 397 
Q 2419 397 2687 759 
Q 2956 1122 2956 1747 
Q 2956 2369 2687 2733 
Q 2419 3097 1959 3097 
z
M 1959 3584 
Q 2709 3584 3137 3096 
Q 3566 2609 3566 1747 
Q 3566 888 3137 398 
Q 2709 -91 1959 -91 
Q 1206 -91 779 398 
Q 353 888 353 1747 
Q 353 2609 779 3096 
Q 1206 3584 1959 3584 
z
M 2254 4850 
L 2888 4850 
L 2888 4219 
L 2254 4219 
L 2254 4850 
z
M 1032 4850 
L 1666 4850 
L 1666 4219 
L 1032 4219 
L 1032 4850 
z
" transform="scale(0.015625)"/>
     <path id="DejaVuSans-70" d="M 1159 525 
L 1159 -1331 
L 581 -1331 
L 581 3500 
L 1159 3500 
L 1159 2969 
Q 1341 3281 1617 3432 
Q 1894 3584 2278 3584 
Q 2916 3584 3314 3078 
Q 3713 2572 3713 1747 
Q 3713 922 3314 415 
Q 2916 -91 2278 -91 
Q 1894 -91 1617 61 
Q 1341 213 1159 525 
z
M 3116 1747 
Q 3116 2381 2855 2742 
Q 2594 3103 2138 3103 
Q 1681 3103 1420 2742 
Q 1159 2381 1159 1747 
Q 1159 1113 1420 752 
Q 1681 391 2138 391 
Q 2594 391 2855 752 
Q 3116 1113 3116 1747 
z
" transform="scale(0.015625)"/>
     <path id="DejaVuSans-3f" d="M 1222 794 
L 1856 794 
L 1856 0 
L 1222 0 
L 1222 794 
z
M 1838 1253 
L 1241 1253 
L 1241 1734 
Q 1241 2050 1328 2253 
Q 1416 2456 1697 2725 
L 1978 3003 
Q 2156 3169 2236 3316 
Q 2316 3463 2316 3616 
Q 2316 3894 2111 4066 
Q 1906 4238 1569 4238 
Q 1322 4238 1042 4128 
Q 763 4019 459 3809 
L 459 4397 
Q 753 4575 1054 4662 
Q 1356 4750 1678 4750 
Q 2253 4750 2601 4447 
Q 2950 4144 2950 3647 
Q 2950 3409 2837 3195 
Q 2725 2981 2444 2713 
L 2169 2444 
Q 2022 2297 1961 2214 
Q 1900 2131 1875 2053 
Q 1856 1988 1847 1894 
Q 1838 1800 1838 1638 
L 1838 1253 
z
" transform="scale(0.015625)"/>
     <path id="DejaVuSans-2013" d="M 313 1978 
L 2888 1978 
L 2888 1528 
L 313 1528 
L 313 1978 
z
" transform="scale(0.015625)"/>
    </defs>
    <use xlink:href="#DejaVuSans-66"/>
    <use xlink:href="#DejaVuSans-fc" transform="translate(35.205078 0)"/>
    <use xlink:href="#DejaVuSans-72" transform="translate(98.583984 0)"/>
    <use xlink:href="#DejaVuSans-20" transform="translate(139.697266 0)"/>
    <use xlink:href="#DejaVuSans-53" transform="translate(171.484375 0)"/>
    <use xlink:href="#DejaVuSans-69" transform="translate(234.960938 0)"/>
    <use xlink:href="#DejaVuSans-65" transform="translate(262.744141 0)"/>
    <use xlink:href="#DejaVuSans-20" transform="translate(324.267578 0)"/>
    <use xlink:href="#DejaVuSans-65" transform="translate(356.054688 0)"/>
    <use xlink:href="#DejaVuSans-69" transform="translate(417.578125 0)"/>
    <use xlink:href="#DejaVuSans-6e" transform="translate(445.361328 0)"/>
    <use xlink:href="#DejaVuSans-65" transform="translate(508.740234 0)"/>
    <use xlink:href="#DejaVuSans-6e" transform="translate(570.263672 0)"/>
    <use xlink:href="#DejaVuSans-20" transform="translate(633.642578 0)"/>
    <use xlink:href="#DejaVuSans-4d" transform="translate(665.429688 0)"/>
    <use xlink:href="#DejaVuSans-65" transform="translate(751.708984 0)"/>
    <use xlink:href="#DejaVuSans-68" transform="translate(813.232422 0)"/>
    <use xlink:href="#DejaVuSans-72" transform="translate(876.611328 0)"/>
    <use xlink:href="#DejaVuSans-77" transform="translate(917.724609 0)"/>
    <use xlink:href="#DejaVuSans-65" transform="translate(999.511719 0)"/>
    <use xlink:href="#DejaVuSans-72" transform="translate(1061.035156 0)"/>
    <use xlink:href="#DejaVuSans-74" transform="translate(1102.148438 0)"/>
    <use xlink:href="#DejaVuSans-20" transform="translate(1141.357422 0)"/>
    <use xlink:href="#DejaVuSans-62" transform="translate(1173.144531 0)"/>
    <use xlink:href="#DejaVuSans-65" transform="translate(1236.621094 0)"/>
    <use xlink:href="#DejaVuSans-69" transform="translate(1298.144531 0)"/>
    <use xlink:href="#DejaVuSans-20" transform="translate(1325.927734 0)"/>
    <use xlink:href="#DejaVuSans-64" transform="translate(1357.714844 0)"/>
    <use xlink:href="#DejaVuSans-65" transform="translate(1421.191406 0)"/>
    <use xlink:href="#DejaVuSans-72" transform="translate(1482.714844 0)"/>
    <use xlink:href="#DejaVuSans-20" transform="translate(1523.828125 0)"/>
    <use xlink:href="#DejaVuSans-55" transform="translate(1555.615234 0)"/>
    <use xlink:href="#DejaVuSans-6d" transform="translate(1628.808594 0)"/>
    <use xlink:href="#DejaVuSans-73" transform="translate(1726.220703 0)"/>
    <use xlink:href="#DejaVuSans-65" transform="translate(1778.320312 0)"/>
    <use xlink:href="#DejaVuSans-74" transform="translate(1839.84375 0)"/>
    <use xlink:href="#DejaVuSans-7a" transform="translate(1879.052734 0)"/>
    <use xlink:href="#DejaVuSans-75" transform="translate(1931.542969 0)"/>
    <use xlink:href="#DejaVuSans-6e" transform="translate(1994.921875 0)"/>
    <use xlink:href="#DejaVuSans-67" transform="translate(2058.300781 0)"/>
    <use xlink:href="#DejaVuSans-20" transform="translate(2121.777344 0)"/>
    <use xlink:href="#DejaVuSans-7a" transform="translate(2153.564453 0)"/>
    <use xlink:href="#DejaVuSans-69" transform="translate(2206.054688 0)"/>
    <use xlink:href="#DejaVuSans-72" transform="translate(2233.837891 0)"/>
    <use xlink:href="#DejaVuSans-6b" transform="translate(2274.951172 0)"/>
    <use xlink:href="#DejaVuSans-75" transform="translate(2329.736328 0)"/>
    <use xlink:href="#DejaVuSans-6c" transform="translate(2393.115234 0)"/>
    <use xlink:href="#DejaVuSans-e4" transform="translate(2420.898438 0)"/>
    <use xlink:href="#DejaVuSans-72" transform="translate(2482.177734 0)"/>
    <use xlink:href="#DejaVuSans-65" transform="translate(2521.041016 0)"/>
    <use xlink:href="#DejaVuSans-72" transform="translate(2582.564453 0)"/>
    <use xlink:href="#DejaVuSans-20" transform="translate(2623.677734 0)"/>
    <use xlink:href="#DejaVuSans-57" transform="translate(2655.464844 0)"/>
    <use xlink:href="#DejaVuSans-65" transform="translate(2748.466797 0)"/>
    <use xlink:href="#DejaVuSans-72" transform="translate(2809.990234 0)"/>
    <use xlink:href="#DejaVuSans-74" transform="translate(2851.103516 0)"/>
    <use xlink:href="#DejaVuSans-73" transform="translate(2890.3125 0)"/>
    <use xlink:href="#DejaVuSans-63" transform="translate(2942.412109 0)"/>
    <use xlink:href="#DejaVuSans-68" transform="translate(2997.392578 0)"/>
    <use xlink:href="#DejaVuSans-f6" transform="translate(3060.771484 0)"/>
    <use xlink:href="#DejaVuSans-70" transform="translate(3121.953125 0)"/>
    <use xlink:href="#DejaVuSans-66" transform="translate(3185.429688 0)"/>
    <use xlink:href="#DejaVuSans-75" transform="translate(3220.634766 0)"/>
    <use xlink:href="#DejaVuSans-6e" transform="translate(3284.013672 0)"/>
    <use xlink:href="#DejaVuSans-67" transform="translate(3347.392578 0)"/>
    <use xlink:href="#DejaVuSans-73" transform="translate(3410.869141 0)"/>
    <use xlink:href="#DejaVuSans-70" transform="translate(3462.96875 0)"/>
    <use xlink:href="#DejaVuSans-72" transform="translate(3526.445312 0)"/>
    <use xlink:href="#DejaVuSans-6f" transform="translate(3565.308594 0)"/>
    <use xlink:href="#DejaVuSans-7a" transform="translate(3626.490234 0)"/>
    <use xlink:href="#DejaVuSans-65" transform="translate(3678.980469 0)"/>
    <use xlink:href="#DejaVuSans-73" transform="translate(3740.503906 0)"/>
    <use xlink:href="#DejaVuSans-73" transform="translate(3792.603516 0)"/>
    <use xlink:href="#DejaVuSans-65" transform="translate(3844.703125 0)"/>
    <use xlink:href="#DejaVuSans-3f" transform="translate(3906.226562 0)"/>
    <use xlink:href="#DejaVuSans-20" transform="translate(3959.302734 0)"/>
    <use xlink:href="#DejaVuSans-2013" transform="translate(3991.089844 0)"/>
   </g>
   <!-- Künstliche Intelligenz und Datenanalyse (z.B. Zustandsüberwachung, -->
   <g transform="translate(277.150859 569.430578) scale(0.11 -0.11)">
    <use xlink:href="#DejaVuSans-4b"/>
    <use xlink:href="#DejaVuSans-fc" transform="translate(60.576172 0)"/>
    <use xlink:href="#DejaVuSans-6e" transform="translate(123.955078 0)"/>
    <use xlink:href="#DejaVuSans-73" transform="translate(187.333984 0)"/>
    <use xlink:href="#DejaVuSans-74" transform="translate(239.433594 0)"/>
    <use xlink:href="#DejaVuSans-6c" transform="translate(278.642578 0)"/>
    <use xlink:href="#DejaVuSans-69" transform="translate(306.425781 0)"/>
    <use xlink:href="#DejaVuSans-63" transform="translate(334.208984 0)"/>
    <use xlink:href="#DejaVuSans-68" transform="translate(389.189453 0)"/>
    <use xlink:href="#DejaVuSans-65" transform="translate(452.568359 0)"/>
    <use xlink:href="#DejaVuSans-20" transform="translate(514.091797 0)"/>
    <use xlink:href="#DejaVuSans-49" transform="translate(545.878906 0)"/>
    <use xlink:href="#DejaVuSans-6e" transform="translate(575.371094 0)"/>
    <use xlink:href="#DejaVuSans-74" transform="translate(638.75 0)"/>
    <use xlink:href="#DejaVuSans-65" transform="translate(677.958984 0)"/>
    <use xlink:href="#DejaVuSans-6c" transform="translate(739.482422 0)"/>
    <use xlink:href="#DejaVuSans-6c" transform="translate(767.265625 0)"/>
    <use xlink:href="#DejaVuSans-69" transform="translate(795.048828 0)"/>
    <use xlink:href="#DejaVuSans-67" transform="translate(822.832031 0)"/>
    <use xlink:href="#DejaVuSans-65" transform="translate(886.308594 0)"/>
    <use xlink:href="#DejaVuSans-6e" transform="translate(947.832031 0)"/>
    <use xlink:href="#DejaVuSans-7a" transform="translate(1011.210938 0)"/>
    <use xlink:href="#DejaVuSans-20" transform="translate(1063.701172 0)"/>
    <use xlink:href="#DejaVuSans-75" transform="translate(1095.488281 0)"/>
    <use xlink:href="#DejaVuSans-6e" transform="translate(1158.867188 0)"/>
    <use xlink:href="#DejaVuSans-64" transform="translate(1222.246094 0)"/>
    <use xlink:href="#DejaVuSans-20" transform="translate(1285.722656 0)"/>
    <use xlink:href="#DejaVuSans-44" transform="translate(1317.509766 0)"/>
    <use xlink:href="#DejaVuSans-61" transform="translate(1394.511719 0)"/>
    <use xlink:href="#DejaVuSans-74" transform="translate(1455.791016 0)"/>
    <use xlink:href="#DejaVuSans-65" transform="translate(1495 0)"/>
    <use xlink:href="#DejaVuSans-6e" transform="translate(1556.523438 0)"/>
    <use xlink:href="#DejaVuSans-61" transform="translate(1619.902344 0)"/>
    <use xlink:href="#DejaVuSans-6e" transform="translate(1681.181641 0)"/>
    <use xlink:href="#DejaVuSans-61" transform="translate(1744.560547 0)"/>
    <use xlink:href="#DejaVuSans-6c" transform="translate(1805.839844 0)"/>
    <use xlink:href="#DejaVuSans-79" transform="translate(1833.623047 0)"/>
    <use xlink:href="#DejaVuSans-73" transform="translate(1892.802734 0)"/>
    <use xlink:href="#DejaVuSans-65" transform="translate(1944.902344 0)"/>
    <use xlink:href="#DejaVuSans-20" transform="translate(2006.425781 0)"/>
    <use xlink:href="#DejaVuSans-28" transform="translate(2038.212891 0)"/>
    <use xlink:href="#DejaVuSans-7a" transform="translate(2077.226562 0)"/>
    <use xlink:href="#DejaVuSans-2e" transform="translate(2129.716797 0)"/>
    <use xlink:href="#DejaVuSans-42" transform="translate(2161.503906 0)"/>
    <use xlink:href="#DejaVuSans-2e" transform="translate(2230.107422 0)"/>
    <use xlink:href="#DejaVuSans-20" transform="translate(2261.894531 0)"/>
    <use xlink:href="#DejaVuSans-5a" transform="translate(2293.681641 0)"/>
    <use xlink:href="#DejaVuSans-75" transform="translate(2362.1875 0)"/>
    <use xlink:href="#DejaVuSans-73" transform="translate(2425.566406 0)"/>
    <use xlink:href="#DejaVuSans-74" transform="translate(2477.666016 0)"/>
    <use xlink:href="#DejaVuSans-61" transform="translate(2516.875 0)"/>
    <use xlink:href="#DejaVuSans-6e" transform="translate(2578.154297 0)"/>
    <use xlink:href="#DejaVuSans-64" transform="translate(2641.533203 0)"/>
    <use xlink:href="#DejaVuSans-73" transform="translate(2705.009766 0)"/>
    <use xlink:href="#DejaVuSans-fc" transform="translate(2757.109375 0)"/>
    <use xlink:href="#DejaVuSans-62" transform="translate(2820.488281 0)"/>
    <use xlink:href="#DejaVuSans-65" transform="translate(2883.964844 0)"/>
    <use xlink:href="#DejaVuSans-72" transform="translate(2945.488281 0)"/>
    <use xlink:href="#DejaVuSans-77" transform="translate(2986.601562 0)"/>
    <use xlink:href="#DejaVuSans-61" transform="translate(3068.388672 0)"/>
    <use xlink:href="#DejaVuSans-63" transform="translate(3129.667969 0)"/>
    <use xlink:href="#DejaVuSans-68" transform="translate(3184.648438 0)"/>
    <use xlink:href="#DejaVuSans-75" transform="translate(3248.027344 0)"/>
    <use xlink:href="#DejaVuSans-6e" transform="translate(3311.40625 0)"/>
    <use xlink:href="#DejaVuSans-67" transform="translate(3374.785156 0)"/>
    <use xlink:href="#DejaVuSans-2c" transform="translate(3438.261719 0)"/>
   </g>
   <!-- datengetriebene Entscheidungsfindung, ...) -->
   <g transform="translate(348.399063 580.912344) scale(0.11 -0.11)">
    <use xlink:href="#DejaVuSans-64"/>
    <use xlink:href="#DejaVuSans-61" transform="translate(63.476562 0)"/>
    <use xlink:href="#DejaVuSans-74" transform="translate(124.755859 0)"/>
    <use xlink:href="#DejaVuSans-65" transform="translate(163.964844 0)"/>
    <use xlink:href="#DejaVuSans-6e" transform="translate(225.488281 0)"/>
    <use xlink:href="#DejaVuSans-67" transform="translate(288.867188 0)"/>
    <use xlink:href="#DejaVuSans-65" transform="translate(352.34375 0)"/>
    <use xlink:href="#DejaVuSans-74" transform="translate(413.867188 0)"/>
    <use xlink:href="#DejaVuSans-72" transform="translate(453.076172 0)"/>
    <use xlink:href="#DejaVuSans-69" transform="translate(494.189453 0)"/>
    <use xlink:href="#DejaVuSans-65" transform="translate(521.972656 0)"/>
    <use xlink:href="#DejaVuSans-62" transform="translate(583.496094 0)"/>
    <use xlink:href="#DejaVuSans-65" transform="translate(646.972656 0)"/>
    <use xlink:href="#DejaVuSans-6e" transform="translate(708.496094 0)"/>
    <use xlink:href="#DejaVuSans-65" transform="translate(771.875 0)"/>
    <use xlink:href="#DejaVuSans-20" transform="translate(833.398438 0)"/>
    <use xlink:href="#DejaVuSans-45" transform="translate(865.185547 0)"/>
    <use xlink:href="#DejaVuSans-6e" transform="translate(928.369141 0)"/>
    <use xlink:href="#DejaVuSans-74" transform="translate(991.748047 0)"/>
    <use xlink:href="#DejaVuSans-73" transform="translate(1030.957031 0)"/>
    <use xlink:href="#DejaVuSans-63" transform="translate(1083.056641 0)"/>
    <use xlink:href="#DejaVuSans-68" transform="translate(1138.037109 0)"/>
    <use xlink:href="#DejaVuSans-65" transform="translate(1201.416016 0)"/>
    <use xlink:href="#DejaVuSans-69" transform="translate(1262.939453 0)"/>
    <use xlink:href="#DejaVuSans-64" transform="translate(1290.722656 0)"/>
    <use xlink:href="#DejaVuSans-75" transform="translate(1354.199219 0)"/>
    <use xlink:href="#DejaVuSans-6e" transform="translate(1417.578125 0)"/>
    <use xlink:href="#DejaVuSans-67" transform="translate(1480.957031 0)"/>
    <use xlink:href="#DejaVuSans-73" transform="translate(1544.433594 0)"/>
    <use xlink:href="#DejaVuSans-66" transform="translate(1596.533203 0)"/>
    <use xlink:href="#DejaVuSans-69" transform="translate(1631.738281 0)"/>
    <use xlink:href="#DejaVuSans-6e" transform="translate(1659.521484 0)"/>
    <use xlink:href="#DejaVuSans-64" transform="translate(1722.900391 0)"/>
    <use xlink:href="#DejaVuSans-75" transform="translate(1786.376953 0)"/>
    <use xlink:href="#DejaVuSans-6e" transform="translate(1849.755859 0)"/>
    <use xlink:href="#DejaVuSans-67" transform="translate(1913.134766 0)"/>
    <use xlink:href="#DejaVuSans-2c" transform="translate(1976.611328 0)"/>
    <use xlink:href="#DejaVuSans-20" transform="translate(2008.398438 0)"/>
    <use xlink:href="#DejaVuSans-2e" transform="translate(2040.185547 0)"/>
    <use xlink:href="#DejaVuSans-2e" transform="translate(2071.972656 0)"/>
    <use xlink:href="#DejaVuSans-2e" transform="translate(2103.759766 0)"/>
    <use xlink:href="#DejaVuSans-29" transform="translate(2135.546875 0)"/>
   </g>
  </g>
 </g>
 <defs>
  <clipPath id="p841d13adb9">
   <rect x="254.16" y="51.84" width="427.68" height="427.68"/>
  </clipPath>
 </defs>
</svg>
