<?xml version="1.0" encoding="utf-8" standalone="no"?>
<!DOCTYPE svg PUBLIC "-//W3C//DTD SVG 1.1//EN"
  "http://www.w3.org/Graphics/SVG/1.1/DTD/svg11.dtd">
<svg xmlns:xlink="http://www.w3.org/1999/xlink" width="936pt" height="648pt" viewBox="0 0 936 648" xmlns="http://www.w3.org/2000/svg" version="1.1">
 <metadata>
  <rdf:RDF xmlns:dc="http://purl.org/dc/elements/1.1/" xmlns:cc="http://creativecommons.org/ns#" xmlns:rdf="http://www.w3.org/1999/02/22-rdf-syntax-ns#">
   <cc:Work>
    <dc:type rdf:resource="http://purl.org/dc/dcmitype/StillImage"/>
    <dc:date>2026-02-23T01:10:19.843806</dc:date>
    <dc:format>image/svg+xml</dc:format>
    <dc:creator>
     <cc:Agent>
      <dc:title>Matplotlib v3.10.8, https://matplotlib.org/</dc:title>
     </cc:Agent>
    </dc:creator>
   </cc:Work>
  </rdf:RDF>
 </metadata>
 <defs>
  <style type="text/css">*{stroke-linejoin: round; stroke-linecap: butt}</style>
 </defs>
 <g id="figure_1">
  <g id="patch_1">
   <path d="M 0 648 
L 936 648 
L 936 0 
L 0 0 
z
" style="fill: #ffffff"/>
  </g>
  <g id="axes_1">
   <g id="patch_2">
    <path d="M 638.574901 278.712021 
C 640.369895 255.217534 637.291587 231.603591 629.533469 209.354446 
C 621.775352 187.105298 609.503467 166.6971 593.489134 149.412596 
C 577.4748 132.128092 558.060759 118.337197 536.467268 108.906721 
C 514.873777 99.476244 491.562948 94.608 467.999993 94.608 
L 467.999995 154.4832 
C 483.315916 154.4832 498.467955 157.647559 512.503724 163.777368 
C 526.539493 169.907178 539.15862 178.87126 549.567937 190.106188 
C 559.977254 201.341115 567.953979 214.606444 572.996755 229.06839 
C 578.039532 243.530334 580.040432 258.879397 578.873686 274.150814 
z
" style="fill: #003b6a; stroke: #ffffff; stroke-linejoin: miter"/>
   </g>
   <g id="patch_3">
    <path d="M 570.234562 402.843125 
C 589.831888 388.236261 606.073078 369.597606 617.861211 348.186034 
C 629.649345 326.774463 636.712936 303.083085 638.574901 278.712021 
L 578.873686 274.150814 
C 577.663408 289.992005 573.072074 305.391401 565.409787 319.308922 
C 557.7475 333.226444 547.190727 345.34157 534.452465 354.836031 
z
" style="fill: #8fc73e; stroke: #ffffff; stroke-linejoin: miter"/>
   </g>
   <g id="patch_4">
    <path d="M 401.931436 423.479158 
C 429.357031 434.961921 459.308206 439.098849 488.819625 435.480392 
C 518.331045 431.861924 546.395521 420.611554 570.234562 402.843125 
L 534.452465 354.836031 
C 518.957089 366.38551 500.715179 373.698251 481.532756 376.050255 
C 462.350334 378.402252 442.88207 375.713249 425.055433 368.249452 
z
" style="fill: #dc912f; stroke: #ffffff; stroke-linejoin: miter"/>
   </g>
   <g id="patch_5">
    <path d="M 298.536843 289.086607 
C 302.604923 318.539415 314.281974 346.429084 332.411885 369.99439 
C 350.541797 393.559696 374.505833 411.996394 401.931436 423.479158 
L 425.055433 368.249452 
C 407.228792 360.785656 391.652168 348.801802 379.867725 333.484353 
C 368.083283 318.166905 360.4932 300.03862 357.848948 280.894295 
z
" style="fill: #93bbdc; stroke: #ffffff; stroke-linejoin: miter"/>
   </g>
   <g id="patch_6">
    <path d="M 301.384594 226.886502 
C 299.016475 237.057424 297.584626 247.423859 297.107013 257.855903 
C 296.6294 268.287946 297.108002 278.741846 298.536843 289.086607 
L 357.848948 280.894295 
C 356.920201 274.1702 356.60911 267.375165 356.919558 260.594337 
C 357.230007 253.813508 358.160709 247.075325 359.699986 240.464227 
z
" style="fill: #f9c803; stroke: #ffffff; stroke-linejoin: miter"/>
   </g>
   <g id="patch_7">
    <path d="M 468.000084 94.608 
C 429.380639 94.60798 391.876316 107.685464 361.63003 131.698445 
C 331.383743 155.711425 310.142211 189.273134 301.384594 226.886502 
L 359.699986 240.464227 
C 365.392437 216.015537 379.199433 194.200427 398.859519 178.591989 
C 418.519605 162.983551 442.897415 154.483187 468.000054 154.4832 
z
" style="fill: #6283aa; stroke: #ffffff; stroke-linejoin: miter"/>
   </g>
   <g id="matplotlib.axis_1"/>
   <g id="matplotlib.axis_2"/>
   <g id="line2d_1">
    <path d="M 578.430433 163.364681 
L 606.038052 137.785856 
" clip-path="url(#p19b0c770c7)" style="fill: none; stroke: #000000; stroke-opacity: 0.35; stroke-linecap: square"/>
   </g>
   <g id="line2d_2">
    <path d="M 599.877867 338.285307 
L 632.847331 356.436642 
" clip-path="url(#p19b0c770c7)" style="fill: none; stroke: #000000; stroke-opacity: 0.35; stroke-linecap: square"/>
   </g>
   <g id="line2d_3">
    <path d="M 486.32127 415.104344 
L 490.901588 452.460443 
" clip-path="url(#p19b0c770c7)" style="fill: none; stroke: #000000; stroke-opacity: 0.35; stroke-linecap: square"/>
   </g>
   <g id="line2d_4">
    <path d="M 348.682462 357.476663 
L 318.853067 380.425834 
" clip-path="url(#p19b0c770c7)" style="fill: none; stroke: #000000; stroke-opacity: 0.35; stroke-linecap: square"/>
   </g>
   <g id="line2d_5">
    <path d="M 317.614169 258.79483 
L 280.017714 257.073538 
" clip-path="url(#p19b0c770c7)" style="fill: none; stroke: #000000; stroke-opacity: 0.35; stroke-linecap: square"/>
   </g>
   <g id="line2d_6">
    <path d="M 374.394424 147.776232 
L 350.993031 118.300285 
" clip-path="url(#p19b0c770c7)" style="fill: none; stroke: #000000; stroke-opacity: 0.35; stroke-linecap: square"/>
   </g>
   <g id="text_1">
    <!-- 26% -->
    <g transform="translate(624.861419 118.074115) scale(0.08 -0.08)">
     <defs>
      <path id="DejaVuSans-32" d="M 1228 531 
L 3431 531 
L 3431 0 
L 469 0 
L 469 531 
Q 828 903 1448 1529 
Q 2069 2156 2228 2338 
Q 2531 2678 2651 2914 
Q 2772 3150 2772 3378 
Q 2772 3750 2511 3984 
Q 2250 4219 1831 4219 
Q 1534 4219 1204 4116 
Q 875 4013 500 3803 
L 500 4441 
Q 881 4594 1212 4672 
Q 1544 4750 1819 4750 
Q 2544 4750 2975 4387 
Q 3406 4025 3406 3419 
Q 3406 3131 3298 2873 
Q 3191 2616 2906 2266 
Q 2828 2175 2409 1742 
Q 1991 1309 1228 531 
z
" transform="scale(0.015625)"/>
      <path id="DejaVuSans-36" d="M 2113 2584 
Q 1688 2584 1439 2293 
Q 1191 2003 1191 1497 
Q 1191 994 1439 701 
Q 1688 409 2113 409 
Q 2538 409 2786 701 
Q 3034 994 3034 1497 
Q 3034 2003 2786 2293 
Q 2538 2584 2113 2584 
z
M 3366 4563 
L 3366 3988 
Q 3128 4100 2886 4159 
Q 2644 4219 2406 4219 
Q 1781 4219 1451 3797 
Q 1122 3375 1075 2522 
Q 1259 2794 1537 2939 
Q 1816 3084 2150 3084 
Q 2853 3084 3261 2657 
Q 3669 2231 3669 1497 
Q 3669 778 3244 343 
Q 2819 -91 2113 -91 
Q 1303 -91 875 529 
Q 447 1150 447 2328 
Q 447 3434 972 4092 
Q 1497 4750 2381 4750 
Q 2619 4750 2861 4703 
Q 3103 4656 3366 4563 
z
" transform="scale(0.015625)"/>
      <path id="DejaVuSans-25" d="M 4653 2053 
Q 4381 2053 4226 1822 
Q 4072 1591 4072 1178 
Q 4072 772 4226 539 
Q 4381 306 4653 306 
Q 4919 306 5073 539 
Q 5228 772 5228 1178 
Q 5228 1588 5073 1820 
Q 4919 2053 4653 2053 
z
M 4653 2450 
Q 5147 2450 5437 2106 
Q 5728 1763 5728 1178 
Q 5728 594 5436 251 
Q 5144 -91 4653 -91 
Q 4153 -91 3862 251 
Q 3572 594 3572 1178 
Q 3572 1766 3864 2108 
Q 4156 2450 4653 2450 
z
M 1428 4353 
Q 1159 4353 1004 4120 
Q 850 3888 850 3481 
Q 850 3069 1003 2837 
Q 1156 2606 1428 2606 
Q 1700 2606 1854 2837 
Q 2009 3069 2009 3481 
Q 2009 3884 1853 4118 
Q 1697 4353 1428 4353 
z
M 4250 4750 
L 4750 4750 
L 1831 -91 
L 1331 -91 
L 4250 4750 
z
M 1428 4750 
Q 1922 4750 2215 4408 
Q 2509 4066 2509 3481 
Q 2509 2891 2217 2550 
Q 1925 2209 1428 2209 
Q 931 2209 642 2551 
Q 353 2894 353 3481 
Q 353 4063 643 4406 
Q 934 4750 1428 4750 
z
" transform="scale(0.015625)"/>
     </defs>
     <use xlink:href="#DejaVuSans-32"/>
     <use xlink:href="#DejaVuSans-36" transform="translate(63.623047 0)"/>
     <use xlink:href="#DejaVuSans-25" transform="translate(127.246094 0)"/>
    </g>
    <!-- Kein Hemmnis -->
    <g transform="translate(624.861419 127.032365) scale(0.08 -0.08)">
     <defs>
      <path id="DejaVuSans-4b" d="M 628 4666 
L 1259 4666 
L 1259 2694 
L 3353 4666 
L 4166 4666 
L 1850 2491 
L 4331 0 
L 3500 0 
L 1259 2247 
L 1259 0 
L 628 0 
L 628 4666 
z
" transform="scale(0.015625)"/>
      <path id="DejaVuSans-65" d="M 3597 1894 
L 3597 1613 
L 953 1613 
Q 991 1019 1311 708 
Q 1631 397 2203 397 
Q 2534 397 2845 478 
Q 3156 559 3463 722 
L 3463 178 
Q 3153 47 2828 -22 
Q 2503 -91 2169 -91 
Q 1331 -91 842 396 
Q 353 884 353 1716 
Q 353 2575 817 3079 
Q 1281 3584 2069 3584 
Q 2775 3584 3186 3129 
Q 3597 2675 3597 1894 
z
M 3022 2063 
Q 3016 2534 2758 2815 
Q 2500 3097 2075 3097 
Q 1594 3097 1305 2825 
Q 1016 2553 972 2059 
L 3022 2063 
z
" transform="scale(0.015625)"/>
      <path id="DejaVuSans-69" d="M 603 3500 
L 1178 3500 
L 1178 0 
L 603 0 
L 603 3500 
z
M 603 4863 
L 1178 4863 
L 1178 4134 
L 603 4134 
L 603 4863 
z
" transform="scale(0.015625)"/>
      <path id="DejaVuSans-6e" d="M 3513 2113 
L 3513 0 
L 2938 0 
L 2938 2094 
Q 2938 2591 2744 2837 
Q 2550 3084 2163 3084 
Q 1697 3084 1428 2787 
Q 1159 2491 1159 1978 
L 1159 0 
L 581 0 
L 581 3500 
L 1159 3500 
L 1159 2956 
Q 1366 3272 1645 3428 
Q 1925 3584 2291 3584 
Q 2894 3584 3203 3211 
Q 3513 2838 3513 2113 
z
" transform="scale(0.015625)"/>
      <path id="DejaVuSans-20" transform="scale(0.015625)"/>
      <path id="DejaVuSans-48" d="M 628 4666 
L 1259 4666 
L 1259 2753 
L 3553 2753 
L 3553 4666 
L 4184 4666 
L 4184 0 
L 3553 0 
L 3553 2222 
L 1259 2222 
L 1259 0 
L 628 0 
L 628 4666 
z
" transform="scale(0.015625)"/>
      <path id="DejaVuSans-6d" d="M 3328 2828 
Q 3544 3216 3844 3400 
Q 4144 3584 4550 3584 
Q 5097 3584 5394 3201 
Q 5691 2819 5691 2113 
L 5691 0 
L 5113 0 
L 5113 2094 
Q 5113 2597 4934 2840 
Q 4756 3084 4391 3084 
Q 3944 3084 3684 2787 
Q 3425 2491 3425 1978 
L 3425 0 
L 2847 0 
L 2847 2094 
Q 2847 2600 2669 2842 
Q 2491 3084 2119 3084 
Q 1678 3084 1418 2786 
Q 1159 2488 1159 1978 
L 1159 0 
L 581 0 
L 581 3500 
L 1159 3500 
L 1159 2956 
Q 1356 3278 1631 3431 
Q 1906 3584 2284 3584 
Q 2666 3584 2933 3390 
Q 3200 3197 3328 2828 
z
" transform="scale(0.015625)"/>
      <path id="DejaVuSans-73" d="M 2834 3397 
L 2834 2853 
Q 2591 2978 2328 3040 
Q 2066 3103 1784 3103 
Q 1356 3103 1142 2972 
Q 928 2841 928 2578 
Q 928 2378 1081 2264 
Q 1234 2150 1697 2047 
L 1894 2003 
Q 2506 1872 2764 1633 
Q 3022 1394 3022 966 
Q 3022 478 2636 193 
Q 2250 -91 1575 -91 
Q 1294 -91 989 -36 
Q 684 19 347 128 
L 347 722 
Q 666 556 975 473 
Q 1284 391 1588 391 
Q 1994 391 2212 530 
Q 2431 669 2431 922 
Q 2431 1156 2273 1281 
Q 2116 1406 1581 1522 
L 1381 1569 
Q 847 1681 609 1914 
Q 372 2147 372 2553 
Q 372 3047 722 3315 
Q 1072 3584 1716 3584 
Q 2034 3584 2315 3537 
Q 2597 3491 2834 3397 
z
" transform="scale(0.015625)"/>
     </defs>
     <use xlink:href="#DejaVuSans-4b"/>
     <use xlink:href="#DejaVuSans-65" transform="translate(60.576172 0)"/>
     <use xlink:href="#DejaVuSans-69" transform="translate(122.099609 0)"/>
     <use xlink:href="#DejaVuSans-6e" transform="translate(149.882812 0)"/>
     <use xlink:href="#DejaVuSans-20" transform="translate(213.261719 0)"/>
     <use xlink:href="#DejaVuSans-48" transform="translate(245.048828 0)"/>
     <use xlink:href="#DejaVuSans-65" transform="translate(320.244141 0)"/>
     <use xlink:href="#DejaVuSans-6d" transform="translate(381.767578 0)"/>
     <use xlink:href="#DejaVuSans-6d" transform="translate(479.179688 0)"/>
     <use xlink:href="#DejaVuSans-6e" transform="translate(576.591797 0)"/>
     <use xlink:href="#DejaVuSans-69" transform="translate(639.970703 0)"/>
     <use xlink:href="#DejaVuSans-73" transform="translate(667.753906 0)"/>
    </g>
   </g>
   <g id="text_2">
    <!-- 14% -->
    <g transform="translate(655.326516 366.540918) scale(0.08 -0.08)">
     <defs>
      <path id="DejaVuSans-31" d="M 794 531 
L 1825 531 
L 1825 4091 
L 703 3866 
L 703 4441 
L 1819 4666 
L 2450 4666 
L 2450 531 
L 3481 531 
L 3481 0 
L 794 0 
L 794 531 
z
" transform="scale(0.015625)"/>
      <path id="DejaVuSans-34" d="M 2419 4116 
L 825 1625 
L 2419 1625 
L 2419 4116 
z
M 2253 4666 
L 3047 4666 
L 3047 1625 
L 3713 1625 
L 3713 1100 
L 3047 1100 
L 3047 0 
L 2419 0 
L 2419 1100 
L 313 1100 
L 313 1709 
L 2253 4666 
z
" transform="scale(0.015625)"/>
     </defs>
     <use xlink:href="#DejaVuSans-31"/>
     <use xlink:href="#DejaVuSans-34" transform="translate(63.623047 0)"/>
     <use xlink:href="#DejaVuSans-25" transform="translate(127.246094 0)"/>
    </g>
    <!-- Geringes Hemmnis -->
    <g transform="translate(655.326516 375.499168) scale(0.08 -0.08)">
     <defs>
      <path id="DejaVuSans-47" d="M 3809 666 
L 3809 1919 
L 2778 1919 
L 2778 2438 
L 4434 2438 
L 4434 434 
Q 4069 175 3628 42 
Q 3188 -91 2688 -91 
Q 1594 -91 976 548 
Q 359 1188 359 2328 
Q 359 3472 976 4111 
Q 1594 4750 2688 4750 
Q 3144 4750 3555 4637 
Q 3966 4525 4313 4306 
L 4313 3634 
Q 3963 3931 3569 4081 
Q 3175 4231 2741 4231 
Q 1884 4231 1454 3753 
Q 1025 3275 1025 2328 
Q 1025 1384 1454 906 
Q 1884 428 2741 428 
Q 3075 428 3337 486 
Q 3600 544 3809 666 
z
" transform="scale(0.015625)"/>
      <path id="DejaVuSans-72" d="M 2631 2963 
Q 2534 3019 2420 3045 
Q 2306 3072 2169 3072 
Q 1681 3072 1420 2755 
Q 1159 2438 1159 1844 
L 1159 0 
L 581 0 
L 581 3500 
L 1159 3500 
L 1159 2956 
Q 1341 3275 1631 3429 
Q 1922 3584 2338 3584 
Q 2397 3584 2469 3576 
Q 2541 3569 2628 3553 
L 2631 2963 
z
" transform="scale(0.015625)"/>
      <path id="DejaVuSans-67" d="M 2906 1791 
Q 2906 2416 2648 2759 
Q 2391 3103 1925 3103 
Q 1463 3103 1205 2759 
Q 947 2416 947 1791 
Q 947 1169 1205 825 
Q 1463 481 1925 481 
Q 2391 481 2648 825 
Q 2906 1169 2906 1791 
z
M 3481 434 
Q 3481 -459 3084 -895 
Q 2688 -1331 1869 -1331 
Q 1566 -1331 1297 -1286 
Q 1028 -1241 775 -1147 
L 775 -588 
Q 1028 -725 1275 -790 
Q 1522 -856 1778 -856 
Q 2344 -856 2625 -561 
Q 2906 -266 2906 331 
L 2906 616 
Q 2728 306 2450 153 
Q 2172 0 1784 0 
Q 1141 0 747 490 
Q 353 981 353 1791 
Q 353 2603 747 3093 
Q 1141 3584 1784 3584 
Q 2172 3584 2450 3431 
Q 2728 3278 2906 2969 
L 2906 3500 
L 3481 3500 
L 3481 434 
z
" transform="scale(0.015625)"/>
     </defs>
     <use xlink:href="#DejaVuSans-47"/>
     <use xlink:href="#DejaVuSans-65" transform="translate(77.490234 0)"/>
     <use xlink:href="#DejaVuSans-72" transform="translate(139.013672 0)"/>
     <use xlink:href="#DejaVuSans-69" transform="translate(180.126953 0)"/>
     <use xlink:href="#DejaVuSans-6e" transform="translate(207.910156 0)"/>
     <use xlink:href="#DejaVuSans-67" transform="translate(271.289062 0)"/>
     <use xlink:href="#DejaVuSans-65" transform="translate(334.765625 0)"/>
     <use xlink:href="#DejaVuSans-73" transform="translate(396.289062 0)"/>
     <use xlink:href="#DejaVuSans-20" transform="translate(448.388672 0)"/>
     <use xlink:href="#DejaVuSans-48" transform="translate(480.175781 0)"/>
     <use xlink:href="#DejaVuSans-65" transform="translate(555.371094 0)"/>
     <use xlink:href="#DejaVuSans-6d" transform="translate(616.894531 0)"/>
     <use xlink:href="#DejaVuSans-6d" transform="translate(714.306641 0)"/>
     <use xlink:href="#DejaVuSans-6e" transform="translate(811.71875 0)"/>
     <use xlink:href="#DejaVuSans-69" transform="translate(875.097656 0)"/>
     <use xlink:href="#DejaVuSans-73" transform="translate(902.880859 0)"/>
    </g>
   </g>
   <g id="text_3">
    <!-- 17% -->
    <g transform="translate(494.024532 475.658875) scale(0.08 -0.08)">
     <defs>
      <path id="DejaVuSans-37" d="M 525 4666 
L 3525 4666 
L 3525 4397 
L 1831 0 
L 1172 0 
L 2766 4134 
L 525 4134 
L 525 4666 
z
" transform="scale(0.015625)"/>
     </defs>
     <use xlink:href="#DejaVuSans-31"/>
     <use xlink:href="#DejaVuSans-37" transform="translate(63.623047 0)"/>
     <use xlink:href="#DejaVuSans-25" transform="translate(127.246094 0)"/>
    </g>
    <!-- Mittleres Hemmnis -->
    <g transform="translate(494.024532 484.617125) scale(0.08 -0.08)">
     <defs>
      <path id="DejaVuSans-4d" d="M 628 4666 
L 1569 4666 
L 2759 1491 
L 3956 4666 
L 4897 4666 
L 4897 0 
L 4281 0 
L 4281 4097 
L 3078 897 
L 2444 897 
L 1241 4097 
L 1241 0 
L 628 0 
L 628 4666 
z
" transform="scale(0.015625)"/>
      <path id="DejaVuSans-74" d="M 1172 4494 
L 1172 3500 
L 2356 3500 
L 2356 3053 
L 1172 3053 
L 1172 1153 
Q 1172 725 1289 603 
Q 1406 481 1766 481 
L 2356 481 
L 2356 0 
L 1766 0 
Q 1100 0 847 248 
Q 594 497 594 1153 
L 594 3053 
L 172 3053 
L 172 3500 
L 594 3500 
L 594 4494 
L 1172 4494 
z
" transform="scale(0.015625)"/>
      <path id="DejaVuSans-6c" d="M 603 4863 
L 1178 4863 
L 1178 0 
L 603 0 
L 603 4863 
z
" transform="scale(0.015625)"/>
     </defs>
     <use xlink:href="#DejaVuSans-4d"/>
     <use xlink:href="#DejaVuSans-69" transform="translate(86.279297 0)"/>
     <use xlink:href="#DejaVuSans-74" transform="translate(114.0625 0)"/>
     <use xlink:href="#DejaVuSans-74" transform="translate(153.271484 0)"/>
     <use xlink:href="#DejaVuSans-6c" transform="translate(192.480469 0)"/>
     <use xlink:href="#DejaVuSans-65" transform="translate(220.263672 0)"/>
     <use xlink:href="#DejaVuSans-72" transform="translate(281.787109 0)"/>
     <use xlink:href="#DejaVuSans-65" transform="translate(320.650391 0)"/>
     <use xlink:href="#DejaVuSans-73" transform="translate(382.173828 0)"/>
     <use xlink:href="#DejaVuSans-20" transform="translate(434.273438 0)"/>
     <use xlink:href="#DejaVuSans-48" transform="translate(466.060547 0)"/>
     <use xlink:href="#DejaVuSans-65" transform="translate(541.255859 0)"/>
     <use xlink:href="#DejaVuSans-6d" transform="translate(602.779297 0)"/>
     <use xlink:href="#DejaVuSans-6d" transform="translate(700.191406 0)"/>
     <use xlink:href="#DejaVuSans-6e" transform="translate(797.603516 0)"/>
     <use xlink:href="#DejaVuSans-69" transform="translate(860.982422 0)"/>
     <use xlink:href="#DejaVuSans-73" transform="translate(888.765625 0)"/>
    </g>
   </g>
   <g id="text_4">
    <!-- 17% -->
    <g transform="translate(280.733609 393.80136) scale(0.08 -0.08)">
     <use xlink:href="#DejaVuSans-31"/>
     <use xlink:href="#DejaVuSans-37" transform="translate(63.623047 0)"/>
     <use xlink:href="#DejaVuSans-25" transform="translate(127.246094 0)"/>
    </g>
    <!-- Starkes Hemmnis -->
    <g transform="translate(228.149859 402.75961) scale(0.08 -0.08)">
     <defs>
      <path id="DejaVuSans-53" d="M 3425 4513 
L 3425 3897 
Q 3066 4069 2747 4153 
Q 2428 4238 2131 4238 
Q 1616 4238 1336 4038 
Q 1056 3838 1056 3469 
Q 1056 3159 1242 3001 
Q 1428 2844 1947 2747 
L 2328 2669 
Q 3034 2534 3370 2195 
Q 3706 1856 3706 1288 
Q 3706 609 3251 259 
Q 2797 -91 1919 -91 
Q 1588 -91 1214 -16 
Q 841 59 441 206 
L 441 856 
Q 825 641 1194 531 
Q 1563 422 1919 422 
Q 2459 422 2753 634 
Q 3047 847 3047 1241 
Q 3047 1584 2836 1778 
Q 2625 1972 2144 2069 
L 1759 2144 
Q 1053 2284 737 2584 
Q 422 2884 422 3419 
Q 422 4038 858 4394 
Q 1294 4750 2059 4750 
Q 2388 4750 2728 4690 
Q 3069 4631 3425 4513 
z
" transform="scale(0.015625)"/>
      <path id="DejaVuSans-61" d="M 2194 1759 
Q 1497 1759 1228 1600 
Q 959 1441 959 1056 
Q 959 750 1161 570 
Q 1363 391 1709 391 
Q 2188 391 2477 730 
Q 2766 1069 2766 1631 
L 2766 1759 
L 2194 1759 
z
M 3341 1997 
L 3341 0 
L 2766 0 
L 2766 531 
Q 2569 213 2275 61 
Q 1981 -91 1556 -91 
Q 1019 -91 701 211 
Q 384 513 384 1019 
Q 384 1609 779 1909 
Q 1175 2209 1959 2209 
L 2766 2209 
L 2766 2266 
Q 2766 2663 2505 2880 
Q 2244 3097 1772 3097 
Q 1472 3097 1187 3025 
Q 903 2953 641 2809 
L 641 3341 
Q 956 3463 1253 3523 
Q 1550 3584 1831 3584 
Q 2591 3584 2966 3190 
Q 3341 2797 3341 1997 
z
" transform="scale(0.015625)"/>
      <path id="DejaVuSans-6b" d="M 581 4863 
L 1159 4863 
L 1159 1991 
L 2875 3500 
L 3609 3500 
L 1753 1863 
L 3688 0 
L 2938 0 
L 1159 1709 
L 1159 0 
L 581 0 
L 581 4863 
z
" transform="scale(0.015625)"/>
     </defs>
     <use xlink:href="#DejaVuSans-53"/>
     <use xlink:href="#DejaVuSans-74" transform="translate(63.476562 0)"/>
     <use xlink:href="#DejaVuSans-61" transform="translate(102.685547 0)"/>
     <use xlink:href="#DejaVuSans-72" transform="translate(163.964844 0)"/>
     <use xlink:href="#DejaVuSans-6b" transform="translate(205.078125 0)"/>
     <use xlink:href="#DejaVuSans-65" transform="translate(259.363281 0)"/>
     <use xlink:href="#DejaVuSans-73" transform="translate(320.886719 0)"/>
     <use xlink:href="#DejaVuSans-20" transform="translate(372.986328 0)"/>
     <use xlink:href="#DejaVuSans-48" transform="translate(404.773438 0)"/>
     <use xlink:href="#DejaVuSans-65" transform="translate(479.96875 0)"/>
     <use xlink:href="#DejaVuSans-6d" transform="translate(541.492188 0)"/>
     <use xlink:href="#DejaVuSans-6d" transform="translate(638.904297 0)"/>
     <use xlink:href="#DejaVuSans-6e" transform="translate(736.316406 0)"/>
     <use xlink:href="#DejaVuSans-69" transform="translate(799.695312 0)"/>
     <use xlink:href="#DejaVuSans-73" transform="translate(827.478516 0)"/>
    </g>
   </g>
   <g id="text_5">
    <!-- 6% -->
    <g transform="translate(241.692506 253.628304) scale(0.08 -0.08)">
     <use xlink:href="#DejaVuSans-36"/>
     <use xlink:href="#DejaVuSans-25" transform="translate(63.623047 0)"/>
    </g>
    <!-- Sehr starkes Hemmnis -->
    <g transform="translate(164.027506 262.586554) scale(0.08 -0.08)">
     <defs>
      <path id="DejaVuSans-68" d="M 3513 2113 
L 3513 0 
L 2938 0 
L 2938 2094 
Q 2938 2591 2744 2837 
Q 2550 3084 2163 3084 
Q 1697 3084 1428 2787 
Q 1159 2491 1159 1978 
L 1159 0 
L 581 0 
L 581 4863 
L 1159 4863 
L 1159 2956 
Q 1366 3272 1645 3428 
Q 1925 3584 2291 3584 
Q 2894 3584 3203 3211 
Q 3513 2838 3513 2113 
z
" transform="scale(0.015625)"/>
     </defs>
     <use xlink:href="#DejaVuSans-53"/>
     <use xlink:href="#DejaVuSans-65" transform="translate(63.476562 0)"/>
     <use xlink:href="#DejaVuSans-68" transform="translate(125 0)"/>
     <use xlink:href="#DejaVuSans-72" transform="translate(188.378906 0)"/>
     <use xlink:href="#DejaVuSans-20" transform="translate(229.492188 0)"/>
     <use xlink:href="#DejaVuSans-73" transform="translate(261.279297 0)"/>
     <use xlink:href="#DejaVuSans-74" transform="translate(313.378906 0)"/>
     <use xlink:href="#DejaVuSans-61" transform="translate(352.587891 0)"/>
     <use xlink:href="#DejaVuSans-72" transform="translate(413.867188 0)"/>
     <use xlink:href="#DejaVuSans-6b" transform="translate(454.980469 0)"/>
     <use xlink:href="#DejaVuSans-65" transform="translate(509.265625 0)"/>
     <use xlink:href="#DejaVuSans-73" transform="translate(570.789062 0)"/>
     <use xlink:href="#DejaVuSans-20" transform="translate(622.888672 0)"/>
     <use xlink:href="#DejaVuSans-48" transform="translate(654.675781 0)"/>
     <use xlink:href="#DejaVuSans-65" transform="translate(729.871094 0)"/>
     <use xlink:href="#DejaVuSans-6d" transform="translate(791.394531 0)"/>
     <use xlink:href="#DejaVuSans-6d" transform="translate(888.806641 0)"/>
     <use xlink:href="#DejaVuSans-6e" transform="translate(986.21875 0)"/>
     <use xlink:href="#DejaVuSans-69" transform="translate(1049.597656 0)"/>
     <use xlink:href="#DejaVuSans-73" transform="translate(1077.380859 0)"/>
    </g>
   </g>
   <g id="text_6">
    <!-- 21% -->
    <g transform="translate(317.256292 95.931431) scale(0.08 -0.08)">
     <use xlink:href="#DejaVuSans-32"/>
     <use xlink:href="#DejaVuSans-31" transform="translate(63.623047 0)"/>
     <use xlink:href="#DejaVuSans-25" transform="translate(127.246094 0)"/>
    </g>
    <!-- Keine Antwort -->
    <g transform="translate(278.970042 104.889681) scale(0.08 -0.08)">
     <defs>
      <path id="DejaVuSans-41" d="M 2188 4044 
L 1331 1722 
L 3047 1722 
L 2188 4044 
z
M 1831 4666 
L 2547 4666 
L 4325 0 
L 3669 0 
L 3244 1197 
L 1141 1197 
L 716 0 
L 50 0 
L 1831 4666 
z
" transform="scale(0.015625)"/>
      <path id="DejaVuSans-77" d="M 269 3500 
L 844 3500 
L 1563 769 
L 2278 3500 
L 2956 3500 
L 3675 769 
L 4391 3500 
L 4966 3500 
L 4050 0 
L 3372 0 
L 2619 2869 
L 1863 0 
L 1184 0 
L 269 3500 
z
" transform="scale(0.015625)"/>
      <path id="DejaVuSans-6f" d="M 1959 3097 
Q 1497 3097 1228 2736 
Q 959 2375 959 1747 
Q 959 1119 1226 758 
Q 1494 397 1959 397 
Q 2419 397 2687 759 
Q 2956 1122 2956 1747 
Q 2956 2369 2687 2733 
Q 2419 3097 1959 3097 
z
M 1959 3584 
Q 2709 3584 3137 3096 
Q 3566 2609 3566 1747 
Q 3566 888 3137 398 
Q 2709 -91 1959 -91 
Q 1206 -91 779 398 
Q 353 888 353 1747 
Q 353 2609 779 3096 
Q 1206 3584 1959 3584 
z
" transform="scale(0.015625)"/>
     </defs>
     <use xlink:href="#DejaVuSans-4b"/>
     <use xlink:href="#DejaVuSans-65" transform="translate(60.576172 0)"/>
     <use xlink:href="#DejaVuSans-69" transform="translate(122.099609 0)"/>
     <use xlink:href="#DejaVuSans-6e" transform="translate(149.882812 0)"/>
     <use xlink:href="#DejaVuSans-65" transform="translate(213.261719 0)"/>
     <use xlink:href="#DejaVuSans-20" transform="translate(274.785156 0)"/>
     <use xlink:href="#DejaVuSans-41" transform="translate(306.572266 0)"/>
     <use xlink:href="#DejaVuSans-6e" transform="translate(374.980469 0)"/>
     <use xlink:href="#DejaVuSans-74" transform="translate(438.359375 0)"/>
     <use xlink:href="#DejaVuSans-77" transform="translate(477.568359 0)"/>
     <use xlink:href="#DejaVuSans-6f" transform="translate(559.355469 0)"/>
     <use xlink:href="#DejaVuSans-72" transform="translate(620.537109 0)"/>
     <use xlink:href="#DejaVuSans-74" transform="translate(661.650391 0)"/>
    </g>
   </g>
  </g>
  <g id="text_7">
   <!-- Fehlende Informationen zum Ressourcenbedarf (Material, Energie,...) für die Produktaufbereitung -->
   <g transform="translate(175.980938 22.078125) scale(0.12 -0.12)">
    <defs>
     <path id="DejaVuSans-46" d="M 628 4666 
L 3309 4666 
L 3309 4134 
L 1259 4134 
L 1259 2759 
L 3109 2759 
L 3109 2228 
L 1259 2228 
L 1259 0 
L 628 0 
L 628 4666 
z
" transform="scale(0.015625)"/>
     <path id="DejaVuSans-64" d="M 2906 2969 
L 2906 4863 
L 3481 4863 
L 3481 0 
L 2906 0 
L 2906 525 
Q 2725 213 2448 61 
Q 2172 -91 1784 -91 
Q 1150 -91 751 415 
Q 353 922 353 1747 
Q 353 2572 751 3078 
Q 1150 3584 1784 3584 
Q 2172 3584 2448 3432 
Q 2725 3281 2906 2969 
z
M 947 1747 
Q 947 1113 1208 752 
Q 1469 391 1925 391 
Q 2381 391 2643 752 
Q 2906 1113 2906 1747 
Q 2906 2381 2643 2742 
Q 2381 3103 1925 3103 
Q 1469 3103 1208 2742 
Q 947 2381 947 1747 
z
" transform="scale(0.015625)"/>
     <path id="DejaVuSans-49" d="M 628 4666 
L 1259 4666 
L 1259 0 
L 628 0 
L 628 4666 
z
" transform="scale(0.015625)"/>
     <path id="DejaVuSans-66" d="M 2375 4863 
L 2375 4384 
L 1825 4384 
Q 1516 4384 1395 4259 
Q 1275 4134 1275 3809 
L 1275 3500 
L 2222 3500 
L 2222 3053 
L 1275 3053 
L 1275 0 
L 697 0 
L 697 3053 
L 147 3053 
L 147 3500 
L 697 3500 
L 697 3744 
Q 697 4328 969 4595 
Q 1241 4863 1831 4863 
L 2375 4863 
z
" transform="scale(0.015625)"/>
     <path id="DejaVuSans-7a" d="M 353 3500 
L 3084 3500 
L 3084 2975 
L 922 459 
L 3084 459 
L 3084 0 
L 275 0 
L 275 525 
L 2438 3041 
L 353 3041 
L 353 3500 
z
" transform="scale(0.015625)"/>
     <path id="DejaVuSans-75" d="M 544 1381 
L 544 3500 
L 1119 3500 
L 1119 1403 
Q 1119 906 1312 657 
Q 1506 409 1894 409 
Q 2359 409 2629 706 
Q 2900 1003 2900 1516 
L 2900 3500 
L 3475 3500 
L 3475 0 
L 2900 0 
L 2900 538 
Q 2691 219 2414 64 
Q 2138 -91 1772 -91 
Q 1169 -91 856 284 
Q 544 659 544 1381 
z
M 1991 3584 
L 1991 3584 
z
" transform="scale(0.015625)"/>
     <path id="DejaVuSans-52" d="M 2841 2188 
Q 3044 2119 3236 1894 
Q 3428 1669 3622 1275 
L 4263 0 
L 3584 0 
L 2988 1197 
Q 2756 1666 2539 1819 
Q 2322 1972 1947 1972 
L 1259 1972 
L 1259 0 
L 628 0 
L 628 4666 
L 2053 4666 
Q 2853 4666 3247 4331 
Q 3641 3997 3641 3322 
Q 3641 2881 3436 2590 
Q 3231 2300 2841 2188 
z
M 1259 4147 
L 1259 2491 
L 2053 2491 
Q 2509 2491 2742 2702 
Q 2975 2913 2975 3322 
Q 2975 3731 2742 3939 
Q 2509 4147 2053 4147 
L 1259 4147 
z
" transform="scale(0.015625)"/>
     <path id="DejaVuSans-63" d="M 3122 3366 
L 3122 2828 
Q 2878 2963 2633 3030 
Q 2388 3097 2138 3097 
Q 1578 3097 1268 2742 
Q 959 2388 959 1747 
Q 959 1106 1268 751 
Q 1578 397 2138 397 
Q 2388 397 2633 464 
Q 2878 531 3122 666 
L 3122 134 
Q 2881 22 2623 -34 
Q 2366 -91 2075 -91 
Q 1284 -91 818 406 
Q 353 903 353 1747 
Q 353 2603 823 3093 
Q 1294 3584 2113 3584 
Q 2378 3584 2631 3529 
Q 2884 3475 3122 3366 
z
" transform="scale(0.015625)"/>
     <path id="DejaVuSans-62" d="M 3116 1747 
Q 3116 2381 2855 2742 
Q 2594 3103 2138 3103 
Q 1681 3103 1420 2742 
Q 1159 2381 1159 1747 
Q 1159 1113 1420 752 
Q 1681 391 2138 391 
Q 2594 391 2855 752 
Q 3116 1113 3116 1747 
z
M 1159 2969 
Q 1341 3281 1617 3432 
Q 1894 3584 2278 3584 
Q 2916 3584 3314 3078 
Q 3713 2572 3713 1747 
Q 3713 922 3314 415 
Q 2916 -91 2278 -91 
Q 1894 -91 1617 61 
Q 1341 213 1159 525 
L 1159 0 
L 581 0 
L 581 4863 
L 1159 4863 
L 1159 2969 
z
" transform="scale(0.015625)"/>
     <path id="DejaVuSans-28" d="M 1984 4856 
Q 1566 4138 1362 3434 
Q 1159 2731 1159 2009 
Q 1159 1288 1364 580 
Q 1569 -128 1984 -844 
L 1484 -844 
Q 1016 -109 783 600 
Q 550 1309 550 2009 
Q 550 2706 781 3412 
Q 1013 4119 1484 4856 
L 1984 4856 
z
" transform="scale(0.015625)"/>
     <path id="DejaVuSans-2c" d="M 750 794 
L 1409 794 
L 1409 256 
L 897 -744 
L 494 -744 
L 750 256 
L 750 794 
z
" transform="scale(0.015625)"/>
     <path id="DejaVuSans-45" d="M 628 4666 
L 3578 4666 
L 3578 4134 
L 1259 4134 
L 1259 2753 
L 3481 2753 
L 3481 2222 
L 1259 2222 
L 1259 531 
L 3634 531 
L 3634 0 
L 628 0 
L 628 4666 
z
" transform="scale(0.015625)"/>
     <path id="DejaVuSans-2e" d="M 684 794 
L 1344 794 
L 1344 0 
L 684 0 
L 684 794 
z
" transform="scale(0.015625)"/>
     <path id="DejaVuSans-29" d="M 513 4856 
L 1013 4856 
Q 1481 4119 1714 3412 
Q 1947 2706 1947 2009 
Q 1947 1309 1714 600 
Q 1481 -109 1013 -844 
L 513 -844 
Q 928 -128 1133 580 
Q 1338 1288 1338 2009 
Q 1338 2731 1133 3434 
Q 928 4138 513 4856 
z
" transform="scale(0.015625)"/>
     <path id="DejaVuSans-fc" d="M 544 1381 
L 544 3500 
L 1119 3500 
L 1119 1403 
Q 1119 906 1312 657 
Q 1506 409 1894 409 
Q 2359 409 2629 706 
Q 2900 1003 2900 1516 
L 2900 3500 
L 3475 3500 
L 3475 0 
L 2900 0 
L 2900 538 
Q 2691 219 2414 64 
Q 2138 -91 1772 -91 
Q 1169 -91 856 284 
Q 544 659 544 1381 
z
M 1991 3584 
L 1991 3584 
z
M 2278 4850 
L 2912 4850 
L 2912 4219 
L 2278 4219 
L 2278 4850 
z
M 1056 4850 
L 1690 4850 
L 1690 4219 
L 1056 4219 
L 1056 4850 
z
" transform="scale(0.015625)"/>
     <path id="DejaVuSans-50" d="M 1259 4147 
L 1259 2394 
L 2053 2394 
Q 2494 2394 2734 2622 
Q 2975 2850 2975 3272 
Q 2975 3691 2734 3919 
Q 2494 4147 2053 4147 
L 1259 4147 
z
M 628 4666 
L 2053 4666 
Q 2838 4666 3239 4311 
Q 3641 3956 3641 3272 
Q 3641 2581 3239 2228 
Q 2838 1875 2053 1875 
L 1259 1875 
L 1259 0 
L 628 0 
L 628 4666 
z
" transform="scale(0.015625)"/>
    </defs>
    <use xlink:href="#DejaVuSans-46"/>
    <use xlink:href="#DejaVuSans-65" transform="translate(52.019531 0)"/>
    <use xlink:href="#DejaVuSans-68" transform="translate(113.542969 0)"/>
    <use xlink:href="#DejaVuSans-6c" transform="translate(176.921875 0)"/>
    <use xlink:href="#DejaVuSans-65" transform="translate(204.705078 0)"/>
    <use xlink:href="#DejaVuSans-6e" transform="translate(266.228516 0)"/>
    <use xlink:href="#DejaVuSans-64" transform="translate(329.607422 0)"/>
    <use xlink:href="#DejaVuSans-65" transform="translate(393.083984 0)"/>
    <use xlink:href="#DejaVuSans-20" transform="translate(454.607422 0)"/>
    <use xlink:href="#DejaVuSans-49" transform="translate(486.394531 0)"/>
    <use xlink:href="#DejaVuSans-6e" transform="translate(515.886719 0)"/>
    <use xlink:href="#DejaVuSans-66" transform="translate(579.265625 0)"/>
    <use xlink:href="#DejaVuSans-6f" transform="translate(614.470703 0)"/>
    <use xlink:href="#DejaVuSans-72" transform="translate(675.652344 0)"/>
    <use xlink:href="#DejaVuSans-6d" transform="translate(715.015625 0)"/>
    <use xlink:href="#DejaVuSans-61" transform="translate(812.427734 0)"/>
    <use xlink:href="#DejaVuSans-74" transform="translate(873.707031 0)"/>
    <use xlink:href="#DejaVuSans-69" transform="translate(912.916016 0)"/>
    <use xlink:href="#DejaVuSans-6f" transform="translate(940.699219 0)"/>
    <use xlink:href="#DejaVuSans-6e" transform="translate(1001.880859 0)"/>
    <use xlink:href="#DejaVuSans-65" transform="translate(1065.259766 0)"/>
    <use xlink:href="#DejaVuSans-6e" transform="translate(1126.783203 0)"/>
    <use xlink:href="#DejaVuSans-20" transform="translate(1190.162109 0)"/>
    <use xlink:href="#DejaVuSans-7a" transform="translate(1221.949219 0)"/>
    <use xlink:href="#DejaVuSans-75" transform="translate(1274.439453 0)"/>
    <use xlink:href="#DejaVuSans-6d" transform="translate(1337.818359 0)"/>
    <use xlink:href="#DejaVuSans-20" transform="translate(1435.230469 0)"/>
    <use xlink:href="#DejaVuSans-52" transform="translate(1467.017578 0)"/>
    <use xlink:href="#DejaVuSans-65" transform="translate(1532 0)"/>
    <use xlink:href="#DejaVuSans-73" transform="translate(1593.523438 0)"/>
    <use xlink:href="#DejaVuSans-73" transform="translate(1645.623047 0)"/>
    <use xlink:href="#DejaVuSans-6f" transform="translate(1697.722656 0)"/>
    <use xlink:href="#DejaVuSans-75" transform="translate(1758.904297 0)"/>
    <use xlink:href="#DejaVuSans-72" transform="translate(1822.283203 0)"/>
    <use xlink:href="#DejaVuSans-63" transform="translate(1861.146484 0)"/>
    <use xlink:href="#DejaVuSans-65" transform="translate(1916.126953 0)"/>
    <use xlink:href="#DejaVuSans-6e" transform="translate(1977.650391 0)"/>
    <use xlink:href="#DejaVuSans-62" transform="translate(2041.029297 0)"/>
    <use xlink:href="#DejaVuSans-65" transform="translate(2104.505859 0)"/>
    <use xlink:href="#DejaVuSans-64" transform="translate(2166.029297 0)"/>
    <use xlink:href="#DejaVuSans-61" transform="translate(2229.505859 0)"/>
    <use xlink:href="#DejaVuSans-72" transform="translate(2290.785156 0)"/>
    <use xlink:href="#DejaVuSans-66" transform="translate(2331.898438 0)"/>
    <use xlink:href="#DejaVuSans-20" transform="translate(2367.103516 0)"/>
    <use xlink:href="#DejaVuSans-28" transform="translate(2398.890625 0)"/>
    <use xlink:href="#DejaVuSans-4d" transform="translate(2437.904297 0)"/>
    <use xlink:href="#DejaVuSans-61" transform="translate(2524.183594 0)"/>
    <use xlink:href="#DejaVuSans-74" transform="translate(2585.462891 0)"/>
    <use xlink:href="#DejaVuSans-65" transform="translate(2624.671875 0)"/>
    <use xlink:href="#DejaVuSans-72" transform="translate(2686.195312 0)"/>
    <use xlink:href="#DejaVuSans-69" transform="translate(2727.308594 0)"/>
    <use xlink:href="#DejaVuSans-61" transform="translate(2755.091797 0)"/>
    <use xlink:href="#DejaVuSans-6c" transform="translate(2816.371094 0)"/>
    <use xlink:href="#DejaVuSans-2c" transform="translate(2844.154297 0)"/>
    <use xlink:href="#DejaVuSans-20" transform="translate(2875.941406 0)"/>
    <use xlink:href="#DejaVuSans-45" transform="translate(2907.728516 0)"/>
    <use xlink:href="#DejaVuSans-6e" transform="translate(2970.912109 0)"/>
    <use xlink:href="#DejaVuSans-65" transform="translate(3034.291016 0)"/>
    <use xlink:href="#DejaVuSans-72" transform="translate(3095.814453 0)"/>
    <use xlink:href="#DejaVuSans-67" transform="translate(3135.177734 0)"/>
    <use xlink:href="#DejaVuSans-69" transform="translate(3198.654297 0)"/>
    <use xlink:href="#DejaVuSans-65" transform="translate(3226.4375 0)"/>
    <use xlink:href="#DejaVuSans-2c" transform="translate(3287.960938 0)"/>
    <use xlink:href="#DejaVuSans-2e" transform="translate(3319.748047 0)"/>
    <use xlink:href="#DejaVuSans-2e" transform="translate(3351.535156 0)"/>
    <use xlink:href="#DejaVuSans-2e" transform="translate(3383.322266 0)"/>
    <use xlink:href="#DejaVuSans-29" transform="translate(3415.109375 0)"/>
    <use xlink:href="#DejaVuSans-20" transform="translate(3454.123047 0)"/>
    <use xlink:href="#DejaVuSans-66" transform="translate(3485.910156 0)"/>
    <use xlink:href="#DejaVuSans-fc" transform="translate(3521.115234 0)"/>
    <use xlink:href="#DejaVuSans-72" transform="translate(3584.494141 0)"/>
    <use xlink:href="#DejaVuSans-20" transform="translate(3625.607422 0)"/>
    <use xlink:href="#DejaVuSans-64" transform="translate(3657.394531 0)"/>
    <use xlink:href="#DejaVuSans-69" transform="translate(3720.871094 0)"/>
    <use xlink:href="#DejaVuSans-65" transform="translate(3748.654297 0)"/>
    <use xlink:href="#DejaVuSans-20" transform="translate(3810.177734 0)"/>
    <use xlink:href="#DejaVuSans-50" transform="translate(3841.964844 0)"/>
    <use xlink:href="#DejaVuSans-72" transform="translate(3900.517578 0)"/>
    <use xlink:href="#DejaVuSans-6f" transform="translate(3939.380859 0)"/>
    <use xlink:href="#DejaVuSans-64" transform="translate(4000.5625 0)"/>
    <use xlink:href="#DejaVuSans-75" transform="translate(4064.039062 0)"/>
    <use xlink:href="#DejaVuSans-6b" transform="translate(4127.417969 0)"/>
    <use xlink:href="#DejaVuSans-74" transform="translate(4185.328125 0)"/>
    <use xlink:href="#DejaVuSans-61" transform="translate(4224.537109 0)"/>
    <use xlink:href="#DejaVuSans-75" transform="translate(4285.816406 0)"/>
    <use xlink:href="#DejaVuSans-66" transform="translate(4349.195312 0)"/>
    <use xlink:href="#DejaVuSans-62" transform="translate(4384.400391 0)"/>
    <use xlink:href="#DejaVuSans-65" transform="translate(4447.876953 0)"/>
    <use xlink:href="#DejaVuSans-72" transform="translate(4509.400391 0)"/>
    <use xlink:href="#DejaVuSans-65" transform="translate(4548.263672 0)"/>
    <use xlink:href="#DejaVuSans-69" transform="translate(4609.787109 0)"/>
    <use xlink:href="#DejaVuSans-74" transform="translate(4637.570312 0)"/>
    <use xlink:href="#DejaVuSans-75" transform="translate(4676.779297 0)"/>
    <use xlink:href="#DejaVuSans-6e" transform="translate(4740.158203 0)"/>
    <use xlink:href="#DejaVuSans-67" transform="translate(4803.537109 0)"/>
   </g>
  </g>
  <g id="text_8">
   <!-- Abbildung 34c: In welchem Maß stellen die folgenden Punkte ein Hemmnis für die -->
   <g transform="translate(242.240469 546.467047) scale(0.11 -0.11)">
    <defs>
     <path id="DejaVuSans-33" d="M 2597 2516 
Q 3050 2419 3304 2112 
Q 3559 1806 3559 1356 
Q 3559 666 3084 287 
Q 2609 -91 1734 -91 
Q 1441 -91 1130 -33 
Q 819 25 488 141 
L 488 750 
Q 750 597 1062 519 
Q 1375 441 1716 441 
Q 2309 441 2620 675 
Q 2931 909 2931 1356 
Q 2931 1769 2642 2001 
Q 2353 2234 1838 2234 
L 1294 2234 
L 1294 2753 
L 1863 2753 
Q 2328 2753 2575 2939 
Q 2822 3125 2822 3475 
Q 2822 3834 2567 4026 
Q 2313 4219 1838 4219 
Q 1578 4219 1281 4162 
Q 984 4106 628 3988 
L 628 4550 
Q 988 4650 1302 4700 
Q 1616 4750 1894 4750 
Q 2613 4750 3031 4423 
Q 3450 4097 3450 3541 
Q 3450 3153 3228 2886 
Q 3006 2619 2597 2516 
z
" transform="scale(0.015625)"/>
     <path id="DejaVuSans-3a" d="M 750 794 
L 1409 794 
L 1409 0 
L 750 0 
L 750 794 
z
M 750 3309 
L 1409 3309 
L 1409 2516 
L 750 2516 
L 750 3309 
z
" transform="scale(0.015625)"/>
     <path id="DejaVuSans-df" d="M 581 3553 
Q 581 4178 954 4520 
Q 1328 4863 2009 4863 
Q 2659 4863 3001 4500 
Q 3344 4138 3353 3438 
Q 2881 3413 2618 3233 
Q 2356 3053 2356 2753 
Q 2356 2606 2447 2479 
Q 2538 2353 2741 2222 
L 2919 2106 
Q 3438 1775 3588 1553 
Q 3738 1331 3738 1019 
Q 3738 481 3386 195 
Q 3034 -91 2375 -91 
Q 2175 -91 1962 -52 
Q 1750 -13 1522 63 
L 1522 575 
Q 1772 481 1990 436 
Q 2209 391 2413 391 
Q 2775 391 2962 539 
Q 3150 688 3150 972 
Q 3150 1169 3058 1300 
Q 2966 1431 2650 1625 
L 2363 1797 
Q 2063 1981 1927 2192 
Q 1791 2403 1791 2688 
Q 1791 3084 2052 3353 
Q 2313 3622 2784 3713 
Q 2759 4034 2554 4209 
Q 2350 4384 1997 4384 
Q 1591 4384 1378 4167 
Q 1166 3950 1166 3541 
L 1166 0 
L 581 0 
L 581 3553 
z
" transform="scale(0.015625)"/>
    </defs>
    <use xlink:href="#DejaVuSans-41"/>
    <use xlink:href="#DejaVuSans-62" transform="translate(68.408203 0)"/>
    <use xlink:href="#DejaVuSans-62" transform="translate(131.884766 0)"/>
    <use xlink:href="#DejaVuSans-69" transform="translate(195.361328 0)"/>
    <use xlink:href="#DejaVuSans-6c" transform="translate(223.144531 0)"/>
    <use xlink:href="#DejaVuSans-64" transform="translate(250.927734 0)"/>
    <use xlink:href="#DejaVuSans-75" transform="translate(314.404297 0)"/>
    <use xlink:href="#DejaVuSans-6e" transform="translate(377.783203 0)"/>
    <use xlink:href="#DejaVuSans-67" transform="translate(441.162109 0)"/>
    <use xlink:href="#DejaVuSans-20" transform="translate(504.638672 0)"/>
    <use xlink:href="#DejaVuSans-33" transform="translate(536.425781 0)"/>
    <use xlink:href="#DejaVuSans-34" transform="translate(600.048828 0)"/>
    <use xlink:href="#DejaVuSans-63" transform="translate(663.671875 0)"/>
    <use xlink:href="#DejaVuSans-3a" transform="translate(718.652344 0)"/>
    <use xlink:href="#DejaVuSans-20" transform="translate(752.34375 0)"/>
    <use xlink:href="#DejaVuSans-49" transform="translate(784.130859 0)"/>
    <use xlink:href="#DejaVuSans-6e" transform="translate(813.623047 0)"/>
    <use xlink:href="#DejaVuSans-20" transform="translate(877.001953 0)"/>
    <use xlink:href="#DejaVuSans-77" transform="translate(908.789062 0)"/>
    <use xlink:href="#DejaVuSans-65" transform="translate(990.576172 0)"/>
    <use xlink:href="#DejaVuSans-6c" transform="translate(1052.099609 0)"/>
    <use xlink:href="#DejaVuSans-63" transform="translate(1079.882812 0)"/>
    <use xlink:href="#DejaVuSans-68" transform="translate(1134.863281 0)"/>
    <use xlink:href="#DejaVuSans-65" transform="translate(1198.242188 0)"/>
    <use xlink:href="#DejaVuSans-6d" transform="translate(1259.765625 0)"/>
    <use xlink:href="#DejaVuSans-20" transform="translate(1357.177734 0)"/>
    <use xlink:href="#DejaVuSans-4d" transform="translate(1388.964844 0)"/>
    <use xlink:href="#DejaVuSans-61" transform="translate(1475.244141 0)"/>
    <use xlink:href="#DejaVuSans-df" transform="translate(1536.523438 0)"/>
    <use xlink:href="#DejaVuSans-20" transform="translate(1599.511719 0)"/>
    <use xlink:href="#DejaVuSans-73" transform="translate(1631.298828 0)"/>
    <use xlink:href="#DejaVuSans-74" transform="translate(1683.398438 0)"/>
    <use xlink:href="#DejaVuSans-65" transform="translate(1722.607422 0)"/>
    <use xlink:href="#DejaVuSans-6c" transform="translate(1784.130859 0)"/>
    <use xlink:href="#DejaVuSans-6c" transform="translate(1811.914062 0)"/>
    <use xlink:href="#DejaVuSans-65" transform="translate(1839.697266 0)"/>
    <use xlink:href="#DejaVuSans-6e" transform="translate(1901.220703 0)"/>
    <use xlink:href="#DejaVuSans-20" transform="translate(1964.599609 0)"/>
    <use xlink:href="#DejaVuSans-64" transform="translate(1996.386719 0)"/>
    <use xlink:href="#DejaVuSans-69" transform="translate(2059.863281 0)"/>
    <use xlink:href="#DejaVuSans-65" transform="translate(2087.646484 0)"/>
    <use xlink:href="#DejaVuSans-20" transform="translate(2149.169922 0)"/>
    <use xlink:href="#DejaVuSans-66" transform="translate(2180.957031 0)"/>
    <use xlink:href="#DejaVuSans-6f" transform="translate(2216.162109 0)"/>
    <use xlink:href="#DejaVuSans-6c" transform="translate(2277.34375 0)"/>
    <use xlink:href="#DejaVuSans-67" transform="translate(2305.126953 0)"/>
    <use xlink:href="#DejaVuSans-65" transform="translate(2368.603516 0)"/>
    <use xlink:href="#DejaVuSans-6e" transform="translate(2430.126953 0)"/>
    <use xlink:href="#DejaVuSans-64" transform="translate(2493.505859 0)"/>
    <use xlink:href="#DejaVuSans-65" transform="translate(2556.982422 0)"/>
    <use xlink:href="#DejaVuSans-6e" transform="translate(2618.505859 0)"/>
    <use xlink:href="#DejaVuSans-20" transform="translate(2681.884766 0)"/>
    <use xlink:href="#DejaVuSans-50" transform="translate(2713.671875 0)"/>
    <use xlink:href="#DejaVuSans-75" transform="translate(2772.224609 0)"/>
    <use xlink:href="#DejaVuSans-6e" transform="translate(2835.603516 0)"/>
    <use xlink:href="#DejaVuSans-6b" transform="translate(2898.982422 0)"/>
    <use xlink:href="#DejaVuSans-74" transform="translate(2956.892578 0)"/>
    <use xlink:href="#DejaVuSans-65" transform="translate(2996.101562 0)"/>
    <use xlink:href="#DejaVuSans-20" transform="translate(3057.625 0)"/>
    <use xlink:href="#DejaVuSans-65" transform="translate(3089.412109 0)"/>
    <use xlink:href="#DejaVuSans-69" transform="translate(3150.935547 0)"/>
    <use xlink:href="#DejaVuSans-6e" transform="translate(3178.71875 0)"/>
    <use xlink:href="#DejaVuSans-20" transform="translate(3242.097656 0)"/>
    <use xlink:href="#DejaVuSans-48" transform="translate(3273.884766 0)"/>
    <use xlink:href="#DejaVuSans-65" transform="translate(3349.080078 0)"/>
    <use xlink:href="#DejaVuSans-6d" transform="translate(3410.603516 0)"/>
    <use xlink:href="#DejaVuSans-6d" transform="translate(3508.015625 0)"/>
    <use xlink:href="#DejaVuSans-6e" transform="translate(3605.427734 0)"/>
    <use xlink:href="#DejaVuSans-69" transform="translate(3668.806641 0)"/>
    <use xlink:href="#DejaVuSans-73" transform="translate(3696.589844 0)"/>
    <use xlink:href="#DejaVuSans-20" transform="translate(3748.689453 0)"/>
    <use xlink:href="#DejaVuSans-66" transform="translate(3780.476562 0)"/>
    <use xlink:href="#DejaVuSans-fc" transform="translate(3815.681641 0)"/>
    <use xlink:href="#DejaVuSans-72" transform="translate(3879.060547 0)"/>
    <use xlink:href="#DejaVuSans-20" transform="translate(3920.173828 0)"/>
    <use xlink:href="#DejaVuSans-64" transform="translate(3951.960938 0)"/>
    <use xlink:href="#DejaVuSans-69" transform="translate(4015.4375 0)"/>
    <use xlink:href="#DejaVuSans-65" transform="translate(4043.220703 0)"/>
   </g>
   <!-- Umsetzung von Kreislaufwirtschaft in Ihrem Unternehmen dar? – Fehlende -->
   <g transform="translate(263.246172 557.948813) scale(0.11 -0.11)">
    <defs>
     <path id="DejaVuSans-55" d="M 556 4666 
L 1191 4666 
L 1191 1831 
Q 1191 1081 1462 751 
Q 1734 422 2344 422 
Q 2950 422 3222 751 
Q 3494 1081 3494 1831 
L 3494 4666 
L 4128 4666 
L 4128 1753 
Q 4128 841 3676 375 
Q 3225 -91 2344 -91 
Q 1459 -91 1007 375 
Q 556 841 556 1753 
L 556 4666 
z
" transform="scale(0.015625)"/>
     <path id="DejaVuSans-76" d="M 191 3500 
L 800 3500 
L 1894 563 
L 2988 3500 
L 3597 3500 
L 2284 0 
L 1503 0 
L 191 3500 
z
" transform="scale(0.015625)"/>
     <path id="DejaVuSans-3f" d="M 1222 794 
L 1856 794 
L 1856 0 
L 1222 0 
L 1222 794 
z
M 1838 1253 
L 1241 1253 
L 1241 1734 
Q 1241 2050 1328 2253 
Q 1416 2456 1697 2725 
L 1978 3003 
Q 2156 3169 2236 3316 
Q 2316 3463 2316 3616 
Q 2316 3894 2111 4066 
Q 1906 4238 1569 4238 
Q 1322 4238 1042 4128 
Q 763 4019 459 3809 
L 459 4397 
Q 753 4575 1054 4662 
Q 1356 4750 1678 4750 
Q 2253 4750 2601 4447 
Q 2950 4144 2950 3647 
Q 2950 3409 2837 3195 
Q 2725 2981 2444 2713 
L 2169 2444 
Q 2022 2297 1961 2214 
Q 1900 2131 1875 2053 
Q 1856 1988 1847 1894 
Q 1838 1800 1838 1638 
L 1838 1253 
z
" transform="scale(0.015625)"/>
     <path id="DejaVuSans-2013" d="M 313 1978 
L 2888 1978 
L 2888 1528 
L 313 1528 
L 313 1978 
z
" transform="scale(0.015625)"/>
    </defs>
    <use xlink:href="#DejaVuSans-55"/>
    <use xlink:href="#DejaVuSans-6d" transform="translate(73.193359 0)"/>
    <use xlink:href="#DejaVuSans-73" transform="translate(170.605469 0)"/>
    <use xlink:href="#DejaVuSans-65" transform="translate(222.705078 0)"/>
    <use xlink:href="#DejaVuSans-74" transform="translate(284.228516 0)"/>
    <use xlink:href="#DejaVuSans-7a" transform="translate(323.4375 0)"/>
    <use xlink:href="#DejaVuSans-75" transform="translate(375.927734 0)"/>
    <use xlink:href="#DejaVuSans-6e" transform="translate(439.306641 0)"/>
    <use xlink:href="#DejaVuSans-67" transform="translate(502.685547 0)"/>
    <use xlink:href="#DejaVuSans-20" transform="translate(566.162109 0)"/>
    <use xlink:href="#DejaVuSans-76" transform="translate(597.949219 0)"/>
    <use xlink:href="#DejaVuSans-6f" transform="translate(657.128906 0)"/>
    <use xlink:href="#DejaVuSans-6e" transform="translate(718.310547 0)"/>
    <use xlink:href="#DejaVuSans-20" transform="translate(781.689453 0)"/>
    <use xlink:href="#DejaVuSans-4b" transform="translate(813.476562 0)"/>
    <use xlink:href="#DejaVuSans-72" transform="translate(879.052734 0)"/>
    <use xlink:href="#DejaVuSans-65" transform="translate(917.916016 0)"/>
    <use xlink:href="#DejaVuSans-69" transform="translate(979.439453 0)"/>
    <use xlink:href="#DejaVuSans-73" transform="translate(1007.222656 0)"/>
    <use xlink:href="#DejaVuSans-6c" transform="translate(1059.322266 0)"/>
    <use xlink:href="#DejaVuSans-61" transform="translate(1087.105469 0)"/>
    <use xlink:href="#DejaVuSans-75" transform="translate(1148.384766 0)"/>
    <use xlink:href="#DejaVuSans-66" transform="translate(1211.763672 0)"/>
    <use xlink:href="#DejaVuSans-77" transform="translate(1245.21875 0)"/>
    <use xlink:href="#DejaVuSans-69" transform="translate(1327.005859 0)"/>
    <use xlink:href="#DejaVuSans-72" transform="translate(1354.789062 0)"/>
    <use xlink:href="#DejaVuSans-74" transform="translate(1395.902344 0)"/>
    <use xlink:href="#DejaVuSans-73" transform="translate(1435.111328 0)"/>
    <use xlink:href="#DejaVuSans-63" transform="translate(1487.210938 0)"/>
    <use xlink:href="#DejaVuSans-68" transform="translate(1542.191406 0)"/>
    <use xlink:href="#DejaVuSans-61" transform="translate(1605.570312 0)"/>
    <use xlink:href="#DejaVuSans-66" transform="translate(1666.849609 0)"/>
    <use xlink:href="#DejaVuSans-74" transform="translate(1700.304688 0)"/>
    <use xlink:href="#DejaVuSans-20" transform="translate(1739.513672 0)"/>
    <use xlink:href="#DejaVuSans-69" transform="translate(1771.300781 0)"/>
    <use xlink:href="#DejaVuSans-6e" transform="translate(1799.083984 0)"/>
    <use xlink:href="#DejaVuSans-20" transform="translate(1862.462891 0)"/>
    <use xlink:href="#DejaVuSans-49" transform="translate(1894.25 0)"/>
    <use xlink:href="#DejaVuSans-68" transform="translate(1923.742188 0)"/>
    <use xlink:href="#DejaVuSans-72" transform="translate(1987.121094 0)"/>
    <use xlink:href="#DejaVuSans-65" transform="translate(2025.984375 0)"/>
    <use xlink:href="#DejaVuSans-6d" transform="translate(2087.507812 0)"/>
    <use xlink:href="#DejaVuSans-20" transform="translate(2184.919922 0)"/>
    <use xlink:href="#DejaVuSans-55" transform="translate(2216.707031 0)"/>
    <use xlink:href="#DejaVuSans-6e" transform="translate(2289.900391 0)"/>
    <use xlink:href="#DejaVuSans-74" transform="translate(2353.279297 0)"/>
    <use xlink:href="#DejaVuSans-65" transform="translate(2392.488281 0)"/>
    <use xlink:href="#DejaVuSans-72" transform="translate(2454.011719 0)"/>
    <use xlink:href="#DejaVuSans-6e" transform="translate(2493.375 0)"/>
    <use xlink:href="#DejaVuSans-65" transform="translate(2556.753906 0)"/>
    <use xlink:href="#DejaVuSans-68" transform="translate(2618.277344 0)"/>
    <use xlink:href="#DejaVuSans-6d" transform="translate(2681.65625 0)"/>
    <use xlink:href="#DejaVuSans-65" transform="translate(2779.068359 0)"/>
    <use xlink:href="#DejaVuSans-6e" transform="translate(2840.591797 0)"/>
    <use xlink:href="#DejaVuSans-20" transform="translate(2903.970703 0)"/>
    <use xlink:href="#DejaVuSans-64" transform="translate(2935.757812 0)"/>
    <use xlink:href="#DejaVuSans-61" transform="translate(2999.234375 0)"/>
    <use xlink:href="#DejaVuSans-72" transform="translate(3060.513672 0)"/>
    <use xlink:href="#DejaVuSans-3f" transform="translate(3101.626953 0)"/>
    <use xlink:href="#DejaVuSans-20" transform="translate(3154.703125 0)"/>
    <use xlink:href="#DejaVuSans-2013" transform="translate(3186.490234 0)"/>
    <use xlink:href="#DejaVuSans-20" transform="translate(3236.490234 0)"/>
    <use xlink:href="#DejaVuSans-46" transform="translate(3268.277344 0)"/>
    <use xlink:href="#DejaVuSans-65" transform="translate(3320.296875 0)"/>
    <use xlink:href="#DejaVuSans-68" transform="translate(3381.820312 0)"/>
    <use xlink:href="#DejaVuSans-6c" transform="translate(3445.199219 0)"/>
    <use xlink:href="#DejaVuSans-65" transform="translate(3472.982422 0)"/>
    <use xlink:href="#DejaVuSans-6e" transform="translate(3534.505859 0)"/>
    <use xlink:href="#DejaVuSans-64" transform="translate(3597.884766 0)"/>
    <use xlink:href="#DejaVuSans-65" transform="translate(3661.361328 0)"/>
   </g>
   <!-- Informationen zum Ressourcenbedarf (Material, Energie,...) für die -->
   <g transform="translate(285.19375 569.430578) scale(0.11 -0.11)">
    <use xlink:href="#DejaVuSans-49"/>
    <use xlink:href="#DejaVuSans-6e" transform="translate(29.492188 0)"/>
    <use xlink:href="#DejaVuSans-66" transform="translate(92.871094 0)"/>
    <use xlink:href="#DejaVuSans-6f" transform="translate(128.076172 0)"/>
    <use xlink:href="#DejaVuSans-72" transform="translate(189.257812 0)"/>
    <use xlink:href="#DejaVuSans-6d" transform="translate(228.621094 0)"/>
    <use xlink:href="#DejaVuSans-61" transform="translate(326.033203 0)"/>
    <use xlink:href="#DejaVuSans-74" transform="translate(387.3125 0)"/>
    <use xlink:href="#DejaVuSans-69" transform="translate(426.521484 0)"/>
    <use xlink:href="#DejaVuSans-6f" transform="translate(454.304688 0)"/>
    <use xlink:href="#DejaVuSans-6e" transform="translate(515.486328 0)"/>
    <use xlink:href="#DejaVuSans-65" transform="translate(578.865234 0)"/>
    <use xlink:href="#DejaVuSans-6e" transform="translate(640.388672 0)"/>
    <use xlink:href="#DejaVuSans-20" transform="translate(703.767578 0)"/>
    <use xlink:href="#DejaVuSans-7a" transform="translate(735.554688 0)"/>
    <use xlink:href="#DejaVuSans-75" transform="translate(788.044922 0)"/>
    <use xlink:href="#DejaVuSans-6d" transform="translate(851.423828 0)"/>
    <use xlink:href="#DejaVuSans-20" transform="translate(948.835938 0)"/>
    <use xlink:href="#DejaVuSans-52" transform="translate(980.623047 0)"/>
    <use xlink:href="#DejaVuSans-65" transform="translate(1045.605469 0)"/>
    <use xlink:href="#DejaVuSans-73" transform="translate(1107.128906 0)"/>
    <use xlink:href="#DejaVuSans-73" transform="translate(1159.228516 0)"/>
    <use xlink:href="#DejaVuSans-6f" transform="translate(1211.328125 0)"/>
    <use xlink:href="#DejaVuSans-75" transform="translate(1272.509766 0)"/>
    <use xlink:href="#DejaVuSans-72" transform="translate(1335.888672 0)"/>
    <use xlink:href="#DejaVuSans-63" transform="translate(1374.751953 0)"/>
    <use xlink:href="#DejaVuSans-65" transform="translate(1429.732422 0)"/>
    <use xlink:href="#DejaVuSans-6e" transform="translate(1491.255859 0)"/>
    <use xlink:href="#DejaVuSans-62" transform="translate(1554.634766 0)"/>
    <use xlink:href="#DejaVuSans-65" transform="translate(1618.111328 0)"/>
    <use xlink:href="#DejaVuSans-64" transform="translate(1679.634766 0)"/>
    <use xlink:href="#DejaVuSans-61" transform="translate(1743.111328 0)"/>
    <use xlink:href="#DejaVuSans-72" transform="translate(1804.390625 0)"/>
    <use xlink:href="#DejaVuSans-66" transform="translate(1845.503906 0)"/>
    <use xlink:href="#DejaVuSans-20" transform="translate(1880.708984 0)"/>
    <use xlink:href="#DejaVuSans-28" transform="translate(1912.496094 0)"/>
    <use xlink:href="#DejaVuSans-4d" transform="translate(1951.509766 0)"/>
    <use xlink:href="#DejaVuSans-61" transform="translate(2037.789062 0)"/>
    <use xlink:href="#DejaVuSans-74" transform="translate(2099.068359 0)"/>
    <use xlink:href="#DejaVuSans-65" transform="translate(2138.277344 0)"/>
    <use xlink:href="#DejaVuSans-72" transform="translate(2199.800781 0)"/>
    <use xlink:href="#DejaVuSans-69" transform="translate(2240.914062 0)"/>
    <use xlink:href="#DejaVuSans-61" transform="translate(2268.697266 0)"/>
    <use xlink:href="#DejaVuSans-6c" transform="translate(2329.976562 0)"/>
    <use xlink:href="#DejaVuSans-2c" transform="translate(2357.759766 0)"/>
    <use xlink:href="#DejaVuSans-20" transform="translate(2389.546875 0)"/>
    <use xlink:href="#DejaVuSans-45" transform="translate(2421.333984 0)"/>
    <use xlink:href="#DejaVuSans-6e" transform="translate(2484.517578 0)"/>
    <use xlink:href="#DejaVuSans-65" transform="translate(2547.896484 0)"/>
    <use xlink:href="#DejaVuSans-72" transform="translate(2609.419922 0)"/>
    <use xlink:href="#DejaVuSans-67" transform="translate(2648.783203 0)"/>
    <use xlink:href="#DejaVuSans-69" transform="translate(2712.259766 0)"/>
    <use xlink:href="#DejaVuSans-65" transform="translate(2740.042969 0)"/>
    <use xlink:href="#DejaVuSans-2c" transform="translate(2801.566406 0)"/>
    <use xlink:href="#DejaVuSans-2e" transform="translate(2833.353516 0)"/>
    <use xlink:href="#DejaVuSans-2e" transform="translate(2865.140625 0)"/>
    <use xlink:href="#DejaVuSans-2e" transform="translate(2896.927734 0)"/>
    <use xlink:href="#DejaVuSans-29" transform="translate(2928.714844 0)"/>
    <use xlink:href="#DejaVuSans-20" transform="translate(2967.728516 0)"/>
    <use xlink:href="#DejaVuSans-66" transform="translate(2999.515625 0)"/>
    <use xlink:href="#DejaVuSans-fc" transform="translate(3034.720703 0)"/>
    <use xlink:href="#DejaVuSans-72" transform="translate(3098.099609 0)"/>
    <use xlink:href="#DejaVuSans-20" transform="translate(3139.212891 0)"/>
    <use xlink:href="#DejaVuSans-64" transform="translate(3171 0)"/>
    <use xlink:href="#DejaVuSans-69" transform="translate(3234.476562 0)"/>
    <use xlink:href="#DejaVuSans-65" transform="translate(3262.259766 0)"/>
   </g>
   <!-- Produktaufbereitung -->
   <g transform="translate(411.622422 580.912344) scale(0.11 -0.11)">
    <use xlink:href="#DejaVuSans-50"/>
    <use xlink:href="#DejaVuSans-72" transform="translate(58.552734 0)"/>
    <use xlink:href="#DejaVuSans-6f" transform="translate(97.416016 0)"/>
    <use xlink:href="#DejaVuSans-64" transform="translate(158.597656 0)"/>
    <use xlink:href="#DejaVuSans-75" transform="translate(222.074219 0)"/>
    <use xlink:href="#DejaVuSans-6b" transform="translate(285.453125 0)"/>
    <use xlink:href="#DejaVuSans-74" transform="translate(343.363281 0)"/>
    <use xlink:href="#DejaVuSans-61" transform="translate(382.572266 0)"/>
    <use xlink:href="#DejaVuSans-75" transform="translate(443.851562 0)"/>
    <use xlink:href="#DejaVuSans-66" transform="translate(507.230469 0)"/>
    <use xlink:href="#DejaVuSans-62" transform="translate(542.435547 0)"/>
    <use xlink:href="#DejaVuSans-65" transform="translate(605.912109 0)"/>
    <use xlink:href="#DejaVuSans-72" transform="translate(667.435547 0)"/>
    <use xlink:href="#DejaVuSans-65" transform="translate(706.298828 0)"/>
    <use xlink:href="#DejaVuSans-69" transform="translate(767.822266 0)"/>
    <use xlink:href="#DejaVuSans-74" transform="translate(795.605469 0)"/>
    <use xlink:href="#DejaVuSans-75" transform="translate(834.814453 0)"/>
    <use xlink:href="#DejaVuSans-6e" transform="translate(898.193359 0)"/>
    <use xlink:href="#DejaVuSans-67" transform="translate(961.572266 0)"/>
   </g>
  </g>
 </g>
 <defs>
  <clipPath id="p19b0c770c7">
   <rect x="254.16" y="51.84" width="427.68" height="427.68"/>
  </clipPath>
 </defs>
</svg>
