<?xml version="1.0" encoding="utf-8" standalone="no"?>
<!DOCTYPE svg PUBLIC "-//W3C//DTD SVG 1.1//EN"
  "http://www.w3.org/Graphics/SVG/1.1/DTD/svg11.dtd">
<svg xmlns:xlink="http://www.w3.org/1999/xlink" width="936pt" height="648pt" viewBox="0 0 936 648" xmlns="http://www.w3.org/2000/svg" version="1.1">
 <metadata>
  <rdf:RDF xmlns:dc="http://purl.org/dc/elements/1.1/" xmlns:cc="http://creativecommons.org/ns#" xmlns:rdf="http://www.w3.org/1999/02/22-rdf-syntax-ns#">
   <cc:Work>
    <dc:type rdf:resource="http://purl.org/dc/dcmitype/StillImage"/>
    <dc:date>2026-02-23T18:46:24.058660</dc:date>
    <dc:format>image/svg+xml</dc:format>
    <dc:creator>
     <cc:Agent>
      <dc:title>Matplotlib v3.10.8, https://matplotlib.org/</dc:title>
     </cc:Agent>
    </dc:creator>
   </cc:Work>
  </rdf:RDF>
 </metadata>
 <defs>
  <style type="text/css">*{stroke-linejoin: round; stroke-linecap: butt}</style>
 </defs>
 <g id="figure_1">
  <g id="patch_1">
   <path d="M 0 648 
L 936 648 
L 936 0 
L 0 0 
z
" style="fill: #ffffff"/>
  </g>
  <g id="axes_1">
   <g id="patch_2">
    <path d="M 574.370001 131.698465 
C 559.350905 119.774573 542.433186 110.460543 524.32557 104.146541 
C 506.217951 97.832539 487.176865 94.608 467.999993 94.608 
L 467.999995 154.4832 
C 480.464962 154.4832 492.841668 156.57915 504.61162 160.683251 
C 516.381571 164.787353 527.378088 170.841472 537.140501 178.592002 
z
" style="fill: #003b6a; stroke: #ffffff; stroke-linejoin: miter"/>
   </g>
   <g id="patch_3">
    <path d="M 638.098135 247.452195 
C 635.681092 224.896849 628.801694 203.045894 617.861231 183.174001 
C 606.920769 163.302114 592.136217 145.803336 574.370001 131.698465 
L 537.140501 178.592002 
C 548.688541 187.760169 558.2985 199.134374 565.4098 212.051101 
C 572.521101 224.967831 576.99271 239.170952 578.563788 253.831927 
z
" style="fill: #8fc73e; stroke: #ffffff; stroke-linejoin: miter"/>
   </g>
   <g id="patch_4">
    <path d="M 514.373064 430.34684 
C 553.269071 419.39304 587.053495 395.004321 609.695297 361.534434 
C 632.337099 328.064547 642.403726 287.631127 638.098135 247.452195 
L 578.563788 253.831927 
C 581.362422 279.948232 574.819115 306.229956 560.101943 327.985382 
C 545.384772 349.740809 523.424896 365.593476 498.142491 372.713446 
z
" style="fill: #dc912f; stroke: #ffffff; stroke-linejoin: miter"/>
   </g>
   <g id="patch_5">
    <path d="M 335.656165 374.080824 
C 356.741596 399.823489 384.886824 418.863251 416.626772 428.856043 
C 448.366723 438.848826 482.343132 439.367022 514.373064 430.34684 
L 498.142491 372.713446 
C 477.323036 378.576564 455.23837 378.239737 434.607402 371.744428 
C 413.976436 365.249113 395.682037 352.873268 381.976507 336.140536 
z
" style="fill: #93bbdc; stroke: #ffffff; stroke-linejoin: miter"/>
   </g>
   <g id="patch_6">
    <path d="M 302.645129 309.536552 
C 305.769302 321.315815 310.143231 332.727604 315.692349 343.577428 
C 321.241467 354.427252 327.934092 364.653142 335.656165 374.080824 
L 381.976507 336.140536 
C 376.95716 330.012542 372.606954 323.365714 369.000027 316.313328 
C 365.3931 309.260943 362.550046 301.84328 360.519334 294.186759 
z
" style="fill: #f9c803; stroke: #ffffff; stroke-linejoin: miter"/>
   </g>
   <g id="patch_7">
    <path d="M 468.000002 94.608 
C 441.797515 94.608 415.941983 100.628001 392.434324 112.202126 
C 368.926666 123.776252 348.389358 140.598041 332.411896 161.36559 
C 316.434433 182.133134 305.439857 206.296495 300.279029 231.985717 
C 295.11819 257.674939 295.927787 284.209736 302.645129 309.536552 
L 360.519334 294.186759 
C 356.153061 277.724328 355.626824 260.47671 358.981369 243.778716 
C 362.335907 227.080722 369.482382 211.374537 379.867732 197.875633 
C 390.253083 184.376726 403.602333 173.442564 418.882311 165.919382 
C 434.162289 158.396201 450.968385 154.4832 468.000001 154.4832 
z
" style="fill: #6283aa; stroke: #ffffff; stroke-linejoin: miter"/>
   </g>
   <g id="matplotlib.axis_1"/>
   <g id="matplotlib.axis_2"/>
   <g id="line2d_1">
    <path d="M 517.566503 123.530553 
L 529.958127 87.993186 
" clip-path="url(#p33cc1d315a)" style="fill: none; stroke: #000000; stroke-opacity: 0.35; stroke-linecap: square"/>
   </g>
   <g id="line2d_2">
    <path d="M 599.877887 193.074723 
L 632.847362 174.923399 
" clip-path="url(#p33cc1d315a)" style="fill: none; stroke: #000000; stroke-opacity: 0.35; stroke-linecap: square"/>
   </g>
   <g id="line2d_3">
    <path d="M 592.691865 350.0319 
L 623.864826 371.11988 
" clip-path="url(#p33cc1d315a)" style="fill: none; stroke: #000000; stroke-opacity: 0.35; stroke-linecap: square"/>
   </g>
   <g id="line2d_4">
    <path d="M 422.791561 409.274919 
L 411.489447 445.173647 
" clip-path="url(#p33cc1d315a)" style="fill: none; stroke: #000000; stroke-opacity: 0.35; stroke-linecap: square"/>
   </g>
   <g id="line2d_5">
    <path d="M 333.969266 334.229739 
L 300.46158 351.367176 
" clip-path="url(#p33cc1d315a)" style="fill: none; stroke: #000000; stroke-opacity: 0.35; stroke-linecap: square"/>
   </g>
   <g id="line2d_6">
    <path d="M 348.682472 173.883316 
L 318.853077 150.934146 
" clip-path="url(#p33cc1d315a)" style="fill: none; stroke: #000000; stroke-opacity: 0.35; stroke-linecap: square"/>
   </g>
   <g id="text_1">
    <!-- 11% -->
    <g transform="translate(538.406963 60.355731) scale(0.12 -0.12)">
     <defs>
      <path id="DejaVuSans-31" d="M 794 531 
L 1825 531 
L 1825 4091 
L 703 3866 
L 703 4441 
L 1819 4666 
L 2450 4666 
L 2450 531 
L 3481 531 
L 3481 0 
L 794 0 
L 794 531 
z
" transform="scale(0.015625)"/>
      <path id="DejaVuSans-25" d="M 4653 2053 
Q 4381 2053 4226 1822 
Q 4072 1591 4072 1178 
Q 4072 772 4226 539 
Q 4381 306 4653 306 
Q 4919 306 5073 539 
Q 5228 772 5228 1178 
Q 5228 1588 5073 1820 
Q 4919 2053 4653 2053 
z
M 4653 2450 
Q 5147 2450 5437 2106 
Q 5728 1763 5728 1178 
Q 5728 594 5436 251 
Q 5144 -91 4653 -91 
Q 4153 -91 3862 251 
Q 3572 594 3572 1178 
Q 3572 1766 3864 2108 
Q 4156 2450 4653 2450 
z
M 1428 4353 
Q 1159 4353 1004 4120 
Q 850 3888 850 3481 
Q 850 3069 1003 2837 
Q 1156 2606 1428 2606 
Q 1700 2606 1854 2837 
Q 2009 3069 2009 3481 
Q 2009 3884 1853 4118 
Q 1697 4353 1428 4353 
z
M 4250 4750 
L 4750 4750 
L 1831 -91 
L 1331 -91 
L 4250 4750 
z
M 1428 4750 
Q 1922 4750 2215 4408 
Q 2509 4066 2509 3481 
Q 2509 2891 2217 2550 
Q 1925 2209 1428 2209 
Q 931 2209 642 2551 
Q 353 2894 353 3481 
Q 353 4063 643 4406 
Q 934 4750 1428 4750 
z
" transform="scale(0.015625)"/>
     </defs>
     <use xlink:href="#DejaVuSans-31"/>
     <use xlink:href="#DejaVuSans-31" transform="translate(63.623047 0)"/>
     <use xlink:href="#DejaVuSans-25" transform="translate(127.246094 0)"/>
    </g>
    <!-- Kein Hemmnis -->
    <g transform="translate(538.406963 73.793106) scale(0.12 -0.12)">
     <defs>
      <path id="DejaVuSans-4b" d="M 628 4666 
L 1259 4666 
L 1259 2694 
L 3353 4666 
L 4166 4666 
L 1850 2491 
L 4331 0 
L 3500 0 
L 1259 2247 
L 1259 0 
L 628 0 
L 628 4666 
z
" transform="scale(0.015625)"/>
      <path id="DejaVuSans-65" d="M 3597 1894 
L 3597 1613 
L 953 1613 
Q 991 1019 1311 708 
Q 1631 397 2203 397 
Q 2534 397 2845 478 
Q 3156 559 3463 722 
L 3463 178 
Q 3153 47 2828 -22 
Q 2503 -91 2169 -91 
Q 1331 -91 842 396 
Q 353 884 353 1716 
Q 353 2575 817 3079 
Q 1281 3584 2069 3584 
Q 2775 3584 3186 3129 
Q 3597 2675 3597 1894 
z
M 3022 2063 
Q 3016 2534 2758 2815 
Q 2500 3097 2075 3097 
Q 1594 3097 1305 2825 
Q 1016 2553 972 2059 
L 3022 2063 
z
" transform="scale(0.015625)"/>
      <path id="DejaVuSans-69" d="M 603 3500 
L 1178 3500 
L 1178 0 
L 603 0 
L 603 3500 
z
M 603 4863 
L 1178 4863 
L 1178 4134 
L 603 4134 
L 603 4863 
z
" transform="scale(0.015625)"/>
      <path id="DejaVuSans-6e" d="M 3513 2113 
L 3513 0 
L 2938 0 
L 2938 2094 
Q 2938 2591 2744 2837 
Q 2550 3084 2163 3084 
Q 1697 3084 1428 2787 
Q 1159 2491 1159 1978 
L 1159 0 
L 581 0 
L 581 3500 
L 1159 3500 
L 1159 2956 
Q 1366 3272 1645 3428 
Q 1925 3584 2291 3584 
Q 2894 3584 3203 3211 
Q 3513 2838 3513 2113 
z
" transform="scale(0.015625)"/>
      <path id="DejaVuSans-20" transform="scale(0.015625)"/>
      <path id="DejaVuSans-48" d="M 628 4666 
L 1259 4666 
L 1259 2753 
L 3553 2753 
L 3553 4666 
L 4184 4666 
L 4184 0 
L 3553 0 
L 3553 2222 
L 1259 2222 
L 1259 0 
L 628 0 
L 628 4666 
z
" transform="scale(0.015625)"/>
      <path id="DejaVuSans-6d" d="M 3328 2828 
Q 3544 3216 3844 3400 
Q 4144 3584 4550 3584 
Q 5097 3584 5394 3201 
Q 5691 2819 5691 2113 
L 5691 0 
L 5113 0 
L 5113 2094 
Q 5113 2597 4934 2840 
Q 4756 3084 4391 3084 
Q 3944 3084 3684 2787 
Q 3425 2491 3425 1978 
L 3425 0 
L 2847 0 
L 2847 2094 
Q 2847 2600 2669 2842 
Q 2491 3084 2119 3084 
Q 1678 3084 1418 2786 
Q 1159 2488 1159 1978 
L 1159 0 
L 581 0 
L 581 3500 
L 1159 3500 
L 1159 2956 
Q 1356 3278 1631 3431 
Q 1906 3584 2284 3584 
Q 2666 3584 2933 3390 
Q 3200 3197 3328 2828 
z
" transform="scale(0.015625)"/>
      <path id="DejaVuSans-73" d="M 2834 3397 
L 2834 2853 
Q 2591 2978 2328 3040 
Q 2066 3103 1784 3103 
Q 1356 3103 1142 2972 
Q 928 2841 928 2578 
Q 928 2378 1081 2264 
Q 1234 2150 1697 2047 
L 1894 2003 
Q 2506 1872 2764 1633 
Q 3022 1394 3022 966 
Q 3022 478 2636 193 
Q 2250 -91 1575 -91 
Q 1294 -91 989 -36 
Q 684 19 347 128 
L 347 722 
Q 666 556 975 473 
Q 1284 391 1588 391 
Q 1994 391 2212 530 
Q 2431 669 2431 922 
Q 2431 1156 2273 1281 
Q 2116 1406 1581 1522 
L 1381 1569 
Q 847 1681 609 1914 
Q 372 2147 372 2553 
Q 372 3047 722 3315 
Q 1072 3584 1716 3584 
Q 2034 3584 2315 3537 
Q 2597 3491 2834 3397 
z
" transform="scale(0.015625)"/>
     </defs>
     <use xlink:href="#DejaVuSans-4b"/>
     <use xlink:href="#DejaVuSans-65" transform="translate(60.576172 0)"/>
     <use xlink:href="#DejaVuSans-69" transform="translate(122.099609 0)"/>
     <use xlink:href="#DejaVuSans-6e" transform="translate(149.882812 0)"/>
     <use xlink:href="#DejaVuSans-20" transform="translate(213.261719 0)"/>
     <use xlink:href="#DejaVuSans-48" transform="translate(245.048828 0)"/>
     <use xlink:href="#DejaVuSans-65" transform="translate(320.244141 0)"/>
     <use xlink:href="#DejaVuSans-6d" transform="translate(381.767578 0)"/>
     <use xlink:href="#DejaVuSans-6d" transform="translate(479.179688 0)"/>
     <use xlink:href="#DejaVuSans-6e" transform="translate(576.591797 0)"/>
     <use xlink:href="#DejaVuSans-69" transform="translate(639.970703 0)"/>
     <use xlink:href="#DejaVuSans-73" transform="translate(667.753906 0)"/>
    </g>
   </g>
   <g id="text_2">
    <!-- 13% -->
    <g transform="translate(655.326537 159.14006) scale(0.12 -0.12)">
     <defs>
      <path id="DejaVuSans-33" d="M 2597 2516 
Q 3050 2419 3304 2112 
Q 3559 1806 3559 1356 
Q 3559 666 3084 287 
Q 2609 -91 1734 -91 
Q 1441 -91 1130 -33 
Q 819 25 488 141 
L 488 750 
Q 750 597 1062 519 
Q 1375 441 1716 441 
Q 2309 441 2620 675 
Q 2931 909 2931 1356 
Q 2931 1769 2642 2001 
Q 2353 2234 1838 2234 
L 1294 2234 
L 1294 2753 
L 1863 2753 
Q 2328 2753 2575 2939 
Q 2822 3125 2822 3475 
Q 2822 3834 2567 4026 
Q 2313 4219 1838 4219 
Q 1578 4219 1281 4162 
Q 984 4106 628 3988 
L 628 4550 
Q 988 4650 1302 4700 
Q 1616 4750 1894 4750 
Q 2613 4750 3031 4423 
Q 3450 4097 3450 3541 
Q 3450 3153 3228 2886 
Q 3006 2619 2597 2516 
z
" transform="scale(0.015625)"/>
     </defs>
     <use xlink:href="#DejaVuSans-31"/>
     <use xlink:href="#DejaVuSans-33" transform="translate(63.623047 0)"/>
     <use xlink:href="#DejaVuSans-25" transform="translate(127.246094 0)"/>
    </g>
    <!-- Geringes Hemmnis -->
    <g transform="translate(655.326537 172.577435) scale(0.12 -0.12)">
     <defs>
      <path id="DejaVuSans-47" d="M 3809 666 
L 3809 1919 
L 2778 1919 
L 2778 2438 
L 4434 2438 
L 4434 434 
Q 4069 175 3628 42 
Q 3188 -91 2688 -91 
Q 1594 -91 976 548 
Q 359 1188 359 2328 
Q 359 3472 976 4111 
Q 1594 4750 2688 4750 
Q 3144 4750 3555 4637 
Q 3966 4525 4313 4306 
L 4313 3634 
Q 3963 3931 3569 4081 
Q 3175 4231 2741 4231 
Q 1884 4231 1454 3753 
Q 1025 3275 1025 2328 
Q 1025 1384 1454 906 
Q 1884 428 2741 428 
Q 3075 428 3337 486 
Q 3600 544 3809 666 
z
" transform="scale(0.015625)"/>
      <path id="DejaVuSans-72" d="M 2631 2963 
Q 2534 3019 2420 3045 
Q 2306 3072 2169 3072 
Q 1681 3072 1420 2755 
Q 1159 2438 1159 1844 
L 1159 0 
L 581 0 
L 581 3500 
L 1159 3500 
L 1159 2956 
Q 1341 3275 1631 3429 
Q 1922 3584 2338 3584 
Q 2397 3584 2469 3576 
Q 2541 3569 2628 3553 
L 2631 2963 
z
" transform="scale(0.015625)"/>
      <path id="DejaVuSans-67" d="M 2906 1791 
Q 2906 2416 2648 2759 
Q 2391 3103 1925 3103 
Q 1463 3103 1205 2759 
Q 947 2416 947 1791 
Q 947 1169 1205 825 
Q 1463 481 1925 481 
Q 2391 481 2648 825 
Q 2906 1169 2906 1791 
z
M 3481 434 
Q 3481 -459 3084 -895 
Q 2688 -1331 1869 -1331 
Q 1566 -1331 1297 -1286 
Q 1028 -1241 775 -1147 
L 775 -588 
Q 1028 -725 1275 -790 
Q 1522 -856 1778 -856 
Q 2344 -856 2625 -561 
Q 2906 -266 2906 331 
L 2906 616 
Q 2728 306 2450 153 
Q 2172 0 1784 0 
Q 1141 0 747 490 
Q 353 981 353 1791 
Q 353 2603 747 3093 
Q 1141 3584 1784 3584 
Q 2172 3584 2450 3431 
Q 2728 3278 2906 2969 
L 2906 3500 
L 3481 3500 
L 3481 434 
z
" transform="scale(0.015625)"/>
     </defs>
     <use xlink:href="#DejaVuSans-47"/>
     <use xlink:href="#DejaVuSans-65" transform="translate(77.490234 0)"/>
     <use xlink:href="#DejaVuSans-72" transform="translate(139.013672 0)"/>
     <use xlink:href="#DejaVuSans-69" transform="translate(180.126953 0)"/>
     <use xlink:href="#DejaVuSans-6e" transform="translate(207.910156 0)"/>
     <use xlink:href="#DejaVuSans-67" transform="translate(271.289062 0)"/>
     <use xlink:href="#DejaVuSans-65" transform="translate(334.765625 0)"/>
     <use xlink:href="#DejaVuSans-73" transform="translate(396.289062 0)"/>
     <use xlink:href="#DejaVuSans-20" transform="translate(448.388672 0)"/>
     <use xlink:href="#DejaVuSans-48" transform="translate(480.175781 0)"/>
     <use xlink:href="#DejaVuSans-65" transform="translate(555.371094 0)"/>
     <use xlink:href="#DejaVuSans-6d" transform="translate(616.894531 0)"/>
     <use xlink:href="#DejaVuSans-6d" transform="translate(714.306641 0)"/>
     <use xlink:href="#DejaVuSans-6e" transform="translate(811.71875 0)"/>
     <use xlink:href="#DejaVuSans-69" transform="translate(875.097656 0)"/>
     <use xlink:href="#DejaVuSans-73" transform="translate(902.880859 0)"/>
    </g>
   </g>
   <g id="text_3">
    <!-- 22% -->
    <g transform="translate(645.119124 382.090605) scale(0.12 -0.12)">
     <defs>
      <path id="DejaVuSans-32" d="M 1228 531 
L 3431 531 
L 3431 0 
L 469 0 
L 469 531 
Q 828 903 1448 1529 
Q 2069 2156 2228 2338 
Q 2531 2678 2651 2914 
Q 2772 3150 2772 3378 
Q 2772 3750 2511 3984 
Q 2250 4219 1831 4219 
Q 1534 4219 1204 4116 
Q 875 4013 500 3803 
L 500 4441 
Q 881 4594 1212 4672 
Q 1544 4750 1819 4750 
Q 2544 4750 2975 4387 
Q 3406 4025 3406 3419 
Q 3406 3131 3298 2873 
Q 3191 2616 2906 2266 
Q 2828 2175 2409 1742 
Q 1991 1309 1228 531 
z
" transform="scale(0.015625)"/>
     </defs>
     <use xlink:href="#DejaVuSans-32"/>
     <use xlink:href="#DejaVuSans-32" transform="translate(63.623047 0)"/>
     <use xlink:href="#DejaVuSans-25" transform="translate(127.246094 0)"/>
    </g>
    <!-- Mittleres Hemmnis -->
    <g transform="translate(645.119124 395.52798) scale(0.12 -0.12)">
     <defs>
      <path id="DejaVuSans-4d" d="M 628 4666 
L 1569 4666 
L 2759 1491 
L 3956 4666 
L 4897 4666 
L 4897 0 
L 4281 0 
L 4281 4097 
L 3078 897 
L 2444 897 
L 1241 4097 
L 1241 0 
L 628 0 
L 628 4666 
z
" transform="scale(0.015625)"/>
      <path id="DejaVuSans-74" d="M 1172 4494 
L 1172 3500 
L 2356 3500 
L 2356 3053 
L 1172 3053 
L 1172 1153 
Q 1172 725 1289 603 
Q 1406 481 1766 481 
L 2356 481 
L 2356 0 
L 1766 0 
Q 1100 0 847 248 
Q 594 497 594 1153 
L 594 3053 
L 172 3053 
L 172 3500 
L 594 3500 
L 594 4494 
L 1172 4494 
z
" transform="scale(0.015625)"/>
      <path id="DejaVuSans-6c" d="M 603 4863 
L 1178 4863 
L 1178 0 
L 603 0 
L 603 4863 
z
" transform="scale(0.015625)"/>
     </defs>
     <use xlink:href="#DejaVuSans-4d"/>
     <use xlink:href="#DejaVuSans-69" transform="translate(86.279297 0)"/>
     <use xlink:href="#DejaVuSans-74" transform="translate(114.0625 0)"/>
     <use xlink:href="#DejaVuSans-74" transform="translate(153.271484 0)"/>
     <use xlink:href="#DejaVuSans-6c" transform="translate(192.480469 0)"/>
     <use xlink:href="#DejaVuSans-65" transform="translate(220.263672 0)"/>
     <use xlink:href="#DejaVuSans-72" transform="translate(281.787109 0)"/>
     <use xlink:href="#DejaVuSans-65" transform="translate(320.650391 0)"/>
     <use xlink:href="#DejaVuSans-73" transform="translate(382.173828 0)"/>
     <use xlink:href="#DejaVuSans-20" transform="translate(434.273438 0)"/>
     <use xlink:href="#DejaVuSans-48" transform="translate(466.060547 0)"/>
     <use xlink:href="#DejaVuSans-65" transform="translate(541.255859 0)"/>
     <use xlink:href="#DejaVuSans-6d" transform="translate(602.779297 0)"/>
     <use xlink:href="#DejaVuSans-6d" transform="translate(700.191406 0)"/>
     <use xlink:href="#DejaVuSans-6e" transform="translate(797.603516 0)"/>
     <use xlink:href="#DejaVuSans-69" transform="translate(860.982422 0)"/>
     <use xlink:href="#DejaVuSans-73" transform="translate(888.765625 0)"/>
    </g>
   </g>
   <g id="text_4">
    <!-- 18% -->
    <g transform="translate(377.11159 466.242619) scale(0.12 -0.12)">
     <defs>
      <path id="DejaVuSans-38" d="M 2034 2216 
Q 1584 2216 1326 1975 
Q 1069 1734 1069 1313 
Q 1069 891 1326 650 
Q 1584 409 2034 409 
Q 2484 409 2743 651 
Q 3003 894 3003 1313 
Q 3003 1734 2745 1975 
Q 2488 2216 2034 2216 
z
M 1403 2484 
Q 997 2584 770 2862 
Q 544 3141 544 3541 
Q 544 4100 942 4425 
Q 1341 4750 2034 4750 
Q 2731 4750 3128 4425 
Q 3525 4100 3525 3541 
Q 3525 3141 3298 2862 
Q 3072 2584 2669 2484 
Q 3125 2378 3379 2068 
Q 3634 1759 3634 1313 
Q 3634 634 3220 271 
Q 2806 -91 2034 -91 
Q 1263 -91 848 271 
Q 434 634 434 1313 
Q 434 1759 690 2068 
Q 947 2378 1403 2484 
z
M 1172 3481 
Q 1172 3119 1398 2916 
Q 1625 2713 2034 2713 
Q 2441 2713 2670 2916 
Q 2900 3119 2900 3481 
Q 2900 3844 2670 4047 
Q 2441 4250 2034 4250 
Q 1625 4250 1398 4047 
Q 1172 3844 1172 3481 
z
" transform="scale(0.015625)"/>
     </defs>
     <use xlink:href="#DejaVuSans-31"/>
     <use xlink:href="#DejaVuSans-38" transform="translate(63.623047 0)"/>
     <use xlink:href="#DejaVuSans-25" transform="translate(127.246094 0)"/>
    </g>
    <!-- Starkes Hemmnis -->
    <g transform="translate(298.235965 479.679994) scale(0.12 -0.12)">
     <defs>
      <path id="DejaVuSans-53" d="M 3425 4513 
L 3425 3897 
Q 3066 4069 2747 4153 
Q 2428 4238 2131 4238 
Q 1616 4238 1336 4038 
Q 1056 3838 1056 3469 
Q 1056 3159 1242 3001 
Q 1428 2844 1947 2747 
L 2328 2669 
Q 3034 2534 3370 2195 
Q 3706 1856 3706 1288 
Q 3706 609 3251 259 
Q 2797 -91 1919 -91 
Q 1588 -91 1214 -16 
Q 841 59 441 206 
L 441 856 
Q 825 641 1194 531 
Q 1563 422 1919 422 
Q 2459 422 2753 634 
Q 3047 847 3047 1241 
Q 3047 1584 2836 1778 
Q 2625 1972 2144 2069 
L 1759 2144 
Q 1053 2284 737 2584 
Q 422 2884 422 3419 
Q 422 4038 858 4394 
Q 1294 4750 2059 4750 
Q 2388 4750 2728 4690 
Q 3069 4631 3425 4513 
z
" transform="scale(0.015625)"/>
      <path id="DejaVuSans-61" d="M 2194 1759 
Q 1497 1759 1228 1600 
Q 959 1441 959 1056 
Q 959 750 1161 570 
Q 1363 391 1709 391 
Q 2188 391 2477 730 
Q 2766 1069 2766 1631 
L 2766 1759 
L 2194 1759 
z
M 3341 1997 
L 3341 0 
L 2766 0 
L 2766 531 
Q 2569 213 2275 61 
Q 1981 -91 1556 -91 
Q 1019 -91 701 211 
Q 384 513 384 1019 
Q 384 1609 779 1909 
Q 1175 2209 1959 2209 
L 2766 2209 
L 2766 2266 
Q 2766 2663 2505 2880 
Q 2244 3097 1772 3097 
Q 1472 3097 1187 3025 
Q 903 2953 641 2809 
L 641 3341 
Q 956 3463 1253 3523 
Q 1550 3584 1831 3584 
Q 2591 3584 2966 3190 
Q 3341 2797 3341 1997 
z
" transform="scale(0.015625)"/>
      <path id="DejaVuSans-6b" d="M 581 4863 
L 1159 4863 
L 1159 1991 
L 2875 3500 
L 3609 3500 
L 1753 1863 
L 3688 0 
L 2938 0 
L 1159 1709 
L 1159 0 
L 581 0 
L 581 4863 
z
" transform="scale(0.015625)"/>
     </defs>
     <use xlink:href="#DejaVuSans-53"/>
     <use xlink:href="#DejaVuSans-74" transform="translate(63.476562 0)"/>
     <use xlink:href="#DejaVuSans-61" transform="translate(102.685547 0)"/>
     <use xlink:href="#DejaVuSans-72" transform="translate(163.964844 0)"/>
     <use xlink:href="#DejaVuSans-6b" transform="translate(205.078125 0)"/>
     <use xlink:href="#DejaVuSans-65" transform="translate(259.363281 0)"/>
     <use xlink:href="#DejaVuSans-73" transform="translate(320.886719 0)"/>
     <use xlink:href="#DejaVuSans-20" transform="translate(372.986328 0)"/>
     <use xlink:href="#DejaVuSans-48" transform="translate(404.773438 0)"/>
     <use xlink:href="#DejaVuSans-65" transform="translate(479.96875 0)"/>
     <use xlink:href="#DejaVuSans-6d" transform="translate(541.492188 0)"/>
     <use xlink:href="#DejaVuSans-6d" transform="translate(638.904297 0)"/>
     <use xlink:href="#DejaVuSans-6e" transform="translate(736.316406 0)"/>
     <use xlink:href="#DejaVuSans-69" transform="translate(799.695312 0)"/>
     <use xlink:href="#DejaVuSans-73" transform="translate(827.478516 0)"/>
    </g>
   </g>
   <g id="text_5">
    <!-- 7% -->
    <g transform="translate(258.578561 359.644345) scale(0.12 -0.12)">
     <defs>
      <path id="DejaVuSans-37" d="M 525 4666 
L 3525 4666 
L 3525 4397 
L 1831 0 
L 1172 0 
L 2766 4134 
L 525 4134 
L 525 4666 
z
" transform="scale(0.015625)"/>
     </defs>
     <use xlink:href="#DejaVuSans-37"/>
     <use xlink:href="#DejaVuSans-25" transform="translate(63.623047 0)"/>
    </g>
    <!-- Sehr starkes Hemmnis -->
    <g transform="translate(142.081061 373.08172) scale(0.12 -0.12)">
     <defs>
      <path id="DejaVuSans-68" d="M 3513 2113 
L 3513 0 
L 2938 0 
L 2938 2094 
Q 2938 2591 2744 2837 
Q 2550 3084 2163 3084 
Q 1697 3084 1428 2787 
Q 1159 2491 1159 1978 
L 1159 0 
L 581 0 
L 581 4863 
L 1159 4863 
L 1159 2956 
Q 1366 3272 1645 3428 
Q 1925 3584 2291 3584 
Q 2894 3584 3203 3211 
Q 3513 2838 3513 2113 
z
" transform="scale(0.015625)"/>
     </defs>
     <use xlink:href="#DejaVuSans-53"/>
     <use xlink:href="#DejaVuSans-65" transform="translate(63.476562 0)"/>
     <use xlink:href="#DejaVuSans-68" transform="translate(125 0)"/>
     <use xlink:href="#DejaVuSans-72" transform="translate(188.378906 0)"/>
     <use xlink:href="#DejaVuSans-20" transform="translate(229.492188 0)"/>
     <use xlink:href="#DejaVuSans-73" transform="translate(261.279297 0)"/>
     <use xlink:href="#DejaVuSans-74" transform="translate(313.378906 0)"/>
     <use xlink:href="#DejaVuSans-61" transform="translate(352.587891 0)"/>
     <use xlink:href="#DejaVuSans-72" transform="translate(413.867188 0)"/>
     <use xlink:href="#DejaVuSans-6b" transform="translate(454.980469 0)"/>
     <use xlink:href="#DejaVuSans-65" transform="translate(509.265625 0)"/>
     <use xlink:href="#DejaVuSans-73" transform="translate(570.789062 0)"/>
     <use xlink:href="#DejaVuSans-20" transform="translate(622.888672 0)"/>
     <use xlink:href="#DejaVuSans-48" transform="translate(654.675781 0)"/>
     <use xlink:href="#DejaVuSans-65" transform="translate(729.871094 0)"/>
     <use xlink:href="#DejaVuSans-6d" transform="translate(791.394531 0)"/>
     <use xlink:href="#DejaVuSans-6d" transform="translate(888.806641 0)"/>
     <use xlink:href="#DejaVuSans-6e" transform="translate(986.21875 0)"/>
     <use xlink:href="#DejaVuSans-69" transform="translate(1049.597656 0)"/>
     <use xlink:href="#DejaVuSans-73" transform="translate(1077.380859 0)"/>
    </g>
   </g>
   <g id="text_6">
    <!-- 29% -->
    <g transform="translate(271.842994 131.879547) scale(0.12 -0.12)">
     <defs>
      <path id="DejaVuSans-39" d="M 703 97 
L 703 672 
Q 941 559 1184 500 
Q 1428 441 1663 441 
Q 2288 441 2617 861 
Q 2947 1281 2994 2138 
Q 2813 1869 2534 1725 
Q 2256 1581 1919 1581 
Q 1219 1581 811 2004 
Q 403 2428 403 3163 
Q 403 3881 828 4315 
Q 1253 4750 1959 4750 
Q 2769 4750 3195 4129 
Q 3622 3509 3622 2328 
Q 3622 1225 3098 567 
Q 2575 -91 1691 -91 
Q 1453 -91 1209 -44 
Q 966 3 703 97 
z
M 1959 2075 
Q 2384 2075 2632 2365 
Q 2881 2656 2881 3163 
Q 2881 3666 2632 3958 
Q 2384 4250 1959 4250 
Q 1534 4250 1286 3958 
Q 1038 3666 1038 3163 
Q 1038 2656 1286 2365 
Q 1534 2075 1959 2075 
z
" transform="scale(0.015625)"/>
     </defs>
     <use xlink:href="#DejaVuSans-32"/>
     <use xlink:href="#DejaVuSans-39" transform="translate(63.623047 0)"/>
     <use xlink:href="#DejaVuSans-25" transform="translate(127.246094 0)"/>
    </g>
    <!-- Keine Antwort -->
    <g transform="translate(214.413619 145.316922) scale(0.12 -0.12)">
     <defs>
      <path id="DejaVuSans-41" d="M 2188 4044 
L 1331 1722 
L 3047 1722 
L 2188 4044 
z
M 1831 4666 
L 2547 4666 
L 4325 0 
L 3669 0 
L 3244 1197 
L 1141 1197 
L 716 0 
L 50 0 
L 1831 4666 
z
" transform="scale(0.015625)"/>
      <path id="DejaVuSans-77" d="M 269 3500 
L 844 3500 
L 1563 769 
L 2278 3500 
L 2956 3500 
L 3675 769 
L 4391 3500 
L 4966 3500 
L 4050 0 
L 3372 0 
L 2619 2869 
L 1863 0 
L 1184 0 
L 269 3500 
z
" transform="scale(0.015625)"/>
      <path id="DejaVuSans-6f" d="M 1959 3097 
Q 1497 3097 1228 2736 
Q 959 2375 959 1747 
Q 959 1119 1226 758 
Q 1494 397 1959 397 
Q 2419 397 2687 759 
Q 2956 1122 2956 1747 
Q 2956 2369 2687 2733 
Q 2419 3097 1959 3097 
z
M 1959 3584 
Q 2709 3584 3137 3096 
Q 3566 2609 3566 1747 
Q 3566 888 3137 398 
Q 2709 -91 1959 -91 
Q 1206 -91 779 398 
Q 353 888 353 1747 
Q 353 2609 779 3096 
Q 1206 3584 1959 3584 
z
" transform="scale(0.015625)"/>
     </defs>
     <use xlink:href="#DejaVuSans-4b"/>
     <use xlink:href="#DejaVuSans-65" transform="translate(60.576172 0)"/>
     <use xlink:href="#DejaVuSans-69" transform="translate(122.099609 0)"/>
     <use xlink:href="#DejaVuSans-6e" transform="translate(149.882812 0)"/>
     <use xlink:href="#DejaVuSans-65" transform="translate(213.261719 0)"/>
     <use xlink:href="#DejaVuSans-20" transform="translate(274.785156 0)"/>
     <use xlink:href="#DejaVuSans-41" transform="translate(306.572266 0)"/>
     <use xlink:href="#DejaVuSans-6e" transform="translate(374.980469 0)"/>
     <use xlink:href="#DejaVuSans-74" transform="translate(438.359375 0)"/>
     <use xlink:href="#DejaVuSans-77" transform="translate(477.568359 0)"/>
     <use xlink:href="#DejaVuSans-6f" transform="translate(559.355469 0)"/>
     <use xlink:href="#DejaVuSans-72" transform="translate(620.537109 0)"/>
     <use xlink:href="#DejaVuSans-74" transform="translate(661.650391 0)"/>
    </g>
   </g>
  </g>
  <g id="text_7">
   <!-- Geringe Vorbereitung auf anstehende Regelungen (z.B. Packing Waste Regulation, Ecodesign Regulation, Circular Economy Act) -->
   <g transform="translate(83.818125 22.078125) scale(0.12 -0.12)">
    <defs>
     <path id="DejaVuSans-56" d="M 1831 0 
L 50 4666 
L 709 4666 
L 2188 738 
L 3669 4666 
L 4325 4666 
L 2547 0 
L 1831 0 
z
" transform="scale(0.015625)"/>
     <path id="DejaVuSans-62" d="M 3116 1747 
Q 3116 2381 2855 2742 
Q 2594 3103 2138 3103 
Q 1681 3103 1420 2742 
Q 1159 2381 1159 1747 
Q 1159 1113 1420 752 
Q 1681 391 2138 391 
Q 2594 391 2855 752 
Q 3116 1113 3116 1747 
z
M 1159 2969 
Q 1341 3281 1617 3432 
Q 1894 3584 2278 3584 
Q 2916 3584 3314 3078 
Q 3713 2572 3713 1747 
Q 3713 922 3314 415 
Q 2916 -91 2278 -91 
Q 1894 -91 1617 61 
Q 1341 213 1159 525 
L 1159 0 
L 581 0 
L 581 4863 
L 1159 4863 
L 1159 2969 
z
" transform="scale(0.015625)"/>
     <path id="DejaVuSans-75" d="M 544 1381 
L 544 3500 
L 1119 3500 
L 1119 1403 
Q 1119 906 1312 657 
Q 1506 409 1894 409 
Q 2359 409 2629 706 
Q 2900 1003 2900 1516 
L 2900 3500 
L 3475 3500 
L 3475 0 
L 2900 0 
L 2900 538 
Q 2691 219 2414 64 
Q 2138 -91 1772 -91 
Q 1169 -91 856 284 
Q 544 659 544 1381 
z
M 1991 3584 
L 1991 3584 
z
" transform="scale(0.015625)"/>
     <path id="DejaVuSans-66" d="M 2375 4863 
L 2375 4384 
L 1825 4384 
Q 1516 4384 1395 4259 
Q 1275 4134 1275 3809 
L 1275 3500 
L 2222 3500 
L 2222 3053 
L 1275 3053 
L 1275 0 
L 697 0 
L 697 3053 
L 147 3053 
L 147 3500 
L 697 3500 
L 697 3744 
Q 697 4328 969 4595 
Q 1241 4863 1831 4863 
L 2375 4863 
z
" transform="scale(0.015625)"/>
     <path id="DejaVuSans-64" d="M 2906 2969 
L 2906 4863 
L 3481 4863 
L 3481 0 
L 2906 0 
L 2906 525 
Q 2725 213 2448 61 
Q 2172 -91 1784 -91 
Q 1150 -91 751 415 
Q 353 922 353 1747 
Q 353 2572 751 3078 
Q 1150 3584 1784 3584 
Q 2172 3584 2448 3432 
Q 2725 3281 2906 2969 
z
M 947 1747 
Q 947 1113 1208 752 
Q 1469 391 1925 391 
Q 2381 391 2643 752 
Q 2906 1113 2906 1747 
Q 2906 2381 2643 2742 
Q 2381 3103 1925 3103 
Q 1469 3103 1208 2742 
Q 947 2381 947 1747 
z
" transform="scale(0.015625)"/>
     <path id="DejaVuSans-52" d="M 2841 2188 
Q 3044 2119 3236 1894 
Q 3428 1669 3622 1275 
L 4263 0 
L 3584 0 
L 2988 1197 
Q 2756 1666 2539 1819 
Q 2322 1972 1947 1972 
L 1259 1972 
L 1259 0 
L 628 0 
L 628 4666 
L 2053 4666 
Q 2853 4666 3247 4331 
Q 3641 3997 3641 3322 
Q 3641 2881 3436 2590 
Q 3231 2300 2841 2188 
z
M 1259 4147 
L 1259 2491 
L 2053 2491 
Q 2509 2491 2742 2702 
Q 2975 2913 2975 3322 
Q 2975 3731 2742 3939 
Q 2509 4147 2053 4147 
L 1259 4147 
z
" transform="scale(0.015625)"/>
     <path id="DejaVuSans-28" d="M 1984 4856 
Q 1566 4138 1362 3434 
Q 1159 2731 1159 2009 
Q 1159 1288 1364 580 
Q 1569 -128 1984 -844 
L 1484 -844 
Q 1016 -109 783 600 
Q 550 1309 550 2009 
Q 550 2706 781 3412 
Q 1013 4119 1484 4856 
L 1984 4856 
z
" transform="scale(0.015625)"/>
     <path id="DejaVuSans-7a" d="M 353 3500 
L 3084 3500 
L 3084 2975 
L 922 459 
L 3084 459 
L 3084 0 
L 275 0 
L 275 525 
L 2438 3041 
L 353 3041 
L 353 3500 
z
" transform="scale(0.015625)"/>
     <path id="DejaVuSans-2e" d="M 684 794 
L 1344 794 
L 1344 0 
L 684 0 
L 684 794 
z
" transform="scale(0.015625)"/>
     <path id="DejaVuSans-42" d="M 1259 2228 
L 1259 519 
L 2272 519 
Q 2781 519 3026 730 
Q 3272 941 3272 1375 
Q 3272 1813 3026 2020 
Q 2781 2228 2272 2228 
L 1259 2228 
z
M 1259 4147 
L 1259 2741 
L 2194 2741 
Q 2656 2741 2882 2914 
Q 3109 3088 3109 3444 
Q 3109 3797 2882 3972 
Q 2656 4147 2194 4147 
L 1259 4147 
z
M 628 4666 
L 2241 4666 
Q 2963 4666 3353 4366 
Q 3744 4066 3744 3513 
Q 3744 3084 3544 2831 
Q 3344 2578 2956 2516 
Q 3422 2416 3680 2098 
Q 3938 1781 3938 1306 
Q 3938 681 3513 340 
Q 3088 0 2303 0 
L 628 0 
L 628 4666 
z
" transform="scale(0.015625)"/>
     <path id="DejaVuSans-50" d="M 1259 4147 
L 1259 2394 
L 2053 2394 
Q 2494 2394 2734 2622 
Q 2975 2850 2975 3272 
Q 2975 3691 2734 3919 
Q 2494 4147 2053 4147 
L 1259 4147 
z
M 628 4666 
L 2053 4666 
Q 2838 4666 3239 4311 
Q 3641 3956 3641 3272 
Q 3641 2581 3239 2228 
Q 2838 1875 2053 1875 
L 1259 1875 
L 1259 0 
L 628 0 
L 628 4666 
z
" transform="scale(0.015625)"/>
     <path id="DejaVuSans-63" d="M 3122 3366 
L 3122 2828 
Q 2878 2963 2633 3030 
Q 2388 3097 2138 3097 
Q 1578 3097 1268 2742 
Q 959 2388 959 1747 
Q 959 1106 1268 751 
Q 1578 397 2138 397 
Q 2388 397 2633 464 
Q 2878 531 3122 666 
L 3122 134 
Q 2881 22 2623 -34 
Q 2366 -91 2075 -91 
Q 1284 -91 818 406 
Q 353 903 353 1747 
Q 353 2603 823 3093 
Q 1294 3584 2113 3584 
Q 2378 3584 2631 3529 
Q 2884 3475 3122 3366 
z
" transform="scale(0.015625)"/>
     <path id="DejaVuSans-57" d="M 213 4666 
L 850 4666 
L 1831 722 
L 2809 4666 
L 3519 4666 
L 4500 722 
L 5478 4666 
L 6119 4666 
L 4947 0 
L 4153 0 
L 3169 4050 
L 2175 0 
L 1381 0 
L 213 4666 
z
" transform="scale(0.015625)"/>
     <path id="DejaVuSans-2c" d="M 750 794 
L 1409 794 
L 1409 256 
L 897 -744 
L 494 -744 
L 750 256 
L 750 794 
z
" transform="scale(0.015625)"/>
     <path id="DejaVuSans-45" d="M 628 4666 
L 3578 4666 
L 3578 4134 
L 1259 4134 
L 1259 2753 
L 3481 2753 
L 3481 2222 
L 1259 2222 
L 1259 531 
L 3634 531 
L 3634 0 
L 628 0 
L 628 4666 
z
" transform="scale(0.015625)"/>
     <path id="DejaVuSans-43" d="M 4122 4306 
L 4122 3641 
Q 3803 3938 3442 4084 
Q 3081 4231 2675 4231 
Q 1875 4231 1450 3742 
Q 1025 3253 1025 2328 
Q 1025 1406 1450 917 
Q 1875 428 2675 428 
Q 3081 428 3442 575 
Q 3803 722 4122 1019 
L 4122 359 
Q 3791 134 3420 21 
Q 3050 -91 2638 -91 
Q 1578 -91 968 557 
Q 359 1206 359 2328 
Q 359 3453 968 4101 
Q 1578 4750 2638 4750 
Q 3056 4750 3426 4639 
Q 3797 4528 4122 4306 
z
" transform="scale(0.015625)"/>
     <path id="DejaVuSans-79" d="M 2059 -325 
Q 1816 -950 1584 -1140 
Q 1353 -1331 966 -1331 
L 506 -1331 
L 506 -850 
L 844 -850 
Q 1081 -850 1212 -737 
Q 1344 -625 1503 -206 
L 1606 56 
L 191 3500 
L 800 3500 
L 1894 763 
L 2988 3500 
L 3597 3500 
L 2059 -325 
z
" transform="scale(0.015625)"/>
     <path id="DejaVuSans-29" d="M 513 4856 
L 1013 4856 
Q 1481 4119 1714 3412 
Q 1947 2706 1947 2009 
Q 1947 1309 1714 600 
Q 1481 -109 1013 -844 
L 513 -844 
Q 928 -128 1133 580 
Q 1338 1288 1338 2009 
Q 1338 2731 1133 3434 
Q 928 4138 513 4856 
z
" transform="scale(0.015625)"/>
    </defs>
    <use xlink:href="#DejaVuSans-47"/>
    <use xlink:href="#DejaVuSans-65" transform="translate(77.490234 0)"/>
    <use xlink:href="#DejaVuSans-72" transform="translate(139.013672 0)"/>
    <use xlink:href="#DejaVuSans-69" transform="translate(180.126953 0)"/>
    <use xlink:href="#DejaVuSans-6e" transform="translate(207.910156 0)"/>
    <use xlink:href="#DejaVuSans-67" transform="translate(271.289062 0)"/>
    <use xlink:href="#DejaVuSans-65" transform="translate(334.765625 0)"/>
    <use xlink:href="#DejaVuSans-20" transform="translate(396.289062 0)"/>
    <use xlink:href="#DejaVuSans-56" transform="translate(428.076172 0)"/>
    <use xlink:href="#DejaVuSans-6f" transform="translate(488.734375 0)"/>
    <use xlink:href="#DejaVuSans-72" transform="translate(549.916016 0)"/>
    <use xlink:href="#DejaVuSans-62" transform="translate(591.029297 0)"/>
    <use xlink:href="#DejaVuSans-65" transform="translate(654.505859 0)"/>
    <use xlink:href="#DejaVuSans-72" transform="translate(716.029297 0)"/>
    <use xlink:href="#DejaVuSans-65" transform="translate(754.892578 0)"/>
    <use xlink:href="#DejaVuSans-69" transform="translate(816.416016 0)"/>
    <use xlink:href="#DejaVuSans-74" transform="translate(844.199219 0)"/>
    <use xlink:href="#DejaVuSans-75" transform="translate(883.408203 0)"/>
    <use xlink:href="#DejaVuSans-6e" transform="translate(946.787109 0)"/>
    <use xlink:href="#DejaVuSans-67" transform="translate(1010.166016 0)"/>
    <use xlink:href="#DejaVuSans-20" transform="translate(1073.642578 0)"/>
    <use xlink:href="#DejaVuSans-61" transform="translate(1105.429688 0)"/>
    <use xlink:href="#DejaVuSans-75" transform="translate(1166.708984 0)"/>
    <use xlink:href="#DejaVuSans-66" transform="translate(1230.087891 0)"/>
    <use xlink:href="#DejaVuSans-20" transform="translate(1265.292969 0)"/>
    <use xlink:href="#DejaVuSans-61" transform="translate(1297.080078 0)"/>
    <use xlink:href="#DejaVuSans-6e" transform="translate(1358.359375 0)"/>
    <use xlink:href="#DejaVuSans-73" transform="translate(1421.738281 0)"/>
    <use xlink:href="#DejaVuSans-74" transform="translate(1473.837891 0)"/>
    <use xlink:href="#DejaVuSans-65" transform="translate(1513.046875 0)"/>
    <use xlink:href="#DejaVuSans-68" transform="translate(1574.570312 0)"/>
    <use xlink:href="#DejaVuSans-65" transform="translate(1637.949219 0)"/>
    <use xlink:href="#DejaVuSans-6e" transform="translate(1699.472656 0)"/>
    <use xlink:href="#DejaVuSans-64" transform="translate(1762.851562 0)"/>
    <use xlink:href="#DejaVuSans-65" transform="translate(1826.328125 0)"/>
    <use xlink:href="#DejaVuSans-20" transform="translate(1887.851562 0)"/>
    <use xlink:href="#DejaVuSans-52" transform="translate(1919.638672 0)"/>
    <use xlink:href="#DejaVuSans-65" transform="translate(1984.621094 0)"/>
    <use xlink:href="#DejaVuSans-67" transform="translate(2046.144531 0)"/>
    <use xlink:href="#DejaVuSans-65" transform="translate(2109.621094 0)"/>
    <use xlink:href="#DejaVuSans-6c" transform="translate(2171.144531 0)"/>
    <use xlink:href="#DejaVuSans-75" transform="translate(2198.927734 0)"/>
    <use xlink:href="#DejaVuSans-6e" transform="translate(2262.306641 0)"/>
    <use xlink:href="#DejaVuSans-67" transform="translate(2325.685547 0)"/>
    <use xlink:href="#DejaVuSans-65" transform="translate(2389.162109 0)"/>
    <use xlink:href="#DejaVuSans-6e" transform="translate(2450.685547 0)"/>
    <use xlink:href="#DejaVuSans-20" transform="translate(2514.064453 0)"/>
    <use xlink:href="#DejaVuSans-28" transform="translate(2545.851562 0)"/>
    <use xlink:href="#DejaVuSans-7a" transform="translate(2584.865234 0)"/>
    <use xlink:href="#DejaVuSans-2e" transform="translate(2637.355469 0)"/>
    <use xlink:href="#DejaVuSans-42" transform="translate(2669.142578 0)"/>
    <use xlink:href="#DejaVuSans-2e" transform="translate(2737.746094 0)"/>
    <use xlink:href="#DejaVuSans-20" transform="translate(2769.533203 0)"/>
    <use xlink:href="#DejaVuSans-50" transform="translate(2801.320312 0)"/>
    <use xlink:href="#DejaVuSans-61" transform="translate(2857.123047 0)"/>
    <use xlink:href="#DejaVuSans-63" transform="translate(2918.402344 0)"/>
    <use xlink:href="#DejaVuSans-6b" transform="translate(2973.382812 0)"/>
    <use xlink:href="#DejaVuSans-69" transform="translate(3031.292969 0)"/>
    <use xlink:href="#DejaVuSans-6e" transform="translate(3059.076172 0)"/>
    <use xlink:href="#DejaVuSans-67" transform="translate(3122.455078 0)"/>
    <use xlink:href="#DejaVuSans-20" transform="translate(3185.931641 0)"/>
    <use xlink:href="#DejaVuSans-57" transform="translate(3217.71875 0)"/>
    <use xlink:href="#DejaVuSans-61" transform="translate(3310.220703 0)"/>
    <use xlink:href="#DejaVuSans-73" transform="translate(3371.5 0)"/>
    <use xlink:href="#DejaVuSans-74" transform="translate(3423.599609 0)"/>
    <use xlink:href="#DejaVuSans-65" transform="translate(3462.808594 0)"/>
    <use xlink:href="#DejaVuSans-20" transform="translate(3524.332031 0)"/>
    <use xlink:href="#DejaVuSans-52" transform="translate(3556.119141 0)"/>
    <use xlink:href="#DejaVuSans-65" transform="translate(3621.101562 0)"/>
    <use xlink:href="#DejaVuSans-67" transform="translate(3682.625 0)"/>
    <use xlink:href="#DejaVuSans-75" transform="translate(3746.101562 0)"/>
    <use xlink:href="#DejaVuSans-6c" transform="translate(3809.480469 0)"/>
    <use xlink:href="#DejaVuSans-61" transform="translate(3837.263672 0)"/>
    <use xlink:href="#DejaVuSans-74" transform="translate(3898.542969 0)"/>
    <use xlink:href="#DejaVuSans-69" transform="translate(3937.751953 0)"/>
    <use xlink:href="#DejaVuSans-6f" transform="translate(3965.535156 0)"/>
    <use xlink:href="#DejaVuSans-6e" transform="translate(4026.716797 0)"/>
    <use xlink:href="#DejaVuSans-2c" transform="translate(4090.095703 0)"/>
    <use xlink:href="#DejaVuSans-20" transform="translate(4121.882812 0)"/>
    <use xlink:href="#DejaVuSans-45" transform="translate(4153.669922 0)"/>
    <use xlink:href="#DejaVuSans-63" transform="translate(4216.853516 0)"/>
    <use xlink:href="#DejaVuSans-6f" transform="translate(4271.833984 0)"/>
    <use xlink:href="#DejaVuSans-64" transform="translate(4333.015625 0)"/>
    <use xlink:href="#DejaVuSans-65" transform="translate(4396.492188 0)"/>
    <use xlink:href="#DejaVuSans-73" transform="translate(4458.015625 0)"/>
    <use xlink:href="#DejaVuSans-69" transform="translate(4510.115234 0)"/>
    <use xlink:href="#DejaVuSans-67" transform="translate(4537.898438 0)"/>
    <use xlink:href="#DejaVuSans-6e" transform="translate(4601.375 0)"/>
    <use xlink:href="#DejaVuSans-20" transform="translate(4664.753906 0)"/>
    <use xlink:href="#DejaVuSans-52" transform="translate(4696.541016 0)"/>
    <use xlink:href="#DejaVuSans-65" transform="translate(4761.523438 0)"/>
    <use xlink:href="#DejaVuSans-67" transform="translate(4823.046875 0)"/>
    <use xlink:href="#DejaVuSans-75" transform="translate(4886.523438 0)"/>
    <use xlink:href="#DejaVuSans-6c" transform="translate(4949.902344 0)"/>
    <use xlink:href="#DejaVuSans-61" transform="translate(4977.685547 0)"/>
    <use xlink:href="#DejaVuSans-74" transform="translate(5038.964844 0)"/>
    <use xlink:href="#DejaVuSans-69" transform="translate(5078.173828 0)"/>
    <use xlink:href="#DejaVuSans-6f" transform="translate(5105.957031 0)"/>
    <use xlink:href="#DejaVuSans-6e" transform="translate(5167.138672 0)"/>
    <use xlink:href="#DejaVuSans-2c" transform="translate(5230.517578 0)"/>
    <use xlink:href="#DejaVuSans-20" transform="translate(5262.304688 0)"/>
    <use xlink:href="#DejaVuSans-43" transform="translate(5294.091797 0)"/>
    <use xlink:href="#DejaVuSans-69" transform="translate(5363.916016 0)"/>
    <use xlink:href="#DejaVuSans-72" transform="translate(5391.699219 0)"/>
    <use xlink:href="#DejaVuSans-63" transform="translate(5430.5625 0)"/>
    <use xlink:href="#DejaVuSans-75" transform="translate(5485.542969 0)"/>
    <use xlink:href="#DejaVuSans-6c" transform="translate(5548.921875 0)"/>
    <use xlink:href="#DejaVuSans-61" transform="translate(5576.705078 0)"/>
    <use xlink:href="#DejaVuSans-72" transform="translate(5637.984375 0)"/>
    <use xlink:href="#DejaVuSans-20" transform="translate(5679.097656 0)"/>
    <use xlink:href="#DejaVuSans-45" transform="translate(5710.884766 0)"/>
    <use xlink:href="#DejaVuSans-63" transform="translate(5774.068359 0)"/>
    <use xlink:href="#DejaVuSans-6f" transform="translate(5829.048828 0)"/>
    <use xlink:href="#DejaVuSans-6e" transform="translate(5890.230469 0)"/>
    <use xlink:href="#DejaVuSans-6f" transform="translate(5953.609375 0)"/>
    <use xlink:href="#DejaVuSans-6d" transform="translate(6014.791016 0)"/>
    <use xlink:href="#DejaVuSans-79" transform="translate(6112.203125 0)"/>
    <use xlink:href="#DejaVuSans-20" transform="translate(6171.382812 0)"/>
    <use xlink:href="#DejaVuSans-41" transform="translate(6203.169922 0)"/>
    <use xlink:href="#DejaVuSans-63" transform="translate(6269.828125 0)"/>
    <use xlink:href="#DejaVuSans-74" transform="translate(6324.808594 0)"/>
    <use xlink:href="#DejaVuSans-29" transform="translate(6364.017578 0)"/>
   </g>
  </g>
  <g id="text_8">
   <!-- Abbildung 34h: In welchem Maß stellen die folgenden Punkte ein -->
   <g transform="translate(272.970937 569.482125) scale(0.12 -0.12)">
    <defs>
     <path id="DejaVuSans-34" d="M 2419 4116 
L 825 1625 
L 2419 1625 
L 2419 4116 
z
M 2253 4666 
L 3047 4666 
L 3047 1625 
L 3713 1625 
L 3713 1100 
L 3047 1100 
L 3047 0 
L 2419 0 
L 2419 1100 
L 313 1100 
L 313 1709 
L 2253 4666 
z
" transform="scale(0.015625)"/>
     <path id="DejaVuSans-3a" d="M 750 794 
L 1409 794 
L 1409 0 
L 750 0 
L 750 794 
z
M 750 3309 
L 1409 3309 
L 1409 2516 
L 750 2516 
L 750 3309 
z
" transform="scale(0.015625)"/>
     <path id="DejaVuSans-49" d="M 628 4666 
L 1259 4666 
L 1259 0 
L 628 0 
L 628 4666 
z
" transform="scale(0.015625)"/>
     <path id="DejaVuSans-df" d="M 581 3553 
Q 581 4178 954 4520 
Q 1328 4863 2009 4863 
Q 2659 4863 3001 4500 
Q 3344 4138 3353 3438 
Q 2881 3413 2618 3233 
Q 2356 3053 2356 2753 
Q 2356 2606 2447 2479 
Q 2538 2353 2741 2222 
L 2919 2106 
Q 3438 1775 3588 1553 
Q 3738 1331 3738 1019 
Q 3738 481 3386 195 
Q 3034 -91 2375 -91 
Q 2175 -91 1962 -52 
Q 1750 -13 1522 63 
L 1522 575 
Q 1772 481 1990 436 
Q 2209 391 2413 391 
Q 2775 391 2962 539 
Q 3150 688 3150 972 
Q 3150 1169 3058 1300 
Q 2966 1431 2650 1625 
L 2363 1797 
Q 2063 1981 1927 2192 
Q 1791 2403 1791 2688 
Q 1791 3084 2052 3353 
Q 2313 3622 2784 3713 
Q 2759 4034 2554 4209 
Q 2350 4384 1997 4384 
Q 1591 4384 1378 4167 
Q 1166 3950 1166 3541 
L 1166 0 
L 581 0 
L 581 3553 
z
" transform="scale(0.015625)"/>
    </defs>
    <use xlink:href="#DejaVuSans-41"/>
    <use xlink:href="#DejaVuSans-62" transform="translate(68.408203 0)"/>
    <use xlink:href="#DejaVuSans-62" transform="translate(131.884766 0)"/>
    <use xlink:href="#DejaVuSans-69" transform="translate(195.361328 0)"/>
    <use xlink:href="#DejaVuSans-6c" transform="translate(223.144531 0)"/>
    <use xlink:href="#DejaVuSans-64" transform="translate(250.927734 0)"/>
    <use xlink:href="#DejaVuSans-75" transform="translate(314.404297 0)"/>
    <use xlink:href="#DejaVuSans-6e" transform="translate(377.783203 0)"/>
    <use xlink:href="#DejaVuSans-67" transform="translate(441.162109 0)"/>
    <use xlink:href="#DejaVuSans-20" transform="translate(504.638672 0)"/>
    <use xlink:href="#DejaVuSans-33" transform="translate(536.425781 0)"/>
    <use xlink:href="#DejaVuSans-34" transform="translate(600.048828 0)"/>
    <use xlink:href="#DejaVuSans-68" transform="translate(663.671875 0)"/>
    <use xlink:href="#DejaVuSans-3a" transform="translate(727.050781 0)"/>
    <use xlink:href="#DejaVuSans-20" transform="translate(760.742188 0)"/>
    <use xlink:href="#DejaVuSans-49" transform="translate(792.529297 0)"/>
    <use xlink:href="#DejaVuSans-6e" transform="translate(822.021484 0)"/>
    <use xlink:href="#DejaVuSans-20" transform="translate(885.400391 0)"/>
    <use xlink:href="#DejaVuSans-77" transform="translate(917.1875 0)"/>
    <use xlink:href="#DejaVuSans-65" transform="translate(998.974609 0)"/>
    <use xlink:href="#DejaVuSans-6c" transform="translate(1060.498047 0)"/>
    <use xlink:href="#DejaVuSans-63" transform="translate(1088.28125 0)"/>
    <use xlink:href="#DejaVuSans-68" transform="translate(1143.261719 0)"/>
    <use xlink:href="#DejaVuSans-65" transform="translate(1206.640625 0)"/>
    <use xlink:href="#DejaVuSans-6d" transform="translate(1268.164062 0)"/>
    <use xlink:href="#DejaVuSans-20" transform="translate(1365.576172 0)"/>
    <use xlink:href="#DejaVuSans-4d" transform="translate(1397.363281 0)"/>
    <use xlink:href="#DejaVuSans-61" transform="translate(1483.642578 0)"/>
    <use xlink:href="#DejaVuSans-df" transform="translate(1544.921875 0)"/>
    <use xlink:href="#DejaVuSans-20" transform="translate(1607.910156 0)"/>
    <use xlink:href="#DejaVuSans-73" transform="translate(1639.697266 0)"/>
    <use xlink:href="#DejaVuSans-74" transform="translate(1691.796875 0)"/>
    <use xlink:href="#DejaVuSans-65" transform="translate(1731.005859 0)"/>
    <use xlink:href="#DejaVuSans-6c" transform="translate(1792.529297 0)"/>
    <use xlink:href="#DejaVuSans-6c" transform="translate(1820.3125 0)"/>
    <use xlink:href="#DejaVuSans-65" transform="translate(1848.095703 0)"/>
    <use xlink:href="#DejaVuSans-6e" transform="translate(1909.619141 0)"/>
    <use xlink:href="#DejaVuSans-20" transform="translate(1972.998047 0)"/>
    <use xlink:href="#DejaVuSans-64" transform="translate(2004.785156 0)"/>
    <use xlink:href="#DejaVuSans-69" transform="translate(2068.261719 0)"/>
    <use xlink:href="#DejaVuSans-65" transform="translate(2096.044922 0)"/>
    <use xlink:href="#DejaVuSans-20" transform="translate(2157.568359 0)"/>
    <use xlink:href="#DejaVuSans-66" transform="translate(2189.355469 0)"/>
    <use xlink:href="#DejaVuSans-6f" transform="translate(2224.560547 0)"/>
    <use xlink:href="#DejaVuSans-6c" transform="translate(2285.742188 0)"/>
    <use xlink:href="#DejaVuSans-67" transform="translate(2313.525391 0)"/>
    <use xlink:href="#DejaVuSans-65" transform="translate(2377.001953 0)"/>
    <use xlink:href="#DejaVuSans-6e" transform="translate(2438.525391 0)"/>
    <use xlink:href="#DejaVuSans-64" transform="translate(2501.904297 0)"/>
    <use xlink:href="#DejaVuSans-65" transform="translate(2565.380859 0)"/>
    <use xlink:href="#DejaVuSans-6e" transform="translate(2626.904297 0)"/>
    <use xlink:href="#DejaVuSans-20" transform="translate(2690.283203 0)"/>
    <use xlink:href="#DejaVuSans-50" transform="translate(2722.070312 0)"/>
    <use xlink:href="#DejaVuSans-75" transform="translate(2780.623047 0)"/>
    <use xlink:href="#DejaVuSans-6e" transform="translate(2844.001953 0)"/>
    <use xlink:href="#DejaVuSans-6b" transform="translate(2907.380859 0)"/>
    <use xlink:href="#DejaVuSans-74" transform="translate(2965.291016 0)"/>
    <use xlink:href="#DejaVuSans-65" transform="translate(3004.5 0)"/>
    <use xlink:href="#DejaVuSans-20" transform="translate(3066.023438 0)"/>
    <use xlink:href="#DejaVuSans-65" transform="translate(3097.810547 0)"/>
    <use xlink:href="#DejaVuSans-69" transform="translate(3159.333984 0)"/>
    <use xlink:href="#DejaVuSans-6e" transform="translate(3187.117188 0)"/>
   </g>
   <!-- Hemmnis für die Umsetzung von Kreislaufwirtschaft in Ihrem -->
   <g transform="translate(285.151875 582.007687) scale(0.12 -0.12)">
    <defs>
     <path id="DejaVuSans-fc" d="M 544 1381 
L 544 3500 
L 1119 3500 
L 1119 1403 
Q 1119 906 1312 657 
Q 1506 409 1894 409 
Q 2359 409 2629 706 
Q 2900 1003 2900 1516 
L 2900 3500 
L 3475 3500 
L 3475 0 
L 2900 0 
L 2900 538 
Q 2691 219 2414 64 
Q 2138 -91 1772 -91 
Q 1169 -91 856 284 
Q 544 659 544 1381 
z
M 1991 3584 
L 1991 3584 
z
M 2278 4850 
L 2912 4850 
L 2912 4219 
L 2278 4219 
L 2278 4850 
z
M 1056 4850 
L 1690 4850 
L 1690 4219 
L 1056 4219 
L 1056 4850 
z
" transform="scale(0.015625)"/>
     <path id="DejaVuSans-55" d="M 556 4666 
L 1191 4666 
L 1191 1831 
Q 1191 1081 1462 751 
Q 1734 422 2344 422 
Q 2950 422 3222 751 
Q 3494 1081 3494 1831 
L 3494 4666 
L 4128 4666 
L 4128 1753 
Q 4128 841 3676 375 
Q 3225 -91 2344 -91 
Q 1459 -91 1007 375 
Q 556 841 556 1753 
L 556 4666 
z
" transform="scale(0.015625)"/>
     <path id="DejaVuSans-76" d="M 191 3500 
L 800 3500 
L 1894 563 
L 2988 3500 
L 3597 3500 
L 2284 0 
L 1503 0 
L 191 3500 
z
" transform="scale(0.015625)"/>
    </defs>
    <use xlink:href="#DejaVuSans-48"/>
    <use xlink:href="#DejaVuSans-65" transform="translate(75.195312 0)"/>
    <use xlink:href="#DejaVuSans-6d" transform="translate(136.71875 0)"/>
    <use xlink:href="#DejaVuSans-6d" transform="translate(234.130859 0)"/>
    <use xlink:href="#DejaVuSans-6e" transform="translate(331.542969 0)"/>
    <use xlink:href="#DejaVuSans-69" transform="translate(394.921875 0)"/>
    <use xlink:href="#DejaVuSans-73" transform="translate(422.705078 0)"/>
    <use xlink:href="#DejaVuSans-20" transform="translate(474.804688 0)"/>
    <use xlink:href="#DejaVuSans-66" transform="translate(506.591797 0)"/>
    <use xlink:href="#DejaVuSans-fc" transform="translate(541.796875 0)"/>
    <use xlink:href="#DejaVuSans-72" transform="translate(605.175781 0)"/>
    <use xlink:href="#DejaVuSans-20" transform="translate(646.289062 0)"/>
    <use xlink:href="#DejaVuSans-64" transform="translate(678.076172 0)"/>
    <use xlink:href="#DejaVuSans-69" transform="translate(741.552734 0)"/>
    <use xlink:href="#DejaVuSans-65" transform="translate(769.335938 0)"/>
    <use xlink:href="#DejaVuSans-20" transform="translate(830.859375 0)"/>
    <use xlink:href="#DejaVuSans-55" transform="translate(862.646484 0)"/>
    <use xlink:href="#DejaVuSans-6d" transform="translate(935.839844 0)"/>
    <use xlink:href="#DejaVuSans-73" transform="translate(1033.251953 0)"/>
    <use xlink:href="#DejaVuSans-65" transform="translate(1085.351562 0)"/>
    <use xlink:href="#DejaVuSans-74" transform="translate(1146.875 0)"/>
    <use xlink:href="#DejaVuSans-7a" transform="translate(1186.083984 0)"/>
    <use xlink:href="#DejaVuSans-75" transform="translate(1238.574219 0)"/>
    <use xlink:href="#DejaVuSans-6e" transform="translate(1301.953125 0)"/>
    <use xlink:href="#DejaVuSans-67" transform="translate(1365.332031 0)"/>
    <use xlink:href="#DejaVuSans-20" transform="translate(1428.808594 0)"/>
    <use xlink:href="#DejaVuSans-76" transform="translate(1460.595703 0)"/>
    <use xlink:href="#DejaVuSans-6f" transform="translate(1519.775391 0)"/>
    <use xlink:href="#DejaVuSans-6e" transform="translate(1580.957031 0)"/>
    <use xlink:href="#DejaVuSans-20" transform="translate(1644.335938 0)"/>
    <use xlink:href="#DejaVuSans-4b" transform="translate(1676.123047 0)"/>
    <use xlink:href="#DejaVuSans-72" transform="translate(1741.699219 0)"/>
    <use xlink:href="#DejaVuSans-65" transform="translate(1780.5625 0)"/>
    <use xlink:href="#DejaVuSans-69" transform="translate(1842.085938 0)"/>
    <use xlink:href="#DejaVuSans-73" transform="translate(1869.869141 0)"/>
    <use xlink:href="#DejaVuSans-6c" transform="translate(1921.96875 0)"/>
    <use xlink:href="#DejaVuSans-61" transform="translate(1949.751953 0)"/>
    <use xlink:href="#DejaVuSans-75" transform="translate(2011.03125 0)"/>
    <use xlink:href="#DejaVuSans-66" transform="translate(2074.410156 0)"/>
    <use xlink:href="#DejaVuSans-77" transform="translate(2107.865234 0)"/>
    <use xlink:href="#DejaVuSans-69" transform="translate(2189.652344 0)"/>
    <use xlink:href="#DejaVuSans-72" transform="translate(2217.435547 0)"/>
    <use xlink:href="#DejaVuSans-74" transform="translate(2258.548828 0)"/>
    <use xlink:href="#DejaVuSans-73" transform="translate(2297.757812 0)"/>
    <use xlink:href="#DejaVuSans-63" transform="translate(2349.857422 0)"/>
    <use xlink:href="#DejaVuSans-68" transform="translate(2404.837891 0)"/>
    <use xlink:href="#DejaVuSans-61" transform="translate(2468.216797 0)"/>
    <use xlink:href="#DejaVuSans-66" transform="translate(2529.496094 0)"/>
    <use xlink:href="#DejaVuSans-74" transform="translate(2562.951172 0)"/>
    <use xlink:href="#DejaVuSans-20" transform="translate(2602.160156 0)"/>
    <use xlink:href="#DejaVuSans-69" transform="translate(2633.947266 0)"/>
    <use xlink:href="#DejaVuSans-6e" transform="translate(2661.730469 0)"/>
    <use xlink:href="#DejaVuSans-20" transform="translate(2725.109375 0)"/>
    <use xlink:href="#DejaVuSans-49" transform="translate(2756.896484 0)"/>
    <use xlink:href="#DejaVuSans-68" transform="translate(2786.388672 0)"/>
    <use xlink:href="#DejaVuSans-72" transform="translate(2849.767578 0)"/>
    <use xlink:href="#DejaVuSans-65" transform="translate(2888.630859 0)"/>
    <use xlink:href="#DejaVuSans-6d" transform="translate(2950.154297 0)"/>
   </g>
   <!-- Unternehmen dar? – Geringe Vorbereitung auf anstehende Regelungen -->
   <g transform="translate(254.061563 594.53325) scale(0.12 -0.12)">
    <defs>
     <path id="DejaVuSans-3f" d="M 1222 794 
L 1856 794 
L 1856 0 
L 1222 0 
L 1222 794 
z
M 1838 1253 
L 1241 1253 
L 1241 1734 
Q 1241 2050 1328 2253 
Q 1416 2456 1697 2725 
L 1978 3003 
Q 2156 3169 2236 3316 
Q 2316 3463 2316 3616 
Q 2316 3894 2111 4066 
Q 1906 4238 1569 4238 
Q 1322 4238 1042 4128 
Q 763 4019 459 3809 
L 459 4397 
Q 753 4575 1054 4662 
Q 1356 4750 1678 4750 
Q 2253 4750 2601 4447 
Q 2950 4144 2950 3647 
Q 2950 3409 2837 3195 
Q 2725 2981 2444 2713 
L 2169 2444 
Q 2022 2297 1961 2214 
Q 1900 2131 1875 2053 
Q 1856 1988 1847 1894 
Q 1838 1800 1838 1638 
L 1838 1253 
z
" transform="scale(0.015625)"/>
     <path id="DejaVuSans-2013" d="M 313 1978 
L 2888 1978 
L 2888 1528 
L 313 1528 
L 313 1978 
z
" transform="scale(0.015625)"/>
    </defs>
    <use xlink:href="#DejaVuSans-55"/>
    <use xlink:href="#DejaVuSans-6e" transform="translate(73.193359 0)"/>
    <use xlink:href="#DejaVuSans-74" transform="translate(136.572266 0)"/>
    <use xlink:href="#DejaVuSans-65" transform="translate(175.78125 0)"/>
    <use xlink:href="#DejaVuSans-72" transform="translate(237.304688 0)"/>
    <use xlink:href="#DejaVuSans-6e" transform="translate(276.667969 0)"/>
    <use xlink:href="#DejaVuSans-65" transform="translate(340.046875 0)"/>
    <use xlink:href="#DejaVuSans-68" transform="translate(401.570312 0)"/>
    <use xlink:href="#DejaVuSans-6d" transform="translate(464.949219 0)"/>
    <use xlink:href="#DejaVuSans-65" transform="translate(562.361328 0)"/>
    <use xlink:href="#DejaVuSans-6e" transform="translate(623.884766 0)"/>
    <use xlink:href="#DejaVuSans-20" transform="translate(687.263672 0)"/>
    <use xlink:href="#DejaVuSans-64" transform="translate(719.050781 0)"/>
    <use xlink:href="#DejaVuSans-61" transform="translate(782.527344 0)"/>
    <use xlink:href="#DejaVuSans-72" transform="translate(843.806641 0)"/>
    <use xlink:href="#DejaVuSans-3f" transform="translate(884.919922 0)"/>
    <use xlink:href="#DejaVuSans-20" transform="translate(937.996094 0)"/>
    <use xlink:href="#DejaVuSans-2013" transform="translate(969.783203 0)"/>
    <use xlink:href="#DejaVuSans-20" transform="translate(1019.783203 0)"/>
    <use xlink:href="#DejaVuSans-47" transform="translate(1051.570312 0)"/>
    <use xlink:href="#DejaVuSans-65" transform="translate(1129.060547 0)"/>
    <use xlink:href="#DejaVuSans-72" transform="translate(1190.583984 0)"/>
    <use xlink:href="#DejaVuSans-69" transform="translate(1231.697266 0)"/>
    <use xlink:href="#DejaVuSans-6e" transform="translate(1259.480469 0)"/>
    <use xlink:href="#DejaVuSans-67" transform="translate(1322.859375 0)"/>
    <use xlink:href="#DejaVuSans-65" transform="translate(1386.335938 0)"/>
    <use xlink:href="#DejaVuSans-20" transform="translate(1447.859375 0)"/>
    <use xlink:href="#DejaVuSans-56" transform="translate(1479.646484 0)"/>
    <use xlink:href="#DejaVuSans-6f" transform="translate(1540.304688 0)"/>
    <use xlink:href="#DejaVuSans-72" transform="translate(1601.486328 0)"/>
    <use xlink:href="#DejaVuSans-62" transform="translate(1642.599609 0)"/>
    <use xlink:href="#DejaVuSans-65" transform="translate(1706.076172 0)"/>
    <use xlink:href="#DejaVuSans-72" transform="translate(1767.599609 0)"/>
    <use xlink:href="#DejaVuSans-65" transform="translate(1806.462891 0)"/>
    <use xlink:href="#DejaVuSans-69" transform="translate(1867.986328 0)"/>
    <use xlink:href="#DejaVuSans-74" transform="translate(1895.769531 0)"/>
    <use xlink:href="#DejaVuSans-75" transform="translate(1934.978516 0)"/>
    <use xlink:href="#DejaVuSans-6e" transform="translate(1998.357422 0)"/>
    <use xlink:href="#DejaVuSans-67" transform="translate(2061.736328 0)"/>
    <use xlink:href="#DejaVuSans-20" transform="translate(2125.212891 0)"/>
    <use xlink:href="#DejaVuSans-61" transform="translate(2157 0)"/>
    <use xlink:href="#DejaVuSans-75" transform="translate(2218.279297 0)"/>
    <use xlink:href="#DejaVuSans-66" transform="translate(2281.658203 0)"/>
    <use xlink:href="#DejaVuSans-20" transform="translate(2316.863281 0)"/>
    <use xlink:href="#DejaVuSans-61" transform="translate(2348.650391 0)"/>
    <use xlink:href="#DejaVuSans-6e" transform="translate(2409.929688 0)"/>
    <use xlink:href="#DejaVuSans-73" transform="translate(2473.308594 0)"/>
    <use xlink:href="#DejaVuSans-74" transform="translate(2525.408203 0)"/>
    <use xlink:href="#DejaVuSans-65" transform="translate(2564.617188 0)"/>
    <use xlink:href="#DejaVuSans-68" transform="translate(2626.140625 0)"/>
    <use xlink:href="#DejaVuSans-65" transform="translate(2689.519531 0)"/>
    <use xlink:href="#DejaVuSans-6e" transform="translate(2751.042969 0)"/>
    <use xlink:href="#DejaVuSans-64" transform="translate(2814.421875 0)"/>
    <use xlink:href="#DejaVuSans-65" transform="translate(2877.898438 0)"/>
    <use xlink:href="#DejaVuSans-20" transform="translate(2939.421875 0)"/>
    <use xlink:href="#DejaVuSans-52" transform="translate(2971.208984 0)"/>
    <use xlink:href="#DejaVuSans-65" transform="translate(3036.191406 0)"/>
    <use xlink:href="#DejaVuSans-67" transform="translate(3097.714844 0)"/>
    <use xlink:href="#DejaVuSans-65" transform="translate(3161.191406 0)"/>
    <use xlink:href="#DejaVuSans-6c" transform="translate(3222.714844 0)"/>
    <use xlink:href="#DejaVuSans-75" transform="translate(3250.498047 0)"/>
    <use xlink:href="#DejaVuSans-6e" transform="translate(3313.876953 0)"/>
    <use xlink:href="#DejaVuSans-67" transform="translate(3377.255859 0)"/>
    <use xlink:href="#DejaVuSans-65" transform="translate(3440.732422 0)"/>
    <use xlink:href="#DejaVuSans-6e" transform="translate(3502.255859 0)"/>
   </g>
   <!-- (z.B. Packing Waste Regulation, Ecodesign Regulation, Circular -->
   <g transform="translate(280.006875 607.058813) scale(0.12 -0.12)">
    <use xlink:href="#DejaVuSans-28"/>
    <use xlink:href="#DejaVuSans-7a" transform="translate(39.013672 0)"/>
    <use xlink:href="#DejaVuSans-2e" transform="translate(91.503906 0)"/>
    <use xlink:href="#DejaVuSans-42" transform="translate(123.291016 0)"/>
    <use xlink:href="#DejaVuSans-2e" transform="translate(191.894531 0)"/>
    <use xlink:href="#DejaVuSans-20" transform="translate(223.681641 0)"/>
    <use xlink:href="#DejaVuSans-50" transform="translate(255.46875 0)"/>
    <use xlink:href="#DejaVuSans-61" transform="translate(311.271484 0)"/>
    <use xlink:href="#DejaVuSans-63" transform="translate(372.550781 0)"/>
    <use xlink:href="#DejaVuSans-6b" transform="translate(427.53125 0)"/>
    <use xlink:href="#DejaVuSans-69" transform="translate(485.441406 0)"/>
    <use xlink:href="#DejaVuSans-6e" transform="translate(513.224609 0)"/>
    <use xlink:href="#DejaVuSans-67" transform="translate(576.603516 0)"/>
    <use xlink:href="#DejaVuSans-20" transform="translate(640.080078 0)"/>
    <use xlink:href="#DejaVuSans-57" transform="translate(671.867188 0)"/>
    <use xlink:href="#DejaVuSans-61" transform="translate(764.369141 0)"/>
    <use xlink:href="#DejaVuSans-73" transform="translate(825.648438 0)"/>
    <use xlink:href="#DejaVuSans-74" transform="translate(877.748047 0)"/>
    <use xlink:href="#DejaVuSans-65" transform="translate(916.957031 0)"/>
    <use xlink:href="#DejaVuSans-20" transform="translate(978.480469 0)"/>
    <use xlink:href="#DejaVuSans-52" transform="translate(1010.267578 0)"/>
    <use xlink:href="#DejaVuSans-65" transform="translate(1075.25 0)"/>
    <use xlink:href="#DejaVuSans-67" transform="translate(1136.773438 0)"/>
    <use xlink:href="#DejaVuSans-75" transform="translate(1200.25 0)"/>
    <use xlink:href="#DejaVuSans-6c" transform="translate(1263.628906 0)"/>
    <use xlink:href="#DejaVuSans-61" transform="translate(1291.412109 0)"/>
    <use xlink:href="#DejaVuSans-74" transform="translate(1352.691406 0)"/>
    <use xlink:href="#DejaVuSans-69" transform="translate(1391.900391 0)"/>
    <use xlink:href="#DejaVuSans-6f" transform="translate(1419.683594 0)"/>
    <use xlink:href="#DejaVuSans-6e" transform="translate(1480.865234 0)"/>
    <use xlink:href="#DejaVuSans-2c" transform="translate(1544.244141 0)"/>
    <use xlink:href="#DejaVuSans-20" transform="translate(1576.03125 0)"/>
    <use xlink:href="#DejaVuSans-45" transform="translate(1607.818359 0)"/>
    <use xlink:href="#DejaVuSans-63" transform="translate(1671.001953 0)"/>
    <use xlink:href="#DejaVuSans-6f" transform="translate(1725.982422 0)"/>
    <use xlink:href="#DejaVuSans-64" transform="translate(1787.164062 0)"/>
    <use xlink:href="#DejaVuSans-65" transform="translate(1850.640625 0)"/>
    <use xlink:href="#DejaVuSans-73" transform="translate(1912.164062 0)"/>
    <use xlink:href="#DejaVuSans-69" transform="translate(1964.263672 0)"/>
    <use xlink:href="#DejaVuSans-67" transform="translate(1992.046875 0)"/>
    <use xlink:href="#DejaVuSans-6e" transform="translate(2055.523438 0)"/>
    <use xlink:href="#DejaVuSans-20" transform="translate(2118.902344 0)"/>
    <use xlink:href="#DejaVuSans-52" transform="translate(2150.689453 0)"/>
    <use xlink:href="#DejaVuSans-65" transform="translate(2215.671875 0)"/>
    <use xlink:href="#DejaVuSans-67" transform="translate(2277.195312 0)"/>
    <use xlink:href="#DejaVuSans-75" transform="translate(2340.671875 0)"/>
    <use xlink:href="#DejaVuSans-6c" transform="translate(2404.050781 0)"/>
    <use xlink:href="#DejaVuSans-61" transform="translate(2431.833984 0)"/>
    <use xlink:href="#DejaVuSans-74" transform="translate(2493.113281 0)"/>
    <use xlink:href="#DejaVuSans-69" transform="translate(2532.322266 0)"/>
    <use xlink:href="#DejaVuSans-6f" transform="translate(2560.105469 0)"/>
    <use xlink:href="#DejaVuSans-6e" transform="translate(2621.287109 0)"/>
    <use xlink:href="#DejaVuSans-2c" transform="translate(2684.666016 0)"/>
    <use xlink:href="#DejaVuSans-20" transform="translate(2716.453125 0)"/>
    <use xlink:href="#DejaVuSans-43" transform="translate(2748.240234 0)"/>
    <use xlink:href="#DejaVuSans-69" transform="translate(2818.064453 0)"/>
    <use xlink:href="#DejaVuSans-72" transform="translate(2845.847656 0)"/>
    <use xlink:href="#DejaVuSans-63" transform="translate(2884.710938 0)"/>
    <use xlink:href="#DejaVuSans-75" transform="translate(2939.691406 0)"/>
    <use xlink:href="#DejaVuSans-6c" transform="translate(3003.070312 0)"/>
    <use xlink:href="#DejaVuSans-61" transform="translate(3030.853516 0)"/>
    <use xlink:href="#DejaVuSans-72" transform="translate(3092.132812 0)"/>
   </g>
   <!-- Economy Act) -->
   <g transform="translate(426.470625 619.584375) scale(0.12 -0.12)">
    <use xlink:href="#DejaVuSans-45"/>
    <use xlink:href="#DejaVuSans-63" transform="translate(63.183594 0)"/>
    <use xlink:href="#DejaVuSans-6f" transform="translate(118.164062 0)"/>
    <use xlink:href="#DejaVuSans-6e" transform="translate(179.345703 0)"/>
    <use xlink:href="#DejaVuSans-6f" transform="translate(242.724609 0)"/>
    <use xlink:href="#DejaVuSans-6d" transform="translate(303.90625 0)"/>
    <use xlink:href="#DejaVuSans-79" transform="translate(401.318359 0)"/>
    <use xlink:href="#DejaVuSans-20" transform="translate(460.498047 0)"/>
    <use xlink:href="#DejaVuSans-41" transform="translate(492.285156 0)"/>
    <use xlink:href="#DejaVuSans-63" transform="translate(558.943359 0)"/>
    <use xlink:href="#DejaVuSans-74" transform="translate(613.923828 0)"/>
    <use xlink:href="#DejaVuSans-29" transform="translate(653.132812 0)"/>
   </g>
  </g>
 </g>
 <defs>
  <clipPath id="p33cc1d315a">
   <rect x="254.16" y="51.84" width="427.68" height="427.68"/>
  </clipPath>
 </defs>
</svg>
