<?xml version="1.0" encoding="utf-8" standalone="no"?>
<!DOCTYPE svg PUBLIC "-//W3C//DTD SVG 1.1//EN"
  "http://www.w3.org/Graphics/SVG/1.1/DTD/svg11.dtd">
<svg xmlns:xlink="http://www.w3.org/1999/xlink" width="936pt" height="648pt" viewBox="0 0 936 648" xmlns="http://www.w3.org/2000/svg" version="1.1">
 <metadata>
  <rdf:RDF xmlns:dc="http://purl.org/dc/elements/1.1/" xmlns:cc="http://creativecommons.org/ns#" xmlns:rdf="http://www.w3.org/1999/02/22-rdf-syntax-ns#">
   <cc:Work>
    <dc:type rdf:resource="http://purl.org/dc/dcmitype/StillImage"/>
    <dc:date>2026-02-23T14:10:29.203348</dc:date>
    <dc:format>image/svg+xml</dc:format>
    <dc:creator>
     <cc:Agent>
      <dc:title>Matplotlib v3.10.8, https://matplotlib.org/</dc:title>
     </cc:Agent>
    </dc:creator>
   </cc:Work>
  </rdf:RDF>
 </metadata>
 <defs>
  <style type="text/css">*{stroke-linejoin: round; stroke-linecap: butt}</style>
 </defs>
 <g id="figure_1">
  <g id="patch_1">
   <path d="M 0 648 
L 936 648 
L 936 0 
L 0 0 
z
" style="fill: #ffffff"/>
  </g>
  <g id="axes_1">
   <g id="patch_2">
    <path d="M 596.976461 153.293598 
C 580.919139 134.865953 561.097414 120.091822 538.85006 109.969052 
C 516.602702 99.846282 492.442078 94.608 467.999993 94.608 
L 467.999995 154.4832 
C 483.887351 154.4832 499.591756 157.888083 514.052539 164.467884 
C 528.513319 171.047684 541.39744 180.65087 551.8347 192.628838 
z
" style="fill: #003b6a; stroke: #ffffff; stroke-linejoin: miter"/>
   </g>
   <g id="patch_3">
    <path d="M 637.463147 289.086666 
C 640.807394 264.874447 638.924117 240.224326 631.940499 216.801162 
C 624.956881 193.377998 613.033784 171.721242 596.976461 153.293598 
L 551.8347 192.628838 
C 562.27196 204.606807 570.021973 218.683699 574.561324 233.908755 
C 579.100676 249.133812 580.324806 265.15639 578.151045 280.894333 
z
" style="fill: #8fc73e; stroke: #ffffff; stroke-linejoin: miter"/>
   </g>
   <g id="patch_4">
    <path d="M 483.631722 436.036325 
C 522.089594 432.507466 558.242036 416.057745 586.167587 389.381461 
C 614.093138 362.705177 632.179102 327.342907 637.463147 289.086666 
L 578.151045 280.894333 
C 574.716416 305.76089 562.96054 328.746365 544.808931 346.085949 
C 526.657323 363.425534 503.158236 374.117853 478.160619 376.411611 
z
" style="fill: #dc912f; stroke: #ffffff; stroke-linejoin: miter"/>
   </g>
   <g id="patch_5">
    <path d="M 357.593559 396.355351 
C 374.921369 410.995457 394.989328 422.043852 416.626793 428.856043 
C 438.264257 435.668235 461.04214 438.109118 483.631722 436.036325 
L 478.160619 376.411611 
C 463.477391 377.758927 448.671767 376.172353 434.607415 371.744428 
C 420.543063 367.316504 407.49889 360.135047 396.235814 350.618978 
z
" style="fill: #93bbdc; stroke: #ffffff; stroke-linejoin: miter"/>
   </g>
   <g id="patch_6">
    <path d="M 296.947894 268.288849 
C 297.320634 292.728091 302.926761 316.80604 313.387633 338.896436 
C 323.848505 360.986831 338.923183 380.580915 357.593559 396.355351 
L 396.235814 350.618978 
C 384.100069 340.365595 374.301528 327.62944 367.501961 313.270683 
C 360.702395 298.911926 357.058412 283.261259 356.816131 267.375752 
z
" style="fill: #f9c803; stroke: #ffffff; stroke-linejoin: miter"/>
   </g>
   <g id="patch_7">
    <path d="M 468.000002 94.608 
C 445.315517 94.608 422.855978 99.119993 401.931497 107.880812 
C 381.007016 116.641631 362.032513 129.477566 346.114936 145.639761 
C 330.197359 161.801957 317.652346 180.969926 309.211641 202.025578 
C 300.770937 223.081229 296.601951 245.607002 296.947894 268.288849 
L 356.816131 267.375752 
C 356.591268 252.632551 359.301109 237.990799 364.787567 224.304626 
C 370.274025 210.618452 378.428283 198.159272 388.774708 187.653845 
C 399.121134 177.148418 411.45456 168.80506 425.055473 163.110528 
C 438.656386 157.415995 453.255086 154.4832 468.000001 154.4832 
z
" style="fill: #6283aa; stroke: #ffffff; stroke-linejoin: miter"/>
   </g>
   <g id="matplotlib.axis_1"/>
   <g id="matplotlib.axis_2"/>
   <g id="line2d_1">
    <path d="M 530.348064 128.654377 
L 545.935085 94.397969 
" clip-path="url(#p6910bde4c9)" style="fill: none; stroke: #000000; stroke-opacity: 0.35; stroke-linecap: square"/>
   </g>
   <g id="line2d_2">
    <path d="M 612.267636 222.666617 
L 648.334547 211.913273 
" clip-path="url(#p6910bde4c9)" style="fill: none; stroke: #000000; stroke-opacity: 0.35; stroke-linecap: square"/>
   </g>
   <g id="line2d_3">
    <path d="M 571.987474 374.537289 
L 597.984353 401.751611 
" clip-path="url(#p6910bde4c9)" style="fill: none; stroke: #000000; stroke-opacity: 0.35; stroke-linecap: square"/>
   </g>
   <g id="line2d_4">
    <path d="M 422.791576 409.274919 
L 411.489473 445.173647 
" clip-path="url(#p6910bde4c9)" style="fill: none; stroke: #000000; stroke-opacity: 0.35; stroke-linecap: square"/>
   </g>
   <g id="line2d_5">
    <path d="M 331.941115 330.110461 
L 297.926388 346.218079 
" clip-path="url(#p6910bde4c9)" style="fill: none; stroke: #000000; stroke-opacity: 0.35; stroke-linecap: square"/>
   </g>
   <g id="line2d_6">
    <path d="M 360.741174 160.044568 
L 333.92646 133.635703 
" clip-path="url(#p6910bde4c9)" style="fill: none; stroke: #000000; stroke-opacity: 0.35; stroke-linecap: square"/>
   </g>
   <g id="text_1">
    <!-- 14% -->
    <g transform="translate(556.56259 68.769713) scale(0.08 -0.08)">
     <defs>
      <path id="DejaVuSans-31" d="M 794 531 
L 1825 531 
L 1825 4091 
L 703 3866 
L 703 4441 
L 1819 4666 
L 2450 4666 
L 2450 531 
L 3481 531 
L 3481 0 
L 794 0 
L 794 531 
z
" transform="scale(0.015625)"/>
      <path id="DejaVuSans-34" d="M 2419 4116 
L 825 1625 
L 2419 1625 
L 2419 4116 
z
M 2253 4666 
L 3047 4666 
L 3047 1625 
L 3713 1625 
L 3713 1100 
L 3047 1100 
L 3047 0 
L 2419 0 
L 2419 1100 
L 313 1100 
L 313 1709 
L 2253 4666 
z
" transform="scale(0.015625)"/>
      <path id="DejaVuSans-25" d="M 4653 2053 
Q 4381 2053 4226 1822 
Q 4072 1591 4072 1178 
Q 4072 772 4226 539 
Q 4381 306 4653 306 
Q 4919 306 5073 539 
Q 5228 772 5228 1178 
Q 5228 1588 5073 1820 
Q 4919 2053 4653 2053 
z
M 4653 2450 
Q 5147 2450 5437 2106 
Q 5728 1763 5728 1178 
Q 5728 594 5436 251 
Q 5144 -91 4653 -91 
Q 4153 -91 3862 251 
Q 3572 594 3572 1178 
Q 3572 1766 3864 2108 
Q 4156 2450 4653 2450 
z
M 1428 4353 
Q 1159 4353 1004 4120 
Q 850 3888 850 3481 
Q 850 3069 1003 2837 
Q 1156 2606 1428 2606 
Q 1700 2606 1854 2837 
Q 2009 3069 2009 3481 
Q 2009 3884 1853 4118 
Q 1697 4353 1428 4353 
z
M 4250 4750 
L 4750 4750 
L 1831 -91 
L 1331 -91 
L 4250 4750 
z
M 1428 4750 
Q 1922 4750 2215 4408 
Q 2509 4066 2509 3481 
Q 2509 2891 2217 2550 
Q 1925 2209 1428 2209 
Q 931 2209 642 2551 
Q 353 2894 353 3481 
Q 353 4063 643 4406 
Q 934 4750 1428 4750 
z
" transform="scale(0.015625)"/>
     </defs>
     <use xlink:href="#DejaVuSans-31"/>
     <use xlink:href="#DejaVuSans-34" transform="translate(63.623047 0)"/>
     <use xlink:href="#DejaVuSans-25" transform="translate(127.246094 0)"/>
    </g>
    <!-- Kein Hemmnis -->
    <g transform="translate(556.56259 77.727963) scale(0.08 -0.08)">
     <defs>
      <path id="DejaVuSans-4b" d="M 628 4666 
L 1259 4666 
L 1259 2694 
L 3353 4666 
L 4166 4666 
L 1850 2491 
L 4331 0 
L 3500 0 
L 1259 2247 
L 1259 0 
L 628 0 
L 628 4666 
z
" transform="scale(0.015625)"/>
      <path id="DejaVuSans-65" d="M 3597 1894 
L 3597 1613 
L 953 1613 
Q 991 1019 1311 708 
Q 1631 397 2203 397 
Q 2534 397 2845 478 
Q 3156 559 3463 722 
L 3463 178 
Q 3153 47 2828 -22 
Q 2503 -91 2169 -91 
Q 1331 -91 842 396 
Q 353 884 353 1716 
Q 353 2575 817 3079 
Q 1281 3584 2069 3584 
Q 2775 3584 3186 3129 
Q 3597 2675 3597 1894 
z
M 3022 2063 
Q 3016 2534 2758 2815 
Q 2500 3097 2075 3097 
Q 1594 3097 1305 2825 
Q 1016 2553 972 2059 
L 3022 2063 
z
" transform="scale(0.015625)"/>
      <path id="DejaVuSans-69" d="M 603 3500 
L 1178 3500 
L 1178 0 
L 603 0 
L 603 3500 
z
M 603 4863 
L 1178 4863 
L 1178 4134 
L 603 4134 
L 603 4863 
z
" transform="scale(0.015625)"/>
      <path id="DejaVuSans-6e" d="M 3513 2113 
L 3513 0 
L 2938 0 
L 2938 2094 
Q 2938 2591 2744 2837 
Q 2550 3084 2163 3084 
Q 1697 3084 1428 2787 
Q 1159 2491 1159 1978 
L 1159 0 
L 581 0 
L 581 3500 
L 1159 3500 
L 1159 2956 
Q 1366 3272 1645 3428 
Q 1925 3584 2291 3584 
Q 2894 3584 3203 3211 
Q 3513 2838 3513 2113 
z
" transform="scale(0.015625)"/>
      <path id="DejaVuSans-20" transform="scale(0.015625)"/>
      <path id="DejaVuSans-48" d="M 628 4666 
L 1259 4666 
L 1259 2753 
L 3553 2753 
L 3553 4666 
L 4184 4666 
L 4184 0 
L 3553 0 
L 3553 2222 
L 1259 2222 
L 1259 0 
L 628 0 
L 628 4666 
z
" transform="scale(0.015625)"/>
      <path id="DejaVuSans-6d" d="M 3328 2828 
Q 3544 3216 3844 3400 
Q 4144 3584 4550 3584 
Q 5097 3584 5394 3201 
Q 5691 2819 5691 2113 
L 5691 0 
L 5113 0 
L 5113 2094 
Q 5113 2597 4934 2840 
Q 4756 3084 4391 3084 
Q 3944 3084 3684 2787 
Q 3425 2491 3425 1978 
L 3425 0 
L 2847 0 
L 2847 2094 
Q 2847 2600 2669 2842 
Q 2491 3084 2119 3084 
Q 1678 3084 1418 2786 
Q 1159 2488 1159 1978 
L 1159 0 
L 581 0 
L 581 3500 
L 1159 3500 
L 1159 2956 
Q 1356 3278 1631 3431 
Q 1906 3584 2284 3584 
Q 2666 3584 2933 3390 
Q 3200 3197 3328 2828 
z
" transform="scale(0.015625)"/>
      <path id="DejaVuSans-73" d="M 2834 3397 
L 2834 2853 
Q 2591 2978 2328 3040 
Q 2066 3103 1784 3103 
Q 1356 3103 1142 2972 
Q 928 2841 928 2578 
Q 928 2378 1081 2264 
Q 1234 2150 1697 2047 
L 1894 2003 
Q 2506 1872 2764 1633 
Q 3022 1394 3022 966 
Q 3022 478 2636 193 
Q 2250 -91 1575 -91 
Q 1294 -91 989 -36 
Q 684 19 347 128 
L 347 722 
Q 666 556 975 473 
Q 1284 391 1588 391 
Q 1994 391 2212 530 
Q 2431 669 2431 922 
Q 2431 1156 2273 1281 
Q 2116 1406 1581 1522 
L 1381 1569 
Q 847 1681 609 1914 
Q 372 2147 372 2553 
Q 372 3047 722 3315 
Q 1072 3584 1716 3584 
Q 2034 3584 2315 3537 
Q 2597 3491 2834 3397 
z
" transform="scale(0.015625)"/>
     </defs>
     <use xlink:href="#DejaVuSans-4b"/>
     <use xlink:href="#DejaVuSans-65" transform="translate(60.576172 0)"/>
     <use xlink:href="#DejaVuSans-69" transform="translate(122.099609 0)"/>
     <use xlink:href="#DejaVuSans-6e" transform="translate(149.882812 0)"/>
     <use xlink:href="#DejaVuSans-20" transform="translate(213.261719 0)"/>
     <use xlink:href="#DejaVuSans-48" transform="translate(245.048828 0)"/>
     <use xlink:href="#DejaVuSans-65" transform="translate(320.244141 0)"/>
     <use xlink:href="#DejaVuSans-6d" transform="translate(381.767578 0)"/>
     <use xlink:href="#DejaVuSans-6d" transform="translate(479.179688 0)"/>
     <use xlink:href="#DejaVuSans-6e" transform="translate(576.591797 0)"/>
     <use xlink:href="#DejaVuSans-69" transform="translate(639.970703 0)"/>
     <use xlink:href="#DejaVuSans-73" transform="translate(667.753906 0)"/>
    </g>
   </g>
   <g id="text_2">
    <!-- 14% -->
    <g transform="translate(672.925629 202.309824) scale(0.08 -0.08)">
     <use xlink:href="#DejaVuSans-31"/>
     <use xlink:href="#DejaVuSans-34" transform="translate(63.623047 0)"/>
     <use xlink:href="#DejaVuSans-25" transform="translate(127.246094 0)"/>
    </g>
    <!-- Geringes Hemmnis -->
    <g transform="translate(672.925629 211.268074) scale(0.08 -0.08)">
     <defs>
      <path id="DejaVuSans-47" d="M 3809 666 
L 3809 1919 
L 2778 1919 
L 2778 2438 
L 4434 2438 
L 4434 434 
Q 4069 175 3628 42 
Q 3188 -91 2688 -91 
Q 1594 -91 976 548 
Q 359 1188 359 2328 
Q 359 3472 976 4111 
Q 1594 4750 2688 4750 
Q 3144 4750 3555 4637 
Q 3966 4525 4313 4306 
L 4313 3634 
Q 3963 3931 3569 4081 
Q 3175 4231 2741 4231 
Q 1884 4231 1454 3753 
Q 1025 3275 1025 2328 
Q 1025 1384 1454 906 
Q 1884 428 2741 428 
Q 3075 428 3337 486 
Q 3600 544 3809 666 
z
" transform="scale(0.015625)"/>
      <path id="DejaVuSans-72" d="M 2631 2963 
Q 2534 3019 2420 3045 
Q 2306 3072 2169 3072 
Q 1681 3072 1420 2755 
Q 1159 2438 1159 1844 
L 1159 0 
L 581 0 
L 581 3500 
L 1159 3500 
L 1159 2956 
Q 1341 3275 1631 3429 
Q 1922 3584 2338 3584 
Q 2397 3584 2469 3576 
Q 2541 3569 2628 3553 
L 2631 2963 
z
" transform="scale(0.015625)"/>
      <path id="DejaVuSans-67" d="M 2906 1791 
Q 2906 2416 2648 2759 
Q 2391 3103 1925 3103 
Q 1463 3103 1205 2759 
Q 947 2416 947 1791 
Q 947 1169 1205 825 
Q 1463 481 1925 481 
Q 2391 481 2648 825 
Q 2906 1169 2906 1791 
z
M 3481 434 
Q 3481 -459 3084 -895 
Q 2688 -1331 1869 -1331 
Q 1566 -1331 1297 -1286 
Q 1028 -1241 775 -1147 
L 775 -588 
Q 1028 -725 1275 -790 
Q 1522 -856 1778 -856 
Q 2344 -856 2625 -561 
Q 2906 -266 2906 331 
L 2906 616 
Q 2728 306 2450 153 
Q 2172 0 1784 0 
Q 1141 0 747 490 
Q 353 981 353 1791 
Q 353 2603 747 3093 
Q 1141 3584 1784 3584 
Q 2172 3584 2450 3431 
Q 2728 3278 2906 2969 
L 2906 3500 
L 3481 3500 
L 3481 434 
z
" transform="scale(0.015625)"/>
     </defs>
     <use xlink:href="#DejaVuSans-47"/>
     <use xlink:href="#DejaVuSans-65" transform="translate(77.490234 0)"/>
     <use xlink:href="#DejaVuSans-72" transform="translate(139.013672 0)"/>
     <use xlink:href="#DejaVuSans-69" transform="translate(180.126953 0)"/>
     <use xlink:href="#DejaVuSans-6e" transform="translate(207.910156 0)"/>
     <use xlink:href="#DejaVuSans-67" transform="translate(271.289062 0)"/>
     <use xlink:href="#DejaVuSans-65" transform="translate(334.765625 0)"/>
     <use xlink:href="#DejaVuSans-73" transform="translate(396.289062 0)"/>
     <use xlink:href="#DejaVuSans-20" transform="translate(448.388672 0)"/>
     <use xlink:href="#DejaVuSans-48" transform="translate(480.175781 0)"/>
     <use xlink:href="#DejaVuSans-65" transform="translate(555.371094 0)"/>
     <use xlink:href="#DejaVuSans-6d" transform="translate(616.894531 0)"/>
     <use xlink:href="#DejaVuSans-6d" transform="translate(714.306641 0)"/>
     <use xlink:href="#DejaVuSans-6e" transform="translate(811.71875 0)"/>
     <use xlink:href="#DejaVuSans-69" transform="translate(875.097656 0)"/>
     <use xlink:href="#DejaVuSans-73" transform="translate(902.880859 0)"/>
    </g>
   </g>
   <g id="text_3">
    <!-- 21% -->
    <g transform="translate(615.709486 418.035201) scale(0.08 -0.08)">
     <defs>
      <path id="DejaVuSans-32" d="M 1228 531 
L 3431 531 
L 3431 0 
L 469 0 
L 469 531 
Q 828 903 1448 1529 
Q 2069 2156 2228 2338 
Q 2531 2678 2651 2914 
Q 2772 3150 2772 3378 
Q 2772 3750 2511 3984 
Q 2250 4219 1831 4219 
Q 1534 4219 1204 4116 
Q 875 4013 500 3803 
L 500 4441 
Q 881 4594 1212 4672 
Q 1544 4750 1819 4750 
Q 2544 4750 2975 4387 
Q 3406 4025 3406 3419 
Q 3406 3131 3298 2873 
Q 3191 2616 2906 2266 
Q 2828 2175 2409 1742 
Q 1991 1309 1228 531 
z
" transform="scale(0.015625)"/>
     </defs>
     <use xlink:href="#DejaVuSans-32"/>
     <use xlink:href="#DejaVuSans-31" transform="translate(63.623047 0)"/>
     <use xlink:href="#DejaVuSans-25" transform="translate(127.246094 0)"/>
    </g>
    <!-- Mittleres Hemmnis -->
    <g transform="translate(615.709486 426.993451) scale(0.08 -0.08)">
     <defs>
      <path id="DejaVuSans-4d" d="M 628 4666 
L 1569 4666 
L 2759 1491 
L 3956 4666 
L 4897 4666 
L 4897 0 
L 4281 0 
L 4281 4097 
L 3078 897 
L 2444 897 
L 1241 4097 
L 1241 0 
L 628 0 
L 628 4666 
z
" transform="scale(0.015625)"/>
      <path id="DejaVuSans-74" d="M 1172 4494 
L 1172 3500 
L 2356 3500 
L 2356 3053 
L 1172 3053 
L 1172 1153 
Q 1172 725 1289 603 
Q 1406 481 1766 481 
L 2356 481 
L 2356 0 
L 1766 0 
Q 1100 0 847 248 
Q 594 497 594 1153 
L 594 3053 
L 172 3053 
L 172 3500 
L 594 3500 
L 594 4494 
L 1172 4494 
z
" transform="scale(0.015625)"/>
      <path id="DejaVuSans-6c" d="M 603 4863 
L 1178 4863 
L 1178 0 
L 603 0 
L 603 4863 
z
" transform="scale(0.015625)"/>
     </defs>
     <use xlink:href="#DejaVuSans-4d"/>
     <use xlink:href="#DejaVuSans-69" transform="translate(86.279297 0)"/>
     <use xlink:href="#DejaVuSans-74" transform="translate(114.0625 0)"/>
     <use xlink:href="#DejaVuSans-74" transform="translate(153.271484 0)"/>
     <use xlink:href="#DejaVuSans-6c" transform="translate(192.480469 0)"/>
     <use xlink:href="#DejaVuSans-65" transform="translate(220.263672 0)"/>
     <use xlink:href="#DejaVuSans-72" transform="translate(281.787109 0)"/>
     <use xlink:href="#DejaVuSans-65" transform="translate(320.650391 0)"/>
     <use xlink:href="#DejaVuSans-73" transform="translate(382.173828 0)"/>
     <use xlink:href="#DejaVuSans-20" transform="translate(434.273438 0)"/>
     <use xlink:href="#DejaVuSans-48" transform="translate(466.060547 0)"/>
     <use xlink:href="#DejaVuSans-65" transform="translate(541.255859 0)"/>
     <use xlink:href="#DejaVuSans-6d" transform="translate(602.779297 0)"/>
     <use xlink:href="#DejaVuSans-6d" transform="translate(700.191406 0)"/>
     <use xlink:href="#DejaVuSans-6e" transform="translate(797.603516 0)"/>
     <use xlink:href="#DejaVuSans-69" transform="translate(860.982422 0)"/>
     <use xlink:href="#DejaVuSans-73" transform="translate(888.765625 0)"/>
    </g>
   </g>
   <g id="text_4">
    <!-- 13% -->
    <g transform="translate(386.002241 467.378432) scale(0.08 -0.08)">
     <defs>
      <path id="DejaVuSans-33" d="M 2597 2516 
Q 3050 2419 3304 2112 
Q 3559 1806 3559 1356 
Q 3559 666 3084 287 
Q 2609 -91 1734 -91 
Q 1441 -91 1130 -33 
Q 819 25 488 141 
L 488 750 
Q 750 597 1062 519 
Q 1375 441 1716 441 
Q 2309 441 2620 675 
Q 2931 909 2931 1356 
Q 2931 1769 2642 2001 
Q 2353 2234 1838 2234 
L 1294 2234 
L 1294 2753 
L 1863 2753 
Q 2328 2753 2575 2939 
Q 2822 3125 2822 3475 
Q 2822 3834 2567 4026 
Q 2313 4219 1838 4219 
Q 1578 4219 1281 4162 
Q 984 4106 628 3988 
L 628 4550 
Q 988 4650 1302 4700 
Q 1616 4750 1894 4750 
Q 2613 4750 3031 4423 
Q 3450 4097 3450 3541 
Q 3450 3153 3228 2886 
Q 3006 2619 2597 2516 
z
" transform="scale(0.015625)"/>
     </defs>
     <use xlink:href="#DejaVuSans-31"/>
     <use xlink:href="#DejaVuSans-33" transform="translate(63.623047 0)"/>
     <use xlink:href="#DejaVuSans-25" transform="translate(127.246094 0)"/>
    </g>
    <!-- Starkes Hemmnis -->
    <g transform="translate(333.418491 476.336682) scale(0.08 -0.08)">
     <defs>
      <path id="DejaVuSans-53" d="M 3425 4513 
L 3425 3897 
Q 3066 4069 2747 4153 
Q 2428 4238 2131 4238 
Q 1616 4238 1336 4038 
Q 1056 3838 1056 3469 
Q 1056 3159 1242 3001 
Q 1428 2844 1947 2747 
L 2328 2669 
Q 3034 2534 3370 2195 
Q 3706 1856 3706 1288 
Q 3706 609 3251 259 
Q 2797 -91 1919 -91 
Q 1588 -91 1214 -16 
Q 841 59 441 206 
L 441 856 
Q 825 641 1194 531 
Q 1563 422 1919 422 
Q 2459 422 2753 634 
Q 3047 847 3047 1241 
Q 3047 1584 2836 1778 
Q 2625 1972 2144 2069 
L 1759 2144 
Q 1053 2284 737 2584 
Q 422 2884 422 3419 
Q 422 4038 858 4394 
Q 1294 4750 2059 4750 
Q 2388 4750 2728 4690 
Q 3069 4631 3425 4513 
z
" transform="scale(0.015625)"/>
      <path id="DejaVuSans-61" d="M 2194 1759 
Q 1497 1759 1228 1600 
Q 959 1441 959 1056 
Q 959 750 1161 570 
Q 1363 391 1709 391 
Q 2188 391 2477 730 
Q 2766 1069 2766 1631 
L 2766 1759 
L 2194 1759 
z
M 3341 1997 
L 3341 0 
L 2766 0 
L 2766 531 
Q 2569 213 2275 61 
Q 1981 -91 1556 -91 
Q 1019 -91 701 211 
Q 384 513 384 1019 
Q 384 1609 779 1909 
Q 1175 2209 1959 2209 
L 2766 2209 
L 2766 2266 
Q 2766 2663 2505 2880 
Q 2244 3097 1772 3097 
Q 1472 3097 1187 3025 
Q 903 2953 641 2809 
L 641 3341 
Q 956 3463 1253 3523 
Q 1550 3584 1831 3584 
Q 2591 3584 2966 3190 
Q 3341 2797 3341 1997 
z
" transform="scale(0.015625)"/>
      <path id="DejaVuSans-6b" d="M 581 4863 
L 1159 4863 
L 1159 1991 
L 2875 3500 
L 3609 3500 
L 1753 1863 
L 3688 0 
L 2938 0 
L 1159 1709 
L 1159 0 
L 581 0 
L 581 4863 
z
" transform="scale(0.015625)"/>
     </defs>
     <use xlink:href="#DejaVuSans-53"/>
     <use xlink:href="#DejaVuSans-74" transform="translate(63.476562 0)"/>
     <use xlink:href="#DejaVuSans-61" transform="translate(102.685547 0)"/>
     <use xlink:href="#DejaVuSans-72" transform="translate(163.964844 0)"/>
     <use xlink:href="#DejaVuSans-6b" transform="translate(205.078125 0)"/>
     <use xlink:href="#DejaVuSans-65" transform="translate(259.363281 0)"/>
     <use xlink:href="#DejaVuSans-73" transform="translate(320.886719 0)"/>
     <use xlink:href="#DejaVuSans-20" transform="translate(372.986328 0)"/>
     <use xlink:href="#DejaVuSans-48" transform="translate(404.773438 0)"/>
     <use xlink:href="#DejaVuSans-65" transform="translate(479.96875 0)"/>
     <use xlink:href="#DejaVuSans-6d" transform="translate(541.492188 0)"/>
     <use xlink:href="#DejaVuSans-6d" transform="translate(638.904297 0)"/>
     <use xlink:href="#DejaVuSans-6e" transform="translate(736.316406 0)"/>
     <use xlink:href="#DejaVuSans-69" transform="translate(799.695312 0)"/>
     <use xlink:href="#DejaVuSans-73" transform="translate(827.478516 0)"/>
    </g>
   </g>
   <g id="text_5">
    <!-- 14% -->
    <g transform="translate(256.953296 354.928922) scale(0.08 -0.08)">
     <use xlink:href="#DejaVuSans-31"/>
     <use xlink:href="#DejaVuSans-34" transform="translate(63.623047 0)"/>
     <use xlink:href="#DejaVuSans-25" transform="translate(127.246094 0)"/>
    </g>
    <!-- Sehr starkes Hemmnis -->
    <g transform="translate(184.378296 363.887172) scale(0.08 -0.08)">
     <defs>
      <path id="DejaVuSans-68" d="M 3513 2113 
L 3513 0 
L 2938 0 
L 2938 2094 
Q 2938 2591 2744 2837 
Q 2550 3084 2163 3084 
Q 1697 3084 1428 2787 
Q 1159 2491 1159 1978 
L 1159 0 
L 581 0 
L 581 4863 
L 1159 4863 
L 1159 2956 
Q 1366 3272 1645 3428 
Q 1925 3584 2291 3584 
Q 2894 3584 3203 3211 
Q 3513 2838 3513 2113 
z
" transform="scale(0.015625)"/>
     </defs>
     <use xlink:href="#DejaVuSans-53"/>
     <use xlink:href="#DejaVuSans-65" transform="translate(63.476562 0)"/>
     <use xlink:href="#DejaVuSans-68" transform="translate(125 0)"/>
     <use xlink:href="#DejaVuSans-72" transform="translate(188.378906 0)"/>
     <use xlink:href="#DejaVuSans-20" transform="translate(229.492188 0)"/>
     <use xlink:href="#DejaVuSans-73" transform="translate(261.279297 0)"/>
     <use xlink:href="#DejaVuSans-74" transform="translate(313.378906 0)"/>
     <use xlink:href="#DejaVuSans-61" transform="translate(352.587891 0)"/>
     <use xlink:href="#DejaVuSans-72" transform="translate(413.867188 0)"/>
     <use xlink:href="#DejaVuSans-6b" transform="translate(454.980469 0)"/>
     <use xlink:href="#DejaVuSans-65" transform="translate(509.265625 0)"/>
     <use xlink:href="#DejaVuSans-73" transform="translate(570.789062 0)"/>
     <use xlink:href="#DejaVuSans-20" transform="translate(622.888672 0)"/>
     <use xlink:href="#DejaVuSans-48" transform="translate(654.675781 0)"/>
     <use xlink:href="#DejaVuSans-65" transform="translate(729.871094 0)"/>
     <use xlink:href="#DejaVuSans-6d" transform="translate(791.394531 0)"/>
     <use xlink:href="#DejaVuSans-6d" transform="translate(888.806641 0)"/>
     <use xlink:href="#DejaVuSans-6e" transform="translate(986.21875 0)"/>
     <use xlink:href="#DejaVuSans-69" transform="translate(1049.597656 0)"/>
     <use xlink:href="#DejaVuSans-73" transform="translate(1077.380859 0)"/>
    </g>
   </g>
   <g id="text_6">
    <!-- 25% -->
    <g transform="translate(297.862461 113.358036) scale(0.08 -0.08)">
     <defs>
      <path id="DejaVuSans-35" d="M 691 4666 
L 3169 4666 
L 3169 4134 
L 1269 4134 
L 1269 2991 
Q 1406 3038 1543 3061 
Q 1681 3084 1819 3084 
Q 2600 3084 3056 2656 
Q 3513 2228 3513 1497 
Q 3513 744 3044 326 
Q 2575 -91 1722 -91 
Q 1428 -91 1123 -41 
Q 819 9 494 109 
L 494 744 
Q 775 591 1075 516 
Q 1375 441 1709 441 
Q 2250 441 2565 725 
Q 2881 1009 2881 1497 
Q 2881 1984 2565 2268 
Q 2250 2553 1709 2553 
Q 1456 2553 1204 2497 
Q 953 2441 691 2322 
L 691 4666 
z
" transform="scale(0.015625)"/>
     </defs>
     <use xlink:href="#DejaVuSans-32"/>
     <use xlink:href="#DejaVuSans-35" transform="translate(63.623047 0)"/>
     <use xlink:href="#DejaVuSans-25" transform="translate(127.246094 0)"/>
    </g>
    <!-- Keine Antwort -->
    <g transform="translate(259.576211 122.316286) scale(0.08 -0.08)">
     <defs>
      <path id="DejaVuSans-41" d="M 2188 4044 
L 1331 1722 
L 3047 1722 
L 2188 4044 
z
M 1831 4666 
L 2547 4666 
L 4325 0 
L 3669 0 
L 3244 1197 
L 1141 1197 
L 716 0 
L 50 0 
L 1831 4666 
z
" transform="scale(0.015625)"/>
      <path id="DejaVuSans-77" d="M 269 3500 
L 844 3500 
L 1563 769 
L 2278 3500 
L 2956 3500 
L 3675 769 
L 4391 3500 
L 4966 3500 
L 4050 0 
L 3372 0 
L 2619 2869 
L 1863 0 
L 1184 0 
L 269 3500 
z
" transform="scale(0.015625)"/>
      <path id="DejaVuSans-6f" d="M 1959 3097 
Q 1497 3097 1228 2736 
Q 959 2375 959 1747 
Q 959 1119 1226 758 
Q 1494 397 1959 397 
Q 2419 397 2687 759 
Q 2956 1122 2956 1747 
Q 2956 2369 2687 2733 
Q 2419 3097 1959 3097 
z
M 1959 3584 
Q 2709 3584 3137 3096 
Q 3566 2609 3566 1747 
Q 3566 888 3137 398 
Q 2709 -91 1959 -91 
Q 1206 -91 779 398 
Q 353 888 353 1747 
Q 353 2609 779 3096 
Q 1206 3584 1959 3584 
z
" transform="scale(0.015625)"/>
     </defs>
     <use xlink:href="#DejaVuSans-4b"/>
     <use xlink:href="#DejaVuSans-65" transform="translate(60.576172 0)"/>
     <use xlink:href="#DejaVuSans-69" transform="translate(122.099609 0)"/>
     <use xlink:href="#DejaVuSans-6e" transform="translate(149.882812 0)"/>
     <use xlink:href="#DejaVuSans-65" transform="translate(213.261719 0)"/>
     <use xlink:href="#DejaVuSans-20" transform="translate(274.785156 0)"/>
     <use xlink:href="#DejaVuSans-41" transform="translate(306.572266 0)"/>
     <use xlink:href="#DejaVuSans-6e" transform="translate(374.980469 0)"/>
     <use xlink:href="#DejaVuSans-74" transform="translate(438.359375 0)"/>
     <use xlink:href="#DejaVuSans-77" transform="translate(477.568359 0)"/>
     <use xlink:href="#DejaVuSans-6f" transform="translate(559.355469 0)"/>
     <use xlink:href="#DejaVuSans-72" transform="translate(620.537109 0)"/>
     <use xlink:href="#DejaVuSans-74" transform="translate(661.650391 0)"/>
    </g>
   </g>
  </g>
  <g id="text_7">
   <!-- Unklare gesetzliche Rahmenbedingungen -->
   <g transform="translate(342.855 22.078125) scale(0.12 -0.12)">
    <defs>
     <path id="DejaVuSans-55" d="M 556 4666 
L 1191 4666 
L 1191 1831 
Q 1191 1081 1462 751 
Q 1734 422 2344 422 
Q 2950 422 3222 751 
Q 3494 1081 3494 1831 
L 3494 4666 
L 4128 4666 
L 4128 1753 
Q 4128 841 3676 375 
Q 3225 -91 2344 -91 
Q 1459 -91 1007 375 
Q 556 841 556 1753 
L 556 4666 
z
" transform="scale(0.015625)"/>
     <path id="DejaVuSans-7a" d="M 353 3500 
L 3084 3500 
L 3084 2975 
L 922 459 
L 3084 459 
L 3084 0 
L 275 0 
L 275 525 
L 2438 3041 
L 353 3041 
L 353 3500 
z
" transform="scale(0.015625)"/>
     <path id="DejaVuSans-63" d="M 3122 3366 
L 3122 2828 
Q 2878 2963 2633 3030 
Q 2388 3097 2138 3097 
Q 1578 3097 1268 2742 
Q 959 2388 959 1747 
Q 959 1106 1268 751 
Q 1578 397 2138 397 
Q 2388 397 2633 464 
Q 2878 531 3122 666 
L 3122 134 
Q 2881 22 2623 -34 
Q 2366 -91 2075 -91 
Q 1284 -91 818 406 
Q 353 903 353 1747 
Q 353 2603 823 3093 
Q 1294 3584 2113 3584 
Q 2378 3584 2631 3529 
Q 2884 3475 3122 3366 
z
" transform="scale(0.015625)"/>
     <path id="DejaVuSans-52" d="M 2841 2188 
Q 3044 2119 3236 1894 
Q 3428 1669 3622 1275 
L 4263 0 
L 3584 0 
L 2988 1197 
Q 2756 1666 2539 1819 
Q 2322 1972 1947 1972 
L 1259 1972 
L 1259 0 
L 628 0 
L 628 4666 
L 2053 4666 
Q 2853 4666 3247 4331 
Q 3641 3997 3641 3322 
Q 3641 2881 3436 2590 
Q 3231 2300 2841 2188 
z
M 1259 4147 
L 1259 2491 
L 2053 2491 
Q 2509 2491 2742 2702 
Q 2975 2913 2975 3322 
Q 2975 3731 2742 3939 
Q 2509 4147 2053 4147 
L 1259 4147 
z
" transform="scale(0.015625)"/>
     <path id="DejaVuSans-62" d="M 3116 1747 
Q 3116 2381 2855 2742 
Q 2594 3103 2138 3103 
Q 1681 3103 1420 2742 
Q 1159 2381 1159 1747 
Q 1159 1113 1420 752 
Q 1681 391 2138 391 
Q 2594 391 2855 752 
Q 3116 1113 3116 1747 
z
M 1159 2969 
Q 1341 3281 1617 3432 
Q 1894 3584 2278 3584 
Q 2916 3584 3314 3078 
Q 3713 2572 3713 1747 
Q 3713 922 3314 415 
Q 2916 -91 2278 -91 
Q 1894 -91 1617 61 
Q 1341 213 1159 525 
L 1159 0 
L 581 0 
L 581 4863 
L 1159 4863 
L 1159 2969 
z
" transform="scale(0.015625)"/>
     <path id="DejaVuSans-64" d="M 2906 2969 
L 2906 4863 
L 3481 4863 
L 3481 0 
L 2906 0 
L 2906 525 
Q 2725 213 2448 61 
Q 2172 -91 1784 -91 
Q 1150 -91 751 415 
Q 353 922 353 1747 
Q 353 2572 751 3078 
Q 1150 3584 1784 3584 
Q 2172 3584 2448 3432 
Q 2725 3281 2906 2969 
z
M 947 1747 
Q 947 1113 1208 752 
Q 1469 391 1925 391 
Q 2381 391 2643 752 
Q 2906 1113 2906 1747 
Q 2906 2381 2643 2742 
Q 2381 3103 1925 3103 
Q 1469 3103 1208 2742 
Q 947 2381 947 1747 
z
" transform="scale(0.015625)"/>
     <path id="DejaVuSans-75" d="M 544 1381 
L 544 3500 
L 1119 3500 
L 1119 1403 
Q 1119 906 1312 657 
Q 1506 409 1894 409 
Q 2359 409 2629 706 
Q 2900 1003 2900 1516 
L 2900 3500 
L 3475 3500 
L 3475 0 
L 2900 0 
L 2900 538 
Q 2691 219 2414 64 
Q 2138 -91 1772 -91 
Q 1169 -91 856 284 
Q 544 659 544 1381 
z
M 1991 3584 
L 1991 3584 
z
" transform="scale(0.015625)"/>
    </defs>
    <use xlink:href="#DejaVuSans-55"/>
    <use xlink:href="#DejaVuSans-6e" transform="translate(73.193359 0)"/>
    <use xlink:href="#DejaVuSans-6b" transform="translate(136.572266 0)"/>
    <use xlink:href="#DejaVuSans-6c" transform="translate(194.482422 0)"/>
    <use xlink:href="#DejaVuSans-61" transform="translate(222.265625 0)"/>
    <use xlink:href="#DejaVuSans-72" transform="translate(283.544922 0)"/>
    <use xlink:href="#DejaVuSans-65" transform="translate(322.408203 0)"/>
    <use xlink:href="#DejaVuSans-20" transform="translate(383.931641 0)"/>
    <use xlink:href="#DejaVuSans-67" transform="translate(415.71875 0)"/>
    <use xlink:href="#DejaVuSans-65" transform="translate(479.195312 0)"/>
    <use xlink:href="#DejaVuSans-73" transform="translate(540.71875 0)"/>
    <use xlink:href="#DejaVuSans-65" transform="translate(592.818359 0)"/>
    <use xlink:href="#DejaVuSans-74" transform="translate(654.341797 0)"/>
    <use xlink:href="#DejaVuSans-7a" transform="translate(693.550781 0)"/>
    <use xlink:href="#DejaVuSans-6c" transform="translate(746.041016 0)"/>
    <use xlink:href="#DejaVuSans-69" transform="translate(773.824219 0)"/>
    <use xlink:href="#DejaVuSans-63" transform="translate(801.607422 0)"/>
    <use xlink:href="#DejaVuSans-68" transform="translate(856.587891 0)"/>
    <use xlink:href="#DejaVuSans-65" transform="translate(919.966797 0)"/>
    <use xlink:href="#DejaVuSans-20" transform="translate(981.490234 0)"/>
    <use xlink:href="#DejaVuSans-52" transform="translate(1013.277344 0)"/>
    <use xlink:href="#DejaVuSans-61" transform="translate(1080.509766 0)"/>
    <use xlink:href="#DejaVuSans-68" transform="translate(1141.789062 0)"/>
    <use xlink:href="#DejaVuSans-6d" transform="translate(1205.167969 0)"/>
    <use xlink:href="#DejaVuSans-65" transform="translate(1302.580078 0)"/>
    <use xlink:href="#DejaVuSans-6e" transform="translate(1364.103516 0)"/>
    <use xlink:href="#DejaVuSans-62" transform="translate(1427.482422 0)"/>
    <use xlink:href="#DejaVuSans-65" transform="translate(1490.958984 0)"/>
    <use xlink:href="#DejaVuSans-64" transform="translate(1552.482422 0)"/>
    <use xlink:href="#DejaVuSans-69" transform="translate(1615.958984 0)"/>
    <use xlink:href="#DejaVuSans-6e" transform="translate(1643.742188 0)"/>
    <use xlink:href="#DejaVuSans-67" transform="translate(1707.121094 0)"/>
    <use xlink:href="#DejaVuSans-75" transform="translate(1770.597656 0)"/>
    <use xlink:href="#DejaVuSans-6e" transform="translate(1833.976562 0)"/>
    <use xlink:href="#DejaVuSans-67" transform="translate(1897.355469 0)"/>
    <use xlink:href="#DejaVuSans-65" transform="translate(1960.832031 0)"/>
    <use xlink:href="#DejaVuSans-6e" transform="translate(2022.355469 0)"/>
   </g>
  </g>
  <g id="text_8">
   <!-- Abbildung 34o: In welchem Maß stellen die folgenden Punkte ein Hemmnis für die -->
   <g transform="translate(241.899297 557.948813) scale(0.11 -0.11)">
    <defs>
     <path id="DejaVuSans-3a" d="M 750 794 
L 1409 794 
L 1409 0 
L 750 0 
L 750 794 
z
M 750 3309 
L 1409 3309 
L 1409 2516 
L 750 2516 
L 750 3309 
z
" transform="scale(0.015625)"/>
     <path id="DejaVuSans-49" d="M 628 4666 
L 1259 4666 
L 1259 0 
L 628 0 
L 628 4666 
z
" transform="scale(0.015625)"/>
     <path id="DejaVuSans-df" d="M 581 3553 
Q 581 4178 954 4520 
Q 1328 4863 2009 4863 
Q 2659 4863 3001 4500 
Q 3344 4138 3353 3438 
Q 2881 3413 2618 3233 
Q 2356 3053 2356 2753 
Q 2356 2606 2447 2479 
Q 2538 2353 2741 2222 
L 2919 2106 
Q 3438 1775 3588 1553 
Q 3738 1331 3738 1019 
Q 3738 481 3386 195 
Q 3034 -91 2375 -91 
Q 2175 -91 1962 -52 
Q 1750 -13 1522 63 
L 1522 575 
Q 1772 481 1990 436 
Q 2209 391 2413 391 
Q 2775 391 2962 539 
Q 3150 688 3150 972 
Q 3150 1169 3058 1300 
Q 2966 1431 2650 1625 
L 2363 1797 
Q 2063 1981 1927 2192 
Q 1791 2403 1791 2688 
Q 1791 3084 2052 3353 
Q 2313 3622 2784 3713 
Q 2759 4034 2554 4209 
Q 2350 4384 1997 4384 
Q 1591 4384 1378 4167 
Q 1166 3950 1166 3541 
L 1166 0 
L 581 0 
L 581 3553 
z
" transform="scale(0.015625)"/>
     <path id="DejaVuSans-66" d="M 2375 4863 
L 2375 4384 
L 1825 4384 
Q 1516 4384 1395 4259 
Q 1275 4134 1275 3809 
L 1275 3500 
L 2222 3500 
L 2222 3053 
L 1275 3053 
L 1275 0 
L 697 0 
L 697 3053 
L 147 3053 
L 147 3500 
L 697 3500 
L 697 3744 
Q 697 4328 969 4595 
Q 1241 4863 1831 4863 
L 2375 4863 
z
" transform="scale(0.015625)"/>
     <path id="DejaVuSans-50" d="M 1259 4147 
L 1259 2394 
L 2053 2394 
Q 2494 2394 2734 2622 
Q 2975 2850 2975 3272 
Q 2975 3691 2734 3919 
Q 2494 4147 2053 4147 
L 1259 4147 
z
M 628 4666 
L 2053 4666 
Q 2838 4666 3239 4311 
Q 3641 3956 3641 3272 
Q 3641 2581 3239 2228 
Q 2838 1875 2053 1875 
L 1259 1875 
L 1259 0 
L 628 0 
L 628 4666 
z
" transform="scale(0.015625)"/>
     <path id="DejaVuSans-fc" d="M 544 1381 
L 544 3500 
L 1119 3500 
L 1119 1403 
Q 1119 906 1312 657 
Q 1506 409 1894 409 
Q 2359 409 2629 706 
Q 2900 1003 2900 1516 
L 2900 3500 
L 3475 3500 
L 3475 0 
L 2900 0 
L 2900 538 
Q 2691 219 2414 64 
Q 2138 -91 1772 -91 
Q 1169 -91 856 284 
Q 544 659 544 1381 
z
M 1991 3584 
L 1991 3584 
z
M 2278 4850 
L 2912 4850 
L 2912 4219 
L 2278 4219 
L 2278 4850 
z
M 1056 4850 
L 1690 4850 
L 1690 4219 
L 1056 4219 
L 1056 4850 
z
" transform="scale(0.015625)"/>
    </defs>
    <use xlink:href="#DejaVuSans-41"/>
    <use xlink:href="#DejaVuSans-62" transform="translate(68.408203 0)"/>
    <use xlink:href="#DejaVuSans-62" transform="translate(131.884766 0)"/>
    <use xlink:href="#DejaVuSans-69" transform="translate(195.361328 0)"/>
    <use xlink:href="#DejaVuSans-6c" transform="translate(223.144531 0)"/>
    <use xlink:href="#DejaVuSans-64" transform="translate(250.927734 0)"/>
    <use xlink:href="#DejaVuSans-75" transform="translate(314.404297 0)"/>
    <use xlink:href="#DejaVuSans-6e" transform="translate(377.783203 0)"/>
    <use xlink:href="#DejaVuSans-67" transform="translate(441.162109 0)"/>
    <use xlink:href="#DejaVuSans-20" transform="translate(504.638672 0)"/>
    <use xlink:href="#DejaVuSans-33" transform="translate(536.425781 0)"/>
    <use xlink:href="#DejaVuSans-34" transform="translate(600.048828 0)"/>
    <use xlink:href="#DejaVuSans-6f" transform="translate(663.671875 0)"/>
    <use xlink:href="#DejaVuSans-3a" transform="translate(724.853516 0)"/>
    <use xlink:href="#DejaVuSans-20" transform="translate(758.544922 0)"/>
    <use xlink:href="#DejaVuSans-49" transform="translate(790.332031 0)"/>
    <use xlink:href="#DejaVuSans-6e" transform="translate(819.824219 0)"/>
    <use xlink:href="#DejaVuSans-20" transform="translate(883.203125 0)"/>
    <use xlink:href="#DejaVuSans-77" transform="translate(914.990234 0)"/>
    <use xlink:href="#DejaVuSans-65" transform="translate(996.777344 0)"/>
    <use xlink:href="#DejaVuSans-6c" transform="translate(1058.300781 0)"/>
    <use xlink:href="#DejaVuSans-63" transform="translate(1086.083984 0)"/>
    <use xlink:href="#DejaVuSans-68" transform="translate(1141.064453 0)"/>
    <use xlink:href="#DejaVuSans-65" transform="translate(1204.443359 0)"/>
    <use xlink:href="#DejaVuSans-6d" transform="translate(1265.966797 0)"/>
    <use xlink:href="#DejaVuSans-20" transform="translate(1363.378906 0)"/>
    <use xlink:href="#DejaVuSans-4d" transform="translate(1395.166016 0)"/>
    <use xlink:href="#DejaVuSans-61" transform="translate(1481.445312 0)"/>
    <use xlink:href="#DejaVuSans-df" transform="translate(1542.724609 0)"/>
    <use xlink:href="#DejaVuSans-20" transform="translate(1605.712891 0)"/>
    <use xlink:href="#DejaVuSans-73" transform="translate(1637.5 0)"/>
    <use xlink:href="#DejaVuSans-74" transform="translate(1689.599609 0)"/>
    <use xlink:href="#DejaVuSans-65" transform="translate(1728.808594 0)"/>
    <use xlink:href="#DejaVuSans-6c" transform="translate(1790.332031 0)"/>
    <use xlink:href="#DejaVuSans-6c" transform="translate(1818.115234 0)"/>
    <use xlink:href="#DejaVuSans-65" transform="translate(1845.898438 0)"/>
    <use xlink:href="#DejaVuSans-6e" transform="translate(1907.421875 0)"/>
    <use xlink:href="#DejaVuSans-20" transform="translate(1970.800781 0)"/>
    <use xlink:href="#DejaVuSans-64" transform="translate(2002.587891 0)"/>
    <use xlink:href="#DejaVuSans-69" transform="translate(2066.064453 0)"/>
    <use xlink:href="#DejaVuSans-65" transform="translate(2093.847656 0)"/>
    <use xlink:href="#DejaVuSans-20" transform="translate(2155.371094 0)"/>
    <use xlink:href="#DejaVuSans-66" transform="translate(2187.158203 0)"/>
    <use xlink:href="#DejaVuSans-6f" transform="translate(2222.363281 0)"/>
    <use xlink:href="#DejaVuSans-6c" transform="translate(2283.544922 0)"/>
    <use xlink:href="#DejaVuSans-67" transform="translate(2311.328125 0)"/>
    <use xlink:href="#DejaVuSans-65" transform="translate(2374.804688 0)"/>
    <use xlink:href="#DejaVuSans-6e" transform="translate(2436.328125 0)"/>
    <use xlink:href="#DejaVuSans-64" transform="translate(2499.707031 0)"/>
    <use xlink:href="#DejaVuSans-65" transform="translate(2563.183594 0)"/>
    <use xlink:href="#DejaVuSans-6e" transform="translate(2624.707031 0)"/>
    <use xlink:href="#DejaVuSans-20" transform="translate(2688.085938 0)"/>
    <use xlink:href="#DejaVuSans-50" transform="translate(2719.873047 0)"/>
    <use xlink:href="#DejaVuSans-75" transform="translate(2778.425781 0)"/>
    <use xlink:href="#DejaVuSans-6e" transform="translate(2841.804688 0)"/>
    <use xlink:href="#DejaVuSans-6b" transform="translate(2905.183594 0)"/>
    <use xlink:href="#DejaVuSans-74" transform="translate(2963.09375 0)"/>
    <use xlink:href="#DejaVuSans-65" transform="translate(3002.302734 0)"/>
    <use xlink:href="#DejaVuSans-20" transform="translate(3063.826172 0)"/>
    <use xlink:href="#DejaVuSans-65" transform="translate(3095.613281 0)"/>
    <use xlink:href="#DejaVuSans-69" transform="translate(3157.136719 0)"/>
    <use xlink:href="#DejaVuSans-6e" transform="translate(3184.919922 0)"/>
    <use xlink:href="#DejaVuSans-20" transform="translate(3248.298828 0)"/>
    <use xlink:href="#DejaVuSans-48" transform="translate(3280.085938 0)"/>
    <use xlink:href="#DejaVuSans-65" transform="translate(3355.28125 0)"/>
    <use xlink:href="#DejaVuSans-6d" transform="translate(3416.804688 0)"/>
    <use xlink:href="#DejaVuSans-6d" transform="translate(3514.216797 0)"/>
    <use xlink:href="#DejaVuSans-6e" transform="translate(3611.628906 0)"/>
    <use xlink:href="#DejaVuSans-69" transform="translate(3675.007812 0)"/>
    <use xlink:href="#DejaVuSans-73" transform="translate(3702.791016 0)"/>
    <use xlink:href="#DejaVuSans-20" transform="translate(3754.890625 0)"/>
    <use xlink:href="#DejaVuSans-66" transform="translate(3786.677734 0)"/>
    <use xlink:href="#DejaVuSans-fc" transform="translate(3821.882812 0)"/>
    <use xlink:href="#DejaVuSans-72" transform="translate(3885.261719 0)"/>
    <use xlink:href="#DejaVuSans-20" transform="translate(3926.375 0)"/>
    <use xlink:href="#DejaVuSans-64" transform="translate(3958.162109 0)"/>
    <use xlink:href="#DejaVuSans-69" transform="translate(4021.638672 0)"/>
    <use xlink:href="#DejaVuSans-65" transform="translate(4049.421875 0)"/>
   </g>
   <!-- Umsetzung von Kreislaufwirtschaft in Ihrem Unternehmen dar? – Unklare -->
   <g transform="translate(267.134844 569.430578) scale(0.11 -0.11)">
    <defs>
     <path id="DejaVuSans-76" d="M 191 3500 
L 800 3500 
L 1894 563 
L 2988 3500 
L 3597 3500 
L 2284 0 
L 1503 0 
L 191 3500 
z
" transform="scale(0.015625)"/>
     <path id="DejaVuSans-3f" d="M 1222 794 
L 1856 794 
L 1856 0 
L 1222 0 
L 1222 794 
z
M 1838 1253 
L 1241 1253 
L 1241 1734 
Q 1241 2050 1328 2253 
Q 1416 2456 1697 2725 
L 1978 3003 
Q 2156 3169 2236 3316 
Q 2316 3463 2316 3616 
Q 2316 3894 2111 4066 
Q 1906 4238 1569 4238 
Q 1322 4238 1042 4128 
Q 763 4019 459 3809 
L 459 4397 
Q 753 4575 1054 4662 
Q 1356 4750 1678 4750 
Q 2253 4750 2601 4447 
Q 2950 4144 2950 3647 
Q 2950 3409 2837 3195 
Q 2725 2981 2444 2713 
L 2169 2444 
Q 2022 2297 1961 2214 
Q 1900 2131 1875 2053 
Q 1856 1988 1847 1894 
Q 1838 1800 1838 1638 
L 1838 1253 
z
" transform="scale(0.015625)"/>
     <path id="DejaVuSans-2013" d="M 313 1978 
L 2888 1978 
L 2888 1528 
L 313 1528 
L 313 1978 
z
" transform="scale(0.015625)"/>
    </defs>
    <use xlink:href="#DejaVuSans-55"/>
    <use xlink:href="#DejaVuSans-6d" transform="translate(73.193359 0)"/>
    <use xlink:href="#DejaVuSans-73" transform="translate(170.605469 0)"/>
    <use xlink:href="#DejaVuSans-65" transform="translate(222.705078 0)"/>
    <use xlink:href="#DejaVuSans-74" transform="translate(284.228516 0)"/>
    <use xlink:href="#DejaVuSans-7a" transform="translate(323.4375 0)"/>
    <use xlink:href="#DejaVuSans-75" transform="translate(375.927734 0)"/>
    <use xlink:href="#DejaVuSans-6e" transform="translate(439.306641 0)"/>
    <use xlink:href="#DejaVuSans-67" transform="translate(502.685547 0)"/>
    <use xlink:href="#DejaVuSans-20" transform="translate(566.162109 0)"/>
    <use xlink:href="#DejaVuSans-76" transform="translate(597.949219 0)"/>
    <use xlink:href="#DejaVuSans-6f" transform="translate(657.128906 0)"/>
    <use xlink:href="#DejaVuSans-6e" transform="translate(718.310547 0)"/>
    <use xlink:href="#DejaVuSans-20" transform="translate(781.689453 0)"/>
    <use xlink:href="#DejaVuSans-4b" transform="translate(813.476562 0)"/>
    <use xlink:href="#DejaVuSans-72" transform="translate(879.052734 0)"/>
    <use xlink:href="#DejaVuSans-65" transform="translate(917.916016 0)"/>
    <use xlink:href="#DejaVuSans-69" transform="translate(979.439453 0)"/>
    <use xlink:href="#DejaVuSans-73" transform="translate(1007.222656 0)"/>
    <use xlink:href="#DejaVuSans-6c" transform="translate(1059.322266 0)"/>
    <use xlink:href="#DejaVuSans-61" transform="translate(1087.105469 0)"/>
    <use xlink:href="#DejaVuSans-75" transform="translate(1148.384766 0)"/>
    <use xlink:href="#DejaVuSans-66" transform="translate(1211.763672 0)"/>
    <use xlink:href="#DejaVuSans-77" transform="translate(1245.21875 0)"/>
    <use xlink:href="#DejaVuSans-69" transform="translate(1327.005859 0)"/>
    <use xlink:href="#DejaVuSans-72" transform="translate(1354.789062 0)"/>
    <use xlink:href="#DejaVuSans-74" transform="translate(1395.902344 0)"/>
    <use xlink:href="#DejaVuSans-73" transform="translate(1435.111328 0)"/>
    <use xlink:href="#DejaVuSans-63" transform="translate(1487.210938 0)"/>
    <use xlink:href="#DejaVuSans-68" transform="translate(1542.191406 0)"/>
    <use xlink:href="#DejaVuSans-61" transform="translate(1605.570312 0)"/>
    <use xlink:href="#DejaVuSans-66" transform="translate(1666.849609 0)"/>
    <use xlink:href="#DejaVuSans-74" transform="translate(1700.304688 0)"/>
    <use xlink:href="#DejaVuSans-20" transform="translate(1739.513672 0)"/>
    <use xlink:href="#DejaVuSans-69" transform="translate(1771.300781 0)"/>
    <use xlink:href="#DejaVuSans-6e" transform="translate(1799.083984 0)"/>
    <use xlink:href="#DejaVuSans-20" transform="translate(1862.462891 0)"/>
    <use xlink:href="#DejaVuSans-49" transform="translate(1894.25 0)"/>
    <use xlink:href="#DejaVuSans-68" transform="translate(1923.742188 0)"/>
    <use xlink:href="#DejaVuSans-72" transform="translate(1987.121094 0)"/>
    <use xlink:href="#DejaVuSans-65" transform="translate(2025.984375 0)"/>
    <use xlink:href="#DejaVuSans-6d" transform="translate(2087.507812 0)"/>
    <use xlink:href="#DejaVuSans-20" transform="translate(2184.919922 0)"/>
    <use xlink:href="#DejaVuSans-55" transform="translate(2216.707031 0)"/>
    <use xlink:href="#DejaVuSans-6e" transform="translate(2289.900391 0)"/>
    <use xlink:href="#DejaVuSans-74" transform="translate(2353.279297 0)"/>
    <use xlink:href="#DejaVuSans-65" transform="translate(2392.488281 0)"/>
    <use xlink:href="#DejaVuSans-72" transform="translate(2454.011719 0)"/>
    <use xlink:href="#DejaVuSans-6e" transform="translate(2493.375 0)"/>
    <use xlink:href="#DejaVuSans-65" transform="translate(2556.753906 0)"/>
    <use xlink:href="#DejaVuSans-68" transform="translate(2618.277344 0)"/>
    <use xlink:href="#DejaVuSans-6d" transform="translate(2681.65625 0)"/>
    <use xlink:href="#DejaVuSans-65" transform="translate(2779.068359 0)"/>
    <use xlink:href="#DejaVuSans-6e" transform="translate(2840.591797 0)"/>
    <use xlink:href="#DejaVuSans-20" transform="translate(2903.970703 0)"/>
    <use xlink:href="#DejaVuSans-64" transform="translate(2935.757812 0)"/>
    <use xlink:href="#DejaVuSans-61" transform="translate(2999.234375 0)"/>
    <use xlink:href="#DejaVuSans-72" transform="translate(3060.513672 0)"/>
    <use xlink:href="#DejaVuSans-3f" transform="translate(3101.626953 0)"/>
    <use xlink:href="#DejaVuSans-20" transform="translate(3154.703125 0)"/>
    <use xlink:href="#DejaVuSans-2013" transform="translate(3186.490234 0)"/>
    <use xlink:href="#DejaVuSans-20" transform="translate(3236.490234 0)"/>
    <use xlink:href="#DejaVuSans-55" transform="translate(3268.277344 0)"/>
    <use xlink:href="#DejaVuSans-6e" transform="translate(3341.470703 0)"/>
    <use xlink:href="#DejaVuSans-6b" transform="translate(3404.849609 0)"/>
    <use xlink:href="#DejaVuSans-6c" transform="translate(3462.759766 0)"/>
    <use xlink:href="#DejaVuSans-61" transform="translate(3490.542969 0)"/>
    <use xlink:href="#DejaVuSans-72" transform="translate(3551.822266 0)"/>
    <use xlink:href="#DejaVuSans-65" transform="translate(3590.685547 0)"/>
   </g>
   <!-- gesetzliche Rahmenbedingungen -->
   <g transform="translate(376.147422 580.912344) scale(0.11 -0.11)">
    <use xlink:href="#DejaVuSans-67"/>
    <use xlink:href="#DejaVuSans-65" transform="translate(63.476562 0)"/>
    <use xlink:href="#DejaVuSans-73" transform="translate(125 0)"/>
    <use xlink:href="#DejaVuSans-65" transform="translate(177.099609 0)"/>
    <use xlink:href="#DejaVuSans-74" transform="translate(238.623047 0)"/>
    <use xlink:href="#DejaVuSans-7a" transform="translate(277.832031 0)"/>
    <use xlink:href="#DejaVuSans-6c" transform="translate(330.322266 0)"/>
    <use xlink:href="#DejaVuSans-69" transform="translate(358.105469 0)"/>
    <use xlink:href="#DejaVuSans-63" transform="translate(385.888672 0)"/>
    <use xlink:href="#DejaVuSans-68" transform="translate(440.869141 0)"/>
    <use xlink:href="#DejaVuSans-65" transform="translate(504.248047 0)"/>
    <use xlink:href="#DejaVuSans-20" transform="translate(565.771484 0)"/>
    <use xlink:href="#DejaVuSans-52" transform="translate(597.558594 0)"/>
    <use xlink:href="#DejaVuSans-61" transform="translate(664.791016 0)"/>
    <use xlink:href="#DejaVuSans-68" transform="translate(726.070312 0)"/>
    <use xlink:href="#DejaVuSans-6d" transform="translate(789.449219 0)"/>
    <use xlink:href="#DejaVuSans-65" transform="translate(886.861328 0)"/>
    <use xlink:href="#DejaVuSans-6e" transform="translate(948.384766 0)"/>
    <use xlink:href="#DejaVuSans-62" transform="translate(1011.763672 0)"/>
    <use xlink:href="#DejaVuSans-65" transform="translate(1075.240234 0)"/>
    <use xlink:href="#DejaVuSans-64" transform="translate(1136.763672 0)"/>
    <use xlink:href="#DejaVuSans-69" transform="translate(1200.240234 0)"/>
    <use xlink:href="#DejaVuSans-6e" transform="translate(1228.023438 0)"/>
    <use xlink:href="#DejaVuSans-67" transform="translate(1291.402344 0)"/>
    <use xlink:href="#DejaVuSans-75" transform="translate(1354.878906 0)"/>
    <use xlink:href="#DejaVuSans-6e" transform="translate(1418.257812 0)"/>
    <use xlink:href="#DejaVuSans-67" transform="translate(1481.636719 0)"/>
    <use xlink:href="#DejaVuSans-65" transform="translate(1545.113281 0)"/>
    <use xlink:href="#DejaVuSans-6e" transform="translate(1606.636719 0)"/>
   </g>
  </g>
 </g>
 <defs>
  <clipPath id="p6910bde4c9">
   <rect x="254.16" y="51.84" width="427.68" height="427.68"/>
  </clipPath>
 </defs>
</svg>
