<?xml version="1.0" encoding="utf-8" standalone="no"?>
<!DOCTYPE svg PUBLIC "-//W3C//DTD SVG 1.1//EN"
  "http://www.w3.org/Graphics/SVG/1.1/DTD/svg11.dtd">
<svg xmlns:xlink="http://www.w3.org/1999/xlink" width="936pt" height="648pt" viewBox="0 0 936 648" xmlns="http://www.w3.org/2000/svg" version="1.1">
 <metadata>
  <rdf:RDF xmlns:dc="http://purl.org/dc/elements/1.1/" xmlns:cc="http://creativecommons.org/ns#" xmlns:rdf="http://www.w3.org/1999/02/22-rdf-syntax-ns#">
   <cc:Work>
    <dc:type rdf:resource="http://purl.org/dc/dcmitype/StillImage"/>
    <dc:date>2026-02-23T18:46:24.306367</dc:date>
    <dc:format>image/svg+xml</dc:format>
    <dc:creator>
     <cc:Agent>
      <dc:title>Matplotlib v3.10.8, https://matplotlib.org/</dc:title>
     </cc:Agent>
    </dc:creator>
   </cc:Work>
  </rdf:RDF>
 </metadata>
 <defs>
  <style type="text/css">*{stroke-linejoin: round; stroke-linecap: butt}</style>
 </defs>
 <g id="figure_1">
  <g id="patch_1">
   <path d="M 0 648 
L 936 648 
L 936 0 
L 0 0 
z
" style="fill: #ffffff"/>
  </g>
  <g id="axes_1">
   <g id="patch_2">
    <path d="M 557.273636 119.74904 
C 543.899627 111.567454 529.464164 105.263078 514.373084 101.01316 
C 499.282004 96.763243 483.678079 94.608 467.999993 94.608 
L 467.999995 154.4832 
C 478.190751 154.4832 488.333303 155.884108 498.142505 158.646554 
C 507.951706 161.409001 517.334758 165.506845 526.027863 170.824876 
z
" style="fill: #003b6a; stroke: #ffffff; stroke-linejoin: miter"/>
   </g>
   <g id="patch_3">
    <path d="M 624.773289 197.212757 
C 617.798787 181.242846 608.424862 166.431976 596.976471 153.293618 
C 585.528081 140.15526 572.139078 128.843016 557.273636 119.74904 
L 526.027863 170.824876 
C 535.690401 176.73596 544.393253 184.088919 551.834706 192.628852 
C 559.27616 201.168785 565.369212 210.79585 569.902638 221.176292 
z
" style="fill: #8fc73e; stroke: #ffffff; stroke-linejoin: miter"/>
   </g>
   <g id="patch_4">
    <path d="M 524.32557 427.213459 
C 546.574712 419.455341 566.9829 407.183457 584.267404 391.169134 
C 601.551908 375.15481 615.342803 355.740759 624.773279 334.147273 
C 634.203756 312.553787 639.072 289.242971 639.072 265.68002 
C 639.072 242.11707 634.203766 218.806243 624.773289 197.212757 
L 569.902638 221.176292 
C 576.032448 235.212058 579.1968 250.364096 579.1968 265.680013 
C 579.1968 280.995931 576.032441 296.147962 569.902632 310.183728 
C 563.772822 324.219493 554.80874 336.838627 543.573812 347.247937 
C 532.338885 357.657247 519.073563 365.633972 504.61162 370.676749 
z
" style="fill: #dc912f; stroke: #ffffff; stroke-linejoin: miter"/>
   </g>
   <g id="patch_5">
    <path d="M 318.138769 348.185999 
C 337.627531 383.584767 369.042092 410.958515 406.774469 425.420617 
C 444.506846 439.882709 486.169704 440.518146 524.32557 427.213459 
L 504.61162 370.676749 
C 479.810307 379.324795 452.72945 378.911761 428.203405 369.511401 
C 403.67736 360.111034 383.257895 342.318099 370.5902 319.308899 
z
" style="fill: #93bbdc; stroke: #ffffff; stroke-linejoin: miter"/>
   </g>
   <g id="patch_6">
    <path d="M 298.536853 289.086648 
C 299.965695 299.431415 302.338769 309.623632 305.626354 319.535626 
C 308.913939 329.447621 313.102248 339.037818 318.138769 348.185999 
L 370.5902 319.308899 
C 367.316461 313.362582 364.59406 307.128953 362.45713 300.686157 
C 360.3202 294.243361 358.777702 287.61842 357.848955 280.894321 
z
" style="fill: #f9c803; stroke: #ffffff; stroke-linejoin: miter"/>
   </g>
   <g id="patch_7">
    <path d="M 468.000002 94.608 
C 443.557917 94.608 419.397314 99.846282 397.149955 109.969052 
C 374.902597 120.091822 355.080861 134.865953 339.023539 153.293598 
C 322.966216 171.721242 311.043109 193.378003 304.059501 216.801167 
C 297.075893 240.224331 295.192606 264.874429 298.536853 289.086648 
L 357.848955 280.894321 
C 355.675194 265.156379 356.89933 249.133815 361.438676 233.908759 
C 365.978021 218.683702 373.72804 204.606807 384.1653 192.628838 
C 394.60256 180.65087 407.486688 171.047684 421.947471 164.467884 
C 436.408254 157.888083 452.112646 154.4832 468.000001 154.4832 
z
" style="fill: #6283aa; stroke: #ffffff; stroke-linejoin: miter"/>
   </g>
   <g id="matplotlib.axis_1"/>
   <g id="matplotlib.axis_2"/>
   <g id="line2d_1">
    <path d="M 508.808327 120.773195 
L 519.010409 84.546481 
" clip-path="url(#p9eb8305354)" style="fill: none; stroke: #000000; stroke-opacity: 0.35; stroke-linecap: square"/>
   </g>
   <g id="line2d_2">
    <path d="M 581.499289 166.779989 
L 609.874127 142.054974 
" clip-path="url(#p9eb8305354)" style="fill: none; stroke: #000000; stroke-opacity: 0.35; stroke-linecap: square"/>
   </g>
   <g id="line2d_3">
    <path d="M 605.960486 325.931197 
L 640.450612 340.993996 
" clip-path="url(#p9eb8305354)" style="fill: none; stroke: #000000; stroke-opacity: 0.35; stroke-linecap: square"/>
   </g>
   <g id="line2d_4">
    <path d="M 414.121533 406.251745 
L 400.651915 441.394673 
" clip-path="url(#p9eb8305354)" style="fill: none; stroke: #000000; stroke-opacity: 0.35; stroke-linecap: square"/>
   </g>
   <g id="line2d_5">
    <path d="M 325.111201 313.072987 
L 289.388999 324.921235 
" clip-path="url(#p9eb8305354)" style="fill: none; stroke: #000000; stroke-opacity: 0.35; stroke-linecap: square"/>
   </g>
   <g id="line2d_6">
    <path d="M 354.500711 166.779969 
L 326.125894 142.054953 
" clip-path="url(#p9eb8305354)" style="fill: none; stroke: #000000; stroke-opacity: 0.35; stroke-linecap: square"/>
   </g>
   <g id="text_1">
    <!-- 9% -->
    <g transform="translate(525.966374 56.439021) scale(0.12 -0.12)">
     <defs>
      <path id="DejaVuSans-39" d="M 703 97 
L 703 672 
Q 941 559 1184 500 
Q 1428 441 1663 441 
Q 2288 441 2617 861 
Q 2947 1281 2994 2138 
Q 2813 1869 2534 1725 
Q 2256 1581 1919 1581 
Q 1219 1581 811 2004 
Q 403 2428 403 3163 
Q 403 3881 828 4315 
Q 1253 4750 1959 4750 
Q 2769 4750 3195 4129 
Q 3622 3509 3622 2328 
Q 3622 1225 3098 567 
Q 2575 -91 1691 -91 
Q 1453 -91 1209 -44 
Q 966 3 703 97 
z
M 1959 2075 
Q 2384 2075 2632 2365 
Q 2881 2656 2881 3163 
Q 2881 3666 2632 3958 
Q 2384 4250 1959 4250 
Q 1534 4250 1286 3958 
Q 1038 3666 1038 3163 
Q 1038 2656 1286 2365 
Q 1534 2075 1959 2075 
z
" transform="scale(0.015625)"/>
      <path id="DejaVuSans-25" d="M 4653 2053 
Q 4381 2053 4226 1822 
Q 4072 1591 4072 1178 
Q 4072 772 4226 539 
Q 4381 306 4653 306 
Q 4919 306 5073 539 
Q 5228 772 5228 1178 
Q 5228 1588 5073 1820 
Q 4919 2053 4653 2053 
z
M 4653 2450 
Q 5147 2450 5437 2106 
Q 5728 1763 5728 1178 
Q 5728 594 5436 251 
Q 5144 -91 4653 -91 
Q 4153 -91 3862 251 
Q 3572 594 3572 1178 
Q 3572 1766 3864 2108 
Q 4156 2450 4653 2450 
z
M 1428 4353 
Q 1159 4353 1004 4120 
Q 850 3888 850 3481 
Q 850 3069 1003 2837 
Q 1156 2606 1428 2606 
Q 1700 2606 1854 2837 
Q 2009 3069 2009 3481 
Q 2009 3884 1853 4118 
Q 1697 4353 1428 4353 
z
M 4250 4750 
L 4750 4750 
L 1831 -91 
L 1331 -91 
L 4250 4750 
z
M 1428 4750 
Q 1922 4750 2215 4408 
Q 2509 4066 2509 3481 
Q 2509 2891 2217 2550 
Q 1925 2209 1428 2209 
Q 931 2209 642 2551 
Q 353 2894 353 3481 
Q 353 4063 643 4406 
Q 934 4750 1428 4750 
z
" transform="scale(0.015625)"/>
     </defs>
     <use xlink:href="#DejaVuSans-39"/>
     <use xlink:href="#DejaVuSans-25" transform="translate(63.623047 0)"/>
    </g>
    <!-- Keine Zustimmung -->
    <g transform="translate(525.966374 69.876396) scale(0.12 -0.12)">
     <defs>
      <path id="DejaVuSans-4b" d="M 628 4666 
L 1259 4666 
L 1259 2694 
L 3353 4666 
L 4166 4666 
L 1850 2491 
L 4331 0 
L 3500 0 
L 1259 2247 
L 1259 0 
L 628 0 
L 628 4666 
z
" transform="scale(0.015625)"/>
      <path id="DejaVuSans-65" d="M 3597 1894 
L 3597 1613 
L 953 1613 
Q 991 1019 1311 708 
Q 1631 397 2203 397 
Q 2534 397 2845 478 
Q 3156 559 3463 722 
L 3463 178 
Q 3153 47 2828 -22 
Q 2503 -91 2169 -91 
Q 1331 -91 842 396 
Q 353 884 353 1716 
Q 353 2575 817 3079 
Q 1281 3584 2069 3584 
Q 2775 3584 3186 3129 
Q 3597 2675 3597 1894 
z
M 3022 2063 
Q 3016 2534 2758 2815 
Q 2500 3097 2075 3097 
Q 1594 3097 1305 2825 
Q 1016 2553 972 2059 
L 3022 2063 
z
" transform="scale(0.015625)"/>
      <path id="DejaVuSans-69" d="M 603 3500 
L 1178 3500 
L 1178 0 
L 603 0 
L 603 3500 
z
M 603 4863 
L 1178 4863 
L 1178 4134 
L 603 4134 
L 603 4863 
z
" transform="scale(0.015625)"/>
      <path id="DejaVuSans-6e" d="M 3513 2113 
L 3513 0 
L 2938 0 
L 2938 2094 
Q 2938 2591 2744 2837 
Q 2550 3084 2163 3084 
Q 1697 3084 1428 2787 
Q 1159 2491 1159 1978 
L 1159 0 
L 581 0 
L 581 3500 
L 1159 3500 
L 1159 2956 
Q 1366 3272 1645 3428 
Q 1925 3584 2291 3584 
Q 2894 3584 3203 3211 
Q 3513 2838 3513 2113 
z
" transform="scale(0.015625)"/>
      <path id="DejaVuSans-20" transform="scale(0.015625)"/>
      <path id="DejaVuSans-5a" d="M 359 4666 
L 4025 4666 
L 4025 4184 
L 1075 531 
L 4097 531 
L 4097 0 
L 288 0 
L 288 481 
L 3238 4134 
L 359 4134 
L 359 4666 
z
" transform="scale(0.015625)"/>
      <path id="DejaVuSans-75" d="M 544 1381 
L 544 3500 
L 1119 3500 
L 1119 1403 
Q 1119 906 1312 657 
Q 1506 409 1894 409 
Q 2359 409 2629 706 
Q 2900 1003 2900 1516 
L 2900 3500 
L 3475 3500 
L 3475 0 
L 2900 0 
L 2900 538 
Q 2691 219 2414 64 
Q 2138 -91 1772 -91 
Q 1169 -91 856 284 
Q 544 659 544 1381 
z
M 1991 3584 
L 1991 3584 
z
" transform="scale(0.015625)"/>
      <path id="DejaVuSans-73" d="M 2834 3397 
L 2834 2853 
Q 2591 2978 2328 3040 
Q 2066 3103 1784 3103 
Q 1356 3103 1142 2972 
Q 928 2841 928 2578 
Q 928 2378 1081 2264 
Q 1234 2150 1697 2047 
L 1894 2003 
Q 2506 1872 2764 1633 
Q 3022 1394 3022 966 
Q 3022 478 2636 193 
Q 2250 -91 1575 -91 
Q 1294 -91 989 -36 
Q 684 19 347 128 
L 347 722 
Q 666 556 975 473 
Q 1284 391 1588 391 
Q 1994 391 2212 530 
Q 2431 669 2431 922 
Q 2431 1156 2273 1281 
Q 2116 1406 1581 1522 
L 1381 1569 
Q 847 1681 609 1914 
Q 372 2147 372 2553 
Q 372 3047 722 3315 
Q 1072 3584 1716 3584 
Q 2034 3584 2315 3537 
Q 2597 3491 2834 3397 
z
" transform="scale(0.015625)"/>
      <path id="DejaVuSans-74" d="M 1172 4494 
L 1172 3500 
L 2356 3500 
L 2356 3053 
L 1172 3053 
L 1172 1153 
Q 1172 725 1289 603 
Q 1406 481 1766 481 
L 2356 481 
L 2356 0 
L 1766 0 
Q 1100 0 847 248 
Q 594 497 594 1153 
L 594 3053 
L 172 3053 
L 172 3500 
L 594 3500 
L 594 4494 
L 1172 4494 
z
" transform="scale(0.015625)"/>
      <path id="DejaVuSans-6d" d="M 3328 2828 
Q 3544 3216 3844 3400 
Q 4144 3584 4550 3584 
Q 5097 3584 5394 3201 
Q 5691 2819 5691 2113 
L 5691 0 
L 5113 0 
L 5113 2094 
Q 5113 2597 4934 2840 
Q 4756 3084 4391 3084 
Q 3944 3084 3684 2787 
Q 3425 2491 3425 1978 
L 3425 0 
L 2847 0 
L 2847 2094 
Q 2847 2600 2669 2842 
Q 2491 3084 2119 3084 
Q 1678 3084 1418 2786 
Q 1159 2488 1159 1978 
L 1159 0 
L 581 0 
L 581 3500 
L 1159 3500 
L 1159 2956 
Q 1356 3278 1631 3431 
Q 1906 3584 2284 3584 
Q 2666 3584 2933 3390 
Q 3200 3197 3328 2828 
z
" transform="scale(0.015625)"/>
      <path id="DejaVuSans-67" d="M 2906 1791 
Q 2906 2416 2648 2759 
Q 2391 3103 1925 3103 
Q 1463 3103 1205 2759 
Q 947 2416 947 1791 
Q 947 1169 1205 825 
Q 1463 481 1925 481 
Q 2391 481 2648 825 
Q 2906 1169 2906 1791 
z
M 3481 434 
Q 3481 -459 3084 -895 
Q 2688 -1331 1869 -1331 
Q 1566 -1331 1297 -1286 
Q 1028 -1241 775 -1147 
L 775 -588 
Q 1028 -725 1275 -790 
Q 1522 -856 1778 -856 
Q 2344 -856 2625 -561 
Q 2906 -266 2906 331 
L 2906 616 
Q 2728 306 2450 153 
Q 2172 0 1784 0 
Q 1141 0 747 490 
Q 353 981 353 1791 
Q 353 2603 747 3093 
Q 1141 3584 1784 3584 
Q 2172 3584 2450 3431 
Q 2728 3278 2906 2969 
L 2906 3500 
L 3481 3500 
L 3481 434 
z
" transform="scale(0.015625)"/>
     </defs>
     <use xlink:href="#DejaVuSans-4b"/>
     <use xlink:href="#DejaVuSans-65" transform="translate(60.576172 0)"/>
     <use xlink:href="#DejaVuSans-69" transform="translate(122.099609 0)"/>
     <use xlink:href="#DejaVuSans-6e" transform="translate(149.882812 0)"/>
     <use xlink:href="#DejaVuSans-65" transform="translate(213.261719 0)"/>
     <use xlink:href="#DejaVuSans-20" transform="translate(274.785156 0)"/>
     <use xlink:href="#DejaVuSans-5a" transform="translate(306.572266 0)"/>
     <use xlink:href="#DejaVuSans-75" transform="translate(375.078125 0)"/>
     <use xlink:href="#DejaVuSans-73" transform="translate(438.457031 0)"/>
     <use xlink:href="#DejaVuSans-74" transform="translate(490.556641 0)"/>
     <use xlink:href="#DejaVuSans-69" transform="translate(529.765625 0)"/>
     <use xlink:href="#DejaVuSans-6d" transform="translate(557.548828 0)"/>
     <use xlink:href="#DejaVuSans-6d" transform="translate(654.960938 0)"/>
     <use xlink:href="#DejaVuSans-75" transform="translate(752.373047 0)"/>
     <use xlink:href="#DejaVuSans-6e" transform="translate(815.751953 0)"/>
     <use xlink:href="#DejaVuSans-67" transform="translate(879.130859 0)"/>
    </g>
   </g>
   <g id="text_2">
    <!-- 10% -->
    <g transform="translate(629.220594 121.78958) scale(0.12 -0.12)">
     <defs>
      <path id="DejaVuSans-31" d="M 794 531 
L 1825 531 
L 1825 4091 
L 703 3866 
L 703 4441 
L 1819 4666 
L 2450 4666 
L 2450 531 
L 3481 531 
L 3481 0 
L 794 0 
L 794 531 
z
" transform="scale(0.015625)"/>
      <path id="DejaVuSans-30" d="M 2034 4250 
Q 1547 4250 1301 3770 
Q 1056 3291 1056 2328 
Q 1056 1369 1301 889 
Q 1547 409 2034 409 
Q 2525 409 2770 889 
Q 3016 1369 3016 2328 
Q 3016 3291 2770 3770 
Q 2525 4250 2034 4250 
z
M 2034 4750 
Q 2819 4750 3233 4129 
Q 3647 3509 3647 2328 
Q 3647 1150 3233 529 
Q 2819 -91 2034 -91 
Q 1250 -91 836 529 
Q 422 1150 422 2328 
Q 422 3509 836 4129 
Q 1250 4750 2034 4750 
z
" transform="scale(0.015625)"/>
     </defs>
     <use xlink:href="#DejaVuSans-31"/>
     <use xlink:href="#DejaVuSans-30" transform="translate(63.623047 0)"/>
     <use xlink:href="#DejaVuSans-25" transform="translate(127.246094 0)"/>
    </g>
    <!-- Geringe Zustimmung -->
    <g transform="translate(629.220594 135.226955) scale(0.12 -0.12)">
     <defs>
      <path id="DejaVuSans-47" d="M 3809 666 
L 3809 1919 
L 2778 1919 
L 2778 2438 
L 4434 2438 
L 4434 434 
Q 4069 175 3628 42 
Q 3188 -91 2688 -91 
Q 1594 -91 976 548 
Q 359 1188 359 2328 
Q 359 3472 976 4111 
Q 1594 4750 2688 4750 
Q 3144 4750 3555 4637 
Q 3966 4525 4313 4306 
L 4313 3634 
Q 3963 3931 3569 4081 
Q 3175 4231 2741 4231 
Q 1884 4231 1454 3753 
Q 1025 3275 1025 2328 
Q 1025 1384 1454 906 
Q 1884 428 2741 428 
Q 3075 428 3337 486 
Q 3600 544 3809 666 
z
" transform="scale(0.015625)"/>
      <path id="DejaVuSans-72" d="M 2631 2963 
Q 2534 3019 2420 3045 
Q 2306 3072 2169 3072 
Q 1681 3072 1420 2755 
Q 1159 2438 1159 1844 
L 1159 0 
L 581 0 
L 581 3500 
L 1159 3500 
L 1159 2956 
Q 1341 3275 1631 3429 
Q 1922 3584 2338 3584 
Q 2397 3584 2469 3576 
Q 2541 3569 2628 3553 
L 2631 2963 
z
" transform="scale(0.015625)"/>
     </defs>
     <use xlink:href="#DejaVuSans-47"/>
     <use xlink:href="#DejaVuSans-65" transform="translate(77.490234 0)"/>
     <use xlink:href="#DejaVuSans-72" transform="translate(139.013672 0)"/>
     <use xlink:href="#DejaVuSans-69" transform="translate(180.126953 0)"/>
     <use xlink:href="#DejaVuSans-6e" transform="translate(207.910156 0)"/>
     <use xlink:href="#DejaVuSans-67" transform="translate(271.289062 0)"/>
     <use xlink:href="#DejaVuSans-65" transform="translate(334.765625 0)"/>
     <use xlink:href="#DejaVuSans-20" transform="translate(396.289062 0)"/>
     <use xlink:href="#DejaVuSans-5a" transform="translate(428.076172 0)"/>
     <use xlink:href="#DejaVuSans-75" transform="translate(496.582031 0)"/>
     <use xlink:href="#DejaVuSans-73" transform="translate(559.960938 0)"/>
     <use xlink:href="#DejaVuSans-74" transform="translate(612.060547 0)"/>
     <use xlink:href="#DejaVuSans-69" transform="translate(651.269531 0)"/>
     <use xlink:href="#DejaVuSans-6d" transform="translate(679.052734 0)"/>
     <use xlink:href="#DejaVuSans-6d" transform="translate(776.464844 0)"/>
     <use xlink:href="#DejaVuSans-75" transform="translate(873.876953 0)"/>
     <use xlink:href="#DejaVuSans-6e" transform="translate(937.255859 0)"/>
     <use xlink:href="#DejaVuSans-67" transform="translate(1000.634766 0)"/>
    </g>
   </g>
   <g id="text_3">
    <!-- 26% -->
    <g transform="translate(663.966597 347.85665) scale(0.12 -0.12)">
     <defs>
      <path id="DejaVuSans-32" d="M 1228 531 
L 3431 531 
L 3431 0 
L 469 0 
L 469 531 
Q 828 903 1448 1529 
Q 2069 2156 2228 2338 
Q 2531 2678 2651 2914 
Q 2772 3150 2772 3378 
Q 2772 3750 2511 3984 
Q 2250 4219 1831 4219 
Q 1534 4219 1204 4116 
Q 875 4013 500 3803 
L 500 4441 
Q 881 4594 1212 4672 
Q 1544 4750 1819 4750 
Q 2544 4750 2975 4387 
Q 3406 4025 3406 3419 
Q 3406 3131 3298 2873 
Q 3191 2616 2906 2266 
Q 2828 2175 2409 1742 
Q 1991 1309 1228 531 
z
" transform="scale(0.015625)"/>
      <path id="DejaVuSans-36" d="M 2113 2584 
Q 1688 2584 1439 2293 
Q 1191 2003 1191 1497 
Q 1191 994 1439 701 
Q 1688 409 2113 409 
Q 2538 409 2786 701 
Q 3034 994 3034 1497 
Q 3034 2003 2786 2293 
Q 2538 2584 2113 2584 
z
M 3366 4563 
L 3366 3988 
Q 3128 4100 2886 4159 
Q 2644 4219 2406 4219 
Q 1781 4219 1451 3797 
Q 1122 3375 1075 2522 
Q 1259 2794 1537 2939 
Q 1816 3084 2150 3084 
Q 2853 3084 3261 2657 
Q 3669 2231 3669 1497 
Q 3669 778 3244 343 
Q 2819 -91 2113 -91 
Q 1303 -91 875 529 
Q 447 1150 447 2328 
Q 447 3434 972 4092 
Q 1497 4750 2381 4750 
Q 2619 4750 2861 4703 
Q 3103 4656 3366 4563 
z
" transform="scale(0.015625)"/>
     </defs>
     <use xlink:href="#DejaVuSans-32"/>
     <use xlink:href="#DejaVuSans-36" transform="translate(63.623047 0)"/>
     <use xlink:href="#DejaVuSans-25" transform="translate(127.246094 0)"/>
    </g>
    <!-- Teilweise Zustimmung -->
    <g transform="translate(663.966597 361.294025) scale(0.12 -0.12)">
     <defs>
      <path id="DejaVuSans-54" d="M -19 4666 
L 3928 4666 
L 3928 4134 
L 2272 4134 
L 2272 0 
L 1638 0 
L 1638 4134 
L -19 4134 
L -19 4666 
z
" transform="scale(0.015625)"/>
      <path id="DejaVuSans-6c" d="M 603 4863 
L 1178 4863 
L 1178 0 
L 603 0 
L 603 4863 
z
" transform="scale(0.015625)"/>
      <path id="DejaVuSans-77" d="M 269 3500 
L 844 3500 
L 1563 769 
L 2278 3500 
L 2956 3500 
L 3675 769 
L 4391 3500 
L 4966 3500 
L 4050 0 
L 3372 0 
L 2619 2869 
L 1863 0 
L 1184 0 
L 269 3500 
z
" transform="scale(0.015625)"/>
     </defs>
     <use xlink:href="#DejaVuSans-54"/>
     <use xlink:href="#DejaVuSans-65" transform="translate(44.083984 0)"/>
     <use xlink:href="#DejaVuSans-69" transform="translate(105.607422 0)"/>
     <use xlink:href="#DejaVuSans-6c" transform="translate(133.390625 0)"/>
     <use xlink:href="#DejaVuSans-77" transform="translate(161.173828 0)"/>
     <use xlink:href="#DejaVuSans-65" transform="translate(242.960938 0)"/>
     <use xlink:href="#DejaVuSans-69" transform="translate(304.484375 0)"/>
     <use xlink:href="#DejaVuSans-73" transform="translate(332.267578 0)"/>
     <use xlink:href="#DejaVuSans-65" transform="translate(384.367188 0)"/>
     <use xlink:href="#DejaVuSans-20" transform="translate(445.890625 0)"/>
     <use xlink:href="#DejaVuSans-5a" transform="translate(477.677734 0)"/>
     <use xlink:href="#DejaVuSans-75" transform="translate(546.183594 0)"/>
     <use xlink:href="#DejaVuSans-73" transform="translate(609.5625 0)"/>
     <use xlink:href="#DejaVuSans-74" transform="translate(661.662109 0)"/>
     <use xlink:href="#DejaVuSans-69" transform="translate(700.871094 0)"/>
     <use xlink:href="#DejaVuSans-6d" transform="translate(728.654297 0)"/>
     <use xlink:href="#DejaVuSans-6d" transform="translate(826.066406 0)"/>
     <use xlink:href="#DejaVuSans-75" transform="translate(923.478516 0)"/>
     <use xlink:href="#DejaVuSans-6e" transform="translate(986.857422 0)"/>
     <use xlink:href="#DejaVuSans-67" transform="translate(1050.236328 0)"/>
    </g>
   </g>
   <g id="text_4">
    <!-- 22% -->
    <g transform="translate(364.796212 461.948326) scale(0.12 -0.12)">
     <use xlink:href="#DejaVuSans-32"/>
     <use xlink:href="#DejaVuSans-32" transform="translate(63.623047 0)"/>
     <use xlink:href="#DejaVuSans-25" transform="translate(127.246094 0)"/>
    </g>
    <!-- Hohe Zustimmung -->
    <g transform="translate(279.978712 475.385701) scale(0.12 -0.12)">
     <defs>
      <path id="DejaVuSans-48" d="M 628 4666 
L 1259 4666 
L 1259 2753 
L 3553 2753 
L 3553 4666 
L 4184 4666 
L 4184 0 
L 3553 0 
L 3553 2222 
L 1259 2222 
L 1259 0 
L 628 0 
L 628 4666 
z
" transform="scale(0.015625)"/>
      <path id="DejaVuSans-6f" d="M 1959 3097 
Q 1497 3097 1228 2736 
Q 959 2375 959 1747 
Q 959 1119 1226 758 
Q 1494 397 1959 397 
Q 2419 397 2687 759 
Q 2956 1122 2956 1747 
Q 2956 2369 2687 2733 
Q 2419 3097 1959 3097 
z
M 1959 3584 
Q 2709 3584 3137 3096 
Q 3566 2609 3566 1747 
Q 3566 888 3137 398 
Q 2709 -91 1959 -91 
Q 1206 -91 779 398 
Q 353 888 353 1747 
Q 353 2609 779 3096 
Q 1206 3584 1959 3584 
z
" transform="scale(0.015625)"/>
      <path id="DejaVuSans-68" d="M 3513 2113 
L 3513 0 
L 2938 0 
L 2938 2094 
Q 2938 2591 2744 2837 
Q 2550 3084 2163 3084 
Q 1697 3084 1428 2787 
Q 1159 2491 1159 1978 
L 1159 0 
L 581 0 
L 581 4863 
L 1159 4863 
L 1159 2956 
Q 1366 3272 1645 3428 
Q 1925 3584 2291 3584 
Q 2894 3584 3203 3211 
Q 3513 2838 3513 2113 
z
" transform="scale(0.015625)"/>
     </defs>
     <use xlink:href="#DejaVuSans-48"/>
     <use xlink:href="#DejaVuSans-6f" transform="translate(75.195312 0)"/>
     <use xlink:href="#DejaVuSans-68" transform="translate(136.376953 0)"/>
     <use xlink:href="#DejaVuSans-65" transform="translate(199.755859 0)"/>
     <use xlink:href="#DejaVuSans-20" transform="translate(261.279297 0)"/>
     <use xlink:href="#DejaVuSans-5a" transform="translate(293.066406 0)"/>
     <use xlink:href="#DejaVuSans-75" transform="translate(361.572266 0)"/>
     <use xlink:href="#DejaVuSans-73" transform="translate(424.951172 0)"/>
     <use xlink:href="#DejaVuSans-74" transform="translate(477.050781 0)"/>
     <use xlink:href="#DejaVuSans-69" transform="translate(516.259766 0)"/>
     <use xlink:href="#DejaVuSans-6d" transform="translate(544.042969 0)"/>
     <use xlink:href="#DejaVuSans-6d" transform="translate(641.455078 0)"/>
     <use xlink:href="#DejaVuSans-75" transform="translate(738.867188 0)"/>
     <use xlink:href="#DejaVuSans-6e" transform="translate(802.246094 0)"/>
     <use xlink:href="#DejaVuSans-67" transform="translate(865.625 0)"/>
    </g>
   </g>
   <g id="text_5">
    <!-- 6% -->
    <g transform="translate(245.996075 329.592148) scale(0.12 -0.12)">
     <use xlink:href="#DejaVuSans-36"/>
     <use xlink:href="#DejaVuSans-25" transform="translate(63.623047 0)"/>
    </g>
    <!-- Sehr hohe Zustimmung -->
    <g transform="translate(123.6092 343.029523) scale(0.12 -0.12)">
     <defs>
      <path id="DejaVuSans-53" d="M 3425 4513 
L 3425 3897 
Q 3066 4069 2747 4153 
Q 2428 4238 2131 4238 
Q 1616 4238 1336 4038 
Q 1056 3838 1056 3469 
Q 1056 3159 1242 3001 
Q 1428 2844 1947 2747 
L 2328 2669 
Q 3034 2534 3370 2195 
Q 3706 1856 3706 1288 
Q 3706 609 3251 259 
Q 2797 -91 1919 -91 
Q 1588 -91 1214 -16 
Q 841 59 441 206 
L 441 856 
Q 825 641 1194 531 
Q 1563 422 1919 422 
Q 2459 422 2753 634 
Q 3047 847 3047 1241 
Q 3047 1584 2836 1778 
Q 2625 1972 2144 2069 
L 1759 2144 
Q 1053 2284 737 2584 
Q 422 2884 422 3419 
Q 422 4038 858 4394 
Q 1294 4750 2059 4750 
Q 2388 4750 2728 4690 
Q 3069 4631 3425 4513 
z
" transform="scale(0.015625)"/>
     </defs>
     <use xlink:href="#DejaVuSans-53"/>
     <use xlink:href="#DejaVuSans-65" transform="translate(63.476562 0)"/>
     <use xlink:href="#DejaVuSans-68" transform="translate(125 0)"/>
     <use xlink:href="#DejaVuSans-72" transform="translate(188.378906 0)"/>
     <use xlink:href="#DejaVuSans-20" transform="translate(229.492188 0)"/>
     <use xlink:href="#DejaVuSans-68" transform="translate(261.279297 0)"/>
     <use xlink:href="#DejaVuSans-6f" transform="translate(324.658203 0)"/>
     <use xlink:href="#DejaVuSans-68" transform="translate(385.839844 0)"/>
     <use xlink:href="#DejaVuSans-65" transform="translate(449.21875 0)"/>
     <use xlink:href="#DejaVuSans-20" transform="translate(510.742188 0)"/>
     <use xlink:href="#DejaVuSans-5a" transform="translate(542.529297 0)"/>
     <use xlink:href="#DejaVuSans-75" transform="translate(611.035156 0)"/>
     <use xlink:href="#DejaVuSans-73" transform="translate(674.414062 0)"/>
     <use xlink:href="#DejaVuSans-74" transform="translate(726.513672 0)"/>
     <use xlink:href="#DejaVuSans-69" transform="translate(765.722656 0)"/>
     <use xlink:href="#DejaVuSans-6d" transform="translate(793.505859 0)"/>
     <use xlink:href="#DejaVuSans-6d" transform="translate(890.917969 0)"/>
     <use xlink:href="#DejaVuSans-75" transform="translate(988.330078 0)"/>
     <use xlink:href="#DejaVuSans-6e" transform="translate(1051.708984 0)"/>
     <use xlink:href="#DejaVuSans-67" transform="translate(1115.087891 0)"/>
    </g>
   </g>
   <g id="text_6">
    <!-- 27% -->
    <g transform="translate(280.107551 121.789559) scale(0.12 -0.12)">
     <defs>
      <path id="DejaVuSans-37" d="M 525 4666 
L 3525 4666 
L 3525 4397 
L 1831 0 
L 1172 0 
L 2766 4134 
L 525 4134 
L 525 4666 
z
" transform="scale(0.015625)"/>
     </defs>
     <use xlink:href="#DejaVuSans-32"/>
     <use xlink:href="#DejaVuSans-37" transform="translate(63.623047 0)"/>
     <use xlink:href="#DejaVuSans-25" transform="translate(127.246094 0)"/>
    </g>
    <!-- Keine Antwort -->
    <g transform="translate(222.678176 135.226934) scale(0.12 -0.12)">
     <defs>
      <path id="DejaVuSans-41" d="M 2188 4044 
L 1331 1722 
L 3047 1722 
L 2188 4044 
z
M 1831 4666 
L 2547 4666 
L 4325 0 
L 3669 0 
L 3244 1197 
L 1141 1197 
L 716 0 
L 50 0 
L 1831 4666 
z
" transform="scale(0.015625)"/>
     </defs>
     <use xlink:href="#DejaVuSans-4b"/>
     <use xlink:href="#DejaVuSans-65" transform="translate(60.576172 0)"/>
     <use xlink:href="#DejaVuSans-69" transform="translate(122.099609 0)"/>
     <use xlink:href="#DejaVuSans-6e" transform="translate(149.882812 0)"/>
     <use xlink:href="#DejaVuSans-65" transform="translate(213.261719 0)"/>
     <use xlink:href="#DejaVuSans-20" transform="translate(274.785156 0)"/>
     <use xlink:href="#DejaVuSans-41" transform="translate(306.572266 0)"/>
     <use xlink:href="#DejaVuSans-6e" transform="translate(374.980469 0)"/>
     <use xlink:href="#DejaVuSans-74" transform="translate(438.359375 0)"/>
     <use xlink:href="#DejaVuSans-77" transform="translate(477.568359 0)"/>
     <use xlink:href="#DejaVuSans-6f" transform="translate(559.355469 0)"/>
     <use xlink:href="#DejaVuSans-72" transform="translate(620.537109 0)"/>
     <use xlink:href="#DejaVuSans-74" transform="translate(661.650391 0)"/>
    </g>
   </g>
  </g>
  <g id="text_7">
   <!-- "Die Verpflichtung zu recyclinggerechtem Design kann zu höheren Stückkosten oder Qualitätseinbußen führen, die sich negativ auf die Wettbewerbsfähigkeit auswirken." -->
   <g transform="translate(-42.443437 22.078125) scale(0.12 -0.12)">
    <defs>
     <path id="DejaVuSans-22" d="M 1147 4666 
L 1147 2931 
L 616 2931 
L 616 4666 
L 1147 4666 
z
M 2328 4666 
L 2328 2931 
L 1797 2931 
L 1797 4666 
L 2328 4666 
z
" transform="scale(0.015625)"/>
     <path id="DejaVuSans-44" d="M 1259 4147 
L 1259 519 
L 2022 519 
Q 2988 519 3436 956 
Q 3884 1394 3884 2338 
Q 3884 3275 3436 3711 
Q 2988 4147 2022 4147 
L 1259 4147 
z
M 628 4666 
L 1925 4666 
Q 3281 4666 3915 4102 
Q 4550 3538 4550 2338 
Q 4550 1131 3912 565 
Q 3275 0 1925 0 
L 628 0 
L 628 4666 
z
" transform="scale(0.015625)"/>
     <path id="DejaVuSans-56" d="M 1831 0 
L 50 4666 
L 709 4666 
L 2188 738 
L 3669 4666 
L 4325 4666 
L 2547 0 
L 1831 0 
z
" transform="scale(0.015625)"/>
     <path id="DejaVuSans-70" d="M 1159 525 
L 1159 -1331 
L 581 -1331 
L 581 3500 
L 1159 3500 
L 1159 2969 
Q 1341 3281 1617 3432 
Q 1894 3584 2278 3584 
Q 2916 3584 3314 3078 
Q 3713 2572 3713 1747 
Q 3713 922 3314 415 
Q 2916 -91 2278 -91 
Q 1894 -91 1617 61 
Q 1341 213 1159 525 
z
M 3116 1747 
Q 3116 2381 2855 2742 
Q 2594 3103 2138 3103 
Q 1681 3103 1420 2742 
Q 1159 2381 1159 1747 
Q 1159 1113 1420 752 
Q 1681 391 2138 391 
Q 2594 391 2855 752 
Q 3116 1113 3116 1747 
z
" transform="scale(0.015625)"/>
     <path id="DejaVuSans-66" d="M 2375 4863 
L 2375 4384 
L 1825 4384 
Q 1516 4384 1395 4259 
Q 1275 4134 1275 3809 
L 1275 3500 
L 2222 3500 
L 2222 3053 
L 1275 3053 
L 1275 0 
L 697 0 
L 697 3053 
L 147 3053 
L 147 3500 
L 697 3500 
L 697 3744 
Q 697 4328 969 4595 
Q 1241 4863 1831 4863 
L 2375 4863 
z
" transform="scale(0.015625)"/>
     <path id="DejaVuSans-63" d="M 3122 3366 
L 3122 2828 
Q 2878 2963 2633 3030 
Q 2388 3097 2138 3097 
Q 1578 3097 1268 2742 
Q 959 2388 959 1747 
Q 959 1106 1268 751 
Q 1578 397 2138 397 
Q 2388 397 2633 464 
Q 2878 531 3122 666 
L 3122 134 
Q 2881 22 2623 -34 
Q 2366 -91 2075 -91 
Q 1284 -91 818 406 
Q 353 903 353 1747 
Q 353 2603 823 3093 
Q 1294 3584 2113 3584 
Q 2378 3584 2631 3529 
Q 2884 3475 3122 3366 
z
" transform="scale(0.015625)"/>
     <path id="DejaVuSans-7a" d="M 353 3500 
L 3084 3500 
L 3084 2975 
L 922 459 
L 3084 459 
L 3084 0 
L 275 0 
L 275 525 
L 2438 3041 
L 353 3041 
L 353 3500 
z
" transform="scale(0.015625)"/>
     <path id="DejaVuSans-79" d="M 2059 -325 
Q 1816 -950 1584 -1140 
Q 1353 -1331 966 -1331 
L 506 -1331 
L 506 -850 
L 844 -850 
Q 1081 -850 1212 -737 
Q 1344 -625 1503 -206 
L 1606 56 
L 191 3500 
L 800 3500 
L 1894 763 
L 2988 3500 
L 3597 3500 
L 2059 -325 
z
" transform="scale(0.015625)"/>
     <path id="DejaVuSans-6b" d="M 581 4863 
L 1159 4863 
L 1159 1991 
L 2875 3500 
L 3609 3500 
L 1753 1863 
L 3688 0 
L 2938 0 
L 1159 1709 
L 1159 0 
L 581 0 
L 581 4863 
z
" transform="scale(0.015625)"/>
     <path id="DejaVuSans-61" d="M 2194 1759 
Q 1497 1759 1228 1600 
Q 959 1441 959 1056 
Q 959 750 1161 570 
Q 1363 391 1709 391 
Q 2188 391 2477 730 
Q 2766 1069 2766 1631 
L 2766 1759 
L 2194 1759 
z
M 3341 1997 
L 3341 0 
L 2766 0 
L 2766 531 
Q 2569 213 2275 61 
Q 1981 -91 1556 -91 
Q 1019 -91 701 211 
Q 384 513 384 1019 
Q 384 1609 779 1909 
Q 1175 2209 1959 2209 
L 2766 2209 
L 2766 2266 
Q 2766 2663 2505 2880 
Q 2244 3097 1772 3097 
Q 1472 3097 1187 3025 
Q 903 2953 641 2809 
L 641 3341 
Q 956 3463 1253 3523 
Q 1550 3584 1831 3584 
Q 2591 3584 2966 3190 
Q 3341 2797 3341 1997 
z
" transform="scale(0.015625)"/>
     <path id="DejaVuSans-f6" d="M 1959 3097 
Q 1497 3097 1228 2736 
Q 959 2375 959 1747 
Q 959 1119 1226 758 
Q 1494 397 1959 397 
Q 2419 397 2687 759 
Q 2956 1122 2956 1747 
Q 2956 2369 2687 2733 
Q 2419 3097 1959 3097 
z
M 1959 3584 
Q 2709 3584 3137 3096 
Q 3566 2609 3566 1747 
Q 3566 888 3137 398 
Q 2709 -91 1959 -91 
Q 1206 -91 779 398 
Q 353 888 353 1747 
Q 353 2609 779 3096 
Q 1206 3584 1959 3584 
z
M 2254 4850 
L 2888 4850 
L 2888 4219 
L 2254 4219 
L 2254 4850 
z
M 1032 4850 
L 1666 4850 
L 1666 4219 
L 1032 4219 
L 1032 4850 
z
" transform="scale(0.015625)"/>
     <path id="DejaVuSans-fc" d="M 544 1381 
L 544 3500 
L 1119 3500 
L 1119 1403 
Q 1119 906 1312 657 
Q 1506 409 1894 409 
Q 2359 409 2629 706 
Q 2900 1003 2900 1516 
L 2900 3500 
L 3475 3500 
L 3475 0 
L 2900 0 
L 2900 538 
Q 2691 219 2414 64 
Q 2138 -91 1772 -91 
Q 1169 -91 856 284 
Q 544 659 544 1381 
z
M 1991 3584 
L 1991 3584 
z
M 2278 4850 
L 2912 4850 
L 2912 4219 
L 2278 4219 
L 2278 4850 
z
M 1056 4850 
L 1690 4850 
L 1690 4219 
L 1056 4219 
L 1056 4850 
z
" transform="scale(0.015625)"/>
     <path id="DejaVuSans-64" d="M 2906 2969 
L 2906 4863 
L 3481 4863 
L 3481 0 
L 2906 0 
L 2906 525 
Q 2725 213 2448 61 
Q 2172 -91 1784 -91 
Q 1150 -91 751 415 
Q 353 922 353 1747 
Q 353 2572 751 3078 
Q 1150 3584 1784 3584 
Q 2172 3584 2448 3432 
Q 2725 3281 2906 2969 
z
M 947 1747 
Q 947 1113 1208 752 
Q 1469 391 1925 391 
Q 2381 391 2643 752 
Q 2906 1113 2906 1747 
Q 2906 2381 2643 2742 
Q 2381 3103 1925 3103 
Q 1469 3103 1208 2742 
Q 947 2381 947 1747 
z
" transform="scale(0.015625)"/>
     <path id="DejaVuSans-51" d="M 2522 4238 
Q 1834 4238 1429 3725 
Q 1025 3213 1025 2328 
Q 1025 1447 1429 934 
Q 1834 422 2522 422 
Q 3209 422 3611 934 
Q 4013 1447 4013 2328 
Q 4013 3213 3611 3725 
Q 3209 4238 2522 4238 
z
M 3406 84 
L 4238 -825 
L 3475 -825 
L 2784 -78 
Q 2681 -84 2626 -87 
Q 2572 -91 2522 -91 
Q 1538 -91 948 567 
Q 359 1225 359 2328 
Q 359 3434 948 4092 
Q 1538 4750 2522 4750 
Q 3503 4750 4090 4092 
Q 4678 3434 4678 2328 
Q 4678 1516 4351 937 
Q 4025 359 3406 84 
z
" transform="scale(0.015625)"/>
     <path id="DejaVuSans-e4" d="M 2194 1759 
Q 1497 1759 1228 1600 
Q 959 1441 959 1056 
Q 959 750 1161 570 
Q 1363 391 1709 391 
Q 2188 391 2477 730 
Q 2766 1069 2766 1631 
L 2766 1759 
L 2194 1759 
z
M 3341 1997 
L 3341 0 
L 2766 0 
L 2766 531 
Q 2569 213 2275 61 
Q 1981 -91 1556 -91 
Q 1019 -91 701 211 
Q 384 513 384 1019 
Q 384 1609 779 1909 
Q 1175 2209 1959 2209 
L 2766 2209 
L 2766 2266 
Q 2766 2663 2505 2880 
Q 2244 3097 1772 3097 
Q 1472 3097 1187 3025 
Q 903 2953 641 2809 
L 641 3341 
Q 956 3463 1253 3523 
Q 1550 3584 1831 3584 
Q 2591 3584 2966 3190 
Q 3341 2797 3341 1997 
z
M 2150 4850 
L 2784 4850 
L 2784 4219 
L 2150 4219 
L 2150 4850 
z
M 928 4850 
L 1562 4850 
L 1562 4219 
L 928 4219 
L 928 4850 
z
" transform="scale(0.015625)"/>
     <path id="DejaVuSans-62" d="M 3116 1747 
Q 3116 2381 2855 2742 
Q 2594 3103 2138 3103 
Q 1681 3103 1420 2742 
Q 1159 2381 1159 1747 
Q 1159 1113 1420 752 
Q 1681 391 2138 391 
Q 2594 391 2855 752 
Q 3116 1113 3116 1747 
z
M 1159 2969 
Q 1341 3281 1617 3432 
Q 1894 3584 2278 3584 
Q 2916 3584 3314 3078 
Q 3713 2572 3713 1747 
Q 3713 922 3314 415 
Q 2916 -91 2278 -91 
Q 1894 -91 1617 61 
Q 1341 213 1159 525 
L 1159 0 
L 581 0 
L 581 4863 
L 1159 4863 
L 1159 2969 
z
" transform="scale(0.015625)"/>
     <path id="DejaVuSans-df" d="M 581 3553 
Q 581 4178 954 4520 
Q 1328 4863 2009 4863 
Q 2659 4863 3001 4500 
Q 3344 4138 3353 3438 
Q 2881 3413 2618 3233 
Q 2356 3053 2356 2753 
Q 2356 2606 2447 2479 
Q 2538 2353 2741 2222 
L 2919 2106 
Q 3438 1775 3588 1553 
Q 3738 1331 3738 1019 
Q 3738 481 3386 195 
Q 3034 -91 2375 -91 
Q 2175 -91 1962 -52 
Q 1750 -13 1522 63 
L 1522 575 
Q 1772 481 1990 436 
Q 2209 391 2413 391 
Q 2775 391 2962 539 
Q 3150 688 3150 972 
Q 3150 1169 3058 1300 
Q 2966 1431 2650 1625 
L 2363 1797 
Q 2063 1981 1927 2192 
Q 1791 2403 1791 2688 
Q 1791 3084 2052 3353 
Q 2313 3622 2784 3713 
Q 2759 4034 2554 4209 
Q 2350 4384 1997 4384 
Q 1591 4384 1378 4167 
Q 1166 3950 1166 3541 
L 1166 0 
L 581 0 
L 581 3553 
z
" transform="scale(0.015625)"/>
     <path id="DejaVuSans-2c" d="M 750 794 
L 1409 794 
L 1409 256 
L 897 -744 
L 494 -744 
L 750 256 
L 750 794 
z
" transform="scale(0.015625)"/>
     <path id="DejaVuSans-76" d="M 191 3500 
L 800 3500 
L 1894 563 
L 2988 3500 
L 3597 3500 
L 2284 0 
L 1503 0 
L 191 3500 
z
" transform="scale(0.015625)"/>
     <path id="DejaVuSans-57" d="M 213 4666 
L 850 4666 
L 1831 722 
L 2809 4666 
L 3519 4666 
L 4500 722 
L 5478 4666 
L 6119 4666 
L 4947 0 
L 4153 0 
L 3169 4050 
L 2175 0 
L 1381 0 
L 213 4666 
z
" transform="scale(0.015625)"/>
     <path id="DejaVuSans-2e" d="M 684 794 
L 1344 794 
L 1344 0 
L 684 0 
L 684 794 
z
" transform="scale(0.015625)"/>
    </defs>
    <use xlink:href="#DejaVuSans-22"/>
    <use xlink:href="#DejaVuSans-44" transform="translate(45.996094 0)"/>
    <use xlink:href="#DejaVuSans-69" transform="translate(122.998047 0)"/>
    <use xlink:href="#DejaVuSans-65" transform="translate(150.78125 0)"/>
    <use xlink:href="#DejaVuSans-20" transform="translate(212.304688 0)"/>
    <use xlink:href="#DejaVuSans-56" transform="translate(244.091797 0)"/>
    <use xlink:href="#DejaVuSans-65" transform="translate(304.75 0)"/>
    <use xlink:href="#DejaVuSans-72" transform="translate(366.273438 0)"/>
    <use xlink:href="#DejaVuSans-70" transform="translate(407.386719 0)"/>
    <use xlink:href="#DejaVuSans-66" transform="translate(470.863281 0)"/>
    <use xlink:href="#DejaVuSans-6c" transform="translate(506.068359 0)"/>
    <use xlink:href="#DejaVuSans-69" transform="translate(533.851562 0)"/>
    <use xlink:href="#DejaVuSans-63" transform="translate(561.634766 0)"/>
    <use xlink:href="#DejaVuSans-68" transform="translate(616.615234 0)"/>
    <use xlink:href="#DejaVuSans-74" transform="translate(679.994141 0)"/>
    <use xlink:href="#DejaVuSans-75" transform="translate(719.203125 0)"/>
    <use xlink:href="#DejaVuSans-6e" transform="translate(782.582031 0)"/>
    <use xlink:href="#DejaVuSans-67" transform="translate(845.960938 0)"/>
    <use xlink:href="#DejaVuSans-20" transform="translate(909.4375 0)"/>
    <use xlink:href="#DejaVuSans-7a" transform="translate(941.224609 0)"/>
    <use xlink:href="#DejaVuSans-75" transform="translate(993.714844 0)"/>
    <use xlink:href="#DejaVuSans-20" transform="translate(1057.09375 0)"/>
    <use xlink:href="#DejaVuSans-72" transform="translate(1088.880859 0)"/>
    <use xlink:href="#DejaVuSans-65" transform="translate(1127.744141 0)"/>
    <use xlink:href="#DejaVuSans-63" transform="translate(1189.267578 0)"/>
    <use xlink:href="#DejaVuSans-79" transform="translate(1244.248047 0)"/>
    <use xlink:href="#DejaVuSans-63" transform="translate(1303.427734 0)"/>
    <use xlink:href="#DejaVuSans-6c" transform="translate(1358.408203 0)"/>
    <use xlink:href="#DejaVuSans-69" transform="translate(1386.191406 0)"/>
    <use xlink:href="#DejaVuSans-6e" transform="translate(1413.974609 0)"/>
    <use xlink:href="#DejaVuSans-67" transform="translate(1477.353516 0)"/>
    <use xlink:href="#DejaVuSans-67" transform="translate(1540.830078 0)"/>
    <use xlink:href="#DejaVuSans-65" transform="translate(1604.306641 0)"/>
    <use xlink:href="#DejaVuSans-72" transform="translate(1665.830078 0)"/>
    <use xlink:href="#DejaVuSans-65" transform="translate(1704.693359 0)"/>
    <use xlink:href="#DejaVuSans-63" transform="translate(1766.216797 0)"/>
    <use xlink:href="#DejaVuSans-68" transform="translate(1821.197266 0)"/>
    <use xlink:href="#DejaVuSans-74" transform="translate(1884.576172 0)"/>
    <use xlink:href="#DejaVuSans-65" transform="translate(1923.785156 0)"/>
    <use xlink:href="#DejaVuSans-6d" transform="translate(1985.308594 0)"/>
    <use xlink:href="#DejaVuSans-20" transform="translate(2082.720703 0)"/>
    <use xlink:href="#DejaVuSans-44" transform="translate(2114.507812 0)"/>
    <use xlink:href="#DejaVuSans-65" transform="translate(2191.509766 0)"/>
    <use xlink:href="#DejaVuSans-73" transform="translate(2253.033203 0)"/>
    <use xlink:href="#DejaVuSans-69" transform="translate(2305.132812 0)"/>
    <use xlink:href="#DejaVuSans-67" transform="translate(2332.916016 0)"/>
    <use xlink:href="#DejaVuSans-6e" transform="translate(2396.392578 0)"/>
    <use xlink:href="#DejaVuSans-20" transform="translate(2459.771484 0)"/>
    <use xlink:href="#DejaVuSans-6b" transform="translate(2491.558594 0)"/>
    <use xlink:href="#DejaVuSans-61" transform="translate(2547.71875 0)"/>
    <use xlink:href="#DejaVuSans-6e" transform="translate(2608.998047 0)"/>
    <use xlink:href="#DejaVuSans-6e" transform="translate(2672.376953 0)"/>
    <use xlink:href="#DejaVuSans-20" transform="translate(2735.755859 0)"/>
    <use xlink:href="#DejaVuSans-7a" transform="translate(2767.542969 0)"/>
    <use xlink:href="#DejaVuSans-75" transform="translate(2820.033203 0)"/>
    <use xlink:href="#DejaVuSans-20" transform="translate(2883.412109 0)"/>
    <use xlink:href="#DejaVuSans-68" transform="translate(2915.199219 0)"/>
    <use xlink:href="#DejaVuSans-f6" transform="translate(2978.578125 0)"/>
    <use xlink:href="#DejaVuSans-68" transform="translate(3039.759766 0)"/>
    <use xlink:href="#DejaVuSans-65" transform="translate(3103.138672 0)"/>
    <use xlink:href="#DejaVuSans-72" transform="translate(3164.662109 0)"/>
    <use xlink:href="#DejaVuSans-65" transform="translate(3203.525391 0)"/>
    <use xlink:href="#DejaVuSans-6e" transform="translate(3265.048828 0)"/>
    <use xlink:href="#DejaVuSans-20" transform="translate(3328.427734 0)"/>
    <use xlink:href="#DejaVuSans-53" transform="translate(3360.214844 0)"/>
    <use xlink:href="#DejaVuSans-74" transform="translate(3423.691406 0)"/>
    <use xlink:href="#DejaVuSans-fc" transform="translate(3462.900391 0)"/>
    <use xlink:href="#DejaVuSans-63" transform="translate(3526.279297 0)"/>
    <use xlink:href="#DejaVuSans-6b" transform="translate(3581.259766 0)"/>
    <use xlink:href="#DejaVuSans-6b" transform="translate(3639.169922 0)"/>
    <use xlink:href="#DejaVuSans-6f" transform="translate(3693.455078 0)"/>
    <use xlink:href="#DejaVuSans-73" transform="translate(3754.636719 0)"/>
    <use xlink:href="#DejaVuSans-74" transform="translate(3806.736328 0)"/>
    <use xlink:href="#DejaVuSans-65" transform="translate(3845.945312 0)"/>
    <use xlink:href="#DejaVuSans-6e" transform="translate(3907.46875 0)"/>
    <use xlink:href="#DejaVuSans-20" transform="translate(3970.847656 0)"/>
    <use xlink:href="#DejaVuSans-6f" transform="translate(4002.634766 0)"/>
    <use xlink:href="#DejaVuSans-64" transform="translate(4063.816406 0)"/>
    <use xlink:href="#DejaVuSans-65" transform="translate(4127.292969 0)"/>
    <use xlink:href="#DejaVuSans-72" transform="translate(4188.816406 0)"/>
    <use xlink:href="#DejaVuSans-20" transform="translate(4229.929688 0)"/>
    <use xlink:href="#DejaVuSans-51" transform="translate(4261.716797 0)"/>
    <use xlink:href="#DejaVuSans-75" transform="translate(4340.427734 0)"/>
    <use xlink:href="#DejaVuSans-61" transform="translate(4403.806641 0)"/>
    <use xlink:href="#DejaVuSans-6c" transform="translate(4465.085938 0)"/>
    <use xlink:href="#DejaVuSans-69" transform="translate(4492.869141 0)"/>
    <use xlink:href="#DejaVuSans-74" transform="translate(4520.652344 0)"/>
    <use xlink:href="#DejaVuSans-e4" transform="translate(4559.861328 0)"/>
    <use xlink:href="#DejaVuSans-74" transform="translate(4621.140625 0)"/>
    <use xlink:href="#DejaVuSans-73" transform="translate(4660.349609 0)"/>
    <use xlink:href="#DejaVuSans-65" transform="translate(4712.449219 0)"/>
    <use xlink:href="#DejaVuSans-69" transform="translate(4773.972656 0)"/>
    <use xlink:href="#DejaVuSans-6e" transform="translate(4801.755859 0)"/>
    <use xlink:href="#DejaVuSans-62" transform="translate(4865.134766 0)"/>
    <use xlink:href="#DejaVuSans-75" transform="translate(4928.611328 0)"/>
    <use xlink:href="#DejaVuSans-df" transform="translate(4991.990234 0)"/>
    <use xlink:href="#DejaVuSans-65" transform="translate(5054.978516 0)"/>
    <use xlink:href="#DejaVuSans-6e" transform="translate(5116.501953 0)"/>
    <use xlink:href="#DejaVuSans-20" transform="translate(5179.880859 0)"/>
    <use xlink:href="#DejaVuSans-66" transform="translate(5211.667969 0)"/>
    <use xlink:href="#DejaVuSans-fc" transform="translate(5246.873047 0)"/>
    <use xlink:href="#DejaVuSans-68" transform="translate(5310.251953 0)"/>
    <use xlink:href="#DejaVuSans-72" transform="translate(5373.630859 0)"/>
    <use xlink:href="#DejaVuSans-65" transform="translate(5412.494141 0)"/>
    <use xlink:href="#DejaVuSans-6e" transform="translate(5474.017578 0)"/>
    <use xlink:href="#DejaVuSans-2c" transform="translate(5537.396484 0)"/>
    <use xlink:href="#DejaVuSans-20" transform="translate(5569.183594 0)"/>
    <use xlink:href="#DejaVuSans-64" transform="translate(5600.970703 0)"/>
    <use xlink:href="#DejaVuSans-69" transform="translate(5664.447266 0)"/>
    <use xlink:href="#DejaVuSans-65" transform="translate(5692.230469 0)"/>
    <use xlink:href="#DejaVuSans-20" transform="translate(5753.753906 0)"/>
    <use xlink:href="#DejaVuSans-73" transform="translate(5785.541016 0)"/>
    <use xlink:href="#DejaVuSans-69" transform="translate(5837.640625 0)"/>
    <use xlink:href="#DejaVuSans-63" transform="translate(5865.423828 0)"/>
    <use xlink:href="#DejaVuSans-68" transform="translate(5920.404297 0)"/>
    <use xlink:href="#DejaVuSans-20" transform="translate(5983.783203 0)"/>
    <use xlink:href="#DejaVuSans-6e" transform="translate(6015.570312 0)"/>
    <use xlink:href="#DejaVuSans-65" transform="translate(6078.949219 0)"/>
    <use xlink:href="#DejaVuSans-67" transform="translate(6140.472656 0)"/>
    <use xlink:href="#DejaVuSans-61" transform="translate(6203.949219 0)"/>
    <use xlink:href="#DejaVuSans-74" transform="translate(6265.228516 0)"/>
    <use xlink:href="#DejaVuSans-69" transform="translate(6304.4375 0)"/>
    <use xlink:href="#DejaVuSans-76" transform="translate(6332.220703 0)"/>
    <use xlink:href="#DejaVuSans-20" transform="translate(6391.400391 0)"/>
    <use xlink:href="#DejaVuSans-61" transform="translate(6423.1875 0)"/>
    <use xlink:href="#DejaVuSans-75" transform="translate(6484.466797 0)"/>
    <use xlink:href="#DejaVuSans-66" transform="translate(6547.845703 0)"/>
    <use xlink:href="#DejaVuSans-20" transform="translate(6583.050781 0)"/>
    <use xlink:href="#DejaVuSans-64" transform="translate(6614.837891 0)"/>
    <use xlink:href="#DejaVuSans-69" transform="translate(6678.314453 0)"/>
    <use xlink:href="#DejaVuSans-65" transform="translate(6706.097656 0)"/>
    <use xlink:href="#DejaVuSans-20" transform="translate(6767.621094 0)"/>
    <use xlink:href="#DejaVuSans-57" transform="translate(6799.408203 0)"/>
    <use xlink:href="#DejaVuSans-65" transform="translate(6892.410156 0)"/>
    <use xlink:href="#DejaVuSans-74" transform="translate(6953.933594 0)"/>
    <use xlink:href="#DejaVuSans-74" transform="translate(6993.142578 0)"/>
    <use xlink:href="#DejaVuSans-62" transform="translate(7032.351562 0)"/>
    <use xlink:href="#DejaVuSans-65" transform="translate(7095.828125 0)"/>
    <use xlink:href="#DejaVuSans-77" transform="translate(7157.351562 0)"/>
    <use xlink:href="#DejaVuSans-65" transform="translate(7239.138672 0)"/>
    <use xlink:href="#DejaVuSans-72" transform="translate(7300.662109 0)"/>
    <use xlink:href="#DejaVuSans-62" transform="translate(7341.775391 0)"/>
    <use xlink:href="#DejaVuSans-73" transform="translate(7405.251953 0)"/>
    <use xlink:href="#DejaVuSans-66" transform="translate(7457.351562 0)"/>
    <use xlink:href="#DejaVuSans-e4" transform="translate(7492.556641 0)"/>
    <use xlink:href="#DejaVuSans-68" transform="translate(7553.835938 0)"/>
    <use xlink:href="#DejaVuSans-69" transform="translate(7617.214844 0)"/>
    <use xlink:href="#DejaVuSans-67" transform="translate(7644.998047 0)"/>
    <use xlink:href="#DejaVuSans-6b" transform="translate(7708.474609 0)"/>
    <use xlink:href="#DejaVuSans-65" transform="translate(7762.759766 0)"/>
    <use xlink:href="#DejaVuSans-69" transform="translate(7824.283203 0)"/>
    <use xlink:href="#DejaVuSans-74" transform="translate(7852.066406 0)"/>
    <use xlink:href="#DejaVuSans-20" transform="translate(7891.275391 0)"/>
    <use xlink:href="#DejaVuSans-61" transform="translate(7923.0625 0)"/>
    <use xlink:href="#DejaVuSans-75" transform="translate(7984.341797 0)"/>
    <use xlink:href="#DejaVuSans-73" transform="translate(8047.720703 0)"/>
    <use xlink:href="#DejaVuSans-77" transform="translate(8099.820312 0)"/>
    <use xlink:href="#DejaVuSans-69" transform="translate(8181.607422 0)"/>
    <use xlink:href="#DejaVuSans-72" transform="translate(8209.390625 0)"/>
    <use xlink:href="#DejaVuSans-6b" transform="translate(8250.503906 0)"/>
    <use xlink:href="#DejaVuSans-65" transform="translate(8304.789062 0)"/>
    <use xlink:href="#DejaVuSans-6e" transform="translate(8366.3125 0)"/>
    <use xlink:href="#DejaVuSans-2e" transform="translate(8429.691406 0)"/>
    <use xlink:href="#DejaVuSans-22" transform="translate(8461.478516 0)"/>
   </g>
  </g>
  <g id="text_8">
   <!-- Abbildung 35c: Inwieweit stimmen Sie folgenden Aussagen zur -->
   <g transform="translate(278.851875 556.956563) scale(0.12 -0.12)">
    <defs>
     <path id="DejaVuSans-33" d="M 2597 2516 
Q 3050 2419 3304 2112 
Q 3559 1806 3559 1356 
Q 3559 666 3084 287 
Q 2609 -91 1734 -91 
Q 1441 -91 1130 -33 
Q 819 25 488 141 
L 488 750 
Q 750 597 1062 519 
Q 1375 441 1716 441 
Q 2309 441 2620 675 
Q 2931 909 2931 1356 
Q 2931 1769 2642 2001 
Q 2353 2234 1838 2234 
L 1294 2234 
L 1294 2753 
L 1863 2753 
Q 2328 2753 2575 2939 
Q 2822 3125 2822 3475 
Q 2822 3834 2567 4026 
Q 2313 4219 1838 4219 
Q 1578 4219 1281 4162 
Q 984 4106 628 3988 
L 628 4550 
Q 988 4650 1302 4700 
Q 1616 4750 1894 4750 
Q 2613 4750 3031 4423 
Q 3450 4097 3450 3541 
Q 3450 3153 3228 2886 
Q 3006 2619 2597 2516 
z
" transform="scale(0.015625)"/>
     <path id="DejaVuSans-35" d="M 691 4666 
L 3169 4666 
L 3169 4134 
L 1269 4134 
L 1269 2991 
Q 1406 3038 1543 3061 
Q 1681 3084 1819 3084 
Q 2600 3084 3056 2656 
Q 3513 2228 3513 1497 
Q 3513 744 3044 326 
Q 2575 -91 1722 -91 
Q 1428 -91 1123 -41 
Q 819 9 494 109 
L 494 744 
Q 775 591 1075 516 
Q 1375 441 1709 441 
Q 2250 441 2565 725 
Q 2881 1009 2881 1497 
Q 2881 1984 2565 2268 
Q 2250 2553 1709 2553 
Q 1456 2553 1204 2497 
Q 953 2441 691 2322 
L 691 4666 
z
" transform="scale(0.015625)"/>
     <path id="DejaVuSans-3a" d="M 750 794 
L 1409 794 
L 1409 0 
L 750 0 
L 750 794 
z
M 750 3309 
L 1409 3309 
L 1409 2516 
L 750 2516 
L 750 3309 
z
" transform="scale(0.015625)"/>
     <path id="DejaVuSans-49" d="M 628 4666 
L 1259 4666 
L 1259 0 
L 628 0 
L 628 4666 
z
" transform="scale(0.015625)"/>
    </defs>
    <use xlink:href="#DejaVuSans-41"/>
    <use xlink:href="#DejaVuSans-62" transform="translate(68.408203 0)"/>
    <use xlink:href="#DejaVuSans-62" transform="translate(131.884766 0)"/>
    <use xlink:href="#DejaVuSans-69" transform="translate(195.361328 0)"/>
    <use xlink:href="#DejaVuSans-6c" transform="translate(223.144531 0)"/>
    <use xlink:href="#DejaVuSans-64" transform="translate(250.927734 0)"/>
    <use xlink:href="#DejaVuSans-75" transform="translate(314.404297 0)"/>
    <use xlink:href="#DejaVuSans-6e" transform="translate(377.783203 0)"/>
    <use xlink:href="#DejaVuSans-67" transform="translate(441.162109 0)"/>
    <use xlink:href="#DejaVuSans-20" transform="translate(504.638672 0)"/>
    <use xlink:href="#DejaVuSans-33" transform="translate(536.425781 0)"/>
    <use xlink:href="#DejaVuSans-35" transform="translate(600.048828 0)"/>
    <use xlink:href="#DejaVuSans-63" transform="translate(663.671875 0)"/>
    <use xlink:href="#DejaVuSans-3a" transform="translate(718.652344 0)"/>
    <use xlink:href="#DejaVuSans-20" transform="translate(752.34375 0)"/>
    <use xlink:href="#DejaVuSans-49" transform="translate(784.130859 0)"/>
    <use xlink:href="#DejaVuSans-6e" transform="translate(813.623047 0)"/>
    <use xlink:href="#DejaVuSans-77" transform="translate(877.001953 0)"/>
    <use xlink:href="#DejaVuSans-69" transform="translate(958.789062 0)"/>
    <use xlink:href="#DejaVuSans-65" transform="translate(986.572266 0)"/>
    <use xlink:href="#DejaVuSans-77" transform="translate(1048.095703 0)"/>
    <use xlink:href="#DejaVuSans-65" transform="translate(1129.882812 0)"/>
    <use xlink:href="#DejaVuSans-69" transform="translate(1191.40625 0)"/>
    <use xlink:href="#DejaVuSans-74" transform="translate(1219.189453 0)"/>
    <use xlink:href="#DejaVuSans-20" transform="translate(1258.398438 0)"/>
    <use xlink:href="#DejaVuSans-73" transform="translate(1290.185547 0)"/>
    <use xlink:href="#DejaVuSans-74" transform="translate(1342.285156 0)"/>
    <use xlink:href="#DejaVuSans-69" transform="translate(1381.494141 0)"/>
    <use xlink:href="#DejaVuSans-6d" transform="translate(1409.277344 0)"/>
    <use xlink:href="#DejaVuSans-6d" transform="translate(1506.689453 0)"/>
    <use xlink:href="#DejaVuSans-65" transform="translate(1604.101562 0)"/>
    <use xlink:href="#DejaVuSans-6e" transform="translate(1665.625 0)"/>
    <use xlink:href="#DejaVuSans-20" transform="translate(1729.003906 0)"/>
    <use xlink:href="#DejaVuSans-53" transform="translate(1760.791016 0)"/>
    <use xlink:href="#DejaVuSans-69" transform="translate(1824.267578 0)"/>
    <use xlink:href="#DejaVuSans-65" transform="translate(1852.050781 0)"/>
    <use xlink:href="#DejaVuSans-20" transform="translate(1913.574219 0)"/>
    <use xlink:href="#DejaVuSans-66" transform="translate(1945.361328 0)"/>
    <use xlink:href="#DejaVuSans-6f" transform="translate(1980.566406 0)"/>
    <use xlink:href="#DejaVuSans-6c" transform="translate(2041.748047 0)"/>
    <use xlink:href="#DejaVuSans-67" transform="translate(2069.53125 0)"/>
    <use xlink:href="#DejaVuSans-65" transform="translate(2133.007812 0)"/>
    <use xlink:href="#DejaVuSans-6e" transform="translate(2194.53125 0)"/>
    <use xlink:href="#DejaVuSans-64" transform="translate(2257.910156 0)"/>
    <use xlink:href="#DejaVuSans-65" transform="translate(2321.386719 0)"/>
    <use xlink:href="#DejaVuSans-6e" transform="translate(2382.910156 0)"/>
    <use xlink:href="#DejaVuSans-20" transform="translate(2446.289062 0)"/>
    <use xlink:href="#DejaVuSans-41" transform="translate(2478.076172 0)"/>
    <use xlink:href="#DejaVuSans-75" transform="translate(2546.484375 0)"/>
    <use xlink:href="#DejaVuSans-73" transform="translate(2609.863281 0)"/>
    <use xlink:href="#DejaVuSans-73" transform="translate(2661.962891 0)"/>
    <use xlink:href="#DejaVuSans-61" transform="translate(2714.0625 0)"/>
    <use xlink:href="#DejaVuSans-67" transform="translate(2775.341797 0)"/>
    <use xlink:href="#DejaVuSans-65" transform="translate(2838.818359 0)"/>
    <use xlink:href="#DejaVuSans-6e" transform="translate(2900.341797 0)"/>
    <use xlink:href="#DejaVuSans-20" transform="translate(2963.720703 0)"/>
    <use xlink:href="#DejaVuSans-7a" transform="translate(2995.507812 0)"/>
    <use xlink:href="#DejaVuSans-75" transform="translate(3047.998047 0)"/>
    <use xlink:href="#DejaVuSans-72" transform="translate(3111.376953 0)"/>
   </g>
   <!-- Umsetzung von Kreislaufwirtschaft bezogen auf die -->
   <g transform="translate(313.528125 569.482125) scale(0.12 -0.12)">
    <defs>
     <path id="DejaVuSans-55" d="M 556 4666 
L 1191 4666 
L 1191 1831 
Q 1191 1081 1462 751 
Q 1734 422 2344 422 
Q 2950 422 3222 751 
Q 3494 1081 3494 1831 
L 3494 4666 
L 4128 4666 
L 4128 1753 
Q 4128 841 3676 375 
Q 3225 -91 2344 -91 
Q 1459 -91 1007 375 
Q 556 841 556 1753 
L 556 4666 
z
" transform="scale(0.015625)"/>
    </defs>
    <use xlink:href="#DejaVuSans-55"/>
    <use xlink:href="#DejaVuSans-6d" transform="translate(73.193359 0)"/>
    <use xlink:href="#DejaVuSans-73" transform="translate(170.605469 0)"/>
    <use xlink:href="#DejaVuSans-65" transform="translate(222.705078 0)"/>
    <use xlink:href="#DejaVuSans-74" transform="translate(284.228516 0)"/>
    <use xlink:href="#DejaVuSans-7a" transform="translate(323.4375 0)"/>
    <use xlink:href="#DejaVuSans-75" transform="translate(375.927734 0)"/>
    <use xlink:href="#DejaVuSans-6e" transform="translate(439.306641 0)"/>
    <use xlink:href="#DejaVuSans-67" transform="translate(502.685547 0)"/>
    <use xlink:href="#DejaVuSans-20" transform="translate(566.162109 0)"/>
    <use xlink:href="#DejaVuSans-76" transform="translate(597.949219 0)"/>
    <use xlink:href="#DejaVuSans-6f" transform="translate(657.128906 0)"/>
    <use xlink:href="#DejaVuSans-6e" transform="translate(718.310547 0)"/>
    <use xlink:href="#DejaVuSans-20" transform="translate(781.689453 0)"/>
    <use xlink:href="#DejaVuSans-4b" transform="translate(813.476562 0)"/>
    <use xlink:href="#DejaVuSans-72" transform="translate(879.052734 0)"/>
    <use xlink:href="#DejaVuSans-65" transform="translate(917.916016 0)"/>
    <use xlink:href="#DejaVuSans-69" transform="translate(979.439453 0)"/>
    <use xlink:href="#DejaVuSans-73" transform="translate(1007.222656 0)"/>
    <use xlink:href="#DejaVuSans-6c" transform="translate(1059.322266 0)"/>
    <use xlink:href="#DejaVuSans-61" transform="translate(1087.105469 0)"/>
    <use xlink:href="#DejaVuSans-75" transform="translate(1148.384766 0)"/>
    <use xlink:href="#DejaVuSans-66" transform="translate(1211.763672 0)"/>
    <use xlink:href="#DejaVuSans-77" transform="translate(1245.21875 0)"/>
    <use xlink:href="#DejaVuSans-69" transform="translate(1327.005859 0)"/>
    <use xlink:href="#DejaVuSans-72" transform="translate(1354.789062 0)"/>
    <use xlink:href="#DejaVuSans-74" transform="translate(1395.902344 0)"/>
    <use xlink:href="#DejaVuSans-73" transform="translate(1435.111328 0)"/>
    <use xlink:href="#DejaVuSans-63" transform="translate(1487.210938 0)"/>
    <use xlink:href="#DejaVuSans-68" transform="translate(1542.191406 0)"/>
    <use xlink:href="#DejaVuSans-61" transform="translate(1605.570312 0)"/>
    <use xlink:href="#DejaVuSans-66" transform="translate(1666.849609 0)"/>
    <use xlink:href="#DejaVuSans-74" transform="translate(1700.304688 0)"/>
    <use xlink:href="#DejaVuSans-20" transform="translate(1739.513672 0)"/>
    <use xlink:href="#DejaVuSans-62" transform="translate(1771.300781 0)"/>
    <use xlink:href="#DejaVuSans-65" transform="translate(1834.777344 0)"/>
    <use xlink:href="#DejaVuSans-7a" transform="translate(1896.300781 0)"/>
    <use xlink:href="#DejaVuSans-6f" transform="translate(1948.791016 0)"/>
    <use xlink:href="#DejaVuSans-67" transform="translate(2009.972656 0)"/>
    <use xlink:href="#DejaVuSans-65" transform="translate(2073.449219 0)"/>
    <use xlink:href="#DejaVuSans-6e" transform="translate(2134.972656 0)"/>
    <use xlink:href="#DejaVuSans-20" transform="translate(2198.351562 0)"/>
    <use xlink:href="#DejaVuSans-61" transform="translate(2230.138672 0)"/>
    <use xlink:href="#DejaVuSans-75" transform="translate(2291.417969 0)"/>
    <use xlink:href="#DejaVuSans-66" transform="translate(2354.796875 0)"/>
    <use xlink:href="#DejaVuSans-20" transform="translate(2390.001953 0)"/>
    <use xlink:href="#DejaVuSans-64" transform="translate(2421.789062 0)"/>
    <use xlink:href="#DejaVuSans-69" transform="translate(2485.265625 0)"/>
    <use xlink:href="#DejaVuSans-65" transform="translate(2513.048828 0)"/>
   </g>
   <!-- Wettbewerbsfähigkeit aus der Sicht Ihres Unternehmens zu? – "Die -->
   <g transform="translate(266.773125 582.007687) scale(0.12 -0.12)">
    <defs>
     <path id="DejaVuSans-3f" d="M 1222 794 
L 1856 794 
L 1856 0 
L 1222 0 
L 1222 794 
z
M 1838 1253 
L 1241 1253 
L 1241 1734 
Q 1241 2050 1328 2253 
Q 1416 2456 1697 2725 
L 1978 3003 
Q 2156 3169 2236 3316 
Q 2316 3463 2316 3616 
Q 2316 3894 2111 4066 
Q 1906 4238 1569 4238 
Q 1322 4238 1042 4128 
Q 763 4019 459 3809 
L 459 4397 
Q 753 4575 1054 4662 
Q 1356 4750 1678 4750 
Q 2253 4750 2601 4447 
Q 2950 4144 2950 3647 
Q 2950 3409 2837 3195 
Q 2725 2981 2444 2713 
L 2169 2444 
Q 2022 2297 1961 2214 
Q 1900 2131 1875 2053 
Q 1856 1988 1847 1894 
Q 1838 1800 1838 1638 
L 1838 1253 
z
" transform="scale(0.015625)"/>
     <path id="DejaVuSans-2013" d="M 313 1978 
L 2888 1978 
L 2888 1528 
L 313 1528 
L 313 1978 
z
" transform="scale(0.015625)"/>
    </defs>
    <use xlink:href="#DejaVuSans-57"/>
    <use xlink:href="#DejaVuSans-65" transform="translate(93.001953 0)"/>
    <use xlink:href="#DejaVuSans-74" transform="translate(154.525391 0)"/>
    <use xlink:href="#DejaVuSans-74" transform="translate(193.734375 0)"/>
    <use xlink:href="#DejaVuSans-62" transform="translate(232.943359 0)"/>
    <use xlink:href="#DejaVuSans-65" transform="translate(296.419922 0)"/>
    <use xlink:href="#DejaVuSans-77" transform="translate(357.943359 0)"/>
    <use xlink:href="#DejaVuSans-65" transform="translate(439.730469 0)"/>
    <use xlink:href="#DejaVuSans-72" transform="translate(501.253906 0)"/>
    <use xlink:href="#DejaVuSans-62" transform="translate(542.367188 0)"/>
    <use xlink:href="#DejaVuSans-73" transform="translate(605.84375 0)"/>
    <use xlink:href="#DejaVuSans-66" transform="translate(657.943359 0)"/>
    <use xlink:href="#DejaVuSans-e4" transform="translate(693.148438 0)"/>
    <use xlink:href="#DejaVuSans-68" transform="translate(754.427734 0)"/>
    <use xlink:href="#DejaVuSans-69" transform="translate(817.806641 0)"/>
    <use xlink:href="#DejaVuSans-67" transform="translate(845.589844 0)"/>
    <use xlink:href="#DejaVuSans-6b" transform="translate(909.066406 0)"/>
    <use xlink:href="#DejaVuSans-65" transform="translate(963.351562 0)"/>
    <use xlink:href="#DejaVuSans-69" transform="translate(1024.875 0)"/>
    <use xlink:href="#DejaVuSans-74" transform="translate(1052.658203 0)"/>
    <use xlink:href="#DejaVuSans-20" transform="translate(1091.867188 0)"/>
    <use xlink:href="#DejaVuSans-61" transform="translate(1123.654297 0)"/>
    <use xlink:href="#DejaVuSans-75" transform="translate(1184.933594 0)"/>
    <use xlink:href="#DejaVuSans-73" transform="translate(1248.3125 0)"/>
    <use xlink:href="#DejaVuSans-20" transform="translate(1300.412109 0)"/>
    <use xlink:href="#DejaVuSans-64" transform="translate(1332.199219 0)"/>
    <use xlink:href="#DejaVuSans-65" transform="translate(1395.675781 0)"/>
    <use xlink:href="#DejaVuSans-72" transform="translate(1457.199219 0)"/>
    <use xlink:href="#DejaVuSans-20" transform="translate(1498.3125 0)"/>
    <use xlink:href="#DejaVuSans-53" transform="translate(1530.099609 0)"/>
    <use xlink:href="#DejaVuSans-69" transform="translate(1593.576172 0)"/>
    <use xlink:href="#DejaVuSans-63" transform="translate(1621.359375 0)"/>
    <use xlink:href="#DejaVuSans-68" transform="translate(1676.339844 0)"/>
    <use xlink:href="#DejaVuSans-74" transform="translate(1739.71875 0)"/>
    <use xlink:href="#DejaVuSans-20" transform="translate(1778.927734 0)"/>
    <use xlink:href="#DejaVuSans-49" transform="translate(1810.714844 0)"/>
    <use xlink:href="#DejaVuSans-68" transform="translate(1840.207031 0)"/>
    <use xlink:href="#DejaVuSans-72" transform="translate(1903.585938 0)"/>
    <use xlink:href="#DejaVuSans-65" transform="translate(1942.449219 0)"/>
    <use xlink:href="#DejaVuSans-73" transform="translate(2003.972656 0)"/>
    <use xlink:href="#DejaVuSans-20" transform="translate(2056.072266 0)"/>
    <use xlink:href="#DejaVuSans-55" transform="translate(2087.859375 0)"/>
    <use xlink:href="#DejaVuSans-6e" transform="translate(2161.052734 0)"/>
    <use xlink:href="#DejaVuSans-74" transform="translate(2224.431641 0)"/>
    <use xlink:href="#DejaVuSans-65" transform="translate(2263.640625 0)"/>
    <use xlink:href="#DejaVuSans-72" transform="translate(2325.164062 0)"/>
    <use xlink:href="#DejaVuSans-6e" transform="translate(2364.527344 0)"/>
    <use xlink:href="#DejaVuSans-65" transform="translate(2427.90625 0)"/>
    <use xlink:href="#DejaVuSans-68" transform="translate(2489.429688 0)"/>
    <use xlink:href="#DejaVuSans-6d" transform="translate(2552.808594 0)"/>
    <use xlink:href="#DejaVuSans-65" transform="translate(2650.220703 0)"/>
    <use xlink:href="#DejaVuSans-6e" transform="translate(2711.744141 0)"/>
    <use xlink:href="#DejaVuSans-73" transform="translate(2775.123047 0)"/>
    <use xlink:href="#DejaVuSans-20" transform="translate(2827.222656 0)"/>
    <use xlink:href="#DejaVuSans-7a" transform="translate(2859.009766 0)"/>
    <use xlink:href="#DejaVuSans-75" transform="translate(2911.5 0)"/>
    <use xlink:href="#DejaVuSans-3f" transform="translate(2974.878906 0)"/>
    <use xlink:href="#DejaVuSans-20" transform="translate(3027.955078 0)"/>
    <use xlink:href="#DejaVuSans-2013" transform="translate(3059.742188 0)"/>
    <use xlink:href="#DejaVuSans-20" transform="translate(3109.742188 0)"/>
    <use xlink:href="#DejaVuSans-22" transform="translate(3141.529297 0)"/>
    <use xlink:href="#DejaVuSans-44" transform="translate(3187.525391 0)"/>
    <use xlink:href="#DejaVuSans-69" transform="translate(3264.527344 0)"/>
    <use xlink:href="#DejaVuSans-65" transform="translate(3292.310547 0)"/>
   </g>
   <!-- Verpflichtung zu recyclinggerechtem Design kann zu höheren -->
   <g transform="translate(282.94125 594.53325) scale(0.12 -0.12)">
    <use xlink:href="#DejaVuSans-56"/>
    <use xlink:href="#DejaVuSans-65" transform="translate(60.658203 0)"/>
    <use xlink:href="#DejaVuSans-72" transform="translate(122.181641 0)"/>
    <use xlink:href="#DejaVuSans-70" transform="translate(163.294922 0)"/>
    <use xlink:href="#DejaVuSans-66" transform="translate(226.771484 0)"/>
    <use xlink:href="#DejaVuSans-6c" transform="translate(261.976562 0)"/>
    <use xlink:href="#DejaVuSans-69" transform="translate(289.759766 0)"/>
    <use xlink:href="#DejaVuSans-63" transform="translate(317.542969 0)"/>
    <use xlink:href="#DejaVuSans-68" transform="translate(372.523438 0)"/>
    <use xlink:href="#DejaVuSans-74" transform="translate(435.902344 0)"/>
    <use xlink:href="#DejaVuSans-75" transform="translate(475.111328 0)"/>
    <use xlink:href="#DejaVuSans-6e" transform="translate(538.490234 0)"/>
    <use xlink:href="#DejaVuSans-67" transform="translate(601.869141 0)"/>
    <use xlink:href="#DejaVuSans-20" transform="translate(665.345703 0)"/>
    <use xlink:href="#DejaVuSans-7a" transform="translate(697.132812 0)"/>
    <use xlink:href="#DejaVuSans-75" transform="translate(749.623047 0)"/>
    <use xlink:href="#DejaVuSans-20" transform="translate(813.001953 0)"/>
    <use xlink:href="#DejaVuSans-72" transform="translate(844.789062 0)"/>
    <use xlink:href="#DejaVuSans-65" transform="translate(883.652344 0)"/>
    <use xlink:href="#DejaVuSans-63" transform="translate(945.175781 0)"/>
    <use xlink:href="#DejaVuSans-79" transform="translate(1000.15625 0)"/>
    <use xlink:href="#DejaVuSans-63" transform="translate(1059.335938 0)"/>
    <use xlink:href="#DejaVuSans-6c" transform="translate(1114.316406 0)"/>
    <use xlink:href="#DejaVuSans-69" transform="translate(1142.099609 0)"/>
    <use xlink:href="#DejaVuSans-6e" transform="translate(1169.882812 0)"/>
    <use xlink:href="#DejaVuSans-67" transform="translate(1233.261719 0)"/>
    <use xlink:href="#DejaVuSans-67" transform="translate(1296.738281 0)"/>
    <use xlink:href="#DejaVuSans-65" transform="translate(1360.214844 0)"/>
    <use xlink:href="#DejaVuSans-72" transform="translate(1421.738281 0)"/>
    <use xlink:href="#DejaVuSans-65" transform="translate(1460.601562 0)"/>
    <use xlink:href="#DejaVuSans-63" transform="translate(1522.125 0)"/>
    <use xlink:href="#DejaVuSans-68" transform="translate(1577.105469 0)"/>
    <use xlink:href="#DejaVuSans-74" transform="translate(1640.484375 0)"/>
    <use xlink:href="#DejaVuSans-65" transform="translate(1679.693359 0)"/>
    <use xlink:href="#DejaVuSans-6d" transform="translate(1741.216797 0)"/>
    <use xlink:href="#DejaVuSans-20" transform="translate(1838.628906 0)"/>
    <use xlink:href="#DejaVuSans-44" transform="translate(1870.416016 0)"/>
    <use xlink:href="#DejaVuSans-65" transform="translate(1947.417969 0)"/>
    <use xlink:href="#DejaVuSans-73" transform="translate(2008.941406 0)"/>
    <use xlink:href="#DejaVuSans-69" transform="translate(2061.041016 0)"/>
    <use xlink:href="#DejaVuSans-67" transform="translate(2088.824219 0)"/>
    <use xlink:href="#DejaVuSans-6e" transform="translate(2152.300781 0)"/>
    <use xlink:href="#DejaVuSans-20" transform="translate(2215.679688 0)"/>
    <use xlink:href="#DejaVuSans-6b" transform="translate(2247.466797 0)"/>
    <use xlink:href="#DejaVuSans-61" transform="translate(2303.626953 0)"/>
    <use xlink:href="#DejaVuSans-6e" transform="translate(2364.90625 0)"/>
    <use xlink:href="#DejaVuSans-6e" transform="translate(2428.285156 0)"/>
    <use xlink:href="#DejaVuSans-20" transform="translate(2491.664062 0)"/>
    <use xlink:href="#DejaVuSans-7a" transform="translate(2523.451172 0)"/>
    <use xlink:href="#DejaVuSans-75" transform="translate(2575.941406 0)"/>
    <use xlink:href="#DejaVuSans-20" transform="translate(2639.320312 0)"/>
    <use xlink:href="#DejaVuSans-68" transform="translate(2671.107422 0)"/>
    <use xlink:href="#DejaVuSans-f6" transform="translate(2734.486328 0)"/>
    <use xlink:href="#DejaVuSans-68" transform="translate(2795.667969 0)"/>
    <use xlink:href="#DejaVuSans-65" transform="translate(2859.046875 0)"/>
    <use xlink:href="#DejaVuSans-72" transform="translate(2920.570312 0)"/>
    <use xlink:href="#DejaVuSans-65" transform="translate(2959.433594 0)"/>
    <use xlink:href="#DejaVuSans-6e" transform="translate(3020.957031 0)"/>
   </g>
   <!-- Stückkosten oder Qualitätseinbußen führen, die sich negativ auf -->
   <g transform="translate(274.632187 607.058813) scale(0.12 -0.12)">
    <use xlink:href="#DejaVuSans-53"/>
    <use xlink:href="#DejaVuSans-74" transform="translate(63.476562 0)"/>
    <use xlink:href="#DejaVuSans-fc" transform="translate(102.685547 0)"/>
    <use xlink:href="#DejaVuSans-63" transform="translate(166.064453 0)"/>
    <use xlink:href="#DejaVuSans-6b" transform="translate(221.044922 0)"/>
    <use xlink:href="#DejaVuSans-6b" transform="translate(278.955078 0)"/>
    <use xlink:href="#DejaVuSans-6f" transform="translate(333.240234 0)"/>
    <use xlink:href="#DejaVuSans-73" transform="translate(394.421875 0)"/>
    <use xlink:href="#DejaVuSans-74" transform="translate(446.521484 0)"/>
    <use xlink:href="#DejaVuSans-65" transform="translate(485.730469 0)"/>
    <use xlink:href="#DejaVuSans-6e" transform="translate(547.253906 0)"/>
    <use xlink:href="#DejaVuSans-20" transform="translate(610.632812 0)"/>
    <use xlink:href="#DejaVuSans-6f" transform="translate(642.419922 0)"/>
    <use xlink:href="#DejaVuSans-64" transform="translate(703.601562 0)"/>
    <use xlink:href="#DejaVuSans-65" transform="translate(767.078125 0)"/>
    <use xlink:href="#DejaVuSans-72" transform="translate(828.601562 0)"/>
    <use xlink:href="#DejaVuSans-20" transform="translate(869.714844 0)"/>
    <use xlink:href="#DejaVuSans-51" transform="translate(901.501953 0)"/>
    <use xlink:href="#DejaVuSans-75" transform="translate(980.212891 0)"/>
    <use xlink:href="#DejaVuSans-61" transform="translate(1043.591797 0)"/>
    <use xlink:href="#DejaVuSans-6c" transform="translate(1104.871094 0)"/>
    <use xlink:href="#DejaVuSans-69" transform="translate(1132.654297 0)"/>
    <use xlink:href="#DejaVuSans-74" transform="translate(1160.4375 0)"/>
    <use xlink:href="#DejaVuSans-e4" transform="translate(1199.646484 0)"/>
    <use xlink:href="#DejaVuSans-74" transform="translate(1260.925781 0)"/>
    <use xlink:href="#DejaVuSans-73" transform="translate(1300.134766 0)"/>
    <use xlink:href="#DejaVuSans-65" transform="translate(1352.234375 0)"/>
    <use xlink:href="#DejaVuSans-69" transform="translate(1413.757812 0)"/>
    <use xlink:href="#DejaVuSans-6e" transform="translate(1441.541016 0)"/>
    <use xlink:href="#DejaVuSans-62" transform="translate(1504.919922 0)"/>
    <use xlink:href="#DejaVuSans-75" transform="translate(1568.396484 0)"/>
    <use xlink:href="#DejaVuSans-df" transform="translate(1631.775391 0)"/>
    <use xlink:href="#DejaVuSans-65" transform="translate(1694.763672 0)"/>
    <use xlink:href="#DejaVuSans-6e" transform="translate(1756.287109 0)"/>
    <use xlink:href="#DejaVuSans-20" transform="translate(1819.666016 0)"/>
    <use xlink:href="#DejaVuSans-66" transform="translate(1851.453125 0)"/>
    <use xlink:href="#DejaVuSans-fc" transform="translate(1886.658203 0)"/>
    <use xlink:href="#DejaVuSans-68" transform="translate(1950.037109 0)"/>
    <use xlink:href="#DejaVuSans-72" transform="translate(2013.416016 0)"/>
    <use xlink:href="#DejaVuSans-65" transform="translate(2052.279297 0)"/>
    <use xlink:href="#DejaVuSans-6e" transform="translate(2113.802734 0)"/>
    <use xlink:href="#DejaVuSans-2c" transform="translate(2177.181641 0)"/>
    <use xlink:href="#DejaVuSans-20" transform="translate(2208.96875 0)"/>
    <use xlink:href="#DejaVuSans-64" transform="translate(2240.755859 0)"/>
    <use xlink:href="#DejaVuSans-69" transform="translate(2304.232422 0)"/>
    <use xlink:href="#DejaVuSans-65" transform="translate(2332.015625 0)"/>
    <use xlink:href="#DejaVuSans-20" transform="translate(2393.539062 0)"/>
    <use xlink:href="#DejaVuSans-73" transform="translate(2425.326172 0)"/>
    <use xlink:href="#DejaVuSans-69" transform="translate(2477.425781 0)"/>
    <use xlink:href="#DejaVuSans-63" transform="translate(2505.208984 0)"/>
    <use xlink:href="#DejaVuSans-68" transform="translate(2560.189453 0)"/>
    <use xlink:href="#DejaVuSans-20" transform="translate(2623.568359 0)"/>
    <use xlink:href="#DejaVuSans-6e" transform="translate(2655.355469 0)"/>
    <use xlink:href="#DejaVuSans-65" transform="translate(2718.734375 0)"/>
    <use xlink:href="#DejaVuSans-67" transform="translate(2780.257812 0)"/>
    <use xlink:href="#DejaVuSans-61" transform="translate(2843.734375 0)"/>
    <use xlink:href="#DejaVuSans-74" transform="translate(2905.013672 0)"/>
    <use xlink:href="#DejaVuSans-69" transform="translate(2944.222656 0)"/>
    <use xlink:href="#DejaVuSans-76" transform="translate(2972.005859 0)"/>
    <use xlink:href="#DejaVuSans-20" transform="translate(3031.185547 0)"/>
    <use xlink:href="#DejaVuSans-61" transform="translate(3062.972656 0)"/>
    <use xlink:href="#DejaVuSans-75" transform="translate(3124.251953 0)"/>
    <use xlink:href="#DejaVuSans-66" transform="translate(3187.630859 0)"/>
   </g>
   <!-- die Wettbewerbsfähigkeit auswirken." -->
   <g transform="translate(354.4425 619.584375) scale(0.12 -0.12)">
    <use xlink:href="#DejaVuSans-64"/>
    <use xlink:href="#DejaVuSans-69" transform="translate(63.476562 0)"/>
    <use xlink:href="#DejaVuSans-65" transform="translate(91.259766 0)"/>
    <use xlink:href="#DejaVuSans-20" transform="translate(152.783203 0)"/>
    <use xlink:href="#DejaVuSans-57" transform="translate(184.570312 0)"/>
    <use xlink:href="#DejaVuSans-65" transform="translate(277.572266 0)"/>
    <use xlink:href="#DejaVuSans-74" transform="translate(339.095703 0)"/>
    <use xlink:href="#DejaVuSans-74" transform="translate(378.304688 0)"/>
    <use xlink:href="#DejaVuSans-62" transform="translate(417.513672 0)"/>
    <use xlink:href="#DejaVuSans-65" transform="translate(480.990234 0)"/>
    <use xlink:href="#DejaVuSans-77" transform="translate(542.513672 0)"/>
    <use xlink:href="#DejaVuSans-65" transform="translate(624.300781 0)"/>
    <use xlink:href="#DejaVuSans-72" transform="translate(685.824219 0)"/>
    <use xlink:href="#DejaVuSans-62" transform="translate(726.9375 0)"/>
    <use xlink:href="#DejaVuSans-73" transform="translate(790.414062 0)"/>
    <use xlink:href="#DejaVuSans-66" transform="translate(842.513672 0)"/>
    <use xlink:href="#DejaVuSans-e4" transform="translate(877.71875 0)"/>
    <use xlink:href="#DejaVuSans-68" transform="translate(938.998047 0)"/>
    <use xlink:href="#DejaVuSans-69" transform="translate(1002.376953 0)"/>
    <use xlink:href="#DejaVuSans-67" transform="translate(1030.160156 0)"/>
    <use xlink:href="#DejaVuSans-6b" transform="translate(1093.636719 0)"/>
    <use xlink:href="#DejaVuSans-65" transform="translate(1147.921875 0)"/>
    <use xlink:href="#DejaVuSans-69" transform="translate(1209.445312 0)"/>
    <use xlink:href="#DejaVuSans-74" transform="translate(1237.228516 0)"/>
    <use xlink:href="#DejaVuSans-20" transform="translate(1276.4375 0)"/>
    <use xlink:href="#DejaVuSans-61" transform="translate(1308.224609 0)"/>
    <use xlink:href="#DejaVuSans-75" transform="translate(1369.503906 0)"/>
    <use xlink:href="#DejaVuSans-73" transform="translate(1432.882812 0)"/>
    <use xlink:href="#DejaVuSans-77" transform="translate(1484.982422 0)"/>
    <use xlink:href="#DejaVuSans-69" transform="translate(1566.769531 0)"/>
    <use xlink:href="#DejaVuSans-72" transform="translate(1594.552734 0)"/>
    <use xlink:href="#DejaVuSans-6b" transform="translate(1635.666016 0)"/>
    <use xlink:href="#DejaVuSans-65" transform="translate(1689.951172 0)"/>
    <use xlink:href="#DejaVuSans-6e" transform="translate(1751.474609 0)"/>
    <use xlink:href="#DejaVuSans-2e" transform="translate(1814.853516 0)"/>
    <use xlink:href="#DejaVuSans-22" transform="translate(1846.640625 0)"/>
   </g>
  </g>
 </g>
 <defs>
  <clipPath id="p9eb8305354">
   <rect x="254.16" y="51.84" width="427.68" height="427.68"/>
  </clipPath>
 </defs>
</svg>
