<?xml version="1.0" encoding="utf-8" standalone="no"?>
<!DOCTYPE svg PUBLIC "-//W3C//DTD SVG 1.1//EN"
  "http://www.w3.org/Graphics/SVG/1.1/DTD/svg11.dtd">
<svg xmlns:xlink="http://www.w3.org/1999/xlink" width="936pt" height="648pt" viewBox="0 0 936 648" xmlns="http://www.w3.org/2000/svg" version="1.1">
 <metadata>
  <rdf:RDF xmlns:dc="http://purl.org/dc/elements/1.1/" xmlns:cc="http://creativecommons.org/ns#" xmlns:rdf="http://www.w3.org/1999/02/22-rdf-syntax-ns#">
   <cc:Work>
    <dc:type rdf:resource="http://purl.org/dc/dcmitype/StillImage"/>
    <dc:date>2026-02-23T14:10:29.597071</dc:date>
    <dc:format>image/svg+xml</dc:format>
    <dc:creator>
     <cc:Agent>
      <dc:title>Matplotlib v3.10.8, https://matplotlib.org/</dc:title>
     </cc:Agent>
    </dc:creator>
   </cc:Work>
  </rdf:RDF>
 </metadata>
 <defs>
  <style type="text/css">*{stroke-linejoin: round; stroke-linecap: butt}</style>
 </defs>
 <g id="figure_1">
  <g id="patch_1">
   <path d="M 0 648 
L 936 648 
L 936 0 
L 0 0 
z
" style="fill: #ffffff"/>
  </g>
  <g id="axes_1">
   <g id="patch_2">
    <path d="M 548.211046 114.577995 
C 535.905828 108.045886 522.848625 103.041302 509.329803 99.675549 
C 495.810981 96.309796 481.931497 94.608 467.999993 94.608 
L 467.999995 154.4832 
C 477.055473 154.4832 486.077138 155.589368 494.864372 157.777107 
C 503.651607 159.964846 512.138788 163.217826 520.13718 167.463697 
z
" style="fill: #003b6a; stroke: #ffffff; stroke-linejoin: miter"/>
   </g>
   <g id="patch_3">
    <path d="M 638.892987 257.855952 
C 637.533167 228.154641 628.453386 199.314661 612.552592 174.191328 
C 596.651799 149.067989 574.472671 128.51873 548.211046 114.577995 
L 520.13718 167.463697 
C 537.207236 176.525175 551.623669 189.882193 561.959185 206.212363 
C 572.294701 222.54253 578.196559 241.288517 579.080442 260.594369 
z
" style="fill: #8fc73e; stroke: #ffffff; stroke-linejoin: miter"/>
   </g>
   <g id="patch_4">
    <path d="M 534.068518 423.479178 
C 566.401933 409.941589 593.806352 386.787832 612.552592 357.168672 
C 631.298832 327.549513 640.496151 292.872318 638.892987 257.855952 
L 579.080442 260.594369 
C 580.122498 283.355007 574.144241 305.895183 561.959185 325.147637 
C 549.774129 344.400091 531.961257 359.450033 510.944537 368.249466 
z
" style="fill: #dc912f; stroke: #ffffff; stroke-linejoin: miter"/>
   </g>
   <g id="patch_5">
    <path d="M 383.218234 414.265606 
C 405.976553 427.25132 431.417024 434.836389 457.570767 436.433802 
C 483.724509 438.031215 509.898987 433.598655 534.068518 423.479178 
L 510.944537 368.249466 
C 495.234342 374.827125 478.220931 377.70829 461.220999 376.669971 
C 444.221066 375.631653 427.684759 370.701358 412.891852 362.260644 
z
" style="fill: #93bbdc; stroke: #ffffff; stroke-linejoin: miter"/>
   </g>
   <g id="patch_6">
    <path d="M 374.317562 408.820596 
C 375.772894 409.773079 377.242675 410.703322 378.726374 411.61098 
C 380.210074 412.518638 381.707538 413.403619 383.218234 414.265606 
L 412.891852 362.260644 
C 411.9099 361.700352 410.936548 361.125115 409.972143 360.535137 
C 409.007739 359.945159 408.052381 359.340501 407.106415 358.721387 
z
" style="fill: #f9c803; stroke: #ffffff; stroke-linejoin: miter"/>
   </g>
   <g id="patch_7">
    <path d="M 468.000002 94.608 
C 431.165819 94.608 395.298477 106.504382 365.765357 128.516926 
C 336.232237 150.52947 314.583796 181.502494 304.059501 216.801167 
C 293.535216 252.09984 294.687625 289.870977 307.344282 324.46239 
C 320.000948 359.053805 343.497396 388.649461 374.317562 408.820596 
L 407.106415 358.721387 
C 387.073307 345.61015 371.800616 326.372973 363.573783 303.888553 
C 355.346956 281.404135 354.59789 256.852896 361.438676 233.908759 
C 368.279467 210.964621 382.350954 190.832155 401.547482 176.524002 
C 420.74401 162.215848 444.057782 154.4832 468.000001 154.4832 
z
" style="fill: #6283aa; stroke: #ffffff; stroke-linejoin: miter"/>
   </g>
   <g id="matplotlib.axis_1"/>
   <g id="matplotlib.axis_2"/>
   <g id="line2d_1">
    <path d="M 504.370227 119.59608 
L 513.462785 83.0751 
" clip-path="url(#pba67fd8455)" style="fill: none; stroke: #000000; stroke-opacity: 0.35; stroke-linecap: square"/>
   </g>
   <g id="line2d_2">
    <path d="M 595.206276 185.169967 
L 627.007852 165.042453 
" clip-path="url(#pba67fd8455)" style="fill: none; stroke: #000000; stroke-opacity: 0.35; stroke-linecap: square"/>
   </g>
   <g id="line2d_3">
    <path d="M 595.206276 346.190033 
L 627.007852 366.317547 
" clip-path="url(#pba67fd8455)" style="fill: none; stroke: #000000; stroke-opacity: 0.35; stroke-linecap: square"/>
   </g>
   <g id="line2d_4">
    <path d="M 458.822275 415.943348 
L 456.527844 453.509193 
" clip-path="url(#pba67fd8455)" style="fill: none; stroke: #000000; stroke-opacity: 0.35; stroke-linecap: square"/>
   </g>
   <g id="line2d_5">
    <path d="M 389.439211 394.099263 
L 369.799013 426.204079 
" clip-path="url(#pba67fd8455)" style="fill: none; stroke: #000000; stroke-opacity: 0.35; stroke-linecap: square"/>
   </g>
   <g id="line2d_6">
    <path d="M 323.732364 222.666627 
L 287.665453 211.913284 
" clip-path="url(#pba67fd8455)" style="fill: none; stroke: #000000; stroke-opacity: 0.35; stroke-linecap: square"/>
   </g>
   <g id="text_1">
    <!-- 8% -->
    <g transform="translate(519.662253 55.902801) scale(0.08 -0.08)">
     <defs>
      <path id="DejaVuSans-38" d="M 2034 2216 
Q 1584 2216 1326 1975 
Q 1069 1734 1069 1313 
Q 1069 891 1326 650 
Q 1584 409 2034 409 
Q 2484 409 2743 651 
Q 3003 894 3003 1313 
Q 3003 1734 2745 1975 
Q 2488 2216 2034 2216 
z
M 1403 2484 
Q 997 2584 770 2862 
Q 544 3141 544 3541 
Q 544 4100 942 4425 
Q 1341 4750 2034 4750 
Q 2731 4750 3128 4425 
Q 3525 4100 3525 3541 
Q 3525 3141 3298 2862 
Q 3072 2584 2669 2484 
Q 3125 2378 3379 2068 
Q 3634 1759 3634 1313 
Q 3634 634 3220 271 
Q 2806 -91 2034 -91 
Q 1263 -91 848 271 
Q 434 634 434 1313 
Q 434 1759 690 2068 
Q 947 2378 1403 2484 
z
M 1172 3481 
Q 1172 3119 1398 2916 
Q 1625 2713 2034 2713 
Q 2441 2713 2670 2916 
Q 2900 3119 2900 3481 
Q 2900 3844 2670 4047 
Q 2441 4250 2034 4250 
Q 1625 4250 1398 4047 
Q 1172 3844 1172 3481 
z
" transform="scale(0.015625)"/>
      <path id="DejaVuSans-25" d="M 4653 2053 
Q 4381 2053 4226 1822 
Q 4072 1591 4072 1178 
Q 4072 772 4226 539 
Q 4381 306 4653 306 
Q 4919 306 5073 539 
Q 5228 772 5228 1178 
Q 5228 1588 5073 1820 
Q 4919 2053 4653 2053 
z
M 4653 2450 
Q 5147 2450 5437 2106 
Q 5728 1763 5728 1178 
Q 5728 594 5436 251 
Q 5144 -91 4653 -91 
Q 4153 -91 3862 251 
Q 3572 594 3572 1178 
Q 3572 1766 3864 2108 
Q 4156 2450 4653 2450 
z
M 1428 4353 
Q 1159 4353 1004 4120 
Q 850 3888 850 3481 
Q 850 3069 1003 2837 
Q 1156 2606 1428 2606 
Q 1700 2606 1854 2837 
Q 2009 3069 2009 3481 
Q 2009 3884 1853 4118 
Q 1697 4353 1428 4353 
z
M 4250 4750 
L 4750 4750 
L 1831 -91 
L 1331 -91 
L 4250 4750 
z
M 1428 4750 
Q 1922 4750 2215 4408 
Q 2509 4066 2509 3481 
Q 2509 2891 2217 2550 
Q 1925 2209 1428 2209 
Q 931 2209 642 2551 
Q 353 2894 353 3481 
Q 353 4063 643 4406 
Q 934 4750 1428 4750 
z
" transform="scale(0.015625)"/>
     </defs>
     <use xlink:href="#DejaVuSans-38"/>
     <use xlink:href="#DejaVuSans-25" transform="translate(63.623047 0)"/>
    </g>
    <!-- Keine Zustimmung -->
    <g transform="translate(519.662253 64.861051) scale(0.08 -0.08)">
     <defs>
      <path id="DejaVuSans-4b" d="M 628 4666 
L 1259 4666 
L 1259 2694 
L 3353 4666 
L 4166 4666 
L 1850 2491 
L 4331 0 
L 3500 0 
L 1259 2247 
L 1259 0 
L 628 0 
L 628 4666 
z
" transform="scale(0.015625)"/>
      <path id="DejaVuSans-65" d="M 3597 1894 
L 3597 1613 
L 953 1613 
Q 991 1019 1311 708 
Q 1631 397 2203 397 
Q 2534 397 2845 478 
Q 3156 559 3463 722 
L 3463 178 
Q 3153 47 2828 -22 
Q 2503 -91 2169 -91 
Q 1331 -91 842 396 
Q 353 884 353 1716 
Q 353 2575 817 3079 
Q 1281 3584 2069 3584 
Q 2775 3584 3186 3129 
Q 3597 2675 3597 1894 
z
M 3022 2063 
Q 3016 2534 2758 2815 
Q 2500 3097 2075 3097 
Q 1594 3097 1305 2825 
Q 1016 2553 972 2059 
L 3022 2063 
z
" transform="scale(0.015625)"/>
      <path id="DejaVuSans-69" d="M 603 3500 
L 1178 3500 
L 1178 0 
L 603 0 
L 603 3500 
z
M 603 4863 
L 1178 4863 
L 1178 4134 
L 603 4134 
L 603 4863 
z
" transform="scale(0.015625)"/>
      <path id="DejaVuSans-6e" d="M 3513 2113 
L 3513 0 
L 2938 0 
L 2938 2094 
Q 2938 2591 2744 2837 
Q 2550 3084 2163 3084 
Q 1697 3084 1428 2787 
Q 1159 2491 1159 1978 
L 1159 0 
L 581 0 
L 581 3500 
L 1159 3500 
L 1159 2956 
Q 1366 3272 1645 3428 
Q 1925 3584 2291 3584 
Q 2894 3584 3203 3211 
Q 3513 2838 3513 2113 
z
" transform="scale(0.015625)"/>
      <path id="DejaVuSans-20" transform="scale(0.015625)"/>
      <path id="DejaVuSans-5a" d="M 359 4666 
L 4025 4666 
L 4025 4184 
L 1075 531 
L 4097 531 
L 4097 0 
L 288 0 
L 288 481 
L 3238 4134 
L 359 4134 
L 359 4666 
z
" transform="scale(0.015625)"/>
      <path id="DejaVuSans-75" d="M 544 1381 
L 544 3500 
L 1119 3500 
L 1119 1403 
Q 1119 906 1312 657 
Q 1506 409 1894 409 
Q 2359 409 2629 706 
Q 2900 1003 2900 1516 
L 2900 3500 
L 3475 3500 
L 3475 0 
L 2900 0 
L 2900 538 
Q 2691 219 2414 64 
Q 2138 -91 1772 -91 
Q 1169 -91 856 284 
Q 544 659 544 1381 
z
M 1991 3584 
L 1991 3584 
z
" transform="scale(0.015625)"/>
      <path id="DejaVuSans-73" d="M 2834 3397 
L 2834 2853 
Q 2591 2978 2328 3040 
Q 2066 3103 1784 3103 
Q 1356 3103 1142 2972 
Q 928 2841 928 2578 
Q 928 2378 1081 2264 
Q 1234 2150 1697 2047 
L 1894 2003 
Q 2506 1872 2764 1633 
Q 3022 1394 3022 966 
Q 3022 478 2636 193 
Q 2250 -91 1575 -91 
Q 1294 -91 989 -36 
Q 684 19 347 128 
L 347 722 
Q 666 556 975 473 
Q 1284 391 1588 391 
Q 1994 391 2212 530 
Q 2431 669 2431 922 
Q 2431 1156 2273 1281 
Q 2116 1406 1581 1522 
L 1381 1569 
Q 847 1681 609 1914 
Q 372 2147 372 2553 
Q 372 3047 722 3315 
Q 1072 3584 1716 3584 
Q 2034 3584 2315 3537 
Q 2597 3491 2834 3397 
z
" transform="scale(0.015625)"/>
      <path id="DejaVuSans-74" d="M 1172 4494 
L 1172 3500 
L 2356 3500 
L 2356 3053 
L 1172 3053 
L 1172 1153 
Q 1172 725 1289 603 
Q 1406 481 1766 481 
L 2356 481 
L 2356 0 
L 1766 0 
Q 1100 0 847 248 
Q 594 497 594 1153 
L 594 3053 
L 172 3053 
L 172 3500 
L 594 3500 
L 594 4494 
L 1172 4494 
z
" transform="scale(0.015625)"/>
      <path id="DejaVuSans-6d" d="M 3328 2828 
Q 3544 3216 3844 3400 
Q 4144 3584 4550 3584 
Q 5097 3584 5394 3201 
Q 5691 2819 5691 2113 
L 5691 0 
L 5113 0 
L 5113 2094 
Q 5113 2597 4934 2840 
Q 4756 3084 4391 3084 
Q 3944 3084 3684 2787 
Q 3425 2491 3425 1978 
L 3425 0 
L 2847 0 
L 2847 2094 
Q 2847 2600 2669 2842 
Q 2491 3084 2119 3084 
Q 1678 3084 1418 2786 
Q 1159 2488 1159 1978 
L 1159 0 
L 581 0 
L 581 3500 
L 1159 3500 
L 1159 2956 
Q 1356 3278 1631 3431 
Q 1906 3584 2284 3584 
Q 2666 3584 2933 3390 
Q 3200 3197 3328 2828 
z
" transform="scale(0.015625)"/>
      <path id="DejaVuSans-67" d="M 2906 1791 
Q 2906 2416 2648 2759 
Q 2391 3103 1925 3103 
Q 1463 3103 1205 2759 
Q 947 2416 947 1791 
Q 947 1169 1205 825 
Q 1463 481 1925 481 
Q 2391 481 2648 825 
Q 2906 1169 2906 1791 
z
M 3481 434 
Q 3481 -459 3084 -895 
Q 2688 -1331 1869 -1331 
Q 1566 -1331 1297 -1286 
Q 1028 -1241 775 -1147 
L 775 -588 
Q 1028 -725 1275 -790 
Q 1522 -856 1778 -856 
Q 2344 -856 2625 -561 
Q 2906 -266 2906 331 
L 2906 616 
Q 2728 306 2450 153 
Q 2172 0 1784 0 
Q 1141 0 747 490 
Q 353 981 353 1791 
Q 353 2603 747 3093 
Q 1141 3584 1784 3584 
Q 2172 3584 2450 3431 
Q 2728 3278 2906 2969 
L 2906 3500 
L 3481 3500 
L 3481 434 
z
" transform="scale(0.015625)"/>
     </defs>
     <use xlink:href="#DejaVuSans-4b"/>
     <use xlink:href="#DejaVuSans-65" transform="translate(60.576172 0)"/>
     <use xlink:href="#DejaVuSans-69" transform="translate(122.099609 0)"/>
     <use xlink:href="#DejaVuSans-6e" transform="translate(149.882812 0)"/>
     <use xlink:href="#DejaVuSans-65" transform="translate(213.261719 0)"/>
     <use xlink:href="#DejaVuSans-20" transform="translate(274.785156 0)"/>
     <use xlink:href="#DejaVuSans-5a" transform="translate(306.572266 0)"/>
     <use xlink:href="#DejaVuSans-75" transform="translate(375.078125 0)"/>
     <use xlink:href="#DejaVuSans-73" transform="translate(438.457031 0)"/>
     <use xlink:href="#DejaVuSans-74" transform="translate(490.556641 0)"/>
     <use xlink:href="#DejaVuSans-69" transform="translate(529.765625 0)"/>
     <use xlink:href="#DejaVuSans-6d" transform="translate(557.548828 0)"/>
     <use xlink:href="#DejaVuSans-6d" transform="translate(654.960938 0)"/>
     <use xlink:href="#DejaVuSans-75" transform="translate(752.373047 0)"/>
     <use xlink:href="#DejaVuSans-6e" transform="translate(815.751953 0)"/>
     <use xlink:href="#DejaVuSans-67" transform="translate(879.130859 0)"/>
    </g>
   </g>
   <g id="text_2">
    <!-- 17% -->
    <g transform="translate(648.690738 149.047537) scale(0.08 -0.08)">
     <defs>
      <path id="DejaVuSans-31" d="M 794 531 
L 1825 531 
L 1825 4091 
L 703 3866 
L 703 4441 
L 1819 4666 
L 2450 4666 
L 2450 531 
L 3481 531 
L 3481 0 
L 794 0 
L 794 531 
z
" transform="scale(0.015625)"/>
      <path id="DejaVuSans-37" d="M 525 4666 
L 3525 4666 
L 3525 4397 
L 1831 0 
L 1172 0 
L 2766 4134 
L 525 4134 
L 525 4666 
z
" transform="scale(0.015625)"/>
     </defs>
     <use xlink:href="#DejaVuSans-31"/>
     <use xlink:href="#DejaVuSans-37" transform="translate(63.623047 0)"/>
     <use xlink:href="#DejaVuSans-25" transform="translate(127.246094 0)"/>
    </g>
    <!-- Geringe Zustimmung -->
    <g transform="translate(648.690738 158.005787) scale(0.08 -0.08)">
     <defs>
      <path id="DejaVuSans-47" d="M 3809 666 
L 3809 1919 
L 2778 1919 
L 2778 2438 
L 4434 2438 
L 4434 434 
Q 4069 175 3628 42 
Q 3188 -91 2688 -91 
Q 1594 -91 976 548 
Q 359 1188 359 2328 
Q 359 3472 976 4111 
Q 1594 4750 2688 4750 
Q 3144 4750 3555 4637 
Q 3966 4525 4313 4306 
L 4313 3634 
Q 3963 3931 3569 4081 
Q 3175 4231 2741 4231 
Q 1884 4231 1454 3753 
Q 1025 3275 1025 2328 
Q 1025 1384 1454 906 
Q 1884 428 2741 428 
Q 3075 428 3337 486 
Q 3600 544 3809 666 
z
" transform="scale(0.015625)"/>
      <path id="DejaVuSans-72" d="M 2631 2963 
Q 2534 3019 2420 3045 
Q 2306 3072 2169 3072 
Q 1681 3072 1420 2755 
Q 1159 2438 1159 1844 
L 1159 0 
L 581 0 
L 581 3500 
L 1159 3500 
L 1159 2956 
Q 1341 3275 1631 3429 
Q 1922 3584 2338 3584 
Q 2397 3584 2469 3576 
Q 2541 3569 2628 3553 
L 2631 2963 
z
" transform="scale(0.015625)"/>
     </defs>
     <use xlink:href="#DejaVuSans-47"/>
     <use xlink:href="#DejaVuSans-65" transform="translate(77.490234 0)"/>
     <use xlink:href="#DejaVuSans-72" transform="translate(139.013672 0)"/>
     <use xlink:href="#DejaVuSans-69" transform="translate(180.126953 0)"/>
     <use xlink:href="#DejaVuSans-6e" transform="translate(207.910156 0)"/>
     <use xlink:href="#DejaVuSans-67" transform="translate(271.289062 0)"/>
     <use xlink:href="#DejaVuSans-65" transform="translate(334.765625 0)"/>
     <use xlink:href="#DejaVuSans-20" transform="translate(396.289062 0)"/>
     <use xlink:href="#DejaVuSans-5a" transform="translate(428.076172 0)"/>
     <use xlink:href="#DejaVuSans-75" transform="translate(496.582031 0)"/>
     <use xlink:href="#DejaVuSans-73" transform="translate(559.960938 0)"/>
     <use xlink:href="#DejaVuSans-74" transform="translate(612.060547 0)"/>
     <use xlink:href="#DejaVuSans-69" transform="translate(651.269531 0)"/>
     <use xlink:href="#DejaVuSans-6d" transform="translate(679.052734 0)"/>
     <use xlink:href="#DejaVuSans-6d" transform="translate(776.464844 0)"/>
     <use xlink:href="#DejaVuSans-75" transform="translate(873.876953 0)"/>
     <use xlink:href="#DejaVuSans-6e" transform="translate(937.255859 0)"/>
     <use xlink:href="#DejaVuSans-67" transform="translate(1000.634766 0)"/>
    </g>
   </g>
   <g id="text_3">
    <!-- 19% -->
    <g transform="translate(648.690738 377.769213) scale(0.08 -0.08)">
     <defs>
      <path id="DejaVuSans-39" d="M 703 97 
L 703 672 
Q 941 559 1184 500 
Q 1428 441 1663 441 
Q 2288 441 2617 861 
Q 2947 1281 2994 2138 
Q 2813 1869 2534 1725 
Q 2256 1581 1919 1581 
Q 1219 1581 811 2004 
Q 403 2428 403 3163 
Q 403 3881 828 4315 
Q 1253 4750 1959 4750 
Q 2769 4750 3195 4129 
Q 3622 3509 3622 2328 
Q 3622 1225 3098 567 
Q 2575 -91 1691 -91 
Q 1453 -91 1209 -44 
Q 966 3 703 97 
z
M 1959 2075 
Q 2384 2075 2632 2365 
Q 2881 2656 2881 3163 
Q 2881 3666 2632 3958 
Q 2384 4250 1959 4250 
Q 1534 4250 1286 3958 
Q 1038 3666 1038 3163 
Q 1038 2656 1286 2365 
Q 1534 2075 1959 2075 
z
" transform="scale(0.015625)"/>
     </defs>
     <use xlink:href="#DejaVuSans-31"/>
     <use xlink:href="#DejaVuSans-39" transform="translate(63.623047 0)"/>
     <use xlink:href="#DejaVuSans-25" transform="translate(127.246094 0)"/>
    </g>
    <!-- Teilweise Zustimmung -->
    <g transform="translate(648.690738 386.727463) scale(0.08 -0.08)">
     <defs>
      <path id="DejaVuSans-54" d="M -19 4666 
L 3928 4666 
L 3928 4134 
L 2272 4134 
L 2272 0 
L 1638 0 
L 1638 4134 
L -19 4134 
L -19 4666 
z
" transform="scale(0.015625)"/>
      <path id="DejaVuSans-6c" d="M 603 4863 
L 1178 4863 
L 1178 0 
L 603 0 
L 603 4863 
z
" transform="scale(0.015625)"/>
      <path id="DejaVuSans-77" d="M 269 3500 
L 844 3500 
L 1563 769 
L 2278 3500 
L 2956 3500 
L 3675 769 
L 4391 3500 
L 4966 3500 
L 4050 0 
L 3372 0 
L 2619 2869 
L 1863 0 
L 1184 0 
L 269 3500 
z
" transform="scale(0.015625)"/>
     </defs>
     <use xlink:href="#DejaVuSans-54"/>
     <use xlink:href="#DejaVuSans-65" transform="translate(44.083984 0)"/>
     <use xlink:href="#DejaVuSans-69" transform="translate(105.607422 0)"/>
     <use xlink:href="#DejaVuSans-6c" transform="translate(133.390625 0)"/>
     <use xlink:href="#DejaVuSans-77" transform="translate(161.173828 0)"/>
     <use xlink:href="#DejaVuSans-65" transform="translate(242.960938 0)"/>
     <use xlink:href="#DejaVuSans-69" transform="translate(304.484375 0)"/>
     <use xlink:href="#DejaVuSans-73" transform="translate(332.267578 0)"/>
     <use xlink:href="#DejaVuSans-65" transform="translate(384.367188 0)"/>
     <use xlink:href="#DejaVuSans-20" transform="translate(445.890625 0)"/>
     <use xlink:href="#DejaVuSans-5a" transform="translate(477.677734 0)"/>
     <use xlink:href="#DejaVuSans-75" transform="translate(546.183594 0)"/>
     <use xlink:href="#DejaVuSans-73" transform="translate(609.5625 0)"/>
     <use xlink:href="#DejaVuSans-74" transform="translate(661.662109 0)"/>
     <use xlink:href="#DejaVuSans-69" transform="translate(700.871094 0)"/>
     <use xlink:href="#DejaVuSans-6d" transform="translate(728.654297 0)"/>
     <use xlink:href="#DejaVuSans-6d" transform="translate(826.066406 0)"/>
     <use xlink:href="#DejaVuSans-75" transform="translate(923.478516 0)"/>
     <use xlink:href="#DejaVuSans-6e" transform="translate(986.857422 0)"/>
     <use xlink:href="#DejaVuSans-67" transform="translate(1050.236328 0)"/>
    </g>
   </g>
   <g id="text_4">
    <!-- 15% -->
    <g transform="translate(437.182209 476.850623) scale(0.08 -0.08)">
     <defs>
      <path id="DejaVuSans-35" d="M 691 4666 
L 3169 4666 
L 3169 4134 
L 1269 4134 
L 1269 2991 
Q 1406 3038 1543 3061 
Q 1681 3084 1819 3084 
Q 2600 3084 3056 2656 
Q 3513 2228 3513 1497 
Q 3513 744 3044 326 
Q 2575 -91 1722 -91 
Q 1428 -91 1123 -41 
Q 819 9 494 109 
L 494 744 
Q 775 591 1075 516 
Q 1375 441 1709 441 
Q 2250 441 2565 725 
Q 2881 1009 2881 1497 
Q 2881 1984 2565 2268 
Q 2250 2553 1709 2553 
Q 1456 2553 1204 2497 
Q 953 2441 691 2322 
L 691 4666 
z
" transform="scale(0.015625)"/>
     </defs>
     <use xlink:href="#DejaVuSans-31"/>
     <use xlink:href="#DejaVuSans-35" transform="translate(63.623047 0)"/>
     <use xlink:href="#DejaVuSans-25" transform="translate(127.246094 0)"/>
    </g>
    <!-- Hohe Zustimmung -->
    <g transform="translate(380.637209 485.808873) scale(0.08 -0.08)">
     <defs>
      <path id="DejaVuSans-48" d="M 628 4666 
L 1259 4666 
L 1259 2753 
L 3553 2753 
L 3553 4666 
L 4184 4666 
L 4184 0 
L 3553 0 
L 3553 2222 
L 1259 2222 
L 1259 0 
L 628 0 
L 628 4666 
z
" transform="scale(0.015625)"/>
      <path id="DejaVuSans-6f" d="M 1959 3097 
Q 1497 3097 1228 2736 
Q 959 2375 959 1747 
Q 959 1119 1226 758 
Q 1494 397 1959 397 
Q 2419 397 2687 759 
Q 2956 1122 2956 1747 
Q 2956 2369 2687 2733 
Q 2419 3097 1959 3097 
z
M 1959 3584 
Q 2709 3584 3137 3096 
Q 3566 2609 3566 1747 
Q 3566 888 3137 398 
Q 2709 -91 1959 -91 
Q 1206 -91 779 398 
Q 353 888 353 1747 
Q 353 2609 779 3096 
Q 1206 3584 1959 3584 
z
" transform="scale(0.015625)"/>
      <path id="DejaVuSans-68" d="M 3513 2113 
L 3513 0 
L 2938 0 
L 2938 2094 
Q 2938 2591 2744 2837 
Q 2550 3084 2163 3084 
Q 1697 3084 1428 2787 
Q 1159 2491 1159 1978 
L 1159 0 
L 581 0 
L 581 4863 
L 1159 4863 
L 1159 2956 
Q 1366 3272 1645 3428 
Q 1925 3584 2291 3584 
Q 2894 3584 3203 3211 
Q 3513 2838 3513 2113 
z
" transform="scale(0.015625)"/>
     </defs>
     <use xlink:href="#DejaVuSans-48"/>
     <use xlink:href="#DejaVuSans-6f" transform="translate(75.195312 0)"/>
     <use xlink:href="#DejaVuSans-68" transform="translate(136.376953 0)"/>
     <use xlink:href="#DejaVuSans-65" transform="translate(199.755859 0)"/>
     <use xlink:href="#DejaVuSans-20" transform="translate(261.279297 0)"/>
     <use xlink:href="#DejaVuSans-5a" transform="translate(293.066406 0)"/>
     <use xlink:href="#DejaVuSans-75" transform="translate(361.572266 0)"/>
     <use xlink:href="#DejaVuSans-73" transform="translate(424.951172 0)"/>
     <use xlink:href="#DejaVuSans-74" transform="translate(477.050781 0)"/>
     <use xlink:href="#DejaVuSans-69" transform="translate(516.259766 0)"/>
     <use xlink:href="#DejaVuSans-6d" transform="translate(544.042969 0)"/>
     <use xlink:href="#DejaVuSans-6d" transform="translate(641.455078 0)"/>
     <use xlink:href="#DejaVuSans-75" transform="translate(738.867188 0)"/>
     <use xlink:href="#DejaVuSans-6e" transform="translate(802.246094 0)"/>
     <use xlink:href="#DejaVuSans-67" transform="translate(865.625 0)"/>
    </g>
   </g>
   <g id="text_5">
    <!-- 1% -->
    <g transform="translate(343.71672 445.822108) scale(0.08 -0.08)">
     <use xlink:href="#DejaVuSans-31"/>
     <use xlink:href="#DejaVuSans-25" transform="translate(63.623047 0)"/>
    </g>
    <!-- Sehr hohe Zustimmung -->
    <g transform="translate(262.12547 454.780358) scale(0.08 -0.08)">
     <defs>
      <path id="DejaVuSans-53" d="M 3425 4513 
L 3425 3897 
Q 3066 4069 2747 4153 
Q 2428 4238 2131 4238 
Q 1616 4238 1336 4038 
Q 1056 3838 1056 3469 
Q 1056 3159 1242 3001 
Q 1428 2844 1947 2747 
L 2328 2669 
Q 3034 2534 3370 2195 
Q 3706 1856 3706 1288 
Q 3706 609 3251 259 
Q 2797 -91 1919 -91 
Q 1588 -91 1214 -16 
Q 841 59 441 206 
L 441 856 
Q 825 641 1194 531 
Q 1563 422 1919 422 
Q 2459 422 2753 634 
Q 3047 847 3047 1241 
Q 3047 1584 2836 1778 
Q 2625 1972 2144 2069 
L 1759 2144 
Q 1053 2284 737 2584 
Q 422 2884 422 3419 
Q 422 4038 858 4394 
Q 1294 4750 2059 4750 
Q 2388 4750 2728 4690 
Q 3069 4631 3425 4513 
z
" transform="scale(0.015625)"/>
     </defs>
     <use xlink:href="#DejaVuSans-53"/>
     <use xlink:href="#DejaVuSans-65" transform="translate(63.476562 0)"/>
     <use xlink:href="#DejaVuSans-68" transform="translate(125 0)"/>
     <use xlink:href="#DejaVuSans-72" transform="translate(188.378906 0)"/>
     <use xlink:href="#DejaVuSans-20" transform="translate(229.492188 0)"/>
     <use xlink:href="#DejaVuSans-68" transform="translate(261.279297 0)"/>
     <use xlink:href="#DejaVuSans-6f" transform="translate(324.658203 0)"/>
     <use xlink:href="#DejaVuSans-68" transform="translate(385.839844 0)"/>
     <use xlink:href="#DejaVuSans-65" transform="translate(449.21875 0)"/>
     <use xlink:href="#DejaVuSans-20" transform="translate(510.742188 0)"/>
     <use xlink:href="#DejaVuSans-5a" transform="translate(542.529297 0)"/>
     <use xlink:href="#DejaVuSans-75" transform="translate(611.035156 0)"/>
     <use xlink:href="#DejaVuSans-73" transform="translate(674.414062 0)"/>
     <use xlink:href="#DejaVuSans-74" transform="translate(726.513672 0)"/>
     <use xlink:href="#DejaVuSans-69" transform="translate(765.722656 0)"/>
     <use xlink:href="#DejaVuSans-6d" transform="translate(793.505859 0)"/>
     <use xlink:href="#DejaVuSans-6d" transform="translate(890.917969 0)"/>
     <use xlink:href="#DejaVuSans-75" transform="translate(988.330078 0)"/>
     <use xlink:href="#DejaVuSans-6e" transform="translate(1051.708984 0)"/>
     <use xlink:href="#DejaVuSans-67" transform="translate(1115.087891 0)"/>
    </g>
   </g>
   <g id="text_6">
    <!-- 41% -->
    <g transform="translate(245.293121 202.309834) scale(0.08 -0.08)">
     <defs>
      <path id="DejaVuSans-34" d="M 2419 4116 
L 825 1625 
L 2419 1625 
L 2419 4116 
z
M 2253 4666 
L 3047 4666 
L 3047 1625 
L 3713 1625 
L 3713 1100 
L 3047 1100 
L 3047 0 
L 2419 0 
L 2419 1100 
L 313 1100 
L 313 1709 
L 2253 4666 
z
" transform="scale(0.015625)"/>
     </defs>
     <use xlink:href="#DejaVuSans-34"/>
     <use xlink:href="#DejaVuSans-31" transform="translate(63.623047 0)"/>
     <use xlink:href="#DejaVuSans-25" transform="translate(127.246094 0)"/>
    </g>
    <!-- Keine Antwort -->
    <g transform="translate(207.006871 211.268084) scale(0.08 -0.08)">
     <defs>
      <path id="DejaVuSans-41" d="M 2188 4044 
L 1331 1722 
L 3047 1722 
L 2188 4044 
z
M 1831 4666 
L 2547 4666 
L 4325 0 
L 3669 0 
L 3244 1197 
L 1141 1197 
L 716 0 
L 50 0 
L 1831 4666 
z
" transform="scale(0.015625)"/>
     </defs>
     <use xlink:href="#DejaVuSans-4b"/>
     <use xlink:href="#DejaVuSans-65" transform="translate(60.576172 0)"/>
     <use xlink:href="#DejaVuSans-69" transform="translate(122.099609 0)"/>
     <use xlink:href="#DejaVuSans-6e" transform="translate(149.882812 0)"/>
     <use xlink:href="#DejaVuSans-65" transform="translate(213.261719 0)"/>
     <use xlink:href="#DejaVuSans-20" transform="translate(274.785156 0)"/>
     <use xlink:href="#DejaVuSans-41" transform="translate(306.572266 0)"/>
     <use xlink:href="#DejaVuSans-6e" transform="translate(374.980469 0)"/>
     <use xlink:href="#DejaVuSans-74" transform="translate(438.359375 0)"/>
     <use xlink:href="#DejaVuSans-77" transform="translate(477.568359 0)"/>
     <use xlink:href="#DejaVuSans-6f" transform="translate(559.355469 0)"/>
     <use xlink:href="#DejaVuSans-72" transform="translate(620.537109 0)"/>
     <use xlink:href="#DejaVuSans-74" transform="translate(661.650391 0)"/>
    </g>
   </g>
  </g>
  <g id="text_7">
   <!-- "Die steigende Nachfrage nach Recyclingmaterialien verursacht kurzfristige Engpässe und Preissteigerungen auf den Sekundärrohstoffmärkten." -->
   <g transform="translate(31.835625 22.078125) scale(0.12 -0.12)">
    <defs>
     <path id="DejaVuSans-22" d="M 1147 4666 
L 1147 2931 
L 616 2931 
L 616 4666 
L 1147 4666 
z
M 2328 4666 
L 2328 2931 
L 1797 2931 
L 1797 4666 
L 2328 4666 
z
" transform="scale(0.015625)"/>
     <path id="DejaVuSans-44" d="M 1259 4147 
L 1259 519 
L 2022 519 
Q 2988 519 3436 956 
Q 3884 1394 3884 2338 
Q 3884 3275 3436 3711 
Q 2988 4147 2022 4147 
L 1259 4147 
z
M 628 4666 
L 1925 4666 
Q 3281 4666 3915 4102 
Q 4550 3538 4550 2338 
Q 4550 1131 3912 565 
Q 3275 0 1925 0 
L 628 0 
L 628 4666 
z
" transform="scale(0.015625)"/>
     <path id="DejaVuSans-64" d="M 2906 2969 
L 2906 4863 
L 3481 4863 
L 3481 0 
L 2906 0 
L 2906 525 
Q 2725 213 2448 61 
Q 2172 -91 1784 -91 
Q 1150 -91 751 415 
Q 353 922 353 1747 
Q 353 2572 751 3078 
Q 1150 3584 1784 3584 
Q 2172 3584 2448 3432 
Q 2725 3281 2906 2969 
z
M 947 1747 
Q 947 1113 1208 752 
Q 1469 391 1925 391 
Q 2381 391 2643 752 
Q 2906 1113 2906 1747 
Q 2906 2381 2643 2742 
Q 2381 3103 1925 3103 
Q 1469 3103 1208 2742 
Q 947 2381 947 1747 
z
" transform="scale(0.015625)"/>
     <path id="DejaVuSans-4e" d="M 628 4666 
L 1478 4666 
L 3547 763 
L 3547 4666 
L 4159 4666 
L 4159 0 
L 3309 0 
L 1241 3903 
L 1241 0 
L 628 0 
L 628 4666 
z
" transform="scale(0.015625)"/>
     <path id="DejaVuSans-61" d="M 2194 1759 
Q 1497 1759 1228 1600 
Q 959 1441 959 1056 
Q 959 750 1161 570 
Q 1363 391 1709 391 
Q 2188 391 2477 730 
Q 2766 1069 2766 1631 
L 2766 1759 
L 2194 1759 
z
M 3341 1997 
L 3341 0 
L 2766 0 
L 2766 531 
Q 2569 213 2275 61 
Q 1981 -91 1556 -91 
Q 1019 -91 701 211 
Q 384 513 384 1019 
Q 384 1609 779 1909 
Q 1175 2209 1959 2209 
L 2766 2209 
L 2766 2266 
Q 2766 2663 2505 2880 
Q 2244 3097 1772 3097 
Q 1472 3097 1187 3025 
Q 903 2953 641 2809 
L 641 3341 
Q 956 3463 1253 3523 
Q 1550 3584 1831 3584 
Q 2591 3584 2966 3190 
Q 3341 2797 3341 1997 
z
" transform="scale(0.015625)"/>
     <path id="DejaVuSans-63" d="M 3122 3366 
L 3122 2828 
Q 2878 2963 2633 3030 
Q 2388 3097 2138 3097 
Q 1578 3097 1268 2742 
Q 959 2388 959 1747 
Q 959 1106 1268 751 
Q 1578 397 2138 397 
Q 2388 397 2633 464 
Q 2878 531 3122 666 
L 3122 134 
Q 2881 22 2623 -34 
Q 2366 -91 2075 -91 
Q 1284 -91 818 406 
Q 353 903 353 1747 
Q 353 2603 823 3093 
Q 1294 3584 2113 3584 
Q 2378 3584 2631 3529 
Q 2884 3475 3122 3366 
z
" transform="scale(0.015625)"/>
     <path id="DejaVuSans-66" d="M 2375 4863 
L 2375 4384 
L 1825 4384 
Q 1516 4384 1395 4259 
Q 1275 4134 1275 3809 
L 1275 3500 
L 2222 3500 
L 2222 3053 
L 1275 3053 
L 1275 0 
L 697 0 
L 697 3053 
L 147 3053 
L 147 3500 
L 697 3500 
L 697 3744 
Q 697 4328 969 4595 
Q 1241 4863 1831 4863 
L 2375 4863 
z
" transform="scale(0.015625)"/>
     <path id="DejaVuSans-52" d="M 2841 2188 
Q 3044 2119 3236 1894 
Q 3428 1669 3622 1275 
L 4263 0 
L 3584 0 
L 2988 1197 
Q 2756 1666 2539 1819 
Q 2322 1972 1947 1972 
L 1259 1972 
L 1259 0 
L 628 0 
L 628 4666 
L 2053 4666 
Q 2853 4666 3247 4331 
Q 3641 3997 3641 3322 
Q 3641 2881 3436 2590 
Q 3231 2300 2841 2188 
z
M 1259 4147 
L 1259 2491 
L 2053 2491 
Q 2509 2491 2742 2702 
Q 2975 2913 2975 3322 
Q 2975 3731 2742 3939 
Q 2509 4147 2053 4147 
L 1259 4147 
z
" transform="scale(0.015625)"/>
     <path id="DejaVuSans-79" d="M 2059 -325 
Q 1816 -950 1584 -1140 
Q 1353 -1331 966 -1331 
L 506 -1331 
L 506 -850 
L 844 -850 
Q 1081 -850 1212 -737 
Q 1344 -625 1503 -206 
L 1606 56 
L 191 3500 
L 800 3500 
L 1894 763 
L 2988 3500 
L 3597 3500 
L 2059 -325 
z
" transform="scale(0.015625)"/>
     <path id="DejaVuSans-76" d="M 191 3500 
L 800 3500 
L 1894 563 
L 2988 3500 
L 3597 3500 
L 2284 0 
L 1503 0 
L 191 3500 
z
" transform="scale(0.015625)"/>
     <path id="DejaVuSans-6b" d="M 581 4863 
L 1159 4863 
L 1159 1991 
L 2875 3500 
L 3609 3500 
L 1753 1863 
L 3688 0 
L 2938 0 
L 1159 1709 
L 1159 0 
L 581 0 
L 581 4863 
z
" transform="scale(0.015625)"/>
     <path id="DejaVuSans-7a" d="M 353 3500 
L 3084 3500 
L 3084 2975 
L 922 459 
L 3084 459 
L 3084 0 
L 275 0 
L 275 525 
L 2438 3041 
L 353 3041 
L 353 3500 
z
" transform="scale(0.015625)"/>
     <path id="DejaVuSans-45" d="M 628 4666 
L 3578 4666 
L 3578 4134 
L 1259 4134 
L 1259 2753 
L 3481 2753 
L 3481 2222 
L 1259 2222 
L 1259 531 
L 3634 531 
L 3634 0 
L 628 0 
L 628 4666 
z
" transform="scale(0.015625)"/>
     <path id="DejaVuSans-70" d="M 1159 525 
L 1159 -1331 
L 581 -1331 
L 581 3500 
L 1159 3500 
L 1159 2969 
Q 1341 3281 1617 3432 
Q 1894 3584 2278 3584 
Q 2916 3584 3314 3078 
Q 3713 2572 3713 1747 
Q 3713 922 3314 415 
Q 2916 -91 2278 -91 
Q 1894 -91 1617 61 
Q 1341 213 1159 525 
z
M 3116 1747 
Q 3116 2381 2855 2742 
Q 2594 3103 2138 3103 
Q 1681 3103 1420 2742 
Q 1159 2381 1159 1747 
Q 1159 1113 1420 752 
Q 1681 391 2138 391 
Q 2594 391 2855 752 
Q 3116 1113 3116 1747 
z
" transform="scale(0.015625)"/>
     <path id="DejaVuSans-e4" d="M 2194 1759 
Q 1497 1759 1228 1600 
Q 959 1441 959 1056 
Q 959 750 1161 570 
Q 1363 391 1709 391 
Q 2188 391 2477 730 
Q 2766 1069 2766 1631 
L 2766 1759 
L 2194 1759 
z
M 3341 1997 
L 3341 0 
L 2766 0 
L 2766 531 
Q 2569 213 2275 61 
Q 1981 -91 1556 -91 
Q 1019 -91 701 211 
Q 384 513 384 1019 
Q 384 1609 779 1909 
Q 1175 2209 1959 2209 
L 2766 2209 
L 2766 2266 
Q 2766 2663 2505 2880 
Q 2244 3097 1772 3097 
Q 1472 3097 1187 3025 
Q 903 2953 641 2809 
L 641 3341 
Q 956 3463 1253 3523 
Q 1550 3584 1831 3584 
Q 2591 3584 2966 3190 
Q 3341 2797 3341 1997 
z
M 2150 4850 
L 2784 4850 
L 2784 4219 
L 2150 4219 
L 2150 4850 
z
M 928 4850 
L 1562 4850 
L 1562 4219 
L 928 4219 
L 928 4850 
z
" transform="scale(0.015625)"/>
     <path id="DejaVuSans-50" d="M 1259 4147 
L 1259 2394 
L 2053 2394 
Q 2494 2394 2734 2622 
Q 2975 2850 2975 3272 
Q 2975 3691 2734 3919 
Q 2494 4147 2053 4147 
L 1259 4147 
z
M 628 4666 
L 2053 4666 
Q 2838 4666 3239 4311 
Q 3641 3956 3641 3272 
Q 3641 2581 3239 2228 
Q 2838 1875 2053 1875 
L 1259 1875 
L 1259 0 
L 628 0 
L 628 4666 
z
" transform="scale(0.015625)"/>
     <path id="DejaVuSans-2e" d="M 684 794 
L 1344 794 
L 1344 0 
L 684 0 
L 684 794 
z
" transform="scale(0.015625)"/>
    </defs>
    <use xlink:href="#DejaVuSans-22"/>
    <use xlink:href="#DejaVuSans-44" transform="translate(45.996094 0)"/>
    <use xlink:href="#DejaVuSans-69" transform="translate(122.998047 0)"/>
    <use xlink:href="#DejaVuSans-65" transform="translate(150.78125 0)"/>
    <use xlink:href="#DejaVuSans-20" transform="translate(212.304688 0)"/>
    <use xlink:href="#DejaVuSans-73" transform="translate(244.091797 0)"/>
    <use xlink:href="#DejaVuSans-74" transform="translate(296.191406 0)"/>
    <use xlink:href="#DejaVuSans-65" transform="translate(335.400391 0)"/>
    <use xlink:href="#DejaVuSans-69" transform="translate(396.923828 0)"/>
    <use xlink:href="#DejaVuSans-67" transform="translate(424.707031 0)"/>
    <use xlink:href="#DejaVuSans-65" transform="translate(488.183594 0)"/>
    <use xlink:href="#DejaVuSans-6e" transform="translate(549.707031 0)"/>
    <use xlink:href="#DejaVuSans-64" transform="translate(613.085938 0)"/>
    <use xlink:href="#DejaVuSans-65" transform="translate(676.5625 0)"/>
    <use xlink:href="#DejaVuSans-20" transform="translate(738.085938 0)"/>
    <use xlink:href="#DejaVuSans-4e" transform="translate(769.873047 0)"/>
    <use xlink:href="#DejaVuSans-61" transform="translate(844.677734 0)"/>
    <use xlink:href="#DejaVuSans-63" transform="translate(905.957031 0)"/>
    <use xlink:href="#DejaVuSans-68" transform="translate(960.9375 0)"/>
    <use xlink:href="#DejaVuSans-66" transform="translate(1024.316406 0)"/>
    <use xlink:href="#DejaVuSans-72" transform="translate(1059.521484 0)"/>
    <use xlink:href="#DejaVuSans-61" transform="translate(1100.634766 0)"/>
    <use xlink:href="#DejaVuSans-67" transform="translate(1161.914062 0)"/>
    <use xlink:href="#DejaVuSans-65" transform="translate(1225.390625 0)"/>
    <use xlink:href="#DejaVuSans-20" transform="translate(1286.914062 0)"/>
    <use xlink:href="#DejaVuSans-6e" transform="translate(1318.701172 0)"/>
    <use xlink:href="#DejaVuSans-61" transform="translate(1382.080078 0)"/>
    <use xlink:href="#DejaVuSans-63" transform="translate(1443.359375 0)"/>
    <use xlink:href="#DejaVuSans-68" transform="translate(1498.339844 0)"/>
    <use xlink:href="#DejaVuSans-20" transform="translate(1561.71875 0)"/>
    <use xlink:href="#DejaVuSans-52" transform="translate(1593.505859 0)"/>
    <use xlink:href="#DejaVuSans-65" transform="translate(1658.488281 0)"/>
    <use xlink:href="#DejaVuSans-63" transform="translate(1720.011719 0)"/>
    <use xlink:href="#DejaVuSans-79" transform="translate(1774.992188 0)"/>
    <use xlink:href="#DejaVuSans-63" transform="translate(1834.171875 0)"/>
    <use xlink:href="#DejaVuSans-6c" transform="translate(1889.152344 0)"/>
    <use xlink:href="#DejaVuSans-69" transform="translate(1916.935547 0)"/>
    <use xlink:href="#DejaVuSans-6e" transform="translate(1944.71875 0)"/>
    <use xlink:href="#DejaVuSans-67" transform="translate(2008.097656 0)"/>
    <use xlink:href="#DejaVuSans-6d" transform="translate(2071.574219 0)"/>
    <use xlink:href="#DejaVuSans-61" transform="translate(2168.986328 0)"/>
    <use xlink:href="#DejaVuSans-74" transform="translate(2230.265625 0)"/>
    <use xlink:href="#DejaVuSans-65" transform="translate(2269.474609 0)"/>
    <use xlink:href="#DejaVuSans-72" transform="translate(2330.998047 0)"/>
    <use xlink:href="#DejaVuSans-69" transform="translate(2372.111328 0)"/>
    <use xlink:href="#DejaVuSans-61" transform="translate(2399.894531 0)"/>
    <use xlink:href="#DejaVuSans-6c" transform="translate(2461.173828 0)"/>
    <use xlink:href="#DejaVuSans-69" transform="translate(2488.957031 0)"/>
    <use xlink:href="#DejaVuSans-65" transform="translate(2516.740234 0)"/>
    <use xlink:href="#DejaVuSans-6e" transform="translate(2578.263672 0)"/>
    <use xlink:href="#DejaVuSans-20" transform="translate(2641.642578 0)"/>
    <use xlink:href="#DejaVuSans-76" transform="translate(2673.429688 0)"/>
    <use xlink:href="#DejaVuSans-65" transform="translate(2732.609375 0)"/>
    <use xlink:href="#DejaVuSans-72" transform="translate(2794.132812 0)"/>
    <use xlink:href="#DejaVuSans-75" transform="translate(2835.246094 0)"/>
    <use xlink:href="#DejaVuSans-72" transform="translate(2898.625 0)"/>
    <use xlink:href="#DejaVuSans-73" transform="translate(2939.738281 0)"/>
    <use xlink:href="#DejaVuSans-61" transform="translate(2991.837891 0)"/>
    <use xlink:href="#DejaVuSans-63" transform="translate(3053.117188 0)"/>
    <use xlink:href="#DejaVuSans-68" transform="translate(3108.097656 0)"/>
    <use xlink:href="#DejaVuSans-74" transform="translate(3171.476562 0)"/>
    <use xlink:href="#DejaVuSans-20" transform="translate(3210.685547 0)"/>
    <use xlink:href="#DejaVuSans-6b" transform="translate(3242.472656 0)"/>
    <use xlink:href="#DejaVuSans-75" transform="translate(3297.257812 0)"/>
    <use xlink:href="#DejaVuSans-72" transform="translate(3360.636719 0)"/>
    <use xlink:href="#DejaVuSans-7a" transform="translate(3401.75 0)"/>
    <use xlink:href="#DejaVuSans-66" transform="translate(3454.240234 0)"/>
    <use xlink:href="#DejaVuSans-72" transform="translate(3489.445312 0)"/>
    <use xlink:href="#DejaVuSans-69" transform="translate(3530.558594 0)"/>
    <use xlink:href="#DejaVuSans-73" transform="translate(3558.341797 0)"/>
    <use xlink:href="#DejaVuSans-74" transform="translate(3610.441406 0)"/>
    <use xlink:href="#DejaVuSans-69" transform="translate(3649.650391 0)"/>
    <use xlink:href="#DejaVuSans-67" transform="translate(3677.433594 0)"/>
    <use xlink:href="#DejaVuSans-65" transform="translate(3740.910156 0)"/>
    <use xlink:href="#DejaVuSans-20" transform="translate(3802.433594 0)"/>
    <use xlink:href="#DejaVuSans-45" transform="translate(3834.220703 0)"/>
    <use xlink:href="#DejaVuSans-6e" transform="translate(3897.404297 0)"/>
    <use xlink:href="#DejaVuSans-67" transform="translate(3960.783203 0)"/>
    <use xlink:href="#DejaVuSans-70" transform="translate(4024.259766 0)"/>
    <use xlink:href="#DejaVuSans-e4" transform="translate(4087.736328 0)"/>
    <use xlink:href="#DejaVuSans-73" transform="translate(4149.015625 0)"/>
    <use xlink:href="#DejaVuSans-73" transform="translate(4201.115234 0)"/>
    <use xlink:href="#DejaVuSans-65" transform="translate(4253.214844 0)"/>
    <use xlink:href="#DejaVuSans-20" transform="translate(4314.738281 0)"/>
    <use xlink:href="#DejaVuSans-75" transform="translate(4346.525391 0)"/>
    <use xlink:href="#DejaVuSans-6e" transform="translate(4409.904297 0)"/>
    <use xlink:href="#DejaVuSans-64" transform="translate(4473.283203 0)"/>
    <use xlink:href="#DejaVuSans-20" transform="translate(4536.759766 0)"/>
    <use xlink:href="#DejaVuSans-50" transform="translate(4568.546875 0)"/>
    <use xlink:href="#DejaVuSans-72" transform="translate(4627.099609 0)"/>
    <use xlink:href="#DejaVuSans-65" transform="translate(4665.962891 0)"/>
    <use xlink:href="#DejaVuSans-69" transform="translate(4727.486328 0)"/>
    <use xlink:href="#DejaVuSans-73" transform="translate(4755.269531 0)"/>
    <use xlink:href="#DejaVuSans-73" transform="translate(4807.369141 0)"/>
    <use xlink:href="#DejaVuSans-74" transform="translate(4859.46875 0)"/>
    <use xlink:href="#DejaVuSans-65" transform="translate(4898.677734 0)"/>
    <use xlink:href="#DejaVuSans-69" transform="translate(4960.201172 0)"/>
    <use xlink:href="#DejaVuSans-67" transform="translate(4987.984375 0)"/>
    <use xlink:href="#DejaVuSans-65" transform="translate(5051.460938 0)"/>
    <use xlink:href="#DejaVuSans-72" transform="translate(5112.984375 0)"/>
    <use xlink:href="#DejaVuSans-75" transform="translate(5154.097656 0)"/>
    <use xlink:href="#DejaVuSans-6e" transform="translate(5217.476562 0)"/>
    <use xlink:href="#DejaVuSans-67" transform="translate(5280.855469 0)"/>
    <use xlink:href="#DejaVuSans-65" transform="translate(5344.332031 0)"/>
    <use xlink:href="#DejaVuSans-6e" transform="translate(5405.855469 0)"/>
    <use xlink:href="#DejaVuSans-20" transform="translate(5469.234375 0)"/>
    <use xlink:href="#DejaVuSans-61" transform="translate(5501.021484 0)"/>
    <use xlink:href="#DejaVuSans-75" transform="translate(5562.300781 0)"/>
    <use xlink:href="#DejaVuSans-66" transform="translate(5625.679688 0)"/>
    <use xlink:href="#DejaVuSans-20" transform="translate(5660.884766 0)"/>
    <use xlink:href="#DejaVuSans-64" transform="translate(5692.671875 0)"/>
    <use xlink:href="#DejaVuSans-65" transform="translate(5756.148438 0)"/>
    <use xlink:href="#DejaVuSans-6e" transform="translate(5817.671875 0)"/>
    <use xlink:href="#DejaVuSans-20" transform="translate(5881.050781 0)"/>
    <use xlink:href="#DejaVuSans-53" transform="translate(5912.837891 0)"/>
    <use xlink:href="#DejaVuSans-65" transform="translate(5976.314453 0)"/>
    <use xlink:href="#DejaVuSans-6b" transform="translate(6037.837891 0)"/>
    <use xlink:href="#DejaVuSans-75" transform="translate(6092.623047 0)"/>
    <use xlink:href="#DejaVuSans-6e" transform="translate(6156.001953 0)"/>
    <use xlink:href="#DejaVuSans-64" transform="translate(6219.380859 0)"/>
    <use xlink:href="#DejaVuSans-e4" transform="translate(6282.857422 0)"/>
    <use xlink:href="#DejaVuSans-72" transform="translate(6344.136719 0)"/>
    <use xlink:href="#DejaVuSans-72" transform="translate(6383.5 0)"/>
    <use xlink:href="#DejaVuSans-6f" transform="translate(6422.363281 0)"/>
    <use xlink:href="#DejaVuSans-68" transform="translate(6483.544922 0)"/>
    <use xlink:href="#DejaVuSans-73" transform="translate(6546.923828 0)"/>
    <use xlink:href="#DejaVuSans-74" transform="translate(6599.023438 0)"/>
    <use xlink:href="#DejaVuSans-6f" transform="translate(6638.232422 0)"/>
    <use xlink:href="#DejaVuSans-66" transform="translate(6699.414062 0)"/>
    <use xlink:href="#DejaVuSans-66" transform="translate(6734.619141 0)"/>
    <use xlink:href="#DejaVuSans-6d" transform="translate(6769.824219 0)"/>
    <use xlink:href="#DejaVuSans-e4" transform="translate(6867.236328 0)"/>
    <use xlink:href="#DejaVuSans-72" transform="translate(6928.515625 0)"/>
    <use xlink:href="#DejaVuSans-6b" transform="translate(6969.628906 0)"/>
    <use xlink:href="#DejaVuSans-74" transform="translate(7027.539062 0)"/>
    <use xlink:href="#DejaVuSans-65" transform="translate(7066.748047 0)"/>
    <use xlink:href="#DejaVuSans-6e" transform="translate(7128.271484 0)"/>
    <use xlink:href="#DejaVuSans-2e" transform="translate(7191.650391 0)"/>
    <use xlink:href="#DejaVuSans-22" transform="translate(7223.4375 0)"/>
   </g>
  </g>
  <g id="text_8">
   <!-- Abbildung 35e: Inwieweit stimmen Sie folgenden Aussagen zur Umsetzung von -->
   <g transform="translate(249.514219 546.467047) scale(0.11 -0.11)">
    <defs>
     <path id="DejaVuSans-62" d="M 3116 1747 
Q 3116 2381 2855 2742 
Q 2594 3103 2138 3103 
Q 1681 3103 1420 2742 
Q 1159 2381 1159 1747 
Q 1159 1113 1420 752 
Q 1681 391 2138 391 
Q 2594 391 2855 752 
Q 3116 1113 3116 1747 
z
M 1159 2969 
Q 1341 3281 1617 3432 
Q 1894 3584 2278 3584 
Q 2916 3584 3314 3078 
Q 3713 2572 3713 1747 
Q 3713 922 3314 415 
Q 2916 -91 2278 -91 
Q 1894 -91 1617 61 
Q 1341 213 1159 525 
L 1159 0 
L 581 0 
L 581 4863 
L 1159 4863 
L 1159 2969 
z
" transform="scale(0.015625)"/>
     <path id="DejaVuSans-33" d="M 2597 2516 
Q 3050 2419 3304 2112 
Q 3559 1806 3559 1356 
Q 3559 666 3084 287 
Q 2609 -91 1734 -91 
Q 1441 -91 1130 -33 
Q 819 25 488 141 
L 488 750 
Q 750 597 1062 519 
Q 1375 441 1716 441 
Q 2309 441 2620 675 
Q 2931 909 2931 1356 
Q 2931 1769 2642 2001 
Q 2353 2234 1838 2234 
L 1294 2234 
L 1294 2753 
L 1863 2753 
Q 2328 2753 2575 2939 
Q 2822 3125 2822 3475 
Q 2822 3834 2567 4026 
Q 2313 4219 1838 4219 
Q 1578 4219 1281 4162 
Q 984 4106 628 3988 
L 628 4550 
Q 988 4650 1302 4700 
Q 1616 4750 1894 4750 
Q 2613 4750 3031 4423 
Q 3450 4097 3450 3541 
Q 3450 3153 3228 2886 
Q 3006 2619 2597 2516 
z
" transform="scale(0.015625)"/>
     <path id="DejaVuSans-3a" d="M 750 794 
L 1409 794 
L 1409 0 
L 750 0 
L 750 794 
z
M 750 3309 
L 1409 3309 
L 1409 2516 
L 750 2516 
L 750 3309 
z
" transform="scale(0.015625)"/>
     <path id="DejaVuSans-49" d="M 628 4666 
L 1259 4666 
L 1259 0 
L 628 0 
L 628 4666 
z
" transform="scale(0.015625)"/>
     <path id="DejaVuSans-55" d="M 556 4666 
L 1191 4666 
L 1191 1831 
Q 1191 1081 1462 751 
Q 1734 422 2344 422 
Q 2950 422 3222 751 
Q 3494 1081 3494 1831 
L 3494 4666 
L 4128 4666 
L 4128 1753 
Q 4128 841 3676 375 
Q 3225 -91 2344 -91 
Q 1459 -91 1007 375 
Q 556 841 556 1753 
L 556 4666 
z
" transform="scale(0.015625)"/>
    </defs>
    <use xlink:href="#DejaVuSans-41"/>
    <use xlink:href="#DejaVuSans-62" transform="translate(68.408203 0)"/>
    <use xlink:href="#DejaVuSans-62" transform="translate(131.884766 0)"/>
    <use xlink:href="#DejaVuSans-69" transform="translate(195.361328 0)"/>
    <use xlink:href="#DejaVuSans-6c" transform="translate(223.144531 0)"/>
    <use xlink:href="#DejaVuSans-64" transform="translate(250.927734 0)"/>
    <use xlink:href="#DejaVuSans-75" transform="translate(314.404297 0)"/>
    <use xlink:href="#DejaVuSans-6e" transform="translate(377.783203 0)"/>
    <use xlink:href="#DejaVuSans-67" transform="translate(441.162109 0)"/>
    <use xlink:href="#DejaVuSans-20" transform="translate(504.638672 0)"/>
    <use xlink:href="#DejaVuSans-33" transform="translate(536.425781 0)"/>
    <use xlink:href="#DejaVuSans-35" transform="translate(600.048828 0)"/>
    <use xlink:href="#DejaVuSans-65" transform="translate(663.671875 0)"/>
    <use xlink:href="#DejaVuSans-3a" transform="translate(725.195312 0)"/>
    <use xlink:href="#DejaVuSans-20" transform="translate(758.886719 0)"/>
    <use xlink:href="#DejaVuSans-49" transform="translate(790.673828 0)"/>
    <use xlink:href="#DejaVuSans-6e" transform="translate(820.166016 0)"/>
    <use xlink:href="#DejaVuSans-77" transform="translate(883.544922 0)"/>
    <use xlink:href="#DejaVuSans-69" transform="translate(965.332031 0)"/>
    <use xlink:href="#DejaVuSans-65" transform="translate(993.115234 0)"/>
    <use xlink:href="#DejaVuSans-77" transform="translate(1054.638672 0)"/>
    <use xlink:href="#DejaVuSans-65" transform="translate(1136.425781 0)"/>
    <use xlink:href="#DejaVuSans-69" transform="translate(1197.949219 0)"/>
    <use xlink:href="#DejaVuSans-74" transform="translate(1225.732422 0)"/>
    <use xlink:href="#DejaVuSans-20" transform="translate(1264.941406 0)"/>
    <use xlink:href="#DejaVuSans-73" transform="translate(1296.728516 0)"/>
    <use xlink:href="#DejaVuSans-74" transform="translate(1348.828125 0)"/>
    <use xlink:href="#DejaVuSans-69" transform="translate(1388.037109 0)"/>
    <use xlink:href="#DejaVuSans-6d" transform="translate(1415.820312 0)"/>
    <use xlink:href="#DejaVuSans-6d" transform="translate(1513.232422 0)"/>
    <use xlink:href="#DejaVuSans-65" transform="translate(1610.644531 0)"/>
    <use xlink:href="#DejaVuSans-6e" transform="translate(1672.167969 0)"/>
    <use xlink:href="#DejaVuSans-20" transform="translate(1735.546875 0)"/>
    <use xlink:href="#DejaVuSans-53" transform="translate(1767.333984 0)"/>
    <use xlink:href="#DejaVuSans-69" transform="translate(1830.810547 0)"/>
    <use xlink:href="#DejaVuSans-65" transform="translate(1858.59375 0)"/>
    <use xlink:href="#DejaVuSans-20" transform="translate(1920.117188 0)"/>
    <use xlink:href="#DejaVuSans-66" transform="translate(1951.904297 0)"/>
    <use xlink:href="#DejaVuSans-6f" transform="translate(1987.109375 0)"/>
    <use xlink:href="#DejaVuSans-6c" transform="translate(2048.291016 0)"/>
    <use xlink:href="#DejaVuSans-67" transform="translate(2076.074219 0)"/>
    <use xlink:href="#DejaVuSans-65" transform="translate(2139.550781 0)"/>
    <use xlink:href="#DejaVuSans-6e" transform="translate(2201.074219 0)"/>
    <use xlink:href="#DejaVuSans-64" transform="translate(2264.453125 0)"/>
    <use xlink:href="#DejaVuSans-65" transform="translate(2327.929688 0)"/>
    <use xlink:href="#DejaVuSans-6e" transform="translate(2389.453125 0)"/>
    <use xlink:href="#DejaVuSans-20" transform="translate(2452.832031 0)"/>
    <use xlink:href="#DejaVuSans-41" transform="translate(2484.619141 0)"/>
    <use xlink:href="#DejaVuSans-75" transform="translate(2553.027344 0)"/>
    <use xlink:href="#DejaVuSans-73" transform="translate(2616.40625 0)"/>
    <use xlink:href="#DejaVuSans-73" transform="translate(2668.505859 0)"/>
    <use xlink:href="#DejaVuSans-61" transform="translate(2720.605469 0)"/>
    <use xlink:href="#DejaVuSans-67" transform="translate(2781.884766 0)"/>
    <use xlink:href="#DejaVuSans-65" transform="translate(2845.361328 0)"/>
    <use xlink:href="#DejaVuSans-6e" transform="translate(2906.884766 0)"/>
    <use xlink:href="#DejaVuSans-20" transform="translate(2970.263672 0)"/>
    <use xlink:href="#DejaVuSans-7a" transform="translate(3002.050781 0)"/>
    <use xlink:href="#DejaVuSans-75" transform="translate(3054.541016 0)"/>
    <use xlink:href="#DejaVuSans-72" transform="translate(3117.919922 0)"/>
    <use xlink:href="#DejaVuSans-20" transform="translate(3159.033203 0)"/>
    <use xlink:href="#DejaVuSans-55" transform="translate(3190.820312 0)"/>
    <use xlink:href="#DejaVuSans-6d" transform="translate(3264.013672 0)"/>
    <use xlink:href="#DejaVuSans-73" transform="translate(3361.425781 0)"/>
    <use xlink:href="#DejaVuSans-65" transform="translate(3413.525391 0)"/>
    <use xlink:href="#DejaVuSans-74" transform="translate(3475.048828 0)"/>
    <use xlink:href="#DejaVuSans-7a" transform="translate(3514.257812 0)"/>
    <use xlink:href="#DejaVuSans-75" transform="translate(3566.748047 0)"/>
    <use xlink:href="#DejaVuSans-6e" transform="translate(3630.126953 0)"/>
    <use xlink:href="#DejaVuSans-67" transform="translate(3693.505859 0)"/>
    <use xlink:href="#DejaVuSans-20" transform="translate(3756.982422 0)"/>
    <use xlink:href="#DejaVuSans-76" transform="translate(3788.769531 0)"/>
    <use xlink:href="#DejaVuSans-6f" transform="translate(3847.949219 0)"/>
    <use xlink:href="#DejaVuSans-6e" transform="translate(3909.130859 0)"/>
   </g>
   <!-- Kreislaufwirtschaft bezogen auf die Wettbewerbsfähigkeit aus der Sicht Ihres -->
   <g transform="translate(256.309297 557.948813) scale(0.11 -0.11)">
    <defs>
     <path id="DejaVuSans-57" d="M 213 4666 
L 850 4666 
L 1831 722 
L 2809 4666 
L 3519 4666 
L 4500 722 
L 5478 4666 
L 6119 4666 
L 4947 0 
L 4153 0 
L 3169 4050 
L 2175 0 
L 1381 0 
L 213 4666 
z
" transform="scale(0.015625)"/>
    </defs>
    <use xlink:href="#DejaVuSans-4b"/>
    <use xlink:href="#DejaVuSans-72" transform="translate(65.576172 0)"/>
    <use xlink:href="#DejaVuSans-65" transform="translate(104.439453 0)"/>
    <use xlink:href="#DejaVuSans-69" transform="translate(165.962891 0)"/>
    <use xlink:href="#DejaVuSans-73" transform="translate(193.746094 0)"/>
    <use xlink:href="#DejaVuSans-6c" transform="translate(245.845703 0)"/>
    <use xlink:href="#DejaVuSans-61" transform="translate(273.628906 0)"/>
    <use xlink:href="#DejaVuSans-75" transform="translate(334.908203 0)"/>
    <use xlink:href="#DejaVuSans-66" transform="translate(398.287109 0)"/>
    <use xlink:href="#DejaVuSans-77" transform="translate(431.742188 0)"/>
    <use xlink:href="#DejaVuSans-69" transform="translate(513.529297 0)"/>
    <use xlink:href="#DejaVuSans-72" transform="translate(541.3125 0)"/>
    <use xlink:href="#DejaVuSans-74" transform="translate(582.425781 0)"/>
    <use xlink:href="#DejaVuSans-73" transform="translate(621.634766 0)"/>
    <use xlink:href="#DejaVuSans-63" transform="translate(673.734375 0)"/>
    <use xlink:href="#DejaVuSans-68" transform="translate(728.714844 0)"/>
    <use xlink:href="#DejaVuSans-61" transform="translate(792.09375 0)"/>
    <use xlink:href="#DejaVuSans-66" transform="translate(853.373047 0)"/>
    <use xlink:href="#DejaVuSans-74" transform="translate(886.828125 0)"/>
    <use xlink:href="#DejaVuSans-20" transform="translate(926.037109 0)"/>
    <use xlink:href="#DejaVuSans-62" transform="translate(957.824219 0)"/>
    <use xlink:href="#DejaVuSans-65" transform="translate(1021.300781 0)"/>
    <use xlink:href="#DejaVuSans-7a" transform="translate(1082.824219 0)"/>
    <use xlink:href="#DejaVuSans-6f" transform="translate(1135.314453 0)"/>
    <use xlink:href="#DejaVuSans-67" transform="translate(1196.496094 0)"/>
    <use xlink:href="#DejaVuSans-65" transform="translate(1259.972656 0)"/>
    <use xlink:href="#DejaVuSans-6e" transform="translate(1321.496094 0)"/>
    <use xlink:href="#DejaVuSans-20" transform="translate(1384.875 0)"/>
    <use xlink:href="#DejaVuSans-61" transform="translate(1416.662109 0)"/>
    <use xlink:href="#DejaVuSans-75" transform="translate(1477.941406 0)"/>
    <use xlink:href="#DejaVuSans-66" transform="translate(1541.320312 0)"/>
    <use xlink:href="#DejaVuSans-20" transform="translate(1576.525391 0)"/>
    <use xlink:href="#DejaVuSans-64" transform="translate(1608.3125 0)"/>
    <use xlink:href="#DejaVuSans-69" transform="translate(1671.789062 0)"/>
    <use xlink:href="#DejaVuSans-65" transform="translate(1699.572266 0)"/>
    <use xlink:href="#DejaVuSans-20" transform="translate(1761.095703 0)"/>
    <use xlink:href="#DejaVuSans-57" transform="translate(1792.882812 0)"/>
    <use xlink:href="#DejaVuSans-65" transform="translate(1885.884766 0)"/>
    <use xlink:href="#DejaVuSans-74" transform="translate(1947.408203 0)"/>
    <use xlink:href="#DejaVuSans-74" transform="translate(1986.617188 0)"/>
    <use xlink:href="#DejaVuSans-62" transform="translate(2025.826172 0)"/>
    <use xlink:href="#DejaVuSans-65" transform="translate(2089.302734 0)"/>
    <use xlink:href="#DejaVuSans-77" transform="translate(2150.826172 0)"/>
    <use xlink:href="#DejaVuSans-65" transform="translate(2232.613281 0)"/>
    <use xlink:href="#DejaVuSans-72" transform="translate(2294.136719 0)"/>
    <use xlink:href="#DejaVuSans-62" transform="translate(2335.25 0)"/>
    <use xlink:href="#DejaVuSans-73" transform="translate(2398.726562 0)"/>
    <use xlink:href="#DejaVuSans-66" transform="translate(2450.826172 0)"/>
    <use xlink:href="#DejaVuSans-e4" transform="translate(2486.03125 0)"/>
    <use xlink:href="#DejaVuSans-68" transform="translate(2547.310547 0)"/>
    <use xlink:href="#DejaVuSans-69" transform="translate(2610.689453 0)"/>
    <use xlink:href="#DejaVuSans-67" transform="translate(2638.472656 0)"/>
    <use xlink:href="#DejaVuSans-6b" transform="translate(2701.949219 0)"/>
    <use xlink:href="#DejaVuSans-65" transform="translate(2756.234375 0)"/>
    <use xlink:href="#DejaVuSans-69" transform="translate(2817.757812 0)"/>
    <use xlink:href="#DejaVuSans-74" transform="translate(2845.541016 0)"/>
    <use xlink:href="#DejaVuSans-20" transform="translate(2884.75 0)"/>
    <use xlink:href="#DejaVuSans-61" transform="translate(2916.537109 0)"/>
    <use xlink:href="#DejaVuSans-75" transform="translate(2977.816406 0)"/>
    <use xlink:href="#DejaVuSans-73" transform="translate(3041.195312 0)"/>
    <use xlink:href="#DejaVuSans-20" transform="translate(3093.294922 0)"/>
    <use xlink:href="#DejaVuSans-64" transform="translate(3125.082031 0)"/>
    <use xlink:href="#DejaVuSans-65" transform="translate(3188.558594 0)"/>
    <use xlink:href="#DejaVuSans-72" transform="translate(3250.082031 0)"/>
    <use xlink:href="#DejaVuSans-20" transform="translate(3291.195312 0)"/>
    <use xlink:href="#DejaVuSans-53" transform="translate(3322.982422 0)"/>
    <use xlink:href="#DejaVuSans-69" transform="translate(3386.458984 0)"/>
    <use xlink:href="#DejaVuSans-63" transform="translate(3414.242188 0)"/>
    <use xlink:href="#DejaVuSans-68" transform="translate(3469.222656 0)"/>
    <use xlink:href="#DejaVuSans-74" transform="translate(3532.601562 0)"/>
    <use xlink:href="#DejaVuSans-20" transform="translate(3571.810547 0)"/>
    <use xlink:href="#DejaVuSans-49" transform="translate(3603.597656 0)"/>
    <use xlink:href="#DejaVuSans-68" transform="translate(3633.089844 0)"/>
    <use xlink:href="#DejaVuSans-72" transform="translate(3696.46875 0)"/>
    <use xlink:href="#DejaVuSans-65" transform="translate(3735.332031 0)"/>
    <use xlink:href="#DejaVuSans-73" transform="translate(3796.855469 0)"/>
   </g>
   <!-- Unternehmens zu? – "Die steigende Nachfrage nach Recyclingmaterialien verursacht -->
   <g transform="translate(233.461094 569.430578) scale(0.11 -0.11)">
    <defs>
     <path id="DejaVuSans-3f" d="M 1222 794 
L 1856 794 
L 1856 0 
L 1222 0 
L 1222 794 
z
M 1838 1253 
L 1241 1253 
L 1241 1734 
Q 1241 2050 1328 2253 
Q 1416 2456 1697 2725 
L 1978 3003 
Q 2156 3169 2236 3316 
Q 2316 3463 2316 3616 
Q 2316 3894 2111 4066 
Q 1906 4238 1569 4238 
Q 1322 4238 1042 4128 
Q 763 4019 459 3809 
L 459 4397 
Q 753 4575 1054 4662 
Q 1356 4750 1678 4750 
Q 2253 4750 2601 4447 
Q 2950 4144 2950 3647 
Q 2950 3409 2837 3195 
Q 2725 2981 2444 2713 
L 2169 2444 
Q 2022 2297 1961 2214 
Q 1900 2131 1875 2053 
Q 1856 1988 1847 1894 
Q 1838 1800 1838 1638 
L 1838 1253 
z
" transform="scale(0.015625)"/>
     <path id="DejaVuSans-2013" d="M 313 1978 
L 2888 1978 
L 2888 1528 
L 313 1528 
L 313 1978 
z
" transform="scale(0.015625)"/>
    </defs>
    <use xlink:href="#DejaVuSans-55"/>
    <use xlink:href="#DejaVuSans-6e" transform="translate(73.193359 0)"/>
    <use xlink:href="#DejaVuSans-74" transform="translate(136.572266 0)"/>
    <use xlink:href="#DejaVuSans-65" transform="translate(175.78125 0)"/>
    <use xlink:href="#DejaVuSans-72" transform="translate(237.304688 0)"/>
    <use xlink:href="#DejaVuSans-6e" transform="translate(276.667969 0)"/>
    <use xlink:href="#DejaVuSans-65" transform="translate(340.046875 0)"/>
    <use xlink:href="#DejaVuSans-68" transform="translate(401.570312 0)"/>
    <use xlink:href="#DejaVuSans-6d" transform="translate(464.949219 0)"/>
    <use xlink:href="#DejaVuSans-65" transform="translate(562.361328 0)"/>
    <use xlink:href="#DejaVuSans-6e" transform="translate(623.884766 0)"/>
    <use xlink:href="#DejaVuSans-73" transform="translate(687.263672 0)"/>
    <use xlink:href="#DejaVuSans-20" transform="translate(739.363281 0)"/>
    <use xlink:href="#DejaVuSans-7a" transform="translate(771.150391 0)"/>
    <use xlink:href="#DejaVuSans-75" transform="translate(823.640625 0)"/>
    <use xlink:href="#DejaVuSans-3f" transform="translate(887.019531 0)"/>
    <use xlink:href="#DejaVuSans-20" transform="translate(940.095703 0)"/>
    <use xlink:href="#DejaVuSans-2013" transform="translate(971.882812 0)"/>
    <use xlink:href="#DejaVuSans-20" transform="translate(1021.882812 0)"/>
    <use xlink:href="#DejaVuSans-22" transform="translate(1053.669922 0)"/>
    <use xlink:href="#DejaVuSans-44" transform="translate(1099.666016 0)"/>
    <use xlink:href="#DejaVuSans-69" transform="translate(1176.667969 0)"/>
    <use xlink:href="#DejaVuSans-65" transform="translate(1204.451172 0)"/>
    <use xlink:href="#DejaVuSans-20" transform="translate(1265.974609 0)"/>
    <use xlink:href="#DejaVuSans-73" transform="translate(1297.761719 0)"/>
    <use xlink:href="#DejaVuSans-74" transform="translate(1349.861328 0)"/>
    <use xlink:href="#DejaVuSans-65" transform="translate(1389.070312 0)"/>
    <use xlink:href="#DejaVuSans-69" transform="translate(1450.59375 0)"/>
    <use xlink:href="#DejaVuSans-67" transform="translate(1478.376953 0)"/>
    <use xlink:href="#DejaVuSans-65" transform="translate(1541.853516 0)"/>
    <use xlink:href="#DejaVuSans-6e" transform="translate(1603.376953 0)"/>
    <use xlink:href="#DejaVuSans-64" transform="translate(1666.755859 0)"/>
    <use xlink:href="#DejaVuSans-65" transform="translate(1730.232422 0)"/>
    <use xlink:href="#DejaVuSans-20" transform="translate(1791.755859 0)"/>
    <use xlink:href="#DejaVuSans-4e" transform="translate(1823.542969 0)"/>
    <use xlink:href="#DejaVuSans-61" transform="translate(1898.347656 0)"/>
    <use xlink:href="#DejaVuSans-63" transform="translate(1959.626953 0)"/>
    <use xlink:href="#DejaVuSans-68" transform="translate(2014.607422 0)"/>
    <use xlink:href="#DejaVuSans-66" transform="translate(2077.986328 0)"/>
    <use xlink:href="#DejaVuSans-72" transform="translate(2113.191406 0)"/>
    <use xlink:href="#DejaVuSans-61" transform="translate(2154.304688 0)"/>
    <use xlink:href="#DejaVuSans-67" transform="translate(2215.583984 0)"/>
    <use xlink:href="#DejaVuSans-65" transform="translate(2279.060547 0)"/>
    <use xlink:href="#DejaVuSans-20" transform="translate(2340.583984 0)"/>
    <use xlink:href="#DejaVuSans-6e" transform="translate(2372.371094 0)"/>
    <use xlink:href="#DejaVuSans-61" transform="translate(2435.75 0)"/>
    <use xlink:href="#DejaVuSans-63" transform="translate(2497.029297 0)"/>
    <use xlink:href="#DejaVuSans-68" transform="translate(2552.009766 0)"/>
    <use xlink:href="#DejaVuSans-20" transform="translate(2615.388672 0)"/>
    <use xlink:href="#DejaVuSans-52" transform="translate(2647.175781 0)"/>
    <use xlink:href="#DejaVuSans-65" transform="translate(2712.158203 0)"/>
    <use xlink:href="#DejaVuSans-63" transform="translate(2773.681641 0)"/>
    <use xlink:href="#DejaVuSans-79" transform="translate(2828.662109 0)"/>
    <use xlink:href="#DejaVuSans-63" transform="translate(2887.841797 0)"/>
    <use xlink:href="#DejaVuSans-6c" transform="translate(2942.822266 0)"/>
    <use xlink:href="#DejaVuSans-69" transform="translate(2970.605469 0)"/>
    <use xlink:href="#DejaVuSans-6e" transform="translate(2998.388672 0)"/>
    <use xlink:href="#DejaVuSans-67" transform="translate(3061.767578 0)"/>
    <use xlink:href="#DejaVuSans-6d" transform="translate(3125.244141 0)"/>
    <use xlink:href="#DejaVuSans-61" transform="translate(3222.65625 0)"/>
    <use xlink:href="#DejaVuSans-74" transform="translate(3283.935547 0)"/>
    <use xlink:href="#DejaVuSans-65" transform="translate(3323.144531 0)"/>
    <use xlink:href="#DejaVuSans-72" transform="translate(3384.667969 0)"/>
    <use xlink:href="#DejaVuSans-69" transform="translate(3425.78125 0)"/>
    <use xlink:href="#DejaVuSans-61" transform="translate(3453.564453 0)"/>
    <use xlink:href="#DejaVuSans-6c" transform="translate(3514.84375 0)"/>
    <use xlink:href="#DejaVuSans-69" transform="translate(3542.626953 0)"/>
    <use xlink:href="#DejaVuSans-65" transform="translate(3570.410156 0)"/>
    <use xlink:href="#DejaVuSans-6e" transform="translate(3631.933594 0)"/>
    <use xlink:href="#DejaVuSans-20" transform="translate(3695.3125 0)"/>
    <use xlink:href="#DejaVuSans-76" transform="translate(3727.099609 0)"/>
    <use xlink:href="#DejaVuSans-65" transform="translate(3786.279297 0)"/>
    <use xlink:href="#DejaVuSans-72" transform="translate(3847.802734 0)"/>
    <use xlink:href="#DejaVuSans-75" transform="translate(3888.916016 0)"/>
    <use xlink:href="#DejaVuSans-72" transform="translate(3952.294922 0)"/>
    <use xlink:href="#DejaVuSans-73" transform="translate(3993.408203 0)"/>
    <use xlink:href="#DejaVuSans-61" transform="translate(4045.507812 0)"/>
    <use xlink:href="#DejaVuSans-63" transform="translate(4106.787109 0)"/>
    <use xlink:href="#DejaVuSans-68" transform="translate(4161.767578 0)"/>
    <use xlink:href="#DejaVuSans-74" transform="translate(4225.146484 0)"/>
   </g>
   <!-- kurzfristige Engpässe und Preissteigerungen auf den Sekundärrohstoffmärkten." -->
   <g transform="translate(246.520156 580.912344) scale(0.11 -0.11)">
    <use xlink:href="#DejaVuSans-6b"/>
    <use xlink:href="#DejaVuSans-75" transform="translate(54.785156 0)"/>
    <use xlink:href="#DejaVuSans-72" transform="translate(118.164062 0)"/>
    <use xlink:href="#DejaVuSans-7a" transform="translate(159.277344 0)"/>
    <use xlink:href="#DejaVuSans-66" transform="translate(211.767578 0)"/>
    <use xlink:href="#DejaVuSans-72" transform="translate(246.972656 0)"/>
    <use xlink:href="#DejaVuSans-69" transform="translate(288.085938 0)"/>
    <use xlink:href="#DejaVuSans-73" transform="translate(315.869141 0)"/>
    <use xlink:href="#DejaVuSans-74" transform="translate(367.96875 0)"/>
    <use xlink:href="#DejaVuSans-69" transform="translate(407.177734 0)"/>
    <use xlink:href="#DejaVuSans-67" transform="translate(434.960938 0)"/>
    <use xlink:href="#DejaVuSans-65" transform="translate(498.4375 0)"/>
    <use xlink:href="#DejaVuSans-20" transform="translate(559.960938 0)"/>
    <use xlink:href="#DejaVuSans-45" transform="translate(591.748047 0)"/>
    <use xlink:href="#DejaVuSans-6e" transform="translate(654.931641 0)"/>
    <use xlink:href="#DejaVuSans-67" transform="translate(718.310547 0)"/>
    <use xlink:href="#DejaVuSans-70" transform="translate(781.787109 0)"/>
    <use xlink:href="#DejaVuSans-e4" transform="translate(845.263672 0)"/>
    <use xlink:href="#DejaVuSans-73" transform="translate(906.542969 0)"/>
    <use xlink:href="#DejaVuSans-73" transform="translate(958.642578 0)"/>
    <use xlink:href="#DejaVuSans-65" transform="translate(1010.742188 0)"/>
    <use xlink:href="#DejaVuSans-20" transform="translate(1072.265625 0)"/>
    <use xlink:href="#DejaVuSans-75" transform="translate(1104.052734 0)"/>
    <use xlink:href="#DejaVuSans-6e" transform="translate(1167.431641 0)"/>
    <use xlink:href="#DejaVuSans-64" transform="translate(1230.810547 0)"/>
    <use xlink:href="#DejaVuSans-20" transform="translate(1294.287109 0)"/>
    <use xlink:href="#DejaVuSans-50" transform="translate(1326.074219 0)"/>
    <use xlink:href="#DejaVuSans-72" transform="translate(1384.626953 0)"/>
    <use xlink:href="#DejaVuSans-65" transform="translate(1423.490234 0)"/>
    <use xlink:href="#DejaVuSans-69" transform="translate(1485.013672 0)"/>
    <use xlink:href="#DejaVuSans-73" transform="translate(1512.796875 0)"/>
    <use xlink:href="#DejaVuSans-73" transform="translate(1564.896484 0)"/>
    <use xlink:href="#DejaVuSans-74" transform="translate(1616.996094 0)"/>
    <use xlink:href="#DejaVuSans-65" transform="translate(1656.205078 0)"/>
    <use xlink:href="#DejaVuSans-69" transform="translate(1717.728516 0)"/>
    <use xlink:href="#DejaVuSans-67" transform="translate(1745.511719 0)"/>
    <use xlink:href="#DejaVuSans-65" transform="translate(1808.988281 0)"/>
    <use xlink:href="#DejaVuSans-72" transform="translate(1870.511719 0)"/>
    <use xlink:href="#DejaVuSans-75" transform="translate(1911.625 0)"/>
    <use xlink:href="#DejaVuSans-6e" transform="translate(1975.003906 0)"/>
    <use xlink:href="#DejaVuSans-67" transform="translate(2038.382812 0)"/>
    <use xlink:href="#DejaVuSans-65" transform="translate(2101.859375 0)"/>
    <use xlink:href="#DejaVuSans-6e" transform="translate(2163.382812 0)"/>
    <use xlink:href="#DejaVuSans-20" transform="translate(2226.761719 0)"/>
    <use xlink:href="#DejaVuSans-61" transform="translate(2258.548828 0)"/>
    <use xlink:href="#DejaVuSans-75" transform="translate(2319.828125 0)"/>
    <use xlink:href="#DejaVuSans-66" transform="translate(2383.207031 0)"/>
    <use xlink:href="#DejaVuSans-20" transform="translate(2418.412109 0)"/>
    <use xlink:href="#DejaVuSans-64" transform="translate(2450.199219 0)"/>
    <use xlink:href="#DejaVuSans-65" transform="translate(2513.675781 0)"/>
    <use xlink:href="#DejaVuSans-6e" transform="translate(2575.199219 0)"/>
    <use xlink:href="#DejaVuSans-20" transform="translate(2638.578125 0)"/>
    <use xlink:href="#DejaVuSans-53" transform="translate(2670.365234 0)"/>
    <use xlink:href="#DejaVuSans-65" transform="translate(2733.841797 0)"/>
    <use xlink:href="#DejaVuSans-6b" transform="translate(2795.365234 0)"/>
    <use xlink:href="#DejaVuSans-75" transform="translate(2850.150391 0)"/>
    <use xlink:href="#DejaVuSans-6e" transform="translate(2913.529297 0)"/>
    <use xlink:href="#DejaVuSans-64" transform="translate(2976.908203 0)"/>
    <use xlink:href="#DejaVuSans-e4" transform="translate(3040.384766 0)"/>
    <use xlink:href="#DejaVuSans-72" transform="translate(3101.664062 0)"/>
    <use xlink:href="#DejaVuSans-72" transform="translate(3141.027344 0)"/>
    <use xlink:href="#DejaVuSans-6f" transform="translate(3179.890625 0)"/>
    <use xlink:href="#DejaVuSans-68" transform="translate(3241.072266 0)"/>
    <use xlink:href="#DejaVuSans-73" transform="translate(3304.451172 0)"/>
    <use xlink:href="#DejaVuSans-74" transform="translate(3356.550781 0)"/>
    <use xlink:href="#DejaVuSans-6f" transform="translate(3395.759766 0)"/>
    <use xlink:href="#DejaVuSans-66" transform="translate(3456.941406 0)"/>
    <use xlink:href="#DejaVuSans-66" transform="translate(3492.146484 0)"/>
    <use xlink:href="#DejaVuSans-6d" transform="translate(3527.351562 0)"/>
    <use xlink:href="#DejaVuSans-e4" transform="translate(3624.763672 0)"/>
    <use xlink:href="#DejaVuSans-72" transform="translate(3686.042969 0)"/>
    <use xlink:href="#DejaVuSans-6b" transform="translate(3727.15625 0)"/>
    <use xlink:href="#DejaVuSans-74" transform="translate(3785.066406 0)"/>
    <use xlink:href="#DejaVuSans-65" transform="translate(3824.275391 0)"/>
    <use xlink:href="#DejaVuSans-6e" transform="translate(3885.798828 0)"/>
    <use xlink:href="#DejaVuSans-2e" transform="translate(3949.177734 0)"/>
    <use xlink:href="#DejaVuSans-22" transform="translate(3980.964844 0)"/>
   </g>
  </g>
 </g>
 <defs>
  <clipPath id="pba67fd8455">
   <rect x="254.16" y="51.84" width="427.68" height="427.68"/>
  </clipPath>
 </defs>
</svg>
