<?xml version="1.0" encoding="utf-8" standalone="no"?>
<!DOCTYPE svg PUBLIC "-//W3C//DTD SVG 1.1//EN"
  "http://www.w3.org/Graphics/SVG/1.1/DTD/svg11.dtd">
<svg xmlns:xlink="http://www.w3.org/1999/xlink" width="936pt" height="648pt" viewBox="0 0 936 648" xmlns="http://www.w3.org/2000/svg" version="1.1">
 <metadata>
  <rdf:RDF xmlns:dc="http://purl.org/dc/elements/1.1/" xmlns:cc="http://creativecommons.org/ns#" xmlns:rdf="http://www.w3.org/1999/02/22-rdf-syntax-ns#">
   <cc:Work>
    <dc:type rdf:resource="http://purl.org/dc/dcmitype/StillImage"/>
    <dc:date>2026-02-23T18:46:24.345972</dc:date>
    <dc:format>image/svg+xml</dc:format>
    <dc:creator>
     <cc:Agent>
      <dc:title>Matplotlib v3.10.8, https://matplotlib.org/</dc:title>
     </cc:Agent>
    </dc:creator>
   </cc:Work>
  </rdf:RDF>
 </metadata>
 <defs>
  <style type="text/css">*{stroke-linejoin: round; stroke-linecap: butt}</style>
 </defs>
 <g id="figure_1">
  <g id="patch_1">
   <path d="M 0 648 
L 936 648 
L 936 0 
L 0 0 
z
" style="fill: #ffffff"/>
  </g>
  <g id="axes_1">
   <g id="patch_2">
    <path d="M 566.00411 125.462937 
C 551.720715 115.479617 535.99536 107.737161 519.373218 102.503957 
C 502.751075 97.270752 485.426466 94.608 467.999993 94.608 
L 467.999995 154.4832 
C 479.327203 154.4832 490.588199 156.213989 501.392591 159.615572 
C 512.196984 163.017155 522.418465 168.049751 531.702671 174.538909 
z
" style="fill: #003b6a; stroke: #ffffff; stroke-linejoin: miter"/>
   </g>
   <g id="patch_3">
    <path d="M 639.052106 268.28883 
C 639.478583 240.326219 633.041874 212.680951 620.307651 187.782572 
C 607.573428 162.884192 588.925984 141.484082 566.00411 125.462937 
L 531.702671 174.538909 
C 546.60189 184.952653 558.722728 198.862725 566.999973 215.046672 
C 575.277218 231.230618 579.461079 249.200042 579.183869 267.37574 
z
" style="fill: #8fc73e; stroke: #ffffff; stroke-linejoin: miter"/>
   </g>
   <g id="patch_4">
    <path d="M 514.373064 430.34684 
C 549.828133 420.362072 581.127722 399.18845 603.588074 369.994441 
C 626.048426 340.800437 638.490391 305.118736 639.052106 268.28883 
L 579.183869 267.37574 
C 578.818754 291.315179 570.731477 314.508284 556.132248 333.484387 
C 541.533019 352.460492 521.188287 366.223347 498.142491 372.713446 
z
" style="fill: #dc912f; stroke: #ffffff; stroke-linejoin: miter"/>
   </g>
   <g id="patch_5">
    <path d="M 323.447408 357.168672 
C 343.146191 388.292863 372.38009 412.237903 406.774469 425.420617 
C 441.168849 438.603331 478.917999 440.331608 514.373064 430.34684 
L 498.142491 372.713446 
C 475.0967 379.203545 450.559752 378.080165 428.203405 369.511401 
C 405.847058 360.942637 386.845024 345.378361 374.040815 325.147637 
z
" style="fill: #93bbdc; stroke: #ffffff; stroke-linejoin: miter"/>
   </g>
   <g id="patch_6">
    <path d="M 300.279029 299.374293 
C 302.335873 309.612701 305.325899 319.64131 309.211641 329.334432 
C 313.097384 339.027555 317.86255 348.344562 323.447408 357.168672 
L 374.040815 325.147637 
C 370.410658 319.411965 367.3133 313.355911 364.787567 307.055381 
C 362.261834 300.754851 360.318318 294.236256 358.981369 287.58129 
z
" style="fill: #f9c803; stroke: #ffffff; stroke-linejoin: miter"/>
   </g>
   <g id="patch_7">
    <path d="M 468.000002 94.608 
C 442.678076 94.608 417.669179 100.230198 394.78359 111.067623 
C 371.898 121.905048 351.701547 137.689772 335.656155 157.279186 
C 319.610762 176.8686 308.113153 199.778361 301.995549 224.350194 
C 295.877945 248.922027 295.291636 274.548381 300.279029 299.374293 
L 358.981369 287.58129 
C 355.739563 271.444448 356.120664 254.787318 360.097107 238.815626 
C 364.073549 222.843935 371.546995 207.95259 381.976501 195.219471 
C 392.406006 182.486352 405.5337 172.226281 420.409333 165.181955 
C 435.284967 158.137628 451.540749 154.4832 468.000001 154.4832 
z
" style="fill: #6283aa; stroke: #ffffff; stroke-linejoin: miter"/>
   </g>
   <g id="matplotlib.axis_1"/>
   <g id="matplotlib.axis_2"/>
   <g id="line2d_1">
    <path d="M 513.208449 122.085091 
L 524.510563 86.186353 
" clip-path="url(#p6b68a7d885)" style="fill: none; stroke: #000000; stroke-opacity: 0.35; stroke-linecap: square"/>
   </g>
   <g id="line2d_2">
    <path d="M 602.030734 197.130261 
L 635.53842 179.992824 
" clip-path="url(#p6b68a7d885)" style="fill: none; stroke: #000000; stroke-opacity: 0.35; stroke-linecap: square"/>
   </g>
   <g id="line2d_3">
    <path d="M 587.317508 357.476704 
L 617.146882 380.425885 
" clip-path="url(#p6b68a7d885)" style="fill: none; stroke: #000000; stroke-opacity: 0.35; stroke-linecap: square"/>
   </g>
   <g id="line2d_4">
    <path d="M 414.121533 406.251745 
L 400.651915 441.394673 
" clip-path="url(#p6b68a7d885)" style="fill: none; stroke: #000000; stroke-opacity: 0.35; stroke-linecap: square"/>
   </g>
   <g id="line2d_5">
    <path d="M 328.266249 321.695901 
L 293.332812 335.699877 
" clip-path="url(#p6b68a7d885)" style="fill: none; stroke: #000000; stroke-opacity: 0.35; stroke-linecap: square"/>
   </g>
   <g id="line2d_6">
    <path d="M 351.537432 170.287262 
L 322.421784 146.439069 
" clip-path="url(#p6b68a7d885)" style="fill: none; stroke: #000000; stroke-opacity: 0.35; stroke-linecap: square"/>
   </g>
   <g id="text_1">
    <!-- 10% -->
    <g transform="translate(532.216545 58.302526) scale(0.12 -0.12)">
     <defs>
      <path id="DejaVuSans-31" d="M 794 531 
L 1825 531 
L 1825 4091 
L 703 3866 
L 703 4441 
L 1819 4666 
L 2450 4666 
L 2450 531 
L 3481 531 
L 3481 0 
L 794 0 
L 794 531 
z
" transform="scale(0.015625)"/>
      <path id="DejaVuSans-30" d="M 2034 4250 
Q 1547 4250 1301 3770 
Q 1056 3291 1056 2328 
Q 1056 1369 1301 889 
Q 1547 409 2034 409 
Q 2525 409 2770 889 
Q 3016 1369 3016 2328 
Q 3016 3291 2770 3770 
Q 2525 4250 2034 4250 
z
M 2034 4750 
Q 2819 4750 3233 4129 
Q 3647 3509 3647 2328 
Q 3647 1150 3233 529 
Q 2819 -91 2034 -91 
Q 1250 -91 836 529 
Q 422 1150 422 2328 
Q 422 3509 836 4129 
Q 1250 4750 2034 4750 
z
" transform="scale(0.015625)"/>
      <path id="DejaVuSans-25" d="M 4653 2053 
Q 4381 2053 4226 1822 
Q 4072 1591 4072 1178 
Q 4072 772 4226 539 
Q 4381 306 4653 306 
Q 4919 306 5073 539 
Q 5228 772 5228 1178 
Q 5228 1588 5073 1820 
Q 4919 2053 4653 2053 
z
M 4653 2450 
Q 5147 2450 5437 2106 
Q 5728 1763 5728 1178 
Q 5728 594 5436 251 
Q 5144 -91 4653 -91 
Q 4153 -91 3862 251 
Q 3572 594 3572 1178 
Q 3572 1766 3864 2108 
Q 4156 2450 4653 2450 
z
M 1428 4353 
Q 1159 4353 1004 4120 
Q 850 3888 850 3481 
Q 850 3069 1003 2837 
Q 1156 2606 1428 2606 
Q 1700 2606 1854 2837 
Q 2009 3069 2009 3481 
Q 2009 3884 1853 4118 
Q 1697 4353 1428 4353 
z
M 4250 4750 
L 4750 4750 
L 1831 -91 
L 1331 -91 
L 4250 4750 
z
M 1428 4750 
Q 1922 4750 2215 4408 
Q 2509 4066 2509 3481 
Q 2509 2891 2217 2550 
Q 1925 2209 1428 2209 
Q 931 2209 642 2551 
Q 353 2894 353 3481 
Q 353 4063 643 4406 
Q 934 4750 1428 4750 
z
" transform="scale(0.015625)"/>
     </defs>
     <use xlink:href="#DejaVuSans-31"/>
     <use xlink:href="#DejaVuSans-30" transform="translate(63.623047 0)"/>
     <use xlink:href="#DejaVuSans-25" transform="translate(127.246094 0)"/>
    </g>
    <!-- Keine Zustimmung -->
    <g transform="translate(532.216545 71.739901) scale(0.12 -0.12)">
     <defs>
      <path id="DejaVuSans-4b" d="M 628 4666 
L 1259 4666 
L 1259 2694 
L 3353 4666 
L 4166 4666 
L 1850 2491 
L 4331 0 
L 3500 0 
L 1259 2247 
L 1259 0 
L 628 0 
L 628 4666 
z
" transform="scale(0.015625)"/>
      <path id="DejaVuSans-65" d="M 3597 1894 
L 3597 1613 
L 953 1613 
Q 991 1019 1311 708 
Q 1631 397 2203 397 
Q 2534 397 2845 478 
Q 3156 559 3463 722 
L 3463 178 
Q 3153 47 2828 -22 
Q 2503 -91 2169 -91 
Q 1331 -91 842 396 
Q 353 884 353 1716 
Q 353 2575 817 3079 
Q 1281 3584 2069 3584 
Q 2775 3584 3186 3129 
Q 3597 2675 3597 1894 
z
M 3022 2063 
Q 3016 2534 2758 2815 
Q 2500 3097 2075 3097 
Q 1594 3097 1305 2825 
Q 1016 2553 972 2059 
L 3022 2063 
z
" transform="scale(0.015625)"/>
      <path id="DejaVuSans-69" d="M 603 3500 
L 1178 3500 
L 1178 0 
L 603 0 
L 603 3500 
z
M 603 4863 
L 1178 4863 
L 1178 4134 
L 603 4134 
L 603 4863 
z
" transform="scale(0.015625)"/>
      <path id="DejaVuSans-6e" d="M 3513 2113 
L 3513 0 
L 2938 0 
L 2938 2094 
Q 2938 2591 2744 2837 
Q 2550 3084 2163 3084 
Q 1697 3084 1428 2787 
Q 1159 2491 1159 1978 
L 1159 0 
L 581 0 
L 581 3500 
L 1159 3500 
L 1159 2956 
Q 1366 3272 1645 3428 
Q 1925 3584 2291 3584 
Q 2894 3584 3203 3211 
Q 3513 2838 3513 2113 
z
" transform="scale(0.015625)"/>
      <path id="DejaVuSans-20" transform="scale(0.015625)"/>
      <path id="DejaVuSans-5a" d="M 359 4666 
L 4025 4666 
L 4025 4184 
L 1075 531 
L 4097 531 
L 4097 0 
L 288 0 
L 288 481 
L 3238 4134 
L 359 4134 
L 359 4666 
z
" transform="scale(0.015625)"/>
      <path id="DejaVuSans-75" d="M 544 1381 
L 544 3500 
L 1119 3500 
L 1119 1403 
Q 1119 906 1312 657 
Q 1506 409 1894 409 
Q 2359 409 2629 706 
Q 2900 1003 2900 1516 
L 2900 3500 
L 3475 3500 
L 3475 0 
L 2900 0 
L 2900 538 
Q 2691 219 2414 64 
Q 2138 -91 1772 -91 
Q 1169 -91 856 284 
Q 544 659 544 1381 
z
M 1991 3584 
L 1991 3584 
z
" transform="scale(0.015625)"/>
      <path id="DejaVuSans-73" d="M 2834 3397 
L 2834 2853 
Q 2591 2978 2328 3040 
Q 2066 3103 1784 3103 
Q 1356 3103 1142 2972 
Q 928 2841 928 2578 
Q 928 2378 1081 2264 
Q 1234 2150 1697 2047 
L 1894 2003 
Q 2506 1872 2764 1633 
Q 3022 1394 3022 966 
Q 3022 478 2636 193 
Q 2250 -91 1575 -91 
Q 1294 -91 989 -36 
Q 684 19 347 128 
L 347 722 
Q 666 556 975 473 
Q 1284 391 1588 391 
Q 1994 391 2212 530 
Q 2431 669 2431 922 
Q 2431 1156 2273 1281 
Q 2116 1406 1581 1522 
L 1381 1569 
Q 847 1681 609 1914 
Q 372 2147 372 2553 
Q 372 3047 722 3315 
Q 1072 3584 1716 3584 
Q 2034 3584 2315 3537 
Q 2597 3491 2834 3397 
z
" transform="scale(0.015625)"/>
      <path id="DejaVuSans-74" d="M 1172 4494 
L 1172 3500 
L 2356 3500 
L 2356 3053 
L 1172 3053 
L 1172 1153 
Q 1172 725 1289 603 
Q 1406 481 1766 481 
L 2356 481 
L 2356 0 
L 1766 0 
Q 1100 0 847 248 
Q 594 497 594 1153 
L 594 3053 
L 172 3053 
L 172 3500 
L 594 3500 
L 594 4494 
L 1172 4494 
z
" transform="scale(0.015625)"/>
      <path id="DejaVuSans-6d" d="M 3328 2828 
Q 3544 3216 3844 3400 
Q 4144 3584 4550 3584 
Q 5097 3584 5394 3201 
Q 5691 2819 5691 2113 
L 5691 0 
L 5113 0 
L 5113 2094 
Q 5113 2597 4934 2840 
Q 4756 3084 4391 3084 
Q 3944 3084 3684 2787 
Q 3425 2491 3425 1978 
L 3425 0 
L 2847 0 
L 2847 2094 
Q 2847 2600 2669 2842 
Q 2491 3084 2119 3084 
Q 1678 3084 1418 2786 
Q 1159 2488 1159 1978 
L 1159 0 
L 581 0 
L 581 3500 
L 1159 3500 
L 1159 2956 
Q 1356 3278 1631 3431 
Q 1906 3584 2284 3584 
Q 2666 3584 2933 3390 
Q 3200 3197 3328 2828 
z
" transform="scale(0.015625)"/>
      <path id="DejaVuSans-67" d="M 2906 1791 
Q 2906 2416 2648 2759 
Q 2391 3103 1925 3103 
Q 1463 3103 1205 2759 
Q 947 2416 947 1791 
Q 947 1169 1205 825 
Q 1463 481 1925 481 
Q 2391 481 2648 825 
Q 2906 1169 2906 1791 
z
M 3481 434 
Q 3481 -459 3084 -895 
Q 2688 -1331 1869 -1331 
Q 1566 -1331 1297 -1286 
Q 1028 -1241 775 -1147 
L 775 -588 
Q 1028 -725 1275 -790 
Q 1522 -856 1778 -856 
Q 2344 -856 2625 -561 
Q 2906 -266 2906 331 
L 2906 616 
Q 2728 306 2450 153 
Q 2172 0 1784 0 
Q 1141 0 747 490 
Q 353 981 353 1791 
Q 353 2603 747 3093 
Q 1141 3584 1784 3584 
Q 2172 3584 2450 3431 
Q 2728 3278 2906 2969 
L 2906 3500 
L 3481 3500 
L 3481 434 
z
" transform="scale(0.015625)"/>
     </defs>
     <use xlink:href="#DejaVuSans-4b"/>
     <use xlink:href="#DejaVuSans-65" transform="translate(60.576172 0)"/>
     <use xlink:href="#DejaVuSans-69" transform="translate(122.099609 0)"/>
     <use xlink:href="#DejaVuSans-6e" transform="translate(149.882812 0)"/>
     <use xlink:href="#DejaVuSans-65" transform="translate(213.261719 0)"/>
     <use xlink:href="#DejaVuSans-20" transform="translate(274.785156 0)"/>
     <use xlink:href="#DejaVuSans-5a" transform="translate(306.572266 0)"/>
     <use xlink:href="#DejaVuSans-75" transform="translate(375.078125 0)"/>
     <use xlink:href="#DejaVuSans-73" transform="translate(438.457031 0)"/>
     <use xlink:href="#DejaVuSans-74" transform="translate(490.556641 0)"/>
     <use xlink:href="#DejaVuSans-69" transform="translate(529.765625 0)"/>
     <use xlink:href="#DejaVuSans-6d" transform="translate(557.548828 0)"/>
     <use xlink:href="#DejaVuSans-6d" transform="translate(654.960938 0)"/>
     <use xlink:href="#DejaVuSans-75" transform="translate(752.373047 0)"/>
     <use xlink:href="#DejaVuSans-6e" transform="translate(815.751953 0)"/>
     <use xlink:href="#DejaVuSans-67" transform="translate(879.130859 0)"/>
    </g>
   </g>
   <g id="text_2">
    <!-- 16% -->
    <g transform="translate(658.384564 164.90078) scale(0.12 -0.12)">
     <defs>
      <path id="DejaVuSans-36" d="M 2113 2584 
Q 1688 2584 1439 2293 
Q 1191 2003 1191 1497 
Q 1191 994 1439 701 
Q 1688 409 2113 409 
Q 2538 409 2786 701 
Q 3034 994 3034 1497 
Q 3034 2003 2786 2293 
Q 2538 2584 2113 2584 
z
M 3366 4563 
L 3366 3988 
Q 3128 4100 2886 4159 
Q 2644 4219 2406 4219 
Q 1781 4219 1451 3797 
Q 1122 3375 1075 2522 
Q 1259 2794 1537 2939 
Q 1816 3084 2150 3084 
Q 2853 3084 3261 2657 
Q 3669 2231 3669 1497 
Q 3669 778 3244 343 
Q 2819 -91 2113 -91 
Q 1303 -91 875 529 
Q 447 1150 447 2328 
Q 447 3434 972 4092 
Q 1497 4750 2381 4750 
Q 2619 4750 2861 4703 
Q 3103 4656 3366 4563 
z
" transform="scale(0.015625)"/>
     </defs>
     <use xlink:href="#DejaVuSans-31"/>
     <use xlink:href="#DejaVuSans-36" transform="translate(63.623047 0)"/>
     <use xlink:href="#DejaVuSans-25" transform="translate(127.246094 0)"/>
    </g>
    <!-- Geringe Zustimmung -->
    <g transform="translate(658.384564 178.338155) scale(0.12 -0.12)">
     <defs>
      <path id="DejaVuSans-47" d="M 3809 666 
L 3809 1919 
L 2778 1919 
L 2778 2438 
L 4434 2438 
L 4434 434 
Q 4069 175 3628 42 
Q 3188 -91 2688 -91 
Q 1594 -91 976 548 
Q 359 1188 359 2328 
Q 359 3472 976 4111 
Q 1594 4750 2688 4750 
Q 3144 4750 3555 4637 
Q 3966 4525 4313 4306 
L 4313 3634 
Q 3963 3931 3569 4081 
Q 3175 4231 2741 4231 
Q 1884 4231 1454 3753 
Q 1025 3275 1025 2328 
Q 1025 1384 1454 906 
Q 1884 428 2741 428 
Q 3075 428 3337 486 
Q 3600 544 3809 666 
z
" transform="scale(0.015625)"/>
      <path id="DejaVuSans-72" d="M 2631 2963 
Q 2534 3019 2420 3045 
Q 2306 3072 2169 3072 
Q 1681 3072 1420 2755 
Q 1159 2438 1159 1844 
L 1159 0 
L 581 0 
L 581 3500 
L 1159 3500 
L 1159 2956 
Q 1341 3275 1631 3429 
Q 1922 3584 2338 3584 
Q 2397 3584 2469 3576 
Q 2541 3569 2628 3553 
L 2631 2963 
z
" transform="scale(0.015625)"/>
     </defs>
     <use xlink:href="#DejaVuSans-47"/>
     <use xlink:href="#DejaVuSans-65" transform="translate(77.490234 0)"/>
     <use xlink:href="#DejaVuSans-72" transform="translate(139.013672 0)"/>
     <use xlink:href="#DejaVuSans-69" transform="translate(180.126953 0)"/>
     <use xlink:href="#DejaVuSans-6e" transform="translate(207.910156 0)"/>
     <use xlink:href="#DejaVuSans-67" transform="translate(271.289062 0)"/>
     <use xlink:href="#DejaVuSans-65" transform="translate(334.765625 0)"/>
     <use xlink:href="#DejaVuSans-20" transform="translate(396.289062 0)"/>
     <use xlink:href="#DejaVuSans-5a" transform="translate(428.076172 0)"/>
     <use xlink:href="#DejaVuSans-75" transform="translate(496.582031 0)"/>
     <use xlink:href="#DejaVuSans-73" transform="translate(559.960938 0)"/>
     <use xlink:href="#DejaVuSans-74" transform="translate(612.060547 0)"/>
     <use xlink:href="#DejaVuSans-69" transform="translate(651.269531 0)"/>
     <use xlink:href="#DejaVuSans-6d" transform="translate(679.052734 0)"/>
     <use xlink:href="#DejaVuSans-6d" transform="translate(776.464844 0)"/>
     <use xlink:href="#DejaVuSans-75" transform="translate(873.876953 0)"/>
     <use xlink:href="#DejaVuSans-6e" transform="translate(937.255859 0)"/>
     <use xlink:href="#DejaVuSans-67" transform="translate(1000.634766 0)"/>
    </g>
   </g>
   <g id="text_3">
    <!-- 20% -->
    <g transform="translate(637.48509 392.665619) scale(0.12 -0.12)">
     <defs>
      <path id="DejaVuSans-32" d="M 1228 531 
L 3431 531 
L 3431 0 
L 469 0 
L 469 531 
Q 828 903 1448 1529 
Q 2069 2156 2228 2338 
Q 2531 2678 2651 2914 
Q 2772 3150 2772 3378 
Q 2772 3750 2511 3984 
Q 2250 4219 1831 4219 
Q 1534 4219 1204 4116 
Q 875 4013 500 3803 
L 500 4441 
Q 881 4594 1212 4672 
Q 1544 4750 1819 4750 
Q 2544 4750 2975 4387 
Q 3406 4025 3406 3419 
Q 3406 3131 3298 2873 
Q 3191 2616 2906 2266 
Q 2828 2175 2409 1742 
Q 1991 1309 1228 531 
z
" transform="scale(0.015625)"/>
     </defs>
     <use xlink:href="#DejaVuSans-32"/>
     <use xlink:href="#DejaVuSans-30" transform="translate(63.623047 0)"/>
     <use xlink:href="#DejaVuSans-25" transform="translate(127.246094 0)"/>
    </g>
    <!-- Teilweise Zustimmung -->
    <g transform="translate(637.48509 406.102994) scale(0.12 -0.12)">
     <defs>
      <path id="DejaVuSans-54" d="M -19 4666 
L 3928 4666 
L 3928 4134 
L 2272 4134 
L 2272 0 
L 1638 0 
L 1638 4134 
L -19 4134 
L -19 4666 
z
" transform="scale(0.015625)"/>
      <path id="DejaVuSans-6c" d="M 603 4863 
L 1178 4863 
L 1178 0 
L 603 0 
L 603 4863 
z
" transform="scale(0.015625)"/>
      <path id="DejaVuSans-77" d="M 269 3500 
L 844 3500 
L 1563 769 
L 2278 3500 
L 2956 3500 
L 3675 769 
L 4391 3500 
L 4966 3500 
L 4050 0 
L 3372 0 
L 2619 2869 
L 1863 0 
L 1184 0 
L 269 3500 
z
" transform="scale(0.015625)"/>
     </defs>
     <use xlink:href="#DejaVuSans-54"/>
     <use xlink:href="#DejaVuSans-65" transform="translate(44.083984 0)"/>
     <use xlink:href="#DejaVuSans-69" transform="translate(105.607422 0)"/>
     <use xlink:href="#DejaVuSans-6c" transform="translate(133.390625 0)"/>
     <use xlink:href="#DejaVuSans-77" transform="translate(161.173828 0)"/>
     <use xlink:href="#DejaVuSans-65" transform="translate(242.960938 0)"/>
     <use xlink:href="#DejaVuSans-69" transform="translate(304.484375 0)"/>
     <use xlink:href="#DejaVuSans-73" transform="translate(332.267578 0)"/>
     <use xlink:href="#DejaVuSans-65" transform="translate(384.367188 0)"/>
     <use xlink:href="#DejaVuSans-20" transform="translate(445.890625 0)"/>
     <use xlink:href="#DejaVuSans-5a" transform="translate(477.677734 0)"/>
     <use xlink:href="#DejaVuSans-75" transform="translate(546.183594 0)"/>
     <use xlink:href="#DejaVuSans-73" transform="translate(609.5625 0)"/>
     <use xlink:href="#DejaVuSans-74" transform="translate(661.662109 0)"/>
     <use xlink:href="#DejaVuSans-69" transform="translate(700.871094 0)"/>
     <use xlink:href="#DejaVuSans-6d" transform="translate(728.654297 0)"/>
     <use xlink:href="#DejaVuSans-6d" transform="translate(826.066406 0)"/>
     <use xlink:href="#DejaVuSans-75" transform="translate(923.478516 0)"/>
     <use xlink:href="#DejaVuSans-6e" transform="translate(986.857422 0)"/>
     <use xlink:href="#DejaVuSans-67" transform="translate(1050.236328 0)"/>
    </g>
   </g>
   <g id="text_4">
    <!-- 20% -->
    <g transform="translate(364.796212 461.948326) scale(0.12 -0.12)">
     <use xlink:href="#DejaVuSans-32"/>
     <use xlink:href="#DejaVuSans-30" transform="translate(63.623047 0)"/>
     <use xlink:href="#DejaVuSans-25" transform="translate(127.246094 0)"/>
    </g>
    <!-- Hohe Zustimmung -->
    <g transform="translate(279.978712 475.385701) scale(0.12 -0.12)">
     <defs>
      <path id="DejaVuSans-48" d="M 628 4666 
L 1259 4666 
L 1259 2753 
L 3553 2753 
L 3553 4666 
L 4184 4666 
L 4184 0 
L 3553 0 
L 3553 2222 
L 1259 2222 
L 1259 0 
L 628 0 
L 628 4666 
z
" transform="scale(0.015625)"/>
      <path id="DejaVuSans-6f" d="M 1959 3097 
Q 1497 3097 1228 2736 
Q 959 2375 959 1747 
Q 959 1119 1226 758 
Q 1494 397 1959 397 
Q 2419 397 2687 759 
Q 2956 1122 2956 1747 
Q 2956 2369 2687 2733 
Q 2419 3097 1959 3097 
z
M 1959 3584 
Q 2709 3584 3137 3096 
Q 3566 2609 3566 1747 
Q 3566 888 3137 398 
Q 2709 -91 1959 -91 
Q 1206 -91 779 398 
Q 353 888 353 1747 
Q 353 2609 779 3096 
Q 1206 3584 1959 3584 
z
" transform="scale(0.015625)"/>
      <path id="DejaVuSans-68" d="M 3513 2113 
L 3513 0 
L 2938 0 
L 2938 2094 
Q 2938 2591 2744 2837 
Q 2550 3084 2163 3084 
Q 1697 3084 1428 2787 
Q 1159 2491 1159 1978 
L 1159 0 
L 581 0 
L 581 4863 
L 1159 4863 
L 1159 2956 
Q 1366 3272 1645 3428 
Q 1925 3584 2291 3584 
Q 2894 3584 3203 3211 
Q 3513 2838 3513 2113 
z
" transform="scale(0.015625)"/>
     </defs>
     <use xlink:href="#DejaVuSans-48"/>
     <use xlink:href="#DejaVuSans-6f" transform="translate(75.195312 0)"/>
     <use xlink:href="#DejaVuSans-68" transform="translate(136.376953 0)"/>
     <use xlink:href="#DejaVuSans-65" transform="translate(199.755859 0)"/>
     <use xlink:href="#DejaVuSans-20" transform="translate(261.279297 0)"/>
     <use xlink:href="#DejaVuSans-5a" transform="translate(293.066406 0)"/>
     <use xlink:href="#DejaVuSans-75" transform="translate(361.572266 0)"/>
     <use xlink:href="#DejaVuSans-73" transform="translate(424.951172 0)"/>
     <use xlink:href="#DejaVuSans-74" transform="translate(477.050781 0)"/>
     <use xlink:href="#DejaVuSans-69" transform="translate(516.259766 0)"/>
     <use xlink:href="#DejaVuSans-6d" transform="translate(544.042969 0)"/>
     <use xlink:href="#DejaVuSans-6d" transform="translate(641.455078 0)"/>
     <use xlink:href="#DejaVuSans-75" transform="translate(738.867188 0)"/>
     <use xlink:href="#DejaVuSans-6e" transform="translate(802.246094 0)"/>
     <use xlink:href="#DejaVuSans-67" transform="translate(865.625 0)"/>
    </g>
   </g>
   <g id="text_5">
    <!-- 6% -->
    <g transform="translate(250.477682 341.840605) scale(0.12 -0.12)">
     <use xlink:href="#DejaVuSans-36"/>
     <use xlink:href="#DejaVuSans-25" transform="translate(63.623047 0)"/>
    </g>
    <!-- Sehr hohe Zustimmung -->
    <g transform="translate(128.090807 355.27798) scale(0.12 -0.12)">
     <defs>
      <path id="DejaVuSans-53" d="M 3425 4513 
L 3425 3897 
Q 3066 4069 2747 4153 
Q 2428 4238 2131 4238 
Q 1616 4238 1336 4038 
Q 1056 3838 1056 3469 
Q 1056 3159 1242 3001 
Q 1428 2844 1947 2747 
L 2328 2669 
Q 3034 2534 3370 2195 
Q 3706 1856 3706 1288 
Q 3706 609 3251 259 
Q 2797 -91 1919 -91 
Q 1588 -91 1214 -16 
Q 841 59 441 206 
L 441 856 
Q 825 641 1194 531 
Q 1563 422 1919 422 
Q 2459 422 2753 634 
Q 3047 847 3047 1241 
Q 3047 1584 2836 1778 
Q 2625 1972 2144 2069 
L 1759 2144 
Q 1053 2284 737 2584 
Q 422 2884 422 3419 
Q 422 4038 858 4394 
Q 1294 4750 2059 4750 
Q 2388 4750 2728 4690 
Q 3069 4631 3425 4513 
z
" transform="scale(0.015625)"/>
     </defs>
     <use xlink:href="#DejaVuSans-53"/>
     <use xlink:href="#DejaVuSans-65" transform="translate(63.476562 0)"/>
     <use xlink:href="#DejaVuSans-68" transform="translate(125 0)"/>
     <use xlink:href="#DejaVuSans-72" transform="translate(188.378906 0)"/>
     <use xlink:href="#DejaVuSans-20" transform="translate(229.492188 0)"/>
     <use xlink:href="#DejaVuSans-68" transform="translate(261.279297 0)"/>
     <use xlink:href="#DejaVuSans-6f" transform="translate(324.658203 0)"/>
     <use xlink:href="#DejaVuSans-68" transform="translate(385.839844 0)"/>
     <use xlink:href="#DejaVuSans-65" transform="translate(449.21875 0)"/>
     <use xlink:href="#DejaVuSans-20" transform="translate(510.742188 0)"/>
     <use xlink:href="#DejaVuSans-5a" transform="translate(542.529297 0)"/>
     <use xlink:href="#DejaVuSans-75" transform="translate(611.035156 0)"/>
     <use xlink:href="#DejaVuSans-73" transform="translate(674.414062 0)"/>
     <use xlink:href="#DejaVuSans-74" transform="translate(726.513672 0)"/>
     <use xlink:href="#DejaVuSans-69" transform="translate(765.722656 0)"/>
     <use xlink:href="#DejaVuSans-6d" transform="translate(793.505859 0)"/>
     <use xlink:href="#DejaVuSans-6d" transform="translate(890.917969 0)"/>
     <use xlink:href="#DejaVuSans-75" transform="translate(988.330078 0)"/>
     <use xlink:href="#DejaVuSans-6e" transform="translate(1051.708984 0)"/>
     <use xlink:href="#DejaVuSans-67" transform="translate(1115.087891 0)"/>
    </g>
   </g>
   <g id="text_6">
    <!-- 28% -->
    <g transform="translate(275.898339 126.771507) scale(0.12 -0.12)">
     <defs>
      <path id="DejaVuSans-38" d="M 2034 2216 
Q 1584 2216 1326 1975 
Q 1069 1734 1069 1313 
Q 1069 891 1326 650 
Q 1584 409 2034 409 
Q 2484 409 2743 651 
Q 3003 894 3003 1313 
Q 3003 1734 2745 1975 
Q 2488 2216 2034 2216 
z
M 1403 2484 
Q 997 2584 770 2862 
Q 544 3141 544 3541 
Q 544 4100 942 4425 
Q 1341 4750 2034 4750 
Q 2731 4750 3128 4425 
Q 3525 4100 3525 3541 
Q 3525 3141 3298 2862 
Q 3072 2584 2669 2484 
Q 3125 2378 3379 2068 
Q 3634 1759 3634 1313 
Q 3634 634 3220 271 
Q 2806 -91 2034 -91 
Q 1263 -91 848 271 
Q 434 634 434 1313 
Q 434 1759 690 2068 
Q 947 2378 1403 2484 
z
M 1172 3481 
Q 1172 3119 1398 2916 
Q 1625 2713 2034 2713 
Q 2441 2713 2670 2916 
Q 2900 3119 2900 3481 
Q 2900 3844 2670 4047 
Q 2441 4250 2034 4250 
Q 1625 4250 1398 4047 
Q 1172 3844 1172 3481 
z
" transform="scale(0.015625)"/>
     </defs>
     <use xlink:href="#DejaVuSans-32"/>
     <use xlink:href="#DejaVuSans-38" transform="translate(63.623047 0)"/>
     <use xlink:href="#DejaVuSans-25" transform="translate(127.246094 0)"/>
    </g>
    <!-- Keine Antwort -->
    <g transform="translate(218.468964 140.208882) scale(0.12 -0.12)">
     <defs>
      <path id="DejaVuSans-41" d="M 2188 4044 
L 1331 1722 
L 3047 1722 
L 2188 4044 
z
M 1831 4666 
L 2547 4666 
L 4325 0 
L 3669 0 
L 3244 1197 
L 1141 1197 
L 716 0 
L 50 0 
L 1831 4666 
z
" transform="scale(0.015625)"/>
     </defs>
     <use xlink:href="#DejaVuSans-4b"/>
     <use xlink:href="#DejaVuSans-65" transform="translate(60.576172 0)"/>
     <use xlink:href="#DejaVuSans-69" transform="translate(122.099609 0)"/>
     <use xlink:href="#DejaVuSans-6e" transform="translate(149.882812 0)"/>
     <use xlink:href="#DejaVuSans-65" transform="translate(213.261719 0)"/>
     <use xlink:href="#DejaVuSans-20" transform="translate(274.785156 0)"/>
     <use xlink:href="#DejaVuSans-41" transform="translate(306.572266 0)"/>
     <use xlink:href="#DejaVuSans-6e" transform="translate(374.980469 0)"/>
     <use xlink:href="#DejaVuSans-74" transform="translate(438.359375 0)"/>
     <use xlink:href="#DejaVuSans-77" transform="translate(477.568359 0)"/>
     <use xlink:href="#DejaVuSans-6f" transform="translate(559.355469 0)"/>
     <use xlink:href="#DejaVuSans-72" transform="translate(620.537109 0)"/>
     <use xlink:href="#DejaVuSans-74" transform="translate(661.650391 0)"/>
    </g>
   </g>
  </g>
  <g id="text_7">
   <!-- "Fehlende oder verzögerte Umsetzung von Kreislaufwirtschaftsanforderungen kann zu Reputationsverlusten führen, die die Marktstellung schwächen." -->
   <g transform="translate(14.285625 22.078125) scale(0.12 -0.12)">
    <defs>
     <path id="DejaVuSans-22" d="M 1147 4666 
L 1147 2931 
L 616 2931 
L 616 4666 
L 1147 4666 
z
M 2328 4666 
L 2328 2931 
L 1797 2931 
L 1797 4666 
L 2328 4666 
z
" transform="scale(0.015625)"/>
     <path id="DejaVuSans-46" d="M 628 4666 
L 3309 4666 
L 3309 4134 
L 1259 4134 
L 1259 2759 
L 3109 2759 
L 3109 2228 
L 1259 2228 
L 1259 0 
L 628 0 
L 628 4666 
z
" transform="scale(0.015625)"/>
     <path id="DejaVuSans-64" d="M 2906 2969 
L 2906 4863 
L 3481 4863 
L 3481 0 
L 2906 0 
L 2906 525 
Q 2725 213 2448 61 
Q 2172 -91 1784 -91 
Q 1150 -91 751 415 
Q 353 922 353 1747 
Q 353 2572 751 3078 
Q 1150 3584 1784 3584 
Q 2172 3584 2448 3432 
Q 2725 3281 2906 2969 
z
M 947 1747 
Q 947 1113 1208 752 
Q 1469 391 1925 391 
Q 2381 391 2643 752 
Q 2906 1113 2906 1747 
Q 2906 2381 2643 2742 
Q 2381 3103 1925 3103 
Q 1469 3103 1208 2742 
Q 947 2381 947 1747 
z
" transform="scale(0.015625)"/>
     <path id="DejaVuSans-76" d="M 191 3500 
L 800 3500 
L 1894 563 
L 2988 3500 
L 3597 3500 
L 2284 0 
L 1503 0 
L 191 3500 
z
" transform="scale(0.015625)"/>
     <path id="DejaVuSans-7a" d="M 353 3500 
L 3084 3500 
L 3084 2975 
L 922 459 
L 3084 459 
L 3084 0 
L 275 0 
L 275 525 
L 2438 3041 
L 353 3041 
L 353 3500 
z
" transform="scale(0.015625)"/>
     <path id="DejaVuSans-f6" d="M 1959 3097 
Q 1497 3097 1228 2736 
Q 959 2375 959 1747 
Q 959 1119 1226 758 
Q 1494 397 1959 397 
Q 2419 397 2687 759 
Q 2956 1122 2956 1747 
Q 2956 2369 2687 2733 
Q 2419 3097 1959 3097 
z
M 1959 3584 
Q 2709 3584 3137 3096 
Q 3566 2609 3566 1747 
Q 3566 888 3137 398 
Q 2709 -91 1959 -91 
Q 1206 -91 779 398 
Q 353 888 353 1747 
Q 353 2609 779 3096 
Q 1206 3584 1959 3584 
z
M 2254 4850 
L 2888 4850 
L 2888 4219 
L 2254 4219 
L 2254 4850 
z
M 1032 4850 
L 1666 4850 
L 1666 4219 
L 1032 4219 
L 1032 4850 
z
" transform="scale(0.015625)"/>
     <path id="DejaVuSans-55" d="M 556 4666 
L 1191 4666 
L 1191 1831 
Q 1191 1081 1462 751 
Q 1734 422 2344 422 
Q 2950 422 3222 751 
Q 3494 1081 3494 1831 
L 3494 4666 
L 4128 4666 
L 4128 1753 
Q 4128 841 3676 375 
Q 3225 -91 2344 -91 
Q 1459 -91 1007 375 
Q 556 841 556 1753 
L 556 4666 
z
" transform="scale(0.015625)"/>
     <path id="DejaVuSans-61" d="M 2194 1759 
Q 1497 1759 1228 1600 
Q 959 1441 959 1056 
Q 959 750 1161 570 
Q 1363 391 1709 391 
Q 2188 391 2477 730 
Q 2766 1069 2766 1631 
L 2766 1759 
L 2194 1759 
z
M 3341 1997 
L 3341 0 
L 2766 0 
L 2766 531 
Q 2569 213 2275 61 
Q 1981 -91 1556 -91 
Q 1019 -91 701 211 
Q 384 513 384 1019 
Q 384 1609 779 1909 
Q 1175 2209 1959 2209 
L 2766 2209 
L 2766 2266 
Q 2766 2663 2505 2880 
Q 2244 3097 1772 3097 
Q 1472 3097 1187 3025 
Q 903 2953 641 2809 
L 641 3341 
Q 956 3463 1253 3523 
Q 1550 3584 1831 3584 
Q 2591 3584 2966 3190 
Q 3341 2797 3341 1997 
z
" transform="scale(0.015625)"/>
     <path id="DejaVuSans-66" d="M 2375 4863 
L 2375 4384 
L 1825 4384 
Q 1516 4384 1395 4259 
Q 1275 4134 1275 3809 
L 1275 3500 
L 2222 3500 
L 2222 3053 
L 1275 3053 
L 1275 0 
L 697 0 
L 697 3053 
L 147 3053 
L 147 3500 
L 697 3500 
L 697 3744 
Q 697 4328 969 4595 
Q 1241 4863 1831 4863 
L 2375 4863 
z
" transform="scale(0.015625)"/>
     <path id="DejaVuSans-63" d="M 3122 3366 
L 3122 2828 
Q 2878 2963 2633 3030 
Q 2388 3097 2138 3097 
Q 1578 3097 1268 2742 
Q 959 2388 959 1747 
Q 959 1106 1268 751 
Q 1578 397 2138 397 
Q 2388 397 2633 464 
Q 2878 531 3122 666 
L 3122 134 
Q 2881 22 2623 -34 
Q 2366 -91 2075 -91 
Q 1284 -91 818 406 
Q 353 903 353 1747 
Q 353 2603 823 3093 
Q 1294 3584 2113 3584 
Q 2378 3584 2631 3529 
Q 2884 3475 3122 3366 
z
" transform="scale(0.015625)"/>
     <path id="DejaVuSans-6b" d="M 581 4863 
L 1159 4863 
L 1159 1991 
L 2875 3500 
L 3609 3500 
L 1753 1863 
L 3688 0 
L 2938 0 
L 1159 1709 
L 1159 0 
L 581 0 
L 581 4863 
z
" transform="scale(0.015625)"/>
     <path id="DejaVuSans-52" d="M 2841 2188 
Q 3044 2119 3236 1894 
Q 3428 1669 3622 1275 
L 4263 0 
L 3584 0 
L 2988 1197 
Q 2756 1666 2539 1819 
Q 2322 1972 1947 1972 
L 1259 1972 
L 1259 0 
L 628 0 
L 628 4666 
L 2053 4666 
Q 2853 4666 3247 4331 
Q 3641 3997 3641 3322 
Q 3641 2881 3436 2590 
Q 3231 2300 2841 2188 
z
M 1259 4147 
L 1259 2491 
L 2053 2491 
Q 2509 2491 2742 2702 
Q 2975 2913 2975 3322 
Q 2975 3731 2742 3939 
Q 2509 4147 2053 4147 
L 1259 4147 
z
" transform="scale(0.015625)"/>
     <path id="DejaVuSans-70" d="M 1159 525 
L 1159 -1331 
L 581 -1331 
L 581 3500 
L 1159 3500 
L 1159 2969 
Q 1341 3281 1617 3432 
Q 1894 3584 2278 3584 
Q 2916 3584 3314 3078 
Q 3713 2572 3713 1747 
Q 3713 922 3314 415 
Q 2916 -91 2278 -91 
Q 1894 -91 1617 61 
Q 1341 213 1159 525 
z
M 3116 1747 
Q 3116 2381 2855 2742 
Q 2594 3103 2138 3103 
Q 1681 3103 1420 2742 
Q 1159 2381 1159 1747 
Q 1159 1113 1420 752 
Q 1681 391 2138 391 
Q 2594 391 2855 752 
Q 3116 1113 3116 1747 
z
" transform="scale(0.015625)"/>
     <path id="DejaVuSans-fc" d="M 544 1381 
L 544 3500 
L 1119 3500 
L 1119 1403 
Q 1119 906 1312 657 
Q 1506 409 1894 409 
Q 2359 409 2629 706 
Q 2900 1003 2900 1516 
L 2900 3500 
L 3475 3500 
L 3475 0 
L 2900 0 
L 2900 538 
Q 2691 219 2414 64 
Q 2138 -91 1772 -91 
Q 1169 -91 856 284 
Q 544 659 544 1381 
z
M 1991 3584 
L 1991 3584 
z
M 2278 4850 
L 2912 4850 
L 2912 4219 
L 2278 4219 
L 2278 4850 
z
M 1056 4850 
L 1690 4850 
L 1690 4219 
L 1056 4219 
L 1056 4850 
z
" transform="scale(0.015625)"/>
     <path id="DejaVuSans-2c" d="M 750 794 
L 1409 794 
L 1409 256 
L 897 -744 
L 494 -744 
L 750 256 
L 750 794 
z
" transform="scale(0.015625)"/>
     <path id="DejaVuSans-4d" d="M 628 4666 
L 1569 4666 
L 2759 1491 
L 3956 4666 
L 4897 4666 
L 4897 0 
L 4281 0 
L 4281 4097 
L 3078 897 
L 2444 897 
L 1241 4097 
L 1241 0 
L 628 0 
L 628 4666 
z
" transform="scale(0.015625)"/>
     <path id="DejaVuSans-e4" d="M 2194 1759 
Q 1497 1759 1228 1600 
Q 959 1441 959 1056 
Q 959 750 1161 570 
Q 1363 391 1709 391 
Q 2188 391 2477 730 
Q 2766 1069 2766 1631 
L 2766 1759 
L 2194 1759 
z
M 3341 1997 
L 3341 0 
L 2766 0 
L 2766 531 
Q 2569 213 2275 61 
Q 1981 -91 1556 -91 
Q 1019 -91 701 211 
Q 384 513 384 1019 
Q 384 1609 779 1909 
Q 1175 2209 1959 2209 
L 2766 2209 
L 2766 2266 
Q 2766 2663 2505 2880 
Q 2244 3097 1772 3097 
Q 1472 3097 1187 3025 
Q 903 2953 641 2809 
L 641 3341 
Q 956 3463 1253 3523 
Q 1550 3584 1831 3584 
Q 2591 3584 2966 3190 
Q 3341 2797 3341 1997 
z
M 2150 4850 
L 2784 4850 
L 2784 4219 
L 2150 4219 
L 2150 4850 
z
M 928 4850 
L 1562 4850 
L 1562 4219 
L 928 4219 
L 928 4850 
z
" transform="scale(0.015625)"/>
     <path id="DejaVuSans-2e" d="M 684 794 
L 1344 794 
L 1344 0 
L 684 0 
L 684 794 
z
" transform="scale(0.015625)"/>
    </defs>
    <use xlink:href="#DejaVuSans-22"/>
    <use xlink:href="#DejaVuSans-46" transform="translate(45.996094 0)"/>
    <use xlink:href="#DejaVuSans-65" transform="translate(98.015625 0)"/>
    <use xlink:href="#DejaVuSans-68" transform="translate(159.539062 0)"/>
    <use xlink:href="#DejaVuSans-6c" transform="translate(222.917969 0)"/>
    <use xlink:href="#DejaVuSans-65" transform="translate(250.701172 0)"/>
    <use xlink:href="#DejaVuSans-6e" transform="translate(312.224609 0)"/>
    <use xlink:href="#DejaVuSans-64" transform="translate(375.603516 0)"/>
    <use xlink:href="#DejaVuSans-65" transform="translate(439.080078 0)"/>
    <use xlink:href="#DejaVuSans-20" transform="translate(500.603516 0)"/>
    <use xlink:href="#DejaVuSans-6f" transform="translate(532.390625 0)"/>
    <use xlink:href="#DejaVuSans-64" transform="translate(593.572266 0)"/>
    <use xlink:href="#DejaVuSans-65" transform="translate(657.048828 0)"/>
    <use xlink:href="#DejaVuSans-72" transform="translate(718.572266 0)"/>
    <use xlink:href="#DejaVuSans-20" transform="translate(759.685547 0)"/>
    <use xlink:href="#DejaVuSans-76" transform="translate(791.472656 0)"/>
    <use xlink:href="#DejaVuSans-65" transform="translate(850.652344 0)"/>
    <use xlink:href="#DejaVuSans-72" transform="translate(912.175781 0)"/>
    <use xlink:href="#DejaVuSans-7a" transform="translate(953.289062 0)"/>
    <use xlink:href="#DejaVuSans-f6" transform="translate(1005.779297 0)"/>
    <use xlink:href="#DejaVuSans-67" transform="translate(1066.960938 0)"/>
    <use xlink:href="#DejaVuSans-65" transform="translate(1130.4375 0)"/>
    <use xlink:href="#DejaVuSans-72" transform="translate(1191.960938 0)"/>
    <use xlink:href="#DejaVuSans-74" transform="translate(1233.074219 0)"/>
    <use xlink:href="#DejaVuSans-65" transform="translate(1272.283203 0)"/>
    <use xlink:href="#DejaVuSans-20" transform="translate(1333.806641 0)"/>
    <use xlink:href="#DejaVuSans-55" transform="translate(1365.59375 0)"/>
    <use xlink:href="#DejaVuSans-6d" transform="translate(1438.787109 0)"/>
    <use xlink:href="#DejaVuSans-73" transform="translate(1536.199219 0)"/>
    <use xlink:href="#DejaVuSans-65" transform="translate(1588.298828 0)"/>
    <use xlink:href="#DejaVuSans-74" transform="translate(1649.822266 0)"/>
    <use xlink:href="#DejaVuSans-7a" transform="translate(1689.03125 0)"/>
    <use xlink:href="#DejaVuSans-75" transform="translate(1741.521484 0)"/>
    <use xlink:href="#DejaVuSans-6e" transform="translate(1804.900391 0)"/>
    <use xlink:href="#DejaVuSans-67" transform="translate(1868.279297 0)"/>
    <use xlink:href="#DejaVuSans-20" transform="translate(1931.755859 0)"/>
    <use xlink:href="#DejaVuSans-76" transform="translate(1963.542969 0)"/>
    <use xlink:href="#DejaVuSans-6f" transform="translate(2022.722656 0)"/>
    <use xlink:href="#DejaVuSans-6e" transform="translate(2083.904297 0)"/>
    <use xlink:href="#DejaVuSans-20" transform="translate(2147.283203 0)"/>
    <use xlink:href="#DejaVuSans-4b" transform="translate(2179.070312 0)"/>
    <use xlink:href="#DejaVuSans-72" transform="translate(2244.646484 0)"/>
    <use xlink:href="#DejaVuSans-65" transform="translate(2283.509766 0)"/>
    <use xlink:href="#DejaVuSans-69" transform="translate(2345.033203 0)"/>
    <use xlink:href="#DejaVuSans-73" transform="translate(2372.816406 0)"/>
    <use xlink:href="#DejaVuSans-6c" transform="translate(2424.916016 0)"/>
    <use xlink:href="#DejaVuSans-61" transform="translate(2452.699219 0)"/>
    <use xlink:href="#DejaVuSans-75" transform="translate(2513.978516 0)"/>
    <use xlink:href="#DejaVuSans-66" transform="translate(2577.357422 0)"/>
    <use xlink:href="#DejaVuSans-77" transform="translate(2610.8125 0)"/>
    <use xlink:href="#DejaVuSans-69" transform="translate(2692.599609 0)"/>
    <use xlink:href="#DejaVuSans-72" transform="translate(2720.382812 0)"/>
    <use xlink:href="#DejaVuSans-74" transform="translate(2761.496094 0)"/>
    <use xlink:href="#DejaVuSans-73" transform="translate(2800.705078 0)"/>
    <use xlink:href="#DejaVuSans-63" transform="translate(2852.804688 0)"/>
    <use xlink:href="#DejaVuSans-68" transform="translate(2907.785156 0)"/>
    <use xlink:href="#DejaVuSans-61" transform="translate(2971.164062 0)"/>
    <use xlink:href="#DejaVuSans-66" transform="translate(3032.443359 0)"/>
    <use xlink:href="#DejaVuSans-74" transform="translate(3065.898438 0)"/>
    <use xlink:href="#DejaVuSans-73" transform="translate(3105.107422 0)"/>
    <use xlink:href="#DejaVuSans-61" transform="translate(3157.207031 0)"/>
    <use xlink:href="#DejaVuSans-6e" transform="translate(3218.486328 0)"/>
    <use xlink:href="#DejaVuSans-66" transform="translate(3281.865234 0)"/>
    <use xlink:href="#DejaVuSans-6f" transform="translate(3317.070312 0)"/>
    <use xlink:href="#DejaVuSans-72" transform="translate(3378.251953 0)"/>
    <use xlink:href="#DejaVuSans-64" transform="translate(3417.615234 0)"/>
    <use xlink:href="#DejaVuSans-65" transform="translate(3481.091797 0)"/>
    <use xlink:href="#DejaVuSans-72" transform="translate(3542.615234 0)"/>
    <use xlink:href="#DejaVuSans-75" transform="translate(3583.728516 0)"/>
    <use xlink:href="#DejaVuSans-6e" transform="translate(3647.107422 0)"/>
    <use xlink:href="#DejaVuSans-67" transform="translate(3710.486328 0)"/>
    <use xlink:href="#DejaVuSans-65" transform="translate(3773.962891 0)"/>
    <use xlink:href="#DejaVuSans-6e" transform="translate(3835.486328 0)"/>
    <use xlink:href="#DejaVuSans-20" transform="translate(3898.865234 0)"/>
    <use xlink:href="#DejaVuSans-6b" transform="translate(3930.652344 0)"/>
    <use xlink:href="#DejaVuSans-61" transform="translate(3986.8125 0)"/>
    <use xlink:href="#DejaVuSans-6e" transform="translate(4048.091797 0)"/>
    <use xlink:href="#DejaVuSans-6e" transform="translate(4111.470703 0)"/>
    <use xlink:href="#DejaVuSans-20" transform="translate(4174.849609 0)"/>
    <use xlink:href="#DejaVuSans-7a" transform="translate(4206.636719 0)"/>
    <use xlink:href="#DejaVuSans-75" transform="translate(4259.126953 0)"/>
    <use xlink:href="#DejaVuSans-20" transform="translate(4322.505859 0)"/>
    <use xlink:href="#DejaVuSans-52" transform="translate(4354.292969 0)"/>
    <use xlink:href="#DejaVuSans-65" transform="translate(4419.275391 0)"/>
    <use xlink:href="#DejaVuSans-70" transform="translate(4480.798828 0)"/>
    <use xlink:href="#DejaVuSans-75" transform="translate(4544.275391 0)"/>
    <use xlink:href="#DejaVuSans-74" transform="translate(4607.654297 0)"/>
    <use xlink:href="#DejaVuSans-61" transform="translate(4646.863281 0)"/>
    <use xlink:href="#DejaVuSans-74" transform="translate(4708.142578 0)"/>
    <use xlink:href="#DejaVuSans-69" transform="translate(4747.351562 0)"/>
    <use xlink:href="#DejaVuSans-6f" transform="translate(4775.134766 0)"/>
    <use xlink:href="#DejaVuSans-6e" transform="translate(4836.316406 0)"/>
    <use xlink:href="#DejaVuSans-73" transform="translate(4899.695312 0)"/>
    <use xlink:href="#DejaVuSans-76" transform="translate(4951.794922 0)"/>
    <use xlink:href="#DejaVuSans-65" transform="translate(5010.974609 0)"/>
    <use xlink:href="#DejaVuSans-72" transform="translate(5072.498047 0)"/>
    <use xlink:href="#DejaVuSans-6c" transform="translate(5113.611328 0)"/>
    <use xlink:href="#DejaVuSans-75" transform="translate(5141.394531 0)"/>
    <use xlink:href="#DejaVuSans-73" transform="translate(5204.773438 0)"/>
    <use xlink:href="#DejaVuSans-74" transform="translate(5256.873047 0)"/>
    <use xlink:href="#DejaVuSans-65" transform="translate(5296.082031 0)"/>
    <use xlink:href="#DejaVuSans-6e" transform="translate(5357.605469 0)"/>
    <use xlink:href="#DejaVuSans-20" transform="translate(5420.984375 0)"/>
    <use xlink:href="#DejaVuSans-66" transform="translate(5452.771484 0)"/>
    <use xlink:href="#DejaVuSans-fc" transform="translate(5487.976562 0)"/>
    <use xlink:href="#DejaVuSans-68" transform="translate(5551.355469 0)"/>
    <use xlink:href="#DejaVuSans-72" transform="translate(5614.734375 0)"/>
    <use xlink:href="#DejaVuSans-65" transform="translate(5653.597656 0)"/>
    <use xlink:href="#DejaVuSans-6e" transform="translate(5715.121094 0)"/>
    <use xlink:href="#DejaVuSans-2c" transform="translate(5778.5 0)"/>
    <use xlink:href="#DejaVuSans-20" transform="translate(5810.287109 0)"/>
    <use xlink:href="#DejaVuSans-64" transform="translate(5842.074219 0)"/>
    <use xlink:href="#DejaVuSans-69" transform="translate(5905.550781 0)"/>
    <use xlink:href="#DejaVuSans-65" transform="translate(5933.333984 0)"/>
    <use xlink:href="#DejaVuSans-20" transform="translate(5994.857422 0)"/>
    <use xlink:href="#DejaVuSans-64" transform="translate(6026.644531 0)"/>
    <use xlink:href="#DejaVuSans-69" transform="translate(6090.121094 0)"/>
    <use xlink:href="#DejaVuSans-65" transform="translate(6117.904297 0)"/>
    <use xlink:href="#DejaVuSans-20" transform="translate(6179.427734 0)"/>
    <use xlink:href="#DejaVuSans-4d" transform="translate(6211.214844 0)"/>
    <use xlink:href="#DejaVuSans-61" transform="translate(6297.494141 0)"/>
    <use xlink:href="#DejaVuSans-72" transform="translate(6358.773438 0)"/>
    <use xlink:href="#DejaVuSans-6b" transform="translate(6399.886719 0)"/>
    <use xlink:href="#DejaVuSans-74" transform="translate(6457.796875 0)"/>
    <use xlink:href="#DejaVuSans-73" transform="translate(6497.005859 0)"/>
    <use xlink:href="#DejaVuSans-74" transform="translate(6549.105469 0)"/>
    <use xlink:href="#DejaVuSans-65" transform="translate(6588.314453 0)"/>
    <use xlink:href="#DejaVuSans-6c" transform="translate(6649.837891 0)"/>
    <use xlink:href="#DejaVuSans-6c" transform="translate(6677.621094 0)"/>
    <use xlink:href="#DejaVuSans-75" transform="translate(6705.404297 0)"/>
    <use xlink:href="#DejaVuSans-6e" transform="translate(6768.783203 0)"/>
    <use xlink:href="#DejaVuSans-67" transform="translate(6832.162109 0)"/>
    <use xlink:href="#DejaVuSans-20" transform="translate(6895.638672 0)"/>
    <use xlink:href="#DejaVuSans-73" transform="translate(6927.425781 0)"/>
    <use xlink:href="#DejaVuSans-63" transform="translate(6979.525391 0)"/>
    <use xlink:href="#DejaVuSans-68" transform="translate(7034.505859 0)"/>
    <use xlink:href="#DejaVuSans-77" transform="translate(7097.884766 0)"/>
    <use xlink:href="#DejaVuSans-e4" transform="translate(7179.671875 0)"/>
    <use xlink:href="#DejaVuSans-63" transform="translate(7240.951172 0)"/>
    <use xlink:href="#DejaVuSans-68" transform="translate(7295.931641 0)"/>
    <use xlink:href="#DejaVuSans-65" transform="translate(7359.310547 0)"/>
    <use xlink:href="#DejaVuSans-6e" transform="translate(7420.833984 0)"/>
    <use xlink:href="#DejaVuSans-2e" transform="translate(7484.212891 0)"/>
    <use xlink:href="#DejaVuSans-22" transform="translate(7516 0)"/>
   </g>
  </g>
  <g id="text_8">
   <!-- Abbildung 35f: Inwieweit stimmen Sie folgenden Aussagen zur -->
   <g transform="translate(280.25625 556.956563) scale(0.12 -0.12)">
    <defs>
     <path id="DejaVuSans-62" d="M 3116 1747 
Q 3116 2381 2855 2742 
Q 2594 3103 2138 3103 
Q 1681 3103 1420 2742 
Q 1159 2381 1159 1747 
Q 1159 1113 1420 752 
Q 1681 391 2138 391 
Q 2594 391 2855 752 
Q 3116 1113 3116 1747 
z
M 1159 2969 
Q 1341 3281 1617 3432 
Q 1894 3584 2278 3584 
Q 2916 3584 3314 3078 
Q 3713 2572 3713 1747 
Q 3713 922 3314 415 
Q 2916 -91 2278 -91 
Q 1894 -91 1617 61 
Q 1341 213 1159 525 
L 1159 0 
L 581 0 
L 581 4863 
L 1159 4863 
L 1159 2969 
z
" transform="scale(0.015625)"/>
     <path id="DejaVuSans-33" d="M 2597 2516 
Q 3050 2419 3304 2112 
Q 3559 1806 3559 1356 
Q 3559 666 3084 287 
Q 2609 -91 1734 -91 
Q 1441 -91 1130 -33 
Q 819 25 488 141 
L 488 750 
Q 750 597 1062 519 
Q 1375 441 1716 441 
Q 2309 441 2620 675 
Q 2931 909 2931 1356 
Q 2931 1769 2642 2001 
Q 2353 2234 1838 2234 
L 1294 2234 
L 1294 2753 
L 1863 2753 
Q 2328 2753 2575 2939 
Q 2822 3125 2822 3475 
Q 2822 3834 2567 4026 
Q 2313 4219 1838 4219 
Q 1578 4219 1281 4162 
Q 984 4106 628 3988 
L 628 4550 
Q 988 4650 1302 4700 
Q 1616 4750 1894 4750 
Q 2613 4750 3031 4423 
Q 3450 4097 3450 3541 
Q 3450 3153 3228 2886 
Q 3006 2619 2597 2516 
z
" transform="scale(0.015625)"/>
     <path id="DejaVuSans-35" d="M 691 4666 
L 3169 4666 
L 3169 4134 
L 1269 4134 
L 1269 2991 
Q 1406 3038 1543 3061 
Q 1681 3084 1819 3084 
Q 2600 3084 3056 2656 
Q 3513 2228 3513 1497 
Q 3513 744 3044 326 
Q 2575 -91 1722 -91 
Q 1428 -91 1123 -41 
Q 819 9 494 109 
L 494 744 
Q 775 591 1075 516 
Q 1375 441 1709 441 
Q 2250 441 2565 725 
Q 2881 1009 2881 1497 
Q 2881 1984 2565 2268 
Q 2250 2553 1709 2553 
Q 1456 2553 1204 2497 
Q 953 2441 691 2322 
L 691 4666 
z
" transform="scale(0.015625)"/>
     <path id="DejaVuSans-3a" d="M 750 794 
L 1409 794 
L 1409 0 
L 750 0 
L 750 794 
z
M 750 3309 
L 1409 3309 
L 1409 2516 
L 750 2516 
L 750 3309 
z
" transform="scale(0.015625)"/>
     <path id="DejaVuSans-49" d="M 628 4666 
L 1259 4666 
L 1259 0 
L 628 0 
L 628 4666 
z
" transform="scale(0.015625)"/>
    </defs>
    <use xlink:href="#DejaVuSans-41"/>
    <use xlink:href="#DejaVuSans-62" transform="translate(68.408203 0)"/>
    <use xlink:href="#DejaVuSans-62" transform="translate(131.884766 0)"/>
    <use xlink:href="#DejaVuSans-69" transform="translate(195.361328 0)"/>
    <use xlink:href="#DejaVuSans-6c" transform="translate(223.144531 0)"/>
    <use xlink:href="#DejaVuSans-64" transform="translate(250.927734 0)"/>
    <use xlink:href="#DejaVuSans-75" transform="translate(314.404297 0)"/>
    <use xlink:href="#DejaVuSans-6e" transform="translate(377.783203 0)"/>
    <use xlink:href="#DejaVuSans-67" transform="translate(441.162109 0)"/>
    <use xlink:href="#DejaVuSans-20" transform="translate(504.638672 0)"/>
    <use xlink:href="#DejaVuSans-33" transform="translate(536.425781 0)"/>
    <use xlink:href="#DejaVuSans-35" transform="translate(600.048828 0)"/>
    <use xlink:href="#DejaVuSans-66" transform="translate(663.671875 0)"/>
    <use xlink:href="#DejaVuSans-3a" transform="translate(695.251953 0)"/>
    <use xlink:href="#DejaVuSans-20" transform="translate(728.943359 0)"/>
    <use xlink:href="#DejaVuSans-49" transform="translate(760.730469 0)"/>
    <use xlink:href="#DejaVuSans-6e" transform="translate(790.222656 0)"/>
    <use xlink:href="#DejaVuSans-77" transform="translate(853.601562 0)"/>
    <use xlink:href="#DejaVuSans-69" transform="translate(935.388672 0)"/>
    <use xlink:href="#DejaVuSans-65" transform="translate(963.171875 0)"/>
    <use xlink:href="#DejaVuSans-77" transform="translate(1024.695312 0)"/>
    <use xlink:href="#DejaVuSans-65" transform="translate(1106.482422 0)"/>
    <use xlink:href="#DejaVuSans-69" transform="translate(1168.005859 0)"/>
    <use xlink:href="#DejaVuSans-74" transform="translate(1195.789062 0)"/>
    <use xlink:href="#DejaVuSans-20" transform="translate(1234.998047 0)"/>
    <use xlink:href="#DejaVuSans-73" transform="translate(1266.785156 0)"/>
    <use xlink:href="#DejaVuSans-74" transform="translate(1318.884766 0)"/>
    <use xlink:href="#DejaVuSans-69" transform="translate(1358.09375 0)"/>
    <use xlink:href="#DejaVuSans-6d" transform="translate(1385.876953 0)"/>
    <use xlink:href="#DejaVuSans-6d" transform="translate(1483.289062 0)"/>
    <use xlink:href="#DejaVuSans-65" transform="translate(1580.701172 0)"/>
    <use xlink:href="#DejaVuSans-6e" transform="translate(1642.224609 0)"/>
    <use xlink:href="#DejaVuSans-20" transform="translate(1705.603516 0)"/>
    <use xlink:href="#DejaVuSans-53" transform="translate(1737.390625 0)"/>
    <use xlink:href="#DejaVuSans-69" transform="translate(1800.867188 0)"/>
    <use xlink:href="#DejaVuSans-65" transform="translate(1828.650391 0)"/>
    <use xlink:href="#DejaVuSans-20" transform="translate(1890.173828 0)"/>
    <use xlink:href="#DejaVuSans-66" transform="translate(1921.960938 0)"/>
    <use xlink:href="#DejaVuSans-6f" transform="translate(1957.166016 0)"/>
    <use xlink:href="#DejaVuSans-6c" transform="translate(2018.347656 0)"/>
    <use xlink:href="#DejaVuSans-67" transform="translate(2046.130859 0)"/>
    <use xlink:href="#DejaVuSans-65" transform="translate(2109.607422 0)"/>
    <use xlink:href="#DejaVuSans-6e" transform="translate(2171.130859 0)"/>
    <use xlink:href="#DejaVuSans-64" transform="translate(2234.509766 0)"/>
    <use xlink:href="#DejaVuSans-65" transform="translate(2297.986328 0)"/>
    <use xlink:href="#DejaVuSans-6e" transform="translate(2359.509766 0)"/>
    <use xlink:href="#DejaVuSans-20" transform="translate(2422.888672 0)"/>
    <use xlink:href="#DejaVuSans-41" transform="translate(2454.675781 0)"/>
    <use xlink:href="#DejaVuSans-75" transform="translate(2523.083984 0)"/>
    <use xlink:href="#DejaVuSans-73" transform="translate(2586.462891 0)"/>
    <use xlink:href="#DejaVuSans-73" transform="translate(2638.5625 0)"/>
    <use xlink:href="#DejaVuSans-61" transform="translate(2690.662109 0)"/>
    <use xlink:href="#DejaVuSans-67" transform="translate(2751.941406 0)"/>
    <use xlink:href="#DejaVuSans-65" transform="translate(2815.417969 0)"/>
    <use xlink:href="#DejaVuSans-6e" transform="translate(2876.941406 0)"/>
    <use xlink:href="#DejaVuSans-20" transform="translate(2940.320312 0)"/>
    <use xlink:href="#DejaVuSans-7a" transform="translate(2972.107422 0)"/>
    <use xlink:href="#DejaVuSans-75" transform="translate(3024.597656 0)"/>
    <use xlink:href="#DejaVuSans-72" transform="translate(3087.976562 0)"/>
   </g>
   <!-- Umsetzung von Kreislaufwirtschaft bezogen auf die -->
   <g transform="translate(313.528125 569.482125) scale(0.12 -0.12)">
    <use xlink:href="#DejaVuSans-55"/>
    <use xlink:href="#DejaVuSans-6d" transform="translate(73.193359 0)"/>
    <use xlink:href="#DejaVuSans-73" transform="translate(170.605469 0)"/>
    <use xlink:href="#DejaVuSans-65" transform="translate(222.705078 0)"/>
    <use xlink:href="#DejaVuSans-74" transform="translate(284.228516 0)"/>
    <use xlink:href="#DejaVuSans-7a" transform="translate(323.4375 0)"/>
    <use xlink:href="#DejaVuSans-75" transform="translate(375.927734 0)"/>
    <use xlink:href="#DejaVuSans-6e" transform="translate(439.306641 0)"/>
    <use xlink:href="#DejaVuSans-67" transform="translate(502.685547 0)"/>
    <use xlink:href="#DejaVuSans-20" transform="translate(566.162109 0)"/>
    <use xlink:href="#DejaVuSans-76" transform="translate(597.949219 0)"/>
    <use xlink:href="#DejaVuSans-6f" transform="translate(657.128906 0)"/>
    <use xlink:href="#DejaVuSans-6e" transform="translate(718.310547 0)"/>
    <use xlink:href="#DejaVuSans-20" transform="translate(781.689453 0)"/>
    <use xlink:href="#DejaVuSans-4b" transform="translate(813.476562 0)"/>
    <use xlink:href="#DejaVuSans-72" transform="translate(879.052734 0)"/>
    <use xlink:href="#DejaVuSans-65" transform="translate(917.916016 0)"/>
    <use xlink:href="#DejaVuSans-69" transform="translate(979.439453 0)"/>
    <use xlink:href="#DejaVuSans-73" transform="translate(1007.222656 0)"/>
    <use xlink:href="#DejaVuSans-6c" transform="translate(1059.322266 0)"/>
    <use xlink:href="#DejaVuSans-61" transform="translate(1087.105469 0)"/>
    <use xlink:href="#DejaVuSans-75" transform="translate(1148.384766 0)"/>
    <use xlink:href="#DejaVuSans-66" transform="translate(1211.763672 0)"/>
    <use xlink:href="#DejaVuSans-77" transform="translate(1245.21875 0)"/>
    <use xlink:href="#DejaVuSans-69" transform="translate(1327.005859 0)"/>
    <use xlink:href="#DejaVuSans-72" transform="translate(1354.789062 0)"/>
    <use xlink:href="#DejaVuSans-74" transform="translate(1395.902344 0)"/>
    <use xlink:href="#DejaVuSans-73" transform="translate(1435.111328 0)"/>
    <use xlink:href="#DejaVuSans-63" transform="translate(1487.210938 0)"/>
    <use xlink:href="#DejaVuSans-68" transform="translate(1542.191406 0)"/>
    <use xlink:href="#DejaVuSans-61" transform="translate(1605.570312 0)"/>
    <use xlink:href="#DejaVuSans-66" transform="translate(1666.849609 0)"/>
    <use xlink:href="#DejaVuSans-74" transform="translate(1700.304688 0)"/>
    <use xlink:href="#DejaVuSans-20" transform="translate(1739.513672 0)"/>
    <use xlink:href="#DejaVuSans-62" transform="translate(1771.300781 0)"/>
    <use xlink:href="#DejaVuSans-65" transform="translate(1834.777344 0)"/>
    <use xlink:href="#DejaVuSans-7a" transform="translate(1896.300781 0)"/>
    <use xlink:href="#DejaVuSans-6f" transform="translate(1948.791016 0)"/>
    <use xlink:href="#DejaVuSans-67" transform="translate(2009.972656 0)"/>
    <use xlink:href="#DejaVuSans-65" transform="translate(2073.449219 0)"/>
    <use xlink:href="#DejaVuSans-6e" transform="translate(2134.972656 0)"/>
    <use xlink:href="#DejaVuSans-20" transform="translate(2198.351562 0)"/>
    <use xlink:href="#DejaVuSans-61" transform="translate(2230.138672 0)"/>
    <use xlink:href="#DejaVuSans-75" transform="translate(2291.417969 0)"/>
    <use xlink:href="#DejaVuSans-66" transform="translate(2354.796875 0)"/>
    <use xlink:href="#DejaVuSans-20" transform="translate(2390.001953 0)"/>
    <use xlink:href="#DejaVuSans-64" transform="translate(2421.789062 0)"/>
    <use xlink:href="#DejaVuSans-69" transform="translate(2485.265625 0)"/>
    <use xlink:href="#DejaVuSans-65" transform="translate(2513.048828 0)"/>
   </g>
   <!-- Wettbewerbsfähigkeit aus der Sicht Ihres Unternehmens zu? – -->
   <g transform="translate(281.41875 582.007687) scale(0.12 -0.12)">
    <defs>
     <path id="DejaVuSans-57" d="M 213 4666 
L 850 4666 
L 1831 722 
L 2809 4666 
L 3519 4666 
L 4500 722 
L 5478 4666 
L 6119 4666 
L 4947 0 
L 4153 0 
L 3169 4050 
L 2175 0 
L 1381 0 
L 213 4666 
z
" transform="scale(0.015625)"/>
     <path id="DejaVuSans-3f" d="M 1222 794 
L 1856 794 
L 1856 0 
L 1222 0 
L 1222 794 
z
M 1838 1253 
L 1241 1253 
L 1241 1734 
Q 1241 2050 1328 2253 
Q 1416 2456 1697 2725 
L 1978 3003 
Q 2156 3169 2236 3316 
Q 2316 3463 2316 3616 
Q 2316 3894 2111 4066 
Q 1906 4238 1569 4238 
Q 1322 4238 1042 4128 
Q 763 4019 459 3809 
L 459 4397 
Q 753 4575 1054 4662 
Q 1356 4750 1678 4750 
Q 2253 4750 2601 4447 
Q 2950 4144 2950 3647 
Q 2950 3409 2837 3195 
Q 2725 2981 2444 2713 
L 2169 2444 
Q 2022 2297 1961 2214 
Q 1900 2131 1875 2053 
Q 1856 1988 1847 1894 
Q 1838 1800 1838 1638 
L 1838 1253 
z
" transform="scale(0.015625)"/>
     <path id="DejaVuSans-2013" d="M 313 1978 
L 2888 1978 
L 2888 1528 
L 313 1528 
L 313 1978 
z
" transform="scale(0.015625)"/>
    </defs>
    <use xlink:href="#DejaVuSans-57"/>
    <use xlink:href="#DejaVuSans-65" transform="translate(93.001953 0)"/>
    <use xlink:href="#DejaVuSans-74" transform="translate(154.525391 0)"/>
    <use xlink:href="#DejaVuSans-74" transform="translate(193.734375 0)"/>
    <use xlink:href="#DejaVuSans-62" transform="translate(232.943359 0)"/>
    <use xlink:href="#DejaVuSans-65" transform="translate(296.419922 0)"/>
    <use xlink:href="#DejaVuSans-77" transform="translate(357.943359 0)"/>
    <use xlink:href="#DejaVuSans-65" transform="translate(439.730469 0)"/>
    <use xlink:href="#DejaVuSans-72" transform="translate(501.253906 0)"/>
    <use xlink:href="#DejaVuSans-62" transform="translate(542.367188 0)"/>
    <use xlink:href="#DejaVuSans-73" transform="translate(605.84375 0)"/>
    <use xlink:href="#DejaVuSans-66" transform="translate(657.943359 0)"/>
    <use xlink:href="#DejaVuSans-e4" transform="translate(693.148438 0)"/>
    <use xlink:href="#DejaVuSans-68" transform="translate(754.427734 0)"/>
    <use xlink:href="#DejaVuSans-69" transform="translate(817.806641 0)"/>
    <use xlink:href="#DejaVuSans-67" transform="translate(845.589844 0)"/>
    <use xlink:href="#DejaVuSans-6b" transform="translate(909.066406 0)"/>
    <use xlink:href="#DejaVuSans-65" transform="translate(963.351562 0)"/>
    <use xlink:href="#DejaVuSans-69" transform="translate(1024.875 0)"/>
    <use xlink:href="#DejaVuSans-74" transform="translate(1052.658203 0)"/>
    <use xlink:href="#DejaVuSans-20" transform="translate(1091.867188 0)"/>
    <use xlink:href="#DejaVuSans-61" transform="translate(1123.654297 0)"/>
    <use xlink:href="#DejaVuSans-75" transform="translate(1184.933594 0)"/>
    <use xlink:href="#DejaVuSans-73" transform="translate(1248.3125 0)"/>
    <use xlink:href="#DejaVuSans-20" transform="translate(1300.412109 0)"/>
    <use xlink:href="#DejaVuSans-64" transform="translate(1332.199219 0)"/>
    <use xlink:href="#DejaVuSans-65" transform="translate(1395.675781 0)"/>
    <use xlink:href="#DejaVuSans-72" transform="translate(1457.199219 0)"/>
    <use xlink:href="#DejaVuSans-20" transform="translate(1498.3125 0)"/>
    <use xlink:href="#DejaVuSans-53" transform="translate(1530.099609 0)"/>
    <use xlink:href="#DejaVuSans-69" transform="translate(1593.576172 0)"/>
    <use xlink:href="#DejaVuSans-63" transform="translate(1621.359375 0)"/>
    <use xlink:href="#DejaVuSans-68" transform="translate(1676.339844 0)"/>
    <use xlink:href="#DejaVuSans-74" transform="translate(1739.71875 0)"/>
    <use xlink:href="#DejaVuSans-20" transform="translate(1778.927734 0)"/>
    <use xlink:href="#DejaVuSans-49" transform="translate(1810.714844 0)"/>
    <use xlink:href="#DejaVuSans-68" transform="translate(1840.207031 0)"/>
    <use xlink:href="#DejaVuSans-72" transform="translate(1903.585938 0)"/>
    <use xlink:href="#DejaVuSans-65" transform="translate(1942.449219 0)"/>
    <use xlink:href="#DejaVuSans-73" transform="translate(2003.972656 0)"/>
    <use xlink:href="#DejaVuSans-20" transform="translate(2056.072266 0)"/>
    <use xlink:href="#DejaVuSans-55" transform="translate(2087.859375 0)"/>
    <use xlink:href="#DejaVuSans-6e" transform="translate(2161.052734 0)"/>
    <use xlink:href="#DejaVuSans-74" transform="translate(2224.431641 0)"/>
    <use xlink:href="#DejaVuSans-65" transform="translate(2263.640625 0)"/>
    <use xlink:href="#DejaVuSans-72" transform="translate(2325.164062 0)"/>
    <use xlink:href="#DejaVuSans-6e" transform="translate(2364.527344 0)"/>
    <use xlink:href="#DejaVuSans-65" transform="translate(2427.90625 0)"/>
    <use xlink:href="#DejaVuSans-68" transform="translate(2489.429688 0)"/>
    <use xlink:href="#DejaVuSans-6d" transform="translate(2552.808594 0)"/>
    <use xlink:href="#DejaVuSans-65" transform="translate(2650.220703 0)"/>
    <use xlink:href="#DejaVuSans-6e" transform="translate(2711.744141 0)"/>
    <use xlink:href="#DejaVuSans-73" transform="translate(2775.123047 0)"/>
    <use xlink:href="#DejaVuSans-20" transform="translate(2827.222656 0)"/>
    <use xlink:href="#DejaVuSans-7a" transform="translate(2859.009766 0)"/>
    <use xlink:href="#DejaVuSans-75" transform="translate(2911.5 0)"/>
    <use xlink:href="#DejaVuSans-3f" transform="translate(2974.878906 0)"/>
    <use xlink:href="#DejaVuSans-20" transform="translate(3027.955078 0)"/>
    <use xlink:href="#DejaVuSans-2013" transform="translate(3059.742188 0)"/>
   </g>
   <!-- "Fehlende oder verzögerte Umsetzung von -->
   <g transform="translate(339.16125 594.53325) scale(0.12 -0.12)">
    <use xlink:href="#DejaVuSans-22"/>
    <use xlink:href="#DejaVuSans-46" transform="translate(45.996094 0)"/>
    <use xlink:href="#DejaVuSans-65" transform="translate(98.015625 0)"/>
    <use xlink:href="#DejaVuSans-68" transform="translate(159.539062 0)"/>
    <use xlink:href="#DejaVuSans-6c" transform="translate(222.917969 0)"/>
    <use xlink:href="#DejaVuSans-65" transform="translate(250.701172 0)"/>
    <use xlink:href="#DejaVuSans-6e" transform="translate(312.224609 0)"/>
    <use xlink:href="#DejaVuSans-64" transform="translate(375.603516 0)"/>
    <use xlink:href="#DejaVuSans-65" transform="translate(439.080078 0)"/>
    <use xlink:href="#DejaVuSans-20" transform="translate(500.603516 0)"/>
    <use xlink:href="#DejaVuSans-6f" transform="translate(532.390625 0)"/>
    <use xlink:href="#DejaVuSans-64" transform="translate(593.572266 0)"/>
    <use xlink:href="#DejaVuSans-65" transform="translate(657.048828 0)"/>
    <use xlink:href="#DejaVuSans-72" transform="translate(718.572266 0)"/>
    <use xlink:href="#DejaVuSans-20" transform="translate(759.685547 0)"/>
    <use xlink:href="#DejaVuSans-76" transform="translate(791.472656 0)"/>
    <use xlink:href="#DejaVuSans-65" transform="translate(850.652344 0)"/>
    <use xlink:href="#DejaVuSans-72" transform="translate(912.175781 0)"/>
    <use xlink:href="#DejaVuSans-7a" transform="translate(953.289062 0)"/>
    <use xlink:href="#DejaVuSans-f6" transform="translate(1005.779297 0)"/>
    <use xlink:href="#DejaVuSans-67" transform="translate(1066.960938 0)"/>
    <use xlink:href="#DejaVuSans-65" transform="translate(1130.4375 0)"/>
    <use xlink:href="#DejaVuSans-72" transform="translate(1191.960938 0)"/>
    <use xlink:href="#DejaVuSans-74" transform="translate(1233.074219 0)"/>
    <use xlink:href="#DejaVuSans-65" transform="translate(1272.283203 0)"/>
    <use xlink:href="#DejaVuSans-20" transform="translate(1333.806641 0)"/>
    <use xlink:href="#DejaVuSans-55" transform="translate(1365.59375 0)"/>
    <use xlink:href="#DejaVuSans-6d" transform="translate(1438.787109 0)"/>
    <use xlink:href="#DejaVuSans-73" transform="translate(1536.199219 0)"/>
    <use xlink:href="#DejaVuSans-65" transform="translate(1588.298828 0)"/>
    <use xlink:href="#DejaVuSans-74" transform="translate(1649.822266 0)"/>
    <use xlink:href="#DejaVuSans-7a" transform="translate(1689.03125 0)"/>
    <use xlink:href="#DejaVuSans-75" transform="translate(1741.521484 0)"/>
    <use xlink:href="#DejaVuSans-6e" transform="translate(1804.900391 0)"/>
    <use xlink:href="#DejaVuSans-67" transform="translate(1868.279297 0)"/>
    <use xlink:href="#DejaVuSans-20" transform="translate(1931.755859 0)"/>
    <use xlink:href="#DejaVuSans-76" transform="translate(1963.542969 0)"/>
    <use xlink:href="#DejaVuSans-6f" transform="translate(2022.722656 0)"/>
    <use xlink:href="#DejaVuSans-6e" transform="translate(2083.904297 0)"/>
   </g>
   <!-- Kreislaufwirtschaftsanforderungen kann zu Reputationsverlusten -->
   <g transform="translate(273.489375 607.058813) scale(0.12 -0.12)">
    <use xlink:href="#DejaVuSans-4b"/>
    <use xlink:href="#DejaVuSans-72" transform="translate(65.576172 0)"/>
    <use xlink:href="#DejaVuSans-65" transform="translate(104.439453 0)"/>
    <use xlink:href="#DejaVuSans-69" transform="translate(165.962891 0)"/>
    <use xlink:href="#DejaVuSans-73" transform="translate(193.746094 0)"/>
    <use xlink:href="#DejaVuSans-6c" transform="translate(245.845703 0)"/>
    <use xlink:href="#DejaVuSans-61" transform="translate(273.628906 0)"/>
    <use xlink:href="#DejaVuSans-75" transform="translate(334.908203 0)"/>
    <use xlink:href="#DejaVuSans-66" transform="translate(398.287109 0)"/>
    <use xlink:href="#DejaVuSans-77" transform="translate(431.742188 0)"/>
    <use xlink:href="#DejaVuSans-69" transform="translate(513.529297 0)"/>
    <use xlink:href="#DejaVuSans-72" transform="translate(541.3125 0)"/>
    <use xlink:href="#DejaVuSans-74" transform="translate(582.425781 0)"/>
    <use xlink:href="#DejaVuSans-73" transform="translate(621.634766 0)"/>
    <use xlink:href="#DejaVuSans-63" transform="translate(673.734375 0)"/>
    <use xlink:href="#DejaVuSans-68" transform="translate(728.714844 0)"/>
    <use xlink:href="#DejaVuSans-61" transform="translate(792.09375 0)"/>
    <use xlink:href="#DejaVuSans-66" transform="translate(853.373047 0)"/>
    <use xlink:href="#DejaVuSans-74" transform="translate(886.828125 0)"/>
    <use xlink:href="#DejaVuSans-73" transform="translate(926.037109 0)"/>
    <use xlink:href="#DejaVuSans-61" transform="translate(978.136719 0)"/>
    <use xlink:href="#DejaVuSans-6e" transform="translate(1039.416016 0)"/>
    <use xlink:href="#DejaVuSans-66" transform="translate(1102.794922 0)"/>
    <use xlink:href="#DejaVuSans-6f" transform="translate(1138 0)"/>
    <use xlink:href="#DejaVuSans-72" transform="translate(1199.181641 0)"/>
    <use xlink:href="#DejaVuSans-64" transform="translate(1238.544922 0)"/>
    <use xlink:href="#DejaVuSans-65" transform="translate(1302.021484 0)"/>
    <use xlink:href="#DejaVuSans-72" transform="translate(1363.544922 0)"/>
    <use xlink:href="#DejaVuSans-75" transform="translate(1404.658203 0)"/>
    <use xlink:href="#DejaVuSans-6e" transform="translate(1468.037109 0)"/>
    <use xlink:href="#DejaVuSans-67" transform="translate(1531.416016 0)"/>
    <use xlink:href="#DejaVuSans-65" transform="translate(1594.892578 0)"/>
    <use xlink:href="#DejaVuSans-6e" transform="translate(1656.416016 0)"/>
    <use xlink:href="#DejaVuSans-20" transform="translate(1719.794922 0)"/>
    <use xlink:href="#DejaVuSans-6b" transform="translate(1751.582031 0)"/>
    <use xlink:href="#DejaVuSans-61" transform="translate(1807.742188 0)"/>
    <use xlink:href="#DejaVuSans-6e" transform="translate(1869.021484 0)"/>
    <use xlink:href="#DejaVuSans-6e" transform="translate(1932.400391 0)"/>
    <use xlink:href="#DejaVuSans-20" transform="translate(1995.779297 0)"/>
    <use xlink:href="#DejaVuSans-7a" transform="translate(2027.566406 0)"/>
    <use xlink:href="#DejaVuSans-75" transform="translate(2080.056641 0)"/>
    <use xlink:href="#DejaVuSans-20" transform="translate(2143.435547 0)"/>
    <use xlink:href="#DejaVuSans-52" transform="translate(2175.222656 0)"/>
    <use xlink:href="#DejaVuSans-65" transform="translate(2240.205078 0)"/>
    <use xlink:href="#DejaVuSans-70" transform="translate(2301.728516 0)"/>
    <use xlink:href="#DejaVuSans-75" transform="translate(2365.205078 0)"/>
    <use xlink:href="#DejaVuSans-74" transform="translate(2428.583984 0)"/>
    <use xlink:href="#DejaVuSans-61" transform="translate(2467.792969 0)"/>
    <use xlink:href="#DejaVuSans-74" transform="translate(2529.072266 0)"/>
    <use xlink:href="#DejaVuSans-69" transform="translate(2568.28125 0)"/>
    <use xlink:href="#DejaVuSans-6f" transform="translate(2596.064453 0)"/>
    <use xlink:href="#DejaVuSans-6e" transform="translate(2657.246094 0)"/>
    <use xlink:href="#DejaVuSans-73" transform="translate(2720.625 0)"/>
    <use xlink:href="#DejaVuSans-76" transform="translate(2772.724609 0)"/>
    <use xlink:href="#DejaVuSans-65" transform="translate(2831.904297 0)"/>
    <use xlink:href="#DejaVuSans-72" transform="translate(2893.427734 0)"/>
    <use xlink:href="#DejaVuSans-6c" transform="translate(2934.541016 0)"/>
    <use xlink:href="#DejaVuSans-75" transform="translate(2962.324219 0)"/>
    <use xlink:href="#DejaVuSans-73" transform="translate(3025.703125 0)"/>
    <use xlink:href="#DejaVuSans-74" transform="translate(3077.802734 0)"/>
    <use xlink:href="#DejaVuSans-65" transform="translate(3117.011719 0)"/>
    <use xlink:href="#DejaVuSans-6e" transform="translate(3178.535156 0)"/>
   </g>
   <!-- führen, die die Marktstellung schwächen." -->
   <g transform="translate(341.44875 619.584375) scale(0.12 -0.12)">
    <use xlink:href="#DejaVuSans-66"/>
    <use xlink:href="#DejaVuSans-fc" transform="translate(35.205078 0)"/>
    <use xlink:href="#DejaVuSans-68" transform="translate(98.583984 0)"/>
    <use xlink:href="#DejaVuSans-72" transform="translate(161.962891 0)"/>
    <use xlink:href="#DejaVuSans-65" transform="translate(200.826172 0)"/>
    <use xlink:href="#DejaVuSans-6e" transform="translate(262.349609 0)"/>
    <use xlink:href="#DejaVuSans-2c" transform="translate(325.728516 0)"/>
    <use xlink:href="#DejaVuSans-20" transform="translate(357.515625 0)"/>
    <use xlink:href="#DejaVuSans-64" transform="translate(389.302734 0)"/>
    <use xlink:href="#DejaVuSans-69" transform="translate(452.779297 0)"/>
    <use xlink:href="#DejaVuSans-65" transform="translate(480.5625 0)"/>
    <use xlink:href="#DejaVuSans-20" transform="translate(542.085938 0)"/>
    <use xlink:href="#DejaVuSans-64" transform="translate(573.873047 0)"/>
    <use xlink:href="#DejaVuSans-69" transform="translate(637.349609 0)"/>
    <use xlink:href="#DejaVuSans-65" transform="translate(665.132812 0)"/>
    <use xlink:href="#DejaVuSans-20" transform="translate(726.65625 0)"/>
    <use xlink:href="#DejaVuSans-4d" transform="translate(758.443359 0)"/>
    <use xlink:href="#DejaVuSans-61" transform="translate(844.722656 0)"/>
    <use xlink:href="#DejaVuSans-72" transform="translate(906.001953 0)"/>
    <use xlink:href="#DejaVuSans-6b" transform="translate(947.115234 0)"/>
    <use xlink:href="#DejaVuSans-74" transform="translate(1005.025391 0)"/>
    <use xlink:href="#DejaVuSans-73" transform="translate(1044.234375 0)"/>
    <use xlink:href="#DejaVuSans-74" transform="translate(1096.333984 0)"/>
    <use xlink:href="#DejaVuSans-65" transform="translate(1135.542969 0)"/>
    <use xlink:href="#DejaVuSans-6c" transform="translate(1197.066406 0)"/>
    <use xlink:href="#DejaVuSans-6c" transform="translate(1224.849609 0)"/>
    <use xlink:href="#DejaVuSans-75" transform="translate(1252.632812 0)"/>
    <use xlink:href="#DejaVuSans-6e" transform="translate(1316.011719 0)"/>
    <use xlink:href="#DejaVuSans-67" transform="translate(1379.390625 0)"/>
    <use xlink:href="#DejaVuSans-20" transform="translate(1442.867188 0)"/>
    <use xlink:href="#DejaVuSans-73" transform="translate(1474.654297 0)"/>
    <use xlink:href="#DejaVuSans-63" transform="translate(1526.753906 0)"/>
    <use xlink:href="#DejaVuSans-68" transform="translate(1581.734375 0)"/>
    <use xlink:href="#DejaVuSans-77" transform="translate(1645.113281 0)"/>
    <use xlink:href="#DejaVuSans-e4" transform="translate(1726.900391 0)"/>
    <use xlink:href="#DejaVuSans-63" transform="translate(1788.179688 0)"/>
    <use xlink:href="#DejaVuSans-68" transform="translate(1843.160156 0)"/>
    <use xlink:href="#DejaVuSans-65" transform="translate(1906.539062 0)"/>
    <use xlink:href="#DejaVuSans-6e" transform="translate(1968.0625 0)"/>
    <use xlink:href="#DejaVuSans-2e" transform="translate(2031.441406 0)"/>
    <use xlink:href="#DejaVuSans-22" transform="translate(2063.228516 0)"/>
   </g>
  </g>
 </g>
 <defs>
  <clipPath id="p6b68a7d885">
   <rect x="254.16" y="51.84" width="427.68" height="427.68"/>
  </clipPath>
 </defs>
</svg>
