<?xml version="1.0" encoding="utf-8" standalone="no"?>
<!DOCTYPE svg PUBLIC "-//W3C//DTD SVG 1.1//EN"
  "http://www.w3.org/Graphics/SVG/1.1/DTD/svg11.dtd">
<svg xmlns:xlink="http://www.w3.org/1999/xlink" width="936pt" height="648pt" viewBox="0 0 936 648" xmlns="http://www.w3.org/2000/svg" version="1.1">
 <metadata>
  <rdf:RDF xmlns:dc="http://purl.org/dc/elements/1.1/" xmlns:cc="http://creativecommons.org/ns#" xmlns:rdf="http://www.w3.org/1999/02/22-rdf-syntax-ns#">
   <cc:Work>
    <dc:type rdf:resource="http://purl.org/dc/dcmitype/StillImage"/>
    <dc:date>2026-02-23T18:46:24.401113</dc:date>
    <dc:format>image/svg+xml</dc:format>
    <dc:creator>
     <cc:Agent>
      <dc:title>Matplotlib v3.10.8, https://matplotlib.org/</dc:title>
     </cc:Agent>
    </dc:creator>
   </cc:Work>
  </rdf:RDF>
 </metadata>
 <defs>
  <style type="text/css">*{stroke-linejoin: round; stroke-linecap: butt}</style>
 </defs>
 <g id="figure_1">
  <g id="patch_1">
   <path d="M 0 648 
L 936 648 
L 936 0 
L 0 0 
z
" style="fill: #ffffff"/>
  </g>
  <g id="axes_1">
   <g id="patch_2">
    <path d="M 538.850075 109.969062 
C 527.757805 104.921968 516.157912 101.074544 504.248084 98.492366 
C 492.338255 95.910188 480.186528 94.608 467.999993 94.608 
L 467.999995 154.4832 
C 475.921243 154.4832 483.819866 155.329622 491.561254 157.008038 
C 499.302643 158.686454 506.842573 161.187279 514.052549 164.467891 
z
" style="fill: #003b6a; stroke: #ffffff; stroke-linejoin: miter"/>
   </g>
   <g id="patch_3">
    <path d="M 624.773279 197.212727 
C 616.396783 178.032603 604.571126 160.551517 589.885033 145.639731 
C 575.198941 130.727944 557.900233 118.637081 538.850075 109.969062 
L 514.052549 164.467891 
C 526.435151 170.102103 537.679311 177.961164 547.225272 187.653825 
C 556.771232 197.346486 564.457909 208.709192 569.902632 221.176272 
z
" style="fill: #8fc73e; stroke: #ffffff; stroke-linejoin: miter"/>
   </g>
   <g id="patch_4">
    <path d="M 617.861242 348.185978 
C 630.498382 325.232275 637.694611 299.67909 638.892987 273.504027 
C 640.091363 247.328963 635.260163 221.225127 624.773279 197.212727 
L 569.902632 221.176272 
C 576.719106 236.784332 579.859386 253.751826 579.080442 270.765617 
C 578.301497 287.779408 573.623948 304.388979 565.409807 319.308886 
z
" style="fill: #dc912f; stroke: #ffffff; stroke-linejoin: miter"/>
   </g>
   <g id="patch_5">
    <path d="M 383.218269 414.265626 
C 402.921014 425.507849 424.664514 432.71967 447.18038 435.480392 
C 469.696245 438.241124 492.537978 436.495982 514.37312 430.346819 
C 536.208262 424.197657 556.603816 413.766386 574.370032 399.661515 
C 592.136247 385.556643 606.920789 368.057876 617.861242 348.185978 
L 565.409807 319.308886 
C 558.298513 332.225619 548.688561 343.599818 537.140521 352.767985 
C 525.59248 361.936151 512.33537 368.716477 498.142528 372.713433 
C 483.949685 376.710388 469.10256 377.844731 454.467247 376.050255 
C 439.831934 374.255785 425.698659 369.568102 412.891875 362.260657 
z
" style="fill: #93bbdc; stroke: #ffffff; stroke-linejoin: miter"/>
   </g>
   <g id="patch_6">
    <path d="M 301.384574 226.886581 
C 293.031806 262.761204 296.48477 300.391831 311.226731 334.147299 
C 325.968691 367.902764 351.225719 396.010938 383.218269 414.265626 
L 412.891875 362.260657 
C 392.096717 350.39511 375.679649 332.124797 366.097375 310.183744 
C 356.515101 288.24269 354.270674 263.782782 359.699973 240.464278 
z
" style="fill: #f9c803; stroke: #ffffff; stroke-linejoin: miter"/>
   </g>
   <g id="patch_7">
    <path d="M 467.99992 94.608 
C 429.380496 94.60802 391.876234 107.685515 361.629968 131.698496 
C 331.383703 155.711476 310.142171 189.273225 301.384574 226.886581 
L 359.699973 240.464278 
C 365.392411 216.015596 379.199407 194.20046 398.859479 178.592022 
C 418.519552 162.983585 442.897322 154.483213 467.999948 154.4832 
z
" style="fill: #6283aa; stroke: #ffffff; stroke-linejoin: miter"/>
   </g>
   <g id="matplotlib.axis_1"/>
   <g id="matplotlib.axis_2"/>
   <g id="line2d_1">
    <path d="M 499.898313 118.554886 
L 507.872893 81.773595 
" clip-path="url(#p5c8d6e1f67)" style="fill: none; stroke: #000000; stroke-opacity: 0.35; stroke-linecap: square"/>
   </g>
   <g id="line2d_2">
    <path d="M 575.258826 160.044558 
L 602.07354 133.635693 
" clip-path="url(#p5c8d6e1f67)" style="fill: none; stroke: #000000; stroke-opacity: 0.35; stroke-linecap: square"/>
   </g>
   <g id="line2d_3">
    <path d="M 618.385831 272.565141 
L 655.982286 274.286426 
" clip-path="url(#p5c8d6e1f67)" style="fill: none; stroke: #000000; stroke-opacity: 0.35; stroke-linecap: square"/>
   </g>
   <g id="line2d_4">
    <path d="M 508.808345 410.586805 
L 519.010435 446.813498 
" clip-path="url(#p5c8d6e1f67)" style="fill: none; stroke: #000000; stroke-opacity: 0.35; stroke-linecap: square"/>
   </g>
   <g id="line2d_5">
    <path d="M 330.039535 325.931253 
L 295.549408 340.994067 
" clip-path="url(#p5c8d6e1f67)" style="fill: none; stroke: #000000; stroke-opacity: 0.35; stroke-linecap: square"/>
   </g>
   <g id="line2d_6">
    <path d="M 374.394373 147.776273 
L 350.992959 118.300346 
" clip-path="url(#p5c8d6e1f67)" style="fill: none; stroke: #000000; stroke-opacity: 0.35; stroke-linecap: square"/>
   </g>
   <g id="text_1">
    <!-- 7% -->
    <g transform="translate(513.310105 53.28802) scale(0.12 -0.12)">
     <defs>
      <path id="DejaVuSans-37" d="M 525 4666 
L 3525 4666 
L 3525 4397 
L 1831 0 
L 1172 0 
L 2766 4134 
L 525 4134 
L 525 4666 
z
" transform="scale(0.015625)"/>
      <path id="DejaVuSans-25" d="M 4653 2053 
Q 4381 2053 4226 1822 
Q 4072 1591 4072 1178 
Q 4072 772 4226 539 
Q 4381 306 4653 306 
Q 4919 306 5073 539 
Q 5228 772 5228 1178 
Q 5228 1588 5073 1820 
Q 4919 2053 4653 2053 
z
M 4653 2450 
Q 5147 2450 5437 2106 
Q 5728 1763 5728 1178 
Q 5728 594 5436 251 
Q 5144 -91 4653 -91 
Q 4153 -91 3862 251 
Q 3572 594 3572 1178 
Q 3572 1766 3864 2108 
Q 4156 2450 4653 2450 
z
M 1428 4353 
Q 1159 4353 1004 4120 
Q 850 3888 850 3481 
Q 850 3069 1003 2837 
Q 1156 2606 1428 2606 
Q 1700 2606 1854 2837 
Q 2009 3069 2009 3481 
Q 2009 3884 1853 4118 
Q 1697 4353 1428 4353 
z
M 4250 4750 
L 4750 4750 
L 1831 -91 
L 1331 -91 
L 4250 4750 
z
M 1428 4750 
Q 1922 4750 2215 4408 
Q 2509 4066 2509 3481 
Q 2509 2891 2217 2550 
Q 1925 2209 1428 2209 
Q 931 2209 642 2551 
Q 353 2894 353 3481 
Q 353 4063 643 4406 
Q 934 4750 1428 4750 
z
" transform="scale(0.015625)"/>
     </defs>
     <use xlink:href="#DejaVuSans-37"/>
     <use xlink:href="#DejaVuSans-25" transform="translate(63.623047 0)"/>
    </g>
    <!-- Keine Zustimmung -->
    <g transform="translate(513.310105 66.725395) scale(0.12 -0.12)">
     <defs>
      <path id="DejaVuSans-4b" d="M 628 4666 
L 1259 4666 
L 1259 2694 
L 3353 4666 
L 4166 4666 
L 1850 2491 
L 4331 0 
L 3500 0 
L 1259 2247 
L 1259 0 
L 628 0 
L 628 4666 
z
" transform="scale(0.015625)"/>
      <path id="DejaVuSans-65" d="M 3597 1894 
L 3597 1613 
L 953 1613 
Q 991 1019 1311 708 
Q 1631 397 2203 397 
Q 2534 397 2845 478 
Q 3156 559 3463 722 
L 3463 178 
Q 3153 47 2828 -22 
Q 2503 -91 2169 -91 
Q 1331 -91 842 396 
Q 353 884 353 1716 
Q 353 2575 817 3079 
Q 1281 3584 2069 3584 
Q 2775 3584 3186 3129 
Q 3597 2675 3597 1894 
z
M 3022 2063 
Q 3016 2534 2758 2815 
Q 2500 3097 2075 3097 
Q 1594 3097 1305 2825 
Q 1016 2553 972 2059 
L 3022 2063 
z
" transform="scale(0.015625)"/>
      <path id="DejaVuSans-69" d="M 603 3500 
L 1178 3500 
L 1178 0 
L 603 0 
L 603 3500 
z
M 603 4863 
L 1178 4863 
L 1178 4134 
L 603 4134 
L 603 4863 
z
" transform="scale(0.015625)"/>
      <path id="DejaVuSans-6e" d="M 3513 2113 
L 3513 0 
L 2938 0 
L 2938 2094 
Q 2938 2591 2744 2837 
Q 2550 3084 2163 3084 
Q 1697 3084 1428 2787 
Q 1159 2491 1159 1978 
L 1159 0 
L 581 0 
L 581 3500 
L 1159 3500 
L 1159 2956 
Q 1366 3272 1645 3428 
Q 1925 3584 2291 3584 
Q 2894 3584 3203 3211 
Q 3513 2838 3513 2113 
z
" transform="scale(0.015625)"/>
      <path id="DejaVuSans-20" transform="scale(0.015625)"/>
      <path id="DejaVuSans-5a" d="M 359 4666 
L 4025 4666 
L 4025 4184 
L 1075 531 
L 4097 531 
L 4097 0 
L 288 0 
L 288 481 
L 3238 4134 
L 359 4134 
L 359 4666 
z
" transform="scale(0.015625)"/>
      <path id="DejaVuSans-75" d="M 544 1381 
L 544 3500 
L 1119 3500 
L 1119 1403 
Q 1119 906 1312 657 
Q 1506 409 1894 409 
Q 2359 409 2629 706 
Q 2900 1003 2900 1516 
L 2900 3500 
L 3475 3500 
L 3475 0 
L 2900 0 
L 2900 538 
Q 2691 219 2414 64 
Q 2138 -91 1772 -91 
Q 1169 -91 856 284 
Q 544 659 544 1381 
z
M 1991 3584 
L 1991 3584 
z
" transform="scale(0.015625)"/>
      <path id="DejaVuSans-73" d="M 2834 3397 
L 2834 2853 
Q 2591 2978 2328 3040 
Q 2066 3103 1784 3103 
Q 1356 3103 1142 2972 
Q 928 2841 928 2578 
Q 928 2378 1081 2264 
Q 1234 2150 1697 2047 
L 1894 2003 
Q 2506 1872 2764 1633 
Q 3022 1394 3022 966 
Q 3022 478 2636 193 
Q 2250 -91 1575 -91 
Q 1294 -91 989 -36 
Q 684 19 347 128 
L 347 722 
Q 666 556 975 473 
Q 1284 391 1588 391 
Q 1994 391 2212 530 
Q 2431 669 2431 922 
Q 2431 1156 2273 1281 
Q 2116 1406 1581 1522 
L 1381 1569 
Q 847 1681 609 1914 
Q 372 2147 372 2553 
Q 372 3047 722 3315 
Q 1072 3584 1716 3584 
Q 2034 3584 2315 3537 
Q 2597 3491 2834 3397 
z
" transform="scale(0.015625)"/>
      <path id="DejaVuSans-74" d="M 1172 4494 
L 1172 3500 
L 2356 3500 
L 2356 3053 
L 1172 3053 
L 1172 1153 
Q 1172 725 1289 603 
Q 1406 481 1766 481 
L 2356 481 
L 2356 0 
L 1766 0 
Q 1100 0 847 248 
Q 594 497 594 1153 
L 594 3053 
L 172 3053 
L 172 3500 
L 594 3500 
L 594 4494 
L 1172 4494 
z
" transform="scale(0.015625)"/>
      <path id="DejaVuSans-6d" d="M 3328 2828 
Q 3544 3216 3844 3400 
Q 4144 3584 4550 3584 
Q 5097 3584 5394 3201 
Q 5691 2819 5691 2113 
L 5691 0 
L 5113 0 
L 5113 2094 
Q 5113 2597 4934 2840 
Q 4756 3084 4391 3084 
Q 3944 3084 3684 2787 
Q 3425 2491 3425 1978 
L 3425 0 
L 2847 0 
L 2847 2094 
Q 2847 2600 2669 2842 
Q 2491 3084 2119 3084 
Q 1678 3084 1418 2786 
Q 1159 2488 1159 1978 
L 1159 0 
L 581 0 
L 581 3500 
L 1159 3500 
L 1159 2956 
Q 1356 3278 1631 3431 
Q 1906 3584 2284 3584 
Q 2666 3584 2933 3390 
Q 3200 3197 3328 2828 
z
" transform="scale(0.015625)"/>
      <path id="DejaVuSans-67" d="M 2906 1791 
Q 2906 2416 2648 2759 
Q 2391 3103 1925 3103 
Q 1463 3103 1205 2759 
Q 947 2416 947 1791 
Q 947 1169 1205 825 
Q 1463 481 1925 481 
Q 2391 481 2648 825 
Q 2906 1169 2906 1791 
z
M 3481 434 
Q 3481 -459 3084 -895 
Q 2688 -1331 1869 -1331 
Q 1566 -1331 1297 -1286 
Q 1028 -1241 775 -1147 
L 775 -588 
Q 1028 -725 1275 -790 
Q 1522 -856 1778 -856 
Q 2344 -856 2625 -561 
Q 2906 -266 2906 331 
L 2906 616 
Q 2728 306 2450 153 
Q 2172 0 1784 0 
Q 1141 0 747 490 
Q 353 981 353 1791 
Q 353 2603 747 3093 
Q 1141 3584 1784 3584 
Q 2172 3584 2450 3431 
Q 2728 3278 2906 2969 
L 2906 3500 
L 3481 3500 
L 3481 434 
z
" transform="scale(0.015625)"/>
     </defs>
     <use xlink:href="#DejaVuSans-4b"/>
     <use xlink:href="#DejaVuSans-65" transform="translate(60.576172 0)"/>
     <use xlink:href="#DejaVuSans-69" transform="translate(122.099609 0)"/>
     <use xlink:href="#DejaVuSans-6e" transform="translate(149.882812 0)"/>
     <use xlink:href="#DejaVuSans-65" transform="translate(213.261719 0)"/>
     <use xlink:href="#DejaVuSans-20" transform="translate(274.785156 0)"/>
     <use xlink:href="#DejaVuSans-5a" transform="translate(306.572266 0)"/>
     <use xlink:href="#DejaVuSans-75" transform="translate(375.078125 0)"/>
     <use xlink:href="#DejaVuSans-73" transform="translate(438.457031 0)"/>
     <use xlink:href="#DejaVuSans-74" transform="translate(490.556641 0)"/>
     <use xlink:href="#DejaVuSans-69" transform="translate(529.765625 0)"/>
     <use xlink:href="#DejaVuSans-6d" transform="translate(557.548828 0)"/>
     <use xlink:href="#DejaVuSans-6d" transform="translate(654.960938 0)"/>
     <use xlink:href="#DejaVuSans-75" transform="translate(752.373047 0)"/>
     <use xlink:href="#DejaVuSans-6e" transform="translate(815.751953 0)"/>
     <use xlink:href="#DejaVuSans-67" transform="translate(879.130859 0)"/>
    </g>
   </g>
   <g id="text_2">
    <!-- 12% -->
    <g transform="translate(620.356289 112.222213) scale(0.12 -0.12)">
     <defs>
      <path id="DejaVuSans-31" d="M 794 531 
L 1825 531 
L 1825 4091 
L 703 3866 
L 703 4441 
L 1819 4666 
L 2450 4666 
L 2450 531 
L 3481 531 
L 3481 0 
L 794 0 
L 794 531 
z
" transform="scale(0.015625)"/>
      <path id="DejaVuSans-32" d="M 1228 531 
L 3431 531 
L 3431 0 
L 469 0 
L 469 531 
Q 828 903 1448 1529 
Q 2069 2156 2228 2338 
Q 2531 2678 2651 2914 
Q 2772 3150 2772 3378 
Q 2772 3750 2511 3984 
Q 2250 4219 1831 4219 
Q 1534 4219 1204 4116 
Q 875 4013 500 3803 
L 500 4441 
Q 881 4594 1212 4672 
Q 1544 4750 1819 4750 
Q 2544 4750 2975 4387 
Q 3406 4025 3406 3419 
Q 3406 3131 3298 2873 
Q 3191 2616 2906 2266 
Q 2828 2175 2409 1742 
Q 1991 1309 1228 531 
z
" transform="scale(0.015625)"/>
     </defs>
     <use xlink:href="#DejaVuSans-31"/>
     <use xlink:href="#DejaVuSans-32" transform="translate(63.623047 0)"/>
     <use xlink:href="#DejaVuSans-25" transform="translate(127.246094 0)"/>
    </g>
    <!-- Geringe Zustimmung -->
    <g transform="translate(620.356289 125.659588) scale(0.12 -0.12)">
     <defs>
      <path id="DejaVuSans-47" d="M 3809 666 
L 3809 1919 
L 2778 1919 
L 2778 2438 
L 4434 2438 
L 4434 434 
Q 4069 175 3628 42 
Q 3188 -91 2688 -91 
Q 1594 -91 976 548 
Q 359 1188 359 2328 
Q 359 3472 976 4111 
Q 1594 4750 2688 4750 
Q 3144 4750 3555 4637 
Q 3966 4525 4313 4306 
L 4313 3634 
Q 3963 3931 3569 4081 
Q 3175 4231 2741 4231 
Q 1884 4231 1454 3753 
Q 1025 3275 1025 2328 
Q 1025 1384 1454 906 
Q 1884 428 2741 428 
Q 3075 428 3337 486 
Q 3600 544 3809 666 
z
" transform="scale(0.015625)"/>
      <path id="DejaVuSans-72" d="M 2631 2963 
Q 2534 3019 2420 3045 
Q 2306 3072 2169 3072 
Q 1681 3072 1420 2755 
Q 1159 2438 1159 1844 
L 1159 0 
L 581 0 
L 581 3500 
L 1159 3500 
L 1159 2956 
Q 1341 3275 1631 3429 
Q 1922 3584 2338 3584 
Q 2397 3584 2469 3576 
Q 2541 3569 2628 3553 
L 2631 2963 
z
" transform="scale(0.015625)"/>
     </defs>
     <use xlink:href="#DejaVuSans-47"/>
     <use xlink:href="#DejaVuSans-65" transform="translate(77.490234 0)"/>
     <use xlink:href="#DejaVuSans-72" transform="translate(139.013672 0)"/>
     <use xlink:href="#DejaVuSans-69" transform="translate(180.126953 0)"/>
     <use xlink:href="#DejaVuSans-6e" transform="translate(207.910156 0)"/>
     <use xlink:href="#DejaVuSans-67" transform="translate(271.289062 0)"/>
     <use xlink:href="#DejaVuSans-65" transform="translate(334.765625 0)"/>
     <use xlink:href="#DejaVuSans-20" transform="translate(396.289062 0)"/>
     <use xlink:href="#DejaVuSans-5a" transform="translate(428.076172 0)"/>
     <use xlink:href="#DejaVuSans-75" transform="translate(496.582031 0)"/>
     <use xlink:href="#DejaVuSans-73" transform="translate(559.960938 0)"/>
     <use xlink:href="#DejaVuSans-74" transform="translate(612.060547 0)"/>
     <use xlink:href="#DejaVuSans-69" transform="translate(651.269531 0)"/>
     <use xlink:href="#DejaVuSans-6d" transform="translate(679.052734 0)"/>
     <use xlink:href="#DejaVuSans-6d" transform="translate(776.464844 0)"/>
     <use xlink:href="#DejaVuSans-75" transform="translate(873.876953 0)"/>
     <use xlink:href="#DejaVuSans-6e" transform="translate(937.255859 0)"/>
     <use xlink:href="#DejaVuSans-67" transform="translate(1000.634766 0)"/>
    </g>
   </g>
   <g id="text_3">
    <!-- 15% -->
    <g transform="translate(681.616244 272.052592) scale(0.12 -0.12)">
     <defs>
      <path id="DejaVuSans-35" d="M 691 4666 
L 3169 4666 
L 3169 4134 
L 1269 4134 
L 1269 2991 
Q 1406 3038 1543 3061 
Q 1681 3084 1819 3084 
Q 2600 3084 3056 2656 
Q 3513 2228 3513 1497 
Q 3513 744 3044 326 
Q 2575 -91 1722 -91 
Q 1428 -91 1123 -41 
Q 819 9 494 109 
L 494 744 
Q 775 591 1075 516 
Q 1375 441 1709 441 
Q 2250 441 2565 725 
Q 2881 1009 2881 1497 
Q 2881 1984 2565 2268 
Q 2250 2553 1709 2553 
Q 1456 2553 1204 2497 
Q 953 2441 691 2322 
L 691 4666 
z
" transform="scale(0.015625)"/>
     </defs>
     <use xlink:href="#DejaVuSans-31"/>
     <use xlink:href="#DejaVuSans-35" transform="translate(63.623047 0)"/>
     <use xlink:href="#DejaVuSans-25" transform="translate(127.246094 0)"/>
    </g>
    <!-- Teilweise Zustimmung -->
    <g transform="translate(681.616244 285.489967) scale(0.12 -0.12)">
     <defs>
      <path id="DejaVuSans-54" d="M -19 4666 
L 3928 4666 
L 3928 4134 
L 2272 4134 
L 2272 0 
L 1638 0 
L 1638 4134 
L -19 4134 
L -19 4666 
z
" transform="scale(0.015625)"/>
      <path id="DejaVuSans-6c" d="M 603 4863 
L 1178 4863 
L 1178 0 
L 603 0 
L 603 4863 
z
" transform="scale(0.015625)"/>
      <path id="DejaVuSans-77" d="M 269 3500 
L 844 3500 
L 1563 769 
L 2278 3500 
L 2956 3500 
L 3675 769 
L 4391 3500 
L 4966 3500 
L 4050 0 
L 3372 0 
L 2619 2869 
L 1863 0 
L 1184 0 
L 269 3500 
z
" transform="scale(0.015625)"/>
     </defs>
     <use xlink:href="#DejaVuSans-54"/>
     <use xlink:href="#DejaVuSans-65" transform="translate(44.083984 0)"/>
     <use xlink:href="#DejaVuSans-69" transform="translate(105.607422 0)"/>
     <use xlink:href="#DejaVuSans-6c" transform="translate(133.390625 0)"/>
     <use xlink:href="#DejaVuSans-77" transform="translate(161.173828 0)"/>
     <use xlink:href="#DejaVuSans-65" transform="translate(242.960938 0)"/>
     <use xlink:href="#DejaVuSans-69" transform="translate(304.484375 0)"/>
     <use xlink:href="#DejaVuSans-73" transform="translate(332.267578 0)"/>
     <use xlink:href="#DejaVuSans-65" transform="translate(384.367188 0)"/>
     <use xlink:href="#DejaVuSans-20" transform="translate(445.890625 0)"/>
     <use xlink:href="#DejaVuSans-5a" transform="translate(477.677734 0)"/>
     <use xlink:href="#DejaVuSans-75" transform="translate(546.183594 0)"/>
     <use xlink:href="#DejaVuSans-73" transform="translate(609.5625 0)"/>
     <use xlink:href="#DejaVuSans-74" transform="translate(661.662109 0)"/>
     <use xlink:href="#DejaVuSans-69" transform="translate(700.871094 0)"/>
     <use xlink:href="#DejaVuSans-6d" transform="translate(728.654297 0)"/>
     <use xlink:href="#DejaVuSans-6d" transform="translate(826.066406 0)"/>
     <use xlink:href="#DejaVuSans-75" transform="translate(923.478516 0)"/>
     <use xlink:href="#DejaVuSans-6e" transform="translate(986.857422 0)"/>
     <use xlink:href="#DejaVuSans-67" transform="translate(1050.236328 0)"/>
    </g>
   </g>
   <g id="text_4">
    <!-- 25% -->
    <g transform="translate(525.9664 468.106084) scale(0.12 -0.12)">
     <use xlink:href="#DejaVuSans-32"/>
     <use xlink:href="#DejaVuSans-35" transform="translate(63.623047 0)"/>
     <use xlink:href="#DejaVuSans-25" transform="translate(127.246094 0)"/>
    </g>
    <!-- Hohe Zustimmung -->
    <g transform="translate(525.9664 481.543459) scale(0.12 -0.12)">
     <defs>
      <path id="DejaVuSans-48" d="M 628 4666 
L 1259 4666 
L 1259 2753 
L 3553 2753 
L 3553 4666 
L 4184 4666 
L 4184 0 
L 3553 0 
L 3553 2222 
L 1259 2222 
L 1259 0 
L 628 0 
L 628 4666 
z
" transform="scale(0.015625)"/>
      <path id="DejaVuSans-6f" d="M 1959 3097 
Q 1497 3097 1228 2736 
Q 959 2375 959 1747 
Q 959 1119 1226 758 
Q 1494 397 1959 397 
Q 2419 397 2687 759 
Q 2956 1122 2956 1747 
Q 2956 2369 2687 2733 
Q 2419 3097 1959 3097 
z
M 1959 3584 
Q 2709 3584 3137 3096 
Q 3566 2609 3566 1747 
Q 3566 888 3137 398 
Q 2709 -91 1959 -91 
Q 1206 -91 779 398 
Q 353 888 353 1747 
Q 353 2609 779 3096 
Q 1206 3584 1959 3584 
z
" transform="scale(0.015625)"/>
      <path id="DejaVuSans-68" d="M 3513 2113 
L 3513 0 
L 2938 0 
L 2938 2094 
Q 2938 2591 2744 2837 
Q 2550 3084 2163 3084 
Q 1697 3084 1428 2787 
Q 1159 2491 1159 1978 
L 1159 0 
L 581 0 
L 581 4863 
L 1159 4863 
L 1159 2956 
Q 1366 3272 1645 3428 
Q 1925 3584 2291 3584 
Q 2894 3584 3203 3211 
Q 3513 2838 3513 2113 
z
" transform="scale(0.015625)"/>
     </defs>
     <use xlink:href="#DejaVuSans-48"/>
     <use xlink:href="#DejaVuSans-6f" transform="translate(75.195312 0)"/>
     <use xlink:href="#DejaVuSans-68" transform="translate(136.376953 0)"/>
     <use xlink:href="#DejaVuSans-65" transform="translate(199.755859 0)"/>
     <use xlink:href="#DejaVuSans-20" transform="translate(261.279297 0)"/>
     <use xlink:href="#DejaVuSans-5a" transform="translate(293.066406 0)"/>
     <use xlink:href="#DejaVuSans-75" transform="translate(361.572266 0)"/>
     <use xlink:href="#DejaVuSans-73" transform="translate(424.951172 0)"/>
     <use xlink:href="#DejaVuSans-74" transform="translate(477.050781 0)"/>
     <use xlink:href="#DejaVuSans-69" transform="translate(516.259766 0)"/>
     <use xlink:href="#DejaVuSans-6d" transform="translate(544.042969 0)"/>
     <use xlink:href="#DejaVuSans-6d" transform="translate(641.455078 0)"/>
     <use xlink:href="#DejaVuSans-75" transform="translate(738.867188 0)"/>
     <use xlink:href="#DejaVuSans-6e" transform="translate(802.246094 0)"/>
     <use xlink:href="#DejaVuSans-67" transform="translate(865.625 0)"/>
    </g>
   </g>
   <g id="text_5">
    <!-- 20% -->
    <g transform="translate(245.361549 347.856732) scale(0.12 -0.12)">
     <defs>
      <path id="DejaVuSans-30" d="M 2034 4250 
Q 1547 4250 1301 3770 
Q 1056 3291 1056 2328 
Q 1056 1369 1301 889 
Q 1547 409 2034 409 
Q 2525 409 2770 889 
Q 3016 1369 3016 2328 
Q 3016 3291 2770 3770 
Q 2525 4250 2034 4250 
z
M 2034 4750 
Q 2819 4750 3233 4129 
Q 3647 3509 3647 2328 
Q 3647 1150 3233 529 
Q 2819 -91 2034 -91 
Q 1250 -91 836 529 
Q 422 1150 422 2328 
Q 422 3509 836 4129 
Q 1250 4750 2034 4750 
z
" transform="scale(0.015625)"/>
     </defs>
     <use xlink:href="#DejaVuSans-32"/>
     <use xlink:href="#DejaVuSans-30" transform="translate(63.623047 0)"/>
     <use xlink:href="#DejaVuSans-25" transform="translate(127.246094 0)"/>
    </g>
    <!-- Sehr hohe Zustimmung -->
    <g transform="translate(130.609674 361.294107) scale(0.12 -0.12)">
     <defs>
      <path id="DejaVuSans-53" d="M 3425 4513 
L 3425 3897 
Q 3066 4069 2747 4153 
Q 2428 4238 2131 4238 
Q 1616 4238 1336 4038 
Q 1056 3838 1056 3469 
Q 1056 3159 1242 3001 
Q 1428 2844 1947 2747 
L 2328 2669 
Q 3034 2534 3370 2195 
Q 3706 1856 3706 1288 
Q 3706 609 3251 259 
Q 2797 -91 1919 -91 
Q 1588 -91 1214 -16 
Q 841 59 441 206 
L 441 856 
Q 825 641 1194 531 
Q 1563 422 1919 422 
Q 2459 422 2753 634 
Q 3047 847 3047 1241 
Q 3047 1584 2836 1778 
Q 2625 1972 2144 2069 
L 1759 2144 
Q 1053 2284 737 2584 
Q 422 2884 422 3419 
Q 422 4038 858 4394 
Q 1294 4750 2059 4750 
Q 2388 4750 2728 4690 
Q 3069 4631 3425 4513 
z
" transform="scale(0.015625)"/>
     </defs>
     <use xlink:href="#DejaVuSans-53"/>
     <use xlink:href="#DejaVuSans-65" transform="translate(63.476562 0)"/>
     <use xlink:href="#DejaVuSans-68" transform="translate(125 0)"/>
     <use xlink:href="#DejaVuSans-72" transform="translate(188.378906 0)"/>
     <use xlink:href="#DejaVuSans-20" transform="translate(229.492188 0)"/>
     <use xlink:href="#DejaVuSans-68" transform="translate(261.279297 0)"/>
     <use xlink:href="#DejaVuSans-6f" transform="translate(324.658203 0)"/>
     <use xlink:href="#DejaVuSans-68" transform="translate(385.839844 0)"/>
     <use xlink:href="#DejaVuSans-65" transform="translate(449.21875 0)"/>
     <use xlink:href="#DejaVuSans-20" transform="translate(510.742188 0)"/>
     <use xlink:href="#DejaVuSans-5a" transform="translate(542.529297 0)"/>
     <use xlink:href="#DejaVuSans-75" transform="translate(611.035156 0)"/>
     <use xlink:href="#DejaVuSans-73" transform="translate(674.414062 0)"/>
     <use xlink:href="#DejaVuSans-74" transform="translate(726.513672 0)"/>
     <use xlink:href="#DejaVuSans-69" transform="translate(765.722656 0)"/>
     <use xlink:href="#DejaVuSans-6d" transform="translate(793.505859 0)"/>
     <use xlink:href="#DejaVuSans-6d" transform="translate(890.917969 0)"/>
     <use xlink:href="#DejaVuSans-75" transform="translate(988.330078 0)"/>
     <use xlink:href="#DejaVuSans-6e" transform="translate(1051.708984 0)"/>
     <use xlink:href="#DejaVuSans-67" transform="translate(1115.087891 0)"/>
    </g>
   </g>
   <g id="text_6">
    <!-- 21% -->
    <g transform="translate(308.365586 94.795679) scale(0.12 -0.12)">
     <use xlink:href="#DejaVuSans-32"/>
     <use xlink:href="#DejaVuSans-31" transform="translate(63.623047 0)"/>
     <use xlink:href="#DejaVuSans-25" transform="translate(127.246094 0)"/>
    </g>
    <!-- Keine Antwort -->
    <g transform="translate(250.936211 108.233054) scale(0.12 -0.12)">
     <defs>
      <path id="DejaVuSans-41" d="M 2188 4044 
L 1331 1722 
L 3047 1722 
L 2188 4044 
z
M 1831 4666 
L 2547 4666 
L 4325 0 
L 3669 0 
L 3244 1197 
L 1141 1197 
L 716 0 
L 50 0 
L 1831 4666 
z
" transform="scale(0.015625)"/>
     </defs>
     <use xlink:href="#DejaVuSans-4b"/>
     <use xlink:href="#DejaVuSans-65" transform="translate(60.576172 0)"/>
     <use xlink:href="#DejaVuSans-69" transform="translate(122.099609 0)"/>
     <use xlink:href="#DejaVuSans-6e" transform="translate(149.882812 0)"/>
     <use xlink:href="#DejaVuSans-65" transform="translate(213.261719 0)"/>
     <use xlink:href="#DejaVuSans-20" transform="translate(274.785156 0)"/>
     <use xlink:href="#DejaVuSans-41" transform="translate(306.572266 0)"/>
     <use xlink:href="#DejaVuSans-6e" transform="translate(374.980469 0)"/>
     <use xlink:href="#DejaVuSans-74" transform="translate(438.359375 0)"/>
     <use xlink:href="#DejaVuSans-77" transform="translate(477.568359 0)"/>
     <use xlink:href="#DejaVuSans-6f" transform="translate(559.355469 0)"/>
     <use xlink:href="#DejaVuSans-72" transform="translate(620.537109 0)"/>
     <use xlink:href="#DejaVuSans-74" transform="translate(661.650391 0)"/>
    </g>
   </g>
  </g>
  <g id="text_7">
   <!-- "Zu detaillierte oder restriktive Vorgaben innerhalb der Kreislaufwirtschaft behindern technologische Innovationen und Produktvielfalt." -->
   <g transform="translate(61.29375 22.078125) scale(0.12 -0.12)">
    <defs>
     <path id="DejaVuSans-22" d="M 1147 4666 
L 1147 2931 
L 616 2931 
L 616 4666 
L 1147 4666 
z
M 2328 4666 
L 2328 2931 
L 1797 2931 
L 1797 4666 
L 2328 4666 
z
" transform="scale(0.015625)"/>
     <path id="DejaVuSans-64" d="M 2906 2969 
L 2906 4863 
L 3481 4863 
L 3481 0 
L 2906 0 
L 2906 525 
Q 2725 213 2448 61 
Q 2172 -91 1784 -91 
Q 1150 -91 751 415 
Q 353 922 353 1747 
Q 353 2572 751 3078 
Q 1150 3584 1784 3584 
Q 2172 3584 2448 3432 
Q 2725 3281 2906 2969 
z
M 947 1747 
Q 947 1113 1208 752 
Q 1469 391 1925 391 
Q 2381 391 2643 752 
Q 2906 1113 2906 1747 
Q 2906 2381 2643 2742 
Q 2381 3103 1925 3103 
Q 1469 3103 1208 2742 
Q 947 2381 947 1747 
z
" transform="scale(0.015625)"/>
     <path id="DejaVuSans-61" d="M 2194 1759 
Q 1497 1759 1228 1600 
Q 959 1441 959 1056 
Q 959 750 1161 570 
Q 1363 391 1709 391 
Q 2188 391 2477 730 
Q 2766 1069 2766 1631 
L 2766 1759 
L 2194 1759 
z
M 3341 1997 
L 3341 0 
L 2766 0 
L 2766 531 
Q 2569 213 2275 61 
Q 1981 -91 1556 -91 
Q 1019 -91 701 211 
Q 384 513 384 1019 
Q 384 1609 779 1909 
Q 1175 2209 1959 2209 
L 2766 2209 
L 2766 2266 
Q 2766 2663 2505 2880 
Q 2244 3097 1772 3097 
Q 1472 3097 1187 3025 
Q 903 2953 641 2809 
L 641 3341 
Q 956 3463 1253 3523 
Q 1550 3584 1831 3584 
Q 2591 3584 2966 3190 
Q 3341 2797 3341 1997 
z
" transform="scale(0.015625)"/>
     <path id="DejaVuSans-6b" d="M 581 4863 
L 1159 4863 
L 1159 1991 
L 2875 3500 
L 3609 3500 
L 1753 1863 
L 3688 0 
L 2938 0 
L 1159 1709 
L 1159 0 
L 581 0 
L 581 4863 
z
" transform="scale(0.015625)"/>
     <path id="DejaVuSans-76" d="M 191 3500 
L 800 3500 
L 1894 563 
L 2988 3500 
L 3597 3500 
L 2284 0 
L 1503 0 
L 191 3500 
z
" transform="scale(0.015625)"/>
     <path id="DejaVuSans-56" d="M 1831 0 
L 50 4666 
L 709 4666 
L 2188 738 
L 3669 4666 
L 4325 4666 
L 2547 0 
L 1831 0 
z
" transform="scale(0.015625)"/>
     <path id="DejaVuSans-62" d="M 3116 1747 
Q 3116 2381 2855 2742 
Q 2594 3103 2138 3103 
Q 1681 3103 1420 2742 
Q 1159 2381 1159 1747 
Q 1159 1113 1420 752 
Q 1681 391 2138 391 
Q 2594 391 2855 752 
Q 3116 1113 3116 1747 
z
M 1159 2969 
Q 1341 3281 1617 3432 
Q 1894 3584 2278 3584 
Q 2916 3584 3314 3078 
Q 3713 2572 3713 1747 
Q 3713 922 3314 415 
Q 2916 -91 2278 -91 
Q 1894 -91 1617 61 
Q 1341 213 1159 525 
L 1159 0 
L 581 0 
L 581 4863 
L 1159 4863 
L 1159 2969 
z
" transform="scale(0.015625)"/>
     <path id="DejaVuSans-66" d="M 2375 4863 
L 2375 4384 
L 1825 4384 
Q 1516 4384 1395 4259 
Q 1275 4134 1275 3809 
L 1275 3500 
L 2222 3500 
L 2222 3053 
L 1275 3053 
L 1275 0 
L 697 0 
L 697 3053 
L 147 3053 
L 147 3500 
L 697 3500 
L 697 3744 
Q 697 4328 969 4595 
Q 1241 4863 1831 4863 
L 2375 4863 
z
" transform="scale(0.015625)"/>
     <path id="DejaVuSans-63" d="M 3122 3366 
L 3122 2828 
Q 2878 2963 2633 3030 
Q 2388 3097 2138 3097 
Q 1578 3097 1268 2742 
Q 959 2388 959 1747 
Q 959 1106 1268 751 
Q 1578 397 2138 397 
Q 2388 397 2633 464 
Q 2878 531 3122 666 
L 3122 134 
Q 2881 22 2623 -34 
Q 2366 -91 2075 -91 
Q 1284 -91 818 406 
Q 353 903 353 1747 
Q 353 2603 823 3093 
Q 1294 3584 2113 3584 
Q 2378 3584 2631 3529 
Q 2884 3475 3122 3366 
z
" transform="scale(0.015625)"/>
     <path id="DejaVuSans-49" d="M 628 4666 
L 1259 4666 
L 1259 0 
L 628 0 
L 628 4666 
z
" transform="scale(0.015625)"/>
     <path id="DejaVuSans-50" d="M 1259 4147 
L 1259 2394 
L 2053 2394 
Q 2494 2394 2734 2622 
Q 2975 2850 2975 3272 
Q 2975 3691 2734 3919 
Q 2494 4147 2053 4147 
L 1259 4147 
z
M 628 4666 
L 2053 4666 
Q 2838 4666 3239 4311 
Q 3641 3956 3641 3272 
Q 3641 2581 3239 2228 
Q 2838 1875 2053 1875 
L 1259 1875 
L 1259 0 
L 628 0 
L 628 4666 
z
" transform="scale(0.015625)"/>
     <path id="DejaVuSans-2e" d="M 684 794 
L 1344 794 
L 1344 0 
L 684 0 
L 684 794 
z
" transform="scale(0.015625)"/>
    </defs>
    <use xlink:href="#DejaVuSans-22"/>
    <use xlink:href="#DejaVuSans-5a" transform="translate(45.996094 0)"/>
    <use xlink:href="#DejaVuSans-75" transform="translate(114.501953 0)"/>
    <use xlink:href="#DejaVuSans-20" transform="translate(177.880859 0)"/>
    <use xlink:href="#DejaVuSans-64" transform="translate(209.667969 0)"/>
    <use xlink:href="#DejaVuSans-65" transform="translate(273.144531 0)"/>
    <use xlink:href="#DejaVuSans-74" transform="translate(334.667969 0)"/>
    <use xlink:href="#DejaVuSans-61" transform="translate(373.876953 0)"/>
    <use xlink:href="#DejaVuSans-69" transform="translate(435.15625 0)"/>
    <use xlink:href="#DejaVuSans-6c" transform="translate(462.939453 0)"/>
    <use xlink:href="#DejaVuSans-6c" transform="translate(490.722656 0)"/>
    <use xlink:href="#DejaVuSans-69" transform="translate(518.505859 0)"/>
    <use xlink:href="#DejaVuSans-65" transform="translate(546.289062 0)"/>
    <use xlink:href="#DejaVuSans-72" transform="translate(607.8125 0)"/>
    <use xlink:href="#DejaVuSans-74" transform="translate(648.925781 0)"/>
    <use xlink:href="#DejaVuSans-65" transform="translate(688.134766 0)"/>
    <use xlink:href="#DejaVuSans-20" transform="translate(749.658203 0)"/>
    <use xlink:href="#DejaVuSans-6f" transform="translate(781.445312 0)"/>
    <use xlink:href="#DejaVuSans-64" transform="translate(842.626953 0)"/>
    <use xlink:href="#DejaVuSans-65" transform="translate(906.103516 0)"/>
    <use xlink:href="#DejaVuSans-72" transform="translate(967.626953 0)"/>
    <use xlink:href="#DejaVuSans-20" transform="translate(1008.740234 0)"/>
    <use xlink:href="#DejaVuSans-72" transform="translate(1040.527344 0)"/>
    <use xlink:href="#DejaVuSans-65" transform="translate(1079.390625 0)"/>
    <use xlink:href="#DejaVuSans-73" transform="translate(1140.914062 0)"/>
    <use xlink:href="#DejaVuSans-74" transform="translate(1193.013672 0)"/>
    <use xlink:href="#DejaVuSans-72" transform="translate(1232.222656 0)"/>
    <use xlink:href="#DejaVuSans-69" transform="translate(1273.335938 0)"/>
    <use xlink:href="#DejaVuSans-6b" transform="translate(1301.119141 0)"/>
    <use xlink:href="#DejaVuSans-74" transform="translate(1359.029297 0)"/>
    <use xlink:href="#DejaVuSans-69" transform="translate(1398.238281 0)"/>
    <use xlink:href="#DejaVuSans-76" transform="translate(1426.021484 0)"/>
    <use xlink:href="#DejaVuSans-65" transform="translate(1485.201172 0)"/>
    <use xlink:href="#DejaVuSans-20" transform="translate(1546.724609 0)"/>
    <use xlink:href="#DejaVuSans-56" transform="translate(1578.511719 0)"/>
    <use xlink:href="#DejaVuSans-6f" transform="translate(1639.169922 0)"/>
    <use xlink:href="#DejaVuSans-72" transform="translate(1700.351562 0)"/>
    <use xlink:href="#DejaVuSans-67" transform="translate(1739.714844 0)"/>
    <use xlink:href="#DejaVuSans-61" transform="translate(1803.191406 0)"/>
    <use xlink:href="#DejaVuSans-62" transform="translate(1864.470703 0)"/>
    <use xlink:href="#DejaVuSans-65" transform="translate(1927.947266 0)"/>
    <use xlink:href="#DejaVuSans-6e" transform="translate(1989.470703 0)"/>
    <use xlink:href="#DejaVuSans-20" transform="translate(2052.849609 0)"/>
    <use xlink:href="#DejaVuSans-69" transform="translate(2084.636719 0)"/>
    <use xlink:href="#DejaVuSans-6e" transform="translate(2112.419922 0)"/>
    <use xlink:href="#DejaVuSans-6e" transform="translate(2175.798828 0)"/>
    <use xlink:href="#DejaVuSans-65" transform="translate(2239.177734 0)"/>
    <use xlink:href="#DejaVuSans-72" transform="translate(2300.701172 0)"/>
    <use xlink:href="#DejaVuSans-68" transform="translate(2340.064453 0)"/>
    <use xlink:href="#DejaVuSans-61" transform="translate(2403.443359 0)"/>
    <use xlink:href="#DejaVuSans-6c" transform="translate(2464.722656 0)"/>
    <use xlink:href="#DejaVuSans-62" transform="translate(2492.505859 0)"/>
    <use xlink:href="#DejaVuSans-20" transform="translate(2555.982422 0)"/>
    <use xlink:href="#DejaVuSans-64" transform="translate(2587.769531 0)"/>
    <use xlink:href="#DejaVuSans-65" transform="translate(2651.246094 0)"/>
    <use xlink:href="#DejaVuSans-72" transform="translate(2712.769531 0)"/>
    <use xlink:href="#DejaVuSans-20" transform="translate(2753.882812 0)"/>
    <use xlink:href="#DejaVuSans-4b" transform="translate(2785.669922 0)"/>
    <use xlink:href="#DejaVuSans-72" transform="translate(2851.246094 0)"/>
    <use xlink:href="#DejaVuSans-65" transform="translate(2890.109375 0)"/>
    <use xlink:href="#DejaVuSans-69" transform="translate(2951.632812 0)"/>
    <use xlink:href="#DejaVuSans-73" transform="translate(2979.416016 0)"/>
    <use xlink:href="#DejaVuSans-6c" transform="translate(3031.515625 0)"/>
    <use xlink:href="#DejaVuSans-61" transform="translate(3059.298828 0)"/>
    <use xlink:href="#DejaVuSans-75" transform="translate(3120.578125 0)"/>
    <use xlink:href="#DejaVuSans-66" transform="translate(3183.957031 0)"/>
    <use xlink:href="#DejaVuSans-77" transform="translate(3217.412109 0)"/>
    <use xlink:href="#DejaVuSans-69" transform="translate(3299.199219 0)"/>
    <use xlink:href="#DejaVuSans-72" transform="translate(3326.982422 0)"/>
    <use xlink:href="#DejaVuSans-74" transform="translate(3368.095703 0)"/>
    <use xlink:href="#DejaVuSans-73" transform="translate(3407.304688 0)"/>
    <use xlink:href="#DejaVuSans-63" transform="translate(3459.404297 0)"/>
    <use xlink:href="#DejaVuSans-68" transform="translate(3514.384766 0)"/>
    <use xlink:href="#DejaVuSans-61" transform="translate(3577.763672 0)"/>
    <use xlink:href="#DejaVuSans-66" transform="translate(3639.042969 0)"/>
    <use xlink:href="#DejaVuSans-74" transform="translate(3672.498047 0)"/>
    <use xlink:href="#DejaVuSans-20" transform="translate(3711.707031 0)"/>
    <use xlink:href="#DejaVuSans-62" transform="translate(3743.494141 0)"/>
    <use xlink:href="#DejaVuSans-65" transform="translate(3806.970703 0)"/>
    <use xlink:href="#DejaVuSans-68" transform="translate(3868.494141 0)"/>
    <use xlink:href="#DejaVuSans-69" transform="translate(3931.873047 0)"/>
    <use xlink:href="#DejaVuSans-6e" transform="translate(3959.65625 0)"/>
    <use xlink:href="#DejaVuSans-64" transform="translate(4023.035156 0)"/>
    <use xlink:href="#DejaVuSans-65" transform="translate(4086.511719 0)"/>
    <use xlink:href="#DejaVuSans-72" transform="translate(4148.035156 0)"/>
    <use xlink:href="#DejaVuSans-6e" transform="translate(4187.398438 0)"/>
    <use xlink:href="#DejaVuSans-20" transform="translate(4250.777344 0)"/>
    <use xlink:href="#DejaVuSans-74" transform="translate(4282.564453 0)"/>
    <use xlink:href="#DejaVuSans-65" transform="translate(4321.773438 0)"/>
    <use xlink:href="#DejaVuSans-63" transform="translate(4383.296875 0)"/>
    <use xlink:href="#DejaVuSans-68" transform="translate(4438.277344 0)"/>
    <use xlink:href="#DejaVuSans-6e" transform="translate(4501.65625 0)"/>
    <use xlink:href="#DejaVuSans-6f" transform="translate(4565.035156 0)"/>
    <use xlink:href="#DejaVuSans-6c" transform="translate(4626.216797 0)"/>
    <use xlink:href="#DejaVuSans-6f" transform="translate(4654 0)"/>
    <use xlink:href="#DejaVuSans-67" transform="translate(4715.181641 0)"/>
    <use xlink:href="#DejaVuSans-69" transform="translate(4778.658203 0)"/>
    <use xlink:href="#DejaVuSans-73" transform="translate(4806.441406 0)"/>
    <use xlink:href="#DejaVuSans-63" transform="translate(4858.541016 0)"/>
    <use xlink:href="#DejaVuSans-68" transform="translate(4913.521484 0)"/>
    <use xlink:href="#DejaVuSans-65" transform="translate(4976.900391 0)"/>
    <use xlink:href="#DejaVuSans-20" transform="translate(5038.423828 0)"/>
    <use xlink:href="#DejaVuSans-49" transform="translate(5070.210938 0)"/>
    <use xlink:href="#DejaVuSans-6e" transform="translate(5099.703125 0)"/>
    <use xlink:href="#DejaVuSans-6e" transform="translate(5163.082031 0)"/>
    <use xlink:href="#DejaVuSans-6f" transform="translate(5226.460938 0)"/>
    <use xlink:href="#DejaVuSans-76" transform="translate(5287.642578 0)"/>
    <use xlink:href="#DejaVuSans-61" transform="translate(5346.822266 0)"/>
    <use xlink:href="#DejaVuSans-74" transform="translate(5408.101562 0)"/>
    <use xlink:href="#DejaVuSans-69" transform="translate(5447.310547 0)"/>
    <use xlink:href="#DejaVuSans-6f" transform="translate(5475.09375 0)"/>
    <use xlink:href="#DejaVuSans-6e" transform="translate(5536.275391 0)"/>
    <use xlink:href="#DejaVuSans-65" transform="translate(5599.654297 0)"/>
    <use xlink:href="#DejaVuSans-6e" transform="translate(5661.177734 0)"/>
    <use xlink:href="#DejaVuSans-20" transform="translate(5724.556641 0)"/>
    <use xlink:href="#DejaVuSans-75" transform="translate(5756.34375 0)"/>
    <use xlink:href="#DejaVuSans-6e" transform="translate(5819.722656 0)"/>
    <use xlink:href="#DejaVuSans-64" transform="translate(5883.101562 0)"/>
    <use xlink:href="#DejaVuSans-20" transform="translate(5946.578125 0)"/>
    <use xlink:href="#DejaVuSans-50" transform="translate(5978.365234 0)"/>
    <use xlink:href="#DejaVuSans-72" transform="translate(6036.917969 0)"/>
    <use xlink:href="#DejaVuSans-6f" transform="translate(6075.78125 0)"/>
    <use xlink:href="#DejaVuSans-64" transform="translate(6136.962891 0)"/>
    <use xlink:href="#DejaVuSans-75" transform="translate(6200.439453 0)"/>
    <use xlink:href="#DejaVuSans-6b" transform="translate(6263.818359 0)"/>
    <use xlink:href="#DejaVuSans-74" transform="translate(6321.728516 0)"/>
    <use xlink:href="#DejaVuSans-76" transform="translate(6360.9375 0)"/>
    <use xlink:href="#DejaVuSans-69" transform="translate(6420.117188 0)"/>
    <use xlink:href="#DejaVuSans-65" transform="translate(6447.900391 0)"/>
    <use xlink:href="#DejaVuSans-6c" transform="translate(6509.423828 0)"/>
    <use xlink:href="#DejaVuSans-66" transform="translate(6537.207031 0)"/>
    <use xlink:href="#DejaVuSans-61" transform="translate(6572.412109 0)"/>
    <use xlink:href="#DejaVuSans-6c" transform="translate(6633.691406 0)"/>
    <use xlink:href="#DejaVuSans-74" transform="translate(6661.474609 0)"/>
    <use xlink:href="#DejaVuSans-2e" transform="translate(6700.683594 0)"/>
    <use xlink:href="#DejaVuSans-22" transform="translate(6732.470703 0)"/>
   </g>
  </g>
  <g id="text_8">
   <!-- Abbildung 35j: Inwieweit stimmen Sie folgenden Aussagen zur -->
   <g transform="translate(280.484062 556.956563) scale(0.12 -0.12)">
    <defs>
     <path id="DejaVuSans-33" d="M 2597 2516 
Q 3050 2419 3304 2112 
Q 3559 1806 3559 1356 
Q 3559 666 3084 287 
Q 2609 -91 1734 -91 
Q 1441 -91 1130 -33 
Q 819 25 488 141 
L 488 750 
Q 750 597 1062 519 
Q 1375 441 1716 441 
Q 2309 441 2620 675 
Q 2931 909 2931 1356 
Q 2931 1769 2642 2001 
Q 2353 2234 1838 2234 
L 1294 2234 
L 1294 2753 
L 1863 2753 
Q 2328 2753 2575 2939 
Q 2822 3125 2822 3475 
Q 2822 3834 2567 4026 
Q 2313 4219 1838 4219 
Q 1578 4219 1281 4162 
Q 984 4106 628 3988 
L 628 4550 
Q 988 4650 1302 4700 
Q 1616 4750 1894 4750 
Q 2613 4750 3031 4423 
Q 3450 4097 3450 3541 
Q 3450 3153 3228 2886 
Q 3006 2619 2597 2516 
z
" transform="scale(0.015625)"/>
     <path id="DejaVuSans-6a" d="M 603 3500 
L 1178 3500 
L 1178 -63 
Q 1178 -731 923 -1031 
Q 669 -1331 103 -1331 
L -116 -1331 
L -116 -844 
L 38 -844 
Q 366 -844 484 -692 
Q 603 -541 603 -63 
L 603 3500 
z
M 603 4863 
L 1178 4863 
L 1178 4134 
L 603 4134 
L 603 4863 
z
" transform="scale(0.015625)"/>
     <path id="DejaVuSans-3a" d="M 750 794 
L 1409 794 
L 1409 0 
L 750 0 
L 750 794 
z
M 750 3309 
L 1409 3309 
L 1409 2516 
L 750 2516 
L 750 3309 
z
" transform="scale(0.015625)"/>
     <path id="DejaVuSans-7a" d="M 353 3500 
L 3084 3500 
L 3084 2975 
L 922 459 
L 3084 459 
L 3084 0 
L 275 0 
L 275 525 
L 2438 3041 
L 353 3041 
L 353 3500 
z
" transform="scale(0.015625)"/>
    </defs>
    <use xlink:href="#DejaVuSans-41"/>
    <use xlink:href="#DejaVuSans-62" transform="translate(68.408203 0)"/>
    <use xlink:href="#DejaVuSans-62" transform="translate(131.884766 0)"/>
    <use xlink:href="#DejaVuSans-69" transform="translate(195.361328 0)"/>
    <use xlink:href="#DejaVuSans-6c" transform="translate(223.144531 0)"/>
    <use xlink:href="#DejaVuSans-64" transform="translate(250.927734 0)"/>
    <use xlink:href="#DejaVuSans-75" transform="translate(314.404297 0)"/>
    <use xlink:href="#DejaVuSans-6e" transform="translate(377.783203 0)"/>
    <use xlink:href="#DejaVuSans-67" transform="translate(441.162109 0)"/>
    <use xlink:href="#DejaVuSans-20" transform="translate(504.638672 0)"/>
    <use xlink:href="#DejaVuSans-33" transform="translate(536.425781 0)"/>
    <use xlink:href="#DejaVuSans-35" transform="translate(600.048828 0)"/>
    <use xlink:href="#DejaVuSans-6a" transform="translate(663.671875 0)"/>
    <use xlink:href="#DejaVuSans-3a" transform="translate(691.455078 0)"/>
    <use xlink:href="#DejaVuSans-20" transform="translate(725.146484 0)"/>
    <use xlink:href="#DejaVuSans-49" transform="translate(756.933594 0)"/>
    <use xlink:href="#DejaVuSans-6e" transform="translate(786.425781 0)"/>
    <use xlink:href="#DejaVuSans-77" transform="translate(849.804688 0)"/>
    <use xlink:href="#DejaVuSans-69" transform="translate(931.591797 0)"/>
    <use xlink:href="#DejaVuSans-65" transform="translate(959.375 0)"/>
    <use xlink:href="#DejaVuSans-77" transform="translate(1020.898438 0)"/>
    <use xlink:href="#DejaVuSans-65" transform="translate(1102.685547 0)"/>
    <use xlink:href="#DejaVuSans-69" transform="translate(1164.208984 0)"/>
    <use xlink:href="#DejaVuSans-74" transform="translate(1191.992188 0)"/>
    <use xlink:href="#DejaVuSans-20" transform="translate(1231.201172 0)"/>
    <use xlink:href="#DejaVuSans-73" transform="translate(1262.988281 0)"/>
    <use xlink:href="#DejaVuSans-74" transform="translate(1315.087891 0)"/>
    <use xlink:href="#DejaVuSans-69" transform="translate(1354.296875 0)"/>
    <use xlink:href="#DejaVuSans-6d" transform="translate(1382.080078 0)"/>
    <use xlink:href="#DejaVuSans-6d" transform="translate(1479.492188 0)"/>
    <use xlink:href="#DejaVuSans-65" transform="translate(1576.904297 0)"/>
    <use xlink:href="#DejaVuSans-6e" transform="translate(1638.427734 0)"/>
    <use xlink:href="#DejaVuSans-20" transform="translate(1701.806641 0)"/>
    <use xlink:href="#DejaVuSans-53" transform="translate(1733.59375 0)"/>
    <use xlink:href="#DejaVuSans-69" transform="translate(1797.070312 0)"/>
    <use xlink:href="#DejaVuSans-65" transform="translate(1824.853516 0)"/>
    <use xlink:href="#DejaVuSans-20" transform="translate(1886.376953 0)"/>
    <use xlink:href="#DejaVuSans-66" transform="translate(1918.164062 0)"/>
    <use xlink:href="#DejaVuSans-6f" transform="translate(1953.369141 0)"/>
    <use xlink:href="#DejaVuSans-6c" transform="translate(2014.550781 0)"/>
    <use xlink:href="#DejaVuSans-67" transform="translate(2042.333984 0)"/>
    <use xlink:href="#DejaVuSans-65" transform="translate(2105.810547 0)"/>
    <use xlink:href="#DejaVuSans-6e" transform="translate(2167.333984 0)"/>
    <use xlink:href="#DejaVuSans-64" transform="translate(2230.712891 0)"/>
    <use xlink:href="#DejaVuSans-65" transform="translate(2294.189453 0)"/>
    <use xlink:href="#DejaVuSans-6e" transform="translate(2355.712891 0)"/>
    <use xlink:href="#DejaVuSans-20" transform="translate(2419.091797 0)"/>
    <use xlink:href="#DejaVuSans-41" transform="translate(2450.878906 0)"/>
    <use xlink:href="#DejaVuSans-75" transform="translate(2519.287109 0)"/>
    <use xlink:href="#DejaVuSans-73" transform="translate(2582.666016 0)"/>
    <use xlink:href="#DejaVuSans-73" transform="translate(2634.765625 0)"/>
    <use xlink:href="#DejaVuSans-61" transform="translate(2686.865234 0)"/>
    <use xlink:href="#DejaVuSans-67" transform="translate(2748.144531 0)"/>
    <use xlink:href="#DejaVuSans-65" transform="translate(2811.621094 0)"/>
    <use xlink:href="#DejaVuSans-6e" transform="translate(2873.144531 0)"/>
    <use xlink:href="#DejaVuSans-20" transform="translate(2936.523438 0)"/>
    <use xlink:href="#DejaVuSans-7a" transform="translate(2968.310547 0)"/>
    <use xlink:href="#DejaVuSans-75" transform="translate(3020.800781 0)"/>
    <use xlink:href="#DejaVuSans-72" transform="translate(3084.179688 0)"/>
   </g>
   <!-- Umsetzung von Kreislaufwirtschaft bezogen auf die -->
   <g transform="translate(313.528125 569.482125) scale(0.12 -0.12)">
    <defs>
     <path id="DejaVuSans-55" d="M 556 4666 
L 1191 4666 
L 1191 1831 
Q 1191 1081 1462 751 
Q 1734 422 2344 422 
Q 2950 422 3222 751 
Q 3494 1081 3494 1831 
L 3494 4666 
L 4128 4666 
L 4128 1753 
Q 4128 841 3676 375 
Q 3225 -91 2344 -91 
Q 1459 -91 1007 375 
Q 556 841 556 1753 
L 556 4666 
z
" transform="scale(0.015625)"/>
    </defs>
    <use xlink:href="#DejaVuSans-55"/>
    <use xlink:href="#DejaVuSans-6d" transform="translate(73.193359 0)"/>
    <use xlink:href="#DejaVuSans-73" transform="translate(170.605469 0)"/>
    <use xlink:href="#DejaVuSans-65" transform="translate(222.705078 0)"/>
    <use xlink:href="#DejaVuSans-74" transform="translate(284.228516 0)"/>
    <use xlink:href="#DejaVuSans-7a" transform="translate(323.4375 0)"/>
    <use xlink:href="#DejaVuSans-75" transform="translate(375.927734 0)"/>
    <use xlink:href="#DejaVuSans-6e" transform="translate(439.306641 0)"/>
    <use xlink:href="#DejaVuSans-67" transform="translate(502.685547 0)"/>
    <use xlink:href="#DejaVuSans-20" transform="translate(566.162109 0)"/>
    <use xlink:href="#DejaVuSans-76" transform="translate(597.949219 0)"/>
    <use xlink:href="#DejaVuSans-6f" transform="translate(657.128906 0)"/>
    <use xlink:href="#DejaVuSans-6e" transform="translate(718.310547 0)"/>
    <use xlink:href="#DejaVuSans-20" transform="translate(781.689453 0)"/>
    <use xlink:href="#DejaVuSans-4b" transform="translate(813.476562 0)"/>
    <use xlink:href="#DejaVuSans-72" transform="translate(879.052734 0)"/>
    <use xlink:href="#DejaVuSans-65" transform="translate(917.916016 0)"/>
    <use xlink:href="#DejaVuSans-69" transform="translate(979.439453 0)"/>
    <use xlink:href="#DejaVuSans-73" transform="translate(1007.222656 0)"/>
    <use xlink:href="#DejaVuSans-6c" transform="translate(1059.322266 0)"/>
    <use xlink:href="#DejaVuSans-61" transform="translate(1087.105469 0)"/>
    <use xlink:href="#DejaVuSans-75" transform="translate(1148.384766 0)"/>
    <use xlink:href="#DejaVuSans-66" transform="translate(1211.763672 0)"/>
    <use xlink:href="#DejaVuSans-77" transform="translate(1245.21875 0)"/>
    <use xlink:href="#DejaVuSans-69" transform="translate(1327.005859 0)"/>
    <use xlink:href="#DejaVuSans-72" transform="translate(1354.789062 0)"/>
    <use xlink:href="#DejaVuSans-74" transform="translate(1395.902344 0)"/>
    <use xlink:href="#DejaVuSans-73" transform="translate(1435.111328 0)"/>
    <use xlink:href="#DejaVuSans-63" transform="translate(1487.210938 0)"/>
    <use xlink:href="#DejaVuSans-68" transform="translate(1542.191406 0)"/>
    <use xlink:href="#DejaVuSans-61" transform="translate(1605.570312 0)"/>
    <use xlink:href="#DejaVuSans-66" transform="translate(1666.849609 0)"/>
    <use xlink:href="#DejaVuSans-74" transform="translate(1700.304688 0)"/>
    <use xlink:href="#DejaVuSans-20" transform="translate(1739.513672 0)"/>
    <use xlink:href="#DejaVuSans-62" transform="translate(1771.300781 0)"/>
    <use xlink:href="#DejaVuSans-65" transform="translate(1834.777344 0)"/>
    <use xlink:href="#DejaVuSans-7a" transform="translate(1896.300781 0)"/>
    <use xlink:href="#DejaVuSans-6f" transform="translate(1948.791016 0)"/>
    <use xlink:href="#DejaVuSans-67" transform="translate(2009.972656 0)"/>
    <use xlink:href="#DejaVuSans-65" transform="translate(2073.449219 0)"/>
    <use xlink:href="#DejaVuSans-6e" transform="translate(2134.972656 0)"/>
    <use xlink:href="#DejaVuSans-20" transform="translate(2198.351562 0)"/>
    <use xlink:href="#DejaVuSans-61" transform="translate(2230.138672 0)"/>
    <use xlink:href="#DejaVuSans-75" transform="translate(2291.417969 0)"/>
    <use xlink:href="#DejaVuSans-66" transform="translate(2354.796875 0)"/>
    <use xlink:href="#DejaVuSans-20" transform="translate(2390.001953 0)"/>
    <use xlink:href="#DejaVuSans-64" transform="translate(2421.789062 0)"/>
    <use xlink:href="#DejaVuSans-69" transform="translate(2485.265625 0)"/>
    <use xlink:href="#DejaVuSans-65" transform="translate(2513.048828 0)"/>
   </g>
   <!-- Wettbewerbsfhigkeit aus der Sicht Ihres Unternehmens zu?  "Zu -->
   <g transform="translate(268.839375 582.007687) scale(0.12 -0.12)">
    <defs>
     <path id="DejaVuSans-57" d="M 213 4666 
L 850 4666 
L 1831 722 
L 2809 4666 
L 3519 4666 
L 4500 722 
L 5478 4666 
L 6119 4666 
L 4947 0 
L 4153 0 
L 3169 4050 
L 2175 0 
L 1381 0 
L 213 4666 
z
" transform="scale(0.015625)"/>
     <path id="DejaVuSans-e4" d="M 2194 1759 
Q 1497 1759 1228 1600 
Q 959 1441 959 1056 
Q 959 750 1161 570 
Q 1363 391 1709 391 
Q 2188 391 2477 730 
Q 2766 1069 2766 1631 
L 2766 1759 
L 2194 1759 
z
M 3341 1997 
L 3341 0 
L 2766 0 
L 2766 531 
Q 2569 213 2275 61 
Q 1981 -91 1556 -91 
Q 1019 -91 701 211 
Q 384 513 384 1019 
Q 384 1609 779 1909 
Q 1175 2209 1959 2209 
L 2766 2209 
L 2766 2266 
Q 2766 2663 2505 2880 
Q 2244 3097 1772 3097 
Q 1472 3097 1187 3025 
Q 903 2953 641 2809 
L 641 3341 
Q 956 3463 1253 3523 
Q 1550 3584 1831 3584 
Q 2591 3584 2966 3190 
Q 3341 2797 3341 1997 
z
M 2150 4850 
L 2784 4850 
L 2784 4219 
L 2150 4219 
L 2150 4850 
z
M 928 4850 
L 1562 4850 
L 1562 4219 
L 928 4219 
L 928 4850 
z
" transform="scale(0.015625)"/>
     <path id="DejaVuSans-3f" d="M 1222 794 
L 1856 794 
L 1856 0 
L 1222 0 
L 1222 794 
z
M 1838 1253 
L 1241 1253 
L 1241 1734 
Q 1241 2050 1328 2253 
Q 1416 2456 1697 2725 
L 1978 3003 
Q 2156 3169 2236 3316 
Q 2316 3463 2316 3616 
Q 2316 3894 2111 4066 
Q 1906 4238 1569 4238 
Q 1322 4238 1042 4128 
Q 763 4019 459 3809 
L 459 4397 
Q 753 4575 1054 4662 
Q 1356 4750 1678 4750 
Q 2253 4750 2601 4447 
Q 2950 4144 2950 3647 
Q 2950 3409 2837 3195 
Q 2725 2981 2444 2713 
L 2169 2444 
Q 2022 2297 1961 2214 
Q 1900 2131 1875 2053 
Q 1856 1988 1847 1894 
Q 1838 1800 1838 1638 
L 1838 1253 
z
" transform="scale(0.015625)"/>
     <path id="DejaVuSans-2013" d="M 313 1978 
L 2888 1978 
L 2888 1528 
L 313 1528 
L 313 1978 
z
" transform="scale(0.015625)"/>
    </defs>
    <use xlink:href="#DejaVuSans-57"/>
    <use xlink:href="#DejaVuSans-65" transform="translate(93.001953 0)"/>
    <use xlink:href="#DejaVuSans-74" transform="translate(154.525391 0)"/>
    <use xlink:href="#DejaVuSans-74" transform="translate(193.734375 0)"/>
    <use xlink:href="#DejaVuSans-62" transform="translate(232.943359 0)"/>
    <use xlink:href="#DejaVuSans-65" transform="translate(296.419922 0)"/>
    <use xlink:href="#DejaVuSans-77" transform="translate(357.943359 0)"/>
    <use xlink:href="#DejaVuSans-65" transform="translate(439.730469 0)"/>
    <use xlink:href="#DejaVuSans-72" transform="translate(501.253906 0)"/>
    <use xlink:href="#DejaVuSans-62" transform="translate(542.367188 0)"/>
    <use xlink:href="#DejaVuSans-73" transform="translate(605.84375 0)"/>
    <use xlink:href="#DejaVuSans-66" transform="translate(657.943359 0)"/>
    <use xlink:href="#DejaVuSans-e4" transform="translate(693.148438 0)"/>
    <use xlink:href="#DejaVuSans-68" transform="translate(754.427734 0)"/>
    <use xlink:href="#DejaVuSans-69" transform="translate(817.806641 0)"/>
    <use xlink:href="#DejaVuSans-67" transform="translate(845.589844 0)"/>
    <use xlink:href="#DejaVuSans-6b" transform="translate(909.066406 0)"/>
    <use xlink:href="#DejaVuSans-65" transform="translate(963.351562 0)"/>
    <use xlink:href="#DejaVuSans-69" transform="translate(1024.875 0)"/>
    <use xlink:href="#DejaVuSans-74" transform="translate(1052.658203 0)"/>
    <use xlink:href="#DejaVuSans-20" transform="translate(1091.867188 0)"/>
    <use xlink:href="#DejaVuSans-61" transform="translate(1123.654297 0)"/>
    <use xlink:href="#DejaVuSans-75" transform="translate(1184.933594 0)"/>
    <use xlink:href="#DejaVuSans-73" transform="translate(1248.3125 0)"/>
    <use xlink:href="#DejaVuSans-20" transform="translate(1300.412109 0)"/>
    <use xlink:href="#DejaVuSans-64" transform="translate(1332.199219 0)"/>
    <use xlink:href="#DejaVuSans-65" transform="translate(1395.675781 0)"/>
    <use xlink:href="#DejaVuSans-72" transform="translate(1457.199219 0)"/>
    <use xlink:href="#DejaVuSans-20" transform="translate(1498.3125 0)"/>
    <use xlink:href="#DejaVuSans-53" transform="translate(1530.099609 0)"/>
    <use xlink:href="#DejaVuSans-69" transform="translate(1593.576172 0)"/>
    <use xlink:href="#DejaVuSans-63" transform="translate(1621.359375 0)"/>
    <use xlink:href="#DejaVuSans-68" transform="translate(1676.339844 0)"/>
    <use xlink:href="#DejaVuSans-74" transform="translate(1739.71875 0)"/>
    <use xlink:href="#DejaVuSans-20" transform="translate(1778.927734 0)"/>
    <use xlink:href="#DejaVuSans-49" transform="translate(1810.714844 0)"/>
    <use xlink:href="#DejaVuSans-68" transform="translate(1840.207031 0)"/>
    <use xlink:href="#DejaVuSans-72" transform="translate(1903.585938 0)"/>
    <use xlink:href="#DejaVuSans-65" transform="translate(1942.449219 0)"/>
    <use xlink:href="#DejaVuSans-73" transform="translate(2003.972656 0)"/>
    <use xlink:href="#DejaVuSans-20" transform="translate(2056.072266 0)"/>
    <use xlink:href="#DejaVuSans-55" transform="translate(2087.859375 0)"/>
    <use xlink:href="#DejaVuSans-6e" transform="translate(2161.052734 0)"/>
    <use xlink:href="#DejaVuSans-74" transform="translate(2224.431641 0)"/>
    <use xlink:href="#DejaVuSans-65" transform="translate(2263.640625 0)"/>
    <use xlink:href="#DejaVuSans-72" transform="translate(2325.164062 0)"/>
    <use xlink:href="#DejaVuSans-6e" transform="translate(2364.527344 0)"/>
    <use xlink:href="#DejaVuSans-65" transform="translate(2427.90625 0)"/>
    <use xlink:href="#DejaVuSans-68" transform="translate(2489.429688 0)"/>
    <use xlink:href="#DejaVuSans-6d" transform="translate(2552.808594 0)"/>
    <use xlink:href="#DejaVuSans-65" transform="translate(2650.220703 0)"/>
    <use xlink:href="#DejaVuSans-6e" transform="translate(2711.744141 0)"/>
    <use xlink:href="#DejaVuSans-73" transform="translate(2775.123047 0)"/>
    <use xlink:href="#DejaVuSans-20" transform="translate(2827.222656 0)"/>
    <use xlink:href="#DejaVuSans-7a" transform="translate(2859.009766 0)"/>
    <use xlink:href="#DejaVuSans-75" transform="translate(2911.5 0)"/>
    <use xlink:href="#DejaVuSans-3f" transform="translate(2974.878906 0)"/>
    <use xlink:href="#DejaVuSans-20" transform="translate(3027.955078 0)"/>
    <use xlink:href="#DejaVuSans-2013" transform="translate(3059.742188 0)"/>
    <use xlink:href="#DejaVuSans-20" transform="translate(3109.742188 0)"/>
    <use xlink:href="#DejaVuSans-22" transform="translate(3141.529297 0)"/>
    <use xlink:href="#DejaVuSans-5a" transform="translate(3187.525391 0)"/>
    <use xlink:href="#DejaVuSans-75" transform="translate(3256.03125 0)"/>
   </g>
   <!-- detaillierte oder restriktive Vorgaben innerhalb der -->
   <g transform="translate(315.345937 594.53325) scale(0.12 -0.12)">
    <use xlink:href="#DejaVuSans-64"/>
    <use xlink:href="#DejaVuSans-65" transform="translate(63.476562 0)"/>
    <use xlink:href="#DejaVuSans-74" transform="translate(125 0)"/>
    <use xlink:href="#DejaVuSans-61" transform="translate(164.208984 0)"/>
    <use xlink:href="#DejaVuSans-69" transform="translate(225.488281 0)"/>
    <use xlink:href="#DejaVuSans-6c" transform="translate(253.271484 0)"/>
    <use xlink:href="#DejaVuSans-6c" transform="translate(281.054688 0)"/>
    <use xlink:href="#DejaVuSans-69" transform="translate(308.837891 0)"/>
    <use xlink:href="#DejaVuSans-65" transform="translate(336.621094 0)"/>
    <use xlink:href="#DejaVuSans-72" transform="translate(398.144531 0)"/>
    <use xlink:href="#DejaVuSans-74" transform="translate(439.257812 0)"/>
    <use xlink:href="#DejaVuSans-65" transform="translate(478.466797 0)"/>
    <use xlink:href="#DejaVuSans-20" transform="translate(539.990234 0)"/>
    <use xlink:href="#DejaVuSans-6f" transform="translate(571.777344 0)"/>
    <use xlink:href="#DejaVuSans-64" transform="translate(632.958984 0)"/>
    <use xlink:href="#DejaVuSans-65" transform="translate(696.435547 0)"/>
    <use xlink:href="#DejaVuSans-72" transform="translate(757.958984 0)"/>
    <use xlink:href="#DejaVuSans-20" transform="translate(799.072266 0)"/>
    <use xlink:href="#DejaVuSans-72" transform="translate(830.859375 0)"/>
    <use xlink:href="#DejaVuSans-65" transform="translate(869.722656 0)"/>
    <use xlink:href="#DejaVuSans-73" transform="translate(931.246094 0)"/>
    <use xlink:href="#DejaVuSans-74" transform="translate(983.345703 0)"/>
    <use xlink:href="#DejaVuSans-72" transform="translate(1022.554688 0)"/>
    <use xlink:href="#DejaVuSans-69" transform="translate(1063.667969 0)"/>
    <use xlink:href="#DejaVuSans-6b" transform="translate(1091.451172 0)"/>
    <use xlink:href="#DejaVuSans-74" transform="translate(1149.361328 0)"/>
    <use xlink:href="#DejaVuSans-69" transform="translate(1188.570312 0)"/>
    <use xlink:href="#DejaVuSans-76" transform="translate(1216.353516 0)"/>
    <use xlink:href="#DejaVuSans-65" transform="translate(1275.533203 0)"/>
    <use xlink:href="#DejaVuSans-20" transform="translate(1337.056641 0)"/>
    <use xlink:href="#DejaVuSans-56" transform="translate(1368.84375 0)"/>
    <use xlink:href="#DejaVuSans-6f" transform="translate(1429.501953 0)"/>
    <use xlink:href="#DejaVuSans-72" transform="translate(1490.683594 0)"/>
    <use xlink:href="#DejaVuSans-67" transform="translate(1530.046875 0)"/>
    <use xlink:href="#DejaVuSans-61" transform="translate(1593.523438 0)"/>
    <use xlink:href="#DejaVuSans-62" transform="translate(1654.802734 0)"/>
    <use xlink:href="#DejaVuSans-65" transform="translate(1718.279297 0)"/>
    <use xlink:href="#DejaVuSans-6e" transform="translate(1779.802734 0)"/>
    <use xlink:href="#DejaVuSans-20" transform="translate(1843.181641 0)"/>
    <use xlink:href="#DejaVuSans-69" transform="translate(1874.96875 0)"/>
    <use xlink:href="#DejaVuSans-6e" transform="translate(1902.751953 0)"/>
    <use xlink:href="#DejaVuSans-6e" transform="translate(1966.130859 0)"/>
    <use xlink:href="#DejaVuSans-65" transform="translate(2029.509766 0)"/>
    <use xlink:href="#DejaVuSans-72" transform="translate(2091.033203 0)"/>
    <use xlink:href="#DejaVuSans-68" transform="translate(2130.396484 0)"/>
    <use xlink:href="#DejaVuSans-61" transform="translate(2193.775391 0)"/>
    <use xlink:href="#DejaVuSans-6c" transform="translate(2255.054688 0)"/>
    <use xlink:href="#DejaVuSans-62" transform="translate(2282.837891 0)"/>
    <use xlink:href="#DejaVuSans-20" transform="translate(2346.314453 0)"/>
    <use xlink:href="#DejaVuSans-64" transform="translate(2378.101562 0)"/>
    <use xlink:href="#DejaVuSans-65" transform="translate(2441.578125 0)"/>
    <use xlink:href="#DejaVuSans-72" transform="translate(2503.101562 0)"/>
   </g>
   <!-- Kreislaufwirtschaft behindern technologische Innovationen und -->
   <g transform="translate(278.346563 607.058813) scale(0.12 -0.12)">
    <use xlink:href="#DejaVuSans-4b"/>
    <use xlink:href="#DejaVuSans-72" transform="translate(65.576172 0)"/>
    <use xlink:href="#DejaVuSans-65" transform="translate(104.439453 0)"/>
    <use xlink:href="#DejaVuSans-69" transform="translate(165.962891 0)"/>
    <use xlink:href="#DejaVuSans-73" transform="translate(193.746094 0)"/>
    <use xlink:href="#DejaVuSans-6c" transform="translate(245.845703 0)"/>
    <use xlink:href="#DejaVuSans-61" transform="translate(273.628906 0)"/>
    <use xlink:href="#DejaVuSans-75" transform="translate(334.908203 0)"/>
    <use xlink:href="#DejaVuSans-66" transform="translate(398.287109 0)"/>
    <use xlink:href="#DejaVuSans-77" transform="translate(431.742188 0)"/>
    <use xlink:href="#DejaVuSans-69" transform="translate(513.529297 0)"/>
    <use xlink:href="#DejaVuSans-72" transform="translate(541.3125 0)"/>
    <use xlink:href="#DejaVuSans-74" transform="translate(582.425781 0)"/>
    <use xlink:href="#DejaVuSans-73" transform="translate(621.634766 0)"/>
    <use xlink:href="#DejaVuSans-63" transform="translate(673.734375 0)"/>
    <use xlink:href="#DejaVuSans-68" transform="translate(728.714844 0)"/>
    <use xlink:href="#DejaVuSans-61" transform="translate(792.09375 0)"/>
    <use xlink:href="#DejaVuSans-66" transform="translate(853.373047 0)"/>
    <use xlink:href="#DejaVuSans-74" transform="translate(886.828125 0)"/>
    <use xlink:href="#DejaVuSans-20" transform="translate(926.037109 0)"/>
    <use xlink:href="#DejaVuSans-62" transform="translate(957.824219 0)"/>
    <use xlink:href="#DejaVuSans-65" transform="translate(1021.300781 0)"/>
    <use xlink:href="#DejaVuSans-68" transform="translate(1082.824219 0)"/>
    <use xlink:href="#DejaVuSans-69" transform="translate(1146.203125 0)"/>
    <use xlink:href="#DejaVuSans-6e" transform="translate(1173.986328 0)"/>
    <use xlink:href="#DejaVuSans-64" transform="translate(1237.365234 0)"/>
    <use xlink:href="#DejaVuSans-65" transform="translate(1300.841797 0)"/>
    <use xlink:href="#DejaVuSans-72" transform="translate(1362.365234 0)"/>
    <use xlink:href="#DejaVuSans-6e" transform="translate(1401.728516 0)"/>
    <use xlink:href="#DejaVuSans-20" transform="translate(1465.107422 0)"/>
    <use xlink:href="#DejaVuSans-74" transform="translate(1496.894531 0)"/>
    <use xlink:href="#DejaVuSans-65" transform="translate(1536.103516 0)"/>
    <use xlink:href="#DejaVuSans-63" transform="translate(1597.626953 0)"/>
    <use xlink:href="#DejaVuSans-68" transform="translate(1652.607422 0)"/>
    <use xlink:href="#DejaVuSans-6e" transform="translate(1715.986328 0)"/>
    <use xlink:href="#DejaVuSans-6f" transform="translate(1779.365234 0)"/>
    <use xlink:href="#DejaVuSans-6c" transform="translate(1840.546875 0)"/>
    <use xlink:href="#DejaVuSans-6f" transform="translate(1868.330078 0)"/>
    <use xlink:href="#DejaVuSans-67" transform="translate(1929.511719 0)"/>
    <use xlink:href="#DejaVuSans-69" transform="translate(1992.988281 0)"/>
    <use xlink:href="#DejaVuSans-73" transform="translate(2020.771484 0)"/>
    <use xlink:href="#DejaVuSans-63" transform="translate(2072.871094 0)"/>
    <use xlink:href="#DejaVuSans-68" transform="translate(2127.851562 0)"/>
    <use xlink:href="#DejaVuSans-65" transform="translate(2191.230469 0)"/>
    <use xlink:href="#DejaVuSans-20" transform="translate(2252.753906 0)"/>
    <use xlink:href="#DejaVuSans-49" transform="translate(2284.541016 0)"/>
    <use xlink:href="#DejaVuSans-6e" transform="translate(2314.033203 0)"/>
    <use xlink:href="#DejaVuSans-6e" transform="translate(2377.412109 0)"/>
    <use xlink:href="#DejaVuSans-6f" transform="translate(2440.791016 0)"/>
    <use xlink:href="#DejaVuSans-76" transform="translate(2501.972656 0)"/>
    <use xlink:href="#DejaVuSans-61" transform="translate(2561.152344 0)"/>
    <use xlink:href="#DejaVuSans-74" transform="translate(2622.431641 0)"/>
    <use xlink:href="#DejaVuSans-69" transform="translate(2661.640625 0)"/>
    <use xlink:href="#DejaVuSans-6f" transform="translate(2689.423828 0)"/>
    <use xlink:href="#DejaVuSans-6e" transform="translate(2750.605469 0)"/>
    <use xlink:href="#DejaVuSans-65" transform="translate(2813.984375 0)"/>
    <use xlink:href="#DejaVuSans-6e" transform="translate(2875.507812 0)"/>
    <use xlink:href="#DejaVuSans-20" transform="translate(2938.886719 0)"/>
    <use xlink:href="#DejaVuSans-75" transform="translate(2970.673828 0)"/>
    <use xlink:href="#DejaVuSans-6e" transform="translate(3034.052734 0)"/>
    <use xlink:href="#DejaVuSans-64" transform="translate(3097.431641 0)"/>
   </g>
   <!-- Produktvielfalt." -->
   <g transform="translate(419.994375 619.584375) scale(0.12 -0.12)">
    <use xlink:href="#DejaVuSans-50"/>
    <use xlink:href="#DejaVuSans-72" transform="translate(58.552734 0)"/>
    <use xlink:href="#DejaVuSans-6f" transform="translate(97.416016 0)"/>
    <use xlink:href="#DejaVuSans-64" transform="translate(158.597656 0)"/>
    <use xlink:href="#DejaVuSans-75" transform="translate(222.074219 0)"/>
    <use xlink:href="#DejaVuSans-6b" transform="translate(285.453125 0)"/>
    <use xlink:href="#DejaVuSans-74" transform="translate(343.363281 0)"/>
    <use xlink:href="#DejaVuSans-76" transform="translate(382.572266 0)"/>
    <use xlink:href="#DejaVuSans-69" transform="translate(441.751953 0)"/>
    <use xlink:href="#DejaVuSans-65" transform="translate(469.535156 0)"/>
    <use xlink:href="#DejaVuSans-6c" transform="translate(531.058594 0)"/>
    <use xlink:href="#DejaVuSans-66" transform="translate(558.841797 0)"/>
    <use xlink:href="#DejaVuSans-61" transform="translate(594.046875 0)"/>
    <use xlink:href="#DejaVuSans-6c" transform="translate(655.326172 0)"/>
    <use xlink:href="#DejaVuSans-74" transform="translate(683.109375 0)"/>
    <use xlink:href="#DejaVuSans-2e" transform="translate(722.318359 0)"/>
    <use xlink:href="#DejaVuSans-22" transform="translate(754.105469 0)"/>
   </g>
  </g>
 </g>
 <defs>
  <clipPath id="p5c8d6e1f67">
   <rect x="254.16" y="51.84" width="427.68" height="427.68"/>
  </clipPath>
 </defs>
</svg>
