<?xml version="1.0" encoding="utf-8" standalone="no"?>
<!DOCTYPE svg PUBLIC "-//W3C//DTD SVG 1.1//EN"
  "http://www.w3.org/Graphics/SVG/1.1/DTD/svg11.dtd">
<svg xmlns:xlink="http://www.w3.org/1999/xlink" width="936pt" height="648pt" viewBox="0 0 936 648" xmlns="http://www.w3.org/2000/svg" version="1.1">
 <metadata>
  <rdf:RDF xmlns:dc="http://purl.org/dc/elements/1.1/" xmlns:cc="http://creativecommons.org/ns#" xmlns:rdf="http://www.w3.org/1999/02/22-rdf-syntax-ns#">
   <cc:Work>
    <dc:type rdf:resource="http://purl.org/dc/dcmitype/StillImage"/>
    <dc:date>2026-02-23T14:10:30.014884</dc:date>
    <dc:format>image/svg+xml</dc:format>
    <dc:creator>
     <cc:Agent>
      <dc:title>Matplotlib v3.10.8, https://matplotlib.org/</dc:title>
     </cc:Agent>
    </dc:creator>
   </cc:Work>
  </rdf:RDF>
 </metadata>
 <defs>
  <style type="text/css">*{stroke-linejoin: round; stroke-linecap: butt}</style>
 </defs>
 <g id="figure_1">
  <g id="patch_1">
   <path d="M 0 648 
L 936 648 
L 936 0 
L 0 0 
z
" style="fill: #ffffff"/>
  </g>
  <g id="axes_1">
   <g id="patch_2">
    <path d="M 620.307641 187.782562 
C 605.963086 159.735609 584.146328 136.188463 557.273626 119.74902 
C 530.400918 103.309576 499.502337 94.608 467.999993 94.608 
L 467.999995 154.4832 
C 488.476519 154.4832 508.560597 160.139225 526.027857 170.824863 
C 543.495113 181.510501 557.676006 196.816146 566.999966 215.046665 
z
" style="fill: #003b6a; stroke: #ffffff; stroke-linejoin: miter"/>
   </g>
   <g id="patch_3">
    <path d="M 534.068574 423.479158 
C 555.803355 414.379064 575.42545 400.885821 591.701491 383.847546 
C 607.977533 366.809272 620.559224 346.590595 628.655729 324.462354 
C 636.752234 302.334113 640.190291 278.769874 638.753802 255.250755 
C 637.317314 231.731634 631.037001 208.760963 620.307641 187.782562 
L 566.999966 215.046665 
C 573.974051 228.682626 578.056254 243.613562 578.989971 258.90099 
C 579.923689 274.188418 577.688952 289.505174 572.426224 303.88853 
C 567.163495 318.271887 558.985396 331.414027 548.405969 342.488905 
C 537.826542 353.563783 525.072181 362.334392 510.944573 368.249452 
z
" style="fill: #8fc73e; stroke: #ffffff; stroke-linejoin: miter"/>
   </g>
   <g id="patch_4">
    <path d="M 323.447449 357.168733 
C 345.058029 391.313529 378.082994 416.721202 416.626849 428.856064 
C 455.170706 440.990925 496.794796 439.085226 534.068574 423.479158 
L 510.944573 368.249452 
C 486.716617 378.393397 459.660959 379.632102 434.607452 371.744441 
C 409.553946 363.856781 388.087719 347.341794 374.040842 325.147677 
z
" style="fill: #dc912f; stroke: #ffffff; stroke-linejoin: miter"/>
   </g>
   <g id="patch_5">
    <path d="M 297.107013 257.856025 
C 296.31002 275.264262 298.177634 292.692504 302.645139 309.536593 
C 307.112644 326.380682 314.127831 342.443699 323.447449 357.168733 
L 374.040842 325.147677 
C 367.98309 315.576405 363.423218 305.135443 360.51934 294.186785 
C 357.615462 283.238128 356.401513 271.90977 356.919558 260.594416 
z
" style="fill: #93bbdc; stroke: #ffffff; stroke-linejoin: miter"/>
   </g>
   <g id="patch_6">
    <path d="M 301.384574 226.886581 
C 300.201136 231.969392 299.250887 237.103719 298.536843 242.273403 
C 297.8228 247.443087 297.345697 252.642721 297.107013 257.856025 
L 356.919558 260.594416 
C 357.074703 257.205769 357.38482 253.826007 357.848948 250.465712 
C 358.313076 247.105418 358.930738 243.768105 359.699973 240.464278 
z
" style="fill: #f9c803; stroke: #ffffff; stroke-linejoin: miter"/>
   </g>
   <g id="patch_7">
    <path d="M 467.99992 94.608 
C 429.380496 94.60802 391.876234 107.685515 361.629968 131.698496 
C 331.383703 155.711476 310.142171 189.273225 301.384574 226.886581 
L 359.699973 240.464278 
C 365.392411 216.015596 379.199407 194.20046 398.859479 178.592022 
C 418.519552 162.983585 442.897322 154.483213 467.999948 154.4832 
z
" style="fill: #6283aa; stroke: #ffffff; stroke-linejoin: miter"/>
   </g>
   <g id="matplotlib.axis_1"/>
   <g id="matplotlib.axis_2"/>
   <g id="line2d_1">
    <path d="M 546.560789 137.260737 
L 566.200987 105.155921 
" clip-path="url(#p80cfccd793)" style="fill: none; stroke: #000000; stroke-opacity: 0.35; stroke-linecap: square"/>
   </g>
   <g id="line2d_2">
    <path d="M 609.377038 317.40848 
L 644.721311 330.3406 
" clip-path="url(#p80cfccd793)" style="fill: none; stroke: #000000; stroke-opacity: 0.35; stroke-linecap: square"/>
   </g>
   <g id="line2d_3">
    <path d="M 422.791627 409.27494 
L 411.489534 445.173667 
" clip-path="url(#p80cfccd793)" style="fill: none; stroke: #000000; stroke-opacity: 0.35; stroke-linecap: square"/>
   </g>
   <g id="line2d_4">
    <path d="M 322.487737 304.273839 
L 286.109663 313.9223 
" clip-path="url(#p80cfccd793)" style="fill: none; stroke: #000000; stroke-opacity: 0.35; stroke-linecap: square"/>
   </g>
   <g id="line2d_5">
    <path d="M 318.87242 245.082195 
L 281.590533 239.932744 
" clip-path="url(#p80cfccd793)" style="fill: none; stroke: #000000; stroke-opacity: 0.35; stroke-linecap: square"/>
   </g>
   <g id="line2d_6">
    <path d="M 374.394373 147.776273 
L 350.992959 118.300346 
" clip-path="url(#p80cfccd793)" style="fill: none; stroke: #000000; stroke-opacity: 0.35; stroke-linecap: square"/>
   </g>
   <g id="text_1">
    <!-- 17% -->
    <g transform="translate(579.59203 80.994642) scale(0.08 -0.08)">
     <defs>
      <path id="DejaVuSans-31" d="M 794 531 
L 1825 531 
L 1825 4091 
L 703 3866 
L 703 4441 
L 1819 4666 
L 2450 4666 
L 2450 531 
L 3481 531 
L 3481 0 
L 794 0 
L 794 531 
z
" transform="scale(0.015625)"/>
      <path id="DejaVuSans-37" d="M 525 4666 
L 3525 4666 
L 3525 4397 
L 1831 0 
L 1172 0 
L 2766 4134 
L 525 4134 
L 525 4666 
z
" transform="scale(0.015625)"/>
      <path id="DejaVuSans-25" d="M 4653 2053 
Q 4381 2053 4226 1822 
Q 4072 1591 4072 1178 
Q 4072 772 4226 539 
Q 4381 306 4653 306 
Q 4919 306 5073 539 
Q 5228 772 5228 1178 
Q 5228 1588 5073 1820 
Q 4919 2053 4653 2053 
z
M 4653 2450 
Q 5147 2450 5437 2106 
Q 5728 1763 5728 1178 
Q 5728 594 5436 251 
Q 5144 -91 4653 -91 
Q 4153 -91 3862 251 
Q 3572 594 3572 1178 
Q 3572 1766 3864 2108 
Q 4156 2450 4653 2450 
z
M 1428 4353 
Q 1159 4353 1004 4120 
Q 850 3888 850 3481 
Q 850 3069 1003 2837 
Q 1156 2606 1428 2606 
Q 1700 2606 1854 2837 
Q 2009 3069 2009 3481 
Q 2009 3884 1853 4118 
Q 1697 4353 1428 4353 
z
M 4250 4750 
L 4750 4750 
L 1831 -91 
L 1331 -91 
L 4250 4750 
z
M 1428 4750 
Q 1922 4750 2215 4408 
Q 2509 4066 2509 3481 
Q 2509 2891 2217 2550 
Q 1925 2209 1428 2209 
Q 931 2209 642 2551 
Q 353 2894 353 3481 
Q 353 4063 643 4406 
Q 934 4750 1428 4750 
z
" transform="scale(0.015625)"/>
     </defs>
     <use xlink:href="#DejaVuSans-31"/>
     <use xlink:href="#DejaVuSans-37" transform="translate(63.623047 0)"/>
     <use xlink:href="#DejaVuSans-25" transform="translate(127.246094 0)"/>
    </g>
    <!-- Kein Hemmnis -->
    <g transform="translate(579.59203 89.952892) scale(0.08 -0.08)">
     <defs>
      <path id="DejaVuSans-4b" d="M 628 4666 
L 1259 4666 
L 1259 2694 
L 3353 4666 
L 4166 4666 
L 1850 2491 
L 4331 0 
L 3500 0 
L 1259 2247 
L 1259 0 
L 628 0 
L 628 4666 
z
" transform="scale(0.015625)"/>
      <path id="DejaVuSans-65" d="M 3597 1894 
L 3597 1613 
L 953 1613 
Q 991 1019 1311 708 
Q 1631 397 2203 397 
Q 2534 397 2845 478 
Q 3156 559 3463 722 
L 3463 178 
Q 3153 47 2828 -22 
Q 2503 -91 2169 -91 
Q 1331 -91 842 396 
Q 353 884 353 1716 
Q 353 2575 817 3079 
Q 1281 3584 2069 3584 
Q 2775 3584 3186 3129 
Q 3597 2675 3597 1894 
z
M 3022 2063 
Q 3016 2534 2758 2815 
Q 2500 3097 2075 3097 
Q 1594 3097 1305 2825 
Q 1016 2553 972 2059 
L 3022 2063 
z
" transform="scale(0.015625)"/>
      <path id="DejaVuSans-69" d="M 603 3500 
L 1178 3500 
L 1178 0 
L 603 0 
L 603 3500 
z
M 603 4863 
L 1178 4863 
L 1178 4134 
L 603 4134 
L 603 4863 
z
" transform="scale(0.015625)"/>
      <path id="DejaVuSans-6e" d="M 3513 2113 
L 3513 0 
L 2938 0 
L 2938 2094 
Q 2938 2591 2744 2837 
Q 2550 3084 2163 3084 
Q 1697 3084 1428 2787 
Q 1159 2491 1159 1978 
L 1159 0 
L 581 0 
L 581 3500 
L 1159 3500 
L 1159 2956 
Q 1366 3272 1645 3428 
Q 1925 3584 2291 3584 
Q 2894 3584 3203 3211 
Q 3513 2838 3513 2113 
z
" transform="scale(0.015625)"/>
      <path id="DejaVuSans-20" transform="scale(0.015625)"/>
      <path id="DejaVuSans-48" d="M 628 4666 
L 1259 4666 
L 1259 2753 
L 3553 2753 
L 3553 4666 
L 4184 4666 
L 4184 0 
L 3553 0 
L 3553 2222 
L 1259 2222 
L 1259 0 
L 628 0 
L 628 4666 
z
" transform="scale(0.015625)"/>
      <path id="DejaVuSans-6d" d="M 3328 2828 
Q 3544 3216 3844 3400 
Q 4144 3584 4550 3584 
Q 5097 3584 5394 3201 
Q 5691 2819 5691 2113 
L 5691 0 
L 5113 0 
L 5113 2094 
Q 5113 2597 4934 2840 
Q 4756 3084 4391 3084 
Q 3944 3084 3684 2787 
Q 3425 2491 3425 1978 
L 3425 0 
L 2847 0 
L 2847 2094 
Q 2847 2600 2669 2842 
Q 2491 3084 2119 3084 
Q 1678 3084 1418 2786 
Q 1159 2488 1159 1978 
L 1159 0 
L 581 0 
L 581 3500 
L 1159 3500 
L 1159 2956 
Q 1356 3278 1631 3431 
Q 1906 3584 2284 3584 
Q 2666 3584 2933 3390 
Q 3200 3197 3328 2828 
z
" transform="scale(0.015625)"/>
      <path id="DejaVuSans-73" d="M 2834 3397 
L 2834 2853 
Q 2591 2978 2328 3040 
Q 2066 3103 1784 3103 
Q 1356 3103 1142 2972 
Q 928 2841 928 2578 
Q 928 2378 1081 2264 
Q 1234 2150 1697 2047 
L 1894 2003 
Q 2506 1872 2764 1633 
Q 3022 1394 3022 966 
Q 3022 478 2636 193 
Q 2250 -91 1575 -91 
Q 1294 -91 989 -36 
Q 684 19 347 128 
L 347 722 
Q 666 556 975 473 
Q 1284 391 1588 391 
Q 1994 391 2212 530 
Q 2431 669 2431 922 
Q 2431 1156 2273 1281 
Q 2116 1406 1581 1522 
L 1381 1569 
Q 847 1681 609 1914 
Q 372 2147 372 2553 
Q 372 3047 722 3315 
Q 1072 3584 1716 3584 
Q 2034 3584 2315 3537 
Q 2597 3491 2834 3397 
z
" transform="scale(0.015625)"/>
     </defs>
     <use xlink:href="#DejaVuSans-4b"/>
     <use xlink:href="#DejaVuSans-65" transform="translate(60.576172 0)"/>
     <use xlink:href="#DejaVuSans-69" transform="translate(122.099609 0)"/>
     <use xlink:href="#DejaVuSans-6e" transform="translate(149.882812 0)"/>
     <use xlink:href="#DejaVuSans-20" transform="translate(213.261719 0)"/>
     <use xlink:href="#DejaVuSans-48" transform="translate(245.048828 0)"/>
     <use xlink:href="#DejaVuSans-65" transform="translate(320.244141 0)"/>
     <use xlink:href="#DejaVuSans-6d" transform="translate(381.767578 0)"/>
     <use xlink:href="#DejaVuSans-6d" transform="translate(479.179688 0)"/>
     <use xlink:href="#DejaVuSans-6e" transform="translate(576.591797 0)"/>
     <use xlink:href="#DejaVuSans-69" transform="translate(639.970703 0)"/>
     <use xlink:href="#DejaVuSans-73" transform="translate(667.753906 0)"/>
    </g>
   </g>
   <g id="text_2">
    <!-- 26% -->
    <g transform="translate(668.819668 336.88633) scale(0.08 -0.08)">
     <defs>
      <path id="DejaVuSans-32" d="M 1228 531 
L 3431 531 
L 3431 0 
L 469 0 
L 469 531 
Q 828 903 1448 1529 
Q 2069 2156 2228 2338 
Q 2531 2678 2651 2914 
Q 2772 3150 2772 3378 
Q 2772 3750 2511 3984 
Q 2250 4219 1831 4219 
Q 1534 4219 1204 4116 
Q 875 4013 500 3803 
L 500 4441 
Q 881 4594 1212 4672 
Q 1544 4750 1819 4750 
Q 2544 4750 2975 4387 
Q 3406 4025 3406 3419 
Q 3406 3131 3298 2873 
Q 3191 2616 2906 2266 
Q 2828 2175 2409 1742 
Q 1991 1309 1228 531 
z
" transform="scale(0.015625)"/>
      <path id="DejaVuSans-36" d="M 2113 2584 
Q 1688 2584 1439 2293 
Q 1191 2003 1191 1497 
Q 1191 994 1439 701 
Q 1688 409 2113 409 
Q 2538 409 2786 701 
Q 3034 994 3034 1497 
Q 3034 2003 2786 2293 
Q 2538 2584 2113 2584 
z
M 3366 4563 
L 3366 3988 
Q 3128 4100 2886 4159 
Q 2644 4219 2406 4219 
Q 1781 4219 1451 3797 
Q 1122 3375 1075 2522 
Q 1259 2794 1537 2939 
Q 1816 3084 2150 3084 
Q 2853 3084 3261 2657 
Q 3669 2231 3669 1497 
Q 3669 778 3244 343 
Q 2819 -91 2113 -91 
Q 1303 -91 875 529 
Q 447 1150 447 2328 
Q 447 3434 972 4092 
Q 1497 4750 2381 4750 
Q 2619 4750 2861 4703 
Q 3103 4656 3366 4563 
z
" transform="scale(0.015625)"/>
     </defs>
     <use xlink:href="#DejaVuSans-32"/>
     <use xlink:href="#DejaVuSans-36" transform="translate(63.623047 0)"/>
     <use xlink:href="#DejaVuSans-25" transform="translate(127.246094 0)"/>
    </g>
    <!-- Geringes Hemmnis -->
    <g transform="translate(668.819668 345.84458) scale(0.08 -0.08)">
     <defs>
      <path id="DejaVuSans-47" d="M 3809 666 
L 3809 1919 
L 2778 1919 
L 2778 2438 
L 4434 2438 
L 4434 434 
Q 4069 175 3628 42 
Q 3188 -91 2688 -91 
Q 1594 -91 976 548 
Q 359 1188 359 2328 
Q 359 3472 976 4111 
Q 1594 4750 2688 4750 
Q 3144 4750 3555 4637 
Q 3966 4525 4313 4306 
L 4313 3634 
Q 3963 3931 3569 4081 
Q 3175 4231 2741 4231 
Q 1884 4231 1454 3753 
Q 1025 3275 1025 2328 
Q 1025 1384 1454 906 
Q 1884 428 2741 428 
Q 3075 428 3337 486 
Q 3600 544 3809 666 
z
" transform="scale(0.015625)"/>
      <path id="DejaVuSans-72" d="M 2631 2963 
Q 2534 3019 2420 3045 
Q 2306 3072 2169 3072 
Q 1681 3072 1420 2755 
Q 1159 2438 1159 1844 
L 1159 0 
L 581 0 
L 581 3500 
L 1159 3500 
L 1159 2956 
Q 1341 3275 1631 3429 
Q 1922 3584 2338 3584 
Q 2397 3584 2469 3576 
Q 2541 3569 2628 3553 
L 2631 2963 
z
" transform="scale(0.015625)"/>
      <path id="DejaVuSans-67" d="M 2906 1791 
Q 2906 2416 2648 2759 
Q 2391 3103 1925 3103 
Q 1463 3103 1205 2759 
Q 947 2416 947 1791 
Q 947 1169 1205 825 
Q 1463 481 1925 481 
Q 2391 481 2648 825 
Q 2906 1169 2906 1791 
z
M 3481 434 
Q 3481 -459 3084 -895 
Q 2688 -1331 1869 -1331 
Q 1566 -1331 1297 -1286 
Q 1028 -1241 775 -1147 
L 775 -588 
Q 1028 -725 1275 -790 
Q 1522 -856 1778 -856 
Q 2344 -856 2625 -561 
Q 2906 -266 2906 331 
L 2906 616 
Q 2728 306 2450 153 
Q 2172 0 1784 0 
Q 1141 0 747 490 
Q 353 981 353 1791 
Q 353 2603 747 3093 
Q 1141 3584 1784 3584 
Q 2172 3584 2450 3431 
Q 2728 3278 2906 2969 
L 2906 3500 
L 3481 3500 
L 3481 434 
z
" transform="scale(0.015625)"/>
     </defs>
     <use xlink:href="#DejaVuSans-47"/>
     <use xlink:href="#DejaVuSans-65" transform="translate(77.490234 0)"/>
     <use xlink:href="#DejaVuSans-72" transform="translate(139.013672 0)"/>
     <use xlink:href="#DejaVuSans-69" transform="translate(180.126953 0)"/>
     <use xlink:href="#DejaVuSans-6e" transform="translate(207.910156 0)"/>
     <use xlink:href="#DejaVuSans-67" transform="translate(271.289062 0)"/>
     <use xlink:href="#DejaVuSans-65" transform="translate(334.765625 0)"/>
     <use xlink:href="#DejaVuSans-73" transform="translate(396.289062 0)"/>
     <use xlink:href="#DejaVuSans-20" transform="translate(448.388672 0)"/>
     <use xlink:href="#DejaVuSans-48" transform="translate(480.175781 0)"/>
     <use xlink:href="#DejaVuSans-65" transform="translate(555.371094 0)"/>
     <use xlink:href="#DejaVuSans-6d" transform="translate(616.894531 0)"/>
     <use xlink:href="#DejaVuSans-6d" transform="translate(714.306641 0)"/>
     <use xlink:href="#DejaVuSans-6e" transform="translate(811.71875 0)"/>
     <use xlink:href="#DejaVuSans-69" transform="translate(875.097656 0)"/>
     <use xlink:href="#DejaVuSans-73" transform="translate(902.880859 0)"/>
    </g>
   </g>
   <g id="text_3">
    <!-- 22% -->
    <g transform="translate(386.002312 467.378452) scale(0.08 -0.08)">
     <use xlink:href="#DejaVuSans-32"/>
     <use xlink:href="#DejaVuSans-32" transform="translate(63.623047 0)"/>
     <use xlink:href="#DejaVuSans-25" transform="translate(127.246094 0)"/>
    </g>
    <!-- Mittleres Hemmnis -->
    <g transform="translate(328.516062 476.336702) scale(0.08 -0.08)">
     <defs>
      <path id="DejaVuSans-4d" d="M 628 4666 
L 1569 4666 
L 2759 1491 
L 3956 4666 
L 4897 4666 
L 4897 0 
L 4281 0 
L 4281 4097 
L 3078 897 
L 2444 897 
L 1241 4097 
L 1241 0 
L 628 0 
L 628 4666 
z
" transform="scale(0.015625)"/>
      <path id="DejaVuSans-74" d="M 1172 4494 
L 1172 3500 
L 2356 3500 
L 2356 3053 
L 1172 3053 
L 1172 1153 
Q 1172 725 1289 603 
Q 1406 481 1766 481 
L 2356 481 
L 2356 0 
L 1766 0 
Q 1100 0 847 248 
Q 594 497 594 1153 
L 594 3053 
L 172 3053 
L 172 3500 
L 594 3500 
L 594 4494 
L 1172 4494 
z
" transform="scale(0.015625)"/>
      <path id="DejaVuSans-6c" d="M 603 4863 
L 1178 4863 
L 1178 0 
L 603 0 
L 603 4863 
z
" transform="scale(0.015625)"/>
     </defs>
     <use xlink:href="#DejaVuSans-4d"/>
     <use xlink:href="#DejaVuSans-69" transform="translate(86.279297 0)"/>
     <use xlink:href="#DejaVuSans-74" transform="translate(114.0625 0)"/>
     <use xlink:href="#DejaVuSans-74" transform="translate(153.271484 0)"/>
     <use xlink:href="#DejaVuSans-6c" transform="translate(192.480469 0)"/>
     <use xlink:href="#DejaVuSans-65" transform="translate(220.263672 0)"/>
     <use xlink:href="#DejaVuSans-72" transform="translate(281.787109 0)"/>
     <use xlink:href="#DejaVuSans-65" transform="translate(320.650391 0)"/>
     <use xlink:href="#DejaVuSans-73" transform="translate(382.173828 0)"/>
     <use xlink:href="#DejaVuSans-20" transform="translate(434.273438 0)"/>
     <use xlink:href="#DejaVuSans-48" transform="translate(466.060547 0)"/>
     <use xlink:href="#DejaVuSans-65" transform="translate(541.255859 0)"/>
     <use xlink:href="#DejaVuSans-6d" transform="translate(602.779297 0)"/>
     <use xlink:href="#DejaVuSans-6d" transform="translate(700.191406 0)"/>
     <use xlink:href="#DejaVuSans-6e" transform="translate(797.603516 0)"/>
     <use xlink:href="#DejaVuSans-69" transform="translate(860.982422 0)"/>
     <use xlink:href="#DejaVuSans-73" transform="translate(888.765625 0)"/>
    </g>
   </g>
   <g id="text_4">
    <!-- 10% -->
    <g transform="translate(243.525179 318.229169) scale(0.08 -0.08)">
     <defs>
      <path id="DejaVuSans-30" d="M 2034 4250 
Q 1547 4250 1301 3770 
Q 1056 3291 1056 2328 
Q 1056 1369 1301 889 
Q 1547 409 2034 409 
Q 2525 409 2770 889 
Q 3016 1369 3016 2328 
Q 3016 3291 2770 3770 
Q 2525 4250 2034 4250 
z
M 2034 4750 
Q 2819 4750 3233 4129 
Q 3647 3509 3647 2328 
Q 3647 1150 3233 529 
Q 2819 -91 2034 -91 
Q 1250 -91 836 529 
Q 422 1150 422 2328 
Q 422 3509 836 4129 
Q 1250 4750 2034 4750 
z
" transform="scale(0.015625)"/>
     </defs>
     <use xlink:href="#DejaVuSans-31"/>
     <use xlink:href="#DejaVuSans-30" transform="translate(63.623047 0)"/>
     <use xlink:href="#DejaVuSans-25" transform="translate(127.246094 0)"/>
    </g>
    <!-- Starkes Hemmnis -->
    <g transform="translate(190.941429 327.187419) scale(0.08 -0.08)">
     <defs>
      <path id="DejaVuSans-53" d="M 3425 4513 
L 3425 3897 
Q 3066 4069 2747 4153 
Q 2428 4238 2131 4238 
Q 1616 4238 1336 4038 
Q 1056 3838 1056 3469 
Q 1056 3159 1242 3001 
Q 1428 2844 1947 2747 
L 2328 2669 
Q 3034 2534 3370 2195 
Q 3706 1856 3706 1288 
Q 3706 609 3251 259 
Q 2797 -91 1919 -91 
Q 1588 -91 1214 -16 
Q 841 59 441 206 
L 441 856 
Q 825 641 1194 531 
Q 1563 422 1919 422 
Q 2459 422 2753 634 
Q 3047 847 3047 1241 
Q 3047 1584 2836 1778 
Q 2625 1972 2144 2069 
L 1759 2144 
Q 1053 2284 737 2584 
Q 422 2884 422 3419 
Q 422 4038 858 4394 
Q 1294 4750 2059 4750 
Q 2388 4750 2728 4690 
Q 3069 4631 3425 4513 
z
" transform="scale(0.015625)"/>
      <path id="DejaVuSans-61" d="M 2194 1759 
Q 1497 1759 1228 1600 
Q 959 1441 959 1056 
Q 959 750 1161 570 
Q 1363 391 1709 391 
Q 2188 391 2477 730 
Q 2766 1069 2766 1631 
L 2766 1759 
L 2194 1759 
z
M 3341 1997 
L 3341 0 
L 2766 0 
L 2766 531 
Q 2569 213 2275 61 
Q 1981 -91 1556 -91 
Q 1019 -91 701 211 
Q 384 513 384 1019 
Q 384 1609 779 1909 
Q 1175 2209 1959 2209 
L 2766 2209 
L 2766 2266 
Q 2766 2663 2505 2880 
Q 2244 3097 1772 3097 
Q 1472 3097 1187 3025 
Q 903 2953 641 2809 
L 641 3341 
Q 956 3463 1253 3523 
Q 1550 3584 1831 3584 
Q 2591 3584 2966 3190 
Q 3341 2797 3341 1997 
z
" transform="scale(0.015625)"/>
      <path id="DejaVuSans-6b" d="M 581 4863 
L 1159 4863 
L 1159 1991 
L 2875 3500 
L 3609 3500 
L 1753 1863 
L 3688 0 
L 2938 0 
L 1159 1709 
L 1159 0 
L 581 0 
L 581 4863 
z
" transform="scale(0.015625)"/>
     </defs>
     <use xlink:href="#DejaVuSans-53"/>
     <use xlink:href="#DejaVuSans-74" transform="translate(63.476562 0)"/>
     <use xlink:href="#DejaVuSans-61" transform="translate(102.685547 0)"/>
     <use xlink:href="#DejaVuSans-72" transform="translate(163.964844 0)"/>
     <use xlink:href="#DejaVuSans-6b" transform="translate(205.078125 0)"/>
     <use xlink:href="#DejaVuSans-65" transform="translate(259.363281 0)"/>
     <use xlink:href="#DejaVuSans-73" transform="translate(320.886719 0)"/>
     <use xlink:href="#DejaVuSans-20" transform="translate(372.986328 0)"/>
     <use xlink:href="#DejaVuSans-48" transform="translate(404.773438 0)"/>
     <use xlink:href="#DejaVuSans-65" transform="translate(479.96875 0)"/>
     <use xlink:href="#DejaVuSans-6d" transform="translate(541.492188 0)"/>
     <use xlink:href="#DejaVuSans-6d" transform="translate(638.904297 0)"/>
     <use xlink:href="#DejaVuSans-6e" transform="translate(736.316406 0)"/>
     <use xlink:href="#DejaVuSans-69" transform="translate(799.695312 0)"/>
     <use xlink:href="#DejaVuSans-73" transform="translate(827.478516 0)"/>
    </g>
   </g>
   <g id="text_5">
    <!-- 3% -->
    <g transform="translate(243.479802 234.15013) scale(0.08 -0.08)">
     <defs>
      <path id="DejaVuSans-33" d="M 2597 2516 
Q 3050 2419 3304 2112 
Q 3559 1806 3559 1356 
Q 3559 666 3084 287 
Q 2609 -91 1734 -91 
Q 1441 -91 1130 -33 
Q 819 25 488 141 
L 488 750 
Q 750 597 1062 519 
Q 1375 441 1716 441 
Q 2309 441 2620 675 
Q 2931 909 2931 1356 
Q 2931 1769 2642 2001 
Q 2353 2234 1838 2234 
L 1294 2234 
L 1294 2753 
L 1863 2753 
Q 2328 2753 2575 2939 
Q 2822 3125 2822 3475 
Q 2822 3834 2567 4026 
Q 2313 4219 1838 4219 
Q 1578 4219 1281 4162 
Q 984 4106 628 3988 
L 628 4550 
Q 988 4650 1302 4700 
Q 1616 4750 1894 4750 
Q 2613 4750 3031 4423 
Q 3450 4097 3450 3541 
Q 3450 3153 3228 2886 
Q 3006 2619 2597 2516 
z
" transform="scale(0.015625)"/>
     </defs>
     <use xlink:href="#DejaVuSans-33"/>
     <use xlink:href="#DejaVuSans-25" transform="translate(63.623047 0)"/>
    </g>
    <!-- Sehr starkes Hemmnis -->
    <g transform="translate(165.814802 243.10838) scale(0.08 -0.08)">
     <defs>
      <path id="DejaVuSans-68" d="M 3513 2113 
L 3513 0 
L 2938 0 
L 2938 2094 
Q 2938 2591 2744 2837 
Q 2550 3084 2163 3084 
Q 1697 3084 1428 2787 
Q 1159 2491 1159 1978 
L 1159 0 
L 581 0 
L 581 4863 
L 1159 4863 
L 1159 2956 
Q 1366 3272 1645 3428 
Q 1925 3584 2291 3584 
Q 2894 3584 3203 3211 
Q 3513 2838 3513 2113 
z
" transform="scale(0.015625)"/>
     </defs>
     <use xlink:href="#DejaVuSans-53"/>
     <use xlink:href="#DejaVuSans-65" transform="translate(63.476562 0)"/>
     <use xlink:href="#DejaVuSans-68" transform="translate(125 0)"/>
     <use xlink:href="#DejaVuSans-72" transform="translate(188.378906 0)"/>
     <use xlink:href="#DejaVuSans-20" transform="translate(229.492188 0)"/>
     <use xlink:href="#DejaVuSans-73" transform="translate(261.279297 0)"/>
     <use xlink:href="#DejaVuSans-74" transform="translate(313.378906 0)"/>
     <use xlink:href="#DejaVuSans-61" transform="translate(352.587891 0)"/>
     <use xlink:href="#DejaVuSans-72" transform="translate(413.867188 0)"/>
     <use xlink:href="#DejaVuSans-6b" transform="translate(454.980469 0)"/>
     <use xlink:href="#DejaVuSans-65" transform="translate(509.265625 0)"/>
     <use xlink:href="#DejaVuSans-73" transform="translate(570.789062 0)"/>
     <use xlink:href="#DejaVuSans-20" transform="translate(622.888672 0)"/>
     <use xlink:href="#DejaVuSans-48" transform="translate(654.675781 0)"/>
     <use xlink:href="#DejaVuSans-65" transform="translate(729.871094 0)"/>
     <use xlink:href="#DejaVuSans-6d" transform="translate(791.394531 0)"/>
     <use xlink:href="#DejaVuSans-6d" transform="translate(888.806641 0)"/>
     <use xlink:href="#DejaVuSans-6e" transform="translate(986.21875 0)"/>
     <use xlink:href="#DejaVuSans-69" transform="translate(1049.597656 0)"/>
     <use xlink:href="#DejaVuSans-73" transform="translate(1077.380859 0)"/>
    </g>
   </g>
   <g id="text_6">
    <!-- 21% -->
    <g transform="translate(317.256211 95.931492) scale(0.08 -0.08)">
     <use xlink:href="#DejaVuSans-32"/>
     <use xlink:href="#DejaVuSans-31" transform="translate(63.623047 0)"/>
     <use xlink:href="#DejaVuSans-25" transform="translate(127.246094 0)"/>
    </g>
    <!-- Keine Antwort -->
    <g transform="translate(278.969961 104.889742) scale(0.08 -0.08)">
     <defs>
      <path id="DejaVuSans-41" d="M 2188 4044 
L 1331 1722 
L 3047 1722 
L 2188 4044 
z
M 1831 4666 
L 2547 4666 
L 4325 0 
L 3669 0 
L 3244 1197 
L 1141 1197 
L 716 0 
L 50 0 
L 1831 4666 
z
" transform="scale(0.015625)"/>
      <path id="DejaVuSans-77" d="M 269 3500 
L 844 3500 
L 1563 769 
L 2278 3500 
L 2956 3500 
L 3675 769 
L 4391 3500 
L 4966 3500 
L 4050 0 
L 3372 0 
L 2619 2869 
L 1863 0 
L 1184 0 
L 269 3500 
z
" transform="scale(0.015625)"/>
      <path id="DejaVuSans-6f" d="M 1959 3097 
Q 1497 3097 1228 2736 
Q 959 2375 959 1747 
Q 959 1119 1226 758 
Q 1494 397 1959 397 
Q 2419 397 2687 759 
Q 2956 1122 2956 1747 
Q 2956 2369 2687 2733 
Q 2419 3097 1959 3097 
z
M 1959 3584 
Q 2709 3584 3137 3096 
Q 3566 2609 3566 1747 
Q 3566 888 3137 398 
Q 2709 -91 1959 -91 
Q 1206 -91 779 398 
Q 353 888 353 1747 
Q 353 2609 779 3096 
Q 1206 3584 1959 3584 
z
" transform="scale(0.015625)"/>
     </defs>
     <use xlink:href="#DejaVuSans-4b"/>
     <use xlink:href="#DejaVuSans-65" transform="translate(60.576172 0)"/>
     <use xlink:href="#DejaVuSans-69" transform="translate(122.099609 0)"/>
     <use xlink:href="#DejaVuSans-6e" transform="translate(149.882812 0)"/>
     <use xlink:href="#DejaVuSans-65" transform="translate(213.261719 0)"/>
     <use xlink:href="#DejaVuSans-20" transform="translate(274.785156 0)"/>
     <use xlink:href="#DejaVuSans-41" transform="translate(306.572266 0)"/>
     <use xlink:href="#DejaVuSans-6e" transform="translate(374.980469 0)"/>
     <use xlink:href="#DejaVuSans-74" transform="translate(438.359375 0)"/>
     <use xlink:href="#DejaVuSans-77" transform="translate(477.568359 0)"/>
     <use xlink:href="#DejaVuSans-6f" transform="translate(559.355469 0)"/>
     <use xlink:href="#DejaVuSans-72" transform="translate(620.537109 0)"/>
     <use xlink:href="#DejaVuSans-74" transform="translate(661.650391 0)"/>
    </g>
   </g>
  </g>
  <g id="text_7">
   <!-- Endprüfung -->
   <g transform="translate(432.992813 22.078125) scale(0.12 -0.12)">
    <defs>
     <path id="DejaVuSans-45" d="M 628 4666 
L 3578 4666 
L 3578 4134 
L 1259 4134 
L 1259 2753 
L 3481 2753 
L 3481 2222 
L 1259 2222 
L 1259 531 
L 3634 531 
L 3634 0 
L 628 0 
L 628 4666 
z
" transform="scale(0.015625)"/>
     <path id="DejaVuSans-64" d="M 2906 2969 
L 2906 4863 
L 3481 4863 
L 3481 0 
L 2906 0 
L 2906 525 
Q 2725 213 2448 61 
Q 2172 -91 1784 -91 
Q 1150 -91 751 415 
Q 353 922 353 1747 
Q 353 2572 751 3078 
Q 1150 3584 1784 3584 
Q 2172 3584 2448 3432 
Q 2725 3281 2906 2969 
z
M 947 1747 
Q 947 1113 1208 752 
Q 1469 391 1925 391 
Q 2381 391 2643 752 
Q 2906 1113 2906 1747 
Q 2906 2381 2643 2742 
Q 2381 3103 1925 3103 
Q 1469 3103 1208 2742 
Q 947 2381 947 1747 
z
" transform="scale(0.015625)"/>
     <path id="DejaVuSans-70" d="M 1159 525 
L 1159 -1331 
L 581 -1331 
L 581 3500 
L 1159 3500 
L 1159 2969 
Q 1341 3281 1617 3432 
Q 1894 3584 2278 3584 
Q 2916 3584 3314 3078 
Q 3713 2572 3713 1747 
Q 3713 922 3314 415 
Q 2916 -91 2278 -91 
Q 1894 -91 1617 61 
Q 1341 213 1159 525 
z
M 3116 1747 
Q 3116 2381 2855 2742 
Q 2594 3103 2138 3103 
Q 1681 3103 1420 2742 
Q 1159 2381 1159 1747 
Q 1159 1113 1420 752 
Q 1681 391 2138 391 
Q 2594 391 2855 752 
Q 3116 1113 3116 1747 
z
" transform="scale(0.015625)"/>
     <path id="DejaVuSans-fc" d="M 544 1381 
L 544 3500 
L 1119 3500 
L 1119 1403 
Q 1119 906 1312 657 
Q 1506 409 1894 409 
Q 2359 409 2629 706 
Q 2900 1003 2900 1516 
L 2900 3500 
L 3475 3500 
L 3475 0 
L 2900 0 
L 2900 538 
Q 2691 219 2414 64 
Q 2138 -91 1772 -91 
Q 1169 -91 856 284 
Q 544 659 544 1381 
z
M 1991 3584 
L 1991 3584 
z
M 2278 4850 
L 2912 4850 
L 2912 4219 
L 2278 4219 
L 2278 4850 
z
M 1056 4850 
L 1690 4850 
L 1690 4219 
L 1056 4219 
L 1056 4850 
z
" transform="scale(0.015625)"/>
     <path id="DejaVuSans-66" d="M 2375 4863 
L 2375 4384 
L 1825 4384 
Q 1516 4384 1395 4259 
Q 1275 4134 1275 3809 
L 1275 3500 
L 2222 3500 
L 2222 3053 
L 1275 3053 
L 1275 0 
L 697 0 
L 697 3053 
L 147 3053 
L 147 3500 
L 697 3500 
L 697 3744 
Q 697 4328 969 4595 
Q 1241 4863 1831 4863 
L 2375 4863 
z
" transform="scale(0.015625)"/>
     <path id="DejaVuSans-75" d="M 544 1381 
L 544 3500 
L 1119 3500 
L 1119 1403 
Q 1119 906 1312 657 
Q 1506 409 1894 409 
Q 2359 409 2629 706 
Q 2900 1003 2900 1516 
L 2900 3500 
L 3475 3500 
L 3475 0 
L 2900 0 
L 2900 538 
Q 2691 219 2414 64 
Q 2138 -91 1772 -91 
Q 1169 -91 856 284 
Q 544 659 544 1381 
z
M 1991 3584 
L 1991 3584 
z
" transform="scale(0.015625)"/>
    </defs>
    <use xlink:href="#DejaVuSans-45"/>
    <use xlink:href="#DejaVuSans-6e" transform="translate(63.183594 0)"/>
    <use xlink:href="#DejaVuSans-64" transform="translate(126.5625 0)"/>
    <use xlink:href="#DejaVuSans-70" transform="translate(190.039062 0)"/>
    <use xlink:href="#DejaVuSans-72" transform="translate(253.515625 0)"/>
    <use xlink:href="#DejaVuSans-fc" transform="translate(294.628906 0)"/>
    <use xlink:href="#DejaVuSans-66" transform="translate(358.007812 0)"/>
    <use xlink:href="#DejaVuSans-75" transform="translate(393.212891 0)"/>
    <use xlink:href="#DejaVuSans-6e" transform="translate(456.591797 0)"/>
    <use xlink:href="#DejaVuSans-67" transform="translate(519.970703 0)"/>
   </g>
  </g>
  <g id="text_8">
   <!-- Abbildung 36e: In welchen Lebenszyklusphasen bzw. Elementen des zirkulären -->
   <g transform="translate(250.675234 557.948813) scale(0.11 -0.11)">
    <defs>
     <path id="DejaVuSans-62" d="M 3116 1747 
Q 3116 2381 2855 2742 
Q 2594 3103 2138 3103 
Q 1681 3103 1420 2742 
Q 1159 2381 1159 1747 
Q 1159 1113 1420 752 
Q 1681 391 2138 391 
Q 2594 391 2855 752 
Q 3116 1113 3116 1747 
z
M 1159 2969 
Q 1341 3281 1617 3432 
Q 1894 3584 2278 3584 
Q 2916 3584 3314 3078 
Q 3713 2572 3713 1747 
Q 3713 922 3314 415 
Q 2916 -91 2278 -91 
Q 1894 -91 1617 61 
Q 1341 213 1159 525 
L 1159 0 
L 581 0 
L 581 4863 
L 1159 4863 
L 1159 2969 
z
" transform="scale(0.015625)"/>
     <path id="DejaVuSans-3a" d="M 750 794 
L 1409 794 
L 1409 0 
L 750 0 
L 750 794 
z
M 750 3309 
L 1409 3309 
L 1409 2516 
L 750 2516 
L 750 3309 
z
" transform="scale(0.015625)"/>
     <path id="DejaVuSans-49" d="M 628 4666 
L 1259 4666 
L 1259 0 
L 628 0 
L 628 4666 
z
" transform="scale(0.015625)"/>
     <path id="DejaVuSans-63" d="M 3122 3366 
L 3122 2828 
Q 2878 2963 2633 3030 
Q 2388 3097 2138 3097 
Q 1578 3097 1268 2742 
Q 959 2388 959 1747 
Q 959 1106 1268 751 
Q 1578 397 2138 397 
Q 2388 397 2633 464 
Q 2878 531 3122 666 
L 3122 134 
Q 2881 22 2623 -34 
Q 2366 -91 2075 -91 
Q 1284 -91 818 406 
Q 353 903 353 1747 
Q 353 2603 823 3093 
Q 1294 3584 2113 3584 
Q 2378 3584 2631 3529 
Q 2884 3475 3122 3366 
z
" transform="scale(0.015625)"/>
     <path id="DejaVuSans-4c" d="M 628 4666 
L 1259 4666 
L 1259 531 
L 3531 531 
L 3531 0 
L 628 0 
L 628 4666 
z
" transform="scale(0.015625)"/>
     <path id="DejaVuSans-7a" d="M 353 3500 
L 3084 3500 
L 3084 2975 
L 922 459 
L 3084 459 
L 3084 0 
L 275 0 
L 275 525 
L 2438 3041 
L 353 3041 
L 353 3500 
z
" transform="scale(0.015625)"/>
     <path id="DejaVuSans-79" d="M 2059 -325 
Q 1816 -950 1584 -1140 
Q 1353 -1331 966 -1331 
L 506 -1331 
L 506 -850 
L 844 -850 
Q 1081 -850 1212 -737 
Q 1344 -625 1503 -206 
L 1606 56 
L 191 3500 
L 800 3500 
L 1894 763 
L 2988 3500 
L 3597 3500 
L 2059 -325 
z
" transform="scale(0.015625)"/>
     <path id="DejaVuSans-2e" d="M 684 794 
L 1344 794 
L 1344 0 
L 684 0 
L 684 794 
z
" transform="scale(0.015625)"/>
     <path id="DejaVuSans-e4" d="M 2194 1759 
Q 1497 1759 1228 1600 
Q 959 1441 959 1056 
Q 959 750 1161 570 
Q 1363 391 1709 391 
Q 2188 391 2477 730 
Q 2766 1069 2766 1631 
L 2766 1759 
L 2194 1759 
z
M 3341 1997 
L 3341 0 
L 2766 0 
L 2766 531 
Q 2569 213 2275 61 
Q 1981 -91 1556 -91 
Q 1019 -91 701 211 
Q 384 513 384 1019 
Q 384 1609 779 1909 
Q 1175 2209 1959 2209 
L 2766 2209 
L 2766 2266 
Q 2766 2663 2505 2880 
Q 2244 3097 1772 3097 
Q 1472 3097 1187 3025 
Q 903 2953 641 2809 
L 641 3341 
Q 956 3463 1253 3523 
Q 1550 3584 1831 3584 
Q 2591 3584 2966 3190 
Q 3341 2797 3341 1997 
z
M 2150 4850 
L 2784 4850 
L 2784 4219 
L 2150 4219 
L 2150 4850 
z
M 928 4850 
L 1562 4850 
L 1562 4219 
L 928 4219 
L 928 4850 
z
" transform="scale(0.015625)"/>
    </defs>
    <use xlink:href="#DejaVuSans-41"/>
    <use xlink:href="#DejaVuSans-62" transform="translate(68.408203 0)"/>
    <use xlink:href="#DejaVuSans-62" transform="translate(131.884766 0)"/>
    <use xlink:href="#DejaVuSans-69" transform="translate(195.361328 0)"/>
    <use xlink:href="#DejaVuSans-6c" transform="translate(223.144531 0)"/>
    <use xlink:href="#DejaVuSans-64" transform="translate(250.927734 0)"/>
    <use xlink:href="#DejaVuSans-75" transform="translate(314.404297 0)"/>
    <use xlink:href="#DejaVuSans-6e" transform="translate(377.783203 0)"/>
    <use xlink:href="#DejaVuSans-67" transform="translate(441.162109 0)"/>
    <use xlink:href="#DejaVuSans-20" transform="translate(504.638672 0)"/>
    <use xlink:href="#DejaVuSans-33" transform="translate(536.425781 0)"/>
    <use xlink:href="#DejaVuSans-36" transform="translate(600.048828 0)"/>
    <use xlink:href="#DejaVuSans-65" transform="translate(663.671875 0)"/>
    <use xlink:href="#DejaVuSans-3a" transform="translate(725.195312 0)"/>
    <use xlink:href="#DejaVuSans-20" transform="translate(758.886719 0)"/>
    <use xlink:href="#DejaVuSans-49" transform="translate(790.673828 0)"/>
    <use xlink:href="#DejaVuSans-6e" transform="translate(820.166016 0)"/>
    <use xlink:href="#DejaVuSans-20" transform="translate(883.544922 0)"/>
    <use xlink:href="#DejaVuSans-77" transform="translate(915.332031 0)"/>
    <use xlink:href="#DejaVuSans-65" transform="translate(997.119141 0)"/>
    <use xlink:href="#DejaVuSans-6c" transform="translate(1058.642578 0)"/>
    <use xlink:href="#DejaVuSans-63" transform="translate(1086.425781 0)"/>
    <use xlink:href="#DejaVuSans-68" transform="translate(1141.40625 0)"/>
    <use xlink:href="#DejaVuSans-65" transform="translate(1204.785156 0)"/>
    <use xlink:href="#DejaVuSans-6e" transform="translate(1266.308594 0)"/>
    <use xlink:href="#DejaVuSans-20" transform="translate(1329.6875 0)"/>
    <use xlink:href="#DejaVuSans-4c" transform="translate(1361.474609 0)"/>
    <use xlink:href="#DejaVuSans-65" transform="translate(1415.4375 0)"/>
    <use xlink:href="#DejaVuSans-62" transform="translate(1476.960938 0)"/>
    <use xlink:href="#DejaVuSans-65" transform="translate(1540.4375 0)"/>
    <use xlink:href="#DejaVuSans-6e" transform="translate(1601.960938 0)"/>
    <use xlink:href="#DejaVuSans-73" transform="translate(1665.339844 0)"/>
    <use xlink:href="#DejaVuSans-7a" transform="translate(1717.439453 0)"/>
    <use xlink:href="#DejaVuSans-79" transform="translate(1769.929688 0)"/>
    <use xlink:href="#DejaVuSans-6b" transform="translate(1829.109375 0)"/>
    <use xlink:href="#DejaVuSans-6c" transform="translate(1887.019531 0)"/>
    <use xlink:href="#DejaVuSans-75" transform="translate(1914.802734 0)"/>
    <use xlink:href="#DejaVuSans-73" transform="translate(1978.181641 0)"/>
    <use xlink:href="#DejaVuSans-70" transform="translate(2030.28125 0)"/>
    <use xlink:href="#DejaVuSans-68" transform="translate(2093.757812 0)"/>
    <use xlink:href="#DejaVuSans-61" transform="translate(2157.136719 0)"/>
    <use xlink:href="#DejaVuSans-73" transform="translate(2218.416016 0)"/>
    <use xlink:href="#DejaVuSans-65" transform="translate(2270.515625 0)"/>
    <use xlink:href="#DejaVuSans-6e" transform="translate(2332.039062 0)"/>
    <use xlink:href="#DejaVuSans-20" transform="translate(2395.417969 0)"/>
    <use xlink:href="#DejaVuSans-62" transform="translate(2427.205078 0)"/>
    <use xlink:href="#DejaVuSans-7a" transform="translate(2490.681641 0)"/>
    <use xlink:href="#DejaVuSans-77" transform="translate(2543.171875 0)"/>
    <use xlink:href="#DejaVuSans-2e" transform="translate(2615.833984 0)"/>
    <use xlink:href="#DejaVuSans-20" transform="translate(2647.621094 0)"/>
    <use xlink:href="#DejaVuSans-45" transform="translate(2679.408203 0)"/>
    <use xlink:href="#DejaVuSans-6c" transform="translate(2742.591797 0)"/>
    <use xlink:href="#DejaVuSans-65" transform="translate(2770.375 0)"/>
    <use xlink:href="#DejaVuSans-6d" transform="translate(2831.898438 0)"/>
    <use xlink:href="#DejaVuSans-65" transform="translate(2929.310547 0)"/>
    <use xlink:href="#DejaVuSans-6e" transform="translate(2990.833984 0)"/>
    <use xlink:href="#DejaVuSans-74" transform="translate(3054.212891 0)"/>
    <use xlink:href="#DejaVuSans-65" transform="translate(3093.421875 0)"/>
    <use xlink:href="#DejaVuSans-6e" transform="translate(3154.945312 0)"/>
    <use xlink:href="#DejaVuSans-20" transform="translate(3218.324219 0)"/>
    <use xlink:href="#DejaVuSans-64" transform="translate(3250.111328 0)"/>
    <use xlink:href="#DejaVuSans-65" transform="translate(3313.587891 0)"/>
    <use xlink:href="#DejaVuSans-73" transform="translate(3375.111328 0)"/>
    <use xlink:href="#DejaVuSans-20" transform="translate(3427.210938 0)"/>
    <use xlink:href="#DejaVuSans-7a" transform="translate(3458.998047 0)"/>
    <use xlink:href="#DejaVuSans-69" transform="translate(3511.488281 0)"/>
    <use xlink:href="#DejaVuSans-72" transform="translate(3539.271484 0)"/>
    <use xlink:href="#DejaVuSans-6b" transform="translate(3580.384766 0)"/>
    <use xlink:href="#DejaVuSans-75" transform="translate(3635.169922 0)"/>
    <use xlink:href="#DejaVuSans-6c" transform="translate(3698.548828 0)"/>
    <use xlink:href="#DejaVuSans-e4" transform="translate(3726.332031 0)"/>
    <use xlink:href="#DejaVuSans-72" transform="translate(3787.611328 0)"/>
    <use xlink:href="#DejaVuSans-65" transform="translate(3826.474609 0)"/>
    <use xlink:href="#DejaVuSans-6e" transform="translate(3887.998047 0)"/>
   </g>
   <!-- Wertschöpfungsprozesses sehen Sie die größten Hemmnisse für die Umsetzung -->
   <g transform="translate(247.874531 569.430578) scale(0.11 -0.11)">
    <defs>
     <path id="DejaVuSans-57" d="M 213 4666 
L 850 4666 
L 1831 722 
L 2809 4666 
L 3519 4666 
L 4500 722 
L 5478 4666 
L 6119 4666 
L 4947 0 
L 4153 0 
L 3169 4050 
L 2175 0 
L 1381 0 
L 213 4666 
z
" transform="scale(0.015625)"/>
     <path id="DejaVuSans-f6" d="M 1959 3097 
Q 1497 3097 1228 2736 
Q 959 2375 959 1747 
Q 959 1119 1226 758 
Q 1494 397 1959 397 
Q 2419 397 2687 759 
Q 2956 1122 2956 1747 
Q 2956 2369 2687 2733 
Q 2419 3097 1959 3097 
z
M 1959 3584 
Q 2709 3584 3137 3096 
Q 3566 2609 3566 1747 
Q 3566 888 3137 398 
Q 2709 -91 1959 -91 
Q 1206 -91 779 398 
Q 353 888 353 1747 
Q 353 2609 779 3096 
Q 1206 3584 1959 3584 
z
M 2254 4850 
L 2888 4850 
L 2888 4219 
L 2254 4219 
L 2254 4850 
z
M 1032 4850 
L 1666 4850 
L 1666 4219 
L 1032 4219 
L 1032 4850 
z
" transform="scale(0.015625)"/>
     <path id="DejaVuSans-df" d="M 581 3553 
Q 581 4178 954 4520 
Q 1328 4863 2009 4863 
Q 2659 4863 3001 4500 
Q 3344 4138 3353 3438 
Q 2881 3413 2618 3233 
Q 2356 3053 2356 2753 
Q 2356 2606 2447 2479 
Q 2538 2353 2741 2222 
L 2919 2106 
Q 3438 1775 3588 1553 
Q 3738 1331 3738 1019 
Q 3738 481 3386 195 
Q 3034 -91 2375 -91 
Q 2175 -91 1962 -52 
Q 1750 -13 1522 63 
L 1522 575 
Q 1772 481 1990 436 
Q 2209 391 2413 391 
Q 2775 391 2962 539 
Q 3150 688 3150 972 
Q 3150 1169 3058 1300 
Q 2966 1431 2650 1625 
L 2363 1797 
Q 2063 1981 1927 2192 
Q 1791 2403 1791 2688 
Q 1791 3084 2052 3353 
Q 2313 3622 2784 3713 
Q 2759 4034 2554 4209 
Q 2350 4384 1997 4384 
Q 1591 4384 1378 4167 
Q 1166 3950 1166 3541 
L 1166 0 
L 581 0 
L 581 3553 
z
" transform="scale(0.015625)"/>
     <path id="DejaVuSans-55" d="M 556 4666 
L 1191 4666 
L 1191 1831 
Q 1191 1081 1462 751 
Q 1734 422 2344 422 
Q 2950 422 3222 751 
Q 3494 1081 3494 1831 
L 3494 4666 
L 4128 4666 
L 4128 1753 
Q 4128 841 3676 375 
Q 3225 -91 2344 -91 
Q 1459 -91 1007 375 
Q 556 841 556 1753 
L 556 4666 
z
" transform="scale(0.015625)"/>
    </defs>
    <use xlink:href="#DejaVuSans-57"/>
    <use xlink:href="#DejaVuSans-65" transform="translate(93.001953 0)"/>
    <use xlink:href="#DejaVuSans-72" transform="translate(154.525391 0)"/>
    <use xlink:href="#DejaVuSans-74" transform="translate(195.638672 0)"/>
    <use xlink:href="#DejaVuSans-73" transform="translate(234.847656 0)"/>
    <use xlink:href="#DejaVuSans-63" transform="translate(286.947266 0)"/>
    <use xlink:href="#DejaVuSans-68" transform="translate(341.927734 0)"/>
    <use xlink:href="#DejaVuSans-f6" transform="translate(405.306641 0)"/>
    <use xlink:href="#DejaVuSans-70" transform="translate(466.488281 0)"/>
    <use xlink:href="#DejaVuSans-66" transform="translate(529.964844 0)"/>
    <use xlink:href="#DejaVuSans-75" transform="translate(565.169922 0)"/>
    <use xlink:href="#DejaVuSans-6e" transform="translate(628.548828 0)"/>
    <use xlink:href="#DejaVuSans-67" transform="translate(691.927734 0)"/>
    <use xlink:href="#DejaVuSans-73" transform="translate(755.404297 0)"/>
    <use xlink:href="#DejaVuSans-70" transform="translate(807.503906 0)"/>
    <use xlink:href="#DejaVuSans-72" transform="translate(870.980469 0)"/>
    <use xlink:href="#DejaVuSans-6f" transform="translate(909.84375 0)"/>
    <use xlink:href="#DejaVuSans-7a" transform="translate(971.025391 0)"/>
    <use xlink:href="#DejaVuSans-65" transform="translate(1023.515625 0)"/>
    <use xlink:href="#DejaVuSans-73" transform="translate(1085.039062 0)"/>
    <use xlink:href="#DejaVuSans-73" transform="translate(1137.138672 0)"/>
    <use xlink:href="#DejaVuSans-65" transform="translate(1189.238281 0)"/>
    <use xlink:href="#DejaVuSans-73" transform="translate(1250.761719 0)"/>
    <use xlink:href="#DejaVuSans-20" transform="translate(1302.861328 0)"/>
    <use xlink:href="#DejaVuSans-73" transform="translate(1334.648438 0)"/>
    <use xlink:href="#DejaVuSans-65" transform="translate(1386.748047 0)"/>
    <use xlink:href="#DejaVuSans-68" transform="translate(1448.271484 0)"/>
    <use xlink:href="#DejaVuSans-65" transform="translate(1511.650391 0)"/>
    <use xlink:href="#DejaVuSans-6e" transform="translate(1573.173828 0)"/>
    <use xlink:href="#DejaVuSans-20" transform="translate(1636.552734 0)"/>
    <use xlink:href="#DejaVuSans-53" transform="translate(1668.339844 0)"/>
    <use xlink:href="#DejaVuSans-69" transform="translate(1731.816406 0)"/>
    <use xlink:href="#DejaVuSans-65" transform="translate(1759.599609 0)"/>
    <use xlink:href="#DejaVuSans-20" transform="translate(1821.123047 0)"/>
    <use xlink:href="#DejaVuSans-64" transform="translate(1852.910156 0)"/>
    <use xlink:href="#DejaVuSans-69" transform="translate(1916.386719 0)"/>
    <use xlink:href="#DejaVuSans-65" transform="translate(1944.169922 0)"/>
    <use xlink:href="#DejaVuSans-20" transform="translate(2005.693359 0)"/>
    <use xlink:href="#DejaVuSans-67" transform="translate(2037.480469 0)"/>
    <use xlink:href="#DejaVuSans-72" transform="translate(2100.957031 0)"/>
    <use xlink:href="#DejaVuSans-f6" transform="translate(2139.820312 0)"/>
    <use xlink:href="#DejaVuSans-df" transform="translate(2201.001953 0)"/>
    <use xlink:href="#DejaVuSans-74" transform="translate(2263.990234 0)"/>
    <use xlink:href="#DejaVuSans-65" transform="translate(2303.199219 0)"/>
    <use xlink:href="#DejaVuSans-6e" transform="translate(2364.722656 0)"/>
    <use xlink:href="#DejaVuSans-20" transform="translate(2428.101562 0)"/>
    <use xlink:href="#DejaVuSans-48" transform="translate(2459.888672 0)"/>
    <use xlink:href="#DejaVuSans-65" transform="translate(2535.083984 0)"/>
    <use xlink:href="#DejaVuSans-6d" transform="translate(2596.607422 0)"/>
    <use xlink:href="#DejaVuSans-6d" transform="translate(2694.019531 0)"/>
    <use xlink:href="#DejaVuSans-6e" transform="translate(2791.431641 0)"/>
    <use xlink:href="#DejaVuSans-69" transform="translate(2854.810547 0)"/>
    <use xlink:href="#DejaVuSans-73" transform="translate(2882.59375 0)"/>
    <use xlink:href="#DejaVuSans-73" transform="translate(2934.693359 0)"/>
    <use xlink:href="#DejaVuSans-65" transform="translate(2986.792969 0)"/>
    <use xlink:href="#DejaVuSans-20" transform="translate(3048.316406 0)"/>
    <use xlink:href="#DejaVuSans-66" transform="translate(3080.103516 0)"/>
    <use xlink:href="#DejaVuSans-fc" transform="translate(3115.308594 0)"/>
    <use xlink:href="#DejaVuSans-72" transform="translate(3178.6875 0)"/>
    <use xlink:href="#DejaVuSans-20" transform="translate(3219.800781 0)"/>
    <use xlink:href="#DejaVuSans-64" transform="translate(3251.587891 0)"/>
    <use xlink:href="#DejaVuSans-69" transform="translate(3315.064453 0)"/>
    <use xlink:href="#DejaVuSans-65" transform="translate(3342.847656 0)"/>
    <use xlink:href="#DejaVuSans-20" transform="translate(3404.371094 0)"/>
    <use xlink:href="#DejaVuSans-55" transform="translate(3436.158203 0)"/>
    <use xlink:href="#DejaVuSans-6d" transform="translate(3509.351562 0)"/>
    <use xlink:href="#DejaVuSans-73" transform="translate(3606.763672 0)"/>
    <use xlink:href="#DejaVuSans-65" transform="translate(3658.863281 0)"/>
    <use xlink:href="#DejaVuSans-74" transform="translate(3720.386719 0)"/>
    <use xlink:href="#DejaVuSans-7a" transform="translate(3759.595703 0)"/>
    <use xlink:href="#DejaVuSans-75" transform="translate(3812.085938 0)"/>
    <use xlink:href="#DejaVuSans-6e" transform="translate(3875.464844 0)"/>
    <use xlink:href="#DejaVuSans-67" transform="translate(3938.84375 0)"/>
   </g>
   <!-- zirkulärer Wertschöpfungsprozesse? – Endprüfung -->
   <g transform="translate(330.349609 580.912344) scale(0.11 -0.11)">
    <defs>
     <path id="DejaVuSans-3f" d="M 1222 794 
L 1856 794 
L 1856 0 
L 1222 0 
L 1222 794 
z
M 1838 1253 
L 1241 1253 
L 1241 1734 
Q 1241 2050 1328 2253 
Q 1416 2456 1697 2725 
L 1978 3003 
Q 2156 3169 2236 3316 
Q 2316 3463 2316 3616 
Q 2316 3894 2111 4066 
Q 1906 4238 1569 4238 
Q 1322 4238 1042 4128 
Q 763 4019 459 3809 
L 459 4397 
Q 753 4575 1054 4662 
Q 1356 4750 1678 4750 
Q 2253 4750 2601 4447 
Q 2950 4144 2950 3647 
Q 2950 3409 2837 3195 
Q 2725 2981 2444 2713 
L 2169 2444 
Q 2022 2297 1961 2214 
Q 1900 2131 1875 2053 
Q 1856 1988 1847 1894 
Q 1838 1800 1838 1638 
L 1838 1253 
z
" transform="scale(0.015625)"/>
     <path id="DejaVuSans-2013" d="M 313 1978 
L 2888 1978 
L 2888 1528 
L 313 1528 
L 313 1978 
z
" transform="scale(0.015625)"/>
    </defs>
    <use xlink:href="#DejaVuSans-7a"/>
    <use xlink:href="#DejaVuSans-69" transform="translate(52.490234 0)"/>
    <use xlink:href="#DejaVuSans-72" transform="translate(80.273438 0)"/>
    <use xlink:href="#DejaVuSans-6b" transform="translate(121.386719 0)"/>
    <use xlink:href="#DejaVuSans-75" transform="translate(176.171875 0)"/>
    <use xlink:href="#DejaVuSans-6c" transform="translate(239.550781 0)"/>
    <use xlink:href="#DejaVuSans-e4" transform="translate(267.333984 0)"/>
    <use xlink:href="#DejaVuSans-72" transform="translate(328.613281 0)"/>
    <use xlink:href="#DejaVuSans-65" transform="translate(367.476562 0)"/>
    <use xlink:href="#DejaVuSans-72" transform="translate(429 0)"/>
    <use xlink:href="#DejaVuSans-20" transform="translate(470.113281 0)"/>
    <use xlink:href="#DejaVuSans-57" transform="translate(501.900391 0)"/>
    <use xlink:href="#DejaVuSans-65" transform="translate(594.902344 0)"/>
    <use xlink:href="#DejaVuSans-72" transform="translate(656.425781 0)"/>
    <use xlink:href="#DejaVuSans-74" transform="translate(697.539062 0)"/>
    <use xlink:href="#DejaVuSans-73" transform="translate(736.748047 0)"/>
    <use xlink:href="#DejaVuSans-63" transform="translate(788.847656 0)"/>
    <use xlink:href="#DejaVuSans-68" transform="translate(843.828125 0)"/>
    <use xlink:href="#DejaVuSans-f6" transform="translate(907.207031 0)"/>
    <use xlink:href="#DejaVuSans-70" transform="translate(968.388672 0)"/>
    <use xlink:href="#DejaVuSans-66" transform="translate(1031.865234 0)"/>
    <use xlink:href="#DejaVuSans-75" transform="translate(1067.070312 0)"/>
    <use xlink:href="#DejaVuSans-6e" transform="translate(1130.449219 0)"/>
    <use xlink:href="#DejaVuSans-67" transform="translate(1193.828125 0)"/>
    <use xlink:href="#DejaVuSans-73" transform="translate(1257.304688 0)"/>
    <use xlink:href="#DejaVuSans-70" transform="translate(1309.404297 0)"/>
    <use xlink:href="#DejaVuSans-72" transform="translate(1372.880859 0)"/>
    <use xlink:href="#DejaVuSans-6f" transform="translate(1411.744141 0)"/>
    <use xlink:href="#DejaVuSans-7a" transform="translate(1472.925781 0)"/>
    <use xlink:href="#DejaVuSans-65" transform="translate(1525.416016 0)"/>
    <use xlink:href="#DejaVuSans-73" transform="translate(1586.939453 0)"/>
    <use xlink:href="#DejaVuSans-73" transform="translate(1639.039062 0)"/>
    <use xlink:href="#DejaVuSans-65" transform="translate(1691.138672 0)"/>
    <use xlink:href="#DejaVuSans-3f" transform="translate(1752.662109 0)"/>
    <use xlink:href="#DejaVuSans-20" transform="translate(1805.738281 0)"/>
    <use xlink:href="#DejaVuSans-2013" transform="translate(1837.525391 0)"/>
    <use xlink:href="#DejaVuSans-20" transform="translate(1887.525391 0)"/>
    <use xlink:href="#DejaVuSans-45" transform="translate(1919.3125 0)"/>
    <use xlink:href="#DejaVuSans-6e" transform="translate(1982.496094 0)"/>
    <use xlink:href="#DejaVuSans-64" transform="translate(2045.875 0)"/>
    <use xlink:href="#DejaVuSans-70" transform="translate(2109.351562 0)"/>
    <use xlink:href="#DejaVuSans-72" transform="translate(2172.828125 0)"/>
    <use xlink:href="#DejaVuSans-fc" transform="translate(2213.941406 0)"/>
    <use xlink:href="#DejaVuSans-66" transform="translate(2277.320312 0)"/>
    <use xlink:href="#DejaVuSans-75" transform="translate(2312.525391 0)"/>
    <use xlink:href="#DejaVuSans-6e" transform="translate(2375.904297 0)"/>
    <use xlink:href="#DejaVuSans-67" transform="translate(2439.283203 0)"/>
   </g>
  </g>
 </g>
 <defs>
  <clipPath id="p80cfccd793">
   <rect x="254.16" y="51.84" width="427.68" height="427.68"/>
  </clipPath>
 </defs>
</svg>
