<?xml version="1.0" encoding="utf-8" standalone="no"?>
<!DOCTYPE svg PUBLIC "-//W3C//DTD SVG 1.1//EN"
  "http://www.w3.org/Graphics/SVG/1.1/DTD/svg11.dtd">
<svg xmlns:xlink="http://www.w3.org/1999/xlink" width="936pt" height="648pt" viewBox="0 0 936 648" xmlns="http://www.w3.org/2000/svg" version="1.1">
 <metadata>
  <rdf:RDF xmlns:dc="http://purl.org/dc/elements/1.1/" xmlns:cc="http://creativecommons.org/ns#" xmlns:rdf="http://www.w3.org/1999/02/22-rdf-syntax-ns#">
   <cc:Work>
    <dc:type rdf:resource="http://purl.org/dc/dcmitype/StillImage"/>
    <dc:date>2026-02-23T14:10:30.118707</dc:date>
    <dc:format>image/svg+xml</dc:format>
    <dc:creator>
     <cc:Agent>
      <dc:title>Matplotlib v3.10.8, https://matplotlib.org/</dc:title>
     </cc:Agent>
    </dc:creator>
   </cc:Work>
  </rdf:RDF>
 </metadata>
 <defs>
  <style type="text/css">*{stroke-linejoin: round; stroke-linecap: butt}</style>
 </defs>
 <g id="figure_1">
  <g id="patch_1">
   <path d="M 0 648 
L 936 648 
L 936 0 
L 0 0 
z
" style="fill: #ffffff"/>
  </g>
  <g id="axes_1">
   <g id="patch_2">
    <path d="M 234 479.52 
L 702 479.52 
L 702 51.84 
L 234 51.84 
z
" style="fill: #ffffff"/>
   </g>
   <g id="matplotlib.axis_1">
    <g id="xtick_1">
     <g id="line2d_1">
      <path d="M 234 479.52 
L 234 51.84 
" clip-path="url(#p3193c38ccb)" style="fill: none; stroke: #d0d0d0; stroke-opacity: 0.25; stroke-width: 0.8; stroke-linecap: square"/>
     </g>
     <g id="line2d_2">
      <defs>
       <path id="m0363b52e20" d="M 0 0 
L 0 3.5 
" style="stroke: #000000; stroke-width: 0.8"/>
      </defs>
      <g>
       <use xlink:href="#m0363b52e20" x="234" y="479.52" style="stroke: #000000; stroke-width: 0.8"/>
      </g>
     </g>
     <g id="text_1">
      <!-- 0% -->
      <g transform="translate(227.654375 492.59875) scale(0.08 -0.08)">
       <defs>
        <path id="DejaVuSans-30" d="M 2034 4250 
Q 1547 4250 1301 3770 
Q 1056 3291 1056 2328 
Q 1056 1369 1301 889 
Q 1547 409 2034 409 
Q 2525 409 2770 889 
Q 3016 1369 3016 2328 
Q 3016 3291 2770 3770 
Q 2525 4250 2034 4250 
z
M 2034 4750 
Q 2819 4750 3233 4129 
Q 3647 3509 3647 2328 
Q 3647 1150 3233 529 
Q 2819 -91 2034 -91 
Q 1250 -91 836 529 
Q 422 1150 422 2328 
Q 422 3509 836 4129 
Q 1250 4750 2034 4750 
z
" transform="scale(0.015625)"/>
        <path id="DejaVuSans-25" d="M 4653 2053 
Q 4381 2053 4226 1822 
Q 4072 1591 4072 1178 
Q 4072 772 4226 539 
Q 4381 306 4653 306 
Q 4919 306 5073 539 
Q 5228 772 5228 1178 
Q 5228 1588 5073 1820 
Q 4919 2053 4653 2053 
z
M 4653 2450 
Q 5147 2450 5437 2106 
Q 5728 1763 5728 1178 
Q 5728 594 5436 251 
Q 5144 -91 4653 -91 
Q 4153 -91 3862 251 
Q 3572 594 3572 1178 
Q 3572 1766 3864 2108 
Q 4156 2450 4653 2450 
z
M 1428 4353 
Q 1159 4353 1004 4120 
Q 850 3888 850 3481 
Q 850 3069 1003 2837 
Q 1156 2606 1428 2606 
Q 1700 2606 1854 2837 
Q 2009 3069 2009 3481 
Q 2009 3884 1853 4118 
Q 1697 4353 1428 4353 
z
M 4250 4750 
L 4750 4750 
L 1831 -91 
L 1331 -91 
L 4250 4750 
z
M 1428 4750 
Q 1922 4750 2215 4408 
Q 2509 4066 2509 3481 
Q 2509 2891 2217 2550 
Q 1925 2209 1428 2209 
Q 931 2209 642 2551 
Q 353 2894 353 3481 
Q 353 4063 643 4406 
Q 934 4750 1428 4750 
z
" transform="scale(0.015625)"/>
       </defs>
       <use xlink:href="#DejaVuSans-30"/>
       <use xlink:href="#DejaVuSans-25" transform="translate(63.623047 0)"/>
      </g>
     </g>
    </g>
    <g id="xtick_2">
     <g id="line2d_3">
      <path d="M 293.880745 479.52 
L 293.880745 51.84 
" clip-path="url(#p3193c38ccb)" style="fill: none; stroke: #d0d0d0; stroke-opacity: 0.25; stroke-width: 0.8; stroke-linecap: square"/>
     </g>
     <g id="line2d_4">
      <g>
       <use xlink:href="#m0363b52e20" x="293.880745" y="479.52" style="stroke: #000000; stroke-width: 0.8"/>
      </g>
     </g>
     <g id="text_2">
      <!-- 5% -->
      <g transform="translate(287.53512 492.59875) scale(0.08 -0.08)">
       <defs>
        <path id="DejaVuSans-35" d="M 691 4666 
L 3169 4666 
L 3169 4134 
L 1269 4134 
L 1269 2991 
Q 1406 3038 1543 3061 
Q 1681 3084 1819 3084 
Q 2600 3084 3056 2656 
Q 3513 2228 3513 1497 
Q 3513 744 3044 326 
Q 2575 -91 1722 -91 
Q 1428 -91 1123 -41 
Q 819 9 494 109 
L 494 744 
Q 775 591 1075 516 
Q 1375 441 1709 441 
Q 2250 441 2565 725 
Q 2881 1009 2881 1497 
Q 2881 1984 2565 2268 
Q 2250 2553 1709 2553 
Q 1456 2553 1204 2497 
Q 953 2441 691 2322 
L 691 4666 
z
" transform="scale(0.015625)"/>
       </defs>
       <use xlink:href="#DejaVuSans-35"/>
       <use xlink:href="#DejaVuSans-25" transform="translate(63.623047 0)"/>
      </g>
     </g>
    </g>
    <g id="xtick_3">
     <g id="line2d_5">
      <path d="M 353.761491 479.52 
L 353.761491 51.84 
" clip-path="url(#p3193c38ccb)" style="fill: none; stroke: #d0d0d0; stroke-opacity: 0.25; stroke-width: 0.8; stroke-linecap: square"/>
     </g>
     <g id="line2d_6">
      <g>
       <use xlink:href="#m0363b52e20" x="353.761491" y="479.52" style="stroke: #000000; stroke-width: 0.8"/>
      </g>
     </g>
     <g id="text_3">
      <!-- 10% -->
      <g transform="translate(344.870866 492.59875) scale(0.08 -0.08)">
       <defs>
        <path id="DejaVuSans-31" d="M 794 531 
L 1825 531 
L 1825 4091 
L 703 3866 
L 703 4441 
L 1819 4666 
L 2450 4666 
L 2450 531 
L 3481 531 
L 3481 0 
L 794 0 
L 794 531 
z
" transform="scale(0.015625)"/>
       </defs>
       <use xlink:href="#DejaVuSans-31"/>
       <use xlink:href="#DejaVuSans-30" transform="translate(63.623047 0)"/>
       <use xlink:href="#DejaVuSans-25" transform="translate(127.246094 0)"/>
      </g>
     </g>
    </g>
    <g id="xtick_4">
     <g id="line2d_7">
      <path d="M 413.642236 479.52 
L 413.642236 51.84 
" clip-path="url(#p3193c38ccb)" style="fill: none; stroke: #d0d0d0; stroke-opacity: 0.25; stroke-width: 0.8; stroke-linecap: square"/>
     </g>
     <g id="line2d_8">
      <g>
       <use xlink:href="#m0363b52e20" x="413.642236" y="479.52" style="stroke: #000000; stroke-width: 0.8"/>
      </g>
     </g>
     <g id="text_4">
      <!-- 15% -->
      <g transform="translate(404.751611 492.59875) scale(0.08 -0.08)">
       <use xlink:href="#DejaVuSans-31"/>
       <use xlink:href="#DejaVuSans-35" transform="translate(63.623047 0)"/>
       <use xlink:href="#DejaVuSans-25" transform="translate(127.246094 0)"/>
      </g>
     </g>
    </g>
    <g id="xtick_5">
     <g id="line2d_9">
      <path d="M 473.522981 479.52 
L 473.522981 51.84 
" clip-path="url(#p3193c38ccb)" style="fill: none; stroke: #d0d0d0; stroke-opacity: 0.25; stroke-width: 0.8; stroke-linecap: square"/>
     </g>
     <g id="line2d_10">
      <g>
       <use xlink:href="#m0363b52e20" x="473.522981" y="479.52" style="stroke: #000000; stroke-width: 0.8"/>
      </g>
     </g>
     <g id="text_5">
      <!-- 20% -->
      <g transform="translate(464.632356 492.59875) scale(0.08 -0.08)">
       <defs>
        <path id="DejaVuSans-32" d="M 1228 531 
L 3431 531 
L 3431 0 
L 469 0 
L 469 531 
Q 828 903 1448 1529 
Q 2069 2156 2228 2338 
Q 2531 2678 2651 2914 
Q 2772 3150 2772 3378 
Q 2772 3750 2511 3984 
Q 2250 4219 1831 4219 
Q 1534 4219 1204 4116 
Q 875 4013 500 3803 
L 500 4441 
Q 881 4594 1212 4672 
Q 1544 4750 1819 4750 
Q 2544 4750 2975 4387 
Q 3406 4025 3406 3419 
Q 3406 3131 3298 2873 
Q 3191 2616 2906 2266 
Q 2828 2175 2409 1742 
Q 1991 1309 1228 531 
z
" transform="scale(0.015625)"/>
       </defs>
       <use xlink:href="#DejaVuSans-32"/>
       <use xlink:href="#DejaVuSans-30" transform="translate(63.623047 0)"/>
       <use xlink:href="#DejaVuSans-25" transform="translate(127.246094 0)"/>
      </g>
     </g>
    </g>
    <g id="xtick_6">
     <g id="line2d_11">
      <path d="M 533.403727 479.52 
L 533.403727 51.84 
" clip-path="url(#p3193c38ccb)" style="fill: none; stroke: #d0d0d0; stroke-opacity: 0.25; stroke-width: 0.8; stroke-linecap: square"/>
     </g>
     <g id="line2d_12">
      <g>
       <use xlink:href="#m0363b52e20" x="533.403727" y="479.52" style="stroke: #000000; stroke-width: 0.8"/>
      </g>
     </g>
     <g id="text_6">
      <!-- 25% -->
      <g transform="translate(524.513102 492.59875) scale(0.08 -0.08)">
       <use xlink:href="#DejaVuSans-32"/>
       <use xlink:href="#DejaVuSans-35" transform="translate(63.623047 0)"/>
       <use xlink:href="#DejaVuSans-25" transform="translate(127.246094 0)"/>
      </g>
     </g>
    </g>
    <g id="xtick_7">
     <g id="line2d_13">
      <path d="M 593.284472 479.52 
L 593.284472 51.84 
" clip-path="url(#p3193c38ccb)" style="fill: none; stroke: #d0d0d0; stroke-opacity: 0.25; stroke-width: 0.8; stroke-linecap: square"/>
     </g>
     <g id="line2d_14">
      <g>
       <use xlink:href="#m0363b52e20" x="593.284472" y="479.52" style="stroke: #000000; stroke-width: 0.8"/>
      </g>
     </g>
     <g id="text_7">
      <!-- 30% -->
      <g transform="translate(584.393847 492.59875) scale(0.08 -0.08)">
       <defs>
        <path id="DejaVuSans-33" d="M 2597 2516 
Q 3050 2419 3304 2112 
Q 3559 1806 3559 1356 
Q 3559 666 3084 287 
Q 2609 -91 1734 -91 
Q 1441 -91 1130 -33 
Q 819 25 488 141 
L 488 750 
Q 750 597 1062 519 
Q 1375 441 1716 441 
Q 2309 441 2620 675 
Q 2931 909 2931 1356 
Q 2931 1769 2642 2001 
Q 2353 2234 1838 2234 
L 1294 2234 
L 1294 2753 
L 1863 2753 
Q 2328 2753 2575 2939 
Q 2822 3125 2822 3475 
Q 2822 3834 2567 4026 
Q 2313 4219 1838 4219 
Q 1578 4219 1281 4162 
Q 984 4106 628 3988 
L 628 4550 
Q 988 4650 1302 4700 
Q 1616 4750 1894 4750 
Q 2613 4750 3031 4423 
Q 3450 4097 3450 3541 
Q 3450 3153 3228 2886 
Q 3006 2619 2597 2516 
z
" transform="scale(0.015625)"/>
       </defs>
       <use xlink:href="#DejaVuSans-33"/>
       <use xlink:href="#DejaVuSans-30" transform="translate(63.623047 0)"/>
       <use xlink:href="#DejaVuSans-25" transform="translate(127.246094 0)"/>
      </g>
     </g>
    </g>
    <g id="xtick_8">
     <g id="line2d_15">
      <path d="M 653.165217 479.52 
L 653.165217 51.84 
" clip-path="url(#p3193c38ccb)" style="fill: none; stroke: #d0d0d0; stroke-opacity: 0.25; stroke-width: 0.8; stroke-linecap: square"/>
     </g>
     <g id="line2d_16">
      <g>
       <use xlink:href="#m0363b52e20" x="653.165217" y="479.52" style="stroke: #000000; stroke-width: 0.8"/>
      </g>
     </g>
     <g id="text_8">
      <!-- 35% -->
      <g transform="translate(644.274592 492.59875) scale(0.08 -0.08)">
       <use xlink:href="#DejaVuSans-33"/>
       <use xlink:href="#DejaVuSans-35" transform="translate(63.623047 0)"/>
       <use xlink:href="#DejaVuSans-25" transform="translate(127.246094 0)"/>
      </g>
     </g>
    </g>
    <g id="text_9">
     <!-- Anteil der Teilnehmer in % -->
     <g transform="translate(402.15 505.860937) scale(0.1 -0.1)">
      <defs>
       <path id="DejaVuSans-41" d="M 2188 4044 
L 1331 1722 
L 3047 1722 
L 2188 4044 
z
M 1831 4666 
L 2547 4666 
L 4325 0 
L 3669 0 
L 3244 1197 
L 1141 1197 
L 716 0 
L 50 0 
L 1831 4666 
z
" transform="scale(0.015625)"/>
       <path id="DejaVuSans-6e" d="M 3513 2113 
L 3513 0 
L 2938 0 
L 2938 2094 
Q 2938 2591 2744 2837 
Q 2550 3084 2163 3084 
Q 1697 3084 1428 2787 
Q 1159 2491 1159 1978 
L 1159 0 
L 581 0 
L 581 3500 
L 1159 3500 
L 1159 2956 
Q 1366 3272 1645 3428 
Q 1925 3584 2291 3584 
Q 2894 3584 3203 3211 
Q 3513 2838 3513 2113 
z
" transform="scale(0.015625)"/>
       <path id="DejaVuSans-74" d="M 1172 4494 
L 1172 3500 
L 2356 3500 
L 2356 3053 
L 1172 3053 
L 1172 1153 
Q 1172 725 1289 603 
Q 1406 481 1766 481 
L 2356 481 
L 2356 0 
L 1766 0 
Q 1100 0 847 248 
Q 594 497 594 1153 
L 594 3053 
L 172 3053 
L 172 3500 
L 594 3500 
L 594 4494 
L 1172 4494 
z
" transform="scale(0.015625)"/>
       <path id="DejaVuSans-65" d="M 3597 1894 
L 3597 1613 
L 953 1613 
Q 991 1019 1311 708 
Q 1631 397 2203 397 
Q 2534 397 2845 478 
Q 3156 559 3463 722 
L 3463 178 
Q 3153 47 2828 -22 
Q 2503 -91 2169 -91 
Q 1331 -91 842 396 
Q 353 884 353 1716 
Q 353 2575 817 3079 
Q 1281 3584 2069 3584 
Q 2775 3584 3186 3129 
Q 3597 2675 3597 1894 
z
M 3022 2063 
Q 3016 2534 2758 2815 
Q 2500 3097 2075 3097 
Q 1594 3097 1305 2825 
Q 1016 2553 972 2059 
L 3022 2063 
z
" transform="scale(0.015625)"/>
       <path id="DejaVuSans-69" d="M 603 3500 
L 1178 3500 
L 1178 0 
L 603 0 
L 603 3500 
z
M 603 4863 
L 1178 4863 
L 1178 4134 
L 603 4134 
L 603 4863 
z
" transform="scale(0.015625)"/>
       <path id="DejaVuSans-6c" d="M 603 4863 
L 1178 4863 
L 1178 0 
L 603 0 
L 603 4863 
z
" transform="scale(0.015625)"/>
       <path id="DejaVuSans-20" transform="scale(0.015625)"/>
       <path id="DejaVuSans-64" d="M 2906 2969 
L 2906 4863 
L 3481 4863 
L 3481 0 
L 2906 0 
L 2906 525 
Q 2725 213 2448 61 
Q 2172 -91 1784 -91 
Q 1150 -91 751 415 
Q 353 922 353 1747 
Q 353 2572 751 3078 
Q 1150 3584 1784 3584 
Q 2172 3584 2448 3432 
Q 2725 3281 2906 2969 
z
M 947 1747 
Q 947 1113 1208 752 
Q 1469 391 1925 391 
Q 2381 391 2643 752 
Q 2906 1113 2906 1747 
Q 2906 2381 2643 2742 
Q 2381 3103 1925 3103 
Q 1469 3103 1208 2742 
Q 947 2381 947 1747 
z
" transform="scale(0.015625)"/>
       <path id="DejaVuSans-72" d="M 2631 2963 
Q 2534 3019 2420 3045 
Q 2306 3072 2169 3072 
Q 1681 3072 1420 2755 
Q 1159 2438 1159 1844 
L 1159 0 
L 581 0 
L 581 3500 
L 1159 3500 
L 1159 2956 
Q 1341 3275 1631 3429 
Q 1922 3584 2338 3584 
Q 2397 3584 2469 3576 
Q 2541 3569 2628 3553 
L 2631 2963 
z
" transform="scale(0.015625)"/>
       <path id="DejaVuSans-54" d="M -19 4666 
L 3928 4666 
L 3928 4134 
L 2272 4134 
L 2272 0 
L 1638 0 
L 1638 4134 
L -19 4134 
L -19 4666 
z
" transform="scale(0.015625)"/>
       <path id="DejaVuSans-68" d="M 3513 2113 
L 3513 0 
L 2938 0 
L 2938 2094 
Q 2938 2591 2744 2837 
Q 2550 3084 2163 3084 
Q 1697 3084 1428 2787 
Q 1159 2491 1159 1978 
L 1159 0 
L 581 0 
L 581 4863 
L 1159 4863 
L 1159 2956 
Q 1366 3272 1645 3428 
Q 1925 3584 2291 3584 
Q 2894 3584 3203 3211 
Q 3513 2838 3513 2113 
z
" transform="scale(0.015625)"/>
       <path id="DejaVuSans-6d" d="M 3328 2828 
Q 3544 3216 3844 3400 
Q 4144 3584 4550 3584 
Q 5097 3584 5394 3201 
Q 5691 2819 5691 2113 
L 5691 0 
L 5113 0 
L 5113 2094 
Q 5113 2597 4934 2840 
Q 4756 3084 4391 3084 
Q 3944 3084 3684 2787 
Q 3425 2491 3425 1978 
L 3425 0 
L 2847 0 
L 2847 2094 
Q 2847 2600 2669 2842 
Q 2491 3084 2119 3084 
Q 1678 3084 1418 2786 
Q 1159 2488 1159 1978 
L 1159 0 
L 581 0 
L 581 3500 
L 1159 3500 
L 1159 2956 
Q 1356 3278 1631 3431 
Q 1906 3584 2284 3584 
Q 2666 3584 2933 3390 
Q 3200 3197 3328 2828 
z
" transform="scale(0.015625)"/>
      </defs>
      <use xlink:href="#DejaVuSans-41"/>
      <use xlink:href="#DejaVuSans-6e" transform="translate(68.408203 0)"/>
      <use xlink:href="#DejaVuSans-74" transform="translate(131.787109 0)"/>
      <use xlink:href="#DejaVuSans-65" transform="translate(170.996094 0)"/>
      <use xlink:href="#DejaVuSans-69" transform="translate(232.519531 0)"/>
      <use xlink:href="#DejaVuSans-6c" transform="translate(260.302734 0)"/>
      <use xlink:href="#DejaVuSans-20" transform="translate(288.085938 0)"/>
      <use xlink:href="#DejaVuSans-64" transform="translate(319.873047 0)"/>
      <use xlink:href="#DejaVuSans-65" transform="translate(383.349609 0)"/>
      <use xlink:href="#DejaVuSans-72" transform="translate(444.873047 0)"/>
      <use xlink:href="#DejaVuSans-20" transform="translate(485.986328 0)"/>
      <use xlink:href="#DejaVuSans-54" transform="translate(517.773438 0)"/>
      <use xlink:href="#DejaVuSans-65" transform="translate(561.857422 0)"/>
      <use xlink:href="#DejaVuSans-69" transform="translate(623.380859 0)"/>
      <use xlink:href="#DejaVuSans-6c" transform="translate(651.164062 0)"/>
      <use xlink:href="#DejaVuSans-6e" transform="translate(678.947266 0)"/>
      <use xlink:href="#DejaVuSans-65" transform="translate(742.326172 0)"/>
      <use xlink:href="#DejaVuSans-68" transform="translate(803.849609 0)"/>
      <use xlink:href="#DejaVuSans-6d" transform="translate(867.228516 0)"/>
      <use xlink:href="#DejaVuSans-65" transform="translate(964.640625 0)"/>
      <use xlink:href="#DejaVuSans-72" transform="translate(1026.164062 0)"/>
      <use xlink:href="#DejaVuSans-20" transform="translate(1067.277344 0)"/>
      <use xlink:href="#DejaVuSans-69" transform="translate(1099.064453 0)"/>
      <use xlink:href="#DejaVuSans-6e" transform="translate(1126.847656 0)"/>
      <use xlink:href="#DejaVuSans-20" transform="translate(1190.226562 0)"/>
      <use xlink:href="#DejaVuSans-25" transform="translate(1222.013672 0)"/>
     </g>
    </g>
   </g>
   <g id="matplotlib.axis_2">
    <g id="ytick_1">
     <g id="line2d_17">
      <defs>
       <path id="m241892476d" d="M 0 0 
L -3.5 0 
" style="stroke: #000000; stroke-width: 0.8"/>
      </defs>
      <g>
       <use xlink:href="#m241892476d" x="234" y="427.68" style="stroke: #000000; stroke-width: 0.8"/>
      </g>
     </g>
     <g id="text_10">
      <!-- Ja, wir haben -->
      <g transform="translate(175.0125 417.889875) scale(0.08 -0.08)">
       <defs>
        <path id="DejaVuSans-4a" d="M 628 4666 
L 1259 4666 
L 1259 325 
Q 1259 -519 939 -900 
Q 619 -1281 -91 -1281 
L -331 -1281 
L -331 -750 
L -134 -750 
Q 284 -750 456 -515 
Q 628 -281 628 325 
L 628 4666 
z
" transform="scale(0.015625)"/>
        <path id="DejaVuSans-61" d="M 2194 1759 
Q 1497 1759 1228 1600 
Q 959 1441 959 1056 
Q 959 750 1161 570 
Q 1363 391 1709 391 
Q 2188 391 2477 730 
Q 2766 1069 2766 1631 
L 2766 1759 
L 2194 1759 
z
M 3341 1997 
L 3341 0 
L 2766 0 
L 2766 531 
Q 2569 213 2275 61 
Q 1981 -91 1556 -91 
Q 1019 -91 701 211 
Q 384 513 384 1019 
Q 384 1609 779 1909 
Q 1175 2209 1959 2209 
L 2766 2209 
L 2766 2266 
Q 2766 2663 2505 2880 
Q 2244 3097 1772 3097 
Q 1472 3097 1187 3025 
Q 903 2953 641 2809 
L 641 3341 
Q 956 3463 1253 3523 
Q 1550 3584 1831 3584 
Q 2591 3584 2966 3190 
Q 3341 2797 3341 1997 
z
" transform="scale(0.015625)"/>
        <path id="DejaVuSans-2c" d="M 750 794 
L 1409 794 
L 1409 256 
L 897 -744 
L 494 -744 
L 750 256 
L 750 794 
z
" transform="scale(0.015625)"/>
        <path id="DejaVuSans-77" d="M 269 3500 
L 844 3500 
L 1563 769 
L 2278 3500 
L 2956 3500 
L 3675 769 
L 4391 3500 
L 4966 3500 
L 4050 0 
L 3372 0 
L 2619 2869 
L 1863 0 
L 1184 0 
L 269 3500 
z
" transform="scale(0.015625)"/>
        <path id="DejaVuSans-62" d="M 3116 1747 
Q 3116 2381 2855 2742 
Q 2594 3103 2138 3103 
Q 1681 3103 1420 2742 
Q 1159 2381 1159 1747 
Q 1159 1113 1420 752 
Q 1681 391 2138 391 
Q 2594 391 2855 752 
Q 3116 1113 3116 1747 
z
M 1159 2969 
Q 1341 3281 1617 3432 
Q 1894 3584 2278 3584 
Q 2916 3584 3314 3078 
Q 3713 2572 3713 1747 
Q 3713 922 3314 415 
Q 2916 -91 2278 -91 
Q 1894 -91 1617 61 
Q 1341 213 1159 525 
L 1159 0 
L 581 0 
L 581 4863 
L 1159 4863 
L 1159 2969 
z
" transform="scale(0.015625)"/>
       </defs>
       <use xlink:href="#DejaVuSans-4a"/>
       <use xlink:href="#DejaVuSans-61" transform="translate(29.492188 0)"/>
       <use xlink:href="#DejaVuSans-2c" transform="translate(90.771484 0)"/>
       <use xlink:href="#DejaVuSans-20" transform="translate(122.558594 0)"/>
       <use xlink:href="#DejaVuSans-77" transform="translate(154.345703 0)"/>
       <use xlink:href="#DejaVuSans-69" transform="translate(236.132812 0)"/>
       <use xlink:href="#DejaVuSans-72" transform="translate(263.916016 0)"/>
       <use xlink:href="#DejaVuSans-20" transform="translate(305.029297 0)"/>
       <use xlink:href="#DejaVuSans-68" transform="translate(336.816406 0)"/>
       <use xlink:href="#DejaVuSans-61" transform="translate(400.195312 0)"/>
       <use xlink:href="#DejaVuSans-62" transform="translate(461.474609 0)"/>
       <use xlink:href="#DejaVuSans-65" transform="translate(524.951172 0)"/>
       <use xlink:href="#DejaVuSans-6e" transform="translate(586.474609 0)"/>
      </g>
      <!-- teilgenommen / -->
      <g transform="translate(163.715 426.848125) scale(0.08 -0.08)">
       <defs>
        <path id="DejaVuSans-67" d="M 2906 1791 
Q 2906 2416 2648 2759 
Q 2391 3103 1925 3103 
Q 1463 3103 1205 2759 
Q 947 2416 947 1791 
Q 947 1169 1205 825 
Q 1463 481 1925 481 
Q 2391 481 2648 825 
Q 2906 1169 2906 1791 
z
M 3481 434 
Q 3481 -459 3084 -895 
Q 2688 -1331 1869 -1331 
Q 1566 -1331 1297 -1286 
Q 1028 -1241 775 -1147 
L 775 -588 
Q 1028 -725 1275 -790 
Q 1522 -856 1778 -856 
Q 2344 -856 2625 -561 
Q 2906 -266 2906 331 
L 2906 616 
Q 2728 306 2450 153 
Q 2172 0 1784 0 
Q 1141 0 747 490 
Q 353 981 353 1791 
Q 353 2603 747 3093 
Q 1141 3584 1784 3584 
Q 2172 3584 2450 3431 
Q 2728 3278 2906 2969 
L 2906 3500 
L 3481 3500 
L 3481 434 
z
" transform="scale(0.015625)"/>
        <path id="DejaVuSans-6f" d="M 1959 3097 
Q 1497 3097 1228 2736 
Q 959 2375 959 1747 
Q 959 1119 1226 758 
Q 1494 397 1959 397 
Q 2419 397 2687 759 
Q 2956 1122 2956 1747 
Q 2956 2369 2687 2733 
Q 2419 3097 1959 3097 
z
M 1959 3584 
Q 2709 3584 3137 3096 
Q 3566 2609 3566 1747 
Q 3566 888 3137 398 
Q 2709 -91 1959 -91 
Q 1206 -91 779 398 
Q 353 888 353 1747 
Q 353 2609 779 3096 
Q 1206 3584 1959 3584 
z
" transform="scale(0.015625)"/>
        <path id="DejaVuSans-2f" d="M 1625 4666 
L 2156 4666 
L 531 -594 
L 0 -594 
L 1625 4666 
z
" transform="scale(0.015625)"/>
       </defs>
       <use xlink:href="#DejaVuSans-74"/>
       <use xlink:href="#DejaVuSans-65" transform="translate(39.208984 0)"/>
       <use xlink:href="#DejaVuSans-69" transform="translate(100.732422 0)"/>
       <use xlink:href="#DejaVuSans-6c" transform="translate(128.515625 0)"/>
       <use xlink:href="#DejaVuSans-67" transform="translate(156.298828 0)"/>
       <use xlink:href="#DejaVuSans-65" transform="translate(219.775391 0)"/>
       <use xlink:href="#DejaVuSans-6e" transform="translate(281.298828 0)"/>
       <use xlink:href="#DejaVuSans-6f" transform="translate(344.677734 0)"/>
       <use xlink:href="#DejaVuSans-6d" transform="translate(405.859375 0)"/>
       <use xlink:href="#DejaVuSans-6d" transform="translate(503.271484 0)"/>
       <use xlink:href="#DejaVuSans-65" transform="translate(600.683594 0)"/>
       <use xlink:href="#DejaVuSans-6e" transform="translate(662.207031 0)"/>
       <use xlink:href="#DejaVuSans-20" transform="translate(725.585938 0)"/>
       <use xlink:href="#DejaVuSans-2f" transform="translate(757.373047 0)"/>
      </g>
      <!-- nehmen aktuell an -->
      <g transform="translate(151.98625 435.806375) scale(0.08 -0.08)">
       <defs>
        <path id="DejaVuSans-6b" d="M 581 4863 
L 1159 4863 
L 1159 1991 
L 2875 3500 
L 3609 3500 
L 1753 1863 
L 3688 0 
L 2938 0 
L 1159 1709 
L 1159 0 
L 581 0 
L 581 4863 
z
" transform="scale(0.015625)"/>
        <path id="DejaVuSans-75" d="M 544 1381 
L 544 3500 
L 1119 3500 
L 1119 1403 
Q 1119 906 1312 657 
Q 1506 409 1894 409 
Q 2359 409 2629 706 
Q 2900 1003 2900 1516 
L 2900 3500 
L 3475 3500 
L 3475 0 
L 2900 0 
L 2900 538 
Q 2691 219 2414 64 
Q 2138 -91 1772 -91 
Q 1169 -91 856 284 
Q 544 659 544 1381 
z
M 1991 3584 
L 1991 3584 
z
" transform="scale(0.015625)"/>
       </defs>
       <use xlink:href="#DejaVuSans-6e"/>
       <use xlink:href="#DejaVuSans-65" transform="translate(63.378906 0)"/>
       <use xlink:href="#DejaVuSans-68" transform="translate(124.902344 0)"/>
       <use xlink:href="#DejaVuSans-6d" transform="translate(188.28125 0)"/>
       <use xlink:href="#DejaVuSans-65" transform="translate(285.693359 0)"/>
       <use xlink:href="#DejaVuSans-6e" transform="translate(347.216797 0)"/>
       <use xlink:href="#DejaVuSans-20" transform="translate(410.595703 0)"/>
       <use xlink:href="#DejaVuSans-61" transform="translate(442.382812 0)"/>
       <use xlink:href="#DejaVuSans-6b" transform="translate(503.662109 0)"/>
       <use xlink:href="#DejaVuSans-74" transform="translate(561.572266 0)"/>
       <use xlink:href="#DejaVuSans-75" transform="translate(600.78125 0)"/>
       <use xlink:href="#DejaVuSans-65" transform="translate(664.160156 0)"/>
       <use xlink:href="#DejaVuSans-6c" transform="translate(725.683594 0)"/>
       <use xlink:href="#DejaVuSans-6c" transform="translate(753.466797 0)"/>
       <use xlink:href="#DejaVuSans-20" transform="translate(781.25 0)"/>
       <use xlink:href="#DejaVuSans-61" transform="translate(813.037109 0)"/>
       <use xlink:href="#DejaVuSans-6e" transform="translate(874.316406 0)"/>
      </g>
      <!-- einem teil. -->
      <g transform="translate(184.48125 444.764625) scale(0.08 -0.08)">
       <defs>
        <path id="DejaVuSans-2e" d="M 684 794 
L 1344 794 
L 1344 0 
L 684 0 
L 684 794 
z
" transform="scale(0.015625)"/>
       </defs>
       <use xlink:href="#DejaVuSans-65"/>
       <use xlink:href="#DejaVuSans-69" transform="translate(61.523438 0)"/>
       <use xlink:href="#DejaVuSans-6e" transform="translate(89.306641 0)"/>
       <use xlink:href="#DejaVuSans-65" transform="translate(152.685547 0)"/>
       <use xlink:href="#DejaVuSans-6d" transform="translate(214.208984 0)"/>
       <use xlink:href="#DejaVuSans-20" transform="translate(311.621094 0)"/>
       <use xlink:href="#DejaVuSans-74" transform="translate(343.408203 0)"/>
       <use xlink:href="#DejaVuSans-65" transform="translate(382.617188 0)"/>
       <use xlink:href="#DejaVuSans-69" transform="translate(444.140625 0)"/>
       <use xlink:href="#DejaVuSans-6c" transform="translate(471.923828 0)"/>
       <use xlink:href="#DejaVuSans-2e" transform="translate(499.707031 0)"/>
      </g>
     </g>
    </g>
    <g id="ytick_2">
     <g id="line2d_18">
      <g>
       <use xlink:href="#m241892476d" x="234" y="346.68" style="stroke: #000000; stroke-width: 0.8"/>
      </g>
     </g>
     <g id="text_11">
      <!-- Ja, wir haben -->
      <g transform="translate(175.0125 341.369) scale(0.08 -0.08)">
       <use xlink:href="#DejaVuSans-4a"/>
       <use xlink:href="#DejaVuSans-61" transform="translate(29.492188 0)"/>
       <use xlink:href="#DejaVuSans-2c" transform="translate(90.771484 0)"/>
       <use xlink:href="#DejaVuSans-20" transform="translate(122.558594 0)"/>
       <use xlink:href="#DejaVuSans-77" transform="translate(154.345703 0)"/>
       <use xlink:href="#DejaVuSans-69" transform="translate(236.132812 0)"/>
       <use xlink:href="#DejaVuSans-72" transform="translate(263.916016 0)"/>
       <use xlink:href="#DejaVuSans-20" transform="translate(305.029297 0)"/>
       <use xlink:href="#DejaVuSans-68" transform="translate(336.816406 0)"/>
       <use xlink:href="#DejaVuSans-61" transform="translate(400.195312 0)"/>
       <use xlink:href="#DejaVuSans-62" transform="translate(461.474609 0)"/>
       <use xlink:href="#DejaVuSans-65" transform="translate(524.951172 0)"/>
       <use xlink:href="#DejaVuSans-6e" transform="translate(586.474609 0)"/>
      </g>
      <!-- Interesse an einer -->
      <g transform="translate(154.73875 350.32725) scale(0.08 -0.08)">
       <defs>
        <path id="DejaVuSans-49" d="M 628 4666 
L 1259 4666 
L 1259 0 
L 628 0 
L 628 4666 
z
" transform="scale(0.015625)"/>
        <path id="DejaVuSans-73" d="M 2834 3397 
L 2834 2853 
Q 2591 2978 2328 3040 
Q 2066 3103 1784 3103 
Q 1356 3103 1142 2972 
Q 928 2841 928 2578 
Q 928 2378 1081 2264 
Q 1234 2150 1697 2047 
L 1894 2003 
Q 2506 1872 2764 1633 
Q 3022 1394 3022 966 
Q 3022 478 2636 193 
Q 2250 -91 1575 -91 
Q 1294 -91 989 -36 
Q 684 19 347 128 
L 347 722 
Q 666 556 975 473 
Q 1284 391 1588 391 
Q 1994 391 2212 530 
Q 2431 669 2431 922 
Q 2431 1156 2273 1281 
Q 2116 1406 1581 1522 
L 1381 1569 
Q 847 1681 609 1914 
Q 372 2147 372 2553 
Q 372 3047 722 3315 
Q 1072 3584 1716 3584 
Q 2034 3584 2315 3537 
Q 2597 3491 2834 3397 
z
" transform="scale(0.015625)"/>
       </defs>
       <use xlink:href="#DejaVuSans-49"/>
       <use xlink:href="#DejaVuSans-6e" transform="translate(29.492188 0)"/>
       <use xlink:href="#DejaVuSans-74" transform="translate(92.871094 0)"/>
       <use xlink:href="#DejaVuSans-65" transform="translate(132.080078 0)"/>
       <use xlink:href="#DejaVuSans-72" transform="translate(193.603516 0)"/>
       <use xlink:href="#DejaVuSans-65" transform="translate(232.466797 0)"/>
       <use xlink:href="#DejaVuSans-73" transform="translate(293.990234 0)"/>
       <use xlink:href="#DejaVuSans-73" transform="translate(346.089844 0)"/>
       <use xlink:href="#DejaVuSans-65" transform="translate(398.189453 0)"/>
       <use xlink:href="#DejaVuSans-20" transform="translate(459.712891 0)"/>
       <use xlink:href="#DejaVuSans-61" transform="translate(491.5 0)"/>
       <use xlink:href="#DejaVuSans-6e" transform="translate(552.779297 0)"/>
       <use xlink:href="#DejaVuSans-20" transform="translate(616.158203 0)"/>
       <use xlink:href="#DejaVuSans-65" transform="translate(647.945312 0)"/>
       <use xlink:href="#DejaVuSans-69" transform="translate(709.46875 0)"/>
       <use xlink:href="#DejaVuSans-6e" transform="translate(737.251953 0)"/>
       <use xlink:href="#DejaVuSans-65" transform="translate(800.630859 0)"/>
       <use xlink:href="#DejaVuSans-72" transform="translate(862.154297 0)"/>
      </g>
      <!-- Teilnahme. -->
      <g transform="translate(183.80625 359.2855) scale(0.08 -0.08)">
       <use xlink:href="#DejaVuSans-54"/>
       <use xlink:href="#DejaVuSans-65" transform="translate(44.083984 0)"/>
       <use xlink:href="#DejaVuSans-69" transform="translate(105.607422 0)"/>
       <use xlink:href="#DejaVuSans-6c" transform="translate(133.390625 0)"/>
       <use xlink:href="#DejaVuSans-6e" transform="translate(161.173828 0)"/>
       <use xlink:href="#DejaVuSans-61" transform="translate(224.552734 0)"/>
       <use xlink:href="#DejaVuSans-68" transform="translate(285.832031 0)"/>
       <use xlink:href="#DejaVuSans-6d" transform="translate(349.210938 0)"/>
       <use xlink:href="#DejaVuSans-65" transform="translate(446.623047 0)"/>
       <use xlink:href="#DejaVuSans-2e" transform="translate(508.146484 0)"/>
      </g>
     </g>
    </g>
    <g id="ytick_3">
     <g id="line2d_19">
      <g>
       <use xlink:href="#m241892476d" x="234" y="265.68" style="stroke: #000000; stroke-width: 0.8"/>
      </g>
     </g>
     <g id="text_12">
      <!-- Nein, wir haben -->
      <g transform="translate(164.075 260.369) scale(0.08 -0.08)">
       <defs>
        <path id="DejaVuSans-4e" d="M 628 4666 
L 1478 4666 
L 3547 763 
L 3547 4666 
L 4159 4666 
L 4159 0 
L 3309 0 
L 1241 3903 
L 1241 0 
L 628 0 
L 628 4666 
z
" transform="scale(0.015625)"/>
       </defs>
       <use xlink:href="#DejaVuSans-4e"/>
       <use xlink:href="#DejaVuSans-65" transform="translate(74.804688 0)"/>
       <use xlink:href="#DejaVuSans-69" transform="translate(136.328125 0)"/>
       <use xlink:href="#DejaVuSans-6e" transform="translate(164.111328 0)"/>
       <use xlink:href="#DejaVuSans-2c" transform="translate(227.490234 0)"/>
       <use xlink:href="#DejaVuSans-20" transform="translate(259.277344 0)"/>
       <use xlink:href="#DejaVuSans-77" transform="translate(291.064453 0)"/>
       <use xlink:href="#DejaVuSans-69" transform="translate(372.851562 0)"/>
       <use xlink:href="#DejaVuSans-72" transform="translate(400.634766 0)"/>
       <use xlink:href="#DejaVuSans-20" transform="translate(441.748047 0)"/>
       <use xlink:href="#DejaVuSans-68" transform="translate(473.535156 0)"/>
       <use xlink:href="#DejaVuSans-61" transform="translate(536.914062 0)"/>
       <use xlink:href="#DejaVuSans-62" transform="translate(598.193359 0)"/>
       <use xlink:href="#DejaVuSans-65" transform="translate(661.669922 0)"/>
       <use xlink:href="#DejaVuSans-6e" transform="translate(723.193359 0)"/>
      </g>
      <!-- nicht -->
      <g transform="translate(207.1025 269.32725) scale(0.08 -0.08)">
       <defs>
        <path id="DejaVuSans-63" d="M 3122 3366 
L 3122 2828 
Q 2878 2963 2633 3030 
Q 2388 3097 2138 3097 
Q 1578 3097 1268 2742 
Q 959 2388 959 1747 
Q 959 1106 1268 751 
Q 1578 397 2138 397 
Q 2388 397 2633 464 
Q 2878 531 3122 666 
L 3122 134 
Q 2881 22 2623 -34 
Q 2366 -91 2075 -91 
Q 1284 -91 818 406 
Q 353 903 353 1747 
Q 353 2603 823 3093 
Q 1294 3584 2113 3584 
Q 2378 3584 2631 3529 
Q 2884 3475 3122 3366 
z
" transform="scale(0.015625)"/>
       </defs>
       <use xlink:href="#DejaVuSans-6e"/>
       <use xlink:href="#DejaVuSans-69" transform="translate(63.378906 0)"/>
       <use xlink:href="#DejaVuSans-63" transform="translate(91.162109 0)"/>
       <use xlink:href="#DejaVuSans-68" transform="translate(146.142578 0)"/>
       <use xlink:href="#DejaVuSans-74" transform="translate(209.521484 0)"/>
      </g>
      <!-- teilgenommen. -->
      <g transform="translate(166.41 278.2855) scale(0.08 -0.08)">
       <use xlink:href="#DejaVuSans-74"/>
       <use xlink:href="#DejaVuSans-65" transform="translate(39.208984 0)"/>
       <use xlink:href="#DejaVuSans-69" transform="translate(100.732422 0)"/>
       <use xlink:href="#DejaVuSans-6c" transform="translate(128.515625 0)"/>
       <use xlink:href="#DejaVuSans-67" transform="translate(156.298828 0)"/>
       <use xlink:href="#DejaVuSans-65" transform="translate(219.775391 0)"/>
       <use xlink:href="#DejaVuSans-6e" transform="translate(281.298828 0)"/>
       <use xlink:href="#DejaVuSans-6f" transform="translate(344.677734 0)"/>
       <use xlink:href="#DejaVuSans-6d" transform="translate(405.859375 0)"/>
       <use xlink:href="#DejaVuSans-6d" transform="translate(503.271484 0)"/>
       <use xlink:href="#DejaVuSans-65" transform="translate(600.683594 0)"/>
       <use xlink:href="#DejaVuSans-6e" transform="translate(662.207031 0)"/>
       <use xlink:href="#DejaVuSans-2e" transform="translate(725.585938 0)"/>
      </g>
     </g>
    </g>
    <g id="ytick_4">
     <g id="line2d_20">
      <g>
       <use xlink:href="#m241892476d" x="234" y="184.68" style="stroke: #000000; stroke-width: 0.8"/>
      </g>
     </g>
     <g id="text_13">
      <!-- Nein, wir haben -->
      <g transform="translate(164.075 179.369) scale(0.08 -0.08)">
       <use xlink:href="#DejaVuSans-4e"/>
       <use xlink:href="#DejaVuSans-65" transform="translate(74.804688 0)"/>
       <use xlink:href="#DejaVuSans-69" transform="translate(136.328125 0)"/>
       <use xlink:href="#DejaVuSans-6e" transform="translate(164.111328 0)"/>
       <use xlink:href="#DejaVuSans-2c" transform="translate(227.490234 0)"/>
       <use xlink:href="#DejaVuSans-20" transform="translate(259.277344 0)"/>
       <use xlink:href="#DejaVuSans-77" transform="translate(291.064453 0)"/>
       <use xlink:href="#DejaVuSans-69" transform="translate(372.851562 0)"/>
       <use xlink:href="#DejaVuSans-72" transform="translate(400.634766 0)"/>
       <use xlink:href="#DejaVuSans-20" transform="translate(441.748047 0)"/>
       <use xlink:href="#DejaVuSans-68" transform="translate(473.535156 0)"/>
       <use xlink:href="#DejaVuSans-61" transform="translate(536.914062 0)"/>
       <use xlink:href="#DejaVuSans-62" transform="translate(598.193359 0)"/>
       <use xlink:href="#DejaVuSans-65" transform="translate(661.669922 0)"/>
       <use xlink:href="#DejaVuSans-6e" transform="translate(723.193359 0)"/>
      </g>
      <!-- kein Interesse an -->
      <g transform="translate(158.6075 188.32725) scale(0.08 -0.08)">
       <use xlink:href="#DejaVuSans-6b"/>
       <use xlink:href="#DejaVuSans-65" transform="translate(54.285156 0)"/>
       <use xlink:href="#DejaVuSans-69" transform="translate(115.808594 0)"/>
       <use xlink:href="#DejaVuSans-6e" transform="translate(143.591797 0)"/>
       <use xlink:href="#DejaVuSans-20" transform="translate(206.970703 0)"/>
       <use xlink:href="#DejaVuSans-49" transform="translate(238.757812 0)"/>
       <use xlink:href="#DejaVuSans-6e" transform="translate(268.25 0)"/>
       <use xlink:href="#DejaVuSans-74" transform="translate(331.628906 0)"/>
       <use xlink:href="#DejaVuSans-65" transform="translate(370.837891 0)"/>
       <use xlink:href="#DejaVuSans-72" transform="translate(432.361328 0)"/>
       <use xlink:href="#DejaVuSans-65" transform="translate(471.224609 0)"/>
       <use xlink:href="#DejaVuSans-73" transform="translate(532.748047 0)"/>
       <use xlink:href="#DejaVuSans-73" transform="translate(584.847656 0)"/>
       <use xlink:href="#DejaVuSans-65" transform="translate(636.947266 0)"/>
       <use xlink:href="#DejaVuSans-20" transform="translate(698.470703 0)"/>
       <use xlink:href="#DejaVuSans-61" transform="translate(730.257812 0)"/>
       <use xlink:href="#DejaVuSans-6e" transform="translate(791.537109 0)"/>
      </g>
      <!-- einer Teilnahme. -->
      <g transform="translate(160.8375 197.2855) scale(0.08 -0.08)">
       <use xlink:href="#DejaVuSans-65"/>
       <use xlink:href="#DejaVuSans-69" transform="translate(61.523438 0)"/>
       <use xlink:href="#DejaVuSans-6e" transform="translate(89.306641 0)"/>
       <use xlink:href="#DejaVuSans-65" transform="translate(152.685547 0)"/>
       <use xlink:href="#DejaVuSans-72" transform="translate(214.208984 0)"/>
       <use xlink:href="#DejaVuSans-20" transform="translate(255.322266 0)"/>
       <use xlink:href="#DejaVuSans-54" transform="translate(287.109375 0)"/>
       <use xlink:href="#DejaVuSans-65" transform="translate(331.193359 0)"/>
       <use xlink:href="#DejaVuSans-69" transform="translate(392.716797 0)"/>
       <use xlink:href="#DejaVuSans-6c" transform="translate(420.5 0)"/>
       <use xlink:href="#DejaVuSans-6e" transform="translate(448.283203 0)"/>
       <use xlink:href="#DejaVuSans-61" transform="translate(511.662109 0)"/>
       <use xlink:href="#DejaVuSans-68" transform="translate(572.941406 0)"/>
       <use xlink:href="#DejaVuSans-6d" transform="translate(636.320312 0)"/>
       <use xlink:href="#DejaVuSans-65" transform="translate(733.732422 0)"/>
       <use xlink:href="#DejaVuSans-2e" transform="translate(795.255859 0)"/>
      </g>
     </g>
    </g>
    <g id="ytick_5">
     <g id="line2d_21">
      <g>
       <use xlink:href="#m241892476d" x="234" y="103.68" style="stroke: #000000; stroke-width: 0.8"/>
      </g>
     </g>
     <g id="text_14">
      <!-- Keine Antwort -->
      <g transform="translate(170.9325 106.719375) scale(0.08 -0.08)">
       <defs>
        <path id="DejaVuSans-4b" d="M 628 4666 
L 1259 4666 
L 1259 2694 
L 3353 4666 
L 4166 4666 
L 1850 2491 
L 4331 0 
L 3500 0 
L 1259 2247 
L 1259 0 
L 628 0 
L 628 4666 
z
" transform="scale(0.015625)"/>
       </defs>
       <use xlink:href="#DejaVuSans-4b"/>
       <use xlink:href="#DejaVuSans-65" transform="translate(60.576172 0)"/>
       <use xlink:href="#DejaVuSans-69" transform="translate(122.099609 0)"/>
       <use xlink:href="#DejaVuSans-6e" transform="translate(149.882812 0)"/>
       <use xlink:href="#DejaVuSans-65" transform="translate(213.261719 0)"/>
       <use xlink:href="#DejaVuSans-20" transform="translate(274.785156 0)"/>
       <use xlink:href="#DejaVuSans-41" transform="translate(306.572266 0)"/>
       <use xlink:href="#DejaVuSans-6e" transform="translate(374.980469 0)"/>
       <use xlink:href="#DejaVuSans-74" transform="translate(438.359375 0)"/>
       <use xlink:href="#DejaVuSans-77" transform="translate(477.568359 0)"/>
       <use xlink:href="#DejaVuSans-6f" transform="translate(559.355469 0)"/>
       <use xlink:href="#DejaVuSans-72" transform="translate(620.537109 0)"/>
       <use xlink:href="#DejaVuSans-74" transform="translate(661.650391 0)"/>
      </g>
     </g>
    </g>
   </g>
   <g id="patch_3">
    <path d="M 234 460.08 
L 640.956522 460.08 
L 640.956522 395.28 
L 234 395.28 
z
" clip-path="url(#p3193c38ccb)" style="fill: #003b6a"/>
   </g>
   <g id="patch_4">
    <path d="M 234 379.08 
L 420.037267 379.08 
L 420.037267 314.28 
L 234 314.28 
z
" clip-path="url(#p3193c38ccb)" style="fill: #003b6a"/>
   </g>
   <g id="patch_5">
    <path d="M 234 298.08 
L 443.291925 298.08 
L 443.291925 233.28 
L 234 233.28 
z
" clip-path="url(#p3193c38ccb)" style="fill: #003b6a"/>
   </g>
   <g id="patch_6">
    <path d="M 234 217.08 
L 338.645963 217.08 
L 338.645963 152.28 
L 234 152.28 
z
" clip-path="url(#p3193c38ccb)" style="fill: #003b6a"/>
   </g>
   <g id="patch_7">
    <path d="M 234 136.08 
L 524.68323 136.08 
L 524.68323 71.28 
L 234 71.28 
z
" clip-path="url(#p3193c38ccb)" style="fill: #003b6a"/>
   </g>
   <g id="patch_8">
    <path d="M 234 479.52 
L 234 51.84 
" style="fill: none; stroke: #333333; stroke-width: 0.9; stroke-linejoin: miter; stroke-linecap: square"/>
   </g>
   <g id="patch_9">
    <path d="M 702 479.52 
L 702 51.84 
" style="fill: none; stroke: #333333; stroke-width: 0.9; stroke-linejoin: miter; stroke-linecap: square"/>
   </g>
   <g id="patch_10">
    <path d="M 234 479.52 
L 702 479.52 
" style="fill: none; stroke: #333333; stroke-width: 0.9; stroke-linejoin: miter; stroke-linecap: square"/>
   </g>
   <g id="patch_11">
    <path d="M 234 51.84 
L 702 51.84 
" style="fill: none; stroke: #333333; stroke-width: 0.9; stroke-linejoin: miter; stroke-linecap: square"/>
   </g>
   <g id="text_15">
    <!-- 34% -->
    <g transform="translate(652.932671 430.163437) scale(0.09 -0.09)">
     <defs>
      <path id="DejaVuSans-34" d="M 2419 4116 
L 825 1625 
L 2419 1625 
L 2419 4116 
z
M 2253 4666 
L 3047 4666 
L 3047 1625 
L 3713 1625 
L 3713 1100 
L 3047 1100 
L 3047 0 
L 2419 0 
L 2419 1100 
L 313 1100 
L 313 1709 
L 2253 4666 
z
" transform="scale(0.015625)"/>
     </defs>
     <use xlink:href="#DejaVuSans-33"/>
     <use xlink:href="#DejaVuSans-34" transform="translate(63.623047 0)"/>
     <use xlink:href="#DejaVuSans-25" transform="translate(127.246094 0)"/>
    </g>
   </g>
   <g id="text_16">
    <!-- 16% -->
    <g transform="translate(432.013416 349.163437) scale(0.09 -0.09)">
     <defs>
      <path id="DejaVuSans-36" d="M 2113 2584 
Q 1688 2584 1439 2293 
Q 1191 2003 1191 1497 
Q 1191 994 1439 701 
Q 1688 409 2113 409 
Q 2538 409 2786 701 
Q 3034 994 3034 1497 
Q 3034 2003 2786 2293 
Q 2538 2584 2113 2584 
z
M 3366 4563 
L 3366 3988 
Q 3128 4100 2886 4159 
Q 2644 4219 2406 4219 
Q 1781 4219 1451 3797 
Q 1122 3375 1075 2522 
Q 1259 2794 1537 2939 
Q 1816 3084 2150 3084 
Q 2853 3084 3261 2657 
Q 3669 2231 3669 1497 
Q 3669 778 3244 343 
Q 2819 -91 2113 -91 
Q 1303 -91 875 529 
Q 447 1150 447 2328 
Q 447 3434 972 4092 
Q 1497 4750 2381 4750 
Q 2619 4750 2861 4703 
Q 3103 4656 3366 4563 
z
" transform="scale(0.015625)"/>
     </defs>
     <use xlink:href="#DejaVuSans-31"/>
     <use xlink:href="#DejaVuSans-36" transform="translate(63.623047 0)"/>
     <use xlink:href="#DejaVuSans-25" transform="translate(127.246094 0)"/>
    </g>
   </g>
   <g id="text_17">
    <!-- 17% -->
    <g transform="translate(455.268075 268.163437) scale(0.09 -0.09)">
     <defs>
      <path id="DejaVuSans-37" d="M 525 4666 
L 3525 4666 
L 3525 4397 
L 1831 0 
L 1172 0 
L 2766 4134 
L 525 4134 
L 525 4666 
z
" transform="scale(0.015625)"/>
     </defs>
     <use xlink:href="#DejaVuSans-31"/>
     <use xlink:href="#DejaVuSans-37" transform="translate(63.623047 0)"/>
     <use xlink:href="#DejaVuSans-25" transform="translate(127.246094 0)"/>
    </g>
   </g>
   <g id="text_18">
    <!-- 9% -->
    <g transform="translate(350.622112 187.163437) scale(0.09 -0.09)">
     <defs>
      <path id="DejaVuSans-39" d="M 703 97 
L 703 672 
Q 941 559 1184 500 
Q 1428 441 1663 441 
Q 2288 441 2617 861 
Q 2947 1281 2994 2138 
Q 2813 1869 2534 1725 
Q 2256 1581 1919 1581 
Q 1219 1581 811 2004 
Q 403 2428 403 3163 
Q 403 3881 828 4315 
Q 1253 4750 1959 4750 
Q 2769 4750 3195 4129 
Q 3622 3509 3622 2328 
Q 3622 1225 3098 567 
Q 2575 -91 1691 -91 
Q 1453 -91 1209 -44 
Q 966 3 703 97 
z
M 1959 2075 
Q 2384 2075 2632 2365 
Q 2881 2656 2881 3163 
Q 2881 3666 2632 3958 
Q 2384 4250 1959 4250 
Q 1534 4250 1286 3958 
Q 1038 3666 1038 3163 
Q 1038 2656 1286 2365 
Q 1534 2075 1959 2075 
z
" transform="scale(0.015625)"/>
     </defs>
     <use xlink:href="#DejaVuSans-39"/>
     <use xlink:href="#DejaVuSans-25" transform="translate(63.623047 0)"/>
    </g>
   </g>
   <g id="text_19">
    <!-- 24% -->
    <g transform="translate(536.659379 106.163437) scale(0.09 -0.09)">
     <use xlink:href="#DejaVuSans-32"/>
     <use xlink:href="#DejaVuSans-34" transform="translate(63.623047 0)"/>
     <use xlink:href="#DejaVuSans-25" transform="translate(127.246094 0)"/>
    </g>
   </g>
  </g>
  <g id="text_20">
   <!-- Abbildung 37: Haben Sie Interesse, an öffentlich geförderten Forschungsprojekten -->
   <g transform="translate(241.503125 569.430578) scale(0.11 -0.11)">
    <defs>
     <path id="DejaVuSans-3a" d="M 750 794 
L 1409 794 
L 1409 0 
L 750 0 
L 750 794 
z
M 750 3309 
L 1409 3309 
L 1409 2516 
L 750 2516 
L 750 3309 
z
" transform="scale(0.015625)"/>
     <path id="DejaVuSans-48" d="M 628 4666 
L 1259 4666 
L 1259 2753 
L 3553 2753 
L 3553 4666 
L 4184 4666 
L 4184 0 
L 3553 0 
L 3553 2222 
L 1259 2222 
L 1259 0 
L 628 0 
L 628 4666 
z
" transform="scale(0.015625)"/>
     <path id="DejaVuSans-53" d="M 3425 4513 
L 3425 3897 
Q 3066 4069 2747 4153 
Q 2428 4238 2131 4238 
Q 1616 4238 1336 4038 
Q 1056 3838 1056 3469 
Q 1056 3159 1242 3001 
Q 1428 2844 1947 2747 
L 2328 2669 
Q 3034 2534 3370 2195 
Q 3706 1856 3706 1288 
Q 3706 609 3251 259 
Q 2797 -91 1919 -91 
Q 1588 -91 1214 -16 
Q 841 59 441 206 
L 441 856 
Q 825 641 1194 531 
Q 1563 422 1919 422 
Q 2459 422 2753 634 
Q 3047 847 3047 1241 
Q 3047 1584 2836 1778 
Q 2625 1972 2144 2069 
L 1759 2144 
Q 1053 2284 737 2584 
Q 422 2884 422 3419 
Q 422 4038 858 4394 
Q 1294 4750 2059 4750 
Q 2388 4750 2728 4690 
Q 3069 4631 3425 4513 
z
" transform="scale(0.015625)"/>
     <path id="DejaVuSans-f6" d="M 1959 3097 
Q 1497 3097 1228 2736 
Q 959 2375 959 1747 
Q 959 1119 1226 758 
Q 1494 397 1959 397 
Q 2419 397 2687 759 
Q 2956 1122 2956 1747 
Q 2956 2369 2687 2733 
Q 2419 3097 1959 3097 
z
M 1959 3584 
Q 2709 3584 3137 3096 
Q 3566 2609 3566 1747 
Q 3566 888 3137 398 
Q 2709 -91 1959 -91 
Q 1206 -91 779 398 
Q 353 888 353 1747 
Q 353 2609 779 3096 
Q 1206 3584 1959 3584 
z
M 2254 4850 
L 2888 4850 
L 2888 4219 
L 2254 4219 
L 2254 4850 
z
M 1032 4850 
L 1666 4850 
L 1666 4219 
L 1032 4219 
L 1032 4850 
z
" transform="scale(0.015625)"/>
     <path id="DejaVuSans-66" d="M 2375 4863 
L 2375 4384 
L 1825 4384 
Q 1516 4384 1395 4259 
Q 1275 4134 1275 3809 
L 1275 3500 
L 2222 3500 
L 2222 3053 
L 1275 3053 
L 1275 0 
L 697 0 
L 697 3053 
L 147 3053 
L 147 3500 
L 697 3500 
L 697 3744 
Q 697 4328 969 4595 
Q 1241 4863 1831 4863 
L 2375 4863 
z
" transform="scale(0.015625)"/>
     <path id="DejaVuSans-46" d="M 628 4666 
L 3309 4666 
L 3309 4134 
L 1259 4134 
L 1259 2759 
L 3109 2759 
L 3109 2228 
L 1259 2228 
L 1259 0 
L 628 0 
L 628 4666 
z
" transform="scale(0.015625)"/>
     <path id="DejaVuSans-70" d="M 1159 525 
L 1159 -1331 
L 581 -1331 
L 581 3500 
L 1159 3500 
L 1159 2969 
Q 1341 3281 1617 3432 
Q 1894 3584 2278 3584 
Q 2916 3584 3314 3078 
Q 3713 2572 3713 1747 
Q 3713 922 3314 415 
Q 2916 -91 2278 -91 
Q 1894 -91 1617 61 
Q 1341 213 1159 525 
z
M 3116 1747 
Q 3116 2381 2855 2742 
Q 2594 3103 2138 3103 
Q 1681 3103 1420 2742 
Q 1159 2381 1159 1747 
Q 1159 1113 1420 752 
Q 1681 391 2138 391 
Q 2594 391 2855 752 
Q 3116 1113 3116 1747 
z
" transform="scale(0.015625)"/>
     <path id="DejaVuSans-6a" d="M 603 3500 
L 1178 3500 
L 1178 -63 
Q 1178 -731 923 -1031 
Q 669 -1331 103 -1331 
L -116 -1331 
L -116 -844 
L 38 -844 
Q 366 -844 484 -692 
Q 603 -541 603 -63 
L 603 3500 
z
M 603 4863 
L 1178 4863 
L 1178 4134 
L 603 4134 
L 603 4863 
z
" transform="scale(0.015625)"/>
    </defs>
    <use xlink:href="#DejaVuSans-41"/>
    <use xlink:href="#DejaVuSans-62" transform="translate(68.408203 0)"/>
    <use xlink:href="#DejaVuSans-62" transform="translate(131.884766 0)"/>
    <use xlink:href="#DejaVuSans-69" transform="translate(195.361328 0)"/>
    <use xlink:href="#DejaVuSans-6c" transform="translate(223.144531 0)"/>
    <use xlink:href="#DejaVuSans-64" transform="translate(250.927734 0)"/>
    <use xlink:href="#DejaVuSans-75" transform="translate(314.404297 0)"/>
    <use xlink:href="#DejaVuSans-6e" transform="translate(377.783203 0)"/>
    <use xlink:href="#DejaVuSans-67" transform="translate(441.162109 0)"/>
    <use xlink:href="#DejaVuSans-20" transform="translate(504.638672 0)"/>
    <use xlink:href="#DejaVuSans-33" transform="translate(536.425781 0)"/>
    <use xlink:href="#DejaVuSans-37" transform="translate(600.048828 0)"/>
    <use xlink:href="#DejaVuSans-3a" transform="translate(663.671875 0)"/>
    <use xlink:href="#DejaVuSans-20" transform="translate(697.363281 0)"/>
    <use xlink:href="#DejaVuSans-48" transform="translate(729.150391 0)"/>
    <use xlink:href="#DejaVuSans-61" transform="translate(804.345703 0)"/>
    <use xlink:href="#DejaVuSans-62" transform="translate(865.625 0)"/>
    <use xlink:href="#DejaVuSans-65" transform="translate(929.101562 0)"/>
    <use xlink:href="#DejaVuSans-6e" transform="translate(990.625 0)"/>
    <use xlink:href="#DejaVuSans-20" transform="translate(1054.003906 0)"/>
    <use xlink:href="#DejaVuSans-53" transform="translate(1085.791016 0)"/>
    <use xlink:href="#DejaVuSans-69" transform="translate(1149.267578 0)"/>
    <use xlink:href="#DejaVuSans-65" transform="translate(1177.050781 0)"/>
    <use xlink:href="#DejaVuSans-20" transform="translate(1238.574219 0)"/>
    <use xlink:href="#DejaVuSans-49" transform="translate(1270.361328 0)"/>
    <use xlink:href="#DejaVuSans-6e" transform="translate(1299.853516 0)"/>
    <use xlink:href="#DejaVuSans-74" transform="translate(1363.232422 0)"/>
    <use xlink:href="#DejaVuSans-65" transform="translate(1402.441406 0)"/>
    <use xlink:href="#DejaVuSans-72" transform="translate(1463.964844 0)"/>
    <use xlink:href="#DejaVuSans-65" transform="translate(1502.828125 0)"/>
    <use xlink:href="#DejaVuSans-73" transform="translate(1564.351562 0)"/>
    <use xlink:href="#DejaVuSans-73" transform="translate(1616.451172 0)"/>
    <use xlink:href="#DejaVuSans-65" transform="translate(1668.550781 0)"/>
    <use xlink:href="#DejaVuSans-2c" transform="translate(1730.074219 0)"/>
    <use xlink:href="#DejaVuSans-20" transform="translate(1761.861328 0)"/>
    <use xlink:href="#DejaVuSans-61" transform="translate(1793.648438 0)"/>
    <use xlink:href="#DejaVuSans-6e" transform="translate(1854.927734 0)"/>
    <use xlink:href="#DejaVuSans-20" transform="translate(1918.306641 0)"/>
    <use xlink:href="#DejaVuSans-f6" transform="translate(1950.09375 0)"/>
    <use xlink:href="#DejaVuSans-66" transform="translate(2011.275391 0)"/>
    <use xlink:href="#DejaVuSans-66" transform="translate(2046.480469 0)"/>
    <use xlink:href="#DejaVuSans-65" transform="translate(2081.685547 0)"/>
    <use xlink:href="#DejaVuSans-6e" transform="translate(2143.208984 0)"/>
    <use xlink:href="#DejaVuSans-74" transform="translate(2206.587891 0)"/>
    <use xlink:href="#DejaVuSans-6c" transform="translate(2245.796875 0)"/>
    <use xlink:href="#DejaVuSans-69" transform="translate(2273.580078 0)"/>
    <use xlink:href="#DejaVuSans-63" transform="translate(2301.363281 0)"/>
    <use xlink:href="#DejaVuSans-68" transform="translate(2356.34375 0)"/>
    <use xlink:href="#DejaVuSans-20" transform="translate(2419.722656 0)"/>
    <use xlink:href="#DejaVuSans-67" transform="translate(2451.509766 0)"/>
    <use xlink:href="#DejaVuSans-65" transform="translate(2514.986328 0)"/>
    <use xlink:href="#DejaVuSans-66" transform="translate(2576.509766 0)"/>
    <use xlink:href="#DejaVuSans-f6" transform="translate(2611.714844 0)"/>
    <use xlink:href="#DejaVuSans-72" transform="translate(2672.896484 0)"/>
    <use xlink:href="#DejaVuSans-64" transform="translate(2712.259766 0)"/>
    <use xlink:href="#DejaVuSans-65" transform="translate(2775.736328 0)"/>
    <use xlink:href="#DejaVuSans-72" transform="translate(2837.259766 0)"/>
    <use xlink:href="#DejaVuSans-74" transform="translate(2878.373047 0)"/>
    <use xlink:href="#DejaVuSans-65" transform="translate(2917.582031 0)"/>
    <use xlink:href="#DejaVuSans-6e" transform="translate(2979.105469 0)"/>
    <use xlink:href="#DejaVuSans-20" transform="translate(3042.484375 0)"/>
    <use xlink:href="#DejaVuSans-46" transform="translate(3074.271484 0)"/>
    <use xlink:href="#DejaVuSans-6f" transform="translate(3128.166016 0)"/>
    <use xlink:href="#DejaVuSans-72" transform="translate(3189.347656 0)"/>
    <use xlink:href="#DejaVuSans-73" transform="translate(3230.460938 0)"/>
    <use xlink:href="#DejaVuSans-63" transform="translate(3282.560547 0)"/>
    <use xlink:href="#DejaVuSans-68" transform="translate(3337.541016 0)"/>
    <use xlink:href="#DejaVuSans-75" transform="translate(3400.919922 0)"/>
    <use xlink:href="#DejaVuSans-6e" transform="translate(3464.298828 0)"/>
    <use xlink:href="#DejaVuSans-67" transform="translate(3527.677734 0)"/>
    <use xlink:href="#DejaVuSans-73" transform="translate(3591.154297 0)"/>
    <use xlink:href="#DejaVuSans-70" transform="translate(3643.253906 0)"/>
    <use xlink:href="#DejaVuSans-72" transform="translate(3706.730469 0)"/>
    <use xlink:href="#DejaVuSans-6f" transform="translate(3745.59375 0)"/>
    <use xlink:href="#DejaVuSans-6a" transform="translate(3806.775391 0)"/>
    <use xlink:href="#DejaVuSans-65" transform="translate(3834.558594 0)"/>
    <use xlink:href="#DejaVuSans-6b" transform="translate(3896.082031 0)"/>
    <use xlink:href="#DejaVuSans-74" transform="translate(3953.992188 0)"/>
    <use xlink:href="#DejaVuSans-65" transform="translate(3993.201172 0)"/>
    <use xlink:href="#DejaVuSans-6e" transform="translate(4054.724609 0)"/>
   </g>
   <!-- teilzunehmen oder haben Sie in der Vergangenheit teilgenommen? -->
   <g transform="translate(282.963672 580.912344) scale(0.11 -0.11)">
    <defs>
     <path id="DejaVuSans-7a" d="M 353 3500 
L 3084 3500 
L 3084 2975 
L 922 459 
L 3084 459 
L 3084 0 
L 275 0 
L 275 525 
L 2438 3041 
L 353 3041 
L 353 3500 
z
" transform="scale(0.015625)"/>
     <path id="DejaVuSans-56" d="M 1831 0 
L 50 4666 
L 709 4666 
L 2188 738 
L 3669 4666 
L 4325 4666 
L 2547 0 
L 1831 0 
z
" transform="scale(0.015625)"/>
     <path id="DejaVuSans-3f" d="M 1222 794 
L 1856 794 
L 1856 0 
L 1222 0 
L 1222 794 
z
M 1838 1253 
L 1241 1253 
L 1241 1734 
Q 1241 2050 1328 2253 
Q 1416 2456 1697 2725 
L 1978 3003 
Q 2156 3169 2236 3316 
Q 2316 3463 2316 3616 
Q 2316 3894 2111 4066 
Q 1906 4238 1569 4238 
Q 1322 4238 1042 4128 
Q 763 4019 459 3809 
L 459 4397 
Q 753 4575 1054 4662 
Q 1356 4750 1678 4750 
Q 2253 4750 2601 4447 
Q 2950 4144 2950 3647 
Q 2950 3409 2837 3195 
Q 2725 2981 2444 2713 
L 2169 2444 
Q 2022 2297 1961 2214 
Q 1900 2131 1875 2053 
Q 1856 1988 1847 1894 
Q 1838 1800 1838 1638 
L 1838 1253 
z
" transform="scale(0.015625)"/>
    </defs>
    <use xlink:href="#DejaVuSans-74"/>
    <use xlink:href="#DejaVuSans-65" transform="translate(39.208984 0)"/>
    <use xlink:href="#DejaVuSans-69" transform="translate(100.732422 0)"/>
    <use xlink:href="#DejaVuSans-6c" transform="translate(128.515625 0)"/>
    <use xlink:href="#DejaVuSans-7a" transform="translate(156.298828 0)"/>
    <use xlink:href="#DejaVuSans-75" transform="translate(208.789062 0)"/>
    <use xlink:href="#DejaVuSans-6e" transform="translate(272.167969 0)"/>
    <use xlink:href="#DejaVuSans-65" transform="translate(335.546875 0)"/>
    <use xlink:href="#DejaVuSans-68" transform="translate(397.070312 0)"/>
    <use xlink:href="#DejaVuSans-6d" transform="translate(460.449219 0)"/>
    <use xlink:href="#DejaVuSans-65" transform="translate(557.861328 0)"/>
    <use xlink:href="#DejaVuSans-6e" transform="translate(619.384766 0)"/>
    <use xlink:href="#DejaVuSans-20" transform="translate(682.763672 0)"/>
    <use xlink:href="#DejaVuSans-6f" transform="translate(714.550781 0)"/>
    <use xlink:href="#DejaVuSans-64" transform="translate(775.732422 0)"/>
    <use xlink:href="#DejaVuSans-65" transform="translate(839.208984 0)"/>
    <use xlink:href="#DejaVuSans-72" transform="translate(900.732422 0)"/>
    <use xlink:href="#DejaVuSans-20" transform="translate(941.845703 0)"/>
    <use xlink:href="#DejaVuSans-68" transform="translate(973.632812 0)"/>
    <use xlink:href="#DejaVuSans-61" transform="translate(1037.011719 0)"/>
    <use xlink:href="#DejaVuSans-62" transform="translate(1098.291016 0)"/>
    <use xlink:href="#DejaVuSans-65" transform="translate(1161.767578 0)"/>
    <use xlink:href="#DejaVuSans-6e" transform="translate(1223.291016 0)"/>
    <use xlink:href="#DejaVuSans-20" transform="translate(1286.669922 0)"/>
    <use xlink:href="#DejaVuSans-53" transform="translate(1318.457031 0)"/>
    <use xlink:href="#DejaVuSans-69" transform="translate(1381.933594 0)"/>
    <use xlink:href="#DejaVuSans-65" transform="translate(1409.716797 0)"/>
    <use xlink:href="#DejaVuSans-20" transform="translate(1471.240234 0)"/>
    <use xlink:href="#DejaVuSans-69" transform="translate(1503.027344 0)"/>
    <use xlink:href="#DejaVuSans-6e" transform="translate(1530.810547 0)"/>
    <use xlink:href="#DejaVuSans-20" transform="translate(1594.189453 0)"/>
    <use xlink:href="#DejaVuSans-64" transform="translate(1625.976562 0)"/>
    <use xlink:href="#DejaVuSans-65" transform="translate(1689.453125 0)"/>
    <use xlink:href="#DejaVuSans-72" transform="translate(1750.976562 0)"/>
    <use xlink:href="#DejaVuSans-20" transform="translate(1792.089844 0)"/>
    <use xlink:href="#DejaVuSans-56" transform="translate(1823.876953 0)"/>
    <use xlink:href="#DejaVuSans-65" transform="translate(1884.535156 0)"/>
    <use xlink:href="#DejaVuSans-72" transform="translate(1946.058594 0)"/>
    <use xlink:href="#DejaVuSans-67" transform="translate(1985.421875 0)"/>
    <use xlink:href="#DejaVuSans-61" transform="translate(2048.898438 0)"/>
    <use xlink:href="#DejaVuSans-6e" transform="translate(2110.177734 0)"/>
    <use xlink:href="#DejaVuSans-67" transform="translate(2173.556641 0)"/>
    <use xlink:href="#DejaVuSans-65" transform="translate(2237.033203 0)"/>
    <use xlink:href="#DejaVuSans-6e" transform="translate(2298.556641 0)"/>
    <use xlink:href="#DejaVuSans-68" transform="translate(2361.935547 0)"/>
    <use xlink:href="#DejaVuSans-65" transform="translate(2425.314453 0)"/>
    <use xlink:href="#DejaVuSans-69" transform="translate(2486.837891 0)"/>
    <use xlink:href="#DejaVuSans-74" transform="translate(2514.621094 0)"/>
    <use xlink:href="#DejaVuSans-20" transform="translate(2553.830078 0)"/>
    <use xlink:href="#DejaVuSans-74" transform="translate(2585.617188 0)"/>
    <use xlink:href="#DejaVuSans-65" transform="translate(2624.826172 0)"/>
    <use xlink:href="#DejaVuSans-69" transform="translate(2686.349609 0)"/>
    <use xlink:href="#DejaVuSans-6c" transform="translate(2714.132812 0)"/>
    <use xlink:href="#DejaVuSans-67" transform="translate(2741.916016 0)"/>
    <use xlink:href="#DejaVuSans-65" transform="translate(2805.392578 0)"/>
    <use xlink:href="#DejaVuSans-6e" transform="translate(2866.916016 0)"/>
    <use xlink:href="#DejaVuSans-6f" transform="translate(2930.294922 0)"/>
    <use xlink:href="#DejaVuSans-6d" transform="translate(2991.476562 0)"/>
    <use xlink:href="#DejaVuSans-6d" transform="translate(3088.888672 0)"/>
    <use xlink:href="#DejaVuSans-65" transform="translate(3186.300781 0)"/>
    <use xlink:href="#DejaVuSans-6e" transform="translate(3247.824219 0)"/>
    <use xlink:href="#DejaVuSans-3f" transform="translate(3311.203125 0)"/>
   </g>
  </g>
 </g>
 <defs>
  <clipPath id="p3193c38ccb">
   <rect x="234" y="51.84" width="468" height="427.68"/>
  </clipPath>
 </defs>
</svg>
