<?xml version="1.0" encoding="utf-8" standalone="no"?>
<!DOCTYPE svg PUBLIC "-//W3C//DTD SVG 1.1//EN"
  "http://www.w3.org/Graphics/SVG/1.1/DTD/svg11.dtd">
<svg xmlns:xlink="http://www.w3.org/1999/xlink" width="936pt" height="648pt" viewBox="0 0 936 648" xmlns="http://www.w3.org/2000/svg" version="1.1">
 <metadata>
  <rdf:RDF xmlns:dc="http://purl.org/dc/elements/1.1/" xmlns:cc="http://creativecommons.org/ns#" xmlns:rdf="http://www.w3.org/1999/02/22-rdf-syntax-ns#">
   <cc:Work>
    <dc:type rdf:resource="http://purl.org/dc/dcmitype/StillImage"/>
    <dc:date>2026-02-23T14:10:30.687535</dc:date>
    <dc:format>image/svg+xml</dc:format>
    <dc:creator>
     <cc:Agent>
      <dc:title>Matplotlib v3.10.8, https://matplotlib.org/</dc:title>
     </cc:Agent>
    </dc:creator>
   </cc:Work>
  </rdf:RDF>
 </metadata>
 <defs>
  <style type="text/css">*{stroke-linejoin: round; stroke-linecap: butt}</style>
 </defs>
 <g id="figure_1">
  <g id="patch_1">
   <path d="M 0 648 
L 936 648 
L 936 0 
L 0 0 
z
" style="fill: #ffffff"/>
  </g>
  <g id="axes_1">
   <g id="patch_2">
    <path d="M 519.373238 102.503967 
C 511.074191 99.891148 502.587892 97.915254 493.988242 96.593509 
C 485.388593 95.271763 476.700623 94.608 467.999993 94.608 
L 467.999995 154.4832 
C 473.655405 154.4832 479.302586 154.914646 484.892357 155.773781 
C 490.48213 156.632915 495.998224 157.917246 501.392605 159.615578 
z
" style="fill: #003b6a; stroke: #ffffff; stroke-linejoin: miter"/>
   </g>
   <g id="patch_3">
    <path d="M 628.655718 206.897626 
C 619.652239 182.290566 605.114497 160.07784 586.167587 141.978539 
C 567.220676 123.879238 544.366324 110.372617 519.373238 102.503967 
L 501.392605 159.615578 
C 517.638111 164.730201 532.49344 173.509505 544.808931 185.274051 
C 557.124423 197.038596 566.573955 211.476868 572.426217 227.471457 
z
" style="fill: #8fc73e; stroke: #ffffff; stroke-linejoin: miter"/>
   </g>
   <g id="patch_4">
    <path d="M 570.234582 402.843115 
C 599.767712 380.830581 621.416204 349.857531 631.940499 314.558858 
C 642.464804 279.260186 641.312375 241.489038 628.655718 206.897626 
L 572.426217 227.471457 
C 580.653044 249.955875 581.402123 274.507121 574.561324 297.451258 
C 567.720533 320.395395 553.649013 340.527878 534.452478 354.836025 
z
" style="fill: #dc912f; stroke: #ffffff; stroke-linejoin: miter"/>
   </g>
   <g id="patch_5">
    <path d="M 335.656144 374.080793 
C 363.538013 408.121083 403.505779 430.125327 447.180299 435.480382 
C 490.854821 440.835446 534.954722 429.138971 570.234582 402.843115 
L 534.452478 354.836025 
C 511.520569 371.928331 482.855634 379.53104 454.467194 376.050248 
C 426.078756 372.569462 400.099708 358.266704 381.976494 336.140516 
z
" style="fill: #93bbdc; stroke: #ffffff; stroke-linejoin: miter"/>
   </g>
   <g id="patch_6">
    <path d="M 298.536843 289.086607 
C 300.681971 304.617245 304.951945 319.779562 311.2267 334.147222 
C 317.501455 348.514883 325.721636 361.951999 335.656144 374.080793 
L 381.976494 336.140516 
C 375.519063 328.256799 370.175946 319.522674 366.097355 310.183694 
C 362.018765 300.844715 359.243281 290.989209 357.848948 280.894295 
z
" style="fill: #f9c803; stroke: #ffffff; stroke-linejoin: miter"/>
   </g>
   <g id="patch_7">
    <path d="M 468.000084 94.608 
C 443.557996 94.60798 419.3974 99.846252 397.150032 109.969011 
C 374.902668 120.091771 355.080902 134.865923 339.023569 153.293567 
C 322.966236 171.721211 311.04315 193.377922 304.059521 216.801085 
C 297.075893 240.224249 295.192606 264.874383 298.536843 289.086607 
L 357.848948 280.894295 
C 355.675194 265.156349 356.89933 249.133762 361.438689 233.908706 
C 365.978047 218.683649 373.728054 204.606787 384.16532 192.628819 
C 394.602586 180.65085 407.486734 171.047651 421.947521 164.467857 
C 436.40831 157.888064 452.112697 154.483187 468.000054 154.4832 
z
" style="fill: #6283aa; stroke: #ffffff; stroke-linejoin: miter"/>
   </g>
   <g id="matplotlib.axis_1"/>
   <g id="matplotlib.axis_2"/>
   <g id="line2d_1">
    <path d="M 490.86967 116.883894 
L 496.587089 79.684865 
" clip-path="url(#p6f65618060)" style="fill: none; stroke: #000000; stroke-opacity: 0.35; stroke-linecap: square"/>
   </g>
   <g id="line2d_2">
    <path d="M 571.987474 156.822711 
L 597.984353 129.608389 
" clip-path="url(#p6f65618060)" style="fill: none; stroke: #000000; stroke-opacity: 0.35; stroke-linecap: square"/>
   </g>
   <g id="line2d_3">
    <path d="M 612.267636 308.693388 
L 648.334547 319.446742 
" clip-path="url(#p6f65618060)" style="fill: none; stroke: #000000; stroke-opacity: 0.35; stroke-linecap: square"/>
   </g>
   <g id="line2d_4">
    <path d="M 449.678663 415.104334 
L 445.098328 452.460423 
" clip-path="url(#p6f65618060)" style="fill: none; stroke: #000000; stroke-opacity: 0.35; stroke-linecap: square"/>
   </g>
   <g id="line2d_5">
    <path d="M 330.039494 325.931156 
L 295.549367 340.993945 
" clip-path="url(#p6f65618060)" style="fill: none; stroke: #000000; stroke-opacity: 0.35; stroke-linecap: square"/>
   </g>
   <g id="line2d_6">
    <path d="M 354.500772 166.779908 
L 326.125955 142.054892 
" clip-path="url(#p6f65618060)" style="fill: none; stroke: #000000; stroke-opacity: 0.35; stroke-linecap: square"/>
   </g>
   <g id="text_1">
    <!-- 5% -->
    <g transform="translate(500.485328 52.050269) scale(0.08 -0.08)">
     <defs>
      <path id="DejaVuSans-35" d="M 691 4666 
L 3169 4666 
L 3169 4134 
L 1269 4134 
L 1269 2991 
Q 1406 3038 1543 3061 
Q 1681 3084 1819 3084 
Q 2600 3084 3056 2656 
Q 3513 2228 3513 1497 
Q 3513 744 3044 326 
Q 2575 -91 1722 -91 
Q 1428 -91 1123 -41 
Q 819 9 494 109 
L 494 744 
Q 775 591 1075 516 
Q 1375 441 1709 441 
Q 2250 441 2565 725 
Q 2881 1009 2881 1497 
Q 2881 1984 2565 2268 
Q 2250 2553 1709 2553 
Q 1456 2553 1204 2497 
Q 953 2441 691 2322 
L 691 4666 
z
" transform="scale(0.015625)"/>
      <path id="DejaVuSans-25" d="M 4653 2053 
Q 4381 2053 4226 1822 
Q 4072 1591 4072 1178 
Q 4072 772 4226 539 
Q 4381 306 4653 306 
Q 4919 306 5073 539 
Q 5228 772 5228 1178 
Q 5228 1588 5073 1820 
Q 4919 2053 4653 2053 
z
M 4653 2450 
Q 5147 2450 5437 2106 
Q 5728 1763 5728 1178 
Q 5728 594 5436 251 
Q 5144 -91 4653 -91 
Q 4153 -91 3862 251 
Q 3572 594 3572 1178 
Q 3572 1766 3864 2108 
Q 4156 2450 4653 2450 
z
M 1428 4353 
Q 1159 4353 1004 4120 
Q 850 3888 850 3481 
Q 850 3069 1003 2837 
Q 1156 2606 1428 2606 
Q 1700 2606 1854 2837 
Q 2009 3069 2009 3481 
Q 2009 3884 1853 4118 
Q 1697 4353 1428 4353 
z
M 4250 4750 
L 4750 4750 
L 1831 -91 
L 1331 -91 
L 4250 4750 
z
M 1428 4750 
Q 1922 4750 2215 4408 
Q 2509 4066 2509 3481 
Q 2509 2891 2217 2550 
Q 1925 2209 1428 2209 
Q 931 2209 642 2551 
Q 353 2894 353 3481 
Q 353 4063 643 4406 
Q 934 4750 1428 4750 
z
" transform="scale(0.015625)"/>
     </defs>
     <use xlink:href="#DejaVuSans-35"/>
     <use xlink:href="#DejaVuSans-25" transform="translate(63.623047 0)"/>
    </g>
    <!-- Keine Wirkung -->
    <g transform="translate(500.485328 61.008519) scale(0.08 -0.08)">
     <defs>
      <path id="DejaVuSans-4b" d="M 628 4666 
L 1259 4666 
L 1259 2694 
L 3353 4666 
L 4166 4666 
L 1850 2491 
L 4331 0 
L 3500 0 
L 1259 2247 
L 1259 0 
L 628 0 
L 628 4666 
z
" transform="scale(0.015625)"/>
      <path id="DejaVuSans-65" d="M 3597 1894 
L 3597 1613 
L 953 1613 
Q 991 1019 1311 708 
Q 1631 397 2203 397 
Q 2534 397 2845 478 
Q 3156 559 3463 722 
L 3463 178 
Q 3153 47 2828 -22 
Q 2503 -91 2169 -91 
Q 1331 -91 842 396 
Q 353 884 353 1716 
Q 353 2575 817 3079 
Q 1281 3584 2069 3584 
Q 2775 3584 3186 3129 
Q 3597 2675 3597 1894 
z
M 3022 2063 
Q 3016 2534 2758 2815 
Q 2500 3097 2075 3097 
Q 1594 3097 1305 2825 
Q 1016 2553 972 2059 
L 3022 2063 
z
" transform="scale(0.015625)"/>
      <path id="DejaVuSans-69" d="M 603 3500 
L 1178 3500 
L 1178 0 
L 603 0 
L 603 3500 
z
M 603 4863 
L 1178 4863 
L 1178 4134 
L 603 4134 
L 603 4863 
z
" transform="scale(0.015625)"/>
      <path id="DejaVuSans-6e" d="M 3513 2113 
L 3513 0 
L 2938 0 
L 2938 2094 
Q 2938 2591 2744 2837 
Q 2550 3084 2163 3084 
Q 1697 3084 1428 2787 
Q 1159 2491 1159 1978 
L 1159 0 
L 581 0 
L 581 3500 
L 1159 3500 
L 1159 2956 
Q 1366 3272 1645 3428 
Q 1925 3584 2291 3584 
Q 2894 3584 3203 3211 
Q 3513 2838 3513 2113 
z
" transform="scale(0.015625)"/>
      <path id="DejaVuSans-20" transform="scale(0.015625)"/>
      <path id="DejaVuSans-57" d="M 213 4666 
L 850 4666 
L 1831 722 
L 2809 4666 
L 3519 4666 
L 4500 722 
L 5478 4666 
L 6119 4666 
L 4947 0 
L 4153 0 
L 3169 4050 
L 2175 0 
L 1381 0 
L 213 4666 
z
" transform="scale(0.015625)"/>
      <path id="DejaVuSans-72" d="M 2631 2963 
Q 2534 3019 2420 3045 
Q 2306 3072 2169 3072 
Q 1681 3072 1420 2755 
Q 1159 2438 1159 1844 
L 1159 0 
L 581 0 
L 581 3500 
L 1159 3500 
L 1159 2956 
Q 1341 3275 1631 3429 
Q 1922 3584 2338 3584 
Q 2397 3584 2469 3576 
Q 2541 3569 2628 3553 
L 2631 2963 
z
" transform="scale(0.015625)"/>
      <path id="DejaVuSans-6b" d="M 581 4863 
L 1159 4863 
L 1159 1991 
L 2875 3500 
L 3609 3500 
L 1753 1863 
L 3688 0 
L 2938 0 
L 1159 1709 
L 1159 0 
L 581 0 
L 581 4863 
z
" transform="scale(0.015625)"/>
      <path id="DejaVuSans-75" d="M 544 1381 
L 544 3500 
L 1119 3500 
L 1119 1403 
Q 1119 906 1312 657 
Q 1506 409 1894 409 
Q 2359 409 2629 706 
Q 2900 1003 2900 1516 
L 2900 3500 
L 3475 3500 
L 3475 0 
L 2900 0 
L 2900 538 
Q 2691 219 2414 64 
Q 2138 -91 1772 -91 
Q 1169 -91 856 284 
Q 544 659 544 1381 
z
M 1991 3584 
L 1991 3584 
z
" transform="scale(0.015625)"/>
      <path id="DejaVuSans-67" d="M 2906 1791 
Q 2906 2416 2648 2759 
Q 2391 3103 1925 3103 
Q 1463 3103 1205 2759 
Q 947 2416 947 1791 
Q 947 1169 1205 825 
Q 1463 481 1925 481 
Q 2391 481 2648 825 
Q 2906 1169 2906 1791 
z
M 3481 434 
Q 3481 -459 3084 -895 
Q 2688 -1331 1869 -1331 
Q 1566 -1331 1297 -1286 
Q 1028 -1241 775 -1147 
L 775 -588 
Q 1028 -725 1275 -790 
Q 1522 -856 1778 -856 
Q 2344 -856 2625 -561 
Q 2906 -266 2906 331 
L 2906 616 
Q 2728 306 2450 153 
Q 2172 0 1784 0 
Q 1141 0 747 490 
Q 353 981 353 1791 
Q 353 2603 747 3093 
Q 1141 3584 1784 3584 
Q 2172 3584 2450 3431 
Q 2728 3278 2906 2969 
L 2906 3500 
L 3481 3500 
L 3481 434 
z
" transform="scale(0.015625)"/>
     </defs>
     <use xlink:href="#DejaVuSans-4b"/>
     <use xlink:href="#DejaVuSans-65" transform="translate(60.576172 0)"/>
     <use xlink:href="#DejaVuSans-69" transform="translate(122.099609 0)"/>
     <use xlink:href="#DejaVuSans-6e" transform="translate(149.882812 0)"/>
     <use xlink:href="#DejaVuSans-65" transform="translate(213.261719 0)"/>
     <use xlink:href="#DejaVuSans-20" transform="translate(274.785156 0)"/>
     <use xlink:href="#DejaVuSans-57" transform="translate(306.572266 0)"/>
     <use xlink:href="#DejaVuSans-69" transform="translate(403.199219 0)"/>
     <use xlink:href="#DejaVuSans-72" transform="translate(430.982422 0)"/>
     <use xlink:href="#DejaVuSans-6b" transform="translate(472.095703 0)"/>
     <use xlink:href="#DejaVuSans-75" transform="translate(526.880859 0)"/>
     <use xlink:href="#DejaVuSans-6e" transform="translate(590.259766 0)"/>
     <use xlink:href="#DejaVuSans-67" transform="translate(653.638672 0)"/>
    </g>
   </g>
   <g id="text_2">
    <!-- 15% -->
    <g transform="translate(615.709486 108.781549) scale(0.08 -0.08)">
     <defs>
      <path id="DejaVuSans-31" d="M 794 531 
L 1825 531 
L 1825 4091 
L 703 3866 
L 703 4441 
L 1819 4666 
L 2450 4666 
L 2450 531 
L 3481 531 
L 3481 0 
L 794 0 
L 794 531 
z
" transform="scale(0.015625)"/>
     </defs>
     <use xlink:href="#DejaVuSans-31"/>
     <use xlink:href="#DejaVuSans-35" transform="translate(63.623047 0)"/>
     <use xlink:href="#DejaVuSans-25" transform="translate(127.246094 0)"/>
    </g>
    <!-- Geringe Wirkung -->
    <g transform="translate(615.709486 117.739799) scale(0.08 -0.08)">
     <defs>
      <path id="DejaVuSans-47" d="M 3809 666 
L 3809 1919 
L 2778 1919 
L 2778 2438 
L 4434 2438 
L 4434 434 
Q 4069 175 3628 42 
Q 3188 -91 2688 -91 
Q 1594 -91 976 548 
Q 359 1188 359 2328 
Q 359 3472 976 4111 
Q 1594 4750 2688 4750 
Q 3144 4750 3555 4637 
Q 3966 4525 4313 4306 
L 4313 3634 
Q 3963 3931 3569 4081 
Q 3175 4231 2741 4231 
Q 1884 4231 1454 3753 
Q 1025 3275 1025 2328 
Q 1025 1384 1454 906 
Q 1884 428 2741 428 
Q 3075 428 3337 486 
Q 3600 544 3809 666 
z
" transform="scale(0.015625)"/>
     </defs>
     <use xlink:href="#DejaVuSans-47"/>
     <use xlink:href="#DejaVuSans-65" transform="translate(77.490234 0)"/>
     <use xlink:href="#DejaVuSans-72" transform="translate(139.013672 0)"/>
     <use xlink:href="#DejaVuSans-69" transform="translate(180.126953 0)"/>
     <use xlink:href="#DejaVuSans-6e" transform="translate(207.910156 0)"/>
     <use xlink:href="#DejaVuSans-67" transform="translate(271.289062 0)"/>
     <use xlink:href="#DejaVuSans-65" transform="translate(334.765625 0)"/>
     <use xlink:href="#DejaVuSans-20" transform="translate(396.289062 0)"/>
     <use xlink:href="#DejaVuSans-57" transform="translate(428.076172 0)"/>
     <use xlink:href="#DejaVuSans-69" transform="translate(524.703125 0)"/>
     <use xlink:href="#DejaVuSans-72" transform="translate(552.486328 0)"/>
     <use xlink:href="#DejaVuSans-6b" transform="translate(593.599609 0)"/>
     <use xlink:href="#DejaVuSans-75" transform="translate(648.384766 0)"/>
     <use xlink:href="#DejaVuSans-6e" transform="translate(711.763672 0)"/>
     <use xlink:href="#DejaVuSans-67" transform="translate(775.142578 0)"/>
    </g>
   </g>
   <g id="text_3">
    <!-- 20% -->
    <g transform="translate(672.925629 324.506942) scale(0.08 -0.08)">
     <defs>
      <path id="DejaVuSans-32" d="M 1228 531 
L 3431 531 
L 3431 0 
L 469 0 
L 469 531 
Q 828 903 1448 1529 
Q 2069 2156 2228 2338 
Q 2531 2678 2651 2914 
Q 2772 3150 2772 3378 
Q 2772 3750 2511 3984 
Q 2250 4219 1831 4219 
Q 1534 4219 1204 4116 
Q 875 4013 500 3803 
L 500 4441 
Q 881 4594 1212 4672 
Q 1544 4750 1819 4750 
Q 2544 4750 2975 4387 
Q 3406 4025 3406 3419 
Q 3406 3131 3298 2873 
Q 3191 2616 2906 2266 
Q 2828 2175 2409 1742 
Q 1991 1309 1228 531 
z
" transform="scale(0.015625)"/>
      <path id="DejaVuSans-30" d="M 2034 4250 
Q 1547 4250 1301 3770 
Q 1056 3291 1056 2328 
Q 1056 1369 1301 889 
Q 1547 409 2034 409 
Q 2525 409 2770 889 
Q 3016 1369 3016 2328 
Q 3016 3291 2770 3770 
Q 2525 4250 2034 4250 
z
M 2034 4750 
Q 2819 4750 3233 4129 
Q 3647 3509 3647 2328 
Q 3647 1150 3233 529 
Q 2819 -91 2034 -91 
Q 1250 -91 836 529 
Q 422 1150 422 2328 
Q 422 3509 836 4129 
Q 1250 4750 2034 4750 
z
" transform="scale(0.015625)"/>
     </defs>
     <use xlink:href="#DejaVuSans-32"/>
     <use xlink:href="#DejaVuSans-30" transform="translate(63.623047 0)"/>
     <use xlink:href="#DejaVuSans-25" transform="translate(127.246094 0)"/>
    </g>
    <!-- Teilweise Wirkung -->
    <g transform="translate(672.925629 333.465192) scale(0.08 -0.08)">
     <defs>
      <path id="DejaVuSans-54" d="M -19 4666 
L 3928 4666 
L 3928 4134 
L 2272 4134 
L 2272 0 
L 1638 0 
L 1638 4134 
L -19 4134 
L -19 4666 
z
" transform="scale(0.015625)"/>
      <path id="DejaVuSans-6c" d="M 603 4863 
L 1178 4863 
L 1178 0 
L 603 0 
L 603 4863 
z
" transform="scale(0.015625)"/>
      <path id="DejaVuSans-77" d="M 269 3500 
L 844 3500 
L 1563 769 
L 2278 3500 
L 2956 3500 
L 3675 769 
L 4391 3500 
L 4966 3500 
L 4050 0 
L 3372 0 
L 2619 2869 
L 1863 0 
L 1184 0 
L 269 3500 
z
" transform="scale(0.015625)"/>
      <path id="DejaVuSans-73" d="M 2834 3397 
L 2834 2853 
Q 2591 2978 2328 3040 
Q 2066 3103 1784 3103 
Q 1356 3103 1142 2972 
Q 928 2841 928 2578 
Q 928 2378 1081 2264 
Q 1234 2150 1697 2047 
L 1894 2003 
Q 2506 1872 2764 1633 
Q 3022 1394 3022 966 
Q 3022 478 2636 193 
Q 2250 -91 1575 -91 
Q 1294 -91 989 -36 
Q 684 19 347 128 
L 347 722 
Q 666 556 975 473 
Q 1284 391 1588 391 
Q 1994 391 2212 530 
Q 2431 669 2431 922 
Q 2431 1156 2273 1281 
Q 2116 1406 1581 1522 
L 1381 1569 
Q 847 1681 609 1914 
Q 372 2147 372 2553 
Q 372 3047 722 3315 
Q 1072 3584 1716 3584 
Q 2034 3584 2315 3537 
Q 2597 3491 2834 3397 
z
" transform="scale(0.015625)"/>
     </defs>
     <use xlink:href="#DejaVuSans-54"/>
     <use xlink:href="#DejaVuSans-65" transform="translate(44.083984 0)"/>
     <use xlink:href="#DejaVuSans-69" transform="translate(105.607422 0)"/>
     <use xlink:href="#DejaVuSans-6c" transform="translate(133.390625 0)"/>
     <use xlink:href="#DejaVuSans-77" transform="translate(161.173828 0)"/>
     <use xlink:href="#DejaVuSans-65" transform="translate(242.960938 0)"/>
     <use xlink:href="#DejaVuSans-69" transform="translate(304.484375 0)"/>
     <use xlink:href="#DejaVuSans-73" transform="translate(332.267578 0)"/>
     <use xlink:href="#DejaVuSans-65" transform="translate(384.367188 0)"/>
     <use xlink:href="#DejaVuSans-20" transform="translate(445.890625 0)"/>
     <use xlink:href="#DejaVuSans-57" transform="translate(477.677734 0)"/>
     <use xlink:href="#DejaVuSans-69" transform="translate(574.304688 0)"/>
     <use xlink:href="#DejaVuSans-72" transform="translate(602.087891 0)"/>
     <use xlink:href="#DejaVuSans-6b" transform="translate(643.201172 0)"/>
     <use xlink:href="#DejaVuSans-75" transform="translate(697.986328 0)"/>
     <use xlink:href="#DejaVuSans-6e" transform="translate(761.365234 0)"/>
     <use xlink:href="#DejaVuSans-67" transform="translate(824.744141 0)"/>
    </g>
   </g>
   <g id="text_4">
    <!-- 24% -->
    <g transform="translate(424.194124 475.658854) scale(0.08 -0.08)">
     <defs>
      <path id="DejaVuSans-34" d="M 2419 4116 
L 825 1625 
L 2419 1625 
L 2419 4116 
z
M 2253 4666 
L 3047 4666 
L 3047 1625 
L 3713 1625 
L 3713 1100 
L 3047 1100 
L 3047 0 
L 2419 0 
L 2419 1100 
L 313 1100 
L 313 1709 
L 2253 4666 
z
" transform="scale(0.015625)"/>
     </defs>
     <use xlink:href="#DejaVuSans-32"/>
     <use xlink:href="#DejaVuSans-34" transform="translate(63.623047 0)"/>
     <use xlink:href="#DejaVuSans-25" transform="translate(127.246094 0)"/>
    </g>
    <!-- Hohe Wirkung -->
    <g transform="translate(385.686624 484.617104) scale(0.08 -0.08)">
     <defs>
      <path id="DejaVuSans-48" d="M 628 4666 
L 1259 4666 
L 1259 2753 
L 3553 2753 
L 3553 4666 
L 4184 4666 
L 4184 0 
L 3553 0 
L 3553 2222 
L 1259 2222 
L 1259 0 
L 628 0 
L 628 4666 
z
" transform="scale(0.015625)"/>
      <path id="DejaVuSans-6f" d="M 1959 3097 
Q 1497 3097 1228 2736 
Q 959 2375 959 1747 
Q 959 1119 1226 758 
Q 1494 397 1959 397 
Q 2419 397 2687 759 
Q 2956 1122 2956 1747 
Q 2956 2369 2687 2733 
Q 2419 3097 1959 3097 
z
M 1959 3584 
Q 2709 3584 3137 3096 
Q 3566 2609 3566 1747 
Q 3566 888 3137 398 
Q 2709 -91 1959 -91 
Q 1206 -91 779 398 
Q 353 888 353 1747 
Q 353 2609 779 3096 
Q 1206 3584 1959 3584 
z
" transform="scale(0.015625)"/>
      <path id="DejaVuSans-68" d="M 3513 2113 
L 3513 0 
L 2938 0 
L 2938 2094 
Q 2938 2591 2744 2837 
Q 2550 3084 2163 3084 
Q 1697 3084 1428 2787 
Q 1159 2491 1159 1978 
L 1159 0 
L 581 0 
L 581 4863 
L 1159 4863 
L 1159 2956 
Q 1366 3272 1645 3428 
Q 1925 3584 2291 3584 
Q 2894 3584 3203 3211 
Q 3513 2838 3513 2113 
z
" transform="scale(0.015625)"/>
     </defs>
     <use xlink:href="#DejaVuSans-48"/>
     <use xlink:href="#DejaVuSans-6f" transform="translate(75.195312 0)"/>
     <use xlink:href="#DejaVuSans-68" transform="translate(136.376953 0)"/>
     <use xlink:href="#DejaVuSans-65" transform="translate(199.755859 0)"/>
     <use xlink:href="#DejaVuSans-20" transform="translate(261.279297 0)"/>
     <use xlink:href="#DejaVuSans-57" transform="translate(293.066406 0)"/>
     <use xlink:href="#DejaVuSans-69" transform="translate(389.693359 0)"/>
     <use xlink:href="#DejaVuSans-72" transform="translate(417.476562 0)"/>
     <use xlink:href="#DejaVuSans-6b" transform="translate(458.589844 0)"/>
     <use xlink:href="#DejaVuSans-75" transform="translate(513.375 0)"/>
     <use xlink:href="#DejaVuSans-6e" transform="translate(576.753906 0)"/>
     <use xlink:href="#DejaVuSans-67" transform="translate(640.132812 0)"/>
    </g>
   </g>
   <g id="text_5">
    <!-- 9% -->
    <g transform="translate(259.342133 348.992401) scale(0.08 -0.08)">
     <defs>
      <path id="DejaVuSans-39" d="M 703 97 
L 703 672 
Q 941 559 1184 500 
Q 1428 441 1663 441 
Q 2288 441 2617 861 
Q 2947 1281 2994 2138 
Q 2813 1869 2534 1725 
Q 2256 1581 1919 1581 
Q 1219 1581 811 2004 
Q 403 2428 403 3163 
Q 403 3881 828 4315 
Q 1253 4750 1959 4750 
Q 2769 4750 3195 4129 
Q 3622 3509 3622 2328 
Q 3622 1225 3098 567 
Q 2575 -91 1691 -91 
Q 1453 -91 1209 -44 
Q 966 3 703 97 
z
M 1959 2075 
Q 2384 2075 2632 2365 
Q 2881 2656 2881 3163 
Q 2881 3666 2632 3958 
Q 2384 4250 1959 4250 
Q 1534 4250 1286 3958 
Q 1038 3666 1038 3163 
Q 1038 2656 1286 2365 
Q 1534 2075 1959 2075 
z
" transform="scale(0.015625)"/>
     </defs>
     <use xlink:href="#DejaVuSans-39"/>
     <use xlink:href="#DejaVuSans-25" transform="translate(63.623047 0)"/>
    </g>
    <!-- Sehr hohe Wirkung -->
    <g transform="translate(195.788383 357.950651) scale(0.08 -0.08)">
     <defs>
      <path id="DejaVuSans-53" d="M 3425 4513 
L 3425 3897 
Q 3066 4069 2747 4153 
Q 2428 4238 2131 4238 
Q 1616 4238 1336 4038 
Q 1056 3838 1056 3469 
Q 1056 3159 1242 3001 
Q 1428 2844 1947 2747 
L 2328 2669 
Q 3034 2534 3370 2195 
Q 3706 1856 3706 1288 
Q 3706 609 3251 259 
Q 2797 -91 1919 -91 
Q 1588 -91 1214 -16 
Q 841 59 441 206 
L 441 856 
Q 825 641 1194 531 
Q 1563 422 1919 422 
Q 2459 422 2753 634 
Q 3047 847 3047 1241 
Q 3047 1584 2836 1778 
Q 2625 1972 2144 2069 
L 1759 2144 
Q 1053 2284 737 2584 
Q 422 2884 422 3419 
Q 422 4038 858 4394 
Q 1294 4750 2059 4750 
Q 2388 4750 2728 4690 
Q 3069 4631 3425 4513 
z
" transform="scale(0.015625)"/>
     </defs>
     <use xlink:href="#DejaVuSans-53"/>
     <use xlink:href="#DejaVuSans-65" transform="translate(63.476562 0)"/>
     <use xlink:href="#DejaVuSans-68" transform="translate(125 0)"/>
     <use xlink:href="#DejaVuSans-72" transform="translate(188.378906 0)"/>
     <use xlink:href="#DejaVuSans-20" transform="translate(229.492188 0)"/>
     <use xlink:href="#DejaVuSans-68" transform="translate(261.279297 0)"/>
     <use xlink:href="#DejaVuSans-6f" transform="translate(324.658203 0)"/>
     <use xlink:href="#DejaVuSans-68" transform="translate(385.839844 0)"/>
     <use xlink:href="#DejaVuSans-65" transform="translate(449.21875 0)"/>
     <use xlink:href="#DejaVuSans-20" transform="translate(510.742188 0)"/>
     <use xlink:href="#DejaVuSans-57" transform="translate(542.529297 0)"/>
     <use xlink:href="#DejaVuSans-69" transform="translate(639.15625 0)"/>
     <use xlink:href="#DejaVuSans-72" transform="translate(666.939453 0)"/>
     <use xlink:href="#DejaVuSans-6b" transform="translate(708.052734 0)"/>
     <use xlink:href="#DejaVuSans-75" transform="translate(762.837891 0)"/>
     <use xlink:href="#DejaVuSans-6e" transform="translate(826.216797 0)"/>
     <use xlink:href="#DejaVuSans-67" transform="translate(889.595703 0)"/>
    </g>
   </g>
   <g id="text_6">
    <!-- 27% -->
    <g transform="translate(288.998247 122.92529) scale(0.08 -0.08)">
     <defs>
      <path id="DejaVuSans-37" d="M 525 4666 
L 3525 4666 
L 3525 4397 
L 1831 0 
L 1172 0 
L 2766 4134 
L 525 4134 
L 525 4666 
z
" transform="scale(0.015625)"/>
     </defs>
     <use xlink:href="#DejaVuSans-32"/>
     <use xlink:href="#DejaVuSans-37" transform="translate(63.623047 0)"/>
     <use xlink:href="#DejaVuSans-25" transform="translate(127.246094 0)"/>
    </g>
    <!-- Keine Antwort -->
    <g transform="translate(250.711997 131.88354) scale(0.08 -0.08)">
     <defs>
      <path id="DejaVuSans-41" d="M 2188 4044 
L 1331 1722 
L 3047 1722 
L 2188 4044 
z
M 1831 4666 
L 2547 4666 
L 4325 0 
L 3669 0 
L 3244 1197 
L 1141 1197 
L 716 0 
L 50 0 
L 1831 4666 
z
" transform="scale(0.015625)"/>
      <path id="DejaVuSans-74" d="M 1172 4494 
L 1172 3500 
L 2356 3500 
L 2356 3053 
L 1172 3053 
L 1172 1153 
Q 1172 725 1289 603 
Q 1406 481 1766 481 
L 2356 481 
L 2356 0 
L 1766 0 
Q 1100 0 847 248 
Q 594 497 594 1153 
L 594 3053 
L 172 3053 
L 172 3500 
L 594 3500 
L 594 4494 
L 1172 4494 
z
" transform="scale(0.015625)"/>
     </defs>
     <use xlink:href="#DejaVuSans-4b"/>
     <use xlink:href="#DejaVuSans-65" transform="translate(60.576172 0)"/>
     <use xlink:href="#DejaVuSans-69" transform="translate(122.099609 0)"/>
     <use xlink:href="#DejaVuSans-6e" transform="translate(149.882812 0)"/>
     <use xlink:href="#DejaVuSans-65" transform="translate(213.261719 0)"/>
     <use xlink:href="#DejaVuSans-20" transform="translate(274.785156 0)"/>
     <use xlink:href="#DejaVuSans-41" transform="translate(306.572266 0)"/>
     <use xlink:href="#DejaVuSans-6e" transform="translate(374.980469 0)"/>
     <use xlink:href="#DejaVuSans-74" transform="translate(438.359375 0)"/>
     <use xlink:href="#DejaVuSans-77" transform="translate(477.568359 0)"/>
     <use xlink:href="#DejaVuSans-6f" transform="translate(559.355469 0)"/>
     <use xlink:href="#DejaVuSans-72" transform="translate(620.537109 0)"/>
     <use xlink:href="#DejaVuSans-74" transform="translate(661.650391 0)"/>
    </g>
   </g>
  </g>
  <g id="text_7">
   <!-- Qualifizierungsmaßnahmen -->
   <g transform="translate(385.249687 22.078125) scale(0.12 -0.12)">
    <defs>
     <path id="DejaVuSans-51" d="M 2522 4238 
Q 1834 4238 1429 3725 
Q 1025 3213 1025 2328 
Q 1025 1447 1429 934 
Q 1834 422 2522 422 
Q 3209 422 3611 934 
Q 4013 1447 4013 2328 
Q 4013 3213 3611 3725 
Q 3209 4238 2522 4238 
z
M 3406 84 
L 4238 -825 
L 3475 -825 
L 2784 -78 
Q 2681 -84 2626 -87 
Q 2572 -91 2522 -91 
Q 1538 -91 948 567 
Q 359 1225 359 2328 
Q 359 3434 948 4092 
Q 1538 4750 2522 4750 
Q 3503 4750 4090 4092 
Q 4678 3434 4678 2328 
Q 4678 1516 4351 937 
Q 4025 359 3406 84 
z
" transform="scale(0.015625)"/>
     <path id="DejaVuSans-61" d="M 2194 1759 
Q 1497 1759 1228 1600 
Q 959 1441 959 1056 
Q 959 750 1161 570 
Q 1363 391 1709 391 
Q 2188 391 2477 730 
Q 2766 1069 2766 1631 
L 2766 1759 
L 2194 1759 
z
M 3341 1997 
L 3341 0 
L 2766 0 
L 2766 531 
Q 2569 213 2275 61 
Q 1981 -91 1556 -91 
Q 1019 -91 701 211 
Q 384 513 384 1019 
Q 384 1609 779 1909 
Q 1175 2209 1959 2209 
L 2766 2209 
L 2766 2266 
Q 2766 2663 2505 2880 
Q 2244 3097 1772 3097 
Q 1472 3097 1187 3025 
Q 903 2953 641 2809 
L 641 3341 
Q 956 3463 1253 3523 
Q 1550 3584 1831 3584 
Q 2591 3584 2966 3190 
Q 3341 2797 3341 1997 
z
" transform="scale(0.015625)"/>
     <path id="DejaVuSans-66" d="M 2375 4863 
L 2375 4384 
L 1825 4384 
Q 1516 4384 1395 4259 
Q 1275 4134 1275 3809 
L 1275 3500 
L 2222 3500 
L 2222 3053 
L 1275 3053 
L 1275 0 
L 697 0 
L 697 3053 
L 147 3053 
L 147 3500 
L 697 3500 
L 697 3744 
Q 697 4328 969 4595 
Q 1241 4863 1831 4863 
L 2375 4863 
z
" transform="scale(0.015625)"/>
     <path id="DejaVuSans-7a" d="M 353 3500 
L 3084 3500 
L 3084 2975 
L 922 459 
L 3084 459 
L 3084 0 
L 275 0 
L 275 525 
L 2438 3041 
L 353 3041 
L 353 3500 
z
" transform="scale(0.015625)"/>
     <path id="DejaVuSans-6d" d="M 3328 2828 
Q 3544 3216 3844 3400 
Q 4144 3584 4550 3584 
Q 5097 3584 5394 3201 
Q 5691 2819 5691 2113 
L 5691 0 
L 5113 0 
L 5113 2094 
Q 5113 2597 4934 2840 
Q 4756 3084 4391 3084 
Q 3944 3084 3684 2787 
Q 3425 2491 3425 1978 
L 3425 0 
L 2847 0 
L 2847 2094 
Q 2847 2600 2669 2842 
Q 2491 3084 2119 3084 
Q 1678 3084 1418 2786 
Q 1159 2488 1159 1978 
L 1159 0 
L 581 0 
L 581 3500 
L 1159 3500 
L 1159 2956 
Q 1356 3278 1631 3431 
Q 1906 3584 2284 3584 
Q 2666 3584 2933 3390 
Q 3200 3197 3328 2828 
z
" transform="scale(0.015625)"/>
     <path id="DejaVuSans-df" d="M 581 3553 
Q 581 4178 954 4520 
Q 1328 4863 2009 4863 
Q 2659 4863 3001 4500 
Q 3344 4138 3353 3438 
Q 2881 3413 2618 3233 
Q 2356 3053 2356 2753 
Q 2356 2606 2447 2479 
Q 2538 2353 2741 2222 
L 2919 2106 
Q 3438 1775 3588 1553 
Q 3738 1331 3738 1019 
Q 3738 481 3386 195 
Q 3034 -91 2375 -91 
Q 2175 -91 1962 -52 
Q 1750 -13 1522 63 
L 1522 575 
Q 1772 481 1990 436 
Q 2209 391 2413 391 
Q 2775 391 2962 539 
Q 3150 688 3150 972 
Q 3150 1169 3058 1300 
Q 2966 1431 2650 1625 
L 2363 1797 
Q 2063 1981 1927 2192 
Q 1791 2403 1791 2688 
Q 1791 3084 2052 3353 
Q 2313 3622 2784 3713 
Q 2759 4034 2554 4209 
Q 2350 4384 1997 4384 
Q 1591 4384 1378 4167 
Q 1166 3950 1166 3541 
L 1166 0 
L 581 0 
L 581 3553 
z
" transform="scale(0.015625)"/>
    </defs>
    <use xlink:href="#DejaVuSans-51"/>
    <use xlink:href="#DejaVuSans-75" transform="translate(78.710938 0)"/>
    <use xlink:href="#DejaVuSans-61" transform="translate(142.089844 0)"/>
    <use xlink:href="#DejaVuSans-6c" transform="translate(203.369141 0)"/>
    <use xlink:href="#DejaVuSans-69" transform="translate(231.152344 0)"/>
    <use xlink:href="#DejaVuSans-66" transform="translate(258.935547 0)"/>
    <use xlink:href="#DejaVuSans-69" transform="translate(294.140625 0)"/>
    <use xlink:href="#DejaVuSans-7a" transform="translate(321.923828 0)"/>
    <use xlink:href="#DejaVuSans-69" transform="translate(374.414062 0)"/>
    <use xlink:href="#DejaVuSans-65" transform="translate(402.197266 0)"/>
    <use xlink:href="#DejaVuSans-72" transform="translate(463.720703 0)"/>
    <use xlink:href="#DejaVuSans-75" transform="translate(504.833984 0)"/>
    <use xlink:href="#DejaVuSans-6e" transform="translate(568.212891 0)"/>
    <use xlink:href="#DejaVuSans-67" transform="translate(631.591797 0)"/>
    <use xlink:href="#DejaVuSans-73" transform="translate(695.068359 0)"/>
    <use xlink:href="#DejaVuSans-6d" transform="translate(747.167969 0)"/>
    <use xlink:href="#DejaVuSans-61" transform="translate(844.580078 0)"/>
    <use xlink:href="#DejaVuSans-df" transform="translate(905.859375 0)"/>
    <use xlink:href="#DejaVuSans-6e" transform="translate(968.847656 0)"/>
    <use xlink:href="#DejaVuSans-61" transform="translate(1032.226562 0)"/>
    <use xlink:href="#DejaVuSans-68" transform="translate(1093.505859 0)"/>
    <use xlink:href="#DejaVuSans-6d" transform="translate(1156.884766 0)"/>
    <use xlink:href="#DejaVuSans-65" transform="translate(1254.296875 0)"/>
    <use xlink:href="#DejaVuSans-6e" transform="translate(1315.820312 0)"/>
   </g>
  </g>
  <g id="text_8">
   <!-- Abbildung 40h: Wie bewerten Sie die Wirksamkeit der folgenden öffentlichen -->
   <g transform="translate(255.772188 557.948813) scale(0.11 -0.11)">
    <defs>
     <path id="DejaVuSans-62" d="M 3116 1747 
Q 3116 2381 2855 2742 
Q 2594 3103 2138 3103 
Q 1681 3103 1420 2742 
Q 1159 2381 1159 1747 
Q 1159 1113 1420 752 
Q 1681 391 2138 391 
Q 2594 391 2855 752 
Q 3116 1113 3116 1747 
z
M 1159 2969 
Q 1341 3281 1617 3432 
Q 1894 3584 2278 3584 
Q 2916 3584 3314 3078 
Q 3713 2572 3713 1747 
Q 3713 922 3314 415 
Q 2916 -91 2278 -91 
Q 1894 -91 1617 61 
Q 1341 213 1159 525 
L 1159 0 
L 581 0 
L 581 4863 
L 1159 4863 
L 1159 2969 
z
" transform="scale(0.015625)"/>
     <path id="DejaVuSans-64" d="M 2906 2969 
L 2906 4863 
L 3481 4863 
L 3481 0 
L 2906 0 
L 2906 525 
Q 2725 213 2448 61 
Q 2172 -91 1784 -91 
Q 1150 -91 751 415 
Q 353 922 353 1747 
Q 353 2572 751 3078 
Q 1150 3584 1784 3584 
Q 2172 3584 2448 3432 
Q 2725 3281 2906 2969 
z
M 947 1747 
Q 947 1113 1208 752 
Q 1469 391 1925 391 
Q 2381 391 2643 752 
Q 2906 1113 2906 1747 
Q 2906 2381 2643 2742 
Q 2381 3103 1925 3103 
Q 1469 3103 1208 2742 
Q 947 2381 947 1747 
z
" transform="scale(0.015625)"/>
     <path id="DejaVuSans-3a" d="M 750 794 
L 1409 794 
L 1409 0 
L 750 0 
L 750 794 
z
M 750 3309 
L 1409 3309 
L 1409 2516 
L 750 2516 
L 750 3309 
z
" transform="scale(0.015625)"/>
     <path id="DejaVuSans-f6" d="M 1959 3097 
Q 1497 3097 1228 2736 
Q 959 2375 959 1747 
Q 959 1119 1226 758 
Q 1494 397 1959 397 
Q 2419 397 2687 759 
Q 2956 1122 2956 1747 
Q 2956 2369 2687 2733 
Q 2419 3097 1959 3097 
z
M 1959 3584 
Q 2709 3584 3137 3096 
Q 3566 2609 3566 1747 
Q 3566 888 3137 398 
Q 2709 -91 1959 -91 
Q 1206 -91 779 398 
Q 353 888 353 1747 
Q 353 2609 779 3096 
Q 1206 3584 1959 3584 
z
M 2254 4850 
L 2888 4850 
L 2888 4219 
L 2254 4219 
L 2254 4850 
z
M 1032 4850 
L 1666 4850 
L 1666 4219 
L 1032 4219 
L 1032 4850 
z
" transform="scale(0.015625)"/>
     <path id="DejaVuSans-63" d="M 3122 3366 
L 3122 2828 
Q 2878 2963 2633 3030 
Q 2388 3097 2138 3097 
Q 1578 3097 1268 2742 
Q 959 2388 959 1747 
Q 959 1106 1268 751 
Q 1578 397 2138 397 
Q 2388 397 2633 464 
Q 2878 531 3122 666 
L 3122 134 
Q 2881 22 2623 -34 
Q 2366 -91 2075 -91 
Q 1284 -91 818 406 
Q 353 903 353 1747 
Q 353 2603 823 3093 
Q 1294 3584 2113 3584 
Q 2378 3584 2631 3529 
Q 2884 3475 3122 3366 
z
" transform="scale(0.015625)"/>
    </defs>
    <use xlink:href="#DejaVuSans-41"/>
    <use xlink:href="#DejaVuSans-62" transform="translate(68.408203 0)"/>
    <use xlink:href="#DejaVuSans-62" transform="translate(131.884766 0)"/>
    <use xlink:href="#DejaVuSans-69" transform="translate(195.361328 0)"/>
    <use xlink:href="#DejaVuSans-6c" transform="translate(223.144531 0)"/>
    <use xlink:href="#DejaVuSans-64" transform="translate(250.927734 0)"/>
    <use xlink:href="#DejaVuSans-75" transform="translate(314.404297 0)"/>
    <use xlink:href="#DejaVuSans-6e" transform="translate(377.783203 0)"/>
    <use xlink:href="#DejaVuSans-67" transform="translate(441.162109 0)"/>
    <use xlink:href="#DejaVuSans-20" transform="translate(504.638672 0)"/>
    <use xlink:href="#DejaVuSans-34" transform="translate(536.425781 0)"/>
    <use xlink:href="#DejaVuSans-30" transform="translate(600.048828 0)"/>
    <use xlink:href="#DejaVuSans-68" transform="translate(663.671875 0)"/>
    <use xlink:href="#DejaVuSans-3a" transform="translate(727.050781 0)"/>
    <use xlink:href="#DejaVuSans-20" transform="translate(760.742188 0)"/>
    <use xlink:href="#DejaVuSans-57" transform="translate(792.529297 0)"/>
    <use xlink:href="#DejaVuSans-69" transform="translate(889.15625 0)"/>
    <use xlink:href="#DejaVuSans-65" transform="translate(916.939453 0)"/>
    <use xlink:href="#DejaVuSans-20" transform="translate(978.462891 0)"/>
    <use xlink:href="#DejaVuSans-62" transform="translate(1010.25 0)"/>
    <use xlink:href="#DejaVuSans-65" transform="translate(1073.726562 0)"/>
    <use xlink:href="#DejaVuSans-77" transform="translate(1135.25 0)"/>
    <use xlink:href="#DejaVuSans-65" transform="translate(1217.037109 0)"/>
    <use xlink:href="#DejaVuSans-72" transform="translate(1278.560547 0)"/>
    <use xlink:href="#DejaVuSans-74" transform="translate(1319.673828 0)"/>
    <use xlink:href="#DejaVuSans-65" transform="translate(1358.882812 0)"/>
    <use xlink:href="#DejaVuSans-6e" transform="translate(1420.40625 0)"/>
    <use xlink:href="#DejaVuSans-20" transform="translate(1483.785156 0)"/>
    <use xlink:href="#DejaVuSans-53" transform="translate(1515.572266 0)"/>
    <use xlink:href="#DejaVuSans-69" transform="translate(1579.048828 0)"/>
    <use xlink:href="#DejaVuSans-65" transform="translate(1606.832031 0)"/>
    <use xlink:href="#DejaVuSans-20" transform="translate(1668.355469 0)"/>
    <use xlink:href="#DejaVuSans-64" transform="translate(1700.142578 0)"/>
    <use xlink:href="#DejaVuSans-69" transform="translate(1763.619141 0)"/>
    <use xlink:href="#DejaVuSans-65" transform="translate(1791.402344 0)"/>
    <use xlink:href="#DejaVuSans-20" transform="translate(1852.925781 0)"/>
    <use xlink:href="#DejaVuSans-57" transform="translate(1884.712891 0)"/>
    <use xlink:href="#DejaVuSans-69" transform="translate(1981.339844 0)"/>
    <use xlink:href="#DejaVuSans-72" transform="translate(2009.123047 0)"/>
    <use xlink:href="#DejaVuSans-6b" transform="translate(2050.236328 0)"/>
    <use xlink:href="#DejaVuSans-73" transform="translate(2108.146484 0)"/>
    <use xlink:href="#DejaVuSans-61" transform="translate(2160.246094 0)"/>
    <use xlink:href="#DejaVuSans-6d" transform="translate(2221.525391 0)"/>
    <use xlink:href="#DejaVuSans-6b" transform="translate(2318.9375 0)"/>
    <use xlink:href="#DejaVuSans-65" transform="translate(2373.222656 0)"/>
    <use xlink:href="#DejaVuSans-69" transform="translate(2434.746094 0)"/>
    <use xlink:href="#DejaVuSans-74" transform="translate(2462.529297 0)"/>
    <use xlink:href="#DejaVuSans-20" transform="translate(2501.738281 0)"/>
    <use xlink:href="#DejaVuSans-64" transform="translate(2533.525391 0)"/>
    <use xlink:href="#DejaVuSans-65" transform="translate(2597.001953 0)"/>
    <use xlink:href="#DejaVuSans-72" transform="translate(2658.525391 0)"/>
    <use xlink:href="#DejaVuSans-20" transform="translate(2699.638672 0)"/>
    <use xlink:href="#DejaVuSans-66" transform="translate(2731.425781 0)"/>
    <use xlink:href="#DejaVuSans-6f" transform="translate(2766.630859 0)"/>
    <use xlink:href="#DejaVuSans-6c" transform="translate(2827.8125 0)"/>
    <use xlink:href="#DejaVuSans-67" transform="translate(2855.595703 0)"/>
    <use xlink:href="#DejaVuSans-65" transform="translate(2919.072266 0)"/>
    <use xlink:href="#DejaVuSans-6e" transform="translate(2980.595703 0)"/>
    <use xlink:href="#DejaVuSans-64" transform="translate(3043.974609 0)"/>
    <use xlink:href="#DejaVuSans-65" transform="translate(3107.451172 0)"/>
    <use xlink:href="#DejaVuSans-6e" transform="translate(3168.974609 0)"/>
    <use xlink:href="#DejaVuSans-20" transform="translate(3232.353516 0)"/>
    <use xlink:href="#DejaVuSans-f6" transform="translate(3264.140625 0)"/>
    <use xlink:href="#DejaVuSans-66" transform="translate(3325.322266 0)"/>
    <use xlink:href="#DejaVuSans-66" transform="translate(3360.527344 0)"/>
    <use xlink:href="#DejaVuSans-65" transform="translate(3395.732422 0)"/>
    <use xlink:href="#DejaVuSans-6e" transform="translate(3457.255859 0)"/>
    <use xlink:href="#DejaVuSans-74" transform="translate(3520.634766 0)"/>
    <use xlink:href="#DejaVuSans-6c" transform="translate(3559.84375 0)"/>
    <use xlink:href="#DejaVuSans-69" transform="translate(3587.626953 0)"/>
    <use xlink:href="#DejaVuSans-63" transform="translate(3615.410156 0)"/>
    <use xlink:href="#DejaVuSans-68" transform="translate(3670.390625 0)"/>
    <use xlink:href="#DejaVuSans-65" transform="translate(3733.769531 0)"/>
    <use xlink:href="#DejaVuSans-6e" transform="translate(3795.292969 0)"/>
   </g>
   <!-- Maßnahmen und deren Ergebnisse für die Förderung der Umsetzung zirkulärer -->
   <g transform="translate(251.3275 569.430578) scale(0.11 -0.11)">
    <defs>
     <path id="DejaVuSans-4d" d="M 628 4666 
L 1569 4666 
L 2759 1491 
L 3956 4666 
L 4897 4666 
L 4897 0 
L 4281 0 
L 4281 4097 
L 3078 897 
L 2444 897 
L 1241 4097 
L 1241 0 
L 628 0 
L 628 4666 
z
" transform="scale(0.015625)"/>
     <path id="DejaVuSans-45" d="M 628 4666 
L 3578 4666 
L 3578 4134 
L 1259 4134 
L 1259 2753 
L 3481 2753 
L 3481 2222 
L 1259 2222 
L 1259 531 
L 3634 531 
L 3634 0 
L 628 0 
L 628 4666 
z
" transform="scale(0.015625)"/>
     <path id="DejaVuSans-fc" d="M 544 1381 
L 544 3500 
L 1119 3500 
L 1119 1403 
Q 1119 906 1312 657 
Q 1506 409 1894 409 
Q 2359 409 2629 706 
Q 2900 1003 2900 1516 
L 2900 3500 
L 3475 3500 
L 3475 0 
L 2900 0 
L 2900 538 
Q 2691 219 2414 64 
Q 2138 -91 1772 -91 
Q 1169 -91 856 284 
Q 544 659 544 1381 
z
M 1991 3584 
L 1991 3584 
z
M 2278 4850 
L 2912 4850 
L 2912 4219 
L 2278 4219 
L 2278 4850 
z
M 1056 4850 
L 1690 4850 
L 1690 4219 
L 1056 4219 
L 1056 4850 
z
" transform="scale(0.015625)"/>
     <path id="DejaVuSans-46" d="M 628 4666 
L 3309 4666 
L 3309 4134 
L 1259 4134 
L 1259 2759 
L 3109 2759 
L 3109 2228 
L 1259 2228 
L 1259 0 
L 628 0 
L 628 4666 
z
" transform="scale(0.015625)"/>
     <path id="DejaVuSans-55" d="M 556 4666 
L 1191 4666 
L 1191 1831 
Q 1191 1081 1462 751 
Q 1734 422 2344 422 
Q 2950 422 3222 751 
Q 3494 1081 3494 1831 
L 3494 4666 
L 4128 4666 
L 4128 1753 
Q 4128 841 3676 375 
Q 3225 -91 2344 -91 
Q 1459 -91 1007 375 
Q 556 841 556 1753 
L 556 4666 
z
" transform="scale(0.015625)"/>
     <path id="DejaVuSans-e4" d="M 2194 1759 
Q 1497 1759 1228 1600 
Q 959 1441 959 1056 
Q 959 750 1161 570 
Q 1363 391 1709 391 
Q 2188 391 2477 730 
Q 2766 1069 2766 1631 
L 2766 1759 
L 2194 1759 
z
M 3341 1997 
L 3341 0 
L 2766 0 
L 2766 531 
Q 2569 213 2275 61 
Q 1981 -91 1556 -91 
Q 1019 -91 701 211 
Q 384 513 384 1019 
Q 384 1609 779 1909 
Q 1175 2209 1959 2209 
L 2766 2209 
L 2766 2266 
Q 2766 2663 2505 2880 
Q 2244 3097 1772 3097 
Q 1472 3097 1187 3025 
Q 903 2953 641 2809 
L 641 3341 
Q 956 3463 1253 3523 
Q 1550 3584 1831 3584 
Q 2591 3584 2966 3190 
Q 3341 2797 3341 1997 
z
M 2150 4850 
L 2784 4850 
L 2784 4219 
L 2150 4219 
L 2150 4850 
z
M 928 4850 
L 1562 4850 
L 1562 4219 
L 928 4219 
L 928 4850 
z
" transform="scale(0.015625)"/>
    </defs>
    <use xlink:href="#DejaVuSans-4d"/>
    <use xlink:href="#DejaVuSans-61" transform="translate(86.279297 0)"/>
    <use xlink:href="#DejaVuSans-df" transform="translate(147.558594 0)"/>
    <use xlink:href="#DejaVuSans-6e" transform="translate(210.546875 0)"/>
    <use xlink:href="#DejaVuSans-61" transform="translate(273.925781 0)"/>
    <use xlink:href="#DejaVuSans-68" transform="translate(335.205078 0)"/>
    <use xlink:href="#DejaVuSans-6d" transform="translate(398.583984 0)"/>
    <use xlink:href="#DejaVuSans-65" transform="translate(495.996094 0)"/>
    <use xlink:href="#DejaVuSans-6e" transform="translate(557.519531 0)"/>
    <use xlink:href="#DejaVuSans-20" transform="translate(620.898438 0)"/>
    <use xlink:href="#DejaVuSans-75" transform="translate(652.685547 0)"/>
    <use xlink:href="#DejaVuSans-6e" transform="translate(716.064453 0)"/>
    <use xlink:href="#DejaVuSans-64" transform="translate(779.443359 0)"/>
    <use xlink:href="#DejaVuSans-20" transform="translate(842.919922 0)"/>
    <use xlink:href="#DejaVuSans-64" transform="translate(874.707031 0)"/>
    <use xlink:href="#DejaVuSans-65" transform="translate(938.183594 0)"/>
    <use xlink:href="#DejaVuSans-72" transform="translate(999.707031 0)"/>
    <use xlink:href="#DejaVuSans-65" transform="translate(1038.570312 0)"/>
    <use xlink:href="#DejaVuSans-6e" transform="translate(1100.09375 0)"/>
    <use xlink:href="#DejaVuSans-20" transform="translate(1163.472656 0)"/>
    <use xlink:href="#DejaVuSans-45" transform="translate(1195.259766 0)"/>
    <use xlink:href="#DejaVuSans-72" transform="translate(1258.443359 0)"/>
    <use xlink:href="#DejaVuSans-67" transform="translate(1297.806641 0)"/>
    <use xlink:href="#DejaVuSans-65" transform="translate(1361.283203 0)"/>
    <use xlink:href="#DejaVuSans-62" transform="translate(1422.806641 0)"/>
    <use xlink:href="#DejaVuSans-6e" transform="translate(1486.283203 0)"/>
    <use xlink:href="#DejaVuSans-69" transform="translate(1549.662109 0)"/>
    <use xlink:href="#DejaVuSans-73" transform="translate(1577.445312 0)"/>
    <use xlink:href="#DejaVuSans-73" transform="translate(1629.544922 0)"/>
    <use xlink:href="#DejaVuSans-65" transform="translate(1681.644531 0)"/>
    <use xlink:href="#DejaVuSans-20" transform="translate(1743.167969 0)"/>
    <use xlink:href="#DejaVuSans-66" transform="translate(1774.955078 0)"/>
    <use xlink:href="#DejaVuSans-fc" transform="translate(1810.160156 0)"/>
    <use xlink:href="#DejaVuSans-72" transform="translate(1873.539062 0)"/>
    <use xlink:href="#DejaVuSans-20" transform="translate(1914.652344 0)"/>
    <use xlink:href="#DejaVuSans-64" transform="translate(1946.439453 0)"/>
    <use xlink:href="#DejaVuSans-69" transform="translate(2009.916016 0)"/>
    <use xlink:href="#DejaVuSans-65" transform="translate(2037.699219 0)"/>
    <use xlink:href="#DejaVuSans-20" transform="translate(2099.222656 0)"/>
    <use xlink:href="#DejaVuSans-46" transform="translate(2131.009766 0)"/>
    <use xlink:href="#DejaVuSans-f6" transform="translate(2184.904297 0)"/>
    <use xlink:href="#DejaVuSans-72" transform="translate(2246.085938 0)"/>
    <use xlink:href="#DejaVuSans-64" transform="translate(2285.449219 0)"/>
    <use xlink:href="#DejaVuSans-65" transform="translate(2348.925781 0)"/>
    <use xlink:href="#DejaVuSans-72" transform="translate(2410.449219 0)"/>
    <use xlink:href="#DejaVuSans-75" transform="translate(2451.5625 0)"/>
    <use xlink:href="#DejaVuSans-6e" transform="translate(2514.941406 0)"/>
    <use xlink:href="#DejaVuSans-67" transform="translate(2578.320312 0)"/>
    <use xlink:href="#DejaVuSans-20" transform="translate(2641.796875 0)"/>
    <use xlink:href="#DejaVuSans-64" transform="translate(2673.583984 0)"/>
    <use xlink:href="#DejaVuSans-65" transform="translate(2737.060547 0)"/>
    <use xlink:href="#DejaVuSans-72" transform="translate(2798.583984 0)"/>
    <use xlink:href="#DejaVuSans-20" transform="translate(2839.697266 0)"/>
    <use xlink:href="#DejaVuSans-55" transform="translate(2871.484375 0)"/>
    <use xlink:href="#DejaVuSans-6d" transform="translate(2944.677734 0)"/>
    <use xlink:href="#DejaVuSans-73" transform="translate(3042.089844 0)"/>
    <use xlink:href="#DejaVuSans-65" transform="translate(3094.189453 0)"/>
    <use xlink:href="#DejaVuSans-74" transform="translate(3155.712891 0)"/>
    <use xlink:href="#DejaVuSans-7a" transform="translate(3194.921875 0)"/>
    <use xlink:href="#DejaVuSans-75" transform="translate(3247.412109 0)"/>
    <use xlink:href="#DejaVuSans-6e" transform="translate(3310.791016 0)"/>
    <use xlink:href="#DejaVuSans-67" transform="translate(3374.169922 0)"/>
    <use xlink:href="#DejaVuSans-20" transform="translate(3437.646484 0)"/>
    <use xlink:href="#DejaVuSans-7a" transform="translate(3469.433594 0)"/>
    <use xlink:href="#DejaVuSans-69" transform="translate(3521.923828 0)"/>
    <use xlink:href="#DejaVuSans-72" transform="translate(3549.707031 0)"/>
    <use xlink:href="#DejaVuSans-6b" transform="translate(3590.820312 0)"/>
    <use xlink:href="#DejaVuSans-75" transform="translate(3645.605469 0)"/>
    <use xlink:href="#DejaVuSans-6c" transform="translate(3708.984375 0)"/>
    <use xlink:href="#DejaVuSans-e4" transform="translate(3736.767578 0)"/>
    <use xlink:href="#DejaVuSans-72" transform="translate(3798.046875 0)"/>
    <use xlink:href="#DejaVuSans-65" transform="translate(3836.910156 0)"/>
    <use xlink:href="#DejaVuSans-72" transform="translate(3898.433594 0)"/>
   </g>
   <!-- Wertschöpfungsprozesse in Ihrem Unternehmen? – Qualifizierungsmaßnahmen -->
   <g transform="translate(250.145 580.912344) scale(0.11 -0.11)">
    <defs>
     <path id="DejaVuSans-70" d="M 1159 525 
L 1159 -1331 
L 581 -1331 
L 581 3500 
L 1159 3500 
L 1159 2969 
Q 1341 3281 1617 3432 
Q 1894 3584 2278 3584 
Q 2916 3584 3314 3078 
Q 3713 2572 3713 1747 
Q 3713 922 3314 415 
Q 2916 -91 2278 -91 
Q 1894 -91 1617 61 
Q 1341 213 1159 525 
z
M 3116 1747 
Q 3116 2381 2855 2742 
Q 2594 3103 2138 3103 
Q 1681 3103 1420 2742 
Q 1159 2381 1159 1747 
Q 1159 1113 1420 752 
Q 1681 391 2138 391 
Q 2594 391 2855 752 
Q 3116 1113 3116 1747 
z
" transform="scale(0.015625)"/>
     <path id="DejaVuSans-49" d="M 628 4666 
L 1259 4666 
L 1259 0 
L 628 0 
L 628 4666 
z
" transform="scale(0.015625)"/>
     <path id="DejaVuSans-3f" d="M 1222 794 
L 1856 794 
L 1856 0 
L 1222 0 
L 1222 794 
z
M 1838 1253 
L 1241 1253 
L 1241 1734 
Q 1241 2050 1328 2253 
Q 1416 2456 1697 2725 
L 1978 3003 
Q 2156 3169 2236 3316 
Q 2316 3463 2316 3616 
Q 2316 3894 2111 4066 
Q 1906 4238 1569 4238 
Q 1322 4238 1042 4128 
Q 763 4019 459 3809 
L 459 4397 
Q 753 4575 1054 4662 
Q 1356 4750 1678 4750 
Q 2253 4750 2601 4447 
Q 2950 4144 2950 3647 
Q 2950 3409 2837 3195 
Q 2725 2981 2444 2713 
L 2169 2444 
Q 2022 2297 1961 2214 
Q 1900 2131 1875 2053 
Q 1856 1988 1847 1894 
Q 1838 1800 1838 1638 
L 1838 1253 
z
" transform="scale(0.015625)"/>
     <path id="DejaVuSans-2013" d="M 313 1978 
L 2888 1978 
L 2888 1528 
L 313 1528 
L 313 1978 
z
" transform="scale(0.015625)"/>
    </defs>
    <use xlink:href="#DejaVuSans-57"/>
    <use xlink:href="#DejaVuSans-65" transform="translate(93.001953 0)"/>
    <use xlink:href="#DejaVuSans-72" transform="translate(154.525391 0)"/>
    <use xlink:href="#DejaVuSans-74" transform="translate(195.638672 0)"/>
    <use xlink:href="#DejaVuSans-73" transform="translate(234.847656 0)"/>
    <use xlink:href="#DejaVuSans-63" transform="translate(286.947266 0)"/>
    <use xlink:href="#DejaVuSans-68" transform="translate(341.927734 0)"/>
    <use xlink:href="#DejaVuSans-f6" transform="translate(405.306641 0)"/>
    <use xlink:href="#DejaVuSans-70" transform="translate(466.488281 0)"/>
    <use xlink:href="#DejaVuSans-66" transform="translate(529.964844 0)"/>
    <use xlink:href="#DejaVuSans-75" transform="translate(565.169922 0)"/>
    <use xlink:href="#DejaVuSans-6e" transform="translate(628.548828 0)"/>
    <use xlink:href="#DejaVuSans-67" transform="translate(691.927734 0)"/>
    <use xlink:href="#DejaVuSans-73" transform="translate(755.404297 0)"/>
    <use xlink:href="#DejaVuSans-70" transform="translate(807.503906 0)"/>
    <use xlink:href="#DejaVuSans-72" transform="translate(870.980469 0)"/>
    <use xlink:href="#DejaVuSans-6f" transform="translate(909.84375 0)"/>
    <use xlink:href="#DejaVuSans-7a" transform="translate(971.025391 0)"/>
    <use xlink:href="#DejaVuSans-65" transform="translate(1023.515625 0)"/>
    <use xlink:href="#DejaVuSans-73" transform="translate(1085.039062 0)"/>
    <use xlink:href="#DejaVuSans-73" transform="translate(1137.138672 0)"/>
    <use xlink:href="#DejaVuSans-65" transform="translate(1189.238281 0)"/>
    <use xlink:href="#DejaVuSans-20" transform="translate(1250.761719 0)"/>
    <use xlink:href="#DejaVuSans-69" transform="translate(1282.548828 0)"/>
    <use xlink:href="#DejaVuSans-6e" transform="translate(1310.332031 0)"/>
    <use xlink:href="#DejaVuSans-20" transform="translate(1373.710938 0)"/>
    <use xlink:href="#DejaVuSans-49" transform="translate(1405.498047 0)"/>
    <use xlink:href="#DejaVuSans-68" transform="translate(1434.990234 0)"/>
    <use xlink:href="#DejaVuSans-72" transform="translate(1498.369141 0)"/>
    <use xlink:href="#DejaVuSans-65" transform="translate(1537.232422 0)"/>
    <use xlink:href="#DejaVuSans-6d" transform="translate(1598.755859 0)"/>
    <use xlink:href="#DejaVuSans-20" transform="translate(1696.167969 0)"/>
    <use xlink:href="#DejaVuSans-55" transform="translate(1727.955078 0)"/>
    <use xlink:href="#DejaVuSans-6e" transform="translate(1801.148438 0)"/>
    <use xlink:href="#DejaVuSans-74" transform="translate(1864.527344 0)"/>
    <use xlink:href="#DejaVuSans-65" transform="translate(1903.736328 0)"/>
    <use xlink:href="#DejaVuSans-72" transform="translate(1965.259766 0)"/>
    <use xlink:href="#DejaVuSans-6e" transform="translate(2004.623047 0)"/>
    <use xlink:href="#DejaVuSans-65" transform="translate(2068.001953 0)"/>
    <use xlink:href="#DejaVuSans-68" transform="translate(2129.525391 0)"/>
    <use xlink:href="#DejaVuSans-6d" transform="translate(2192.904297 0)"/>
    <use xlink:href="#DejaVuSans-65" transform="translate(2290.316406 0)"/>
    <use xlink:href="#DejaVuSans-6e" transform="translate(2351.839844 0)"/>
    <use xlink:href="#DejaVuSans-3f" transform="translate(2415.21875 0)"/>
    <use xlink:href="#DejaVuSans-20" transform="translate(2468.294922 0)"/>
    <use xlink:href="#DejaVuSans-2013" transform="translate(2500.082031 0)"/>
    <use xlink:href="#DejaVuSans-20" transform="translate(2550.082031 0)"/>
    <use xlink:href="#DejaVuSans-51" transform="translate(2581.869141 0)"/>
    <use xlink:href="#DejaVuSans-75" transform="translate(2660.580078 0)"/>
    <use xlink:href="#DejaVuSans-61" transform="translate(2723.958984 0)"/>
    <use xlink:href="#DejaVuSans-6c" transform="translate(2785.238281 0)"/>
    <use xlink:href="#DejaVuSans-69" transform="translate(2813.021484 0)"/>
    <use xlink:href="#DejaVuSans-66" transform="translate(2840.804688 0)"/>
    <use xlink:href="#DejaVuSans-69" transform="translate(2876.009766 0)"/>
    <use xlink:href="#DejaVuSans-7a" transform="translate(2903.792969 0)"/>
    <use xlink:href="#DejaVuSans-69" transform="translate(2956.283203 0)"/>
    <use xlink:href="#DejaVuSans-65" transform="translate(2984.066406 0)"/>
    <use xlink:href="#DejaVuSans-72" transform="translate(3045.589844 0)"/>
    <use xlink:href="#DejaVuSans-75" transform="translate(3086.703125 0)"/>
    <use xlink:href="#DejaVuSans-6e" transform="translate(3150.082031 0)"/>
    <use xlink:href="#DejaVuSans-67" transform="translate(3213.460938 0)"/>
    <use xlink:href="#DejaVuSans-73" transform="translate(3276.9375 0)"/>
    <use xlink:href="#DejaVuSans-6d" transform="translate(3329.037109 0)"/>
    <use xlink:href="#DejaVuSans-61" transform="translate(3426.449219 0)"/>
    <use xlink:href="#DejaVuSans-df" transform="translate(3487.728516 0)"/>
    <use xlink:href="#DejaVuSans-6e" transform="translate(3550.716797 0)"/>
    <use xlink:href="#DejaVuSans-61" transform="translate(3614.095703 0)"/>
    <use xlink:href="#DejaVuSans-68" transform="translate(3675.375 0)"/>
    <use xlink:href="#DejaVuSans-6d" transform="translate(3738.753906 0)"/>
    <use xlink:href="#DejaVuSans-65" transform="translate(3836.166016 0)"/>
    <use xlink:href="#DejaVuSans-6e" transform="translate(3897.689453 0)"/>
   </g>
  </g>
 </g>
 <defs>
  <clipPath id="p6f65618060">
   <rect x="254.16" y="51.84" width="427.68" height="427.68"/>
  </clipPath>
 </defs>
</svg>
